P2
# Face with average contibution
92 112
255
196
193
196
195
188
188
186
186
183
185
190
191
184
187
187
194
193
189
185
192
196
190
191
193
191
196
196
191
190
187
185
181
187
191
186
183
181
179
185
180
186
186
196
190
186
191
191
184
185
180
168
174
189
197
181
170
169
175
166
172
173
165
168
164
169
175
176
178
183
184
187
182
177
181
185
176
181
181
180
177
175
178
179
177
178
179
176
175
180
174
177
177
194
193
191
194
187
189
186
184
183
187
187
185
187
189
192
193
182
184
177
194
198
195
195
196
199
198
192
189
196
191
191
191
186
183
183
178
183
177
181
184
185
186
193
194
186
177
180
178
182
189
183
181
190
188
175
169
168
169
171
169
170
172
169
165
165
170
168
169
174
191
186
185
178
184
186
183
179
183
181
179
180
176
175
180
179
178
177
177
180
179
176
176
192
194
194
192
189
185
191
184
185
186
185
178
182
195
189
183
180
181
191
203
203
197
197
200
202
204
196
201
206
193
190
190
187
174
185
192
186
174
183
181
187
188
188
192
185
184
189
188
192
188
195
192
192
179
185
169
173
169
174
173
163
171
173
174
169
163
167
167
171
173
184
183
187
186
186
187
185
181
182
181
182
183
178
181
182
178
177
177
180
180
176
176
196
195
194
191
186
186
190
189
188
183
185
181
183
187
180
181
189
197
196
201
202
203
194
202
207
207
206
207
198
194
196
192
194
190
186
190
187
184
188
175
185
189
177
183
185
182
189
190
191
195
195
199
196
189
187
185
175
179
173
179
176
169
172
176
171
173
169
169
173
167
178
181
186
180
185
185
185
183
180
184
177
183
180
178
181
181
179
178
178
180
180
175
198
194
194
190
190
187
191
189
187
184
180
182
184
175
184
186
202
201
201
199
202
200
199
201
199
201
202
199
196
199
200
200
197
195
191
184
192
197
193
179
181
180
178
175
178
178
180
191
202
194
189
192
198
199
188
186
178
182
178
178
183
174
166
170
172
177
180
170
179
178
178
174
187
184
181
182
185
183
185
178
180
181
183
181
180
178
178
178
180
180
181
179
195
194
193
192
193
195
192
185
187
180
176
175
184
183
195
199
201
208
210
205
203
202
199
196
196
199
200
197
194
194
195
189
189
192
186
182
186
188
183
182
173
171
170
176
182
178
182
192
196
196
193
199
197
197
193
186
178
180
179
180
178
190
180
173
168
178
194
183
176
186
185
184
176
189
179
173
187
190
189
186
182
180
182
184
181
180
180
181
180
182
179
180
192
194
193
190
195
197
194
176
180
178
174
174
192
192
199
199
198
206
211
211
204
197
190
197
194
198
198
195
197
193
190
181
179
184
190
184
184
187
184
175
176
174
178
175
181
185
189
194
190
196
198
198
215
206
192
191
184
190
184
178
183
184
186
186
175
175
190
192
184
180
184
197
177
179
183
174
183
189
192
188
184
180
180
185
181
181
178
181
182
183
181
182
196
196
195
191
198
196
189
181
179
169
179
184
192
194
210
199
211
212
211
207
197
193
187
186
191
197
195
199
195
190
184
182
182
179
185
187
188
191
192
193
195
193
188
184
185
195
199
201
203
209
214
209
206
200
189
184
183
190
189
182
192
184
188
184
181
180
185
188
186
185
185
191
185
177
175
179
187
188
183
185
180
189
185
182
182
181
179
178
185
183
180
183
196
197
194
192
194
194
187
184
175
178
184
196
193
204
208
218
223
214
208
204
198
190
179
184
189
196
197
195
190
189
188
195
192
184
185
190
188
201
206
201
199
198
198
201
196
199
204
206
206
213
225
219
201
201
192
185
185
184
183
186
191
189
186
185
183
178
185
178
183
188
190
181
178
177
177
179
182
186
181
181
181
187
191
186
183
188
179
179
184
183
181
181
197
194
191
189
191
194
182
181
181
192
194
198
199
210
210
219
213
199
200
196
186
182
184
181
182
189
183
184
184
185
201
197
191
195
196
199
194
192
201
204
202
203
202
210
200
196
197
198
203
206
206
205
199
199
195
185
183
186
179
181
193
194
180
182
179
179
178
181
172
187
191
189
176
169
180
181
179
179
188
184
186
179
188
193
187
188
182
181
183
180
181
186
194
194
188
186
192
187
181
186
195
202
201
202
206
216
214
203
197
192
193
182
179
187
187
180
179
188
185
189
188
190
201
203
202
205
202
201
200
199
202
199
196
204
198
200
198
194
202
205
208
204
196
189
194
197
198
187
184
190
185
186
185
193
183
182
181
178
187
184
188
183
187
187
187
177
174
180
175
183
186
183
185
188
181
192
192
183
184
189
183
180
181
186
193
188
192
193
186
179
183
192
201
202
197
202
212
216
208
198
189
190
181
179
189
195
186
181
183
184
189
185
189
191
192
203
200
207
200
200
207
202
202
205
199
197
197
203
204
201
204
203
206
196
189
186
191
197
197
183
180
179
182
188
187
193
191
184
189
184
186
185
196
191
190
191
195
191
178
181
176
180
190
194
186
188
185
181
191
188
187
190
181
180
181
183
187
186
188
190
185
182
192
199
202
197
199
206
210
199
191
190
186
181
178
183
188
187
189
188
191
190
184
193
194
191
195
203
195
200
204
210
213
206
206
205
198
194
191
199
204
194
198
197
200
202
192
197
194
197
194
181
181
178
180
185
183
191
197
190
186
188
183
191
198
201
199
195
192
198
194
185
180
179
192
191
203
189
189
188
181
186
189
191
189
186
183
185
186
183
184
190
182
182
197
201
200
202
202
209
206
193
190
188
181
176
188
185
182
185
183
186
189
187
189
191
193
195
201
205
201
201
207
209
212
204
205
201
198
199
193
197
197
193
197
188
193
195
191
195
191
186
192
179
180
176
183
182
184
194
197
196
188
191
190
192
198
200
203
202
199
200
196
198
184
181
190
195
197
200
197
193
184
184
188
187
191
191
187
187
185
181
183
179
183
184
190
199
201
209
212
208
203
191
193
186
174
180
188
183
182
187
184
186
193
195
195
188
200
203
203
202
206
205
204
205
205
203
196
193
193
199
192
194
194
192
193
185
189
186
192
194
188
186
184
182
180
176
182
174
180
186
194
194
196
192
186
185
195
198
197
202
202
204
202
200
193
185
184
190
193
196
198
196
189
184
192
189
189
192
191
175
181
182
178
187
186
191
194
192
199
202
211
204
194
190
189
183
184
186
185
184
178
181
187
198
200
194
187
193
197
193
197
199
202
197
199
203
198
194
194
186
187
198
194
191
192
197
191
183
184
183
184
180
179
180
180
175
172
172
178
174
184
191
193
184
190
187
181
181
187
198
199
193
201
204
207
193
202
193
185
193
188
195
198
198
199
187
191
196
186
194
191
185
184
178
182
183
191
188
191
192
204
204
200
192
189
190
182
177
191
191
187
183
178
174
188
196
196
189
191
191
187
197
192
189
193
194
192
188
188
184
187
181
180
188
186
191
193
195
189
191
192
189
186
180
177
168
175
173
173
180
178
174
175
182
184
180
179
169
173
170
180
192
197
200
193
204
202
200
197
200
187
190
192
191
192
194
205
193
187
199
189
192
199
192
180
179
176
181
183
192
196
199
205
198
185
182
188
184
170
180
185
190
185
177
175
183
190
189
189
185
187
194
190
194
193
187
193
188
189
183
185
177
179
185
177
183
183
182
187
192
193
191
194
187
187
182
183
177
171
171
178
183
180
175
172
190
180
172
170
160
163
171
171
191
197
201
198
199
203
200
203
203
198
181
192
193
192
196
203
209
193
195
197
190
196
190
177
183
176
174
189
200
197
200
201
191
188
183
181
174
174
175
184
183
184
181
179
189
186
187
185
189
192
196
195
194
198
191
196
189
189
183
184
181
177
180
178
179
184
181
191
192
188
182
182
178
178
182
176
174
170
172
175
178
177
170
175
187
184
177
174
161
166
164
168
183
192
193
192
194
202
211
202
203
201
187
180
196
190
197
203
203
206
197
194
194
195
194
170
180
171
180
194
205
198
196
202
189
187
175
172
171
174
176
189
183
182
186
190
186
185
189
192
194
197
199
197
197
195
191
191
188
182
179
183
184
178
179
180
182
182
185
185
184
186
185
177
178
171
182
179
177
174
167
167
170
172
166
176
179
191
186
180
166
171
167
155
174
181
193
192
195
199
205
207
205
210
197
187
186
192
193
194
206
209
206
199
197
197
200
173
176
178
186
198
207
200
198
190
182
180
173
175
177
183
186
189
188
186
190
195
192
181
192
196
197
194
193
197
192
197
193
190
189
183
186
186
180
179
182
178
180
178
189
185
180
185
182
182
173
179
177
180
178
176
167
161
167
167
172
178
176
182
184
187
174
173
175
166
171
189
188
188
188
193
199
207
201
209
205
199
178
189
189
191
208
210
206
201
202
198
199
167
173
182
191
198
204
193
191
185
185
174
167
176
180
185
190
192
194
195
195
197
192
187
191
190
191
192
188
192
189
186
191
190
182
183
185
184
179
177
182
185
181
181
185
183
182
182
179
174
174
177
181
180
176
177
169
167
163
164
166
178
174
179
179
182
195
187
176
180
184
193
193
190
185
197
201
200
204
207
202
210
182
183
187
192
211
211
209
209
198
199
199
167
169
186
195
196
196
191
183
186
179
169
179
188
185
187
187
198
202
207
203
195
193
188
188
192
186
187
187
188
186
188
190
187
185
183
184
183
178
179
183
186
185
183
182
181
175
177
170
174
173
176
177
175
177
171
171
169
168
167
163
176
177
175
178
176
192
199
179
185
189
196
193
189
185
183
195
196
200
196
207
200
193
182
186
194
204
215
214
206
205
197
199
171
182
189
197
199
193
186
190
174
174
176
186
192
187
188
196
210
212
206
204
194
190
191
184
181
179
185
188
187
192
192
189
187
187
187
184
179
184
183
188
187
185
181
180
179
176
176
175
175
174
173
170
176
173
173
174
173
175
176
173
173
177
176
178
174
189
184
186
185
180
197
196
192
191
184
187
193
193
194
206
201
194
187
185
192
200
219
219
209
210
210
197
177
190
193
200
194
195
197
186
175
180
184
185
185
192
201
209
220
216
210
204
199
190
185
184
182
177
187
192
193
191
190
187
186
187
186
187
186
185
186
187
188
187
186
180
182
175
174
173
173
174
173
174
178
181
179
183
181
182
181
178
180
181
183
186
179
184
183
187
191
186
195
200
199
189
187
186
188
190
193
202
199
191
194
184
191
195
209
222
214
207
214
204
177
192
191
194
192
199
195
185
182
190
194
190
187
200
213
218
215
208
206
200
197
189
187
186
186
183
182
195
194
191
190
193
191
189
189
191
193
192
189
187
189
182
179
179
179
174
175
174
174
181
180
181
185
189
190
192
195
195
190
189
189
187
188
190
191
188
187
187
192
199
195
203
200
194
193
193
196
197
194
202
202
199
194
191
198
200
197
217
219
215
207
207
180
193
192
199
203
199
190
188
197
184
195
197
195
206
224
225
217
202
199
195
192
187
186
189
189
187
189
194
196
189
191
193
196
194
196
200
195
195
190
192
191
186
179
182
181
179
178
182
178
181
188
188
195
195
196
200
203
201
199
198
199
197
198
196
195
195
188
189
190
205
204
207
205
197
196
204
202
207
197
196
196
202
197
195
201
206
199
212
216
221
216
205
192
189
197
204
209
198
191
189
192
179
198
198
207
224
223
223
216
203
204
194
194
190
189
188
190
191
192
193
191
190
190
196
194
192
196
196
194
188
187
187
190
184
183
182
183
182
185
185
185
189
195
201
204
204
203
208
210
211
208
205
205
206
204
202
208
204
199
192
191
206
211
210
204
208
198
206
203
206
203
196
196
203
195
197
198
209
206
204
211
216
210
214
191
191
196
209
208
193
195
182
188
185
197
206
212
223
222
221
214
204
199
191
193
189
192
191
192
195
193
196
188
193
191
193
189
192
189
193
190
183
181
184
183
182
180
183
187
184
192
190
193
201
201
205
207
209
211
212
214
214
211
208
210
211
209
209
211
210
207
201
188
205
213
209
206
203
202
208
202
198
207
195
193
203
193
186
194
207
212
203
215
207
208
219
185
193
198
214
206
191
190
178
187
194
201
215
218
213
223
217
210
203
194
194
191
192
193
195
199
198
195
195
192
192
190
192
189
186
187
192
189
183
180
186
186
182
183
185
187
189
194
195
200
204
205
206
209
207
206
214
211
211
208
213
211
214
212
212
215
212
215
201
195
201
215
216
202
206
205
204
202
202
204
204
193
200
193
185
181
200
209
208
214
207
202
216
182
201
202
214
199
185
190
184
184
200
210
212
208
210
214
214
209
206
198
193
195
193
196
197
201
195
190
192
195
193
187
190
188
186
191
190
189
189
186
189
189
187
187
185
191
193
196
201
201
206
207
202
202
204
204
209
210
208
208
211
209
211
215
213
217
213
214
205
195
199
208
222
203
204
207
205
202
205
204
205
199
203
196
186
183
198
199
208
221
205
202
205
194
207
210
209
186
174
190
188
186
209
212
208
206
206
208
207
210
206
197
191
191
190
194
196
193
189
189
192
192
192
187
187
186
187
188
191
188
189
191
191
192
190
189
186
189
193
196
199
201
202
202
198
194
199
201
205
205
209
207
208
207
211
215
213
211
212
212
208
198
199
202
211
213
202
201
205
197
201
210
203
215
208
202
190
191
192
198
199
214
205
200
206
197
220
215
205
172
178
187
195
198
203
203
203
200
197
205
202
204
203
192
187
186
190
191
191
188
186
189
187
191
189
188
186
182
187
189
187
185
186
192
191
192
194
193
189
189
195
197
199
197
200
200
194
195
196
199
200
200
203
205
204
203
206
209
210
208
211
212
208
200
198
199
204
214
204
199
193
198
188
199
199
213
216
199
187
181
192
196
197
201
203
200
211
209
218
214
194
171
184
188
203
203
202
200
198
189
191
201
197
194
194
184
183
187
189
190
190
184
182
188
189
188
188
191
187
186
184
183
183
182
184
184
191
192
196
193
192
191
194
198
198
196
199
199
190
192
199
197
197
197
197
196
195
194
196
199
198
198
203
205
206
194
197
197
197
212
206
199
183
192
187
184
196
201
214
203
184
181
185
199
195
190
203
198
209
215
215
206
188
175
187
192
201
204
201
200
192
184
187
199
197
189
189
178
179
184
186
183
184
182
182
186
187
187
190
190
183
182
184
181
184
180
183
186
187
189
195
194
191
192
194
196
197
196
197
197
191
193
198
199
199
200
195
188
189
190
188
188
186
189
190
194
198
190
194
194
191
204
211
194
180
179
186
181
186
200
209
207
187
184
178
193
196
184
201
204
209
208
196
203
189
174
190
204
198
202
200
201
187
187
191
196
193
181
177
168
176
179
180
180
184
182
183
186
188
189
192
191
179
178
181
180
180
176
183
181
183
186
192
193
196
194
195
194
197
199
199
199
195
198
198
202
202
198
195
190
186
189
186
186
187
187
189
192
197
190
191
191
187
199
207
201
186
175
179
177
181
188
206
206
188
186
185
182
192
191
198
210
209
192
189
193
196
187
185
198
199
195
193
197
189
196
193
192
179
173
166
169
178
177
179
179
186
187
186
189
191
194
193
191
188
185
185
180
181
181
180
182
185
187
192
196
198
195
196
197
197
201
203
203
203
200
203
202
201
199
198
199
195
190
186
185
188
192
193
196
203
193
194
191
188
193
200
204
189
172
170
173
178
182
190
208
187
179
184
184
183
196
200
214
221
185
183
194
200
180
176
199
196
187
191
189
187
196
192
185
178
166
166
164
172
169
172
181
189
184
182
185
192
195
195
197
197
195
194
186
184
183
183
185
186
185
187
196
199
203
201
201
203
204
207
208
206
199
192
200
197
188
187
193
192
190
187
188
189
196
199
205
211
204
199
193
192
192
197
200
195
178
165
163
173
186
191
197
192
187
182
184
190
195
204
221
223
189
187
192
194
179
180
202
198
189
190
187
187
201
194
184
176
167
162
157
168
166
167
181
186
188
189
191
199
206
206
203
211
204
204
194
188
185
185
186
186
186
192
200
209
212
211
211
208
212
209
207
201
193
190
191
186
184
179
189
185
182
184
189
191
198
203
202
209
208
198
191
189
187
190
199
199
183
169
161
165
181
196
202
195
184
185
189
196
196
201
218
218
186
187
186
184
174
187
200
197
195
189
186
197
211
197
189
178
170
162
158
168
171
168
176
179
184
185
189
187
190
194
189
184
181
178
178
177
183
181
187
192
196
201
208
221
225
222
218
213
211
205
201
198
191
185
183
178
177
172
177
178
173
178
189
189
188
197
195
199
197
193
186
183
178
184
185
195
179
163
158
165
172
190
198
202
181
182
194
193
201
202
213
216
174
191
183
173
169
187
191
188
192
177
191
206
217
203
196
188
175
170
167
168
167
164
164
165
176
181
186
185
186
184
197
204
198
195
195
200
199
198
199
205
210
208
213
228
222
215
213
210
200
199
199
196
183
182
179
179
177
176
176
183
182
189
196
190
178
188
191
195
194
193
191
189
180
184
199
198
185
172
160
159
169
183
195
199
184
180
187
194
197
209
206
211
171
191
183
158
171
189
180
181
175
181
181
211
223
208
198
192
176
172
179
176
163
171
174
180
190
191
190
188
182
183
187
188
192
190
191
193
188
189
198
206
206
210
201
220
213
206
207
207
200
194
192
195
181
181
177
175
171
167
171
175
177
187
187
180
167
162
169
175
178
177
177
179
175
175
194
202
182
177
166
156
176
188
182
201
185
180
188
195
195
211
200
204
177
189
174
162
178
191
177
163
171
175
178
207
230
214
205
196
194
189
189
193
191
197
190
189
187
188
170
167
168
176
181
182
188
190
190
194
193
191
200
201
216
211
217
222
211
197
199
197
193
192
189
197
187
179
184
185
182
178
184
179
182
186
185
182
168
165
167
168
175
175
182
170
164
160
170
193
182
169
163
147
164
170
178
215
204
185
185
189
199
207
206
200
172
178
168
174
185
192
181
167
166
178
186
218
236
237
215
202
192
187
192
194
200
190
186
181
171
174
166
165
166
174
179
185
193
200
201
208
209
205
209
198
212
214
223
221
207
193
193
189
190
186
188
198
193
176
181
188
178
181
187
195
189
191
180
176
169
168
165
169
176
179
180
170
166
162
170
182
182
173
163
149
162
154
171
205
190
199
189
180
202
208
204
199
166
168
165
171
190
189
188
178
164
174
193
232
237
244
224
204
186
195
198
195
197
184
180
169
161
159
160
165
169
172
183
185
191
192
201
213
218
213
211
221
221
227
234
224
211
204
200
205
203
203
210
211
206
200
190
190
189
186
181
198
205
210
195
187
176
181
186
179
175
184
183
182
172
166
171
182
189
178
170
152
164
162
163
208
174
177
200
186
202
209
200
198
166
164
178
171
192
188
192
182
163
165
214
232
233
255
227
213
196
205
202
192
194
177
165
146
152
146
147
163
168
174
173
175
177
179
182
197
201
203
205
214
233
221
209
200
217
220
217
218
213
220
218
213
215
213
214
198
206
183
189
189
194
203
200
196
184
183
187
176
172
180
186
183
175
162
168
184
188
192
174
162
154
170
162
198
175
165
187
190
193
208
199
193
152
154
181
189
201
192
196
189
171
173
213
231
232
252
225
199
204
214
205
201
198
177
161
155
161
164
173
163
165
170
163
161
174
176
177
193
199
208
204
197
223
218
198
199
220
221
216
227
210
216
207
215
214
228
215
210
212
185
192
201
207
205
198
194
192
185
188
185
173
168
179
178
179
167
164
186
186
190
193
172
154
166
165
188
181
162
178
189
191
214
191
185
140
144
189
198
215
196
191
181
183
189
190
226
239
233
217
206
202
194
199
199
195
171
162
172
171
179
192
168
172
168
173
161
170
183
182
182
200
209
202
204
205
211
192
190
216
205
207
221
208
197
198
202
216
237
206
184
209
182
184
194
213
201
207
191
195
190
188
183
176
178
176
178
176
169
164
183
196
192
190
165
158
158
163
188
184
168
175
184
210
219
200
182
136
147
182
196
201
186
186
158
183
192
193
224
234
219
218
212
184
190
202
200
195
186
171
179
203
190
197
196
183
192
195
190
195
183
172
172
186
203
204
203
216
210
195
182
207
203
196
214
198
194
193
208
219
231
230
193
215
194
184
187
205
212
214
203
184
187
179
174
177
180
182
184
173
159
162
177
200
214
190
164
168
164
172
181
176
177
179
190
213
229
199
178
142
154
183
189
194
181
178
173
182
195
204
234
229
209
187
208
173
206
194
203
208
194
186
189
201
202
207
208
199
202
198
196
197
188
172
166
178
195
202
194
207
191
185
178
196
210
214
216
214
212
202
209
227
230
221
205
205
198
188
186
196
190
196
190
178
174
172
171
171
172
186
184
178
158
172
171
194
215
206
188
185
169
185
183
171
185
177
187
220
224
211
172
157
151
188
198
196
175
169
180
190
203
200
221
235
213
185
202
178
223
212
206
217
209
195
193
204
218
230
216
215
202
194
186
186
181
163
159
165
179
184
185
192
176
170
177
183
191
198
212
212
215
213
206
222
230
218
211
208
192
201
203
196
182
187
184
185
175
179
176
167
168
171
187
173
166
176
178
183
214
214
201
186
168
191
188
172
184
179
195
208
208
220
169
169
151
177
195
203
196
171
178
189
205
197
209
226
219
185
189
173
217
221
202
208
208
191
193
202
214
209
202
196
181
175
173
168
177
169
164
175
176
174
179
179
166
159
175
179
185
197
207
200
213
207
198
209
219
215
209
194
182
202
202
201
195
188
182
183
185
186
192
175
186
176
197
190
196
186
175
175
203
216
210
196
170
185
185
168
197
203
217
210
196
209
170
166
155
161
184
193
192
176
177
183
207
198
198
214
203
175
167
170
201
201
185
191
191
179
174
183
191
187
184
182
172
167
172
172
181
181
181
181
183
178
185
168
154
158
163
166
168
187
186
191
205
217
209
210
211
194
187
181
177
190
191
192
187
174
175
182
201
192
197
197
176
192
187
192
206
200
177
165
186
212
205
198
189
178
189
173
210
202
206
201
202
207
176
163
161
164
184
181
175
171
173
177
195
213
189
204
197
158
159
169
195
179
172
175
176
160
154
165
169
162
165
169
166
170
179
187
183
173
180
186
182
179
182
169
177
175
173
182
185
174
177
191
198
222
211
213
210
194
177
166
158
181
181
172
172
162
173
169
177
192
185
193
180
189
187
189
198
188
175
173
179
202
209
202
182
179
192
190
211
193
182
188
191
192
189
167
169
171
190
184
165
163
165
175
179
210
195
194
190
153
161
163
184
171
157
156
162
147
151
157
165
155
163
168
167
175
180
188
185
174
183
194
200
208
189
186
200
184
175
189
194
172
182
200
202
212
208
206
203
196
181
161
162
181
180
176
173
173
180
182
190
195
194
188
190
190
188
190
188
181
173
194
198
194
200
195
182
181
210
198
208
203
181
199
176
180
198
167
170
174
187
183
161
156
163
179
170
198
184
189
187
163
160
170
181
169
163
164
164
158
153
156
165
169
177
181
188
188
184
193
189
182
187
193
205
209
189
175
186
175
170
184
179
171
184
199
197
207
199
208
208
189
189
178
174
185
184
180
183
184
183
191
194
196
205
204
210
210
205
209
207
196
188
200
210
197
197
206
199
191
214
199
204
218
195
216
186
184
189
167
166
172
177
180
162
157
157
174
167
175
177
185
182
171
161
168
174
171
166
173
171
170
166
170
178
185
185
192
195
194
191
192
187
184
192
198
208
218
194
191
185
171
179
175
168
168
178
193
185
203
200
206
207
184
186
184
186
184
185
182
192
197
193
193
201
206
204
213
210
213
209
204
208
209
192
196
204
186
199
215
210
193
203
207
203
207
203
211
194
179
171
166
166
170
170
170
168
150
154
172
166
170
163
184
182
171
171
152
167
169
168
174
171
173
180
184
190
197
195
200
201
202
196
190
193
196
200
205
228
220
209
204
193
185
195
180
164
167
178
196
175
178
193
197
212
196
180
169
185
187
181
190
200
201
204
199
198
208
212
208
210
209
208
199
196
199
188
186
191
186
207
220
218
190
205
214
205
200
219
205
190
173
158
169
167
171
164
161
157
150
154
161
168
165
165
171
183
172
170
139
161
168
168
169
167
171
180
190
203
208
208
209
213
211
207
198
204
209
214
217
246
214
218
204
188
198
194
191
166
167
166
169
157
167
187
183
188
194
171
172
162
183
179
181
191
195
195
197
197
204
207
201
204
201
203
195
184
184
190
192
186
190
196
225
208
195
195
209
199
201
228
202
193
167
163
170
177
172
169
157
155
148
156
156
163
173
166
179
184
165
169
139
152
167
163
165
170
176
188
201
210
218
222
223
224
218
207
204
207
213
220
240
227
224
213
201
188
192
190
193
176
176
175
169
160
168
186
182
176
177
169
172
164
171
182
175
175
181
185
183
184
190
196
200
194
189
189
183
181
186
182
197
190
198
196
224
189
196
187
196
192
210
214
187
181
169
175
173
188
177
171
161
158
150
171
170
156
175
174
175
190
170
172
149
155
150
163
162
168
178
185
196
204
223
216
217
217
217
210
206
205
213
217
225
227
221
214
205
189
181
182
182
183
184
183
179
173
177
188
192
172
171
173
184
179
177
181
182
173
178
185
181
180
184
188
188
194
195
185
189
189
192
189
191
194
192
210
208
171
178
176
177
184
232
212
186
167
169
181
185
192
181
185
173
172
168
180
180
155
159
179
185
190
186
180
158
154
157
148
155
164
176
184
199
207
225
222
216
211
212
206
203
212
216
218
223
224
205
199
198
186
183
174
175
190
191
190
185
182
183
189
196
179
171
180
183
198
189
191
191
186
187
183
192
192
199
198
198
193
199
197
195
198
196
191
188
190
191
208
198
194
175
166
169
195
227
216
187
170
170
189
191
188
189
194
184
189
187
180
181
165
157
164
186
195
191
172
170
149
155
158
163
170
178
180
193
203
207
210
204
203
208
210
216
214
214
214
221
217
200
198
194
191
187
167
172
188
191
191
186
187
194
195
195
192
167
170
184
196
196
192
202
191
194
188
190
203
206
205
205
194
197
200
197
196
191
185
182
195
198
195
198
210
191
164
187
200
228
219
186
178
182
184
195
190
190
200
193
209
202
179
181
159
157
161
174
187
189
190
163
171
147
165
170
175
177
180
188
195
199
199
198
204
211
213
210
208
211
212
214
208
200
203
203
199
188
171
165
180
185
187
183
188
200
203
198
188
175
165
182
191
193
188
200
189
198
200
198
202
213
212
211
204
199
191
193
188
189
181
187
198
205
183
211
213
197
190
185
186
223
219
190
202
206
188
182
197
190
195
208
216
216
178
177
152
152
157
156
175
182
184
183
178
171
164
158
175
187
190
194
198
202
203
203
206
210
201
203
201
205
203
212
206
208
197
197
202
193
178
177
181
183
185
178
181
187
201
202
193
192
180
175
190
192
191
199
190
191
194
197
205
206
190
191
194
197
192
192
193
191
184
185
203
207
191
222
215
203
196
183
191
209
222
195
219
217
177
181
191
193
194
207
220
229
190
179
157
167
157
160
171
182
184
179
181
179
175
174
172
179
190
199
202
204
202
203
201
197
195
200
205
214
213
210
208
202
191
194
200
201
188
195
194
190
195
185
185
187
196
202
202
195
194
193
192
195
189
195
198
199
202
200
199
201
194
190
194
193
192
192
193
183
180
192
204
212
192
207
208
206
192
195
183
209
221
199
211
210
158
177
178
189
200
204
217
235
210
193
176
176
162
156
173
186
194
182
179
178
169
176
177
183
189
198
206
204
200
201
197
188
191
201
208
214
210
199
200
195
192
189
191
202
192
198
201
199
203
204
203
196
192
196
197
199
196
194
202
193
185
196
190
195
198
198
199
200
198
195
200
200
198
201
199
192
183
186
197
204
189
183
204
202
188
197
184
208
214
208
216
205
176
175
175
177
201
219
213
230
215
206
188
174
170
159
170
188
193
189
183
180
174
174
180
189
192
196
204
195
190
191
187
184
190
195
205
208
199
193
202
197
193
186
178
190
187
194
208
199
203
208
204
203
204
203
203
199
196
196
190
195
200
198
201
199
194
196
196
193
191
189
189
192
187
192
198
197
185
183
200
203
189
191
203
192
187
199
190
193
214
215
210
193
190
173
178
165
190
218
224
220
204
206
183
174
169
166
174
182
189
183
178
176
173
173
176
183
179
186
191
192
187
185
183
182
187
197
199
199
188
196
205
200
195
184
180
176
182
194
204
196
199
199
199
202
214
213
213
214
194
186
184
187
190
196
199
205
202
198
199
190
180
180
175
178
185
189
188
186
179
186
192
205
181
198
200
186
194
211
190
184
215
211
196
186
190
180
172
166
180
214
229
219
200
206
181
178
165
170
173
184
189
182
174
178
167
174
175
177
170
188
195
192
187
186
185
184
183
189
192
189
180
196
202
191
179
173
176
176
178
195
204
190
190
185
187
193
211
223
217
223
206
188
183
187
189
181
191
196
201
201
205
203
193
188
180
179
180
181
186
182
181
199
197
196
184
203
202
182
192
213
190
175
221
204
185
189
192
181
172
162
179
202
231
224
201
204
186
195
167
170
181
186
184
183
175
173
171
171
174
170
182
194
198
194
192
189
189
187
181
180
185
185
185
189
191
177
169
159
167
168
175
182
192
191
179
174
170
186
206
225
218
215
208
194
189
185
185
174
183
189
199
200
196
188
181
179
175
179
178
177
175
174
182
195
190
203
196
208
198
187
195
214
198
168
218
198
183
183
191
185
167
159
168
190
222
231
206
206
185
206
177
172
197
190
182
175
175
172
167
169
174
179
191
195
199
201
198
192
189
182
179
177
186
188
189
187
181
176
168
152
156
163
173
175
179
177
166
163
163
181
199
212
210
207
201
188
187
184
186
179
178
184
194
194
192
184
180
180
176
175
178
174
172
173
181
194
194
202
200
198
194
196
200
221
197
174
208
202
192
183
189
184
170
161
163
192
209
234
213
207
179
192
179
181
199
195
176
171
170
172
167
169
177
188
189
193
202
207
199
194
188
180
177
177
184
194
195
187
176
174
166
159
151
160
175
180
175
170
162
165
166
178
192
198
205
197
194
190
192
191
188
181
179
184
192
188
186
183
176
181
176
174
178
176
175
172
185
200
202
195
189
195
201
205
204
221
195
176
205
201
196
187
193
187
171
170
170
198
203
220
214
209
183
177
187
194
200
198
174
164
169
170
166
172
181
193
192
198
205
209
207
197
189
185
176
184
185
187
196
190
184
177
172
174
164
172
168
174
163
171
177
180
175
178
186
195
201
195
196
181
193
191
189
187
186
191
186
191
188
186
178
178
176
175
179
177
178
174
187
202
203
196
189
194
208
206
214
223
183
186
200
202
196
192
195
182
173
171
177
194
207
210
206
202
194
166
194
201
198
200
171
159
164
170
167
174
181
189
194
200
209
209
203
198
192
184
184
181
177
181
189
195
180
173
174
178
172
167
160
154
155
163
178
186
192
191
193
196
195
194
188
176
175
184
191
189
187
190
187
188
195
190
182
179
176
176
175
176
180
175
192
204
207
202
194
192
206
212
215
215
170
189
201
198
190
192
192
178
171
171
183
194
206
205
206
206
207
186
194
197
197
195
176
157
163
168
166
173
179
187
189
203
207
208
199
196
193
187
182
169
163
170
178
188
173
169
170
180
173
170
168
160
162
170
176
176
187
191
194
195
192
191
182
171
165
179
190
189
185
185
191
192
196
201
191
178
179
177
180
177
180
176
195
205
203
197
194
193
208
206
205
198
163
190
196
195
185
190
181
176
169
172
182
192
194
210
196
215
208
202
188
194
193
182
182
163
164
168
164
167
172
181
185
192
197
200
198
196
191
180
171
156
155
150
161
171
170
174
173
177
182
180
187
182
176
173
181
178
181
194
195
197
193
188
181
173
164
179
185
189
187
182
195
197
198
203
201
183
175
176
181
180
180
180
195
200
198
185
194
199
208
197
197
180
177
188
188
194
181
189
178
177
166
171
179
191
187
214
191
217
207
206
191
185
182
177
185
170
171
174
170
163
163
174
172
178
188
191
190
190
181
178
179
177
163
152
157
164
159
166
173
182
190
197
203
201
199
180
187
188
191
199
206
200
196
186
189
181
175
177
187
189
192
194
196
200
200
195
197
183
179
176
176
181
179
186
191
188
181
175
196
205
207
202
193
184
179
184
186
188
178
192
179
184
171
167
175
184
189
199
190
206
209
197
197
182
180
181
185
179
174
176
177
164
166
165
166
175
179
183
174
176
177
181
183
179
161
159
162
160
158
163
180
193
202
206
209
214
213
199
194
191
196
207
207
204
195
192
192
196
190
188
184
187
204
202
206
205
200
189
191
183
172
178
172
176
178
185
189
182
178
171
201
208
210
196
188
180
178
179
189
186
181
185
187
186
180
170
171
186
182
186
188
201
196
192
202
176
180
187
190
186
177
180
179
168
169
166
170
169
172
168
162
170
172
172
178
168
156
162
165
161
171
175
185
199
213
211
206
205
206
201
195
187
190
196
213
214
198
192
188
194
204
204
193
196
199
209
210
210
201
188
184
179
165
170
174
169
178
183
187
181
176
167
200
209
205
182
178
177
172
177
189
187
180
184
186
181
185
177
169
180
181
179
190
194
192
178
200
180
176
188
193
187
177
180
180
174
172
169
173
164
165
160
170
174
178
174
176
165
153
157
168
178
187
189
192
205
213
218
205
201
200
203
199
188
190
193
214
224
205
203
198
193
205
196
199
202
201
205
207
203
197
186
178
175
163
166
171
165
174
173
187
183
172
166
197
202
186
165
170
168
168
176
189
181
181
184
182
177
178
182
175
179
181
185
193
178
186
169
184
189
175
190
191
186
178
181
185
181
177
180
181
172
171
169
174
179
179
173
174
166
155
165
182
197
203
197
208
215
212
215
200
189
192
197
198
188
193
200
199
210
201
208
206
199
197
191
195
209
207
203
197
188
183
181
173
173
165
168
168
163
166
168
176
176
170
166
195
186
169
158
171
164
173
178
188
180
182
179
183
177
171
179
176
179
184
177
195
180
183
170
172
180
173
186
188
186
180
182
183
180
184
190
190
189
192
186
182
176
179
174
176
181
176
182
189
196
199
194
213
221
209
217
205
197
197
196
206
210
219
219
212
222
217
213
203
191
207
198
197
208
205
208
194
179
178
179
174
175
171
168
163
161
162
168
172
165
162
168
189
177
166
158
169
165
173
184
179
180
183
180
179
176
172
178
174
178
182
174
190
186
174
181
169
185
164
181
178
183
183
179
185
184
189
197
200
198
201
209
208
194
198
198
200
196
204
205
197
188
193
190
204
213
218
218
218
214
212
211
210
211
227
223
208
217
212
207
201
199
207
205
200
209
211
202
190
171
176
179
174
173
172
167
164
160
158
165
169
159
162
172
186
173
165
164
166
167
180
184
174
179
180
179
177
178
172
175
174
173
183
180
178
189
180
181
172
181
184
188
177
180
186
177
182
187
192
204
204
202
206
214
212
215
206
212
217
209
199
195
198
189
190
184
181
187
198
195
196
204
208
199
189
190
202
196
181
198
207
207
208
206
212
205
198
206
207
197
189
179
174
175
173
179
169
170
170
163
156
167
165
156
163
181
184
175
162
169
167
177
181
184
174
178
174
179
178
186
179
172
175
171
179
185
180
190
185
184
173
180
187
199
193
181
183
171
173
180
189
194
197
200
198
205
200
200
193
203
212
204
179
167
182
181
179
186
181
175
181
178
181
175
167
159
156
160
175
171
174
191
204
210
215
220
214
206
199
201
204
196
187
185
180
178
180
182
175
174
174
169
168
170
164
156
170
191
184
179
167
172
173
179
182
181
176
171
180
179
180
186
185
176
177
174
173
188
193
190
182
180
181
179
182
199
198
186
181
156
165
167
175
175
183
184
184
193
187
189
172
179
192
188
168
152
163
156
156
163
165
170
176
183
172
168
173
178
179
182
193
195
195
203
208
207
211
212
215
209
200
198
197
192
184
190
196
192
183
185
181
180
180
168
175
173
171
168
179
192
184
179
171
175
181
175
185
180
179
165
179
182
177
182
180
184
181
180
175
190
202
191
188
179
183
186
185
192
201
192
186
170
163
157
157
169
174
180
177
195
196
191
183
182
195
198
186
183
179
170
176
172
164
168
182
187
190
187
199
201
203
203
211
215
213
207
203
207
210
209
208
204
193
192
195
196
188
191
203
197
190
185
185
181
180
178
187
176
170
181
184
198
188
173
169
175
183
184
178
176
182
164
171
179
180
181
183
189
189
180
189
190
195
201
191
190
181
192
196
199
201
195
190
186
170
167
164
169
168
185
173
193
201
196
196
190
193
187
189
196
180
181
186
185
188
188
195
199
199
194
198
207
209
206
207
206
210
200
199
202
202
195
197
199
193
195
200
197
193
197
203
201
198
190
183
179
184
189
185
178
176
189
185
198
190
175
171
176
185
184
180
177
182
172
163
183
181
186
183
192
191
191
198
192
187
199
203
200
183
196
200
205
199
197
196
200
182
181
168
178
174
185
183
189
199
195
198
191
183
178
181
185
185
192
200
204
206
211
213
205
204
204
201
203
204
206
201
200
193
182
186
184
179
176
180
186
185
191
198
196
198
203
201
200
197
189
178
178
191
185
188
180
187
191
194
194
186
172
178
178
180
178
185
180
181
175
169
185
182
190
186
193
194
197
196
197
192
194
208
208
195
201
210
206
208
201
204
208
194
182
175
179
184
192
188
206
199
199
202
199
194
193
187
183
187
200
207
208
206
210
212
212
204
204
202
202
201
201
194
190
190
189
188
182
182
179
182
186
189
197
205
203
206
206
204
199
190
181
180
186
197
188
177
192
187
194
199
196
182
173
182
177
174
175
177
181
182
176
163
187
180
190
188
196
201
197
195
197
194
193
201
203
198
198
210
211
210
199
213
209
204
183
174
181
182
193
184
203
204
202
210
194
199
201
195
186
187
196
203
200
199
198
197
201
202
203
205
206
204
201
198
197
197
201
198
199
199
197
196
195
199
211
208
203
204
201
200
192
178
184
180
188
192
189
182
194
196
199
201
196
182
172
181
179
171
176
172
179
184
177
160
181
180
193
195
200
197
200
199
196
193
193
195
198
196
198
201
207
208
199
208
209
207
188
180
176
182
182
182
192
198
195
206
193
188
202
191
195
194
190
189
194
195
187
184
189
194
195
195
201
199
200
199
198
201
205
206
210
210
209
204
204
206
210
206
198
200
194
193
182
176
187
186
185
185
188
193
193
202
208
199
199
181
174
179
182
173
171
171
176
188
179
160
172
182
195
201
197
196
199
195
192
191
192
193
193
186
197
196
204
202
200
201
204
205
199
184
178
182
183
183
184
187
187
189
184
180
188
178
184
183
180
179
181
182
184
182
187
188
188
188
191
191
191
193
195
198
208
206
207
205
208
202
203
201
203
201
200
198
197
187
178
185
187
188
185
190
194
197
202
207
208
199
199
184
176
176
179
180
167
169
175
192
179
158
163
174
199
199
195
193
197
195
190
193
188
196
184
182
205
191
200
199
202
203
195
207
211
191
183
184
188
190
185
187
189
190
180
178
181
181
175
172
175
168
171
168
175
178
181
188
191
188
189
188
182
190
191
195
201
202
197
194
200
201
199
200
204
197
196
198
190
184
186
191
188
186
183
197
200
202
198
205
203
195
197
189
184
175
176
179
174
169
175
192
178
156
153
169
199
197
194
194
196
196
196
193
188
200
189
185
187
184
198
197
202
202
202
199
214
205
185
184
189
193
186
191
186
189
187
188
182
191
180
177
180
173
174
175
179
179
186
186
188
190
187
188
184
191
190
193
190
190
193
193
200
198
199
201
203
197
192
195
179
193
187
193
189
188
194
201
207
206
190
195
205
190
195
190
184
178
178
180
179
173
173
193
175
152
163
158
200
198
193
199
192
195
201
189
189
207
192
169
172
177
201
200
196
205
204
199
210
199
190
185
191
198
189
188
185
185
188
189
187
195
193
188
190
188
187
186
186
184
192
188
186
186
185
196
194
199
197
195
191
197
194
200
200
196
201
204
199
194
187
185
187
199
193
195
187
195
198
204
214
204
189
198
204
195
193
186
181
185
183
178
181
180
174
192
170
158
170
152
193
196
198
197
191
196
197
189
198
210
195
162
162
172
195
200
197
210
206
199
194
196
199
194
191
196
193
189
184
187
191
186
193
197
199
194
192
194
199
202
199
194
197
196
191
195
196
204
207
199
196
196
193
196
195
198
198
202
202
199
197
189
185
186
193
195
199
193
194
202
196
206
216
194
192
205
199
188
198
190
179
187
184
176
180
182
186
193
168
166
169
158
193
197
197
196
187
190
195
199
208
212
191
167
159
164
190
201
200
209
210
192
182
200
209
194
195
192
201
194
184
188
192
189
191
198
200
199
199
199
196
206
205
200
198
201
197
197
191
193
201
192
195
195
192
196
196
193
196
196
191
189
190
186
185
192
195
199
199
201
198
199
196
205
212
184
203
209
200
188
189
199
187
182
188
176
178
184
195
199
167
166
174
159
192
190
190
188
185
185
209
210
208
209
194
171
159
154
183
211
205
208
204
182
196
202
216
198
192
195
201
195
190
191
193
189
186
189
199
200
199
204
197
200
204
196
201
201
197
190
189
192
197
195
194
192
190
190
188
181
187
182
178
183
187
188
188
194
198
197
200
199
196
197
190
201
201
188
195
212
192
198
189
191
194
187
185
175
172
181
197
201
166
166
175
157
191
194
190
189
180
195
219
219
209
211
189
169
162
157
179
221
205
203
189
187
206
204
217
203
187
197
199
196
196
196
194
188
185
184
189
198
195
196
200
195
200
198
192
200
195
187
189
192
190
190
191
184
181
182
179
176
173
176
177
181
193
190
194
195
201
202
206
203
188
190
187
200
198
200
180
195
203
202
191
184
195
190
183
174
174
176
197
198
167
171
177
161
190
192
191
184
184
211
219
219
209
206
186
171
156
158
183
223
207
196
180
193
210
206
217
202
184
184
198
199
197
196
196
192
185
181
183
194
192
198
200
192
194
193
191
195
197
188
186
184
187
188
186
180
175
180
176
167
168
178
182
187
194
195
197
197
206
209
203
205
189
184
193
209
204
190
172
190
204
210
190
182
188
191
190
172
172
174
197
189
165
178
180
167
190
190
190
186
199
219
215
216
209
202
178
169
162
163
185
223
212
194
176
191
211
203
215
200
176
178
184
196
199
200
197
195
193
182
184
189
190
200
199
192
194
196
192
195
193
187
182
183
184
184
180
174
180
176
169
168
179
180
183
190
194
195
195
196
207
204
200
196
179
192
201
211
194
178
163
189
208
212
197
185
184
189
193
175
170
176
195
179
166
177
180
171
192
195
191
192
207
218
217
211
208
200
175
175
158
156
189
224
218
188
177
190
207
203
208
200
178
173
186
196
193
203
199
197
199
189
189
185
195
202
199
191
194
196
193
193
195
187
189
189
182
189
180
174
177
175
174
177
185
186
189
190
200
202
190
199
204
201
191
191
191
202
204
208
188
180
160
177
203
213
196
189
191
192
191
182
171
179
191
170
174
173
181
173
199
196
192
199
212
218
218
205
209
196
180
179
148
157
201
235
218
182
180
188
206
203
198
194
185
166
183
200
193
195
195
199
204
189
194
196
201
199
196
188
194
193
194
195
191
188
189
193
189
194
186
179
182
178
179
188
189
194
195
196
201
196
194
192
200
195
191
197
201
200
210
202
187
185
154
172
185
215
200
189
189
199
189
184
172
181
180
164
173
174
183
176
195
197
194
204
211
215
216
206
208
199
182
154
140
169
209
239
215
185
180
196
206
202
185
192
188
174
181
193
207
190
184
194
203
196
197
202
196
191
194
190
192
193
199
196
194
188
191
187
194
190
188
184
188
186
190
196
197
201
199
200
192
193
189
182
195
195
194
202
197
203
211
195
183
181
145
169
178
209
206
187
184
200
196
191
178
182
166
164
170
176
172
172
192
194
194
206
220
211
214
200
198
199
163
141
151
175
215
233
208
194
173
200
216
193
177
190
186
183
180
183
200
197
183
185
188
194
195
203
191
192
193
192
195
198
198
194
193
189
189
188
188
186
189
189
190
195
202
200
204
207
207
195
193
190
183
182
196
199
194
209
203
206
204
189
188
169
148
168
179
202
211
199
178
192
198
200
191
184
163
164
171
173
171
166
194
192
195
212
214
217
210
202
185
194
159
152
164
182
205
223
205
204
176
193
223
196
172
187
179
187
178
181
190
193
193
189
179
184
188
192
189
189
194
190
192
196
190
192
192
185
185
186
188
188
196
197
199
204
210
204
206
207
196
194
189
188
188
188
199
203
193
219
209
201
199
185
194
152
143
161
183
191
213
202
172
181
195
203
201
183
164
175
174
176
169
163
193
190
196
205
209
221
212
195
176
187
166
165
163
183
198
211
200
207
183
196
216
200
181
185
183
180
180
181
186
190
190
189
186
180
182
180
177
180
189
183
187
192
188
189
187
191
192
193
194
197
198
204
206
212
212
207
206
196
193
193
191
191
192
194
204
205
194
213
217
201
197
193
179
153
142
161
183
188
213
201
173
186
191
205
197
173
173
183
174
180
175
160
192
197
207
206
204
220
207
188
175
190
173
174
151
179
182
201
202
204
183
199
197
196
190
191
178
175
183
179
183
190
188
182
185
184
180
174
173
176
176
181
182
186
190
190
193
197
198
203
204
206
213
213
217
217
210
201
192
197
191
195
193
191
192
201
206
202
205
205
222
199
200
187
159
159
139
161
183
185
200
203
175
194
198
203
191
167
182
182
177
185
178
167
198
205
204
203
197
212
202
193
189
200
179
177
136
169
179
194
203
195
176
183
185
185
195
195
180
177
181
179
187
191
194
185
190
184
183
175
175
171
176
183
181
184
192
197
201
204
208
215
217
214
217
222
214
208
196
194
192
193
195
198
198
196
194
205
204
202
208
207
211
206
194
181
145
164
139
159
179
189
184
197
177
199
208
200
177
183
187
177
175
190
180
172
204
206
209
203
200
212
203
205
194
198
172
173
127
164
178
175
190
184
178
176
178
179
190
195
189
179
180
177
181
191
199
198
194
185
177
176
174
170
175
187
187
186
198
196
199
205
212
217
212
218
208
213
203
197
193
193
193
195
201
200
199
197
197
203
206
205
213
208
204
207
194
176
148
156
146
165
178
176
185
183
182
199
212
196
179
192
192
187
174
184
188
182
