P2
# Face with average contibution
92 112
255
200
196
200
197
198
195
199
194
189
188
189
184
184
181
182
178
178
175
176
179
173
161
158
162
168
170
161
180
177
177
185
181
178
177
178
180
185
185
194
182
180
189
189
178
187
174
167
165
172
179
180
182
187
182
173
182
182
184
183
195
195
187
191
189
184
192
194
196
189
192
194
199
193
195
195
189
188
194
188
188
187
193
196
195
191
193
191
197
198
196
198
195
198
194
201
199
196
198
199
193
188
194
191
186
183
173
176
181
180
178
180
172
165
159
147
153
157
166
171
179
180
170
180
179
178
180
178
192
196
194
189
192
189
196
191
190
187
188
184
177
178
173
174
181
186
175
177
172
181
186
177
178
186
183
182
183
183
191
196
193
188
187
195
190
194
193
193
195
187
189
192
187
191
193
196
194
194
191
199
196
196
200
199
196
200
191
201
197
197
198
194
193
190
190
188
187
173
177
176
180
185
180
177
169
163
162
163
166
167
171
178
183
176
172
171
190
185
178
182
190
186
187
181
183
188
191
182
179
181
181
188
183
183
182
176
170
181
180
186
190
196
191
177
177
175
184
181
180
183
187
184
192
191
188
185
174
184
194
193
194
191
193
191
185
184
193
199
191
188
189
199
193
197
198
197
195
191
195
203
191
192
189
195
190
190
190
184
181
178
177
184
178
181
175
166
171
163
172
174
177
175
174
180
182
187
188
183
187
192
183
183
179
183
185
178
184
187
180
176
176
175
175
184
191
193
191
189
182
186
187
189
198
195
195
190
191
186
177
181
173
174
181
180
180
186
193
188
185
178
183
190
192
192
193
192
185
180
183
193
192
185
194
197
198
191
199
199
194
200
195
189
188
188
186
190
194
187
186
183
181
176
189
180
173
178
177
179
173
181
182
176
166
167
172
176
179
182
181
176
184
178
177
182
184
187
186
186
174
183
183
176
186
180
175
171
188
197
196
194
195
186
183
185
191
184
181
185
195
195
180
175
172
165
176
184
182
181
188
189
185
176
183
180
198
201
192
194
190
184
186
191
192
189
191
201
199
191
197
197
196
201
189
188
187
193
193
188
188
178
176
172
171
175
181
177
175
175
180
183
184
190
195
194
194
179
171
171
164
167
173
166
165
171
176
179
190
196
188
189
174
176
184
171
170
175
186
179
176
189
195
200
192
193
181
186
185
186
191
184
185
192
177
177
173
170
176
177
178
177
179
187
183
179
177
183
196
203
197
195
192
192
188
194
189
192
192
198
201
193
198
196
196
199
193
189
190
189
189
183
174
168
165
166
168
174
176
176
169
174
186
179
184
179
183
188
190
181
182
179
181
173
179
191
185
189
188
178
184
188
184
186
182
174
175
176
162
162
174
179
178
187
187
196
203
199
201
199
195
194
192
190
191
191
181
184
180
175
172
173
176
175
175
179
177
182
171
170
183
199
189
200
196
195
193
192
188
192
191
193
197
197
194
198
195
196
198
194
184
189
185
165
169
163
171
170
172
182
179
183
179
174
184
176
183
182
183
182
183
179
181
175
180
181
183
190
189
192
197
189
192
185
182
188
188
174
172
167
159
163
164
171
172
180
184
190
194
191
206
208
210
213
209
194
196
193
194
187
197
188
180
182
182
172
177
181
178
184
171
173
178
181
188
186
193
201
195
194
191
194
190
191
193
195
199
194
200
196
194
194
187
183
180
169
173
175
178
181
193
184
192
177
167
171
173
182
180
181
172
164
160
173
169
163
166
176
182
193
200
199
199
199
196
193
192
203
195
194
184
183
179
181
178
179
185
187
191
195
196
185
188
195
203
218
223
209
206
203
199
183
196
194
194
191
197
193
179
183
188
187
188
171
180
179
181
185
186
192
196
193
191
188
183
189
192
191
198
195
196
193
193
194
189
184
179
170
186
178
184
186
203
195
189
176
168
182
176
179
176
172
170
157
167
164
166
172
174
189
191
193
198
206
201
196
196
192
200
213
209
196
196
194
193
191
190
191
190
195
201
196
193
186
186
193
192
212
223
216
213
208
206
192
192
193
190
196
203
204
200
191
191
190
184
180
180
176
183
185
185
181
191
189
188
189
185
191
195
188
193
194
193
190
194
190
183
187
180
176
184
190
189
191
191
192
185
179
175
173
182
181
173
164
167
167
171
170
174
171
182
197
190
189
194
207
211
204
206
201
202
214
210
202
191
200
200
196
202
198
203
201
197
196
181
182
180
189
199
202
202
216
213
207
205
200
208
198
198
197
197
198
199
205
194
194
186
179
179
173
178
184
188
182
180
187
188
191
189
192
196
193
192
194
198
186
190
191
181
183
183
188
195
185
186
187
183
175
177
169
174
181
173
184
181
177
174
173
172
179
170
173
183
188
190
199
202
206
216
216
210
210
214
217
214
209
192
201
205
207
194
199
202
203
191
176
181
178
169
174
180
188
186
191
202
205
191
199
202
208
210
197
193
189
184
207
199
197
189
190
180
174
172
180
190
183
183
175
186
199
195
191
197
191
196
194
198
186
185
189
177
169
186
185
192
183
188
186
182
166
174
165
171
172
178
179
172
174
167
174
183
176
177
181
188
197
198
208
212
209
213
224
216
217
221
227
233
219
193
192
189
199
193
197
199
199
204
183
168
173
169
161
166
171
171
178
181
192
193
198
193
200
209
205
196
187
181
198
206
193
196
195
186
187
175
191
194
193
180
179
178
191
193
182
194
198
190
195
196
182
189
180
172
180
191
189
185
190
193
192
189
173
178
163
173
178
173
169
173
171
166
167
173
175
187
192
197
203
213
216
226
224
219
219
230
219
215
220
219
214
202
200
189
193
188
192
195
195
203
197
178
172
169
158
150
162
162
173
182
180
188
191
194
196
202
197
198
197
187
191
209
204
190
186
187
187
184
190
205
205
193
177
176
183
189
186
198
196
199
193
194
184
184
178
177
191
190
191
190
192
187
189
191
184
174
178
170
169
172
169
169
174
165
166
184
194
190
195
201
209
213
218
218
218
219
224
223
219
210
211
210
205
198
196
197
193
190
181
191
193
188
200
178
175
174
169
153
151
163
164
180
182
187
184
193
189
203
198
191
193
194
192
207
203
202
198
185
182
186
186
192
196
190
182
177
180
181
191
196
197
205
193
199
186
180
179
180
177
193
186
190
182
184
194
203
200
190
187
171
173
178
169
169
171
170
171
182
189
189
200
198
207
205
210
213
212
215
215
220
208
207
204
207
197
194
194
193
187
180
181
191
192
186
193
186
178
180
179
177
156
161
161
174
185
182
186
189
183
187
210
195
186
180
190
205
211
201
206
205
181
177
188
185
188
184
188
190
190
181
189
199
197
198
202
200
180
182
181
177
172
180
186
188
175
193
208
200
200
200
195
189
191
181
176
176
182
178
180
179
185
198
200
198
203
203
204
208
207
212
203
199
207
197
200
198
198
186
190
182
186
183
181
188
193
191
188
192
187
180
181
182
164
158
168
168
182
187
186
181
186
184
193
195
193
182
180
196
211
210
201
202
194
172
185
192
185
186
190
188
188
196
184
190
200
196
193
196
176
176
178
180
180
175
190
188
192
206
214
216
214
206
205
197
191
188
179
179
178
175
181
183
184
193
196
201
205
204
202
205
209
207
201
198
204
198
199
197
192
187
181
174
179
185
186
193
196
197
188
194
199
200
187
187
184
173
179
171
175
178
189
188
184
186
187
188
194
188
179
187
199
212
206
207
193
189
179
191
193
188
189
191
185
193
199
189
195
200
187
187
174
172
182
181
180
176
186
188
202
207
232
229
215
208
207
196
184
185
176
173
174
175
177
190
192
189
195
200
206
213
204
204
203
208
206
213
214
210
208
205
193
191
180
181
182
183
192
192
193
195
199
194
194
207
195
184
189
186
182
182
169
167
177
189
190
180
188
187
176
193
178
177
187
205
197
203
201
195
189
176
194
187
189
189
187
187
201
198
194
202
195
188
166
182
186
183
180
183
185
195
202
216
230
221
207
200
197
187
180
178
173
174
173
172
180
188
191
198
199
194
202
200
209
207
208
201
204
208
210
219
203
204
204
192
191
192
188
182
189
191
188
204
199
200
199
192
192
189
187
186
178
182
179
177
177
189
192
177
182
187
173
177
165
173
183
197
199
195
192
189
178
169
183
198
188
189
187
187
192
202
195
206
204
200
173
179
187
191
192
183
178
191
199
220
214
208
193
190
187
175
175
175
176
170
171
171
179
182
193
194
195
196
196
196
202
207
204
204
205
212
214
207
204
207
208
204
200
199
193
190
188
189
191
197
204
198
203
197
185
189
192
185
190
187
176
194
189
185
193
181
175
181
180
177
168
155
178
194
194
186
181
186
170
167
175
189
197
184
192
190
186
201
193
200
206
206
176
185
185
191
185
176
165
185
202
213
196
197
180
177
172
169
177
181
174
171
176
176
179
186
192
189
193
193
194
198
202
202
196
207
211
212
214
210
212
210
203
209
205
206
200
193
200
186
188
194
198
205
205
201
196
195
184
192
193
195
193
193
193
193
186
186
173
180
185
182
175
154
167
189
197
193
182
188
176
171
172
179
196
184
185
196
192
198
189
210
207
202
183
181
175
186
180
169
174
196
196
195
183
185
173
173
174
179
184
180
180
179
182
181
181
184
192
188
189
186
187
191
193
198
198
202
207
209
209
211
211
210
208
204
205
204
196
185
192
195
187
193
195
209
213
207
203
198
191
189
195
200
196
199
195
185
185
185
179
174
185
183
179
164
159
184
195
193
189
188
173
169
176
181
179
188
178
184
197
199
192
198
219
201
171
165
169
176
178
168
184
189
183
183
176
174
171
177
180
188
185
182
181
185
184
183
183
182
184
189
183
179
182
183
178
186
194
197
204
211
201
203
204
210
202
204
199
201
197
189
190
200
194
189
198
206
210
209
209
200
195
193
191
196
199
199
196
189
178
179
175
184
180
183
185
171
168
177
195
201
189
190
175
164
172
190
172
171
179
177
193
194
189
192
215
205
162
177
162
184
169
173
185
186
187
182
171
166
179
177
182
186
187
190
188
187
187
181
180
180
182
180
182
180
180
173
172
179
185
189
195
199
197
196
193
203
196
191
192
196
190
185
186
186
194
188
185
200
205
201
201
201
200
204
200
196
200
207
206
197
182
177
169
185
187
182
185
179
176
181
188
192
190
195
186
166
170
185
180
170
165
172
194
194
190
199
205
213
164
176
170
175
156
173
183
184
190
181
172
171
180
179
180
186
196
189
189
184
189
182
183
181
181
188
183
183
177
177
176
181
184
180
189
190
191
191
186
192
185
186
179
188
181
174
177
175
181
192
184
186
198
204
196
200
204
206
204
206
207
206
203
198
190
185
179
183
192
186
189
176
174
186
195
182
186
185
190
178
166
180
181
176
176
171
179
200
191
198
205
220
181
166
166
160
160
183
188
180
177
174
178
173
184
176
181
191
191
187
184
190
194
188
184
188
188
192
187
176
174
174
175
179
176
181
183
192
188
189
190
191
185
187
178
181
179
179
171
172
176
185
184
180
193
197
195
194
206
205
204
205
207
203
195
194
187
181
172
182
192
197
188
179
172
184
192
196
179
186
182
177
160
179
180
174
186
182
175
191
189
193
208
212
184
161
153
160
162
193
183
178
174
178
175
182
185
176
190
193
190
189
188
194
198
194
190
190
189
187
178
171
172
174
173
180
182
181
183
185
188
190
191
189
183
188
181
176
177
177
174
166
176
183
181
182
190
193
192
198
202
202
205
203
205
203
198
192
187
180
169
187
188
198
188
184
180
191
184
188
186
180
180
174
157
167
172
174
189
191
187
191
190
190
208
208
182
168
155
155
166
188
178
184
187
180
178
185
176
180
189
193
189
193
187
190
194
192
192
185
182
179
175
173
167
173
174
174
180
182
177
174
180
178
181
179
177
181
179
176
173
175
174
169
173
180
180
178
186
186
192
186
197
195
198
198
200
203
204
201
189
192
185
186
195
198
191
181
182
197
191
184
181
179
182
169
161
151
169
181
180
195
189
199
189
196
197
202
182
178
155
156
165
186
190
190
185
185
186
183
179
186
190
194
190
188
191
187
187
193
190
185
177
176
176
174
174
174
168
170
169
176
177
174
176
172
176
175
173
178
173
176
171
171
174
168
166
172
180
187
186
182
184
182
187
192
188
193
198
206
206
209
203
200
200
195
198
193
180
182
184
193
196
186
187
179
186
165
155
155
170
191
193
195
195
204
190
204
197
198
185
177
160
153
176
190
198
186
181
185
181
179
184
187
193
195
189
190
186
181
186
189
189
181
180
179
181
180
178
178
174
172
168
172
174
171
175
175
174
175
172
175
172
173
168
168
168
165
163
173
176
186
184
178
181
178
186
199
189
186
192
201
204
207
208
202
200
196
198
190
178
179
170
183
194
182
182
170
176
168
157
161
169
194
204
195
204
199
204
197
202
199
188
178
158
161
182
195
194
185
175
181
174
179
184
191
192
189
191
189
187
183
188
189
190
184
186
191
183
187
183
179
178
177
172
175
177
179
175
172
175
175
174
171
171
173
170
169
168
166
171
167
175
174
181
184
184
179
181
200
198
187
191
200
201
207
200
205
201
193
187
196
181
172
174
173
181
174
171
175
168
178
169
177
175
186
205
210
206
204
201
206
206
207
185
176
162
171
194
183
184
187
174
180
179
188
190
186
186
188
189
191
192
189
188
192
188
189
195
193
189
188
188
180
180
182
179
176
181
184
183
177
176
177
182
176
172
173
172
168
171
173
179
176
173
175
178
187
188
183
183
196
205
196
191
203
210
201
209
207
203
198
184
186
180
172
166
174
173
169
163
166
169
162
166
179
176
168
196
216
225
220
199
202
204
207
181
177
169
180
200
176
177
181
180
180
189
195
187
185
190
189
193
195
195
193
194
192
195
197
199
201
200
197
190
184
187
187
186
185
184
180
184
184
180
183
191
180
175
179
180
175
174
178
184
185
180
176
184
192
196
194
188
191
199
208
195
192
206
212
203
203
201
199
184
188
176
171
168
172
173
166
161
155
147
163
169
169
168
170
193
218
219
229
233
188
191
202
177
176
168
195
189
167
176
182
184
188
198
189
185
187
190
188
192
197
195
195
195
192
194
200
205
208
207
203
198
200
197
197
199
195
192
193
186
187
186
188
192
184
174
187
182
186
184
183
187
191
187
184
189
191
204
195
192
193
191
191
203
196
197
209
204
198
193
188
188
186
174
165
164
165
163
169
169
157
150
151
178
178
162
174
190
210
209
227
240
203
184
204
180
178
167
200
180
171
164
185
188
195
196
187
192
186
195
192
198
194
193
192
204
203
205
214
212
215
212
207
209
210
209
203
202
204
203
199
193
192
189
193
191
191
186
193
188
191
186
189
191
193
196
191
194
188
198
191
192
190
187
186
183
197
196
194
193
185
182
178
172
170
171
163
164
164
160
157
171
164
158
149
165
180
172
176
195
211
204
212
220
223
190
216
180
174
176
198
171
167
175
183
192
198
194
198
192
195
193
191
193
194
196
199
209
211
217
219
216
215
218
218
215
216
219
211
207
206
205
201
195
193
192
193
187
190
188
186
189
191
188
192
191
195
193
195
195
191
193
192
189
191
189
184
180
179
183
190
184
180
176
173
167
168
166
165
164
164
166
155
162
171
169
167
162
173
178
189
193
215
203
215
212
221
213
208
182
172
186
188
171
161
168
190
198
201
199
197
188
194
196
203
198
198
200
208
211
215
219
218
218
221
215
217
222
221
221
216
210
208
208
205
204
197
196
201
195
189
190
184
183
186
187
187
193
197
194
198
193
194
190
193
188
190
187
184
177
166
170
172
171
175
178
177
171
166
161
161
159
160
166
159
164
176
175
167
177
184
184
191
202
210
206
204
212
218
234
211
179
180
188
191
161
162
165
182
203
207
207
191
187
195
199
200
201
196
195
202
212
211
212
214
212
218
209
206
212
222
221
215
209
205
207
200
197
192
194
198
202
191
194
190
189
187
190
187
192
193
196
200
192
189
183
186
184
183
176
173
172
168
164
161
163
165
167
167
167
164
158
153
154
150
157
151
151
170
172
166
169
186
191
191
190
204
210
207
203
222
237
227
199
196
193
197
169
154
169
180
202
212
199
187
191
194
197
198
197
190
194
194
201
199
200
202
201
205
206
203
207
215
220
213
212
210
211
207
203
196
193
197
198
194
190
194
189
186
184
188
187
186
190
189
185
178
176
174
174
176
167
168
163
163
163
166
161
162
163
159
159
158
149
144
142
137
149
146
144
162
169
160
165
180
196
188
184
205
205
208
203
223
236
234
218
201
199
207
171
159
177
182
216
218
202
198
199
199
195
193
193
197
194
196
190
190
187
188
186
184
187
190
187
199
205
207
206
210
206
203
200
199
196
197
194
194
189
194
194
186
189
190
188
182
178
179
180
169
166
169
168
169
163
166
163
169
167
169
160
160
166
167
168
164
157
141
143
138
136
144
141
150
170
153
165
177
193
180
181
207
211
205
213
224
233
228
216
224
205
212
176
167
179
192
213
215
201
207
200
196
198
200
200
202
204
202
191
188
180
183
180
178
182
190
193
195
206
212
208
213
215
210
207
205
198
200
200
197
197
200
206
199
202
198
189
181
179
176
177
163
170
170
166
169
170
173
171
178
176
182
170
166
167
172
173
169
172
162
155
165
146
151
152
163
170
174
179
187
185
181
189
204
214
210
221
229
233
222
223
232
217
210
184
176
184
194
213
216
202
207
201
197
202
208
211
222
218
217
211
194
192
192
190
194
196
197
213
216
209
215
205
210
217
204
194
196
200
205
200
199
197
196
202
204
205
206
188
184
183
185
175
173
178
175
177
185
183
176
181
178
180
195
185
182
179
176
176
174
173
164
163
164
175
160
153
164
164
177
176
194
201
192
190
204
212
210
222
226
243
230
225
225
216
209
200
190
186
209
214
218
200
203
193
198
200
204
212
217
220
220
214
211
212
214
220
217
224
228
228
226
207
196
199
216
222
203
186
182
194
204
209
207
187
191
199
205
207
208
204
198
189
195
181
190
200
197
201
207
206
191
208
206
195
209
199
204
197
172
175
177
187
178
168
177
183
179
168
169
163
176
185
185
200
194
193
202
205
211
223
225
235
236
220
218
208
204
207
193
192
209
223
215
198
197
184
191
195
200
205
217
221
226
218
219
227
228
224
218
213
213
214
209
211
200
194
191
215
205
191
186
205
199
208
204
192
194
202
207
209
212
213
222
214
201
190
192
203
201
212
229
220
207
211
218
183
211
213
219
218
176
165
166
183
191
172
181
192
176
171
179
170
176
188
187
187
178
190
200
208
207
224
223
229
229
211
209
211
198
205
198
191
200
219
207
192
180
174
180
187
193
199
206
205
211
214
224
232
228
214
203
188
183
193
192
185
187
188
193
195
199
189
186
203
207
195
195
194
197
195
196
202
200
215
224
222
202
193
191
208
212
212
228
221
194
203
199
191
217
203
220
221
186
160
162
164
176
182
184
189
188
164
165
172
176
181
184
194
188
190
193
212
195
226
215
217
224
202
207
211
213
201
198
201
191
207
193
178
172
167
168
179
182
185
176
179
194
208
208
206
196
184
182
186
158
182
186
185
174
173
184
182
183
188
189
195
200
186
187
185
187
182
184
187
187
208
211
209
196
184
203
217
207
191
196
195
189
186
192
181
203
202
210
214
182
165
168
173
163
169
184
184
190
172
153
161
171
178
182
199
186
200
185
198
193
223
222
214
206
206
212
225
225
212
200
206
199
203
198
183
183
176
183
181
166
162
157
165
188
190
183
187
191
168
182
194
185
177
198
193
186
177
163
164
172
182
176
178
184
171
180
172
176
175
183
180
180
186
197
191
177
168
180
186
182
169
175
190
181
185
193
167
183
204
200
197
194
182
168
161
162
164
171
177
173
177
160
162
181
178
182
202
201
187
190
187
186
224
222
215
192
218
201
229
223
211
191
210
197
208
200
185
186
186
193
170
157
155
149
167
185
176
185
192
205
211
192
190
196
179
189
147
188
186
164
162
177
172
161
162
167
160
163
165
167
170
179
180
174
183
185
175
169
164
169
166
166
183
188
178
178
184
187
180
183
197
203
199
198
188
165
163
161
164
165
173
174
176
170
170
186
191
186
207
206
189
175
176
175
200
217
218
193
198
189
214
212
204
196
203
198
202
187
174
177
170
167
150
147
146
149
168
176
183
200
196
196
211
215
189
183
193
191
145
182
185
162
157
176
170
164
165
168
156
160
172
169
172
180
180
179
188
184
175
175
172
190
181
184
187
189
179
181
183
176
172
197
190
204
200
205
203
177
173
166
162
160
163
162
163
167
169
192
197
191
212
212
177
176
183
183
193
205
220
196
189
187
209
208
202
194
178
192
188
178
170
189
171
163
158
162
155
167
171
171
198
201
204
208
206
210
197
197
187
177
149
172
182
191
181
186
174
168
172
168
167
173
177
179
174
179
182
177
182
175
170
177
183
178
178
179
180
166
183
194
195
183
185
189
177
197
186
191
199
193
183
183
172
165
145
155
154
158
167
176
197
198
203
198
180
174
186
197
197
204
214
206
185
200
201
210
198
191
183
192
187
181
185
191
178
176
176
178
171
178
201
195
208
206
208
219
226
216
212
194
183
180
161
178
190
205
194
198
177
177
176
174
176
191
188
195
193
189
190
178
171
167
165
180
189
176
176
191
197
169
179
202
201
194
208
218
189
197
188
187
197
197
185
186
176
158
153
156
158
160
172
167
191
204
185
192
182
183
202
216
197
209
194
214
189
190
197
188
182
170
183
198
202
191
203
201
174
176
180
185
175
169
192
200
181
184
204
203
217
204
202
201
182
178
165
167
180
188
189
199
185
180
183
165
175
187
187
192
195
195
197
187
175
176
180
158
185
180
168
192
203
199
186
188
174
188
198
214
213
201
194
196
199
193
181
174
177
164
166
171
167
172
177
180
191
196
189
190
180
191
214
219
198
206
191
202
182
179
203
182
162
166
171
186
198
193
198
209
187
185
188
185
189
172
187
187
170
169
178
184
192
205
200
191
179
166
161
165
158
177
185
192
197
188
190
179
190
207
195
183
185
190
191
189
179
180
177
159
182
176
169
179
196
196
189
181
165
178
194
212
220
219
198
195
198
192
181
174
165
161
162
170
173
181
183
179
179
188
191
181
202
198
200
212
197
193
190
191
172
175
193
166
159
172
166
167
186
191
194
198
189
188
192
188
185
182
181
193
185
188
213
209
218
209
203
186
168
164
161
170
177
185
199
197
203
193
184
186
190
206
192
180
195
197
193
189
179
181
178
179
183
184
171
171
185
192
190
193
184
188
197
215
221
211
217
213
205
199
187
179
167
163
156
162
168
181
184
184
177
194
200
197
205
191
187
205
197
184
191
172
173
175
184
158
152
181
175
156
177
184
190
189
181
176
173
180
181
181
187
192
192
199
212
215
217
212
198
192
176
172
170
181
183
194
199
201
202
195
188
195
187
201
194
182
199
188
194
184
183
184
179
173
181
184
178
173
180
190
199
195
196
193
204
212
218
212
208
220
220
212
204
196
180
175
174
174
176
180
185
187
190
183
185
211
203
184
193
192
184
179
189
173
167
191
191
163
155
177
189
168
179
173
176
181
176
174
162
178
179
177
185
192
194
197
201
204
208
202
194
183
175
175
170
175
196
203
206
195
203
198
201
194
180
187
197
191
197
194
188
180
170
181
183
169
160
172
170
167
172
183
186
188
194
196
194
212
214
216
207
224
228
224
220
212
192
189
190
192
195
188
193
194
189
180
181
208
194
187
196
184
168
184
186
175
164
200
187
178
152
169
184
188
191
173
165
175
172
169
164
174
181
179
185
189
192
198
198
199
207
204
198
191
186
176
174
174
199
215
212
198
208
209
210
190
181
184
190
195
195
191
182
178
177
175
177
174
171
158
158
167
174
177
174
176
188
194
196
200
204
213
201
204
215
212
215
223
196
183
194
200
203
193
196
198
185
181
189
199
190
181
190
175
161
187
185
178
169
193
177
178
155
168
173
172
183
173
179
184
168
166
166
175
192
185
181
177
178
184
193
195
198
203
186
188
183
177
186
191
207
210
210
202
198
205
193
177
172
187
185
189
194
198
186
184
188
182
174
180
177
162
157
154
166
168
164
171
180
192
188
197
197
198
202
201
204
200
205
214
192
187
190
200
207
207
196
193
183
178
198
210
199
171
178
177
169
193
185
173
174
193
171
178
173
179
170
163
171
168
180
184
168
158
172
173
186
187
175
177
185
190
196
188
184
181
177
175
181
179
188
198
208
206
202
205
210
208
189
180
172
182
182
188
195
187
182
186
186
183
175
174
187
177
171
154
148
159
163
176
182
187
190
190
191
192
196
197
199
201
209
206
191
189
202
206
209
214
197
189
186
188
195
200
192
170
163
170
184
191
174
168
169
195
167
180
186
175
167
159
166
169
181
179
176
163
176
175
183
190
186
183
189
194
199
191
191
187
183
183
182
182
203
209
205
200
197
220
213
201
194
180
172
183
177
182
186
178
172
186
188
185
181
172
182
186
182
172
155
159
173
179
179
187
180
175
179
191
195
194
194
206
204
199
197
189
198
204
209
210
203
180
192
194
198
188
191
175
164
171
195
185
167
164
160
184
171
188
183
174
164
157
166
171
177
188
186
176
176
184
178
189
187
189
192
197
198
191
191
185
182
179
172
180
211
211
199
202
190
199
208
210
204
186
181
187
181
178
175
169
162
174
181
179
174
173
170
184
184
179
167
171
172
178
183
184
188
173
181
191
196
195
194
200
200
204
202
192
196
199
203
205
202
176
196
197
196
187
191
178
170
175
196
179
166
169
168
163
165
191
178
171
156
155
166
166
184
184
189
182
181
185
177
181
189
192
196
199
197
193
183
186
176
170
174
191
211
207
201
197
191
198
206
213
207
191
189
197
191
189
187
176
169
172
180
180
171
165
172
171
178
180
173
173
176
169
179
175
174
179
178
193
202
201
204
201
199
203
200
188
191
195
199
203
196
194
193
185
186
202
190
169
175
180
193
175
166
178
167
171
153
185
181
181
164
154
172
164
180
182
185
180
186
182
189
182
190
195
201
202
201
190
184
180
176
173
180
203
201
199
203
199
195
200
206
214
199
186
192
205
201
196
196
187
187
185
189
184
172
167
171
167
167
176
180
170
186
176
179
175
168
175
177
190
199
201
205
202
196
207
195
194
192
196
196
194
193
201
194
196
193
209
194
168
173
188
175
172
170
186
160
163
152
178
179
187
176
165
174
171
181
179
185
184
183
186
184
187
196
196
200
203
201
192
186
184
182
182
185
186
175
179
188
193
196
201
208
204
195
184
193
206
205
199
190
193
197
190
196
187
184
177
170
172
166
170
173
173
183
188
187
186
173
177
181
196
199
207
208
210
203
213
199
192
195
190
197
189
191
201
192
201
211
211
188
174
176
173
171
179
172
192
155
164
150
174
167
182
191
168
173
175
181
182
178
192
188
184
184
184
196
202
202
201
198
195
187
181
180
179
173
178
169
173
180
183
190
193
197
207
199
177
194
201
202
197
194
191
193
187
187
192
187
180
172
173
172
174
166
176
185
192
199
201
177
186
184
190
196
203
207
210
213
212
199
193
199
198
189
189
196
196
198
198
204
202
174
168
176
165
170
178
179
193
156
163
139
174
168
167
177
178
168
174
176
184
186
188
183
181
186
192
195
205
204
199
197
194
187
181
179
177
173
173
172
184
180
179
180
190
193
206
196
183
190
196
196
200
202
202
191
186
179
188
190
186
182
184
179
184
177
171
173
178
189
200
171
172
184
188
197
208
207
218
216
212
200
206
201
190
190
189
199
196
204
196
198
195
177
170
172
166
181
182
177
188
162
159
133
172
176
165
168
165
155
172
172
175
187
182
185
179
182
190
196
198
194
195
190
186
179
179
179
171
167
164
164
178
175
174
177
196
201
203
196
193
200
200
194
197
207
211
192
182
182
181
196
194
191
193
187
182
173
167
163
165
172
192
181
167
183
187
185
197
197
210
218
204
205
205
194
189
193
195
200
204
203
198
200
198
182
179
176
166
185
183
191
177
184
150
128
170
183
169
165
166
153
165
170
175
180
184
185
177
190
200
199
194
198
192
187
183
177
178
176
170
162
156
167
175
177
179
192
210
226
212
204
205
208
211
207
210
215
209
200
184
181
187
198
198
183
180
178
168
155
159
167
175
179
184
177
171
181
186
184
186
195
208
213
201
203
205
196
182
194
196
201
202
202
202
199
192
176
181
169
177
182
192
187
185
202
162
129
165
174
169
167
165
160
161
165
174
182
179
179
181
195
201
198
201
197
194
188
188
181
180
179
173
159
153
171
174
177
178
195
225
232
209
196
206
222
222
213
222
224
217
208
192
183
198
206
200
184
177
180
174
165
164
168
172
177
181
175
171
179
175
179
182
192
202
200
201
207
208
200
189
192
198
201
197
201
207
193
180
170
175
178
175
192
194
184
185
197
186
148
154
160
169
169
156
161
166
173
175
181
173
179
185
196
200
206
207
200
199
195
193
187
180
181
175
167
154
173
177
180
186
205
226
234
206
194
204
217
223
223
227
233
237
228
207
202
198
208
199
185
173
171
166
161
164
171
170
175
171
175
176
178
180
181
189
194
197
196
203
205
205
200
195
187
199
203
195
197
195
190
180
172
177
180
188
201
189
182
189
194
189
172
165
158
157
163
155
166
170
176
178
180
175
181
190
196
199
204
211
210
208
207
197
191
185
183
181
172
163
171
198
193
194
210
223
230
230
213
220
222
225
223
236
240
230
227
220
212
217
204
196
181
168
161
158
158
156
161
164
179
167
168
170
173
175
190
195
191
192
194
195
199
199
195
197
192
199
203
187
195
194
193
184
172
177
201
206
192
188
180
189
193
177
179
183
174
159
158
141
166
169
165
177
180
179
189
196
200
199
194
205
210
208
206
200
195
196
194
191
174
175
183
208
209
204
208
211
219
222
232
233
230
227
226
222
230
218
213
210
214
215
199
181
172
163
160
162
158
156
155
154
161
166
165
170
182
187
188
194
189
190
191
192
195
195
194
199
191
192
191
188
190
199
192
178
173
181
216
208
190
181
181
184
186
173
170
182
192
187
168
138
155
153
160
168
174
185
191
198
201
196
188
191
206
212
207
206
203
202
193
191
181
185
190
196
209
214
205
202
194
208
225
237
230
224
227
213
217
213
212
216
215
201
191
183
179
166
172
170
162
158
159
155
157
165
170
180
184
189
184
190
185
192
185
192
193
190
191
196
197
189
182
196
193
189
191
184
171
182
226
213
188
180
183
186
191
178
178
183
193
204
198
159
160
153
157
161
175
189
191
202
195
196
189
189
202
210
205
207
206
202
200
191
184
185
188
188
194
195
198
192
177
193
206
211
210
210
223
218
210
202
198
196
189
181
180
188
191
184
178
173
166
171
171
166
159
167
172
180
184
188
190
186
183
192
190
186
192
191
189
198
197
188
182
197
202
192
191
180
173
199
237
205
186
182
180
187
189
195
185
179
190
201
206
185
181
175
170
165
185
195
198
197
196
191
191
191
199
208
202
208
207
206
205
195
186
184
187
192
192
184
185
172
166
172
190
199
195
193
204
203
191
191
182
184
187
182
186
185
190
186
180
179
174
177
177
176
173
169
168
173
179
190
190
190
186
190
190
186
186
188
190
197
195
183
181
199
207
190
187
185
182
211
234
197
187
179
180
186
181
191
189
186
179
199
206
193
186
183
186
177
198
199
208
192
193
188
190
187
194
203
205
209
215
210
200
191
189
184
189
186
187
181
180
173
166
163
175
192
191
190
193
194
194
197
191
187
195
187
188
191
185
187
185
184
183
180
178
182
182
180
178
175
180
186
195
194
189
188
191
191
191
184
186
190
192
180
181
201
213
189
191
196
192
224
224
193
182
182
180
183
178
185
192
184
179
195
208
197
184
188
197
183
207
202
203
196
188
186
185
185
194
199
206
214
209
200
194
186
183
187
181
179
178
174
171
175
176
180
181
189
193
186
178
188
188
194
190
194
196
197
192
192
189
189
191
189
189
184
183
190
190
187
185
187
192
194
201
204
199
197
192
197
193
186
188
194
194
184
183
204
205
197
202
197
201
228
214
193
182
183
178
187
170
185
193
183
181
187
205
204
186
194
199
193
205
197
194
194
186
184
179
181
190
192
204
204
197
196
185
181
179
182
172
171
165
161
160
170
177
182
177
183
180
175
173
176
178
186
188
189
195
194
195
194
200
197
201
198
192
194
190
195
191
188
188
198
194
205
206
205
208
209
196
201
195
191
190
196
197
183
192
217
208
208
220
200
212
230
208
187
183
182
180
191
158
186
193
188
186
184
196
205
188
196
192
200
184
194
186
188
187
178
177
178
183
187
194
195
185
188
183
179
176
176
174
167
167
162
162
161
168
175
174
175
175
172
170
172
171
179
190
195
204
204
206
201
202
208
205
202
200
198
196
198
198
195
195
199
201
212
209
208
213
210
204
202
197
199
189
202
194
187
202
223
213
215
215
214
225
223
203
187
185
179
182
190
156
180
191
188
192
179
190
197
187
198
192
200
166
188
185
189
187
182
182
174
176
184
185
187
189
183
179
176
183
182
180
179
177
171
172
170
176
181
181
180
178
176
172
179
172
177
176
190
202
211
214
212
210
219
218
208
206
201
199
193
194
192
189
201
208
204
210
207
206
206
200
197
201
205
194
205
197
197
217
216
204
212
205
216
226
221
196
184
186
179
189
195
164
174
184
193
190
181
190
194
180
191
186
192
172
173
185
197
195
189
184
173
174
178
175
186
193
188
182
180
186
195
185
187
183
179
185
182
188
186
189
186
180
182
180
187
179
176
176
184
196
210
208
207
206
222
216
209
206
211
205
191
177
189
177
190
196
198
200
201
203
196
193
192
200
209
199
203
196
202
216
208
192
199
209
214
222
217
193
186
178
184
192
192
161
171
182
192
192
180
183
193
184
179
184
185
177
167
187
193
198
193
184
182
172
177
175
185
186
189
194
186
194
197
192
197
184
188
189
195
198
198
195
196
189
188
184
188
187
184
177
181
192
187
188
185
185
205
203
192
184
196
199
183
163
182
180
170
197
196
196
193
197
190
185
186
196
202
205
195
190
204
218
190
192
200
206
211
219
212
190
185
176
181
189
196
163
166
181
189
188
187
181
190
185
177
169
179
184
163
180
192
195
197
186
185
180
175
170
181
185
188
196
196
199
194
192
194
190
190
201
203
199
214
208
198
202
201
180
183
182
186
170
183
181
166
166
160
162
176
180
172
152
167
185
177
165
179
184
174
192
184
179
191
192
178
183
180
192
198
197
199
190
207
221
186
198
202
208
212
215
201
183
182
183
182
186
186
163
165
176
186
191
194
179
190
180
174
166
176
181
168
170
185
192
199
190
192
185
180
168
183
183
183
194
200
201
199
195
188
191
181
200
184
196
207
184
186
197
213
173
177
181
186
175
198
187
152
159
156
151
151
158
142
134
139
180
175
165
178
188
183
181
185
182
193
186
177
179
180
184
194
194
192
191
210
214
195
205
207
206
204
213
193
182
176
183
188
188
186
163
161
172
189
185
200
178
186
184
172
167
167
175
175
157
175
185
187
193
202
196
185
180
186
190
184
187
200
202
212
208
193
182
175
205
192
201
222
187
197
200
222
189
186
179
187
187
216
200
172
172
172
165
155
157
148
158
162
205
191
181
187
191
196
192
196
196
202
195
189
185
178
176
191
193
186
188
211
205
201
202
204
200
206
209
188
181
180
182
181
187
190
163
163
167
185
187
193
188
184
189
170
172
168
171
179
152
164
176
173
183
192
198
186
185
192
197
191
180
193
188
197
211
201
178
169
203
193
205
226
208
217
215
228
209
204
199
199
191
211
212
196
180
186
178
165
188
181
187
196
219
204
194
199
199
207
209
205
207
208
205
200
186
183
181
191
193
182
184
197
198
195
200
195
204
208
203
184
175
183
181
183
184
190
168
164
160
177
189
185
197
187
192
175
174
174
165
174
161
159
163
169
177
175
180
172
172
189
192
192
166
185
181
172
188
192
185
183
198
185
178
217
212
214
214
228
201
201
192
189
181
193
216
188
176
175
174
170
200
205
205
211
211
204
199
192
204
205
209
207
209
207
207
199
187
186
193
189
181
179
182
195
193
191
198
197
201
212
192
185
180
183
183
186
188
188
174
163
161
169
184
185
196
193
190
177
177
183
172
169
172
162
164
166
171
174
166
167
159
182
180
188
175
175
188
192
191
194
203
210
212
204
187
200
207
204
209
216
193
191
196
196
204
202
207
208
206
194
189
189
192
201
209
214
211
204
192
185
204
211
208
201
205
198
199
198
184
188
199
192
174
177
186
200
186
195
193
196
203
205
186
176
185
179
186
190
190
187
179
166
164
163
179
186
183
195
192
173
179
185
181
169
168
175
164
168
169
160
166
170
164
167
170
171
175
163
174
187
184
186
196
201
209
205
209
201
197
190
187
188
177
184
188
187
196
203
201
200
197
193
190
193
197
200
210
211
216
207
181
199
210
205
197
194
198
203
200
190
185
190
207
199
169
174
190
195
188
195
195
195
205
202
177
175
178
187
183
187
186
186
186
172
156
156
182
183
177
181
193
178
175
181
187
183
171
187
161
163
167
162
166
177
169
167
159
161
162
161
158
161
169
173
177
179
186
192
193
198
203
193
184
186
177
178
182
179
185
196
194
193
187
184
185
185
197
203
204
207
203
198
187
201
195
197
196
192
199
201
194
185
183
192
209
206
163
178
185
190
187
196
195
200
206
192
179
175
175
186
186
186
187
184
191
160
147
167
181
180
175
177
186
178
182
183
189
193
181
191
184
156
165
171
169
179
179
170
168
166
168
171
161
156
164
171
184
182
187
175
180
184
189
188
181
178
179
168
165
168
163
169
174
174
168
165
165
168
186
196
194
200
203
199
201
201
197
202
203
195
191
191
188
178
186
187
213
197
169
186
180
179
186
194
197
210
195
183
181
177
181
184
185
186
187
183
184
153
160
180
177
174
176
177
189
179
192
188
192
190
199
207
200
170
161
169
179
182
182
174
169
170
167
172
171
163
163
171
181
188
191
184
175
186
182
184
180
182
184
173
153
155
160
165
172
173
173
173
183
188
196
198
204
204
208
205
205
197
198
199
195
196
181
187
185
182
182
189
214
180
179
196
187
170
183
194
201
203
196
183
178
180
185
182
185
188
183
189
173
154
173
185
173
175
177
182
186
181
188
195
187
206
215
213
205
183
170
176
180
182
190
183
166
171
163
168
172
168
166
168
170
175
184
185
179
186
188
189
191
185
184
179
166
164
170
178
176
181
183
184
190
196
201
204
204
206
206
207
205
199
197
198
196
187
185
190
191
180
182
195
214
168
193
187
198
174
174
193
203
199
185
187
185
184
184
184
182
181
187
187
174
170
178
185
175
161
174
185
182
181
185
194
196
225
218
217
201
192
175
180
175
182
185
187
176
173
167
163
171
169
169
164
165
164
175
177
174
175
177
178
182
180
183
178
173
171
170
176
175
179
186
192
194
196
199
205
203
209
205
203
202
195
193
200
189
191
188
188
188
180
184
200
213
162
191
184
197
195
167
194
193
191
189
188
188
186
182
182
182
181
188
183
188
180
179
182
182
155
162
180
182
178
187
195
219
229
213
214
201
194
181
188
180
178
186
191
186
182
170
169
172
171
170
167
168
169
181
186
181
180
181
182
185
183
187
183
182
178
179
182
186
188
189
193
195
197
203
211
212
205
206
204
198
198
193
191
191
189
192
192
185
184
189
204
207
167
186
176
193
210
181
188
181
184
196
190
191
187
181
180
181
184
181
182
184
188
180
185
183
157
153
173
186
201
203
213
231
229
210
215
211
196
183
192
183
180
189
193
192
191
176
180
181
180
171
172
173
178
179
184
184
184
181
181
192
182
186
185
186
183
187
187
188
191
193
199
200
208
208
209
211
207
202
204
200
203
193
190
194
195
193
191
191
191
193
201
192
171
180
179
191
209
205
179
169
174
190
204
193
191
185
178
180
182
179
183
201
197
181
187
179
160
165
173
200
217
204
210
231
226
212
218
215
194
183
189
191
179
187
193
194
198
185
187
193
185
181
173
173
174
180
179
176
180
181
182
185
183
180
184
179
183
188
184
186
194
194
202
206
212
208
207
208
208
201
205
203
202
193
193
203
195
193
192
192
196
195
203
186
177
178
175
189
210
217
174
160
161
188
199
202
192
188
186
182
179
182
180
216
207
188
193
188
182
174
181
198
221
201
214
231
215
214
224
221
189
190
192
198
191
188
191
202
195
190
197
193
186
190
174
180
176
180
176
172
170
175
174
177
175
173
177
177
178
185
185
188
191
197
198
203
203
205
208
202
205
207
204
207
199
194
197
199
198
192
191
193
190
196
193
180
183
174
171
192
210
209
181
159
153
184
196
207
192
190
187
180
182
186
182
234
228
209
211
212
195
166
175
198
227
196
218
231
202
216
226
222
196
188
189
195
191
197
188
194
194
196
200
194
197
193
181
185
182
180
172
172
169
172
166
171
168
169
173
175
175
182
185
188
193
195
197
197
199
201
199
199
200
208
210
210
197
197
196
197
191
195
197
194
185
193
186
185
186
180
170
201
212
194
175
167
163
174
197
200
196
187
191
185
180
186
183
235
230
206
218
212
193
170
170
209
227
193
200
225
209
216
234
221
203
180
184
197
195
190
191
185
193
195
193
194
192
192
182
185
188
185
176
179
171
170
169
173
171
178
182
178
178
180
180
188
193
193
194
195
198
199
202
199
204
211
207
202
198
198
196
191
192
194
192
189
189
188
187
176
179
192
192
208
199
184
172
169
174
177
193
197
198
183
185
181
185
181
180
228
236
213
218
204
192
169
178
207
223
190
196
187
220
226
239
223
194
185
175
187
193
185
192
186
194
190
195
187
190
186
183
175
176
177
177
182
175
177
170
176
172
180
178
179
181
177
179
185
193
195
195
200
199
206
200
208
208
203
204
197
193
199
187
195
195
193
192
187
194
178
194
176
156
179
214
213
197
177
169
172
185
185
190
203
201
181
186
180
186
183
181
238
235
225
218
197
187
177
183
201
213
192
196
163
215
229
245
232
196
181
174
178
184
184
182
190
192
188
196
194
184
182
183
175
169
173
174
178
173
171
168
171
176
172
175
177
182
179
182
190
191
197
201
200
208
206
198
203
202
197
191
195
198
193
190
195
196
194
191
187
191
174
185
190
173
167
186
226
197
177
170
176
185
196
198
210
202
197
181
181
187
186
183
234
238
227
197
187
193
182
189
194
204
204
184
167
191
227
255
241
193
181
167
177
179
178
178
187
199
188
196
195
185
184
187
179
175
170
172
175
167
165
166
164
165
165
167
173
177
182
186
190
191
199
200
205
202
202
200
196
196
188
194
195
196
188
192
193
195
194
195
191
181
170
186
192
187
187
149
198
199
184
173
179
189
191
198
201
193
198
193
182
182
185
178
239
231
216
185
185
194
185
197
192
191
215
184
172
188
203
249
242
192
181
164
172
175
173
177
183
191
195
203
193
191
179
183
177
174
163
166
170
167
169
164
158
159
159
161
169
170
176
180
187
192
199
196
205
199
203
193
187
187
193
195
195
187
187
196
190
196
197
199
193
177
166
183
197
193
203
153
160
194
191
171
187
189
190
202
209
196
192
195
185
180
172
175
219
201
176
164
168
186
186
190
180
186
227
193
174
193
200
211
233
189
183
168
168
175
176
174
183
185
190
204
198
196
188
185
178
182
168
169
163
169
166
167
159
160
156
159
168
175
182
184
187
198
200
203
207
196
198
185
189
191
195
195
184
190
190
190
190
198
203
198
190
169
175
180
197
200
208
168
150
171
189
179
191
190
186
204
224
207
194
198
197
195
193
173
189
152
139
161
167
179
188
168
155
174
230
210
168
197
211
187
214
183
184
177
170
170
177
172
181
187
184
194
198
200
194
187
179
180
176
168
172
167
164
169
162
159
162
164
172
183
189
191
194
195
203
201
202
189
192
182
192
194
191
191
188
193
191
194
198
198
202
201
179
163
180
183
195
199
221
172
157
160
182
189
192
183
179
200
219
198
189
190
190
187
193
188
191
155
157
178
178
191
187
182
183
179
224
224
183
200
214
191
181
171
184
180
182
168
174
171
177
183
187
188
192
194
197
193
184
177
184
179
174
170
172
163
166
172
171
175
177
183
191
192
195
198
192
189
194
188
191
190
194
196
192
189
199
195
197
195
197
198
198
194
173
166
188
178
196
207
213
176
171
170
164
188
195
180
172
204
215
194
199
197
197
192
196
197
173
140
140
149
158
182
172
179
208
186
223
213
204
219
210
192
186
130
175
194
185
181
183
172
173
181
190
185
190
196
195
195
195
190
188
187
185
182
186
177
178
180
180
183
182
186
192
193
189
193
191
189
196
195
193
193
194
196
200
198
198
198
193
195
196
192
192
183
180
172
191
181
201
200
200
169
177
179
164
174
194
174
175
207
215
200
204
206
202
198
199
203
186
159
142
144
145
186
161
188
219
190
225
208
197
240
211
186
191
136
134
188
191
189
195
181
181
183
188
193
195
199
201
202
201
202
200
197
195
186
189
186
195
185
185
190
188
194
191
194
192
190
192
198
196
199
195
194
200
197
200
202
200
192
196
195
196
196
186
176
181
190
191
183
209
185
189
172
181
178
180
164
188
173
178
212
221
214
208
199
203
195
200
210
203
157
133
155
172
193
173
198
217
190
225
213
197
227
230
187
183
158
132
155
184
192
194
191
185
188
188
198
198
201
204
209
209
211
215
206
214
204
190
195
193
193
192
193
194
197
189
194
193
196
200
196
202
199
196
200
202
198
197
195
200
191
198
200
201
195
182
174
192
206
183
195
221
187
178
164
187
184
187
171
170
168
193
220
230
218
206
200
197
191
196
210
220
152
127
155
169
197
183
191
203
180
228
221
199
226
223
204
193
175
150
141
152
185
197
199
191
187
189
195
200
203
209
206
215
212
220
217
220
216
211
206
207
205
197
199
196
197
190
191
198
194
198
196
202
198
201
196
202
201
198
192
199
197
200
200
199
185
177
185
197
212
180
205
213
198
165
161
187
199
184
170
166
159
198
231
232
210
208
207
200
189
191
203
