P2
# Face with average contibution
92 112
255
200
199
194
197
197
192
193
190
193
193
200
199
198
193
194
194
188
187
198
192
193
199
201
199
208
206
204
199
205
209
203
207
206
202
206
198
191
178
180
188
188
180
189
188
188
186
186
195
196
191
191
192
186
181
186
184
184
190
186
185
181
187
185
199
190
182
179
175
179
180
185
181
183
184
187
183
185
188
185
190
187
187
193
196
197
196
196
193
193
193
196
192
199
197
196
193
193
191
194
189
192
194
196
203
198
190
196
195
195
202
197
204
203
209
213
213
215
209
205
197
212
210
209
211
206
202
200
195
188
177
180
183
185
182
183
179
180
179
182
184
185
184
184
181
179
179
181
184
185
189
189
186
187
180
177
184
193
182
182
178
180
174
181
180
178
179
184
184
184
183
183
189
188
186
190
195
197
199
198
193
195
194
196
194
198
193
195
190
190
193
193
193
197
199
197
213
197
187
193
198
197
210
202
208
212
210
219
213
210
206
207
212
217
209
209
204
202
197
191
184
187
184
183
188
188
184
180
172
174
179
182
186
180
183
181
177
174
171
178
177
182
184
186
180
186
184
176
177
176
191
181
183
181
179
176
176
175
175
174
182
183
182
183
187
190
187
190
190
196
197
201
197
195
197
198
193
197
195
193
191
193
194
197
193
200
202
196
197
182
186
196
194
196
202
203
210
213
213
205
202
213
216
218
214
216
204
203
197
192
183
189
189
186
186
185
182
178
172
170
162
177
174
176
173
172
177
176
178
179
172
177
177
175
179
185
178
176
187
183
180
174
179
185
187
188
188
178
175
172
175
174
178
181
183
186
189
187
191
188
190
192
195
199
199
196
199
198
194
196
196
191
196
194
194
197
193
199
193
192
187
181
195
196
199
196
202
203
210
206
211
209
206
212
213
213
216
214
198
201
198
193
191
189
196
193
188
185
180
180
173
168
164
178
181
175
174
172
170
171
179
188
186
181
178
186
183
183
187
186
185
188
181
182
185
180
185
185
188
185
180
180
179
175
182
170
181
186
189
185
190
189
189
191
192
197
197
197
196
198
195
196
195
193
193
194
197
195
195
200
191
192
191
193
194
196
202
205
208
211
212
207
206
207
204
201
208
206
210
201
200
200
200
204
194
196
197
198
187
183
183
183
171
170
171
182
176
179
176
174
170
171
178
188
191
185
188
190
187
181
181
183
182
188
190
182
188
185
185
182
186
184
182
179
186
175
181
173
174
179
185
185
188
191
191
191
193
193
194
197
199
194
198
196
196
195
193
200
197
200
200
192
184
193
193
200
205
200
208
207
207
215
213
213
208
209
203
210
203
201
199
205
207
203
202
206
197
197
203
193
184
180
176
175
175
164
184
186
186
178
169
180
181
189
187
188
196
194
190
190
194
191
182
185
188
187
187
182
183
186
190
180
182
186
184
177
177
177
174
176
173
172
176
182
183
186
192
187
192
192
192
196
200
199
201
198
196
194
192
198
195
199
193
182
186
195
201
208
207
207
204
201
213
212
208
216
211
209
209
208
202
200
207
200
200
199
202
207
208
200
195
189
190
184
175
179
187
176
186
188
191
181
173
182
187
195
193
189
199
200
200
193
199
196
198
197
185
192
184
185
184
183
185
190
180
188
190
187
179
186
179
171
172
175
173
178
181
183
188
185
189
190
191
196
200
200
196
198
194
191
192
197
188
193
187
187
192
205
209
202
201
205
196
202
210
207
200
210
206
206
212
207
206
206
205
197
196
206
210
211
205
198
192
188
191
189
184
193
193
185
189
191
181
188
188
186
189
193
189
195
201
205
210
204
207
202
200
208
203
201
196
192
187
189
193
192
193
189
199
188
190
188
184
180
172
177
178
174
185
180
184
186
189
191
192
194
197
198
197
195
193
190
194
193
185
192
194
189
197
207
202
200
199
203
202
204
201
210
197
198
204
202
203
206
203
200
203
200
203
212
211
204
197
200
199
191
197
199
202
195
198
193
191
190
184
190
187
194
197
202
200
201
207
207
208
210
212
210
210
213
211
216
211
203
203
201
194
194
200
199
197
199
198
198
184
186
186
176
180
178
181
185
184
184
186
189
187
191
193
197
198
190
194
195
188
187
184
189
190
199
200
197
203
199
197
196
193
196
202
202
198
193
195
193
199
202
209
205
203
206
208
213
201
197
197
197
202
195
198
206
206
199
196
189
191
190
191
195
200
201
204
201
199
204
206
206
210
210
210
213
212
211
214
224
216
217
209
203
200
194
200
209
200
202
204
202
196
188
189
177
174
179
178
185
190
185
185
187
190
189
191
194
196
190
196
191
184
188
183
191
204
207
200
208
200
193
200
201
197
197
199
192
180
179
184
182
193
199
202
205
202
203
195
195
198
191
197
191
195
199
195
196
201
201
196
184
187
192
202
198
198
201
201
194
193
198
199
203
201
209
213
214
213
211
217
221
217
216
215
211
204
203
197
206
212
206
205
204
209
201
196
183
174
175
181
181
186
189
183
191
189
193
192
193
196
195
192
188
189
188
188
200
210
202
206
203
198
195
206
203
200
195
192
191
184
185
182
190
197
194
193
196
194
194
193
193
196
192
198
194
194
197
198
198
197
196
199
191
185
188
191
195
195
199
196
197
192
202
211
202
198
204
208
211
208
211
213
217
214
210
207
212
209
204
201
208
219
216
213
212
210
218
206
197
183
178
179
182
179
187
183
186
191
193
193
197
197
195
185
188
190
194
196
206
206
208
203
193
194
201
201
198
201
194
194
190
181
184
192
191
199
203
192
188
190
190
188
190
187
193
197
197
198
195
196
197
199
198
202
191
192
188
188
187
195
196
193
196
200
195
200
202
196
203
201
205
201
206
207
211
215
213
210
210
205
207
207
210
219
222
212
216
211
212
218
204
191
179
180
183
183
184
183
183
188
186
193
196
200
193
179
186
198
206
209
210
208
206
189
193
197
200
200
206
199
186
189
191
187
187
193
189
198
191
181
186
189
190
187
195
184
188
193
192
203
199
201
201
193
193
193
193
186
187
190
184
188
186
185
190
196
198
197
202
204
209
207
214
206
209
212
213
215
217
213
209
203
206
202
204
211
212
211
219
224
211
221
225
198
185
176
181
181
183
185
181
184
185
192
191
196
191
185
185
208
213
207
212
211
203
197
199
197
200
209
201
196
189
189
193
188
181
187
192
191
187
176
189
193
192
194
192
191
192
195
195
207
201
204
200
197
195
189
187
189
189
187
190
186
187
186
191
193
196
200
210
209
213
218
220
214
211
214
222
208
217
218
211
209
203
202
197
201
204
215
215
215
223
212
229
225
197
180
180
182
179
183
181
179
183
186
188
190
185
190
195
205
208
205
209
209
200
202
201
201
206
208
203
196
194
197
189
185
184
180
187
183
188
186
194
192
189
196
197
198
201
203
203
202
203
197
199
199
198
191
191
184
192
184
189
186
190
191
195
201
200
208
215
215
216
220
218
216
222
220
224
217
218
214
210
207
206
201
194
194
209
223
201
209
221
221
220
226
216
186
186
191
186
185
182
173
182
186
185
185
189
191
195
206
211
198
204
199
196
206
207
207
202
202
202
192
194
198
192
182
187
180
181
187
197
196
196
199
200
205
205
203
210
207
204
201
204
196
198
198
194
189
185
185
181
178
186
185
186
198
197
198
203
207
205
212
216
217
217
212
215
224
221
219
219
214
205
213
208
210
212
211
206
207
205
208
212
228
222
214
227
202
189
191
194
195
191
176
176
181
185
188
192
192
197
203
208
198
200
199
198
211
211
205
197
203
200
196
195
192
188
187
188
187
190
192
193
192
198
205
205
206
206
204
213
211
201
197
204
197
202
195
194
188
182
181
183
180
173
180
188
190
188
196
193
197
204
203
216
214
215
215
216
227
224
217
220
211
206
209
213
209
212
206
198
198
201
208
204
220
225
217
220
214
195
194
193
198
201
183
176
180
182
187
194
199
200
196
203
204
204
200
211
208
207
210
208
196
193
195
192
189
186
189
196
186
185
195
189
192
196
206
203
207
203
208
209
208
198
200
207
199
199
194
187
184
184
185
182
181
175
179
180
185
185
191
193
193
200
203
203
211
207
210
219
220
219
216
219
216
204
206
205
208
206
207
199
193
198
207
207
215
231
231
226
213
209
192
193
199
204
201
182
184
182
187
199
199
198
195
204
204
202
205
212
208
213
217
208
193
195
189
193
190
190
188
197
190
190
190
193
197
195
207
205
206
206
202
200
198
200
200
204
200
197
194
189
185
184
181
179
181
174
179
184
177
188
186
194
190
196
198
196
196
198
206
212
213
216
211
206
207
199
198
195
202
198
194
202
196
185
200
203
213
219
234
229
217
213
198
198
204
209
202
189
190
182
178
197
200
204
206
204
200
197
211
214
215
226
219
201
196
198
196
196
194
194
194
195
195
193
191
190
196
201
206
207
210
210
202
198
194
201
205
204
203
196
193
191
185
184
181
179
182
176
178
180
181
183
185
189
188
189
187
194
189
192
193
197
202
203
206
201
197
197
193
186
190
194
189
195
202
183
188
191
207
211
218
225
223
213
206
206
210
207
208
198
191
181
179
207
200
204
209
202
193
201
217
212
221
226
210
201
199
197
192
195
190
196
194
198
198
195
193
194
197
203
206
207
202
203
207
203
200
205
206
204
198
193
193
190
188
188
182
183
187
179
177
176
183
181
185
183
188
186
190
191
188
186
185
185
189
192
196
200
200
195
189
192
181
188
184
188
199
185
177
184
198
209
210
215
222
219
206
203
206
205
207
204
191
181
179
208
204
206
209
200
201
214
217
220
222
214
200
204
196
197
193
195
199
195
199
199
197
200
199
199
196
198
206
200
200
201
205
203
200
199
200
197
199
191
191
188
187
185
182
184
182
178
178
179
181
179
187
183
185
186
192
188
188
182
178
176
184
188
187
195
199
198
187
196
184
182
184
183
196
185
179
186
189
201
212
208
221
222
208
199
204
206
201
206
196
183
181
209
203
207
215
204
205
215
222
219
217
203
202
203
205
197
196
200
203
197
199
202
199
204
200
198
196
195
201
196
196
192
195
200
195
196
198
196
197
201
197
193
191
186
186
181
185
183
186
187
185
184
186
181
182
187
185
187
188
181
179
178
177
182
187
185
192
194
192
192
191
181
179
181
194
193
182
186
182
190
206
202
214
213
205
201
201
209
199
207
198
187
181
212
203
213
219
201
206
216
228
220
216
210
210
205
197
195
198
202
197
199
197
199
195
193
195
190
194
198
196
197
194
192
191
196
196
196
200
200
203
203
193
195
194
191
192
188
190
186
191
191
186
188
186
188
183
184
181
183
184
181
182
179
177
182
182
186
186
185
193
185
191
183
181
177
190
191
184
175
177
179
190
199
207
214
205
210
198
200
194
207
202
183
185
212
210
215
219
207
210
218
224
220
223
215
208
200
189
200
209
203
197
193
190
192
186
185
192
194
192
193
199
194
192
190
188
199
197
200
203
205
206
203
195
194
195
193
189
189
189
186
187
186
189
190
190
188
187
181
183
182
182
181
183
183
182
188
182
185
192
189
191
185
189
187
188
178
184
184
179
170
175
173
174
192
200
219
203
204
200
198
191
204
207
185
180
204
202
217
216
205
209
218
219
222
227
202
198
192
197
201
201
197
190
186
184
190
190
188
185
191
190
192
196
194
191
196
198
200
201
203
200
205
205
201
195
192
195
192
190
188
192
189
189
185
188
187
186
184
185
182
183
183
185
188
186
186
187
189
184
186
189
195
193
192
186
188
186
183
189
185
177
172
165
172
170
186
196
212
206
201
200
204
196
195
205
184
175
201
199
218
212
209
211
217
220
224
214
199
196
190
205
203
196
188
187
177
178
183
187
191
195
194
190
189
191
197
197
196
198
194
197
202
199
197
198
199
194
190
191
190
188
186
187
187
192
184
180
181
177
178
183
183
180
181
184
184
183
188
187
185
183
188
189
195
198
193
189
190
185
183
183
187
177
177
165
162
169
172
190
207
211
192
201
205
205
194
204
183
176
204
203
215
211
216
212
211
219
215
208
199
194
195
206
201
185
183
179
171
173
182
191
195
197
194
193
195
192
193
200
197
196
196
194
196
197
192
191
194
190
186
189
187
188
185
183
182
187
181
173
176
177
177
180
179
178
178
177
177
181
184
185
182
184
185
191
197
199
193
188
195
182
178
185
182
172
167
163
156
159
168
181
199
206
190
190
193
202
198
200
190
174
211
208
214
207
216
222
218
212
215
203
193
185
188
205
188
184
176
175
175
173
182
192
194
197
193
193
192
189
190
191
196
191
193
192
195
193
191
187
191
189
184
185
187
188
181
178
177
179
176
170
172
176
179
175
177
175
177
177
177
179
182
180
182
181
184
190
192
204
203
189
196
190
174
177
178
171
168
163
154
156
155
171
194
195
194
187
173
193
200
196
187
181
207
209
211
212
220
223
215
211
214
198
189
181
194
193
184
185
179
176
175
173
184
189
193
192
190
186
190
190
190
191
192
194
189
192
192
190
192
187
189
187
183
183
185
186
181
176
176
177
171
166
168
175
176
174
179
181
182
184
183
182
181
180
182
186
186
190
195
201
205
203
201
201
189
172
174
163
168
163
155
147
153
163
185
184
189
186
170
174
203
193
194
177
200
203
206
218
219
217
217
217
204
196
189
186
198
192
188
182
176
171
167
173
186
195
193
192
186
185
189
186
189
193
195
198
195
190
193
189
190
187
191
185
185
185
183
182
181
174
174
172
169
165
166
177
177
180
186
189
189
189
188
183
184
181
186
187
189
190
197
201
207
203
207
211
207
187
174
163
161
161
154
145
151
160
173
185
177
185
176
176
196
201
187
190
193
199
203
226
217
219
235
219
207
203
193
195
201
195
190
179
175
172
174
177
195
200
195
188
187
190
189
186
189
191
192
194
193
189
189
190
187
187
189
188
184
178
178
179
176
174
175
171
173
172
176
182
180
181
190
189
194
192
190
191
190
191
191
192
193
193
198
203
210
205
203
210
214
211
191
160
164
158
153
149
147
155
167
180
171
169
188
176
189
198
185
186
196
204
205
219
222
231
236
221
207
196
190
195
199
192
180
172
170
169
171
175
190
196
192
186
188
189
189
197
195
194
194
198
193
191
187
185
187
189
190
190
186
178
175
181
181
181
185
183
183
184
183
184
187
181
189
190
195
195
197
199
199
199
197
197
200
203
205
210
211
207
206
206
206
219
209
171
156
162
153
150
149
152
168
176
178
163
186
183
175
188
193
182
192
209
190
214
229
232
232
211
202
200
198
203
201
190
181
170
168
169
172
178
191
190
188
187
188
187
186
186
187
192
193
194
195
194
186
182
187
183
189
185
184
176
169
177
178
180
185
182
184
186
185
190
196
192
195
197
201
205
206
207
207
209
207
203
205
207
210
209
209
206
208
206
201
210
219
188
157
153
154
154
143
151
166
179
183
175
179
179
173
187
196
177
207
214
187
206
225
227
222
206
214
206
204
209
203
189
182
171
169
170
171
180
195
197
194
200
203
200
195
192
192
195
196
197
197
198
194
188
191
194
194
187
185
180
171
175
184
183
189
191
189
195
197
196
207
202
202
198
203
206
204
207
210
211
210
209
205
201
202
204
210
209
208
207
203
207
221
202
170
151
149
154
144
143
165
168
182
172
184
176
176
185
198
186
218
212
184
194
215
225
219
217
213
201
208
214
204
189
178
170
162
164
170
191
197
201
199
206
198
195
194
198
199
204
201
200
202
204
209
198
207
204
194
189
189
190
182
186
187
191
194
200
200
203
203
200
208
216
199
193
205
202
204
205
205
206
204
202
197
198
195
196
206
210
209
201
201
205
213
207
179
160
153
147
147
144
154
169
175
176
175
177
180
177
193
191
218
205
186
191
220
221
217
222
218
207
214
216
206
185
174
178
161
172
185
196
195
198
196
192
191
186
189
195
184
189
191
188
189
192
203
205
208
207
200
193
189
192
194
191
191
194
196
204
207
203
208
210
216
222
216
201
201
202
201
210
211
206
200
188
192
191
196
198
202
209
208
207
200
206
213
213
196
160
162
159
143
149
150
163
173
184
175
175
184
182
192
191
212
197
189
196
231
217
229
222
225
212
220
224
211
182
189
183
169
179
187
198
198
198
198
192
193
195
191
202
196
194
184
187
190
188
186
191
198
201
196
201
212
207
202
198
198
200
205
208
212
213
214
218
227
222
225
212
202
206
206
207
212
203
203
190
191
189
199
199
194
200
202
206
208
209
211
206
203
184
177
180
153
156
153
156
168
188
184
178
172
183
194
178
215
180
194
205
237
207
229
221
228
218
220
233
204
188
191
175
180
175
190
203
209
203
201
208
204
202
199
202
194
202
195
188
209
203
201
196
196
214
203
202
209
223
208
186
191
194
193
197
210
211
209
225
222
221
217
209
211
202
199
199
201
192
192
194
200
196
204
210
202
204
199
203
205
208
222
212
202
205
178
200
174
158
167
165
170
181
183
169
167
182
181
175
210
176
192
210
226
202
221
224
236
217
222
224
195
195
184
177
189
177
194
204
212
194
184
207
202
206
206
207
201
210
208
201
218
205
201
198
196
204
207
200
202
209
209
172
177
180
186
198
211
213
216
217
231
225
217
209
207
199
192
188
183
168
165
173
185
179
200
213
214
210
210
211
215
203
213
222
203
215
190
193
191
162
183
174
172
173
176
162
168
179
169
175
199
182
191
215
217
200
219
221
235
211
229
214
193
187
171
181
179
165
188
180
184
170
179
188
188
198
210
221
215
215
210
214
213
211
206
203
198
204
198
194
198
205
177
175
176
186
205
206
219
222
230
220
222
221
206
198
186
176
169
167
165
163
153
149
167
169
171
208
206
211
197
216
220
203
197
210
208
220
218
187
187
176
180
163
175
177
178
161
173
175
154
170
177
182
203
220
217
203
214
217
227
196
214
205
183
168
176
188
185
190
191
182
177
177
185
184
197
193
197
197
190
205
198
199
189
180
181
172
171
180
173
171
175
182
158
179
187
196
197
210
214
216
216
217
211
206
189
178
171
170
155
155
155
144
135
140
164
155
174
192
198
202
183
209
216
205
202
200
189
207
231
202
185
181
168
157
180
186
179
164
169
167
156
167
167
191
211
219
216
204
208
206
216
194
209
191
187
176
189
188
194
192
190
183
183
187
181
186
197
200
207
200
201
201
207
191
187
178
173
161
159
179
157
193
184
174
144
189
177
194
199
209
215
204
202
219
209
216
202
185
176
171
149
148
153
137
127
128
144
147
165
193
198
197
187
185
185
196
198
215
212
182
215
217
191
177
178
155
173
184
174
167
167
162
159
167
172
188
212
212
198
199
200
202
202
199
212
210
192
184
188
188
196
191
187
170
185
201
207
210
199
206
220
192
193
191
189
174
177
168
164
160
182
186
162
180
197
204
185
191
200
188
198
205
200
200
210
205
215
207
201
189
195
186
170
160
176
175
157
154
158
163
202
190
199
201
185
188
176
171
182
208
221
213
190
222
196
181
165
180
166
172
165
162
154
152
160
174
185
181
198
201
183
198
197
207
210
197
209
200
197
182
187
196
193
189
178
180
196
218
220
193
180
182
193
180
180
175
179
175
163
161
160
139
177
185
186
153
160
189
199
194
211
198
204
219
209
205
213
210
228
204
202
198
210
193
180
161
178
193
186
184
186
175
207
192
198
196
196
182
181
167
165
194
216
226
208
218
219
179
170
184
178
174
166
158
156
153
165
168
199
185
197
192
178
199
200
212
209
189
195
177
203
200
191
188
195
179
185
193
210
216
202
187
194
194
190
178
176
167
172
177
163
164
167
138
184
166
174
166
164
160
205
191
187
177
193
219
219
201
221
217
240
218
207
204
208
190
178
181
185
192
211
205
197
186
186
198
203
185
188
184
172
184
167
182
209
230
205
202
226
182
164
184
190
177
159
151
153
153
166
176
204
187
189
195
177
207
202
223
202
190
187
181
209
205
187
194
209
183
198
208
214
201
198
192
191
208
193
176
188
191
186
184
176
187
186
176
196
175
173
174
189
156
205
199
179
189
185
225
217
211
208
218
243
213
201
209
186
181
171
178
180
194
206
202
204
198
206
221
215
209
193
186
179
193
192
175
199
218
200
192
230
218
183
172
197
178
150
141
146
156
163
181
184
191
191
192
180
194
198
200
185
180
188
178
204
186
176
199
220
178
180
204
210
195
192
207
201
203
196
188
218
206
202
201
196
203
206
204
183
185
170
170
189
152
179
192
171
178
189
219
215
218
211
189
228
212
209
194
180
174
168
168
170
185
187
183
191
196
202
209
207
216
199
189
173
192
203
189
206
210
193
173
222
243
192
184
178
172
149
140
144
147
164
187
170
181
195
197
176
197
194
184
171
180
182
184
195
173
183
220
220
178
179
186
198
198
193
213
207
202
193
192
208
208
196
199
198
175
203
190
171
158
163
161
179
155
171
176
177
198
199
216
218
223
223
177
200
217
198
177
170
175
155
152
163
175
177
184
176
196
178
200
205
214
200
194
178
187
198
197
217
214
215
176
199
233
183
174
174
176
159
146
146
148
163
190
173
176
179
197
188
178
197
172
169
191
188
192
191
191
198
215
203
180
183
182
190
203
204
210
213
212
206
202
203
192
185
182
171
171
191
184
172
156
148
158
173
153
160
168
170
191
188
208
208
214
225
203
174
203
196
178
168
161
146
135
155
165
157
159
163
162
156
177
187
207
212
204
192
200
201
210
217
208
215
181
205
234
177
151
178
186
155
142
152
150
158
191
182
175
179
182
210
171
187
167
169
188
182
188
197
206
211
184
186
186
184
185
191
207
199
193
199
197
198
198
200
183
176
168
167
179
178
187
172
162
150
175
154
167
149
153
178
191
176
209
207
201
214
217
173
202
204
193
178
169
156
152
158
167
169
172
162
180
148
175
181
175
193
201
192
192
199
210
207
199
212
176
215
229
179
149
175
178
164
157
152
154
160
185
187
169
178
184
215
179
171
171
169
181
180
176
181
195
209
178
181
196
179
192
194
206
192
196
199
203
195
197
200
176
189
160
174
182
172
200
183
166
156
183
155
171
146
145
177
176
180
195
208
202
214
232
188
193
193
207
202
175
175
170
175
180
161
174
155
170
171
171
181
165
158
174
183
184
195
195
191
194
201
190
227
222
173
159
179
173
174
164
148
152
170
182
190
172
186
191
213
189
167
166
169
182
190
176
176
202
212
192
183
196
182
174
183
185
193
200
203
204
191
191
199
177
172
161
170
176
183
203
192
181
190
165
164
161
148
163
180
167
185
186
186
194
203
223
216
182
201
203
208
179
171
169
176
178
170
173
163
171
171
176
177
171
165
170
179
181
189
197
201
192
177
198
229
207
171
158
188
176
185
172
146
154
183
182
201
184
194
189
209
201
186
161
168
181
192
181
168
198
211
189
174
185
171
169
172
176
186
189
195
196
183
186
196
185
159
178
178
187
195
201
195
192
199
155
160
150
150
179
173
166
189
185
188
182
184
207
210
199
178
202
219
195
186
180
184
185
186
182
182
185
177
184
183
189
191
187
189
187
191
201
206
203
175
229
204
207
178
154
173
184
180
185
162
171
187
177
194
193
193
200
207
204
190
172
154
184
185
177
163
174
209
199
165
188
175
181
180
181
185
182
190
195
194
194
200
196
195
202
197
204
203
200
200
211
194
168
166
151
170
189
167
170
189
181
195
184
177
193
201
189
182
166
211
215
195
192
192
192
188
187
185
192
186
176
193
193
199
188
189
192
197
205
205
219
194
225
186
209
185
147
177
173
180
181
176
183
185
179
182
187
195
210
207
199
193
178
165
184
187
184
179
186
201
216
180
199
193
197
196
198
193
193
197
203
204
203
208
215
211
205
208
207
206
203
199
200
178
185
162
150
184
179
167
164
183
182
193
184
179
178
188
179
187
175
164
211
214
200
195
193
196
197
194
190
189
187
190
203
203
194
197
203
202
211
215
237
202
198
194
206
184
148
169
179
177
181
203
181
182
191
180
187
198
200
208
196
202
194
194
185
199
193
196
202
201
216
183
207
203
203
204
202
196
204
206
210
207
207
211
211
206
203
212
212
208
205
196
187
202
176
147
166
180
169
172
169
182
187
190
187
181
177
188
176
179
192
163
170
201
216
211
203
205
203
204
201
197
197
202
209
209
204
212
212
213
208
218
213
194
187
204
205
183
152
172
176
184
191
205
203
175
200
186
181
203
194
200
206
216
207
211
201
185
187
197
218
194
226
185
203
204
199
205
205
204
214
221
226
223
219
216
214
211
217
214
205
204
198
192
205
193
153
151
179
174
164
169
171
180
185
192
194
185
187
180
186
182
195
167
161
163
185
214
211
210
210
205
209
211
215
214
216
215
211
208
209
201
192
221
204
194
183
210
197
182
152
164
175
194
196
206
208
177
198
191
172
202
190
204
205
217
213
214
215
176
185
194
207
191
226
201
187
223
196
196
197
200
209
216
222
218
216
210
210
205
205
203
199
197
193
205
197
163
143
157
165
162
159
167
174
180
187
197
199
184
187
178
179
180
186
184
163
170
161
192
217
215
219
215
209
208
207
206
208
208
208
206
210
197
201
214
205
186
195
206
193
184
155
157
182
208
182
197
200
184
198
183
179
192
192
222
217
223
218
217
211
184
185
184
203
200
195
223
185
206
220
210
209
214
217
220
224
222
216
212
208
202
204
216
203
208
213
199
174
155
149
153
159
155
153
168
175
183
191
199
194
192
179
184
174
179
177
193
164
175
176
167
192
204
211
213
210
200
199
200
202
202
204
204
212
205
209
213
194
203
200
201
188
186
168
148
196
217
174
184
195
187
196
169
188
185
193
241
216
231
231
229
228
188
192
187
182
199
185
220
212
202
207
204
200
211
219
223
223
226
220
215
212
209
201
212
218
218
202
185
165
157
154
153
153
165
166
178
179
186
189
198
199
202
194
178
186
193
185
191
184
176
196
181
192
186
195
209
208
199
200
199
205
210
210
210
214
208
209
195
203
217
204
203
179
186
172
149
192
220
180
186
193
184
197
157
182
174
197
216
203
222
240
230
226
194
187
190
191
181
193
190
221
203
216
204
200
203
218
221
218
228
219
210
209
208
218
216
214
202
185
173
155
163
161
168
177
188
193
194
188
194
193
192
208
215
213
199
201
210
197
188
200
179
191
193
199
193
186
192
201
196
203
206
207
215
211
212
209
205
196
199
217
220
214
196
178
191
162
154
178
215
185
195
205
186
204
157
176
165
190
190
197
201
244
225
219
205
179
177
184
193
195
192
196
196
199
193
198
200
210
214
206
215
214
214
223
228
219
204
193
182
170
161
162
172
174
194
212
209
212
204
187
200
190
193
203
218
218
216
215
203
207
206
203
196
175
182
199
191
181
185
186
186
186
196
196
206
203
210
209
202
201
212
221
215
204
185
185
200
160
159
165
192
195
204
213
182
209
168
176
167
182
188
182
205
244
227
215
209
175
172
180
190
197
198
203
198
197
198
189
192
204
211
211
214
220
221
213
209
193
181
174
173
174
182
182
182
196
226
225
211
204
198
184
198
192
200
206
212
215
223
217
200
199
207
210
207
176
180
184
177
174
176
180
187
185
190
193
194
197
202
203
201
205
216
209
210
196
177
195
188
154
156
175
187
215
212
204
181
207
166
173
170
167
190
175
196
241
247
224
217
173
167
172
192
196
193
196
196
202
200
198
195
193
189
191
190
195
197
189
193
189
181
182
183
193
193
188
187
205
223
215
199
204
196
195
202
205
205
206
213
223
225
215
206
204
208
217
227
186
173
190
187
177
175
178
182
185
184
189
187
188
187
186
191
215
215
211
206
194
179
187
185
161
158
174
203
241
214
194
193
209
166
168
171
151
194
174
198
228
255
228
220
186
170
161
187
193
195
196
202
203
202
197
205
206
203
201
209
201
197
199
206
200
200
191
187
187
189
185
185
192
197
191
185
200
189
191
209
226
224
222
230
222
221
199
179
177
192
222
217
179
177
177
182
183
185
185
185
190
185
183
184
185
189
194
196
202
215
208
202
193
176
188
180
165
174
168
204
243
213
187
197
209
181
168
157
161
175
181
182
218
248
233
220
186
177
160
181
195
193
197
204
204
204
201
203
209
210
206
202
196
196
199
202
195
198
185
194
183
185
193
191
191
190
192
170
171
175
182
202
231
230
230
231
212
219
199
162
172
181
201
204
184
183
187
181
176
184
184
186
193
194
191
195
198
201
198
198
205
208
208
188
187
185
191
176
167
178
177
204
239
217
184
200
208
194
178
145
157
159
181
188
210
236
237
219
186
171
159
178
193
197
198
204
205
206
205
202
210
198
191
189
187
189
191
191
194
191
186
194
184
181
195
195
194
197
192
172
172
185
198
207
224
225
218
213
210
202
207
174
176
178
194
199
183
187
187
186
191
197
191
188
188
197
196
192
196
201
196
196
198
195
197
190
187
188
202
174
169
175
181
196
233
230
180
208
205
200
189
148
148
163
165
190
211
227
230
223
188
167
174
169
192
193
197
207
200
203
203
207
190
189
188
188
184
181
183
189
193
189
192
199
188
180
198
207
202
198
190
181
181
190
198
209
224
215
206
191
214
207
218
198
185
180
190
194
186
186
189
198
198
204
201
192
193
197
202
195
195
201
203
204
196
193
201
192
184
189
205
182
181
184
179
198
230
228
193
211
203
212
202
173
162
173
158
188
212
216
213
219
187
165
189
174
188
192
197
205
196
194
203
194
183
189
192
188
180
182
183
189
186
200
197
194
201
192
193
198
196
189
188
183
190
197
199
214
220
202
191
179
206
213
209
206
190
188
189
198
197
204
196
202
210
211
206
195
190
192
194
196
196
203
204
207
194
192
198
193
184
187
194
182
193
194
185
207
232
226
201
201
204
211
213
197
183
178
154
188
215
212
197
211
192
172
190
190
179
191
195
197
193
192
199
183
184
187
189
183
183
184
184
190
188
205
201
199
195
196
192
198
200
190
199
194
195
198
204
209
215
193
178
174
191
199
197
197
182
205
203
204
204
215
210
210
213
209
210
200
192
193
192
193
194
205
203
203
194
190
197
197
190
180
175
184
201
208
214
206
231
223
208
203
214
210
212
204
192
176
168
192
221
218
192
200
200
190
189
207
178
192
194
196
193
191
194
181
182
183
186
179
184
186
177
183
190
200
201
206
200
194
202
204
213
200
198
194
202
192
196
204
205
190
178
173
185
194
200
194
184
201
207
206
202
214
213
205
210
204
213
206
197
194
192
200
195
199
205
204
192
193
195
198
188
179
176
186
204
204
210
204
230
207
206
209
222
209
212
203
197
172
175
188
222
223
214
196
204
202
189
207
187
192
196
188
190
190
192
179
181
184
181
183
187
182
178
182
188
194
192
199
202
196
205
212
205
201
192
189
196
193
190
196
203
193
177
175
176
187
199
192
186
203
204
203
197
206
203
197
197
205
209
209
209
205
195
203
202
201
205
203
191
193
194
197
190
182
180
183
199
192
196
216
223
198
203
220
217
213
211
205
199
176
166
178
208
216
230
221
207
206
201
205
195
184
192
188
188
186
191
183
182
180
184
187
184
182
179
185
183
185
181
187
192
192
195
199
198
191
192
186
191
196
185
184
196
194
185
185
188
192
197
183
185
193
198
195
197
198
193
194
199
207
212
212
212
212
204
202
202
205
208
206
195
188
192
197
188
186
175
179
192
189
197
223
206
192
210
224
214
216
216
208
198
191
162
171
189
209
223
230
198
211
206
202
196
176
187
185
186
180
192
186
177
183
188
185
187
190
190
195
186
177
177
186
184
185
193
183
189
186
190
187
181
186
182
183
187
186
192
193
191
192
190
181
183
185
191
186
189
192
195
196
196
202
211
213
208
211
210
204
203
207
209
205
196
189
186
191
188
192
174
180
193
198
201
218
185
198
216
223
211
213
219
212
200
197
163
167
171
192
222
229
208
200
201
200
202
174
183
182
182
183
188
185
182
182
189
184
190
194
197
201
188
178
182
181
180
179
190
186
179
178
185
189
179
182
179
182
183
184
186
187
188
192
185
182
180
183
181
178
176
180
191
193
194
201
205
205
212
207
211
205
204
210
202
207
197
194
185
182
193
194
186
190
201
206
205
195
179
205
223
222
213
208
220
209
209
200
173
159
171
172
212
231
216
199
206
196
200
178
179
181
183
188
191
186
184
182
189
186
192
204
210
198
189
176
177
178
173
175
180
179
177
170
180
186
180
185
186
185
188
186
186
190
187
190
186
188
184
185
185
178
172
174
189
190
183
196
205
201
210
205
212
206
207
208
199
204
198
194
187
182
193
199
189
192
210
202
204
176
181
216
224
221
214
209
207
213
209
200
178
167
166
171
189
225
223
199
201
199
198
177
176
186
188
188
187
194
186
190
189
191
199
208
210
200
181
179
180
172
160
170
175
177
182
173
177
179
180
190
185
181
188
182
183
193
186
189
193
192
191
187
188
188
180
170
179
183
188
188
199
204
208
204
210
204
205
207
202
207
193
198
185
183
199
203
193
196
198
194
176
174
202
220
222
222
211
210
208
208
210
202
183
164
159
168
179
205
228
205
195
196
194
188
180
188
191
190
188
192
193
200
199
196
204
212
211
201
187
185
182
167
156
166
172
178
185
175
167
162
159
174
173
172
190
187
183
190
175
178
187
187
199
199
189
201
188
176
184
187
188
185
187
197
202
205
211
207
207
203
205
212
195
199
192
187
204
210
190
193
178
169
167
190
217
219
224
224
212
212
217
204
205
203
190
160
152
169
185
186
209
214
189
199
192
197
186
187
193
189
189
186
195
198
204
201
211
220
211
201
192
188
175
161
157
155
160
167
167
167
151
149
142
151
156
153
179
178
174
169
159
171
180
175
193
188
197
212
213
187
197
193
190
182
173
181
193
205
211
206
213
203
210
216
205
202
201
194
216
213
192
168
167
165
178
199
218
226
225
223
214
217
218
211
207
201
197
166
154
161
174
190
193
203
185
195
186
196
188
184
195
195
191
181
187
190
190
202
214
220
215
212
205
199
179
163
164
166
168
175
167
172
164
165
165
169
169
160
187
187
186
186
175
199
199
189
202
191
193
210
214
194
192
186
184
180
177
186
192
204
208
214
214
208
222
221
214
209
215
203
234
211
189
169
172
176
189
208
215
225
226
222
215
214
220
216
214
205
200
168
160
157
172
180
197
197
174
181
175
187
179
177
196
196
186
176
181
187
186
189
204
213
205
211
203
207
190
175
169
165
168
176
181
192
186
184
191
197
199
193
208
216
210
215
204
209
206
201
201
192
192
194
195
182
177
179
185
182
189
194
195
204
207
213
210
216
230
222
224
211
223
210
230
202
183
182
179
183
200
211
220
222
223
222
214
214
217
218
217
210
202
175
162
159
165
174
197
196
184
190
172
185
179
171
194
198
185
173
182
189
189
198
202
197
197
205
205
206
203
188
176
162
162
173
171
194
190
185
198
204
198
197
212
210
202
205
185
189
192
195
197
187
174
178
174
170
174
175
182
186
194
202
195
213
209
215
215
216
237
226
224
222
222
221
220
197
191
185
189
190
203
214
219
221
225
219
215
209
211
218
220
215
207
189
158
155
164
171
187
191
190
195
187
188
181
168
182
190
182
173
181
184
193
197
205
199
197
203
199
211
195
187
186
182
182
180
176
184
181
169
174
174
179
187
198
194
187
194
186
194
185
178
183
178
169
168
168
174
184
190
194
196
199
205
199
211
209
212
212
224
227
227
225
226
220
232
211
196
191
193
193
198
210
216
220
217
224
218
216
205
207
215
215
217
210
190
164
161
162
168
179
192
191
196
195
194
190
167
180
176
179
171
183
176
194
190
202
192
199
208
203
201
182
187
190
207
206
204
195
188
189
180
176
178
173
178
177
175
172
181
180
187
183
182
190
170
174
173
184
183
187
192
202
203
209
209
202
209
206
216
215
226
224
230
224
226
220
233
205
197
192
191
194
201
211
221
220
217
220
220
219
207
210
208
208
212
211
185
181
173
165
172
176
189
193
194
202
200
195
170
184
170
168
164
185
176
192
185
188
187
198
204
209
201
183
185
185
211
212
219
220
207
209
201
198
198
197
193
197
193
194
200
196
205
206
203
201
186
180
185
193
191
186
197
204
202
210
213
208
212
213
213
227
227
231
232
226
220
222
225
203
194
191
185
196
204
217
221
220
220
221
224
217
207
199
196
198
203
196
185
188
187
173
176
181
185
194
200
200
206
199
182
176
179
171
164
186
180
187
179
188
193
198
203
203
198
186
183
184
199
196
212
213
207
214
213
208
208
211
202
209
211
211
208
202
205
198
195
189
189
185
186
194
192
190
204
200
203
214
215
218
219
216
221
227
222
227
233
220
214
211
215
198
184
182
187
190
200
215
213
215
215
216
218
210
195
194
186
188
186
181
184
189
189
183
182
191
184
202
206
197
205
199
194
172
188
171
170
180
184
195
177
186
201
193
203
197
191
193
192
189
193
190
201
193
191
193
196
195
199
206
199
200
202
196
200
203
196
201
191
189
187
188
187
186
189
192
197
195
206
209
208
213
208
211
219
220
220
215
228
211
208
204
208
193
178
178
186
192
204
205
205
207
208
206
205
201
190
194
183
184
181
184
183
185
185
185
188
199
194
195
202
212
212
205
199
175
196
180
172
184
177
196
178
180
205
198
200
197
186
197
192
192
197
193
196
191
192
191
193
201
196
207
203
197
207
198
206
200
196
198
192
185
189
186
190
188
194
199
202
199
210
201
203
209
196
212
214
219
216
217
213
200
195
208
202
183
178
177
187
194
205
202
204
208
205
202
205
206
188
188
179
180
182
186
183
184
186
180
187
193
196
194
198
221
217
206
195
177
191
186
175
186
186
189
182
184
198
200
210
199
191
192
196
194
197
194
196
191
198
200
201
205
195
203
206
196
202
197
196
191
186
186
189
186
195
188
190
195
201
205
206
200
203
205
204
209
198
204
217
210
213
216
201
179
199
205
195
180
179
180
185
201
202
203
205
211
203
197
203
209
179
179
179
190
182
178
179
181
181
178
181
193
196
197
210
220
223
203
187
178
184
188
180
178
182
183
183
185
200
194
211
206
190
195
191
191
198
200
190
192
202
201
202
206
201
211
205
198
200
194
194
188
185
188
190
186
192
191
191
197
202
205
205
201
197
203
204
208
194
206
220
207
206
208
186
173
198
192
179
182
178
181
185
203
202
202
206
208
201
193
201
204
173
169
182
189
177
176
175
180
180
178
183
198
202
209
222
231
216
203
188
176
196
184
181
180
177
177
181
190
190
190
205
205
194
197
193
203
203
200
189
197
196
197
198
200
200
209
199
193
195
193
184
189
181
186
188
190
190
197
195
204
201
204
211
203
206
202
206
205
201
213
209
207
206
191
173
182
199
171
171
171
181
186
189
196
208
204
205
204
200
191
199
200
164
168
179
186
175
171
179
179
178
171
190
196
209
219
225
231
226
196
202
180
197
188
180
179
184
168
181
186
182
185
196
196
185
190
203
207
206
209
203
205
199
198
200
196
195
197
191
191
192
192
179
182
184
181
192
198
192
197
199
207
201
206
208
201
205
204
207
202
204
212
208
197
196
178
185
191
201
170
166
169
177
195
200
194
202
203
206
200
199
195
197
192
162
173
176
179
175
166
173
177
179
167
193
209
217
221
238
234
230
203
191
193
190
202
171
179
182
170
174
177
179
176
188
186
186
183
194
206
198
204
199
203
192
196
195
193
191
198
195
190
188
188
184
186
189
188
193
198
192
197
209
212
203
205
207
203
202
207
199
200
213
213
207
194
187
179
182
204
205
177
164
175
180
198
201
193
197
200
203
200
197
197
193
189
160
172
176
176
175
167
159
172
177
178
193
220
226
240
246
231
227
208
201
197
191
205
182
186
183
176
175
168
171
171
181
179
184
179
189
187
188
192
195
197
189
199
197
191
193
195
192
187
187
188
191
192
187
190
192
197
197
199
203
208
210
205
203
206
203
199
204
190
208
205
201
193
184
183
174
205
213
187
171
186
183
197
195
190
195
192
197
200
196
187
186
192
173
171
173
176
177
166
152
177
175
175
194
227
247
249
239
230
215
210
214
201
187
200
198
189
175
182
180
171
164
168
169
175
173
179
178
185
186
188
191
182
181
189
193
188
190
187
183
186
189
189
194
190
186
188
184
194
201
195
200
202
210
209
209
198
199
199
204
192
201
197
195
195
180
188
181
207
196
201
185
190
183
191
197
191
193
189
191
197
193
183
183
187
175
173
175
176
177
169
159
181
176
161
211
236
248
244
235
226
209
211
220
204
192
212
206
188
177
183
178
176
171
166
167
167
175
174
174
180
188
185
191
180
177
186
191
188
186
191
184
192
191
199
188
186
191
187
187
195
199
199
198
200
200
209
202
196
190
192
201
189
193
205
190
192
182
189
179
215
199
191
205
195
187
187
189
195
194
185
183
190
183
182
182
188
179
177
174
181
177
172
168
177
181
167
209
233
243
237
232
224
204
210
212
202
202
221
217
197
183
184
178
180
180
167
168
168
174
181
177
179
190
190
188
181
176
189
193
192
186
195
189
191
187
195
184
179
190
187
194
194
197
194
194
200
191
213
197
190
191
192
187
180
190
199
204
175
182
188
158
228
220
180
211
206
187
195
181
193
198
189
185
190
184
183
188
186
175
173
175
175
179
179
187
178
179
186
212
217
234
232
228
217
214
210
199
205
207
231
230
218
181
184
177
177
184
166
167
166
175
183
174
176
186
198
188
189
178
186
197
187
187
190
192
184
190
198
181
183
185
184
190
197
196
192
191
202
194
202
197
191
197
188
181
177
191
199
198
163
182
193
163
211
226
207
203
214
182
199
188
190
194
193
189
188
179
181
184
181
174
171
177
179
190
194
194
172
175
201
212
215
222
221
226
216
208
215
192
208
210
230
234
228
189
183
179
177
177
172
174
173
177
184
173
182
184
195
191
194
182
189
197
190
185
190
192
183
186
189
186
185
187
185
186
198
193
191
197
205
191
197
192
195
183
184
173
177
199
196
194
161
183
200
182
187
223
222
217
219
189
193
197
182
197
193
192
185
183
172
181
180
172
175
181
189
203
200
190
169
179
206
214
219
219
206
220
219
208
207
200
210
216
220
238
229
197
188
184
189
181
179
177
179
176
183
182
188
186
184
189
191
188
190
198
184
183
191
187
187
184
189
187
184
184
188
192
199
194
199
198
196
196
193
186
191
178
176
176
181
196
199
178
164
175
201
184
185
221
222
220
218
199
189
199
190
188
191
191
182
186
178
181
179
176
181
189
192
204
193
182
174
192
212
215
224
221
194
208
212
212
200
198
221
207
218
234
232
205
202
196
179
190
186
177
180
175
186
189
190
178
180
182
194
190
191
195
186
183
187
184
190
188
185
187
189
183
187
195
197
198
198
195
194
191
193
187
186
175
176
176
184
191
186
175
168
179
193
180
193
209
225
224
207
210
191
193
200
184
189
187
179
183
179
176
178
180
183
180
193
201
183
183
181
190
213
218
225
212
194
202
206
210
188
192
218
205
210
229
228
213
212
193
186
190
187
187
182
181
189
195
189
171
177
183
190
190
192
189
189
188
181
185
191
181
180
189
188
187
185
196
195
201
194
195
186
183
193
190
190
176
172
183
192
184
186
180
169
184
198
179
200
211
224
229
205
209
192
195
204
187
186
184
179
181
176
173
171
174
177
171
190
193
183
188
184
200
214
219
228
205
201
216
204
182
178
192
203
214
207
227
218
222
201
191
201
189
195
191
188
189
183
194
187
175
189
188
189
190
186
186
190
192
180
190
195
185
181
181
185
190
189
189
194
194
190
192
186
189
192
190
188
168
182
191
189
180
190
176
175
191
191
174
206
208
219
231
218
205
192
194
201
191
180
179
179
178
171
178
169
172
171
169
197
182
187
188
188
213
213
208
224
206
214
222
193
162
163
185
195
210
210
220
213
215
206
199
201
194
196
191
191
194
192
193
189
191
194
198
193
196
182
190
193
193
188
189
190
191
187
185
187
191
191
188
189
189
188
184
190
194
186
182
185
178
190
190
175
186
187
169
176
197
181
167
207
212
213
225
231
207
196
194
202
197
179
183
178
181
164
165
166
175
172
173
191
182
185
190
193
216
213
206
222
219
221
210
188
154
152
164
189
206
205
217
216
212
208
203
196
199
200
189
191
192
193
191
188
196
193
192
195
202
194
198
197
195
192
193
184
190
199
192
189
195
186
193
187
183
185
188
189
188
179
182
194
189
197
195
182
181
186
164
181
200
174
171
207
208
211
218
227
219
199
190
200
201
181
186
181
176
167
168
170
172
169
179
196
184
186
188
202
214
213
212
223
227
209
203
178
156
151
164
167
199
208
213
224
207
207
206
206
194
203
191
198
197
188
185
191
195
189
187
200
202
201
204
198
198
193
193
183
196
200
191
196
192
184
190
187
180
183
186
186
184
181
190
199
195
197
202
183
168
181
169
196
191
180
181
205
206
214
222
219
221
204
194
201
198
178
186
190
181
166
164
178
178
177
183
188
184
186
193
208
207
216
220
232
209
202
193
176
158
150
165
156
175
196
206
217
215
210
203
211
199
210
189
189
196
187
188
194
193
195
195
192
199
200
202
205
198
202
199
201
201
203
198
192
187
181
183
189
186
176
187
192
195
197
195
199
198
198
190
185
168
172
177
189
180
187
181
199
208
206
221
217
226
205
196
205
199
183
181
191
187
170
164
175
181
182
187
178
184
176
204
208
202
215
240
239
186
185
192
189
154
156
154
153
169
181
200
207
212
211
208
214
201
209
197
190
180
183
181
194
192
195
203
191
193
194
199
194
198
204
201
201
199
199
192
183
181
182
189
195
187
186
199
203
204
209
205
193
194
194
180
183
171
163
187
182
181
195
185
195
196
204
216
217
230
209
202
205
196
196
187
186
190
167
166
166
182
181
179
171
176
185
212
203
199
217
252
224
169
183
187
190
157
157
147
153
165
171
194
202
199
203
212
217
213
208
207
192
186
185
184
187
182
194
190
193
197
201
196
191
200
202
198
198
191
192
182
178
182
191
192
197
195
201
197
212
210
209
199
195
186
193
176
180
176
175
188
183
187
195
189
198
196
197
218
215
226
210
207
203
197
198
196
190
193
171
169
163
