P2
# Face with average contibution
92 112
255
187
188
189
191
192
193
192
191
194
192
193
192
192
203
203
201
201
204
200
198
201
197
195
196
194
202
210
203
203
205
209
198
196
194
188
194
190
199
195
194
195
200
202
201
197
194
194
201
193
196
195
195
196
198
193
197
199
203
203
202
204
197
196
195
196
194
194
193
184
185
186
197
199
195
188
194
198
191
193
192
197
189
187
185
189
187
190
188
191
191
191
190
189
191
190
191
193
196
194
193
195
188
191
193
191
200
202
197
206
202
196
197
198
194
195
203
208
205
204
200
209
200
197
195
196
193
193
186
188
194
197
197
196
198
193
187
191
196
189
194
189
189
192
195
190
196
190
194
192
199
201
195
199
199
198
199
199
202
197
203
195
187
184
194
199
201
189
194
199
198
195
193
191
193
186
185
182
185
183
187
189
188
189
189
190
192
192
195
195
195
192
195
190
187
189
190
192
195
195
191
195
199
192
195
196
199
206
212
208
206
203
205
205
200
204
192
197
196
196
189
189
191
189
190
189
191
191
179
189
190
188
189
186
190
190
192
192
192
188
193
187
191
196
194
196
195
196
202
199
207
203
198
199
198
192
192
197
199
199
200
198
204
203
194
189
193
186
188
183
184
180
184
188
186
188
188
196
190
192
196
194
193
192
191
188
189
196
193
200
200
194
194
188
193
192
196
200
204
208
207
205
200
199
203
199
198
201
201
203
196
196
194
191
190
185
188
187
184
183
175
181
181
179
185
187
188
196
194
196
195
193
197
191
192
191
195
198
203
201
199
196
199
200
197
198
199
205
198
205
205
203
201
200
201
203
192
194
189
191
188
187
183
180
183
185
185
184
188
191
191
192
197
193
192
194
193
192
191
192
197
206
196
194
193
187
192
197
200
199
202
209
206
203
202
202
198
195
196
196
198
206
197
192
190
196
185
192
187
185
182
180
177
181
183
180
185
185
192
195
196
192
190
189
196
192
198
198
205
198
205
201
203
200
199
191
196
198
202
210
203
212
213
209
203
201
201
199
191
190
188
189
190
189
184
182
184
185
183
186
185
188
191
194
194
189
190
192
194
191
196
192
197
192
192
190
186
190
199
196
199
198
203
204
195
202
197
195
194
189
191
194
199
202
198
190
196
191
193
196
195
192
181
184
187
189
185
188
190
190
194
196
198
198
195
197
197
195
201
194
203
204
209
204
203
200
201
196
200
191
195
204
203
208
215
213
207
211
198
199
189
186
190
185
186
190
187
183
184
186
183
189
185
196
194
192
193
187
191
193
199
200
194
195
189
191
191
190
189
194
202
191
201
208
201
191
186
190
186
188
189
194
195
198
200
196
197
198
191
192
189
194
192
192
188
186
190
189
187
187
188
193
190
196
194
197
194
198
198
198
202
196
200
206
206
205
207
201
195
194
193
191
195
197
194
205
208
212
211
215
208
201
196
189
191
187
188
189
189
187
185
186
184
182
185
193
193
194
194
191
195
197
195
195
191
195
191
188
190
199
194
194
201
198
204
201
195
185
181
186
184
190
197
195
200
198
198
200
196
193
191
191
193
195
193
191
189
186
194
188
187
189
191
192
196
197
195
201
197
196
202
199
205
202
205
211
205
206
208
204
197
191
187
193
196
194
192
203
207
213
208
213
209
209
205
190
190
188
190
188
186
189
188
181
182
182
186
191
194
195
199
199
201
196
193
191
193
190
188
192
197
196
188
194
198
200
201
200
187
181
183
191
189
196
203
199
197
199
201
206
195
194
195
196
199
192
189
184
184
182
189
196
188
194
197
199
195
199
201
199
200
208
205
202
207
203
204
206
209
204
204
202
196
198
190
193
191
188
199
197
203
209
206
209
208
209
206
203
190
189
189
183
186
194
189
184
183
185
185
192
193
201
206
203
198
191
195
197
191
191
193
196
200
187
190
190
195
198
188
184
177
190
189
190
197
197
192
193
202
208
205
201
198
192
194
192
190
187
188
186
186
188
188
191
186
195
199
205
202
204
207
197
201
203
204
201
203
203
203
203
203
198
200
196
195
198
194
188
183
183
194
198
195
203
207
203
208
204
206
204
201
194
189
188
188
190
192
191
187
187
190
191
195
209
211
203
194
195
199
189
188
193
198
190
186
184
188
186
187
192
185
183
189
195
200
198
204
199
197
205
209
211
204
198
196
193
191
189
192
194
195
197
194
190
193
194
192
196
199
204
205
209
207
202
198
199
201
206
203
199
201
195
200
198
199
200
201
194
198
195
186
188
185
192
201
201
195
204
206
208
209
204
204
207
198
188
190
183
188
191
189
188
191
192
201
215
210
201
199
199
187
185
191
191
191
189
180
179
181
183
182
190
189
199
197
202
204
205
207
206
207
208
204
203
202
194
198
193
191
190
191
197
197
194
190
189
193
194
197
197
199
203
209
213
210
211
207
205
206
204
203
202
200
198
201
197
198
200
201
200
200
197
190
194
187
186
197
202
207
197
201
208
208
209
204
201
206
192
189
182
184
186
187
191
190
200
204
212
209
200
201
192
187
192
190
191
190
187
175
181
181
189
194
196
204
205
204
204
213
207
210
209
210
204
208
208
205
198
195
192
191
192
188
194
192
187
192
193
191
191
189
199
198
199
205
213
214
215
218
213
212
206
206
203
202
203
205
199
195
200
200
206
203
198
200
200
204
191
193
200
206
203
198
209
213
208
202
202
204
202
190
184
183
185
184
188
185
201
209
207
202
199
192
189
196
197
193
190
193
187
184
187
196
200
207
211
208
206
205
209
208
212
207
215
206
208
207
201
199
195
193
192
198
196
193
190
190
190
191
188
193
188
190
188
194
195
201
205
210
214
219
216
212
210
210
208
203
204
208
201
200
200
198
202
204
201
206
205
207
197
184
195
199
200
194
206
215
214
206
205
202
202
190
184
187
186
181
184
183
208
208
206
194
196
196
195
197
196
192
188
191
190
198
202
206
209
213
210
202
203
207
209
214
214
216
211
201
207
205
198
193
196
196
194
198
192
194
188
189
191
193
187
186
188
188
186
189
196
200
201
206
209
211
207
212
213
208
213
207
208
206
203
201
204
201
200
200
203
204
203
204
200
196
187
186
194
200
197
213
218
214
212
208
203
195
185
181
186
180
183
182
211
201
199
192
189
194
196
197
198
193
191
197
195
198
209
215
212
208
204
201
199
204
214
219
213
209
207
197
205
198
198
193
195
194
194
196
191
193
192
191
192
191
188
186
189
187
189
185
192
196
195
198
205
207
208
208
210
209
214
214
208
208
207
200
210
206
203
206
205
198
197
203
193
208
197
180
191
191
195
201
211
214
218
206
206
199
194
181
181
185
184
184
206
192
188
192
194
194
195
201
197
196
193
195
195
197
205
208
213
210
206
203
205
210
218
221
216
211
205
204
201
204
200
198
196
188
192
197
197
196
198
193
196
194
185
187
190
186
188
189
192
194
191
197
204
203
208
214
212
212
214
215
214
211
210
206
209
203
200
200
199
197
198
200
203
205
196
195
193
191
188
196
202
215
217
209
205
203
198
194
181
182
183
181
199
192
188
191
193
196
204
197
199
196
195
197
197
200
203
211
206
209
210
205
211
214
220
217
216
210
206
204
204
199
198
196
197
193
195
195
201
199
199
197
196
194
189
192
192
189
188
192
192
193
189
193
199
200
199
209
210
209
213
212
212
213
209
208
213
211
202
208
200
201
206
208
208
196
190
198
191
195
187
191
196
209
216
210
207
202
204
197
188
184
182
183
198
192
188
193
194
207
202
200
197
200
204
200
195
202
213
211
211
213
208
210
219
219
214
212
209
207
203
203
199
201
200
196
197
194
193
190
200
201
200
200
196
198
195
194
197
193
189
194
193
192
193
192
195
192
197
199
204
203
207
207
208
211
213
206
212
214
206
204
207
204
205
207
201
195
187
194
188
189
192
191
197
202
212
216
208
201
201
205
187
187
180
181
197
186
194
191
197
210
200
202
205
207
200
195
195
211
219
218
222
212
206
211
218
208
207
212
203
200
197
197
199
199
196
198
197
195
195
196
199
200
197
200
197
199
197
194
196
194
189
194
194
192
193
191
193
195
192
193
193
200
202
206
207
206
209
210
213
215
208
207
207
210
204
204
205
198
194
192
188
189
192
196
193
194
209
214
214
205
207
206
199
190
177
175
193
189
195
199
206
203
196
203
204
200
200
192
205
222
224
223
219
210
211
206
208
205
206
199
199
196
194
195
199
197
198
195
194
192
194
198
199
196
194
193
193
195
193
191
192
193
189
195
198
187
192
191
193
192
191
189
189
192
193
198
200
200
200
206
210
210
210
211
209
210
208
200
203
205
200
195
187
192
193
183
193
189
201
210
216
208
208
203
204
194
189
178
194
197
197
207
207
201
200
199
194
194
197
194
219
228
227
218
215
211
212
208
208
203
200
193
193
194
193
197
199
198
199
194
190
186
195
197
198
195
192
196
195
196
193
194
194
195
196
192
195
189
189
194
191
189
188
190
186
188
189
190
193
195
194
200
204
207
211
209
209
206
205
201
202
202
200
196
189
188
195
181
187
188
196
209
217
219
203
198
205
198
192
188
195
202
205
208
210
199
196
194
199
196
186
208
225
227
219
210
214
213
212
207
207
203
192
192
194
193
198
199
198
194
193
193
189
193
194
197
196
195
194
201
199
198
197
195
193
194
196
190
191
187
187
191
191
187
188
187
185
187
186
186
187
193
195
193
204
199
211
211
208
208
204
198
198
198
197
195
193
194
193
189
182
191
195
211
211
221
208
196
202
194
195
189
203
202
206
208
210
201
194
197
199
194
199
216
226
222
214
213
222
219
214
210
204
200
195
193
193
195
197
199
196
194
190
192
196
198
193
196
195
196
201
205
199
198
198
198
196
195
197
191
192
191
189
190
190
188
191
191
189
191
186
185
186
189
192
194
199
199
204
209
208
203
206
198
197
200
202
197
194
194
193
196
184
186
195
206
214
215
215
198
198
203
186
192
208
208
206
205
203
195
200
199
194
197
215
216
220
216
215
222
219
216
210
205
201
196
195
193
193
193
196
198
192
190
189
193
195
197
195
197
201
198
202
204
202
200
200
201
196
195
195
198
195
194
189
189
189
185
188
188
193
193
190
190
186
189
191
193
195
198
199
202
210
207
201
200
198
200
209
203
195
193
193
195
189
179
188
202
214
212
216
205
194
199
189
188
209
204
204
199
200
196
199
197
199
213
219
216
217
213
222
222
216
213
210
201
198
193
194
193
189
194
192
195
187
192
196
197
198
197
199
202
203
205
209
203
201
203
201
201
199
198
193
198
200
193
192
193
191
188
188
187
191
190
190
190
188
187
189
192
198
194
197
199
203
203
196
197
196
201
204
200
193
194
187
190
189
178
189
192
216
205
215
205
199
192
188
187
205
198
206
193
206
200
203
204
212
207
213
214
216
216
221
218
217
212
210
203
198
193
191
190
191
195
194
191
194
195
200
201
200
201
204
205
205
208
206
205
203
200
202
200
196
196
197
199
200
197
197
199
194
194
192
192
192
192
189
191
192
189
193
193
195
201
199
203
199
197
192
193
192
197
195
195
190
188
189
184
188
181
184
193
207
201
210
206
197
189
191
181
203
197
196
190
204
204
203
207
206
200
208
207
215
217
214
209
211
207
205
199
200
198
192
190
197
196
196
197
201
202
200
206
203
205
207
208
207
206
205
207
203
202
196
196
196
194
197
200
201
198
199
200
197
199
195
195
195
198
195
196
194
191
194
194
192
200
199
201
200
197
189
189
188
196
192
191
186
190
180
188
187
185
180
196
199
206
200
206
196
191
192
180
200
188
190
191
198
206
216
201
198
194
208
212
209
214
210
205
209
207
200
199
198
201
200
200
200
200
198
204
205
203
204
211
209
212
212
212
212
208
209
211
209
201
195
197
197
199
198
199
200
200
199
197
199
194
196
197
194
194
197
200
197
192
192
191
195
195
196
198
199
199
191
184
186
187
191
190
188
179
180
184
189
188
177
191
201
206
207
202
202
191
187
185
194
182
188
193
195
199
209
200
195
194
207
209
206
209
204
202
204
204
198
199
204
203
206
205
205
204
203
208
208
208
207
210
212
209
213
212
212
210
212
209
208
202
199
197
202
202
200
199
197
200
197
194
198
194
194
195
196
194
195
198
193
190
187
188
191
192
193
193
192
200
193
181
182
188
187
186
185
180
176
184
186
186
178
181
194
203
212
203
202
187
186
183
192
181
185
189
194
196
205
203
190
202
211
205
199
207
195
199
198
199
203
202
203
207
208
208
205
204
203
208
207
208
206
207
209
203
208
209
209
209
209
206
207
205
201
197
204
203
199
196
197
198
200
196
195
195
192
193
195
194
194
194
191
187
189
186
186
190
191
192
191
194
197
188
179
182
184
182
184
184
179
178
182
185
176
181
186
195
215
205
198
184
188
179
196
188
190
186
186
192
198
202
191
206
208
203
194
201
191
197
202
198
200
198
203
208
206
204
199
200
200
204
206
201
199
203
203
203
205
208
209
208
204
205
204
204
200
196
204
202
199
196
199
200
204
196
195
195
191
192
194
193
193
195
191
187
189
186
184
185
187
184
188
189
192
193
191
179
178
181
178
179
182
171
180
176
170
181
189
191
207
214
196
188
183
184
198
196
186
179
177
194
192
201
198
203
199
197
198
200
195
199
197
194
192
194
202
205
202
203
201
200
204
202
206
202
199
203
204
202
204
204
207
207
206
202
202
203
201
198
203
205
202
203
201
206
204
197
194
191
191
191
190
187
187
191
189
185
185
185
180
181
179
177
178
182
183
188
194
186
178
173
176
174
177
175
181
174
169
184
196
192
209
210
201
190
179
184
199
196
177
173
182
200
195
203
207
200
197
195
204
202
197
196
198
195
193
193
200
205
200
202
206
207
207
208
210
212
209
211
212
214
209
205
208
209
208
207
205
204
205
205
204
203
207
206
203
206
206
198
193
193
189
191
188
187
185
187
186
184
184
180
179
178
177
175
173
178
176
178
189
196
183
165
172
172
171
175
176
178
173
185
195
196
208
206
200
189
176
185
202
185
175
174
184
206
199
208
202
193
190
193
198
199
193
190
199
198
196
200
211
215
211
217
215
214
212
210
219
228
225
217
224
229
227
230
227
219
216
212
208
208
210
203
204
204
203
207
204
204
206
196
193
195
192
191
187
188
186
187
191
191
192
187
184
184
179
180
180
179
177
177
182
193
188
169
167
169
169
169
179
178
174
186
198
195
210
206
197
189
177
181
199
172
170
178
180
206
211
203
193
193
194
198
204
204
198
197
203
201
198
205
213
216
214
215
215
220
221
214
234
242
243
226
231
231
235
236
229
228
218
221
208
215
209
205
203
203
201
201
202
198
205
191
192
187
192
189
181
183
184
189
192
189
190
190
190
187
186
185
186
183
182
182
184
191
185
173
159
163
162
167
179
183
180
194
192
195
210
207
198
186
179
172
193
173
162
179
183
201
201
197
192
185
194
200
209
205
193
193
200
208
205
217
218
221
219
222
224
224
228
232
238
239
242
236
229
228
229
237
228
231
224
217
211
217
210
203
201
198
196
196
197
195
196
193
190
189
195
199
191
190
193
193
193
191
189
191
190
196
195
194
193
194
188
189
191
193
190
181
160
158
166
155
170
174
189
195
196
193
202
208
196
183
177
174
194
175
158
179
179
190
191
193
188
182
190
204
199
197
205
210
206
211
208
217
219
215
214
214
210
207
211
216
231
230
231
225
224
222
218
227
226
227
221
218
214
207
209
198
197
195
193
192
194
195
196
194
192
191
213
212
197
196
200
199
199
196
199
197
196
200
201
203
197
199
196
192
191
199
196
191
176
163
164
170
166
169
182
189
200
195
203
203
202
181
179
187
197
184
170
163
179
176
186
188
181
181
186
187
202
214
214
210
201
200
196
215
216
213
212
209
208
209
212
212
234
239
238
240
226
223
220
219
220
220
219
212
213
207
200
204
201
195
198
194
199
199
200
200
197
201
203
202
197
195
208
204
198
200
203
198
201
204
201
197
197
196
196
191
191
192
198
199
194
176
161
166
168
172
188
190
184
196
208
207
199
180
184
193
203
192
183
165
183
168
183
188
179
173
165
191
212
209
205
205
193
185
193
205
203
202
207
210
204
204
202
204
215
225
229
219
213
209
208
212
218
212
214
213
204
204
197
204
205
199
198
201
202
201
206
205
202
199
206
207
208
206
213
211
202
198
213
205
204
205
204
201
199
196
199
197
197
194
196
195
201
185
163
167
160
177
191
190
184
189
204
215
199
176
187
197
200
200
192
170
185
162
180
184
180
154
172
196
207
201
198
192
179
176
186
197
196
205
207
209
207
206
206
206
205
207
230
213
200
199
203
202
206
206
207
207
208
202
192
206
204
194
201
208
198
202
206
192
188
194
202
206
203
215
220
221
212
223
227
214
196
198
203
199
193
194
190
192
194
193
201
196
189
189
157
161
156
171
192
198
183
191
197
210
195
177
181
193
199
204
196
181
178
172
173
173
165
156
177
195
197
198
190
184
170
171
195
198
202
200
196
212
207
211
210
209
202
194
212
206
196
196
198
195
196
195
199
199
201
206
189
208
206
200
213
215
209
191
189
186
173
192
201
207
206
215
225
219
208
219
215
218
193
184
192
195
184
180
178
176
178
184
197
201
195
189
171
145
155
162
169
201
189
195
202
206
196
172
192
193
198
214
209
186
170
190
171
148
154
152
171
185
191
194
185
175
175
192
200
200
216
211
203
213
211
213
206
193
193
193
191
188
186
193
190
189
189
193
191
194
199
196
208
205
196
186
185
195
186
178
181
182
169
174
189
191
199
200
197
190
195
189
201
205
182
186
187
186
180
182
188
170
169
174
179
187
196
196
183
152
167
161
155
201
194
201
202
204
186
183
203
201
195
220
202
195
181
198
176
156
149
151
178
188
196
203
179
168
173
185
202
202
204
204
200
200
193
183
175
174
164
178
183
180
172
187
179
181
180
183
179
181
188
186
199
188
181
176
173
166
164
170
169
175
166
160
170
180
181
178
180
166
182
169
177
187
169
179
177
175
174
178
185
172
167
169
169
175
178
186
194
167
170
170
167
196
189
194
199
214
184
186
200
205
199
220
199
193
189
191
177
168
152
155
178
185
200
203
178
175
161
191
208
204
192
179
183
172
161
161
165
155
150
163
156
163
158
162
164
163
181
184
173
199
200
189
189
186
180
175
176
172
171
169
174
172
161
165
170
171
174
175
173
175
172
158
152
170
174
184
189
192
182
186
181
169
176
177
180
186
200
175
193
185
173
168
183
194
184
172
194
210
198
192
203
203
199
216
203
194
185
195
181
160
150
147
170
180
195
203
180
186
166
202
203
190
178
164
170
163
168
160
158
163
155
161
147
162
157
160
157
156
170
179
180
202
217
217
203
186
197
172
183
187
178
177
184
165
163
175
180
174
177
179
186
176
172
168
180
170
179
191
204
203
193
219
228
197
192
195
190
195
203
217
192
205
173
182
190
189
174
161
184
198
199
193
199
197
207
202
208
193
190
204
195
158
148
141
156
183
191
201
183
176
182
200
197
197
188
172
163
171
187
186
188
183
171
176
167
161
166
166
162
165
191
198
203
191
206
223
199
174
201
193
189
191
183
182
188
166
165
188
197
182
186
193
192
186
182
184
196
196
197
197
217
217
203
210
255
226
206
199
195
209
208
217
210
212
186
185
194
190
171
174
179
189
194
184
195
189
214
191
210
201
194
205
193
155
149
147
151
195
189
175
178
173
179
188
195
201
193
183
169
179
187
204
209
196
192
200
202
181
184
181
173
170
212
213
217
211
200
205
186
171
206
187
187
189
178
179
196
172
173
191
199
187
177
179
191
192
192
194
188
201
211
207
215
218
211
212
228
221
218
203
200
210
216
220
202
204
201
190
196
203
181
176
187
191
195
177
198
191
215
198
207
206
189
202
186
147
149
140
146
193
186
159
165
171
182
195
208
216
198
189
179
192
217
209
217
209
201
213
195
183
194
192
177
172
199
212
223
218
219
192
177
180
204
199
179
190
178
177
176
181
181
181
187
180
182
185
178
181
178
189
184
190
190
197
197
200
198
208
208
215
216
197
190
210
221
228
207
197
213
207
214
209
187
191
207
201
207
187
199
192
227
211
191
214
194
198
186
153
144
138
138
187
189
165
162
176
190
208
223
212
211
205
199
195
206
206
209
202
200
202
178
169
176
176
172
184
187
213
211
216
221
181
163
187
196
195
186
198
186
186
180
167
190
180
170
176
183
190
190
189
179
186
192
182
183
181
193
188
188
203
203
209
212
197
193
203
221
228
215
192
204
209
233
230
193
195
212
217
213
210
205
192
235
218
171
212
195
192
190
161
133
141
147
178
195
186
172
180
195
212
225
212
213
226
218
195
196
198
207
190
189
181
185
175
175
177
177
179
183
198
192
202
209
175
166
197
191
201
193
199
189
193
196
172
191
190
160
175
191
194
201
203
186
191
197
187
191
181
200
196
193
196
192
208
207
198
194
191
202
211
223
190
192
199
238
239
203
192
215
228
220
221
214
192
232
205
173
203
191
189
187
168
129
144
157
175
193
208
188
178
192
205
216
197
204
216
215
198
190
194
187
189
190
188
190
195
184
179
183
181
190
196
191
196
196
171
180
209
200
208
203
209
196
195
197
192
183
192
169
182
190
202
199
200
185
182
188
175
194
183
186
198
186
199
201
191
201
186
184
187
194
201
219
194
190
199
232
238
209
192
196
225
227
208
224
195
217
204
184
208
202
186
191
182
127
150
167
180
191
214
199
167
195
202
215
204
209
221
208
206
193
196
193
190
189
184
188
183
189
186
178
181
186
186
181
188
179
168
190
200
207
214
217
213
200
198
197
200
179
197
185
186
188
199
197
195
196
179
180
173
175
197
171
186
181
179
190
190
192
189
181
186
193
199
215
207
189
209
236
232
189
180
195
231
229
200
215
197
215
205
185
198
205
190
188
200
134
157
174
183
196
219
203
181
198
210
208
212
211
217
217
215
217
206
197
191
193
179
191
177
193
186
176
191
186
174
177
175
171
179
198
192
207
213
211
218
201
200
209
204
185
189
187
190
194
194
192
190
196
181
169
170
158
172
165
168
177
182
174
182
189
189
184
183
185
196
212
209
193
217
229
225
183
182
202
239
230
197
202
200
217
200
178
184
191
193
175
202
156
155
179
190
208
228
202
199
212
220
212
208
202
197
196
202
198
201
185
186
194
177
180
175
179
181
173
189
189
180
188
169
171
187
198
199
212
209
204
208
198
195
199
199
193
180
198
186
187
192
195
192
193
180
172
171
162
171
169
177
179
185
183
183
184
190
192
193
191
199
205
202
195
223
220
212
181
188
209
238
230
195
197
202
211
198
178
178
186
176
177
187
174
147
184
198
214
224
211
194
217
212
210
202
196
193
195
196
188
188
178
186
194
184
178
177
181
180
173
183
188
193
185
171
169
195
197
208
210
206
207
203
202
193
199
195
195
197
177
186
185
182
197
194
193
183
174
180
182
188
186
185
182
183
187
185
185
187
191
198
198
204
201
202
196
229
223
214
178
187
213
224
224
195
201
194
206
192
185
181
188
168
175
175
172
163
172
200
213
212
213
186
213
218
219
212
203
203
196
193
188
181
185
182
194
189
196
190
185
180
176
185
188
185
176
157
172
189
198
210
209
207
212
204
212
200
206
197
196
204
195
183
188
186
189
196
193
189
181
180
183
188
186
190
185
184
185
187
189
186
183
194
200
216
201
203
196
225
231
218
184
196
202
219
221
200
210
182
204
185
192
196
192
182
173
163
169
177
178
186
220
216
219
210
204
227
228
227
224
220
213
211
202
199
199
191
198
202
202
195
192
181
177
186
188
181
169
164
176
189
204
209
202
203
205
208
216
206
210
207
202
208
211
201
181
195
190
185
187
193
189
191
188
189
186
187
186
184
187
185
194
195
195
195
198
209
198
203
198
224
223
214
209
190
199
213
221
215
206
181
199
193
195
201
199
194
176
174
182
181
185
196
204
223
223
231
192
231
237
234
233
234
223
226
219
211
210
200
200
200
193
192
190
185
182
187
189
198
168
180
183
199
212
205
200
204
202
215
221
210
207
211
210
215
217
220
200
187
202
197
191
191
191
197
198
198
197
196
193
192
196
190
203
194
196
190
194
206
202
195
205
222
219
203
191
189
202
212
225
235
198
177
195
202
194
192
199
186
183
180
182
182
179
194
216
211
223
238
212
214
238
233
232
233
229
227
228
222
211
202
199
197
200
194
191
186
183
178
190
178
179
179
188
207
216
203
198
201
202
204
216
216
207
209
210
208
213
224
217
195
189
202
193
198
203
198
199
194
195
190
187
192
194
193
194
189
187
189
192
200
204
195
210
221
226
189
188
199
209
210
222
234
196
177
195
204
198
181
199
192
190
180
178
181
184
186
214
223
218
234
230
214
224
237
230
226
223
220
218
211
197
200
198
195
196
193
193
186
183
186
184
185
188
180
193
207
216
207
198
195
199
203
207
211
200
204
210
209
213
212
213
198
200
188
195
186
196
205
201
196
196
199
197
197
193
199
191
194
191
195
196
195
198
205
205
229
224
191
187
205
209
211
216
219
196
176
209
201
201
176
205
208
208
191
173
170
181
189
208
220
218
216
220
202
219
215
208
206
211
211
210
209
197
194
196
191
188
184
182
174
184
184
183
187
198
197
199
205
215
210
201
194
193
198
206
201
198
192
210
209
206
207
205
196
202
202
194
175
181
196
195
201
197
203
206
202
197
195
194
197
196
198
198
178
200
203
200
213
228
192
185
210
213
215
215
213
183
178
222
194
194
188
210
214
211
202
176
162
175
187
205
219
217
218
224
216
216
224
215
208
208
208
204
199
199
191
190
185
178
177
180
185
189
175
180
197
204
207
206
207
213
208
204
199
190
196
205
201
195
193
199
210
200
196
197
194
195
199
201
180
182
187
195
195
192
192
194
192
195
188
188
189
191
191
181
182
206
204
204
214
220
190
186
214
230
219
213
210
180
178
222
189
192
194
208
202
209
204
178
166
164
183
197
211
215
222
223
224
217
229
220
217
215
214
210
201
203
198
191
181
177
173
182
190
183
166
189
207
210
206
204
207
211
200
198
195
194
196
197
201
197
201
209
205
203
198
193
191
188
193
203
175
183
187
186
187
186
192
189
188
194
185
185
185
191
184
183
190
198
208
205
221
206
184
184
215
242
219
210
211
180
181
222
186
191
196
204
189
200
204
181
169
164
174
192
209
213
214
219
223
225
227
223
224
225
222
216
209
208
206
199
192
186
179
178
184
180
178
199
210
211
199
195
196
201
185
196
197
196
201
196
193
201
205
211
213
218
211
202
200
200
195
206
179
178
187
184
180
180
187
190
192
201
191
188
186
189
188
187
191
188
204
206
220
203
176
187
214
245
224
202
211
192
181
220
203
182
202
206
177
191
200
191
167
167
167
182
205
209
208
214
220
221
226
228
224
222
224
222
213
210
211
203
195
191
175
178
188
192
192
198
210
209
199
197
202
212
198
201
206
203
207
198
185
195
205
205
218
228
218
210
207
215
197
196
182
180
190
189
186
190
190
194
195
200
196
192
190
180
188
188
187
187
201
208
211
210
181
198
237
243
237
200
208
193
185
228
209
179
196
213
186
186
191
193
174
170
163
173
201
207
207
211
215
218
223
230
230
223
219
214
209
205
199
192
189
188
187
194
202
207
206
203
211
213
205
204
210
221
205
205
210
211
220
216
199
202
201
211
220
222
223
208
201
208
197
202
188
185
191
194
191
197
198
200
198
198
195
190
190
192
184
184
186
192
199
208
207
203
189
204
239
246
245
203
212
193
182
227
216
186
183
214
200
190
187
183
176
165
170
163
198
205
207
210
211
215
222
227
230
224
220
219
218
208
204
199
193
193
199
201
211
214
207
207
215
213
217
211
200
199
182
192
212
211
217
208
193
201
206
209
218
201
190
195
200
208
204
195
191
184
183
187
187
192
198
197
198
194
186
192
197
198
194
182
185
199
199
208
202
199
197
213
224
244
241
212
200
184
173
214
218
203
176
203
210
196
197
185
176
164
174
158
190
202
205
203
206
214
221
222
229
224
215
211
214
214
212
203
200
204
202
201
211
215
208
212
221
222
221
218
210
200
182
191
201
211
209
202
200
202
213
209
204
189
174
182
193
199
210
201
197
189
185
181
186
192
193
196
198
198
193
194
196
198
197
194
186
203
200
200
200
191
201
215
221
239
241
216
189
175
174
198
217
213
196
192
216
203
206
203
185
181
177
160
183
198
198
201
204
216
217
219
221
216
207
214
212
213
213
203
205
207
200
198
205
212
210
217
225
232
231
231
215
204
196
213
206
196
201
202
206
196
208
214
195
192
181
180
187
194
206
198
200
191
184
181
185
190
197
194
197
199
196
195
199
199
203
202
195
202
196
197
198
184
199
215
226
233
239
215
180
177
174
197
202
211
217
188
208
214
208
205
185
191
186
167
190
194
194
201
207
212
216
216
212
199
212
212
202
202
208
206
209
203
195
195
199
207
206
211
220
225
228
228
214
208
210
215
206
200
194
207
208
194
198
210
202
200
196
191
196
193
196
193
198
187
184
179
180
186
195
188
193
200
199
196
199
199
203
205
199
198
195
200
198
188
198
218
229
226
228
210
185
178
174
193
192
192
203
196
203
218
206
206
181
195
184
175
198
197
190
202
210
213
213
210
199
205
212
203
196
199
202
200
202
195
198
192
199
207
205
211
209
220
224
219
211
220
224
223
213
206
197
203
200
196
188
194
194
190
196
192
200
194
194
186
193
193
184
183
181
184
189
190
193
195
199
197
201
200
202
203
201
195
197
205
203
192
215
229
225
213
217
206
189
174
181
199
197
189
182
194
203
219
205
207
185
189
184
180
199
201
184
199
210
212
213
208
198
213
207
198
197
195
197
193
194
191
197
197
203
204
208
212
207
216
210
218
208
215
219
223
214
205
194
196
187
183
187
186
192
186
194
192
199
198
198
191
196
191
186
183
179
182
183
189
194
191
199
198
201
199
200
201
203
194
202
210
209
204
220
233
221
208
217
206
186
170
188
213
211
196
180
178
192
196
207
212
193
175
181
183
197
210
187
196
207
209
209
206
202
211
203
198
194
193
192
188
188
195
204
209
212
205
208
207
209
200
195
201
211
208
201
211
201
193
186
185
174
162
163
175
179
180
181
189
196
196
197
194
193
196
191
188
174
181
181
187
191
191
199
198
202
201
203
199
197
198
204
209
205
200
209
218
215
211
215
200
184
174
186
216
213
205
181
176
184
173
195
208
205
169
180
192
192
205
189
196
205
208
212
207
203
208
201
194
195
191
189
193
192
204
212
216
217
217
204
201
201
197
194
196
198
200
198
195
189
178
175
172
166
164
164
162
171
165
175
182
184
192
196
187
194
199
196
191
181
175
179
184
187
188
197
197
200
200
209
200
196
200
208
203
187
185
201
220
206
220
208
195
179
179
188
216
213
209
193
172
189
167
182
192
195
179
187
202
195
199
192
196
204
209
211
211
205
205
199
197
195
191
189
192
202
211
222
226
227
220
202
205
194
202
189
194
190
186
190
187
182
175
170
170
167
167
170
164
166
169
184
188
184
185
192
185
191
195
196
194
187
178
177
184
186
184
198
194
199
199
209
207
195
203
209
193
180
182
206
216
209
221
199
190
175
186
193
208
210
213
192
171
185
174
168
195
187
182
189
199
200
195
197
189
196
204
210
213
203
202
206
203
196
193
189
196
209
220
226
232
232
217
209
212
199
201
190
191
192
192
189
196
193
187
187
183
182
181
179
180
183
181
189
196
196
194
195
193
194
193
193
190
184
185
181
181
187
185
195
194
199
200
207
212
204
210
208
188
181
187
210
213
213
214
194
188
174
189
195
211
209
212
194
175
175
178
161
188
192
184
184
197
195
194
199
187
192
199
207
211
204
209
204
205
197
195
194
202
211
220
225
229
222
217
211
215
201
199
196
204
203
202
200
202
206
203
205
194
199
199
199
199
197
195
198
202
207
207
205
205
203
200
199
191
188
189
192
180
188
190
192
198
203
202
206
217
212
218
210
193
188
194
213
215
212
202
193
186
181
188
199
217
211
214
194
181
174
175
164
174
192
187
180
191
192
198
197
185
185
197
205
208
209
213
207
207
200
199
204
209
211
217
223
224
212
212
208
206
204
204
209
214
213
209
203
205
206
206
209
206
210
203
201
207
204
207
204
211
214
213
211
211
212
201
209
201
192
194
204
190
192
194
195
199
207
201
209
213
215
221
208
196
193
195
212
214
213
192
195
190
182
186
199
219
218
218
201
183
169
175
168
178
180
186
178
182
192
195
192
187
183
193
200
205
215
207
211
207
213
212
215
215
222
221
224
220
214
214
212
211
223
226
227
218
222
219
205
202
204
211
203
196
202
198
197
202
203
196
191
196
209
211
209
208
204
199
208
207
203
200
207
201
195
200
203
201
204
200
214
204
215
215
202
199
193
198
210
213
199
193
200
193
179
187
201
210
220
225
211
190
167
178
182
185
179
169
172
174
185
189
194
190
183
195
200
206
214
208
211
215
233
227
230
222
228
225
226
222
219
220
220
218
225
227
230
223
227
229
218
207
208
220
199
186
195
193
197
196
193
193
179
184
210
193
200
201
198
199
207
208
207
207
210
204
203
198
206
208
202
198
207
207
217
211
212
205
189
200
204
202
194
200
199
187
183
189
204
205
214
228
220
202
183
186
192
190
183
160
160
167
176
184
193
191
188
194
202
208
208
214
212
214
224
232
234
227
227
225
223
220
219
223
229
222
214
215
236
229
231
241
228
208
209
218
192
179
191
189
197
192
192
193
173
191
194
175
178
191
199
204
206
207
211
212
209
206
205
206
205
210
205
198
200
209
216
207
219
210
198
190
203
198
203
203
196
184
184
193
205
206
210
218
222
207
189
185
188
192
185
164
152
157
163
180
190
190
189
195
211
208
208
207
212
209
212
219
226
223
228
229
229
226
229
230
234
233
223
214
233
231
225
228
222
205
199
214
197
183
189
189
200
189
190
188
181
174
186
176
176
186
204
210
203
207
212
203
194
207
203
210
207
209
206
199
201
210
212
206
228
210
203
196
207
206
205
203
190
184
185
192
203
202
207
210
218
209
194
183
185
192
186
172
155
149
149
171
178
184
181
193
212
215
205
199
200
207
208
214
220
212
216
222
227
222
232
225
221
231
226
220
221
216
224
217
209
201
199
219
212
198
194
192
192
191
182
183
187
177
180
184
184
198
211
204
197
202
199
194
188
200
203
210
205
204
205
204
198
209
210
210
226
204
202
209
212
210
204
202
181
189
186
196
205
208
204
209
212
209
199
183
177
190
187
179
157
152
158
167
176
181
184
188
211
212
206
201
200
204
202
214
209
215
214
214
217
218
213
207
200
214
223
207
214
204
213
207
203
196
209
225
219
211
210
202
194
203
188
185
182
180
188
198
187
195
202
192
189
198
200
193
189
197
198
208
202
198
197
202
200
211
208
212
216
201
209
209
215
212
208
192
181
187
187
199
205
215
210
207
211
208
198
179
184
190
186
184
161
156
155
171
181
185
191
188
205
210
207
207
206
208
205
215
207
209
209
212
211
216
197
197
194
202
208
198
201
205
205
198
204
197
208
214
213
208
204
188
185
189
183
182
178
176
181
191
178
183
192
186
188
194
202
187
189
192
194
202
204
195
194
197
202
210
215
211
208
203
210
215
211
211
205
185
183
186
187
200
204
217
215
211
211
210
202
183
202
179
185
182
169
157
151
165
182
181
194
191
200
209
209
212
214
212
213
220
207
207
199
211
214
206
189
189
186
192
198
195
200
201
200
200
200
198
203
197
196
188
185
173
178
176
176
187
182
174
172
181
179
186
186
183
190
187
193
182
183
187
193
193
199
188
191
191
205
214
209
213
202
205
211
215
210
211
201
183
185
189
189
196
200
213
214
213
212
209
208
206
206
175
173
181
175
156
155
165
180
177
188
187
206
208
212
217
215
217
213
228
215
205
197
217
211
206
191
186
186
182
191
188
189
197
202
189
183
186
188
187
184
183
183
176
180
180
181
187
178
169
171
177
180
186
185
189
187
183
191
181
179
181
186
193
189
186
191
194
204
217
205
209
205
206
216
213
209
207
189
182
183
192
191
197
203
207
208
210
208
198
228
220
206
183
166
178
175
162
158
160
185
176
178
187
197
204
206
217
215
220
214
223
213
205
198
201
198
182
186
182
184
184
183
184
188
194
202
186
181
184
177
185
182
174
177
176
182
177
177
172
168
166
168
173
177
183
184
189
187
179
189
185
180
178
187
187
190
186
191
194
211
209
192
204
199
208
209
206
204
191
177
178
178
184
184
197
210
196
198
204
199
207
234
228
210
195
177
179
177
172
164
157
180
172
174
184
183
203
201
209
214
221
216
224
208
199
204
201
200
193
190
184
186
189
186
185
186
186
189
187
183
180
177
182
182
179
178
177
181
177
180
170
171
172
174
179
183
184
184
187
183
184
187
185
184
185
189
184
194
192
197
200
216
202
190
195
200
209
214
204
194
176
176
174
173
174
179
195
203
199
202
199
201
227
232
230
223
208
183
175
186
177
179
166
167
168
164
181
177
199
207
198
207
219
207
223
214
199
205
207
204
201
195
185
185
189
193
195
191
192
189
190
186
184
181
184
183
185
182
177
183
175
182
175
175
179
188
183
185
186
184
184
179
188
194
186
183
191
187
186
191
199
196
210
209
196
194
191
199
212
210
204
178
172
176
177
172
173
183
195
200
197
199
199
227
231
230
227
229
212
196
173
186
183
183
175
168
163
158
171
176
192
209
202
196
214
210
217
209
206
206
200
204
208
197
191
185
190
193
191
196
194
195
196
191
190
188
180
181
178
173
171
172
170
172
177
179
182
192
188
187
193
190
188
185
193
198
188
183
196
186
190
195
206
203
202
200
199
194
189
202
205
205
199
171
175
173
175
173
174
187
196
197
198
199
214
237
238
229
230
232
217
204
181
186
183
186
177
177
158
162
171
177
190
202
209
197
204
209
215
214
204
211
198
190
209
196
197
198
194
192
194
195
199
193
200
191
189
180
174
168
170
168
171
173
171
175
180
177
186
189
193
195
195
198
191
199
190
196
184
190
194
188
189
198
211
207
187
203
207
186
192
205
201
194
204
178
173
173
174
173
175
186
199
195
195
212
229
235
236
230
231
238
215
213
187
181
186
187
181
176
166
168
173
177
191
199
207
208
195
210
209
212
208
214
203
195
210
201
201
195
195
194
199
193
200
196
204
197
190
186
180
175
177
179
176
176
179
175
178
178
194
192
199
195
198
198
194
197
193
191
186
192
190
185
194
200
211
195
183
209
216
183
194
205
196
185
201
199
173
174
175
178
178
185
194
195
203
226
232
236
235
225
229
239
220
218
189
175
191
190
182
176
163
172
172
179
190
199
202
210
202
203
200
212
203
209
201
205
209
209
202
195
194
194
199
196
206
202
198
201
200
191
192
187
185
189
189
187
188
192
189
192
197
194
195
198
198
195
195
198
195
193
187
195
190
194
191
201
208
182
191
213
216
185
200
200
189
177
196
202
190
174
177
179
178
183
189
202
221
224
235
238
234
225
229
238
222
214
200
170
190
196
181
175
165
174
180
180
187
192
199
207
204
202
189
207
197
201
194
203
202
214
205
201
199
194
198
200
207
201
201
203
200
189
190
195
189
189
187
187
190
192
193
191
199
193
193
199
196
193
199
201
193
195
188
197
196
195
197
195
206
180
193
214
211
197
200
195
178
177
196
199
204
187
175
181
176
179
196
204
218
225
234
237
234
228
231
239
220
211
210
176
184
198
176
180
171
178
182
181
189
194
201
201
204
205
193
198
191
196
194
196
199
206
201
195
194
188
196
197
200
197
201
203
198
192
191
197
194
191
185
193
189
191
190
192
194
192
194
196
194
195
196
206
196
198
198
197
195
192
193
197
198
183
192
213
210
199
199
178
171
181
197
199
202
204
180
174
175
186
199
203
218
228
234
237
231
228
235
243
215
213
218
177
179
189
181
184
181
183
187
184
179
193
197
199
201
201
198
198
191
191
193
192
192
197
195
192
188
186
189
192
192
190
197
199
197
194
193
193
192
186
188
194
191
193
193
196
194
194
194
193
197
200
199
202
198
200
205
202
197
190
193
197
200
187
202
224
211
192
196
172
175
185
198
196
204
204
200
175
177
190
198
202
223
231
234
237
231
237
238
234
214
207
214
180
177
186
183
190
187
190
194
184
180
190
193
196
201
199
199
203
190
192
196
193
187
194
189
186
190
189
183
189
191
190
191
194
192
190
188
190
193
186
190
190
187
197
196
195
196
196
198
199
200
199
202
201
204
201
207
204
195
191
201
197
199
186
213
232
212
189
186
173
174
185
201
199
204
204
207
195
177
191
197
200
230
237
240
241
236
242
236
230
212
208
202
181
175
182
179
193
196
201
202
183
190
194
193
187
201
197
200
200
198
195
197
195
180
192
191
187
190
187
186
193
193
190
190
193
191
183
188
192
196
189
192
190
188
199
196
201
203
198
200
205
204
201
204
206
212
206
206
202
196
191
203
193
190
188
227
243
204
191
176
167
177
183
203
203
199
203
203
199
193
187
198
200
231
234
241
239
240
240
230
227
209
205
197
171
181
177
173
192
195
212
197
192
201
202
200
189
189
199
197
204
201
204
197
194
191
191
191
187
187
185
190
193
196
196
185
193
196
186
189
192
197
197
193
193
197
203
202
206
208
207
203
204
207
199
206
217
214
207
205
205
198
198
194
182
191
205
230
244
206
190
173
165
180
180
202
200
196
201
204
201
207
198
198
201
230
235
241
234
237
229
230
222
213
204
195
170
169
172
170
181
196
210
202
207
203
209
208
190
181
192
197
201
206
203
197
198
195
196
196
195
183
189
191
191
200
191
187
196
198
190
190
194
196
203
197
202
204
210
203
209
207
205
203
204
205
207
210
216
210
205
202
208
198
199
191
182
208
216
225
250
208
182
165
167
181
181
199
197
192
198
203
205
204
215
212
207
231
234
235
229
232
226
233
220
217
207
191
174
154
157
175
174
198
207
208
204
207
213
215
202
186
196
190
202
205
204
197
198
202
196
199
198
190
202
190
192
200
198
190
205
197
196
197
200
199
202
205
203
207
206
208
207
211
202
205
208
211
210
213
213
207
202
203
212
195
206
197
193
206
209
217
249
215
171
158
167
184
183
195
196
193
196
205
209
203
216
219
214
229
231
229
231
233
226
236
218
215
204
189
169
152
153
165
178
194
202
207
199
218
217
225
217
206
208
187
206
201
208
204
195
201
201
200
201
199
208
201
191
192
202
192
205
202
198
198
202
201
204
204
200
212
206
211
209
211
206
210
212
214
213
207
209
201
203
201
209
206
208
200
196
203
209
215
248
214
170
156
165
180
185
191
196
192
192
199
211
207
212
221
213
227
230
234
232
234
227
232
217
216
202
192
160
161
155
145
178
189
201
197
196
219
221
234
227
222
205
205
204
201
201
201
199
201
203
206
206
212
210
204
191
188
196
198
203
203
195
198
202
200
202
201
204
211
209
213
209
209
214
211
217
216
210
202
202
203
206
201
206
213
205
202
186
194
221
218
249
205
174
160
166
179
180
189
191
200
191
196
207
209
214
217
219
223
225
225
224
228
223
223
209
212
200
193
158
166
151
149
172
174
195
193
193
208
224
241
242
227
220
220
210
210
198
197
200
207
211
209
213
212
205
203
195
191
195
194
202
199
194
197
204
206
200
208
204
207
205
212
207
209
215
211
218
210
205
201
199
204
205
199
210
208
203
196
188
203
215
218
235
188
168
168
168
184
173
180
192
198
192
192
204
208
224
212
222
218
222
217
222
228
219
219
202
198
204
199
164
162
158
159
165
165
182
192
191
205
223
241
248
235
234
224
217
214
201
203
204
202
207
205
217
206
201
211
204
198
200
199
196
199
197
202
207
209
210
207
206
204
212
216
212
209
212
211
207
207
200
199
202
207
199
192
209
203
196
189
194
205
217
222
215
170
170
174
172
187
176
176
193
189
191
187
191
196
217
215
221
222
223
218
228
230
223
219
202
201
206
190
164
164
164
163
163
157
179
187
193
204
220
236
245
241
242
229
225
215
205
208
203
203
203
203
212
205
206
216
208
205
207
204
200
204
201
211
207
209
208
206
208
208
212
216
210
204
210
206
203
203
197
197
203
197
198
192
208
201
193
193
196
209
213
222
196
163
159
186
180
189
173
174
190
187
193
190
186
195
209
214
211
219
215
204
220
221
213
208
203
203
203
178
159
171
173
166
161
154
168
175
191
202
217
233
239
242
245
237
228
223
211
211
211
210
205
210
205
201
204
218
211
208
214
207
210
209
208
214
211
201
207
208
205
210
211
206
203
202
197
200
199
200
197
194
193
193
191
184
199
200
197
202
207
212
219
211
192
154
149
179
192
195
177
166
181
185
195
195
186
190
211
218
209
217
210
206
216
219
210
198
192
200
197
174
159
176
181
162
158
150
162
162
183
198
208
232
235
229
234
241
227
231
219
218
214
216
216
208
199
203
204
209
212
210
216
214
213
216
217
210
209
204
205
205
207
208
204
195
198
195
195
199
199
198
195
185
187
184
181
189
192
203
200
205
207
216
214
205
193
145
143
172
189
193
175
162
174
188
196
199
184
184
211
220
213
209
204
208
217
220
207
193
190
196
189
176
164
178
169
162
160
154
157
164
173
194
205
223
229
225
223
233
224
235
223
226
224
228
218
216
208
201
204
207
212
210
219
213
219
221
216
214
210
208
206
207
205
201
195
189
192
196
196
198
195
192
185
180
179
179
179
189
192
202
207
207
203
219
202
203
192
138
148
164
179
186
179
165
172
189
192
196
190
188
208
217
220
206
197
198
204
213
207
198
189
183
189
184
167
177
167
159
172
160
151
170
167
180
199
225
219
222
222
231
227
230
229
226
235
232
221
218
215
210
210
212
214
212
211
220
218
213
213
214
213
209
209
209
204
200
198
192
195
199
194
196
187
181
180
175
176
179
176
188
197
201
215
205
201
216
204
195
189
135
153
154
175
174
182
170
179
178
185
193
192
191
203
208
215
