P2
# Face with average contibution
92 112
255
209
209
208
209
208
206
206
204
206
206
210
210
213
204
210
211
211
208
204
208
203
197
189
191
187
187
191
197
210
226
225
220
215
214
216
212
210
198
203
203
207
212
202
199
196
194
187
202
200
194
190
190
204
212
202
205
208
203
196
201
193
198
193
187
183
186
194
196
198
196
195
202
208
209
217
205
206
201
201
206
205
202
201
201
203
203
202
204
203
201
201
206
209
209
207
208
207
204
205
201
208
206
202
209
205
202
207
208
205
202
198
204
200
191
182
187
190
203
205
210
215
215
207
207
207
204
206
206
208
206
207
213
216
206
209
206
196
189
186
192
192
196
196
185
190
204
199
197
199
203
201
189
198
195
197
187
179
186
192
180
183
186
190
193
203
204
217
213
205
199
204
204
204
199
204
201
204
202
203
203
203
203
203
202
210
207
208
207
204
206
208
209
206
207
204
209
201
206
206
200
197
197
192
196
189
190
191
194
199
203
203
205
203
200
197
204
196
195
203
213
215
218
212
212
212
201
204
208
208
193
189
183
181
194
198
200
195
198
193
188
189
187
192
194
193
196
197
193
192
191
193
189
186
182
181
184
191
202
207
211
212
206
203
202
207
201
199
201
202
204
203
204
204
205
202
200
214
209
208
208
208
210
210
209
209
205
210
212
200
205
198
197
198
195
200
191
191
195
192
187
193
193
189
195
197
187
187
191
192
196
202
211
210
217
209
210
207
203
194
202
205
199
191
182
183
190
194
205
201
198
202
195
187
184
180
190
201
189
200
206
203
203
195
198
193
185
187
179
182
192
206
209
213
206
210
210
207
205
202
203
204
203
200
202
206
205
204
200
211
209
207
206
211
210
213
210
209
211
210
212
199
202
202
199
198
196
198
189
191
193
187
176
180
179
183
186
180
179
186
188
199
196
195
205
206
209
202
198
204
208
193
195
204
202
197
196
193
196
196
204
202
194
197
198
191
183
188
193
196
193
194
206
207
213
212
203
194
189
183
187
191
188
188
210
213
209
210
212
207
205
203
202
202
204
201
202
206
205
204
202
213
209
209
208
214
214
214
210
207
205
201
202
199
195
195
194
198
200
196
197
194
191
176
168
161
175
185
187
178
183
189
191
197
199
198
204
208
212
205
194
195
202
193
189
197
202
198
203
197
190
196
199
196
200
202
191
189
194
199
197
203
191
197
200
199
213
226
213
201
196
193
193
196
193
193
199
205
212
214
222
211
200
204
202
201
203
200
202
205
206
202
206
210
211
210
211
212
213
211
198
201
204
203
195
190
184
197
195
194
199
194
197
199
184
173
164
168
175
186
192
186
191
200
201
198
199
199
200
207
210
210
206
199
201
205
195
191
198
195
200
207
195
200
201
205
198
200
197
193
191
205
204
207
199
208
192
190
203
208
212
212
201
203
207
204
193
193
194
203
208
211
220
215
209
204
207
202
200
202
204
203
207
203
204
211
215
212
214
212
207
205
201
202
204
199
187
177
184
190
198
193
195
192
190
189
187
173
165
177
181
187
190
192
194
199
197
196
197
201
199
204
201
205
201
195
195
195
194
184
190
186
190
196
201
202
198
202
204
202
200
201
199
194
204
216
205
206
201
199
186
201
203
216
212
210
210
219
208
200
190
195
202
200
214
219
211
209
204
203
204
202
197
204
204
201
208
211
210
211
210
205
204
207
204
197
195
187
176
177
183
191
205
202
192
179
175
184
181
176
180
185
186
181
190
189
186
185
188
191
196
196
196
196
195
203
198
193
191
191
199
191
189
186
180
198
202
214
203
195
203
201
203
209
202
194
198
205
209
201
207
199
194
191
201
204
214
215
218
215
223
196
195
189
194
210
205
199
211
213
208
206
199
199
192
200
202
205
207
210
208
202
206
200
204
202
204
195
188
179
179
189
189
194
205
192
178
176
174
170
169
178
179
185
181
185
191
187
185
191
190
194
188
185
187
186
188
187
198
192
194
190
192
186
190
195
191
200
207
214
209
202
202
205
200
206
206
199
201
201
211
204
205
198
207
196
207
195
200
210
222
216
223
213
195
190
189
199
205
200
198
209
212
208
207
204
196
202
202
208
203
209
204
198
199
201
201
199
203
184
182
179
185
203
203
202
198
188
184
171
173
169
172
180
173
176
181
183
184
187
189
194
189
190
188
183
189
182
191
191
197
208
202
202
196
190
192
194
206
208
213
216
215
209
210
206
206
207
213
207
200
199
205
198
204
202
201
201
200
199
197
202
212
220
219
213
215
192
190
191
201
200
200
206
204
215
210
209
200
201
204
206
204
203
197
193
197
201
195
196
192
180
190
199
210
210
212
202
187
185
179
173
170
175
185
188
187
173
173
171
177
190
189
190
189
188
197
197
193
193
202
201
196
195
199
201
196
197
198
205
208
200
200
216
214
214
216
206
211
208
212
213
212
201
197
197
199
200
195
201
190
197
198
195
199
206
210
217
212
209
195
192
203
203
200
205
199
213
218
207
202
202
198
205
205
197
195
199
198
199
193
188
183
177
190
214
212
208
203
190
183
182
177
176
174
177
187
197
193
187
184
187
189
193
198
194
195
199
199
198
197
200
204
213
209
203
198
197
194
195
193
204
205
206
204
213
214
205
218
222
210
208
201
200
205
216
206
208
198
203
199
194
181
182
193
192
201
200
206
215
205
208
197
199
195
199
201
201
194
198
217
210
203
203
192
200
203
196
199
205
201
201
185
183
185
188
200
209
208
213
202
182
186
179
174
177
183
193
188
195
194
192
200
194
197
195
193
197
195
198
194
193
193
199
197
201
204
198
202
200
195
200
201
203
204
211
214
214
223
214
206
220
216
210
201
202
201
202
209
213
210
210
204
186
186
183
189
191
193
201
192
204
210
208
210
201
204
197
195
202
200
188
206
220
206
203
200
193
195
195
203
204
205
199
185
190
188
196
207
207
213
205
190
180
182
184
176
183
189
189
191
199
198
200
199
187
185
184
186
191
189
195
189
193
193
196
187
193
204
196
205
201
201
202
199
199
202
202
209
209
220
223
220
219
219
209
201
203
198
206
210
210
211
210
208
190
195
194
183
183
191
193
197
188
203
206
211
214
210
203
198
206
203
196
190
213
213
203
203
195
191
195
206
199
203
195
186
192
197
204
205
211
209
197
184
179
185
189
185
188
198
197
197
191
189
186
182
180
179
180
183
184
182
185
191
189
195
197
186
195
204
200
208
205
203
205
205
206
206
205
214
208
210
216
215
223
215
213
209
208
204
204
213
219
213
216
213
204
201
198
190
182
191
189
197
196
192
204
198
209
218
201
194
205
205
196
178
197
213
204
198
194
185
195
208
195
198
195
193
204
206
200
208
220
204
193
179
174
182
195
198
209
206
197
195
181
188
196
187
185
190
184
180
178
180
183
183
191
202
205
196
205
215
214
204
213
210
205
208
207
208
207
214
210
208
213
217
219
215
218
217
209
209
210
223
220
224
217
215
211
205
200
198
193
196
198
195
187
190
202
200
203
214
212
200
201
206
194
185
182
206
205
206
193
190
199
209
196
192
195
205
209
201
207
210
211
197
186
178
184
189
200
212
208
207
190
182
184
202
200
198
195
194
189
181
187
184
184
186
193
208
203
206
205
215
218
213
210
209
208
205
216
207
204
209
210
206
207
224
219
217
225
221
219
210
211
229
228
222
227
214
212
212
209
205
201
199
204
202
180
185
187
206
200
210
220
204
196
205
197
185
184
197
210
211
204
195
199
201
187
193
199
206
207
205
214
215
200
199
188
188
192
201
199
206
202
202
188
185
197
203
203
209
202
203
201
195
197
199
193
186
194
201
198
208
206
210
216
215
216
208
206
206
211
206
200
205
211
205
200
212
213
216
217
216
212
213
211
216
232
226
224
216
213
214
212
211
206
199
199
207
192
178
192
191
204
198
215
217
199
200
201
188
183
185
209
220
213
199
194
194
189
194
193
209
207
210
218
214
196
192
199
197
201
199
196
204
206
201
190
196
202
206
199
205
205
212
202
205
204
208
204
197
201
206
203
211
215
212
221
225
225
219
209
204
202
202
195
200
205
203
196
206
208
211
210
209
208
209
221
216
218
228
220
213
222
212
212
213
205
205
204
208
202
191
190
196
205
198
199
219
208
195
205
203
193
186
195
214
216
197
187
189
192
193
194
206
208
212
216
214
198
195
207
203
205
202
206
207
204
204
196
194
205
202
197
199
197
203
205
209
211
211
201
200
206
209
208
211
214
214
211
211
208
205
204
197
199
199
193
202
199
199
201
206
208
205
206
205
206
208
210
210
209
220
221
214
218
215
210
212
215
203
199
206
205
199
192
197
209
200
199
204
218
191
200
200
203
195
191
209
215
207
184
188
199
196
197
207
208
210
218
205
191
198
205
199
203
210
213
207
211
200
195
199
199
203
201
202
204
207
207
214
210
204
208
209
209
212
218
215
219
214
207
203
203
204
205
196
191
195
195
199
197
192
198
199
203
198
206
209
207
206
217
204
209
209
211
211
212
206
208
209
208
205
199
201
201
203
195
197
206
210
204
202
219
199
195
194
198
196
187
201
217
216
189
188
195
201
201
210
204
211
210
200
196
200
211
204
207
214
214
210
210
198
194
199
199
203
206
207
213
217
217
214
210
203
206
208
211
216
218
213
212
214
204
200
203
201
198
198
194
186
189
192
200
194
195
196
198
197
204
209
205
203
214
210
209
207
201
207
202
203
203
206
203
204
197
200
197
203
200
198
197
209
201
206
209
208
199
195
193
192
190
194
218
217
188
185
203
204
206
213
206
207
204
195
197
200
209
203
211
212
216
213
206
205
196
203
204
203
203
211
213
220
222
213
211
216
214
210
214
211
210
209
206
208
201
199
198
197
196
190
196
188
188
196
199
192
195
198
196
203
202
205
205
201
206
210
209
211
202
202
196
197
195
207
211
208
199
201
198
205
206
206
201
208
205
202
208
209
193
198
191
191
195
189
216
212
188
190
213
210
214
215
212
208
196
192
195
204
205
207
211
209
217
212
205
200
203
203
205
204
213
213
219
220
224
218
222
220
217
208
202
208
208
202
198
198
201
200
199
195
198
191
193
194
185
192
202
195
191
200
199
205
209
206
207
203
205
206
208
212
207
202
197
197
192
199
210
216
204
200
196
209
210
206
208
211
209
208
205
212
197
204
189
191
190
195
199
214
195
206
213
215
220
215
204
205
198
185
191
212
212
210
211
214
213
210
210
207
210
209
210
208
212
217
222
221
215
210
210
212
204
206
198
199
202
199
195
198
198
201
202
199
195
194
191
190
193
188
201
204
193
195
203
208
203
208
202
205
207
202
207
209
203
198
196
186
185
192
199
212
209
200
201
206
206
208
206
215
205
200
206
215
203
198
196
188
185
195
198
211
207
212
213
222
218
212
198
203
198
188
205
205
212
210
208
217
206
210
212
216
219
211
208
217
216
218
220
208
202
204
199
203
202
200
201
199
198
199
196
197
203
204
203
205
199
197
193
191
190
192
191
202
196
192
197
204
198
197
199
199
202
200
198
202
200
195
199
186
181
183
189
202
209
205
199
203
208
205
206
215
210
199
207
214
210
195
197
184
193
195
191
205
199
215
216
222
219
211
198
216
203
197
208
210
205
201
207
210
206
209
209
214
218
210
209
215
224
219
208
192
195
197
196
201
202
201
202
204
201
200
202
199
200
204
201
202
197
198
194
192
187
191
188
193
193
192
194
197
197
198
194
194
199
200
192
194
192
191
196
190
185
181
185
189
202
215
205
202
207
209
209
211
214
203
207
216
203
200
199
176
199
202
186
194
199
210
223
222
224
214
214
214
202
204
213
206
197
202
212
207
205
205
208
207
211
208
207
213
214
207
192
193
188
193
193
194
196
196
201
202
197
196
198
198
197
200
198
196
198
198
191
189
187
190
180
184
187
190
192
194
194
193
194
190
191
191
190
187
187
182
186
182
178
180
182
186
189
206
213
203
205
212
208
210
220
210
210
210
204
201
202
181
192
204
194
190
198
205
216
220
234
217
220
212
209
209
210
202
197
200
211
210
204
205
199
198
203
209
206
204
198
194
193
192
190
190
191
194
193
191
195
195
194
198
196
197
197
198
196
195
194
193
189
187
188
189
182
177
187
186
187
191
190
190
187
186
185
183
185
183
183
181
182
174
176
180
179
184
188
202
209
204
202
211
210
209
215
218
215
200
199
211
197
189
191
198
201
193
198
204
210
224
239
221
223
211
215
210
206
196
199
200
216
206
194
194
189
187
197
203
197
192
190
190
192
195
193
189
192
195
192
192
191
194
193
196
196
194
194
193
193
192
193
193
188
187
187
188
184
183
181
183
183
192
187
182
187
183
183
183
182
182
183
183
186
182
180
183
183
184
189
196
206
203
201
208
214
216
213
216
216
198
193
211
204
187
192
199
197
195
196
205
210
225
239
223
222
213
218
214
197
194
195
201
206
192
182
187
186
187
191
198
193
194
192
197
198
196
197
194
193
193
196
201
195
194
194
195
197
197
195
192
190
193
192
190
188
186
184
187
185
183
177
178
186
192
192
181
184
190
186
185
186
185
184
187
191
188
183
187
187
186
196
192
202
202
196
203
209
215
215
209
212
199
196
198
206
197
190
195
198
193
194
201
208
232
238
221
222
213
217
210
198
191
187
191
188
178
178
186
186
188
194
195
195
197
202
202
204
200
198
201
201
198
199
201
205
203
196
197
198
201
198
194
193
191
190
190
187
185
184
184
187
184
178
177
186
191
196
190
179
188
197
193
191
193
190
191
202
198
192
196
194
189
199
199
207
200
199
197
205
214
217
218
215
204
194
195
209
204
202
195
199
195
198
206
215
234
234
219
221
218
218
210
198
190
181
180
183
176
178
186
191
194
198
200
205
204
206
205
201
205
207
207
212
205
205
203
204
211
201
200
201
203
199
198
196
196
194
193
188
185
186
186
190
191
184
181
183
189
201
199
194
187
202
203
200
198
201
202
208
207
197
202
201
194
196
208
209
205
206
201
209
215
220
227
215
209
204
193
199
212
205
200
206
199
202
206
216
236
225
219
218
220
222
215
203
186
179
177
183
175
178
188
196
197
204
208
212
205
209
211
208
214
211
205
209
213
206
205
205
200
195
197
201
202
202
199
201
203
195
197
194
191
190
193
196
194
193
192
186
194
199
207
206
205
199
201
207
204
209
209
216
213
201
199
205
200
200
209
210
203
211
204
210
222
218
221
224
211
204
197
193
204
208
205
209
202
199
208
214
234
228
220
216
221
214
217
196
182
173
173
179
175
180
197
200
204
210
209
208
208
211
213
212
216
212
206
203
213
211
207
207
201
199
198
199
196
203
201
202
200
197
200
196
198
194
199
196
203
198
209
199
201
204
205
211
214
216
203
209
212
211
214
214
216
206
206
205
199
205
210
213
211
213
211
212
224
226
211
228
218
202
191
196
193
208
214
207
208
201
204
212
234
237
212
218
219
209
207
196
182
176
176
182
185
193
199
199
203
203
201
204
206
207
212
212
212
207
205
205
209
212
211
208
203
205
199
199
201
203
202
202
200
195
201
199
198
203
204
205
207
206
214
210
205
210
205
206
213
212
210
208
205
203
202
206
208
200
195
197
197
198
204
209
218
207
206
212
215
231
223
224
224
201
187
191
196
208
216
205
211
203
203
209
238
237
209
218
214
204
211
192
183
182
183
181
188
191
197
193
198
199
198
201
201
199
206
210
212
205
202
206
214
210
216
212
204
204
203
201
199
203
202
202
200
197
204
203
201
204
208
209
208
205
208
211
205
201
199
199
197
202
204
204
202
200
194
193
198
194
189
187
190
195
202
208
217
212
200
208
210
223
226
227
227
210
189
191
203
211
212
210
213
198
206
206
235
232
213
212
209
204
209
196
186
188
173
184
192
196
198
187
190
196
195
198
200
196
202
205
210
201
198
198
209
215
220
218
212
212
209
205
201
199
201
203
197
195
200
203
204
205
202
202
201
199
201
202
199
192
190
195
197
194
198
200
201
202
199
196
197
193
187
187
183
196
202
208
208
210
206
201
215
227
228
220
228
218
194
199
208
213
211
208
208
201
205
193
221
223
221
214
208
199
213
210
191
182
181
194
199
198
194
184
187
195
195
197
199
195
200
202
208
207
206
211
220
231
235
234
228
220
220
215
209
206
205
208
198
192
194
197
200
198
193
191
191
194
192
196
193
192
193
196
199
202
199
202
195
201
202
203
209
205
203
203
199
195
203
206
208
206
207
199
213
222
235
219
225
224
194
206
214
209
215
209
198
209
188
187
211
205
222
217
200
189
216
205
186
191
190
204
206
201
196
188
191
197
201
204
202
202
202
207
221
223
220
222
223
229
235
240
234
227
223
217
218
216
206
205
200
192
196
195
195
197
194
192
194
199
201
201
196
198
197
196
201
208
201
196
200
213
209
214
214
211
209
211
203
203
201
201
203
205
200
197
214
223
233
222
222
226
192
194
204
206
215
210
196
209
183
193
206
207
208
213
197
194
205
196
183
195
196
207
211
204
195
195
203
203
198
193
186
188
200
211
215
220
222
220
220
226
234
237
240
241
239
232
232
230
219
211
211
196
190
185
188
189
203
201
205
208
206
207
206
211
211
211
216
223
212
203
208
217
211
220
224
221
224
215
212
205
205
206
196
198
195
194
198
219
231
226
228
213
190
180
189
192
209
203
207
186
188
202
206
208
193
201
203
198
200
195
192
201
197
211
207
203
196
201
206
197
190
189
190
194
198
210
229
227
230
234
227
235
234
236
241
237
231
234
231
232
220
212
213
206
199
196
187
192
203
202
202
214
207
204
210
211
214
218
224
225
219
217
215
222
220
217
220
214
211
215
212
206
202
205
211
204
202
200
195
219
224
225
232
201
192
184
195
196
198
201
205
184
195
211
208
200
198
190
189
198
194
190
188
195
197
206
205
205
206
208
212
204
193
202
192
196
208
196
216
226
225
226
223
227
210
225
226
233
228
225
223
220
200
201
201
192
192
195
190
191
193
198
198
215
201
188
196
195
196
206
221
211
206
211
210
211
215
215
220
211
206
210
207
195
202
205
203
196
203
202
189
207
222
218
231
212
190
191
196
200
200
199
205
198
206
209
213
199
201
184
176
196
194
190
188
194
196
189
199
197
202
205
204
200
200
194
194
206
195
193
227
231
221
211
212
211
203
206
221
215
217
205
218
212
190
190
196
173
176
187
185
185
183
188
205
216
203
197
196
192
195
197
204
200
210
204
192
190
197
213
205
203
197
198
202
188
198
208
212
200
190
194
190
204
205
219
212
210
214
180
192
197
209
198
204
209
213
207
210
198
191
184
171
194
195
197
191
196
188
190
190
193
191
193
190
193
204
191
195
201
185
185
219
206
202
202
187
184
178
187
201
205
207
193
195
205
196
192
193
169
163
174
187
186
178
180
195
215
199
191
203
191
195
195
197
184
207
189
201
185
183
205
193
200
188
183
206
199
196
205
207
205
196
185
191
201
204
217
210
203
220
189
184
198
210
204
206
208
223
204
202
187
183
176
166
184
204
198
192
185
178
192
187
185
188
182
190
200
200
196
195
202
195
182
199
185
185
170
179
172
173
189
202
199
222
213
199
215
200
204
195
180
168
178
188
189
181
186
191
215
214
191
207
194
201
200
208
188
195
184
188
189
184
192
184
196
188
174
192
207
201
201
199
203
194
184
193
200
203
215
209
202
221
211
191
210
209
210
202
211
230
204
204
189
191
179
184
189
203
199
195
187
177
192
193
188
187
184
196
204
194
197
205
200
191
197
200
202
191
175
175
177
185
194
196
219
225
221
214
220
206
205
197
195
176
181
191
176
173
179
188
214
220
195
203
206
209
203
198
199
193
190
179
192
193
189
188
193
193
189
189
198
202
194
193
204
185
182
205
199
200
211
207
204
215
219
206
210
212
205
200
210
227
219
203
188
191
192
202
207
203
190
199
190
186
187
188
194
190
195
208
205
201
186
188
194
184
204
192
187
181
181
175
184
177
174
178
204
215
212
215
226
210
214
197
200
180
183
173
164
161
163
188
214
217
201
187
203
205
199
193
200
190
181
181
187
183
163
172
180
186
200
191
195
196
193
189
194
188
177
195
201
209
219
190
208
217
231
225
222
201
206
198
218
213
224
210
201
198
199
202
211
199
181
189
183
187
185
184
192
197
196
210
206
193
188
190
189
184
210
198
179
192
193
180
174
172
167
176
189
208
222
219
227
216
215
202
190
186
195
179
163
166
169
188
207
217
200
185
186
195
192
196
188
178
189
187
187
180
172
173
174
179
198
192
204
204
195
200
199
201
190
190
183
217
216
190
190
216
234
223
225
211
200
205
218
220
211
210
209
209
205
199
214
202
190
188
182
185
191
191
205
203
203
204
201
199
200
203
201
200
199
200
196
197
209
199
178
185
182
186
195
215
224
227
221
213
219
208
185
175
189
185
165
163
176
181
199
219
223
195
188
210
196
198
180
171
185
190
204
196
207
201
189
185
199
191
198
201
189
201
205
209
204
194
190
203
206
191
191
210
235
223
220
222
204
210
213
235
214
187
217
213
208
209
226
203
202
186
186
199
201
193
200
198
208
187
188
200
212
215
208
204
197
195
197
204
213
209
202
207
201
197
202
221
223
226
217
213
218
212
201
187
189
195
187
183
186
192
205
233
241
218
205
233
213
198
189
179
178
176
198
197
204
201
197
195
196
186
194
176
180
194
203
211
203
194
198
205
192
178
204
211
226
212
212
228
214
203
209
223
233
182
199
208
214
213
223
193
207
191
192
206
207
179
190
187
199
185
202
201
202
207
204
206
199
197
193
197
202
202
197
198
197
193
192
205
200
204
203
200
203
197
193
187
197
201
204
198
186
220
213
232
233
218
219
226
216
214
204
203
194
173
182
198
190
196
193
198
189
184
183
172
178
192
210
209
202
177
190
204
173
181
201
206
225
204
208
223
216
203
206
209
238
198
197
205
213
210
218
191
207
202
204
205
209
168
191
187
190
193
198
201
203
200
203
194
189
189
186
184
187
186
184
181
183
190
194
191
201
195
208
206
198
178
173
177
195
201
211
203
189
214
218
212
223
212
211
210
205
203
213
203
193
178
182
198
181
201
203
202
187
179
179
179
181
194
217
215
206
192
194
206
169
178
203
217
227
205
211
222
209
206
198
194
205
199
196
223
221
201
204
194
209
206
205
210
207
187
198
203
198
197
192
192
194
198
197
199
200
205
209
195
189
189
188
188
190
201
207
195
202
198
208
198
194
177
176
181
184
201
212
199
198
202
216
201
211
209
215
205
211
209
208
193
189
183
186
191
186
197
210
202
204
195
192
191
191
198
211
207
210
194
197
209
169
184
211
221
228
219
206
214
193
205
196
186
197
198
204
224
226
201
188
193
201
208
207
219
218
200
205
212
215
210
207
206
211
205
208
214
207
215
217
216
198
196
194
200
199
203
215
216
216
216
218
206
192
184
178
190
193
208
209
191
194
201
207
206
198
211
218
213
212
209
208
206
206
202
207
207
205
204
205
211
211
213
210
205
201
195
207
211
220
199
196
204
173
188
216
214
225
221
192
187
186
204
198
196
189
198
209
214
233
201
183
179
190
200
203
223
227
205
209
223
233
228
223
224
222
215
228
224
220
225
220
217
208
202
202
201
194
196
206
220
219
214
207
207
195
186
184
186
200
204
212
201
193
196
199
206
202
203
217
218
211
206
216
217
204
218
217
225
216
215
216
212
218
212
216
224
217
207
205
210
213
204
198
194
174
188
213
197
239
203
177
180
187
206
199
194
194
197
212
217
231
207
188
172
183
199
211
222
225
207
211
224
233
229
225
232
225
219
222
221
219
218
222
213
203
203
208
207
219
201
210
229
216
211
207
197
194
189
186
189
198
201
209
213
201
193
194
199
205
205
209
224
210
200
214
215
206
217
220
232
214
214
225
211
215
225
220
223
226
218
216
205
213
200
200
193
165
190
201
201
227
184
167
177
192
203
208
197
204
206
214
229
219
202
196
172
173
194
217
219
216
206
212
215
215
215
215
218
214
212
207
210
210
210
208
200
201
200
210
204
217
223
211
210
209
197
207
206
205
196
186
191
201
208
214
211
205
198
190
195
207
214
210
215
206
203
200
212
196
202
214
222
219
212
223
215
210
221
235
232
226
224
215
204
214
198
204
182
165
179
195
190
212
181
167
191
191
203
215
197
207
206
195
223
213
199
190
173
177
184
203
222
220
203
198
204
201
209
205
210
204
208
206
201
195
197
199
204
206
193
198
199
209
219
199
194
193
191
203
212
216
210
192
193
200
205
210
205
206
204
186
193
201
209
204
210
199
196
199
197
192
187
200
201
207
217
216
206
208
217
225
231
224
223
205
201
209
202
208
170
173
191
181
178
202
180
163
199
190
204
223
199
199
200
178
207
213
192
192
175
177
178
194
209
218
195
195
195
197
203
204
205
204
204
205
202
209
201
201
203
201
194
196
200
215
201
196
189
181
194
214
222
217
211
204
199
196
200
206
202
193
197
194
194
200
205
203
201
204
184
187
203
194
185
184
190
200
202
200
204
204
204
212
220
218
215
202
199
202
212
211
180
184
186
167
181
190
171
160
202
196
203
223
205
186
200
175
204
207
190
196
192
177
181
186
206
202
195
192
192
201
205
208
212
207
202
201
192
204
202
191
195
194
190
198
206
202
193
191
185
184
199
219
219
212
212
204
197
191
196
200
199
191
190
199
197
200
197
201
196
201
191
184
197
210
190
180
183
198
205
200
200
202
207
208
208
207
213
204
197
209
218
205
186
183
183
166
185
184
158
167
203
200
199
221
214
179
189
182
188
202
191
200
210
183
180
180
204
194
199
185
187
195
207
214
215
207
198
194
193
189
191
186
196
211
206
210
200
193
192
189
195
193
208
218
214
207
214
199
190
187
190
191
192
196
190
192
204
189
194
203
205
204
190
179
181
183
190
185
188
206
212
206
199
200
205
207
211
209
207
197
196
215
210
196
181
177
184
177
180
177
156
180
198
203
202
222
235
180
179
181
173
193
198
193
204
201
166
176
203
198
193
193
183
193
203
202
211
207
194
192
190
188
187
186
200
215
212
200
194
191
196
195
204
208
211
207
205
201
197
188
185
183
185
191
186
189
191
189
196
194
187
200
207
209
202
183
185
178
176
172
182
192
200
203
199
201
204
206
211
210
202
193
199
208
201
199
183
182
187
182
179
171
166
194
205
209
205
229
243
198
177
171
175
192
194
196
191
192
178
169
198
203
201
187
189
193
196
191
193
197
193
191
193
191
191
192
200
200
186
183
188
195
206
201
204
208
204
198
198
193
184
182
180
180
186
183
185
188
184
191
179
186
192
195
204
205
207
200
199
195
184
181
185
181
190
198
194
201
201
200
207
206
200
189
196
203
200
196
183
191
196
186
166
172
186
198
209
211
207
227
242
223
186
156
181
197
190
189
186
178
177
177
193
199
202
193
190
196
197
193
195
193
191
197
193
191
193
200
196
189
187
193
203
207
211
205
203
202
202
194
187
181
175
178
175
173
181
177
174
185
183
181
176
177
196
209
207
200
203
206
212
215
205
199
192
179
182
190
193
197
202
204
206
200
199
199
201
205
197
190
191
196
194
191
171
179
206
200
201
213
201
236
228
236
195
153
180
200
186
187
189
179
180
172
196
205
205
194
192
195
197
191
200
196
189
193
195
189
191
184
186
186
187
195
204
204
200
201
197
196
195
187
182
180
177
173
176
174
165
176
172
182
185
191
177
179
194
198
216
218
206
199
202
202
204
199
194
189
192
193
201
196
204
202
202
202
209
202
204
207
198
186
193
194
188
201
173
193
223
203
209
215
209
239
231
231
204
161
169
204
181
183
193
183
185
181
184
201
204
205
206
201
197
197
200
199
201
191
192
187
185
187
190
193
192
196
202
201
193
190
192
194
188
194
200
203
199
184
176
183
168
173
182
183
187
199
194
180
193
196
199
219
223
212
201
201
201
197
189
188
189
192
194
195
197
198
206
207
205
206
209
210
195
183
194
186
197
206
181
208
221
206
208
213
218
229
239
230
216
173
179
195
199
175
187
179
180
188
182
193
199
206
208
203
202
197
195
193
191
190
189
187
186
191
193
190
189
196
199
199
191
182
188
186
192
194
193
181
181
181
186
184
173
176
180
183
192
204
208
202
205
204
200
208
211
210
202
197
198
190
185
180
184
187
186
190
203
207
201
203
203
207
213
211
193
187
185
181
204
207
200
220
218
208
202
211
215
221
243
226
224
198
194
189
199
183
183
171
168
183
185
190
201
211
207
208
205
200
198
199
188
193
196
191
187
193
196
186
183
188
191
192
181
177
178
184
185
187
186
170
170
174
184
189
178
178
177
180
196
207
219
214
209
210
208
204
204
205
195
191
192
193
191
190
194
191
192
198
200
204
200
199
204
212
213
209
198
186
173
185
203
209
220
220
218
206
195
213
213
214
230
223
221
209
211
199
191
185
177
169
163
173
187
190
201
207
209
209
209
208
205
200
201
201
203
199
195
193
196
189
178
181
183
175
163
156
165
175
178
182
178
165
164
165
164
166
180
180
184
181
195
201
199
194
201
205
203
193
196
195
193
187
183
180
179
188
188
181
191
196
197
203
203
196
205
214
211
208
197
184
173
186
201
208
227
215
207
205
188
212
213
201
221
214
228
211
209
227
199
190
170
170
164
167
191
193
203
208
212
213
214
213
211
204
204
211
210
205
204
195
199
193
177
180
177
173
165
151
157
169
173
180
176
163
163
166
174
168
177
181
183
182
186
198
190
176
176
189
191
189
194
196
194
184
175
175
182
187
189
183
189
197
200
202
204
198
207
214
213
201
196
185
177
186
200
220
218
203
208
202
195
213
210
192
215
210
215
217
205
226
221
213
185
166
167
172
183
198
201
207
212
216
218
220
216
213
208
210
215
213
204
200
199
195
186
179
175
179
175
168
173
174
177
176
176
173
179
190
192
179
185
192
188
198
199
208
200
187
182
182
179
186
190
197
194
178
176
188
188
189
196
185
189
199
203
203
205
200
209
211
211
198
192
191
186
196
207
222
215
196
208
196
201
217
210
188
212
209
213
207
205
208
212
226
213
189
187
203
190
197
202
209
214
216
217
216
219
215
208
209
212
212
206
203
206
200
188
180
172
175
180
192
196
192
192
191
197
199
200
203
205
189
192
199
204
203
203
219
217
203
197
197
184
181
184
192
192
186
183
195
196
199
201
189
191
202
207
205
209
203
210
212
208
200
196
199
197
202
210
213
206
198
211
195
207
217
214
188
203
212
207
212
201
198
207
216
217
194
194
212
200
198
206
205
212
213
214
214
217
215
207
210
210
211
211
209
213
200
190
184
178
188
189
198
209
213
210
215
216
218
218
215
215
218
213
214
214
204
201
218
220
202
206
207
194
195
191
196
192
189
192
197
204
205
204
201
197
204
209
207
210
209
212
212
207
197
201
203
201
196
211
213
198
197
214
194
211
215
213
191
191
208
211
211
200
198
208
210
208
195
203
216
210
205
205
203
205
212
209
211
213
209
205
206
209
216
216
220
214
201
195
186
184
190
197
202
208
219
227
222
215
214
229
229
225
234
227
221
213
202
195
209
215
205
206
208
202
201
203
208
199
187
194
189
201
202
206
214
210
205
211
210
209
215
218
210
205
196
196
204
198
199
214
214
195
202
209
202
213
215
202
194
192
201
216
211
205
203
206
210
213
198
211
220
225
209
207
200
202
205
206
207
211
209
201
205
208
213
221
231
213
209
204
190
189
188
191
200
215
216
222
222
221
219
241
239
237
237
230
220
211
201
194
201
207
210
212
206
203
198
211
214
204
194
192
188
195
204
205
217
220
212
211
212
210
215
220
214
204
197
197
205
201
210
224
215
194
204
202
207
214
214
200
196
194
198
210
214
213
206
204
206
217
207
217
226
235
209
210
194
204
200
200
204
207
206
202
206
207
212
219
230
220
219
208
194
187
183
188
187
200
214
216
213
217
224
240
245
234
234
239
228
221
215
213
207
202
214
214
215
208
204
217
227
211
204
198
193
199
208
207
212
219
216
213
211
213
213
218
219
205
196
199
212
209
227
229
206
194
203
203
205
214
215
201
197
198
190
208
215
215
204
201
199
217
216
215
232
233
211
211
193
199
199
197
203
199
197
198
205
205
211
220
224
221
221
212
205
205
207
210
208
193
202
209
209
212
214
227
238
235
231
231
224
221
215
218
212
203
216
219
218
213
216
224
227
224
214
203
199
202
212
212
209
218
216
216
212
214
215
220
218
208
195
203
218
218
237
219
199
199
202
207
205
214
214
205
197
196
187
197
210
217
200
201
199
208
218
211
221
231
216
210
197
196
198
200
197
195
195
198
199
204
209
215
217
213
216
204
204
215
222
230
234
203
199
196
208
203
203
222
243
231
225
227
229
222
212
217
222
217
220
232
227
221
227
232
233
227
218
213
201
203
207
212
209
218
217
212
213
213
210
220
216
206
193
213
227
222
236
214
199
201
203
205
209
214
211
208
198
196
187
189
196
217
200
197
203
208
213
209
212
225
223
207
204
197
198
197
192
194
197
197
197
204
204
210
208
207
207
200
197
205
215
224
232
214
205
188
205
195
199
217
240
222
215
225
237
222
214
214
224
216
218
229
227
209
229
223
233
230
220
213
207
205
204
211
206
215
215
215
215
213
209
221
215
204
199
227
229
218
226
209
197
197
204
199
213
212
213
206
197
199
190
191
188
195
199
196
204
205
206
202
207
219
225
209
212
201
198
196
186
193
195
189
188
196
196
201
203
201
208
203
199
195
206
211
223
220
217
182
201
193
188
207
230
216
216
229
238
221
221
214
226
223
224
236
218
225
238
240
237
228
219
216
213
208
202
207
207
212
213
217
216
218
206
211
209
199
208
228
214
207
219
201
192
198
196
200
214
214
208
207
198
203
198
190
189
191
194
196
206
204
206
197
200
212
223
211
213
203
196
195
189
192
195
188
187
184
191
195
195
198
205
194
195
187
186
188
199
209
215
202
200
200
185
197
216
215
219
228
238
232
233
222
234
240
239
250
240
246
246
255
241
224
215
216
206
206
207
211
207
216
215
215
220
218
210
199
201
192
210
211
202
208
215
197
189
194
193
201
214
213
208
204
200
201
202
194
188
189
194
197
205
203
205
202
191
204
210
213
207
201
197
193
190
193
197
194
192
185
192
196
191
197
199
189
180
172
171
167
166
181
188
188
194
192
182
188
196
201
199
206
224
224
231
227
243
252
251
250
252
250
243
248
236
227
224
223
208
211
215
217
209
218
219
215
221
215
208
198
195
195
210
200
197
204
206
192
190
193
195
207
206
211
206
203
199
201
200
198
193
188
193
197
204
203
201
202
190
203
203
217
203
202
201
197
196
198
199
204
197
193
196
199
200
194
193
178
172
167
172
167
160
175
183
183
186
182
175
176
193
189
188
189
194
199
211
218
222
233
228
226
233
242
231
234
232
223
221
221
213
215
218
214
215
215
218
219
218
211
206
199
194
202
202
190
190
201
197
189
189
192
199
206
208
210
206
201
199
200
203
199
200
195
193
197
199
206
200
198
191
193
206
218
209
200
201
205
201
209
203
207
207
204
202
203
203
196
194
177
178
183
178
174
170
176
195
203
198
193
197
197
204
197
189
190
190
190
197
200
194
208
211
215
220
224
215
220
215
212
207
205
206
210
216
215
212
211
220
213
217
207
202
197
199
204
190
172
188
199
191
187
187
196
207
205
206
210
205
202
200
197
202
201
199
200
193
189
199
208
205
198
188
185
204
212
218
197
196
204
205
211
210
209
211
204
204
204
205
200
200
190
188
194
190
180
187
184
189
189
199
197
199
202
210
208
211
204
206
202
202
200
192
207
206
211
215
216
209
205
209
210
205
202
198
196
202
208
205
210
209
205
208
197
192
193
202
205
183
173
188
195
191
189
191
201
209
208
203
209
209
204
197
197
201
199
198
199
189
181
208
213
208
204
191
187
200
206
220
201
189
204
203
207
205
210
211
211
208
205
210
213
214
206
205
201
209
211
215
203
204
190
188
189
195
203
197
201
205
207
208
215
210
202
200
204
202
203
211
211
206
202
203
205
199
196
196
197
193
193
197
199
196
193
193
190
185
199
205
198
179
176
192
191
190
190
197
205
207
211
202
207
210
206
198
201
203
198
201
191
185
187
196
219
213
209
201
193
192
204
215
210
190
201
205
200
202
203
210
211
209
207
204
208
215
208
208
211
215
217
222
210
212
204
187
178
190
191
186
193
190
204
205
210
210
205
207
210
214
206
210
202
202
198
204
206
199
196
193
193
195
189
191
188
183
186
189
185
183
207
203
190
178
186
197
189
189
191
205
211
210
212
208
211
209
204
202
207
204
204
196
185
185
189
192
216
215
212
208
196
190
200
212
220
194
200
205
198
201
202
204
213
208
207
204
207
210
208
207
206
210
214
213
210
218
212
205
204
202
197
200
202
204
213
209
206
214
218
208
221
222
225
227
220
216
217
220
214
214
203
194
192
191
193
195
188
187
194
196
185
196
214
202
184
177
192
194
189
188
194
208
213
214
214
213
211
211
205
204
205
203
198
188
183
185
188
187
215
214
209
206
199
188
197
212
229
199
198
201
200
198
200
203
203
208
200
203
197
194
193
196
198
194
198
201
197
201
201
197
205
205
199
196
196
200
199
203
203
204
205
207
213
224
230
227
215
214
217
214
210
208
204
195
190
193
195
192
191
187
192
198
193
208
217
201
182
177
193
195
190
188
206
207
213
213
218
216
203
211
206
204
206
197
190
185
183
190
188
183
208
218
206
208
201
190
201
216
228
201
194
196
201
200
200
203
198
200
199
197
194
194
194
195
197
191
192
198
194
192
193
199
204
202
197
192
189
191
183
191
191
186
189
197
204
202
207
207
202
205
209
207
205
202
199
198
198
194
197
190
185
187
191
197
200
214
218
200
178
177
192
194
187
194
211
207
211
213
222
216
201
205
214
203
199
190
193
185
183
192
181
178
200
216
207
207
206
198
208
216
233
194
189
199
202
200
201
196
200
194
197
193
195
200
200
196
193
199
191
198
190
187
191
197
200
196
198
190
191
187
189
189
188
189
194
201
205
196
193
197
197
197
202
199
202
199
201
200
197
193
192
195
184
188
193
201
209
218
221
199
170
180
189
192
190
196
207
209
212
214
222
215
201
202
212
201
188
188
191
183
185
184
179
180
193
211
212
206
211
208
211
204
233
198
191
196
202
200
204
200
202
197
196
189
187
195
199
199
188
194
190
192
187
182
184
191
190
190
188
189
186
188
192
187
187
192
195
193
192
188
186
187
187
189
192
195
197
196
198
199
193
192
194
191
184
191
193
205
205
223
214
203
169
180
185
191
199
197
197
209
211
212
220
212
200
201
206
187
186
190
191
184
183
185
178
182
194
205
213
204
221
204
207
205
231
205
191
192
203
201
206
206
205
204
202
201
198
195
197
202
195
198
196
185
187
190
183
183
183
191
190
197
198
199
196
195
192
192
191
195
190
183
184
189
189
194
196
197
197
195
198
197
194
196
196
192
187
187
193
215
204
205
209
200
175
178
186
196
210
205
195
202
212
211
219
213
201
201
198
182
188
192
191
188
181
181
178
185
193
200
208
207
227
200
207
210
233
214
191
196
199
204
208
207
211
209
202
203
202
199
201
201
201
205
205
199
198
198
197
196
193
195
199
203
206
209
207
200
199
201
197
200
196
195
199
200
200
202
201
200
199
198
200
199
194
196
198
194
189
190
192
229
212
194
192
192
181
173
185
206
212
210
202
194
205
212
220
212
203
199
192
186
189
191
189
192
181
172
186
194
201
192
204
223
219
210
202
213
233
221
193
195
198
202
211
209
216
212
204
201
203
200
202
203
206
202
210
215
211
210
208
211
203
206
205
205
204
206
212
211
210
208
210
205
204
208
207
203
204
205
210
206
204
200
197
198
197
200
198
192
191
188
196
235
215
191
190
184
175
172
186
208
207
210
208
197
200
208
225
211
201
199
191
188
191
191
192
192
181
173
208
220
192
198
210
218
220
204
205
208
235
228
197
201
205
197
205
209
211
214
206
197
203
203
196
201
207
198
202
210
212
216
214
216
215
211
215
213
212
209
214
216
214
212
216
216
217
214
213
212
213
212
215
216
212
203
197
200
197
205
201
197
191
184
204
227
218
197
196
180
171
175
183
199
202
208
210
202
201
204
226
207
201
201
192
192
191
191
194
196
181
195
233
215
195
203
209
225
213
198
203
212
233
216
201
206
208
197
197
205
210
210
206
202
197
198
193
197
202
199
200
203
202
207
210
212
212
211
218
216
210
209
210
213
210
214
214
217
220
214
212
215
216
217
214
218
212
204
199
198
198
206
206
198
191
187
207
227
204
204
189
188
168
176
189
196
188
202
210
205
201
206
216
211
200
202
193
195
198
196
203
194
194
224
229
212
205
206
216
221
206
198
197
216
212
195
202
209
208
207
197
196
206
210
208
202
198
196
188
192
197
196
198
193
193
187
192
199
200
201
205
203
201
202
209
206
209
205
206
214
213
208
212
210
213
213
211
208
204
198
203
201
206
209
209
198
192
185
209
232
201
183
197
183
174
179
188
200
194
189
200
198
195
204
212
196
206
204
197
192
196
197
200
196
219
241
222
211
206
206
225
212
197
201
204
206
186
198
199
206
215
212
202
192
196
208
211
202
199
194
192
188
197
196
196
189
184
184
186
187
186
187
192
192
185
191
193
192
197
195
199
203
206
202
215
212
208
208
208
203
199
201
207
207
206
208
210
199
189
181
204
247
215
176
185
178
173
185
190
194
200
191
196
199
192
199
203
182
201
199
193
193
197
203
194
213
245
236
218
210
206
207
230
200
187
202
215
177
182
204
204
194
213
215
204
191
189
202
207
207
203
198
195
188
187
189
190
187
185
181
181
187
187
181
187
189
178
185
188
189
189
188
198
196
200
202
209
209
205
204
203
200
207
201
205
208
209
209
210
191
190
180
199
239
246
200
160
165
171
190
193
190
202
192
197
202
199
202
192
184
187
190
182
196
197
199
199
236
249
233
221
203
206
211
222
185
189
203
204
170
184
206
212
193
210
212
204
196
189
197
205
204
205
203
195
193
187
185
187
181
183
179
183
181
182
183
181
181
178
180
185
183
185
187
195
195
200
204
209
206
206
204
203
204
207
201
205
206
207
208
201
185
189
177
202
220
242
220
178
139
173
195
191
191
200
202
196
199
201
203
185
185
181
186
184
196
195
194
212
247
241
233
221
197
204
207
208
178
198
207
181
179
195
202
217
187
207
202
201
201
194
201
201
203
204
201
195
190
195
187
187
187
187
185
180
178
185
182
183
181
177
182
185
186
187
192
194
197
202
209
209
206
206
204
206
206
202
195
201
205
204
201
195
184
184
174
206
214
228
211
209
151
166
192
191
190
201
204
201
199
205
205
186
181
186
182
181
188
186
189
224
246
235
240
219
197
195
196
198
179
200
207
165
186
192
207
210
198
200
197
196
203
193
202
199
201
205
203
198
199
196
197
191
192
193
190
185
187
180
188
187
189
191
187
197
191
189
197
200
200
203
203
202
202
203
205
207
200
199
193
200
204
201
193
192
182
188
175
205
211
218
212
200
177
162
188
182
190
205
204
201
198
204
205
190
187
189
182
181
189
198
207
242
243
236
251
212
187
182
192
197
177
202
187
160
192
191
204
208
206
198
195
194
194
197
204
202
205
203
201
205
204
204
199
199
192
194
193
191
195
190
191
193
194
194
197
199
199
195
202
206
203
202
199
199
198
205
206
200
194
196
198
203
201
195
190
190
185
185
184
197
210
215
202
195
179
182
174
182
184
203
205
207
199
206
197
191
196
186
188
178
226
231
231
249
237
238
253
197
185
183
199
188
168
200
166
168
195
198
195
201
213
204
192
193
189
195
201
205
209
206
202
202
208
207
203
201
197
198
194
192
200
199
195
198
199
199
203
205
203
202
205
201
201
201
199
200
202
205
198
191
195
196
197
198
195
190
191
194
182
182
190
193
215
219
186
199
170
184
176
183
179
190
206
203
209
202
196
199
199
186
189
179
225
225
235
245
231
234
237
189
172
190
205
168
161
195
159
186
190
205
189
195
214
202
204
200
193
189
193
204
207
209
212
207
209
208
209
210
205
201
198
196
196
198
198
200
201
206
205
206
201
202
202
199
200
196
203
202
196
193
191
189
195
197
197
192
194
194
196
201
183
183
191
192
223
211
188
198
162
168
180
177
175
189
204
208
215
197
191
201
193
182
187
181
232
226
240
234
218
223
231
184
167
192
208
151
169
188
162
181
185
201
193
200
209
200
213
208
199
196
191
199
201
211
208
215
213
212
210
210
212
211
210
208
202
205
202
205
201
208
205
208
198
199
198
196
199
199
198
199
188
191
192
197
200
193
190
192
195
195
199
191
184
193
188
192
226
208
181
202
150
163
183
177
169
188
209
215
215
190
192
202
197
183
172
181
217
215
228
218
218
228
223
181
172
193
207
158
171
168
164
179
182
207
195
213
201
197
215
217
208
204
200
195
202
212
206
211
215
218
216
210
214
219
220
215
208
215
211
213
205
208
205
203
198
202
199
204
202
201
200
199
195
194
198
196
197
188
190
189
193
195
196
179
200
199
181
202
217
205
186
189
155
156
177
186
161
186
216
216
200
188
195
198
202
185
173
186
209
229
225
211
220
230
219
186
170
191
216
175
156
154
167
171
178
196
196
214
195
188
214
217
217
207
209
203
207
211
212
213
214
216
217
215
215
217
218
218
213
218
217
215
215
212
211
208
204
210
208
203
201
199
196
197
194
195
196
189
187
191
189
190
196
196
193
184
205
201
183
210
215
199
182
196
165
147
179
177
182
170
220
216
191
199
198
192
197
191
174
181
213
234
223
213
217
223
212
181
169
192
193
166
127
145
164
151
165
183
198
209
192
184
204
216
218
217
215
212
208
214
214
218
215
215
216
213
214
218
216
216
215
212
214
213
206
206
210
205
209
207
201
196
196
193
191
189
195
193
191
190
192
192
193
193
195
197
188
194
208
200
188
216
209
180
181
200
180
146
186
168
193
171
207
211
190
202
198
191
202
188
182
188
