P2
# Face with average contibution
92 112
255
184
185
185
185
187
184
186
185
186
185
184
183
187
188
182
181
187
196
194
191
186
192
184
184
183
184
183
186
183
189
190
189
185
187
185
183
180
181
181
181
185
170
165
164
162
168
169
168
172
173
170
173
187
188
185
189
185
188
180
179
181
185
184
183
187
188
191
188
191
192
197
195
183
183
183
181
185
184
187
185
185
184
184
188
190
189
187
190
194
189
192
190
185
184
186
185
185
187
185
184
186
185
182
187
188
182
184
185
183
188
178
176
175
182
183
184
179
182
177
175
182
187
193
192
192
189
189
188
180
180
171
166
169
162
160
162
157
164
165
168
165
174
169
171
188
188
179
184
194
177
181
186
182
188
186
193
182
185
183
184
184
194
191
197
198
196
190
182
185
184
183
184
184
185
185
182
186
188
186
190
188
189
190
190
186
186
186
186
186
186
187
182
184
183
180
190
186
184
184
179
177
175
178
181
179
178
184
185
183
186
186
184
182
184
190
191
193
190
186
183
177
176
168
156
159
161
158
164
158
159
165
169
165
167
166
178
188
185
179
176
182
184
189
186
183
188
186
198
190
184
177
180
180
185
196
193
200
202
200
188
181
186
181
184
182
183
182
182
185
186
187
188
188
189
190
188
184
187
185
185
184
184
185
181
182
181
182
195
183
179
180
176
179
178
174
177
178
188
192
187
186
189
183
188
186
187
188
193
184
186
176
178
176
167
177
167
154
158
162
167
165
163
165
172
167
164
167
182
184
181
177
175
182
185
187
195
195
187
197
200
197
195
181
178
182
179
189
182
196
204
201
197
186
182
182
185
182
181
182
180
185
184
188
185
188
187
188
189
184
186
186
186
185
184
184
180
181
181
188
193
181
184
178
181
180
176
175
183
180
183
174
182
179
183
189
188
195
194
194
188
186
182
185
180
180
173
179
176
161
169
173
170
163
163
168
172
171
166
172
182
177
179
177
175
176
188
181
182
189
191
198
198
197
195
194
185
184
182
184
181
183
201
201
199
198
190
182
183
185
181
182
184
183
184
186
186
188
185
189
188
184
184
186
186
183
184
183
183
181
185
196
192
188
187
183
182
175
177
182
182
181
182
180
179
186
191
197
191
191
197
196
191
193
192
184
183
186
180
180
174
166
170
176
178
170
172
173
175
178
173
183
186
183
176
183
178
182
183
186
180
180
182
202
199
200
198
197
195
189
184
183
179
180
190
198
195
203
199
195
185
183
182
178
182
183
185
185
185
187
187
187
189
183
185
186
184
185
186
182
181
186
186
195
190
185
184
182
178
175
179
186
184
177
179
174
183
187
197
194
195
193
199
196
193
190
193
183
182
186
185
187
175
172
178
185
186
177
173
180
187
185
181
183
186
188
188
180
182
184
185
180
181
189
184
187
190
196
197
195
195
193
187
180
182
180
186
189
190
200
204
204
196
184
185
183
182
184
181
184
186
186
189
187
187
184
184
186
185
183
183
180
187
190
188
190
194
186
182
190
188
188
193
190
184
175
174
175
185
186
186
190
196
196
199
196
197
192
192
192
190
187
190
192
184
180
187
195
195
190
183
186
195
190
180
184
186
191
189
180
185
182
183
178
182
192
189
197
189
188
194
198
192
194
191
186
184
189
187
189
189
192
202
202
205
192
186
181
185
183
182
184
180
188
187
186
187
185
187
185
183
181
183
185
183
187
185
192
190
192
191
196
202
203
204
192
181
179
179
182
187
188
194
202
197
197
196
194
196
193
195
192
193
195
195
199
190
188
192
203
204
199
189
191
192
191
188
196
195
189
187
182
189
185
179
177
186
186
184
193
194
190
189
190
192
195
189
197
191
190
190
187
191
190
191
197
199
202
192
184
182
183
187
181
181
184
189
188
188
188
184
187
181
185
192
186
180
180
185
192
194
193
199
201
202
191
185
179
174
179
181
181
185
186
196
199
205
198
193
196
196
193
201
196
195
202
195
200
193
192
193
198
199
195
195
201
196
194
197
199
193
196
192
195
192
190
179
182
180
183
185
185
186
183
188
187
187
187
188
194
193
197
194
188
188
190
190
191
197
200
202
186
185
184
183
182
181
186
185
187
189
187
183
187
184
197
192
187
181
185
192
197
193
194
197
194
187
177
174
163
168
177
177
181
183
188
193
203
203
202
200
195
199
195
198
200
203
202
202
202
194
188
191
201
196
203
196
201
195
197
200
198
199
198
200
196
186
187
192
188
179
178
177
187
185
187
184
188
186
181
182
185
190
196
199
196
191
193
193
192
194
197
199
196
185
185
180
179
183
187
186
186
189
183
185
189
193
201
183
177
180
183
185
186
183
189
187
184
178
174
176
179
193
195
196
196
190
188
193
198
201
202
205
200
197
202
207
209
208
210
213
209
196
186
189
195
195
197
195
199
198
195
201
201
203
200
198
194
187
183
193
189
187
182
181
183
185
186
181
184
187
188
182
186
194
195
197
199
200
193
195
197
200
195
194
198
193
180
182
180
180
183
184
187
188
185
182
193
196
194
182
175
177
184
179
178
184
182
184
173
166
167
168
177
188
187
195
198
193
202
202
197
205
205
202
205
201
201
209
205
207
205
209
209
199
190
184
189
191
197
196
196
195
202
201
200
201
195
191
187
195
195
191
192
195
189
192
182
183
185
181
179
178
182
187
180
189
203
196
201
204
202
191
200
201
200
196
195
197
188
178
182
182
184
183
185
186
185
187
189
196
189
177
173
182
186
187
191
197
193
189
180
180
180
199
196
199
190
193
193
196
199
206
209
202
203
210
210
210
207
204
206
204
205
204
201
192
183
187
196
187
189
195
200
192
195
205
200
195
192
191
185
191
186
190
188
193
187
189
183
184
181
181
177
175
172
173
183
182
189
198
211
202
204
199
198
192
202
201
198
196
196
186
179
182
183
184
183
187
187
188
191
186
180
174
181
185
193
194
199
196
192
189
182
183
196
199
202
208
204
199
203
202
204
210
206
202
199
205
208
207
210
203
201
199
194
193
189
190
187
187
191
190
185
187
198
194
200
202
198
189
193
190
183
184
184
183
180
183
180
181
177
179
181
176
173
172
170
166
171
183
183
187
207
209
205
209
205
199
201
203
199
194
199
194
184
178
182
183
183
182
189
190
185
180
172
179
182
190
188
186
192
193
195
188
193
197
200
203
204
204
211
206
204
209
209
211
200
194
201
201
203
199
200
196
193
193
192
183
182
185
184
187
190
190
182
187
187
192
198
198
194
193
192
186
180
174
171
172
173
175
176
177
173
173
178
172
169
176
173
163
167
170
181
185
192
205
211
217
204
210
201
199
199
197
197
196
193
181
178
183
179
184
191
184
178
173
170
177
187
193
186
190
197
192
195
191
198
204
201
208
210
208
206
209
211
213
207
206
199
194
199
201
199
201
196
189
191
190
185
184
178
177
182
187
192
191
181
186
185
191
190
192
192
193
182
174
169
168
164
169
170
176
176
179
176
172
173
170
165
167
172
171
168
171
179
184
183
190
213
215
215
207
205
200
191
197
197
195
201
192
179
177
179
180
186
180
176
170
172
175
198
192
187
194
200
203
203
207
206
197
202
204
209
214
207
209
212
210
199
203
204
199
204
198
203
194
189
185
188
187
181
177
173
172
183
188
191
187
183
188
189
190
189
189
192
188
178
172
173
167
168
168
170
173
171
176
179
172
170
170
169
166
168
174
175
168
178
183
184
184
205
212
215
209
206
203
196
192
195
194
198
201
194
180
177
177
183
183
174
167
174
183
195
193
190
198
200
208
210
211
196
199
205
210
207
206
213
204
204
201
204
204
205
202
203
201
198
194
185
187
185
180
177
170
175
173
180
183
189
184
184
186
194
193
190
198
190
184
181
177
177
173
174
170
168
172
176
174
178
177
175
174
171
169
168
167
175
173
174
183
184
190
195
211
217
212
209
207
197
196
190
192
194
199
195
192
178
177
181
178
165
166
176
187
189
185
194
196
199
204
205
199
201
202
210
213
206
204
207
209
202
204
205
204
204
200
197
195
192
186
183
183
178
173
176
176
176
176
179
183
185
185
183
190
193
195
202
198
196
186
185
185
182
174
176
176
175
179
179
182
184
182
182
177
182
174
174
172
176
175
174
178
188
190
189
201
217
210
210
214
206
197
192
191
193
194
195
195
191
179
178
177
171
177
188
186
188
187
194
193
200
209
202
194
206
213
215
212
211
209
204
201
200
199
204
202
202
194
193
186
186
183
183
179
173
173
172
174
173
172
180
180
180
183
185
183
194
194
197
207
190
192
193
190
184
185
185
184
180
183
187
182
181
186
188
187
183
181
176
174
174
182
180
183
191
196
192
202
210
220
206
213
218
197
191
194
187
192
194
190
194
189
177
174
172
186
190
186
187
186
189
202
211
208
196
199
208
212
213
207
211
203
196
193
197
199
198
196
190
187
186
182
181
183
178
178
173
173
170
168
173
172
178
182
177
182
187
186
192
193
198
199
192
192
196
197
195
199
202
195
196
196
195
191
189
186
186
188
187
185
183
181
178
182
186
190
193
201
198
205
206
222
213
211
217
207
189
193
190
190
193
190
190
197
170
165
175
190
183
181
182
193
203
210
219
205
202
206
209
210
207
208
210
200
195
193
195
197
190
188
185
182
179
178
179
182
177
176
174
173
171
169
170
172
178
182
179
185
188
192
194
197
198
195
196
197
196
196
199
204
204
204
202
200
201
198
194
193
193
189
189
189
184
188
185
180
182
182
194
195
202
199
203
206
219
213
209
208
196
192
191
192
190
193
192
192
158
169
178
188
171
172
185
199
210
215
217
209
201
205
211
211
210
206
206
197
190
193
190
189
185
180
181
177
175
176
174
175
175
174
174
171
173
172
174
175
177
183
184
191
193
197
200
199
203
200
197
201
197
199
199
200
201
203
204
201
200
202
201
195
198
193
191
185
186
189
187
184
183
174
188
191
196
195
197
198
207
222
208
208
199
191
192
191
186
194
191
189
161
162
182
184
174
183
203
211
213
220
219
207
200
202
206
213
211
201
202
193
188
185
183
181
179
177
175
174
176
176
174
172
174
174
174
174
175
174
175
173
180
183
190
194
196
199
196
201
205
201
201
201
199
204
201
199
199
201
203
202
203
198
199
197
200
195
190
186
184
188
186
180
184
186
176
192
190
196
196
200
199
221
221
202
195
191
188
189
189
186
191
182
164
175
185
176
176
187
203
209
216
229
213
199
200
198
206
206
202
198
192
187
182
181
181
179
178
176
173
173
176
174
169
170
169
171
173
175
177
177
173
177
183
185
192
195
194
197
195
199
205
203
203
201
202
209
205
202
204
200
198
202
199
201
197
197
196
198
191
185
183
178
181
181
182
188
179
193
200
202
202
192
194
213
222
217
193
192
191
181
186
188
184
176
164
175
186
182
178
196
206
213
229
221
199
195
197
204
200
192
193
192
187
188
184
180
182
179
174
174
175
175
174
171
168
166
168
168
169
168
173
175
178
179
185
184
193
194
195
195
195
198
199
199
199
198
198
203
203
203
206
207
199
199
197
198
198
196
195
192
192
187
180
176
180
179
183
179
190
190
200
198
203
197
201
210
224
218
205
194
194
175
184
188
183
176
174
178
191
183
182
194
206
221
216
209
192
189
195
198
191
192
189
188
183
185
183
183
182
178
177
177
175
172
171
168
167
167
170
171
170
172
179
181
181
184
186
188
191
195
194
194
198
198
196
197
196
196
198
194
195
197
200
203
202
202
198
199
197
195
194
191
191
188
184
172
179
175
182
179
188
189
193
201
197
196
202
198
221
221
208
194
198
181
176
191
181
180
180
174
188
183
184
200
202
209
202
201
180
190
196
187
185
187
190
184
179
182
179
183
181
179
177
175
170
166
165
167
167
169
172
172
172
175
180
180
183
186
186
186
188
191
192
193
194
197
194
192
197
193
193
194
195
196
196
198
199
198
201
201
200
196
195
194
195
192
191
178
169
174
174
179
184
185
190
200
198
196
199
197
215
215
218
197
191
183
176
181
182
178
175
175
184
186
191
212
212
202
207
187
178
190
187
181
184
180
181
175
175
178
178
183
178
175
172
169
168
163
165
167
168
170
173
173
176
174
180
179
182
184
183
183
186
190
191
190
189
192
189
190
190
190
190
193
195
195
197
199
201
199
203
201
201
197
195
197
196
194
195
189
174
169
171
176
179
180
187
193
199
198
195
197
204
210
212
207
185
183
174
179
177
179
171
182
184
193
205
213
210
209
206
182
185
191
181
177
177
176
174
173
178
178
175
179
173
171
168
166
166
165
165
167
167
169
172
174
177
179
179
181
179
182
182
180
186
190
187
186
186
190
183
184
186
189
191
195
193
196
197
201
204
205
204
202
202
201
201
200
201
197
193
190
180
168
173
174
175
180
184
194
197
201
205
199
199
199
202
199
188
175
179
177
177
174
172
186
184
200
204
207
218
207
197
192
188
179
175
172
175
172
172
176
182
176
175
178
170
168
169
165
167
166
168
169
170
170
174
176
179
184
183
180
182
181
181
183
187
191
185
183
186
184
181
178
184
189
193
196
199
202
204
208
210
206
206
206
208
206
205
201
200
200
195
191
181
173
171
173
176
180
176
188
195
199
196
205
206
203
192
192
183
167
173
179
179
176
181
190
190
197
194
210
215
200
199
194
185
175
174
172
175
173
170
177
176
176
180
178
175
177
174
169
171
171
172
173
170
175
176
178
180
185
186
183
187
185
184
187
190
194
187
184
184
180
179
178
186
192
199
207
215
215
214
214
215
213
208
209
209
207
205
205
203
202
197
194
189
180
174
177
173
178
178
180
193
197
197
204
214
213
193
188
180
166
174
175
181
179
194
193
185
190
190
197
207
201
200
198
180
174
177
172
176
173
173
177
179
180
187
186
186
187
184
179
177
176
174
170
172
176
179
183
184
187
189
188
191
189
187
188
194
197
189
186
184
183
184
185
193
199
203
205
214
217
215
215
218
219
215
212
211
211
205
206
205
206
201
196
194
184
178
177
175
177
179
180
185
191
197
201
210
211
201
192
187
175
177
176
171
176
201
185
181
188
188
202
211
211
203
191
172
171
180
171
169
169
174
179
178
181
186
185
186
184
185
181
187
187
189
189
190
187
192
193
190
196
196
192
196
197
192
191
198
199
195
194
200
197
195
196
201
202
204
205
210
208
209
208
209
214
213
209
209
206
205
202
203
207
202
200
194
193
184
180
181
174
181
172
183
186
193
203
204
204
202
196
192
180
176
176
172
170
193
188
174
189
185
205
209
212
202
188
175
179
172
167
165
169
177
178
181
182
186
185
184
182
182
184
180
174
185
192
197
189
192
191
189
185
190
183
186
187
185
186
188
190
187
187
191
188
189
187
195
196
206
202
207
204
202
205
209
212
211
214
210
206
206
207
205
205
202
196
198
197
187
182
184
182
181
170
178
186
192
197
205
197
201
198
194
183
178
171
173
174
189
191
173
176
185
206
213
205
205
188
176
177
167
158
164
166
178
186
186
190
193
197
198
195
193
186
184
184
188
187
191
188
186
186
183
175
184
188
191
183
187
185
183
181
186
183
186
189
189
189
194
193
198
201
197
193
192
197
203
206
207
210
212
211
212
207
208
208
207
201
196
202
197
187
187
193
185
177
178
183
184
196
206
194
197
205
190
183
180
170
170
175
191
191
166
168
193
205
200
213
204
182
177
181
163
151
165
175
183
183
189
200
197
200
196
191
187
184
185
187
197
198
196
189
186
183
188
176
190
193
190
187
185
186
181
184
185
184
185
191
192
191
193
188
195
205
187
179
195
195
199
200
199
203
200
203
201
202
199
202
201
199
192
190
192
182
179
183
188
190
187
180
185
186
196
193
192
204
194
181
177
170
171
174
187
187
171
173
191
199
205
214
195
181
182
169
163
156
171
177
173
186
193
192
187
181
176
172
168
169
167
172
181
185
186
182
174
170
183
181
189
190
185
184
178
179
178
187
185
188
186
191
192
187
194
192
201
202
199
184
189
195
185
191
195
199
197
196
192
192
197
197
197
194
187
185
185
181
174
176
186
180
190
188
182
190
191
185
194
200
204
183
178
171
169
179
190
187
182
178
200
185
215
199
189
180
172
165
157
152
165
169
172
184
185
181
181
172
171
163
168
171
174
187
194
202
199
197
203
202
197
190
183
187
182
181
185
182
173
174
180
181
182
186
185
187
194
194
202
200
204
203
201
195
191
189
188
192
191
197
191
191
197
198
201
198
191
191
183
180
178
168
182
179
190
192
187
193
194
189
199
199
200
196
179
173
171
172
198
177
181
191
194
183
217
202
192
178
171
169
150
147
159
161
171
178
181
177
178
170
174
175
182
187
191
197
196
203
187
184
195
196
184
182
176
186
185
186
182
191
184
169
178
177
187
191
192
191
197
198
204
198
202
206
201
202
201
199
194
205
207
208
199
198
199
200
207
207
203
197
193
182
171
167
179
178
181
192
186
191
195
201
195
203
194
191
194
174
175
163
204
177
187
198
196
196
206
191
184
178
175
160
146
149
154
161
180
179
178
174
182
175
175
186
200
195
193
196
195
196
184
187
193
188
178
182
182
192
186
188
185
185
203
170
181
179
190
198
197
187
190
187
196
201
198
204
198
204
210
204
202
208
208
212
208
203
203
204
207
209
209
205
206
192
180
173
179
174
171
189
183
190
202
196
200
198
183
189
184
183
178
161
193
184
204
201
198
198
192
186
175
176
178
154
142
146
149
170
174
164
168
168
180
185
184
196
202
193
201
206
195
195
195
195
197
190
185
181
180
188
186
183
177
189
179
168
186
181
183
197
195
196
205
196
192
197
198
202
204
208
210
208
211
208
207
206
208
196
196
207
204
205
198
206
211
213
191
180
184
179
174
187
182
198
199
178
195
197
180
178
175
183
189
168
187
204
208
204
207
202
202
190
181
178
182
159
145
139
159
177
184
178
176
181
188
195
194
206
200
200
203
207
196
195
194
191
187
186
190
180
178
184
182
182
175
186
172
180
204
195
184
196
195
203
206
202
196
190
196
203
199
199
204
204
207
197
190
193
206
199
211
214
210
204
196
196
203
215
194
179
178
181
181
183
187
205
194
177
200
199
180
176
179
187
181
178
190
219
208
201
207
211
210
204
187
185
182
151
152
140
175
176
196
181
178
186
188
191
199
208
204
204
216
212
214
211
218
205
203
198
202
189
182
197
191
196
181
179
164
187
197
195
189
192
201
202
202
209
198
197
198
198
194
193
204
207
200
188
177
182
194
198
203
210
207
205
199
196
187
197
186
169
178
178
185
179
181
203
197
188
207
208
183
171
178
189
178
178
194
210
204
203
205
218
217
205
188
194
177
166
162
137
177
193
202
185
176
184
182
185
201
211
195
200
222
210
223
222
216
201
205
199
198
186
200
197
188
186
185
186
187
193
191
183
174
187
191
184
190
198
192
187
183
180
174
190
198
199
189
196
189
187
185
182
190
190
190
198
207
194
182
178
170
154
173
175
173
174
180
187
184
201
212
202
189
166
174
185
184
175
191
205
210
211
198
224
224
208
189
192
183
165
163
141
179
203
201
177
173
185
191
191
203
204
175
188
224
224
233
218
204
192
199
204
196
188
205
194
191
179
185
182
203
204
197
185
184
197
190
188
190
196
193
175
179
171
158
172
177
179
171
187
186
180
178
172
187
184
186
185
203
190
185
179
171
161
163
157
148
157
181
175
172
206
206
198
189
167
173
181
182
175
197
201
214
215
201
230
223
207
192
184
182
150
160
175
189
191
198
179
180
200
203
206
211
203
190
206
215
212
222
213
204
194
194
204
185
183
205
195
195
182
183
172
185
197
181
181
187
195
183
191
188
195
197
181
176
166
155
166
174
174
171
188
178
183
190
189
192
194
186
191
190
181
188
173
163
167
164
150
136
157
178
175
168
204
203
191
180
168
172
183
190
178
195
202
215
219
209
240
222
212
184
186
185
152
155
185
183
192
200
178
191
208
200
202
205
213
214
216
218
215
212
208
194
197
204
194
162
174
188
194
201
190
185
180
186
188
167
180
176
188
177
186
181
186
200
191
168
162
165
164
162
168
168
177
175
184
191
200
191
191
189
199
201
198
195
170
151
171
159
153
140
157
172
178
174
204
207
195
178
167
171
183
194
176
198
212
212
224
226
231
218
196
180
183
190
155
166
178
184
197
205
183
193
199
194
204
210
214
214
218
211
215
207
206
196
201
208
190
172
186
185
188
193
193
183
169
180
183
162
170
171
189
179
188
185
186
202
204
183
172
172
175
175
175
178
177
176
189
194
189
184
186
186
185
201
206
211
190
157
178
173
166
158
157
153
187
174
203
207
191
190
174
175
194
192
178
212
225
214
240
243
238
233
184
173
177
187
169
156
167
190
209
208
184
196
198
199
199
204
203
205
217
223
220
219
209
210
208
200
191
192
190
187
197
189
187
180
165
179
179
170
162
180
197
185
194
184
183
191
197
194
192
183
189
194
201
200
193
199
203
213
205
202
196
191
192
200
207
210
200
168
178
173
167
170
156
165
178
165
194
206
187
197
185
188
203
191
188
224
226
217
249
255
239
248
190
169
170
176
161
144
158
184
202
201
177
206
202
199
202
198
199
205
214
215
217
217
210
208
206
191
200
199
186
191
198
197
190
172
172
186
178
183
171
180
204
193
189
186
189
181
187
206
194
189
188
198
205
206
205
203
203
211
207
201
200
193
192
190
197
202
190
168
173
177
174
168
147
172
177
154
185
201
197
202
192
204
213
190
184
219
216
204
240
250
227
238
196
172
164
167
148
139
157
191
190
196
180
205
203
200
200
196
201
206
215
218
214
208
206
201
198
181
195
194
191
197
201
197
195
171
184
177
176
178
179
172
196
197
177
173
185
182
182
204
203
188
192
196
197
199
201
198
193
199
202
190
189
189
190
186
184
187
173
163
168
175
183
166
131
169
172
142
173
186
187
209
202
212
221
195
177
219
204
197
231
241
218
216
207
170
166
159
153
143
160
205
189
192
176
194
196
193
192
197
202
210
213
210
205
202
199
193
178
186
187
185
190
187
188
197
189
181
182
170
164
167
171
166
176
190
171
165
172
177
175
190
204
186
186
192
194
196
197
195
199
197
200
198
195
198
197
182
180
178
165
156
166
169
182
173
127
167
163
138
160
187
188
202
202
210
215
198
176
211
203
194
221
233
231
206
207
171
168
156
157
151
162
198
187
179
172
187
192
190
190
195
199
205
216
213
212
208
203
193
177
192
189
183
187
185
184
191
180
186
175
168
164
168
172
166
170
173
167
157
164
174
172
179
192
189
182
189
192
192
190
194
196
203
207
203
205
204
199
192
190
179
168
162
161
171
180
161
135
167
160
144
169
192
185
205
199
215
207
195
176
210
205
197
217
236
236
220
197
179
164
155
158
150
169
180
191
173
176
183
187
191
197
205
208
210
214
211
210
202
198
179
196
195
196
191
190
183
191
171
175
186
175
175
167
171
173
175
175
178
163
156
170
169
176
177
185
196
195
193
190
186
187
184
189
199
201
209
207
208
204
201
194
188
182
168
160
166
176
156
166
163
163
147
178
199
195
211
195
214
198
194
182
198
213
211
219
238
241
230
202
185
171
153
159
154
166
168
200
177
177
190
190
196
205
210
214
218
217
219
213
203
196
199
203
189
185
179
186
186
185
166
189
194
184
175
167
177
176
185
181
187
175
154
174
170
184
181
185
194
200
191
188
187
193
196
190
199
196
207
209
199
202
211
195
191
189
173
166
169
176
180
158
161
170
158
173
202
214
204
197
207
198
199
180
186
214
215
217
238
241
231
201
186
188
161
153
156
167
168
194
196
181
194
193
198
200
204
212
215
217
216
208
198
199
206
195
181
178
176
182
186
167
175
197
198
185
172
170
171
172
178
179
190
186
168
158
162
171
184
184
188
197
201
195
191
192
199
205
206
208
206
205
189
189
204
201
199
193
181
178
181
183
182
154
168
172
165
172
199
216
204
197
205
203
201
182
185
209
217
214
240
239
227
196
182
173
173
161
159
168
178
175
212
187
196
201
197
202
203
203
200
200
195
200
198
199
192
182
170
171
180
190
177
167
198
197
196
188
179
176
167
166
170
172
181
185
174
164
169
166
174
185
193
191
200
203
199
197
201
202
208
205
201
195
189
190
203
202
208
208
195
192
180
170
169
168
170
172
169
183
190
214
211
202
198
208
208
178
198
203
219
220
233
243
228
199
174
168
165
169
167
159
184
165
202
209
193
194
195
197
196
193
181
185
196
195
194
190
181
170
166
161
185
184
172
188
184
186
195
186
184
175
169
163
167
177
183
184
174
173
172
176
174
179
190
192
189
194
197
198
200
204
208
206
205
198
203
206
206
210
209
199
193
198
179
174
172
178
179
174
181
191
203
218
219
214
192
213
206
175
212
196
221
224
226
236
224
205
170
176
165
171
169
167
184
165
186
204
199
183
187
189
195
190
189
181
183
185
177
177
171
170
171
169
181
188
190
185
173
185
193
190
176
171
170
163
168
180
189
186
172
179
182
181
175
182
191
190
193
189
196
207
206
206
206
205
207
206
213
213
206
204
199
190
188
187
179
176
177
181
178
174
183
190
212
225
219
213
189
205
206
175
220
195
215
222
228
228
221
196
176
178
175
166
167
173
182
184
174
177
189
198
206
209
206
201
198
188
182
178
173
174
183
183
181
183
180
188
195
179
176
178
190
187
171
171
168
165
168
176
185
181
180
181
198
193
195
185
195
190
188
189
190
208
210
205
205
207
202
206
205
203
201
201
191
184
184
180
181
173
181
180
169
187
180
195
213
232
222
203
199
207
196
175
208
198
207
223
231
220
222
198
179
188
179
175
168
167
171
185
165
160
174
178
184
192
193
193
190
189
187
186
182
190
196
186
181
183
191
191
189
185
181
183
184
178
173
174
176
170
169
171
183
182
177
190
199
207
216
212
209
206
196
184
185
197
200
197
195
194
193
193
197
194
193
193
186
181
184
185
177
178
183
182
161
190
183
195
213
246
210
206
209
213
187
173
194
191
199
224
230
215
216
205
188
197
195
181
177
178
173
159
179
161
169
172
178
187
188
190
189
189
193
188
189
196
198
197
188
191
190
187
186
185
184
181
181
176
174
182
187
175
169
171
185
186
183
194
198
211
226
224
223
221
215
201
194
202
189
188
186
190
187
185
189
191
193
190
194
193
189
183
183
188
182
181
162
180
187
194
222
243
207
214
215
208
182
172
184
180
193
207
225
228
215
202
205
200
200
198
184
180
181
172
165
170
177
170
175
185
191
199
199
199
202
197
197
205
205
195
186
186
186
192
187
179
181
181
183
183
185
186
187
167
172
172
190
193
203
200
205
208
213
218
223
218
217
219
217
213
194
188
188
193
185
189
190
192
196
196
200
199
198
185
186
192
183
186
170
182
187
194
222
240
214
219
216
207
180
172
176
175
191
196
212
238
228
204
192
206
192
207
196
180
180
176
175
175
178
179
178
185
193
201
206
202
203
210
203
201
202
186
189
192
190
186
185
184
183
182
184
179
174
170
178
176
180
179
193
198
209
205
210
205
201
202
210
214
204
210
219
215
205
199
198
191
190
189
187
194
197
196
196
196
197
193
196
196
193
187
174
187
185
193
213
235
220
212
214
198
181
172
169
175
187
194
202
226
239
214
193
208
198
212
201
179
182
177
172
175
176
183
185
189
192
202
209
208
207
212
208
198
201
196
190
186
180
189
189
202
185
174
168
166
177
177
188
193
201
198
196
197
202
214
219
218
212
207
203
209
201
200
203
200
194
198
198
195
196
197
195
199
202
197
193
193
194
201
195
195
195
186
180
181
186
189
211
230
220
211
200
190
180
174
165
172
185
189
204
208
240
223
201
209
212
212
209
177
179
173
176
179
181
186
190
193
197
202
214
211
211
207
200
192
195
185
187
183
184
197
200
198
190
177
171
175
194
201
198
208
208
202
191
189
200
208
212
218
217
210
206
209
203
202
196
182
181
187
192
194
193
196
196
194
198
194
192
196
195
183
197
194
194
190
184
185
184
182
215
233
228
208
189
186
180
175
173
159
178
183
201
206
225
224
201
209
211
210
214
178
176
176
173
181
184
187
189
192
194
200
210
208
203
194
191
188
187
184
188
189
188
202
200
198
185
179
178
183
201
214
200
205
216
199
195
190
196
197
205
214
215
215
203
207
208
203
197
190
185
175
180
187
188
192
191
191
196
201
201
192
188
181
190
198
180
191
192
190
183
182
217
238
227
201
183
184
184
171
181
156
183
178
187
208
214
213
189
210
200
205
205
178
178
177
181
180
179
185
183
188
198
210
200
194
199
193
193
188
187
190
188
191
186
207
200
199
188
191
192
192
205
217
204
204
218
208
215
200
202
203
202
219
215
218
214
212
216
206
200
189
188
183
184
183
183
185
184
187
190
196
197
184
179
182
183
191
180
200
195
187
186
190
227
232
233
196
181
182
182
177
181
165
176
176
176
198
211
215
189
214
194
202
202
174
171
180
183
181
181
179
179
187
204
191
192
187
196
192
191
185
193
189
187
190
188
202
204
197
195
198
202
209
210
208
204
208
211
208
213
209
200
210
202
221
215
218
218
218
221
206
201
188
186
182
181
178
179
186
181
185
187
188
190
187
184
184
183
192
188
203
190
189
185
199
233
228
236
188
179
185
174
179
183
165
171
175
164
184
201
216
196
216
193
209
201
174
171
186
186
181
180
179
181
193
191
187
189
192
189
186
187
187
195
189
190
185
185
200
206
202
194
194
201
207
201
199
202
198
195
203
202
207
204
203
205
217
224
214
218
219
218
206
208
189
183
184
178
175
174
178
180
185
185
184
186
182
185
188
186
191
193
200
195
194
182
209
230
229
234
179
181
180
170
179
183
168
168
181
164
176
185
209
196
212
200
208
198
174
173
187
190
182
182
183
185
193
184
187
187
187
183
187
190
186
187
186
187
180
189
193
195
195
195
192
189
199
193
192
185
194
188
198
194
199
198
202
208
214
227
217
222
221
215
207
207
195
184
179
177
178
176
174
178
183
186
180
185
178
186
196
191
195
197
199
200
194
186
208
229
238
213
179
185
176
168
184
178
178
167
183
167
176
177
208
191
196
206
200
189
178
176
192
191
186
185
187
184
193
179
186
183
187
185
192
191
181
183
183
181
185
197
196
192
190
190
187
185
193
187
185
183
193
192
185
186
192
193
192
203
208
215
212
222
222
222
208
209
198
183
180
175
183
177
175
180
181
190
183
184
180
187
197
198
202
197
203
198
192
181
205
227
231
195
185
184
170
169
191
171
176
175
179
168
174
177
202
197
181
203
189
179
176
173
190
190
188
181
185
183
190
181
186
187
185
187
192
186
175
184
177
179
185
196
202
196
192
185
180
191
191
190
185
185
183
185
188
183
186
187
186
192
201
200
203
215
222
219
216
217
202
193
183
180
181
180
178
182
185
194
188
189
183
189
194
199
202
200
205
198
191
185
210
216
219
192
184
184
163
169
190
167
171
184
179
169
180
178
199
203
174
184
187
177
173
174
190
190
183
180
188
181
194
190
188
186
185
184
185
183
181
190
180
185
195
202
207
198
199
187
194
202
197
193
183
182
179
182
191
186
184
185
194
195
198
197
206
210
218
220
216
216
210
205
194
188
188
185
177
183
188
192
188
189
191
191
192
194
199
199
200
197
190
191
219
212
207
192
188
181
163
172
189
163
171
176
187
177
194
179
204
207
181
168
195
180
176
192
179
193
182
184
189
185
192
191
186
186
181
182
184
187
193
203
196
198
209
213
219
207
207
195
198
202
200
196
196
193
186
187
193
192
192
198
198
197
200
203
208
216
211
215
221
210
207
204
199
197
189
191
180
181
186
192
193
195
189
192
195
189
190
196
184
188
186
191
213
206
194
191
188
176
166
171
188
163
173
168
184
178
204
193
207
209
185
159
196
197
185
200
183
191
183
185
189
185
186
190
187
183
178
178
186
191
202
203
207
218
222
216
225
217
212
202
203
200
204
202
199
192
187
186
185
189
185
183
178
175
187
190
200
209
207
206
215
208
206
203
202
197
197
195
190
185
188
192
191
197
187
192
192
189
186
187
171
176
184
183
200
198
195
187
187
173
166
169
186
175
171
176
177
171
196
199
208
213
188
165
182
199
194
198
197
187
189
188
187
186
193
194
184
175
182
178
190
198
201
201
214
222
217
214
214
213
209
195
199
200
195
189
186
182
178
177
170
174
173
172
174
170
177
183
187
198
197
194
205
198
193
196
196
194
196
195
196
187
188
191
188
195
186
186
186
186
184
183
165
173
181
181
192
194
194
188
183
170
165
170
185
179
176
177
169
184
186
196
204
219
201
167
164
201
196
196
201
193
192
191
184
187
189
195
182
179
179
183
196
200
195
204
210
213
207
204
193
196
199
190
185
193
194
182
186
185
176
179
166
169
170
171
175
171
169
178
182
185
188
178
191
183
189
187
191
192
194
197
197
191
190
191
186
195
191
185
179
190
181
179
161
174
182
184
193
193
192
188
183
164
164
171
184
173
184
177
175
192
176
186
212
222
210
174
162
189
201
199
197
200
194
190
187
193
192
193
190
194
185
186
201
201
199
202
198
193
201
198
185
184
186
195
187
190
196
194
197
191
181
186
159
165
171
168
175
174
167
179
181
177
185
164
171
171
177
179
182
185
196
196
201
194
187
192
188
190
187
179
181
185
179
176
156
175
173
188
190
191
193
193
178
162
163
166
182
175
176
174
188
196
174
196
211
219
217
185
167
181
207
201
200
204
193
191
190
197
194
186
199
196
195
190
202
207
204
200
188
186
193
200
188
186
179
192
195
193
203
208
213
211
205
212
188
188
192
188
195
190
193
204
187
184
182
161
158
166
170
169
175
183
197
197
201
194
183
184
190
185
184
177
181
184
182
173
160
170
169
188
194
190
201
193
174
165
160
164
182
171
168
174
188
189
176
198
213
216
220
194
175
191
208
200
202
202
197
198
192
199
192
191
205
197
194
201
211
216
208
202
188
182
197
201
187
182
185
191
193
201
213
217
218
224
214
216
202
198
199
194
195
188
192
197
179
181
188
181
171
172
180
184
176
187
189
197
200
191
185
182
184
180
185
178
186
183
181
172
161
166
175
192
199
199
197
190
175
161
161
164
177
166
167
181
182
178
187
198
211
210
220
204
180
184
211
197
199
195
198
204
194
198
194
194
209
206
203
204
209
219
213
200
192
187
186
194
189
186
197
194
185
198
203
203
205
200
195
205
190
187
185
175
172
180
180
188
182
182
194
189
184
195
190
193
176
174
176
181
199
192
187
178
181
185
182
177
189
179
179
174
163
165
182
201
202
194
193
184
174
158
156
165
172
168
172
178
173
180
194
195
210
209
217
221
191
185
192
191
188
183
188
204
198
194
192
193
207
210
207
209
208
201
193
193
189
183
179
184
186
189
193
190
185
192
201
184
187
192
191
194
196
185
187
186
183
190
188
190
192
186
201
200
197
204
194
193
180
174
173
177
188
190
188
180
188
182
188
182
183
180
179
179
162
167
189
206
199
182
188
182
168
166
157
163
171
178
174
171
176
179
192
185
211
212
209
221
207
184
187
185
181
179
181
200
197
187
187
191
201
205
204
200
209
197
184
183
183
187
186
181
174
180
183
180
176
181
196
192
186
187
180
174
187
187
194
199
191
197
201
204
200
199
197
203
198
199
194
189
193
182
178
184
182
190
193
181
188
185
182
189
181
185
182
176
163
172
189
208
192
180
185
172
172
164
164
163
166
174
179
173
174
187
189
177
203
212
206
218
214
192
190
188
183
180
177
197
196
180
184
188
197
197
196
198
204
186
187
179
174
185
193
185
176
180
180
172
168
170
185
184
181
181
182
187
195
198
203
212
210
210
215
214
200
199
195
199
198
197
200
192
196
188
183
188
183
187
190
187
184
189
183
196
183
185
192
168
161
174
197
200
193
183
172
173
170
165
164
165
164
174
174
180
183
189
190
181
186
203
197
204
213
205
193
187
186
187
183
192
194
182
184
186
198
194
202
190
195
188
187
178
180
187
198
197
186
192
188
177
168
159
177
176
185
188
183
194
201
211
211
215
211
209
207
207
201
195
196
190
197
203
195
197
198
190
186
188
181
183
185
184
184
188
187
194
188
189
194
164
166
184
201
199
191
181
172
172
175
166
161
165
164
168
175
182
183
188
192
186
184
184
188
198
208
215
198
185
182
186
188
183
194
191
189
186
200
193
207
191
188
190
189
184
186
195
194
188
190
198
199
197
182
178
179
184
189
192
191
194
200
212
215
212
208
211
206
206
202
198
200
196
198
202
196
200
199
197
194
190
182
178
184
185
183
189
186
197
182
194
189
159
171
186
196
192
190
176
164
167
170
163
157
164
165
163
175
176
181
191
193
190
180
177
179
196
202
215
213
191
182
187
184
174
191
196
189
188
194
196
204
192
185
196
190
194
202
208
206
192
194
201
202
195
191
191
183
183
187
192
201
204
209
210
209
206
200
211
213
212
211
212
211
206
206
201
210
208
206
203
198
193
184
174
178
191
184
187
182
190
177
195
176
165
181
192
191
187
189
165
161
162
162
158
152
161
162
174
181
181
184
196
190
188
185
187
186
191
199
207
222
197
184
186
184
171
180
202
191
190
197
190
207
191
186
199
192
198
214
216
218
208
206
216
209
204
200
198
199
185
188
189
198
203
203
205
202
205
205
212
209
216
214
219
215
213
211
213
208
198
201
196
191
193
189
174
178
188
188
182
188
181
184
190
165
173
189
193
187
186
181
168
162
157
158
158
158
167
162
180
179
182
198
196
187
187
193
193
192
191
203
209
212
214
189
189
185
174
173
204
195
189
200
186
197
188
192
192
193
200
202
208
214
218
216
217
218
211
205
206
203
193
194
192
198
204
198
200
199
203
200
204
200
209
212
211
212
218
207
201
195
190
193
188
185
195
185
178
179
187
188
181
189
176
182
186
159
180
197
195
189
182
175
171
165
159
155
162
161
171
163
178
176
193
201
195
193
191
197
191
190
190
205
211
209
217
196
178
186
178
166
195
200
193
192
189
188
184
192
196
186
198
198
187
204
212
213
213
226
211
218
212
201
194
192
184
192
191
200
197
195
193
195
200
195
202
210
204
210
205
198
198
189
187
183
184
187
186
185
180
184
193
188
177
180
176
182
177
174
185
197
194
184
183
177
173
166
159
156
158
166
173
167
176
191
196
196
196
198
194
193
191
193
196
201
213
214
206
189
173
194
186
173
180
205
196
188
191
177
182
193
194
186
192
193
177
185
194
205
213
220
220
227
224
215
202
201
192
201
197
205
197
200
191
202
204
202
212
213
200
204
201
200
194
189
188
182
184
183
183
182
184
192
192
186
179
177
174
184
170
180
196
197
194
176
185
185
171
166
162
160
155
162
177
170
183
192
194
199
196
191
195
196
191
192
202
194
217
215
197
176
182
197
191
177
176
196
205
188
192
173
186
188
191
188
191
181
174
167
182
192
201
214
211
219
213
217
215
212
204
209
209
220
209
205
204
210
205
209
209
204
196
196
203
202
186
190
185
181
183
180
187
183
189
193
196
182
178
176
163
177
179
177
200
201
187
179
177
184
181
172
168
161
159
160
169
180
190
193
192
205
198
189
189
198
192
192
199
193
213
220
188
174
182
191
188
186
175
187
203
189
195
177
190
180
186
186
189
179
177
166
171
183
189
201
201
207
199
208
213
208
204
215
211
212
207
203
207
206
204
205
201
199
195
198
200
199
187
186
183
177
181
178
186
184
193
194
190
187
177
163
167
171
178
185
197
200
178
178
176
187
193
176
171
164
156
159
167
181
183
189
198
205
194
185
186
191
191
187
190
197
208
209
195
174
183
179
178
192
176
196
195
198
198
186
188
181
187
185
183
178
177
170
174
178
181
189
193
198
185
197
194
191
193
198
197
199
199
197
206
202
205
197
199
197
201
197
197
188
188
186
182
178
183
184
182
187
193
193
190
189
173
159
174
177
174
190
194
192
184
182
179
182
199
186
174
165
162
164
172
169
188
195
199
203
196
186
179
182
181
187
203
198
194
199
196
176
184
174
171
182
198
202
192
199
198
192
191
181
187
184
184
182
182
172
174
174
176
183
193
192
188
190
191
182
184
187
188
193
193
201
199
202
203
195
198
196
200
189
190
186
184
179
179
177
182
184
177
183
187
192
189
189
161
171
166
178
187
186
194
190
188
189
187
179
193
188
184
169
169
173
173
171
182
191
196
197
190
178
171
184
182
184
216
195
190
188
191
177
186
169
169
187
203
197
195
196
199
198
196
185
192
189
184
184
188
173
176
176
179
181
196
188
186
191
194
190
182
188
186
191
190
199
192
197
200
194
196
196
194
187
182
185
179
180
178
179
174
179
178
182
184
193
182
180
162
178
164
183
188
184
192
187
187
193
188
188
190
194
185
180
173
176
178
173
173
182
186
185
176
177
178
189
190
199
209
191
184
188
183
174
191
167
178
197
190
194
193
205
204
202
199
192
195
190
179
183
189
176
174
173
180
180
189
189
185
196
196
192
181
188
183
183
184
191
191
192
197
194
196
194
190
191
184
182
176
185
177
179
174
177
173
183
187
189
182
172
169
176
179
183
181
185
196
188
183
202
186
187
194
197
199
198
191
189
193
182
178
183
186
179
174
186
196
198
200
200
204
177
183
184
174
172
198
170
188
191
180
195
189
206
216
203
201
194
196
184
181
181
179
183
174
173
179
184
184
184
184
194
196
191
189
190
191
182
190
196
193
194
194
188
190
189
190
184
187
182
174
185
179
174
177
174
172
182
184
181
188
171
169
177
185
194
172
185
186
191
180
199
190
189
192
193
202
196
199
196
196
195
182
185
184
185
187
197
207
204
196
204
195
165
181
178
172
176
201
180
189
179
179
193
191
203
220
209
199
193
197
183
187
185
180
180
174
177
188
179
182
182
178
187
196
187
187
195
194
185
195
191
195
189
190
186
185
185
181
181
182
180
178
180
177
178
172
171
175
181
179
182
189
175
169
177
178
202
178
182
185
184
180
187
196
188
188
193
200
199
194
202
200
200
188
188
193
195
201
208
207
201
187
204
191
170
175
164
169
188
191
183
185
181
177
193
196
200
213
215
207
195
189
192
184
189
182
180
177
181
185
171
180
181
177
183
191
183
185
192
187
187
195
188
190
189
186
183
181
176
173
173
176
179
177
174
174
173
167
173
179
174
181
186
189
185
167
174
178
186
193
173
183
185
179
181
192
191
181
183
191
203
200
207
211
210
192
197
204
195
195
204
197
197
188
201
190
175
174
147
170
188
184
190
184
184
173
192
195
189
208
211
217
199
197
184
185
192
187
180
185
182
180
173
169
183
183
182
188
180
180
184
186
187
193
188
182
187
178
176
178
170
168
172
172
172
172
171
171
174
167
171
181
174
184
195
190
186
165
166
180
178
194
173
183
183
184
181
189
192
178
174
183
195
199
204
213
208
197
201
199
187
196
197
203
194
184
197
186
172
164
149
162
180
184
198
183
186
177
186
188
184
200
217
208
211
208
193
187
186
188
185
184
179
167
174
173
184
182
183
177
174
177
182
177
186
181
178
184
179
173
171
170
164
168
168
172
168
167
175
176
177
171
176
184
179
188
194
187
187
169
158
175
180
186
178
183
183
180
186
187
195
180
176
176
185
188
197
206
207
191
191
190
182
186
198
202
186
186
195
188
172
165
157
151
172
192
201
184
180
181
178
187
181
191
204
201
216
210
208
198
185
181
180
181
171
167
174
175
180
175
179
172
170
171
173
173
178
172
176
173
175
169
169
164
164
165
165
173
165
174
176
176
181
175
178
187
180
192
188
187
187
169
158
172
181
186
183
182
186
174
186
192
193
193
175
174
187
188
193
198
199
184
182
179
181
181
202
197
185
184
196
180
171
168
157
144
167
189
200
185
177
174
174
187
183
191
191
206
212
209
213
201
194
181
182
184
173
177
177
176
174
175
170
167
171
166
168
165
167
163
167
168
171
168
168
163
165
169
172
172
173
171
176
178
184
177
181
187
181
192
185
189
185
160
163
167
182
187
187
186
187
173
182
189
189
195
176
173
182
190
193
193
191
187
185
182
184
190
201
200
187
189
194
170
173
170
152
149
173
187
197
176
178
169
162
185
184
194
187
198
207
205
212
203
205
193
186
181
170
179
184
169
175
175
167
170
166
162
163
161
157
156
163
162
161
168
167
168
171
169
175
174
174
176
182
182
184
181
187
181
187
183
187
193
170
154
174
163
179
184
193
185
186
179
183
188
187
193
179
181
178
185
195
198
199
182
185
183
190
189
200
195
185
193
190
170
173
169
160
149
182
187
200
183
171
169
160
182
191
193
190
194
199
202
208
202
208
204
192
179
182
185
178
176
178
180
171
174
162
161
159
159
156
160
163
166
165
168
170
174
171
175
174
177
175
181
181
184
187
188
182
174
188
189
189
180
163
163
170
165
176
191
195
188
182
178
183
193
189
194
185
178
183
186
196
198
201
191
188
188
190
189
198
181
184
189
188
170
169
156
172
162
189
187
201
186
175
169
156
176
185
199
193
187
199
193
204
198
201
204
196
191
189
190
184
186
185
186
172
175
173
161
163
161
164
170
170
171
169
168
171
173
173
177
176
179
185
188
185
188
192
185
181
172
188
193
194
162
165
162
170
163
181
195
198
191
179
185
179
192
191
197
189
174
183
178
195
198
200
192
187
191
190
190
195
182
180
192
183
168
163
157
186
175
188
189
195
187
178
172
159
168
182
194
197
191
199
189
198
196
196
188
198
200
193
194
189
194
192
189
174
183
177
170
174
176
178
178
177
175
175
169
173
179
181
178
183
183
192
194
190
193
186
185
179
171
191
194
182
157
171
158
174
166
180
205
198
196
177
188
181
186
192
200
194
172
181
177
191
196
191
191
183
181
187
182
189
187
183
187
170
170
168
172
185
182
185
197
196
183
183
173
162
164
177
186
189
186
199
197
194
198
187
186
196
202
207
196
198
198
195
190
186
190
181
183
186
184
183
183
177
178
177
176
180
184
184
183
193
185
198
194
190
186
186
186
184
169
194
191
168
167
167
163
173
177
176
207
209
200
181
179
179
190
186
193
198
180
174
182
188
197
187
