P2
# Face with average contibution
92 112
255
202
200
198
197
191
193
194
196
195
194
194
202
195
187
192
198
205
216
219
220
225
229
225
222
221
225
232
225
231
225
217
210
218
226
217
206
207
211
217
211
216
216
210
207
210
211
207
207
208
200
198
200
203
198
191
190
184
190
187
188
190
187
191
191
190
185
188
189
182
178
172
180
178
185
185
185
183
188
188
185
189
187
198
185
185
186
180
179
181
179
178
178
199
199
196
196
192
198
195
195
194
195
202
197
196
191
197
202
214
217
223
224
223
229
222
225
217
223
228
224
227
220
212
211
211
212
210
211
209
216
218
211
210
213
206
210
207
206
207
203
203
205
200
201
204
205
204
190
188
197
196
191
197
186
186
188
185
191
186
188
181
178
180
179
181
181
185
192
187
187
185
189
190
191
194
196
191
188
187
183
182
185
178
180
198
198
200
199
197
193
194
193
192
199
210
203
201
203
211
211
216
217
219
221
226
226
221
222
224
227
221
216
214
209
202
206
203
206
210
214
213
212
216
211
204
209
205
208
209
205
201
201
201
198
205
198
200
206
201
201
196
197
199
200
189
185
189
187
179
182
189
190
185
183
184
177
174
181
188
183
191
190
185
186
195
193
193
191
190
186
193
187
185
185
181
181
197
198
196
198
196
194
197
196
198
198
204
203
209
210
218
214
215
203
209
219
226
228
231
225
225
220
218
210
203
199
198
200
200
204
212
206
217
212
218
217
208
203
208
199
201
198
202
194
192
190
192
191
194
193
198
193
198
202
199
193
184
186
191
187
189
180
182
192
190
187
182
177
176
175
183
181
186
194
195
187
194
200
190
191
192
191
187
190
188
188
186
180
199
198
195
194
192
195
202
197
200
203
206
211
211
214
218
211
212
203
211
223
232
220
228
227
218
213
212
203
198
200
202
204
204
207
205
213
213
214
215
214
205
207
207
197
190
187
187
192
190
189
187
188
193
192
194
197
201
201
192
191
181
179
182
183
183
186
187
186
191
193
184
177
181
183
180
173
180
191
198
191
186
194
191
189
186
195
194
186
189
188
188
186
197
196
193
192
194
200
200
203
209
216
211
212
211
209
209
200
212
211
216
222
224
217
215
209
207
206
206
193
200
210
209
212
208
201
209
210
212
209
208
204
201
206
201
196
190
191
187
181
185
185
188
185
188
197
193
197
201
208
192
190
185
187
183
182
173
186
188
184
186
191
201
192
185
186
183
178
180
188
192
192
193
193
195
196
189
185
196
187
190
190
182
187
192
194
196
191
198
204
203
205
214
222
208
215
208
207
199
202
217
220
217
218
216
206
206
203
197
197
199
201
207
210
211
206
212
211
205
214
219
216
211
209
204
203
210
206
201
197
195
183
190
190
181
182
188
192
203
197
196
206
193
188
190
190
189
182
184
177
193
189
193
191
197
198
199
187
189
186
183
191
196
185
193
191
187
195
198
191
192
192
186
188
186
188
192
192
195
192
199
201
217
216
213
213
208
208
203
204
207
211
214
217
211
208
206
205
206
195
191
193
196
201
210
222
208
205
214
212
204
210
217
216
209
212
207
208
209
204
211
206
207
203
203
199
190
189
189
197
196
198
191
201
195
181
188
188
187
185
187
189
191
192
192
200
192
192
199
190
189
191
188
190
187
193
188
190
184
186
195
192
192
193
188
186
183
189
195
191
195
195
205
208
217
223
222
217
204
201
209
211
211
215
214
222
210
200
201
194
199
195
197
201
204
210
214
212
210
212
214
212
216
209
212
212
208
201
200
201
204
195
203
204
201
200
201
196
190
195
203
195
200
196
193
198
207
188
189
187
188
186
185
192
195
194
195
197
199
197
197
194
193
189
194
189
179
183
186
186
182
182
185
187
187
188
189
187
185
188
196
196
198
200
210
216
222
221
219
215
210
205
211
212
208
217
212
212
207
204
203
190
202
202
196
204
203
199
193
206
210
215
209
212
210
210
207
207
202
198
200
195
199
190
198
191
199
197
197
192
188
199
207
200
199
196
194
199
206
198
195
198
194
192
187
190
197
196
195
197
201
203
197
188
189
191
193
191
185
177
183
185
186
186
189
189
193
186
189
194
190
190
197
196
201
208
214
224
223
217
212
206
215
211
201
198
206
204
200
202
206
203
205
196
199
198
195
190
187
186
192
202
200
207
207
202
202
204
202
204
197
196
196
192
195
194
195
194
192
191
193
186
195
200
204
213
208
197
199
201
200
201
198
208
196
191
195
191
191
195
194
192
208
206
198
193
190
189
197
194
186
186
180
183
180
182
186
190
194
190
192
192
191
187
196
196
203
209
219
228
222
213
207
207
206
198
198
201
195
195
201
196
199
208
206
199
194
189
191
183
179
187
190
197
195
203
207
196
202
200
192
204
201
198
191
195
189
194
196
191
187
188
191
194
200
205
205
211
208
204
204
204
198
192
194
206
206
197
197
196
191
195
193
192
204
214
212
203
198
196
184
197
191
184
180
182
180
184
187
185
188
190
192
192
192
190
196
201
206
221
222
223
218
207
206
202
199
191
193
195
189
196
203
198
198
206
204
199
186
184
181
176
179
191
192
192
197
197
201
195
194
197
194
195
199
189
185
181
187
187
192
188
189
189
190
190
204
199
202
205
210
207
201
208
208
200
190
200
202
196
188
192
196
193
191
188
198
208
209
211
212
209
193
185
196
186
183
178
178
181
187
186
183
184
187
188
191
188
197
208
213
213
221
213
210
207
200
197
193
189
189
187
187
200
202
200
200
203
197
187
184
180
177
181
188
185
197
197
195
191
191
189
183
192
188
195
189
181
182
176
185
184
187
188
185
191
190
196
201
198
198
205
210
206
202
206
207
201
197
200
200
199
190
189
192
194
194
195
187
200
209
207
219
225
208
189
186
185
188
180
177
171
189
187
185
186
193
188
187
188
197
214
208
212
215
209
208
201
193
189
177
181
180
184
184
197
198
199
197
191
195
186
184
185
185
192
189
187
191
186
194
191
191
191
192
190
185
191
188
185
186
184
185
188
187
186
184
192
188
197
200
197
197
204
207
207
203
204
198
192
192
201
200
199
196
188
187
186
193
201
195
196
204
208
218
218
218
208
190
186
189
184
183
177
178
187
187
186
186
192
188
193
201
207
205
210
207
210
204
194
189
182
177
180
177
179
185
187
184
185
187
186
190
186
191
197
192
197
190
191
191
191
186
189
185
191
192
176
180
190
184
189
185
181
184
190
189
191
189
193
192
193
196
193
198
202
200
198
202
205
196
183
178
193
193
198
201
179
178
183
192
200
202
199
198
195
205
207
218
215
201
191
190
183
180
179
181
184
181
192
189
188
190
189
200
200
200
204
203
199
195
194
195
183
178
174
173
180
182
176
174
173
180
187
184
195
198
194
191
195
194
188
193
187
188
191
184
183
182
181
184
187
190
188
186
183
184
191
187
190
189
196
191
195
192
192
193
193
197
196
199
204
197
190
178
190
192
188
195
187
176
181
189
201
201
196
190
193
194
204
217
212
212
192
183
187
179
176
184
194
185
192
196
186
182
186
201
199
198
202
199
191
193
190
190
182
172
176
173
175
177
175
172
172
184
188
190
200
199
191
189
189
189
186
192
189
187
190
179
180
181
183
183
190
193
186
192
186
190
190
190
191
190
197
189
195
192
192
189
195
196
197
195
204
194
187
184
181
192
182
189
185
183
171
181
198
200
189
185
192
190
195
212
218
207
201
190
186
181
181
182
182
190
189
194
189
186
180
202
198
205
205
200
195
193
192
185
178
167
173
169
170
173
173
175
184
186
187
198
202
193
193
187
187
189
187
186
188
185
187
184
185
187
185
187
187
193
189
190
194
190
192
186
190
195
198
194
194
195
186
191
193
205
197
204
203
200
190
183
187
188
185
185
182
178
179
180
192
198
193
190
190
189
182
195
212
213
199
194
187
190
182
181
184
186
187
192
195
194
183
189
196
201
206
201
195
199
190
184
173
165
170
171
173
180
181
185
188
188
191
196
197
195
189
192
189
184
180
184
187
187
191
187
186
190
192
188
186
189
194
191
198
194
190
195
196
200
198
203
197
196
189
190
196
200
205
204
208
203
200
193
193
190
189
178
181
183
170
179
190
196
199
190
186
193
184
174
196
210
203
198
191
196
187
183
187
185
190
187
189
189
182
188
195
197
206
207
194
197
188
180
166
170
176
179
179
181
186
185
185
188
192
195
196
195
192
194
193
183
180
185
189
187
189
188
187
192
191
188
188
191
194
195
197
196
190
197
201
201
201
202
199
190
196
194
195
200
205
210
209
213
205
209
207
199
198
178
182
186
175
175
180
194
196
188
189
188
189
174
183
206
206
203
198
197
195
185
185
187
195
191
183
188
189
183
192
204
205
206
201
196
188
176
174
177
182
185
186
186
183
186
190
191
194
195
197
195
195
197
192
186
186
183
187
190
189
187
192
192
195
190
192
196
199
199
203
196
195
200
201
208
203
204
197
197
195
196
197
200
206
208
215
217
212
213
210
199
202
189
183
186
179
177
182
193
199
192
189
188
191
187
180
193
203
206
203
194
198
191
184
178
186
185
182
191
191
182
196
211
202
212
205
193
184
177
180
176
186
191
188
186
180
189
191
192
189
193
195
197
195
194
184
184
186
188
189
191
189
192
195
196
197
196
200
203
209
206
205
202
199
199
207
210
205
208
203
198
196
205
199
205
211
205
210
213
215
220
217
209
199
197
194
187
184
178
184
194
201
196
194
192
191
196
185
187
198
200
206
197
199
193
192
181
175
182
180
186
196
186
202
207
209
209
202
186
187
182
180
186
197
196
193
183
187
186
189
189
190
190
198
193
190
188
188
186
189
195
193
194
196
200
201
206
208
205
208
212
215
212
208
207
209
206
209
210
209
208
205
201
200
205
207
208
212
206
211
209
210
218
218
217
215
203
200
199
189
180
186
195
199
199
197
194
193
196
190
193
195
198
204
206
199
196
189
193
176
176
175
180
198
197
206
205
207
210
194
189
188
179
183
200
199
198
189
186
189
185
186
186
188
187
190
192
188
192
194
194
198
201
198
201
210
209
209
213
214
213
216
215
216
213
214
213
213
207
213
209
208
205
202
206
203
206
203
204
209
212
208
206
207
210
214
217
218
207
206
206
194
186
188
193
201
194
198
196
191
191
189
197
191
200
208
213
200
203
199
192
186
172
181
177
191
199
203
206
209
207
194
191
187
181
194
194
193
194
191
187
187
188
186
183
184
187
189
193
194
196
204
204
201
200
207
213
217
214
215
216
217
214
214
217
216
214
218
218
214
211
212
208
207
205
201
206
205
204
200
201
201
208
207
204
202
201
206
212
217
214
209
208
200
188
184
196
197
195
190
195
197
197
189
196
197
197
206
212
214
207
200
189
187
178
182
180
191
197
200
204
204
204
193
189
189
186
195
190
190
191
190
186
184
185
188
187
191
195
198
200
199
202
208
205
202
204
213
217
219
216
217
218
220
216
215
219
215
216
219
219
214
208
210
208
206
206
202
205
208
207
203
201
200
202
200
201
200
201
197
206
210
216
207
211
200
191
185
196
198
199
195
196
197
199
195
193
203
198
201
209
217
207
204
193
179
186
176
180
185
199
205
205
202
208
193
195
188
188
196
194
192
192
185
188
186
188
192
195
196
201
203
204
205
207
208
205
211
214
218
218
217
216
218
217
218
219
220
221
214
213
217
215
211
208
207
208
204
204
205
204
205
203
202
202
198
201
201
197
195
196
195
198
203
208
206
207
205
190
189
200
202
200
198
196
199
198
195
193
201
197
188
204
212
209
204
198
177
182
189
183
181
198
203
202
206
203
203
192
187
187
195
194
197
187
187
189
188
193
199
201
206
205
212
211
206
208
210
211
217
221
219
220
219
219
219
217
219
216
216
218
213
215
217
212
209
205
203
207
204
203
204
201
200
199
198
199
201
198
198
196
197
196
192
193
195
196
200
205
199
188
189
204
208
203
203
200
202
200
195
193
197
201
186
191
208
207
203
198
184
176
190
193
182
189
196
207
212
199
205
189
186
193
194
197
192
187
191
187
195
196
202
209
208
212
212
213
210
209
216
217
221
221
220
220
217
218
215
212
217
217
217
214
212
213
214
211
208
203
202
207
207
203
202
201
197
197
195
197
198
199
188
188
192
190
191
192
192
193
193
198
196
188
190
198
208
207
210
207
205
209
197
193
198
198
196
197
206
202
203
202
184
180
177
192
191
188
196
212
217
200
201
190
192
193
197
197
191
192
192
190
194
198
204
209
211
215
216
216
216
214
219
221
219
220
217
217
217
215
211
208
212
214
213
210
206
209
210
209
206
202
201
205
205
204
202
198
195
194
194
196
200
196
187
184
188
186
188
191
187
191
191
189
194
192
192
196
199
205
213
215
209
208
200
190
199
198
200
201
204
197
203
205
186
180
177
178
192
189
198
220
220
199
203
192
192
195
197
196
194
194
199
193
196
201
206
210
211
217
217
217
214
216
219
218
218
216
214
213
214
209
204
206
210
209
209
206
202
201
206
201
201
201
199
200
201
202
202
201
193
190
191
193
197
188
186
183
184
181
181
187
186
186
189
191
188
188
191
196
195
204
213
211
215
209
210
196
190
193
202
200
205
193
196
206
194
180
183
179
186
187
205
217
223
197
202
192
192
197
202
198
200
203
202
195
202
204
207
213
210
214
214
217
214
213
218
217
218
213
209
208
210
205
202
203
204
203
201
202
199
197
201
198
195
195
191
195
197
199
198
199
192
185
179
185
186
183
181
176
181
177
172
176
180
177
183
188
188
184
187
193
192
191
201
208
213
214
208
205
194
193
201
199
210
202
186
204
189
183
181
183
183
190
211
216
224
204
200
191
191
201
199
203
206
211
204
199
204
211
213
211
208
205
206
203
201
206
213
213
214
212
207
208
210
208
204
204
198
199
198
196
197
194
191
187
187
186
188
194
192
193
195
191
186
184
180
179
181
186
181
177
173
169
171
169
170
174
176
182
189
184
187
186
187
184
191
196
205
213
210
205
196
196
200
200
199
203
192
191
188
177
183
183
184
191
212
222
222
209
203
195
198
197
196
196
202
207
204
195
200
206
208
207
198
197
199
195
200
200
204
203
201
198
201
200
203
204
203
203
201
201
196
194
197
190
186
181
184
180
185
185
185
189
191
191
182
184
184
180
186
183
183
179
176
175
175
174
171
173
178
178
185
184
183
182
184
177
176
187
198
205
210
211
202
193
197
202
198
190
201
190
183
172
178
184
184
188
214
226
229
204
203
197
197
198
191
191
201
202
198
195
195
199
200
198
189
194
198
196
194
197
198
197
197
198
201
198
200
202
201
203
205
200
200
199
202
196
195
192
192
190
195
192
195
191
197
203
196
195
186
191
191
187
185
182
187
181
178
176
178
178
179
181
183
185
182
181
186
181
178
174
190
199
208
209
211
197
193
200
200
192
198
201
187
176
175
184
190
190
217
228
221
203
202
202
201
197
188
191
203
201
193
189
188
189
194
193
191
192
193
191
191
187
187
193
199
199
202
205
205
203
199
203
207
197
198
196
196
195
194
195
196
196
201
198
200
199
204
211
209
208
199
201
201
201
202
197
195
191
179
178
179
182
182
186
189
183
188
187
188
187
178
174
181
192
206
209
219
207
195
193
199
193
199
204
196
180
178
184
195
190
215
226
215
206
209
206
200
196
188
193
199
196
186
186
184
186
191
189
185
187
187
185
184
183
187
189
190
194
194
199
199
198
196
194
201
194
191
191
192
195
191
197
197
199
201
204
202
204
207
211
210
205
195
196
198
199
197
195
191
190
181
181
178
179
183
186
193
186
190
190
192
189
184
179
179
189
198
214
217
221
203
197
192
202
204
208
204
187
177
176
200
186
211
226
214
210
208
208
194
196
191
194
195
190
180
183
182
192
190
191
182
186
184
184
186
189
193
196
191
196
195
198
198
190
193
187
191
189
185
191
195
202
204
203
203
205
200
206
207
205
208
207
203
197
192
188
194
193
190
193
191
192
177
183
179
182
186
181
187
192
189
191
191
196
190
183
184
188
193
206
210
224
217
201
197
211
197
204
197
192
179
168
195
181
206
226
217
215
208
209
202
200
205
203
204
199
194
196
203
206
191
192
187
186
185
190
192
191
193
197
200
204
206
208
209
200
193
186
191
194
189
190
193
205
217
215
214
209
206
203
200
199
196
194
190
188
184
183
180
179
184
186
189
183
178
189
180
185
185
185
187
192
195
194
193
199
192
188
190
193
190
194
197
221
213
210
205
217
196
204
196
181
177
173
179
181
206
222
220
223
206
215
210
207
210
206
204
206
206
206
218
210
202
195
194
189
196
197
199
200
203
202
207
206
205
206
189
186
187
185
180
186
183
180
184
198
206
204
211
206
197
187
189
181
182
187
195
192
190
178
172
188
170
164
167
165
169
177
178
190
187
190
193
193
188
186
180
184
183
170
171
178
169
179
194
198
211
204
204
212
211
200
195
176
175
180
176
186
195
220
226
220
208
211
203
206
203
197
198
200
207
208
213
202
196
196
197
191
192
185
190
186
192
197
204
202
204
207
203
198
204
200
194
193
191
186
190
204
211
200
211
201
184
184
186
186
194
196
205
212
198
190
189
204
199
184
190
179
178
178
189
196
197
201
205
200
198
200
193
190
189
180
170
176
174
173
189
189
192
191
196
207
227
212
185
176
178
181
179
182
194
219
223
211
205
207
194
201
193
192
184
184
193
188
187
178
179
179
179
178
180
185
195
186
187
197
205
202
197
201
204
204
205
200
201
195
190
192
199
206
208
206
207
202
184
189
187
199
204
210
217
220
208
194
198
203
207
201
215
202
206
204
191
185
190
190
194
193
205
207
200
199
201
201
181
186
180
189
201
210
210
181
183
191
217
205
185
170
179
187
184
179
194
217
222
202
201
203
190
192
187
176
176
171
173
185
187
185
191
180
189
192
194
189
192
198
182
185
199
194
195
193
199
194
208
198
199
197
199
205
207
204
210
206
201
207
196
198
193
204
208
213
221
216
215
200
201
210
208
198
230
214
209
205
201
203
195
191
187
188
203
206
195
194
193
197
184
194
181
180
204
214
217
191
191
213
195
191
189
165
177
192
184
182
190
210
222
199
195
194
180
183
183
178
186
184
187
179
197
196
190
186
187
205
192
186
176
186
183
181
183
187
197
197
196
186
180
180
178
174
172
184
187
178
184
185
180
197
180
191
181
187
195
210
213
201
220
231
227
216
203
209
216
228
219
208
200
216
202
188
181
184
201
205
188
185
186
190
176
192
192
187
200
213
211
202
191
227
225
176
178
163
174
192
187
169
182
190
224
206
194
186
176
189
198
197
208
200
197
193
189
207
180
193
186
196
194
178
174
181
176
173
184
193
198
195
197
193
185
173
171
165
168
174
173
168
167
177
184
181
169
172
181
177
182
196
184
189
197
208
229
216
210
212
202
205
209
216
202
210
196
180
178
177
198
214
207
202
194
192
176
179
192
197
193
213
207
207
188
223
233
209
162
169
174
185
189
167
180
186
202
207
203
181
182
206
215
212
222
212
210
217
212
191
197
198
193
198
193
181
182
172
178
175
185
197
196
192
187
188
194
184
172
168
170
175
187
190
177
188
189
193
188
189
200
204
188
195
178
182
191
191
203
189
200
200
192
193
207
208
200
196
194
189
185
180
187
214
214
209
204
207
188
174
186
189
191
202
204
200
186
216
232
221
176
181
169
184
190
172
173
185
197
204
198
194
201
209
225
226
232
231
222
226
218
193
215
209
209
200
190
191
187
190
198
190
182
197
191
191
191
196
202
197
188
184
180
184
188
203
187
187
197
206
205
213
223
203
190
182
186
172
189
191
199
191
195
197
190
196
207
193
193
194
202
206
198
193
198
205
209
205
196
199
201
180
186
192
195
193
211
203
188
217
223
200
187
168
167
174
193
177
176
185
201
215
209
205
226
221
224
229
238
247
235
209
203
216
235
231
220
197
201
208
207
205
207
202
193
184
193
172
184
201
199
191
180
181
183
193
190
202
201
193
206
216
208
213
206
195
182
176
185
178
180
189
208
202
212
191
184
198
201
202
208
208
212
204
193
192
190
195
202
202
191
190
207
192
188
195
197
196
200
203
203
223
204
180
169
161
142
175
190
181
166
182
212
227
226
210
215
232
224
219
234
241
222
231
206
232
252
223
206
199
215
219
223
213
214
212
205
187
196
190
201
199
196
195
189
184
187
191
200
210
206
198
213
218
212
213
196
180
177
173
183
184
173
194
218
208
217
189
184
193
186
191
216
211
199
182
190
195
189
187
201
204
192
194
201
204
196
198
189
193
187
205
210
221
194
181
179
155
127
163
193
178
178
164
209
223
235
232
212
229
235
220
226
218
210
237
211
231
252
227
202
203
218
219
222
215
212
204
201
198
200
203
218
190
215
203
197
198
205
193
197
212
198
199
214
215
211
211
209
185
185
173
175
183
183
197
211
211
230
196
201
201
192
195
199
199
193
184
178
198
198
203
205
211
195
191
181
196
190
191
198
200
179
198
207
214
187
177
185
175
139
150
192
174
178
175
193
208
216
223
215
227
227
218
224
208
191
209
192
214
228
220
210
206
196
186
210
208
202
209
213
201
201
206
205
207
208
200
191
185
204
200
205
202
183
194
208
213
218
212
220
213
202
190
181
178
193
196
203
212
236
206
198
209
198
195
193
184
183
178
185
197
193
205
194
195
168
178
184
193
194
182
190
199
181
198
202
213
185
182
185
164
158
149
183
174
184
194
195
197
212
206
213
222
220
215
220
199
176
182
181
202
210
210
207
206
195
180
195
212
216
216
211
198
197
202
202
198
196
190
190
177
184
188
200
196
181
191
202
195
200
215
227
217
204
188
189
188
191
201
196
217
248
217
204
197
202
197
183
179
176
172
181
196
211
185
190
184
166
168
187
207
207
185
174
193
181
185
187
207
185
177
180
161
167
157
172
173
183
174
181
181
199
202
216
220
209
217
217
207
188
187
170
199
210
208
204
214
210
192
195
203
215
217
215
206
203
196
204
196
187
188
185
184
183
198
197
190
166
177
179
167
175
209
229
216
197
180
188
189
184
197
196
202
236
219
203
206
199
193
185
192
200
183
191
197
216
194
197
182
170
176
190
210
220
196
176
198
180
173
183
195
190
166
165
158
170
164
164
175
179
168
160
168
187
199
222
217
204
216
222
213
200
197
174
208
222
215
206
208
214
205
197
205
215
216
215
209
209
206
203
192
185
186
184
191
187
198
200
178
162
183
178
175
180
202
210
219
194
177
178
175
183
184
185
195
210
211
194
196
184
179
184
185
188
186
191
195
204
201
201
191
184
181
186
187
195
184
174
198
182
173
176
187
185
162
166
149
175
165
174
176
185
178
174
172
186
200
215
218
207
217
221
212
202
202
179
211
219
217
211
205
205
203
207
206
210
209
212
206
201
212
192
190
187
184
192
198
211
207
203
200
188
198
191
188
207
214
204
206
199
183
183
172
177
187
178
186
192
198
194
188
180
172
177
182
184
190
192
193
188
186
183
187
184
183
180
179
190
178
172
191
187
177
181
181
188
169
151
147
182
178
181
185
183
178
183
195
186
191
204
209
207
214
211
203
198
204
176
200
210
207
201
188
182
181
187
195
195
200
203
206
203
206
196
196
188
192
198
199
207
202
196
198
211
203
194
206
191
206
190
201
202
195
198
182
180
187
188
184
187
199
198
189
187
178
173
173
171
180
190
183
184
181
189
188
182
180
186
183
199
190
171
190
188
176
185
178
189
178
154
153
173
179
180
184
186
177
192
200
185
189
185
197
199
209
207
200
197
196
177
205
206
203
195
187
179
178
187
194
195
207
211
217
211
212
205
200
190
191
211
203
199
195
205
201
210
195
198
209
190
192
186
196
201
196
195
190
182
189
189
191
188
196
201
190
186
183
175
177
170
183
184
177
180
184
177
185
188
184
198
201
201
193
181
194
193
185
183
177
185
187
147
150
178
186
179
183
197
183
201
193
181
202
196
191
189
204
202
193
194
192
191
203
208
202
194
189
186
182
197
201
204
216
219
215
214
210
205
196
195
198
207
207
196
209
211
204
194
193
210
206
198
187
188
185
193
191
193
188
185
191
192
199
201
202
213
205
195
197
191
183
184
185
190
185
193
197
190
192
194
195
192
197
200
200
196
201
201
195
195
182
199
190
142
147
177
199
179
169
203
193
197
193
184
202
209
188
188
188
195
194
194
196
200
203
209
204
196
192
188
189
204
206
213
219
215
208
205
208
211
203
196
203
205
190
192
210
211
205
187
197
197
203
201
192
191
194
193
191
193
186
181
178
195
204
204
210
213
214
217
217
215
204
197
195
193
195
200
208
206
199
191
190
186
190
199
208
208
203
198
199
190
196
217
191
156
163
181
192
173
174
203
199
195
190
181
197
205
184
191
177
182
187
189
197
203
208
216
208
203
197
191
197
201
206
207
212
213
205
205
205
209
207
202
205
202
196
201
214
216
199
196
208
195
195
193
188
191
199
194
188
191
185
181
178
189
201
205
209
215
214
210
209
207
207
206
204
206
210
207
202
202
194
186
188
192
191
196
208
212
201
188
196
187
203
219
170
172
171
180
188
169
182
197
201
193
179
171
194
186
187
182
181
173
182
186
192
197
199
197
200
195
192
191
194
197
204
210
211
211
210
205
209
204
201
202
204
205
202
203
214
210
205
203
210
204
192
183
183
195
200
194
187
179
188
172
179
180
196
205
209
209
218
210
207
204
193
200
200
199
205
203
193
193
192
195
193
195
191
201
205
211
192
199
190
192
205
193
169
182
187
180
185
174
186
197
207
186
169
153
187
178
178
177
174
185
183
177
186
193
193
195
194
191
195
192
194
199
207
216
222
217
214
203
197
191
196
203
205
200
201
200
210
215
213
205
207
207
196
183
184
189
199
191
188
179
170
178
175
181
182
196
202
205
212
207
207
207
205
194
195
194
198
200
199
195
195
200
194
197
194
201
209
206
188
212
195
191
182
193
166
185
203
190
186
182
180
190
216
189
167
142
170
180
173
178
181
191
191
177
183
184
196
193
204
188
187
183
189
196
209
218
218
211
204
200
187
186
191
192
197
199
201
208
217
214
209
210
214
211
202
187
186
186
183
188
181
177
171
173
184
181
180
181
193
200
206
203
205
205
205
210
205
197
197
200
199
195
197
197
195
196
194
204
206
198
191
209
190
180
188
211
172
186
222
210
191
188
191
181
207
200
173
146
159
175
179
180
184
198
187
181
184
186
190
192
201
206
195
177
173
180
196
207
198
196
189
193
188
179
188
193
199
209
213
213
212
213
216
221
223
212
208
191
185
186
175
178
177
173
177
177
182
193
187
181
187
204
210
202
196
202
199
198
202
214
207
209
208
200
200
196
196
190
195
206
199
195
198
200
183
187
200
210
173
199
226
209
196
189
185
187
188
194
187
157
155
166
174
183
182
195
197
186
180
184
192
195
197
200
195
197
191
190
199
207
204
204
205
195
190
187
192
191
196
198
206
210
216
216
222
228
231
221
213
203
200
193
180
175
178
180
179
189
188
190
200
191
189
201
208
209
200
205
201
195
199
204
206
208
217
209
206
201
192
192
208
205
203
198
205
211
192
187
196
208
173
214
226
192
198
182
182
194
192
171
184
171
164
176
171
186
185
199
196
192
188
183
189
192
189
195
189
187
192
196
196
203
208
203
201
193
188
190
188
188
189
186
199
201
208
212
220
233
234
217
212
203
208
202
193
175
177
183
188
193
201
199
197
201
196
196
203
210
198
205
207
203
203
202
209
208
211
204
202
195
199
202
204
208
204
208
222
211
198
189
194
200
195
225
221
193
204
201
185
188
210
176
166
183
163
185
183
186
191
200
195
197
186
185
197
195
190
194
190
186
196
197
186
195
194
193
192
184
185
189
187
183
182
191
203
208
203
203
210
222
226
207
202
198
206
202
188
171
175
182
188
192
199
204
200
190
196
206
203
196
190
195
204
198
202
203
202
208
205
195
201
205
206
201
201
211
200
207
219
206
192
193
200
202
222
222
203
199
211
206
198
187
200
191
176
179
177
184
189
185
188
200
191
196
188
183
187
190
193
194
194
186
188
189
188
187
182
184
184
180
189
186
182
183
197
214
218
220
222
211
207
213
220
207
191
198
211
197
192
185
184
185
185
189
190
192
188
189
192
208
199
204
201
191
190
192
194
197
196
203
205
207
210
204
201
201
207
213
196
206
221
203
188
204
199
215
236
212
191
206
209
210
219
186
188
200
188
180
179
199
185
194
186
204
192
195
186
181
185
187
195
192
192
194
184
179
186
186
176
175
174
177
190
179
183
190
193
210
208
206
208
206
212
212
206
208
201
198
207
202
203
206
197
195
191
191
188
190
187
191
190
201
196
198
196
195
196
193
196
199
197
197
202
206
205
198
201
201
206
211
196
212
210
197
198
214
197
230
237
207
184
210
212
207
213
196
180
207
190
183
176
200
194
203
186
207
197
192
188
178
182
188
189
188
190
197
191
185
191
191
178
175
166
166
180
176
181
181
186
196
197
189
193
194
211
204
209
208
197
197
202
202
210
216
209
193
188
192
194
195
194
197
193
188
193
192
190
192
184
184
196
198
192
196
198
205
203
204
205
206
210
213
201
214
207
197
205
214
198
233
239
205
194
209
204
206
199
192
185
195
200
184
181
196
200
209
195
208
205
184
183
181
184
190
188
187
190
197
188
186
192
195
183
178
173
173
177
183
185
181
187
190
193
193
195
199
219
208
210
205
203
203
204
201
208
216
213
191
187
190
192
191
194
196
188
184
188
188
187
186
187
184
192
193
193
197
199
202
206
206
203
206
209
213
203
216
212
196
207
207
205
239
234
205
200
216
199
205
198
178
175
201
202
192
182
191
195
211
205
209
203
181
181
183
184
191
195
189
193
198
190
187
190
195
188
183
179
181
183
187
187
187
187
197
202
203
205
206
224
225
214
210
207
205
211
201
208
215
208
203
193
198
202
206
194
192
189
187
185
185
179
183
195
192
192
195
186
196
197
199
205
202
203
206
209
216
205
215
212
196
206
203
224
242
227
199
209
215
199
218
198
181
171
188
200
200
188
188
193
208
212
208
192
182
171
180
185
194
197
195
190
196
192
189
191
193
189
188
188
184
189
195
194
197
205
216
219
224
220
228
225
235
225
208
210
216
213
202
201
208
207
210
197
199
207
211
207
201
194
193
180
175
180
183
192
193
191
192
186
196
196
201
203
198
204
205
211
213
207
212
205
198
207
214
240
238
207
199
212
210
206
220
199
187
176
187
192
202
204
202
204
206
218
208
187
180
171
178
191
196
198
194
190
192
190
190
192
195
192
194
192
190
196
199
200
213
230
233
227
229
230
220
220
222
221
209
212
214
215
205
195
191
195
205
207
201
204
212
210
210
204
189
178
174
179
187
192
193
194
188
187
193
196
200
200
197
203
202
210
214
202
210
211
210
209
227
237
223
201
199
212
206
209
217
201
188
183
187
188
198
209
216
219
216
222
207
185
177
166
176
197
196
198
190
188
190
187
186
194
198
200
198
194
195
202
207
217
223
234
233
224
216
218
213
212
208
208
198
197
200
198
198
202
186
183
192
198
196
205
215
215
217
206
195
185
180
180
180
187
186
186
187
190
190
198
197
194
197
202
203
206
212
201
206
211
207
216
234
225
206
200
202
206
200
215
200
193
188
184
185
188
193
203
219
226
220
220
205
184
173
175
174
198
197
193
188
186
184
180
190
201
200
201
203
199
198
211
213
223
223
220
222
217
208
208
214
208
206
217
198
202
205
198
190
197
193
179
182
182
184
203
211
221
220
212
203
194
187
188
182
183
182
183
190
190
193
197
197
192
193
203
204
203
211
203
202
207
201
214
226
215
197
197
201
198
204
218
193
191
184
183
183
183
185
198
217
224
221
217
202
190
178
176
179
193
198
192
189
191
184
183
191
200
195
196
198
205
217
218
219
229
226
216
216
216
206
201
208
210
210
223
204
201
197
190
177
177
178
175
176
176
181
200
210
216
223
218
202
197
197
191
200
188
192
194
197
195
189
199
198
193
196
202
199
200
205
200
200
199
193
206
214
204
194
199
199
199
203
216
194
196
189
184
179
183
180
189
205
225
222
219
206
186
180
180
181
191
196
194
194
201
192
194
189
189
188
194
206
213
210
212
215
221
217
212
216
215
207
206
204
200
200
208
202
190
187
184
180
181
185
179
177
184
190
204
208
207
217
216
204
206
201
207
204
206
200
203
206
204
204
192
204
194
200
198
196
203
202
207
197
190
189
201
210
199
195
201
202
200
207
210
200
197
196
190
180
178
177
185
194
218
223
217
206
191
185
180
181
189
196
193
197
200
199
194
182
182
185
193
200
200
199
202
207
207
208
212
210
205
214
210
207
199
202
207
198
189
187
193
192
184
186
188
185
196
197
203
203
195
207
213
211
213
212
213
208
206
214
211
214
214
215
205
204
204
199
195
193
200
200
208
189
188
188
202
203
196
198
203
201
204
205
207
194
191
197
196
184
180
176
180
196
206
222
217
207
196
188
186
182
185
194
196
195
196
197
192
185
187
186
186
183
180
183
188
194
196
200
204
205
204
205
207
216
208
213
212
205
196
192
200
192
187
188
189
191
208
202
208
200
197
209
208
210
221
212
211
214
213
218
218
219
216
217
205
209
211
198
191
193
198
205
209
185
189
189
205
199
194
206
202
201
203
209
208
191
184
191
196
192
185
182
181
192
202
213
217
209
197
189
183
186
182
192
196
192
197
191
193
185
185
179
178
171
170
173
175
178
185
203
202
205
208
209
212
223
215
218
220
212
206
203
208
207
204
204
201
198
209
213
222
208
211
210
204
200
210
212
207
214
218
221
223
218
215
206
205
201
212
203
189
193
200
207
206
186
184
194
207
201
198
210
198
203
204
211
207
186
184
185
193
193
188
183
178
186
196
206
220
213
202
193
183
182
178
189
195
197
194
197
191
186
173
163
169
172
168
172
176
179
183
200
206
213
212
215
223
226
225
228
229
220
214
211
218
215
213
211
198
198
191
206
219
206
198
215
215
202
204
219
215
211
224
224
214
214
212
199
201
202
210
203
195
195
202
210
202
183
190
196
211
203
208
209
199
200
204
212
202
187
185
183
190
193
188
185
179
179
194
200
214
219
207
196
190
180
177
186
198
199
197
200
195
187
178
175
169
172
175
174
178
181
181
186
200
210
210
217
215
212
214
222
213
207
207
201
208
203
199
195
187
179
175
182
196
195
185
199
211
207
207
221
215
207
216
210
201
206
206
197
197
202
203
199
199
199
204
209
196
186
192
205
210
208
211
208
200
198
205
210
199
180
187
181
189
191
187
191
182
174
188
198
208
215
207
190
191
177
174
182
194
198
196
201
200
197
191
195
195
193
188
182
175
181
189
189
205
197
207
210
198
204
201
204
189
184
178
178
177
179
171
163
157
149
152
151
163
158
167
186
209
201
200
205
210
202
205
207
201
205
195
194
193
196
198
195
196
200
207
202
190
189
197
207
208
211
213
204
200
199
201
209
199
178
193
185
185
191
184
192
186
171
186
195
205
205
204
194
195
176
170
178
195
191
193
202
203
204
204
205
210
208
207
200
188
179
188
196
214
198
206
209
194
198
202
199
180
177
166
162
159
169
161
157
149
151
148
142
156
153
169
180
202
192
187
192
199
199
204
210
200
197
192
194
194
195
194
192
195
198
206
200
185
191
196
213
210
213
211
204
203
202
196
208
192
184
191
190
189
190
188
188
188
181
179
187
207
204
203
207
197
185
170
174
199
192
189
197
205
207
201
201
202
203
202
199
201
189
187
189
209
190
204
208
186
185
186
186
164
164
169
172
178
182
177
167
156
164
165
161
177
171
177
185
194
188
191
193
200
199
194
189
186
188
188
191
189
198
195
191
196
196
202
196
193
198
200
210
215
214
212
205
203
211
192
209
195
181
191
188
189
192
193
186
187
190
178
185
197
205
202
208
206
186
173
170
188
197
190
197
205
207
202
202
204
203
200
197
206
206
202
198
205
199
203
223
208
205
199
205
181
180
188
180
180
180
192
175
169
171
173
177
187
181
181
191
194
192
198
194
192
191
188
175
175
178
180
184
189
191
191
187
197
205
196
197
193
199
202
218
211
216
211
203
206
210
200
200
193
185
191
191
187
188
192
191
184
193
180
182
193
207
205
206
219
189
178
169
181
199
187
194
201
202
202
198
200
202
199
198
201
208
210
207
205
208
209
220
219
212
211
220
202
198
206
199
195
189
188
183
176
178
182
183
190
183
188
191
190
193
187
185
189
182
177
173
171
166
177
182
190
194
189
192
206
198
189
195
192
194
202
214
209
212
204
200
207
206
209
195
192
185
186
184
183
185
191
196
189
193
188
180
195
201
209
207
217
201
179
172
174
190
184
196
201
195
193
197
201
201
203
201
201
203
213
209
211
214
214
215
204
206
198
197
194
193
192
186
183
186
188
186
185
181
193
192
193
192
190
189
188
190
182
189
185
177
175
177
171
176
187
192
196
193
195
197
206
191
186
193
194
193
211
212
208
207
197
198
203
208
201
191
188
186
185
187
184
187
195
199
191
195
197
183
191
206
205
214
220
208
180
171
175
181
188
203
202
198
190
193
201
207
206
210
203
200
215
211
212
212
216
219
215
218
207
200
197
195
194
186
181
174
184
180
177
184
179
181
183
191
191
189
190
194
184
189
178
175
179
181
177
183
189
200
195
189
196
198
196
183
186
194
196
200
212
212
209
200
194
196
202
213
204
184
191
186
189
186
189
192
195
197
192
197
197
192
188
207
205
209
216
210
191
167
179
180
194
200
203
199
195
193
194
205
202
203
202
195
198
205
211
207
212
214
218
218
212
212
211
205
204
192
190
186
186
180
176
179
173
180
188
191
190
193
190
192
186
181
182
178
185
186
179
187
190
197
195
192
193
191
186
181
177
194
196
207
212
211
205
197
191
192
202
215
204
179
187
186
193
189
189
192
196
198
197
198
199
200
190
201
202
207
213
210
207
174
182
182
194
200
198
203
192
198
193
196
201
199
198
194
192
194
198
203
199
209
216
219
218
216
211
203
197
188
184
184
187
184
186
193
187
194
193
191
193
192
193
188
186
182
187
185
187
180
181
191
193
194
197
199
189
185
183
179
176
189
202
214
208
207
206
194
193
191
205
213
207
176
178
185
194
194
192
190
197
200
201
203
201
203
195
193
203
202
217
209
204
186
189
190
190
197
197
203
198
195
192
196
196
198
194
192
192
189
197
199
198
205
212
213
221
216
212
203
194
188
187
181
184
183
191
192
194
191
192
190
191
187
186
186
186
184
185
187
181
182
184
199
195
196
199
198
183
184
183
171
176
190
208
216
207
205
202
199
194
198
205
216
206
176
171
175
197
197
193
195
197
201
201
203
203
205
200
190
194
209
207
208
199
186
193
194
185
193
194
198
199
195
191
194
199
192
191
192
189
192
194
196
198
204
204
205
212
210
212
207
200
194
195
190
192
193
198
199
200
197
199
198
191
189
191
190
190
184
184
181
182
186
191
199
198
200
202
194
177
186
179
168
173
192
217
218
206
204
202
202
200
198
206
219
206
175
160
171
199
197
195
195
200
202
204
203
207
205
209
192
194
210
196
201
200
181
193
198
189
188
199
201
197
196
190
191
193
195
188
183
182
183
184
184
189
193
193
197
206
207
209
203
202
198
197
194
201
199
197
203
210
206
203
201
193
195
193
193
189
184
186
181
187
193
201
202
203
204
200
198
177
172
182
165
174
202
222
213
208
205
203
207
203
203
202
219
202
172
164
161
199
197
195
196
196
203
203
203
214
214
228
195
190
199
188
193
200
183
185
200
192
193
196
203
196
196
191
193
191
193
188
185
189
177
177
177
177
185
189
191
206
202
202
204
204
202
204
198
207
201
204
211
213
211
207
207
197
199
198
195
193
190
187
188
198
199
204
208
207
204
196
200
177
164
178
165
177
216
229
214
201
199
208
212
202
208
205
214
202
176
163
162
194
195
193
196
198
204
210
217
222
226
229
196
186
191
183
184
202
179
190
197
205
195
190
207
201
195
192
193
194
191
188
189
187
180
177
178
176
179
178
184
192
196
194
200
203
202
210
200
209
205
212
218
220
219
208
210
202
200
201
200
195
195
194
197
208
208
209
218
211
202
196
197
169
161
176
165
194
215
226
223
203
201
205
214
210
203
212
216
195
178
165
162
199
198
198
196
201
207
225
220
224
224
223
193
185
188
177
186
199
181
190
206
210
197
184
201
205
196
194
194
191
189
190
191
182
181
178
178
176
175
181
181
191
190
196
199
206
207
212
211
212
208
217
216
219
217
211
211
208
205
208
204
196
196
201
200
207
212
216
216
216
203
193
188
162
161
177
182
205
220
214
220
209
211
208
210
214
208
217
222
192
178
167
158
210
210
209
205
209
219
227
222
215
221
215
187
193
181
173
188
195
181
199
212
207
197
189
194
208
206
198
198
193
192
192
193
182
183
181
181
174
174
179
187
193
194
200
204
213
207
212
218
215
212
215
213
216
215
213
216
213
209
208
207
202
195
205
205
213
211
211
221
214
199
186
182
161
163
200
198
208
225
208
213
213
204
216
220
218
214
216
220
189
176
164
152
207
209
210
207
212
216
220
215
202
211
200
173
200
178
173
187
197
179
201
212
208
196
197
196
199
207
205
200
193
195
196
194
194
193
190
186
183
181
181
191
197
202
209
211
215
212
215
219
219
215
212
214
214
213
214
220
217
208
203
208
199
197
203
214
214
210
208
219
214
196
187
172
160
178
218
225
215
220
206
205
211
209
211
218
219
217
223
222
194
181
171
160
211
212
213
203
201
207
210
212
203
211
187
164
194
178
173
187
196
188
199
204
206
204
196
200
196
201
205
203
195
200
198
198
201
198
198
193
188
190
186
198
204
209
210
211
211
212
213
215
219
213
208
215
214
216
216
221
213
212
204
202
201
200
202
216
213
211
211
213
202
201
191
169
169
202
223
244
221
218
207
204
213
207
209
217
216
220
224
213
198
183
181
173
211
212
199
191
197
203
213
207
203
210
173
169
185
170
175
189
201
195
204
192
203
209
201
194
200
192
199
207
198
200
195
198
203
200
204
193
195
200
193
199
204
210
208
207
207
207
211
211
210
209
215
214
213
214
214
217
210
209
206
207
204
208
210
217
212
210
206
210
195
203
196
175
176
207
228
249
235
211
209
214
208
209
204
210
219
225
230
204
195
181
177
172
203
196
185
195
197
205
216
206
203
206
177
174
183
147
175
198
204
196
202
192
205
209
191
190
202
200
197
209
205
198
197
191
197
199
199
199
193
198
195
196
201
203
203
204
201
205
202
203
206
206
210
212
211
209
210
210
203
205
205
208
206
205
217
219
205
208
207
201
202
205
195
178
181
200
220
247
252
218
207
218
211
215
205
199
211
219
224
198
201
180
178
172
192
192
194
204
201
207
210
201
202
208
189
173
182
143
158
209
203
195
196
195
204
206
177
183
197
201
201
211
205
203
201
189
194
197
194
194
191
195
191
194
196
197
193
194
196
197
200
196
202
201
199
204
205
206
212
204
198
202
204
208
211
209
219
214
205
211
204
203
207
205
182
170
182
192
220
237
255
241
211
217
218
217
209
202
215
225
210
189
199
174
169
167
189
189
190
189
190
198
203
192
204
211
194
170
176
144
155
198
205
188
195
194
206
197
172
178
190
202
206
208
216
199
202
194
190
193
186
187
191
187
186
190
193
193
185
187
195
194
192
199
194
194
205
203
200
203
207
195
193
199
200
212
217
211
212
214
212
208
204
202
210
200
173
173
187
187
218
231
244
252
227
215
223
216
209
207
218
228
208
191
205
181
170
165
186
186
185
185
196
192
201
191
192
208
189
186
171
143
161
190
213
180
201
194
204
190
170
179
180
194
203
213
216
214
197
197
191
193
183
186
186
185
182
186
187
184
189
183
187
192
192
196
193
196
197
206
199
201
201
195
193
199
202
216
215
213
210
221
212
206
200
201
202
194
172
173
184
202
212
218
229
254
239
225
222
216
206
208
226
218
193
187
188
173
167
164
196
193
191
204
201
202
212
202
196
203
190
179
164
142
171
197
210
178
198
194
199
184
172
175
183
187
193
207
216
218
210
199
195
191
191
191
183
183
186
185
182
183
185
185
184
189
189
190
188
195
196
201
204
199
202
203
196
202
209
215
213
208
215
219
204
203
195
195
196
189
179
173
182
220
211
215
218
246
241
231
226
214
202
212
225
215
199
203
200
177
160
164
191
184
183
191
204
204
206
202
199
196
181
156
174
162
174
205
215
168
193
196
190
174
174
176
175
184
188
197
205
221
211
209
202
201
198
193
189
188
189
184
184
178
181
184
180
186
186
189
187
197
207
202
207
210
206
202
200
207
209
211
209
213
213
212
201
194
192
197
198
188
174
174
191
225
216
209
215
238
234
240
227
214
201
217
224
213
211
214
203
178
172
163
195
203
198
200
203
205
197
197
192
184
166
160
184
194
179
210
217
171
181
191
190
169
169
173
175
179
179
190
195
209
215
211
207
206
201
198
192
193
196
189
190
183
186
180
184
185
188
189
189
201
206
209
209
204
200
203
206
206
205
206
208
212
209
205
196
192
190
198
194
192
172
185
197
225
223
206
210
232
234
240
225
208
205
222
226
213
224
209
204
187
177
168
203
202
201
213
209
206
206
192
175
167
173
166
192
204
193
209
210
183
175
174
189
176
162
166
173
173
174
183
184
203
210
207
203
202
194
196
195
199
198
195
197
191
186
187
190
186
191
192
194
201
204
206
198
197
201
198
202
202
204
199
204
208
205
202
197
192
194
201
197
188
175
196
188
217
225
201
204
229
239
230
224
205
204
222
219
215
223
211
200
177
178
180
209
193
194
203
205
203
192
191
170
163
182
181
205
198
193
201
204
189
173
169
175
184
172
164
168
172
169
179
183
193
206
198
198
198
193
194
191
189
189
188
191
187
190
194
193
194
195
199
200
204
205
199
197
201
197
195
197
200
200
200
205
204
209
199
197
198
195
198
202
175
184
198
185
219
214
199
212
227
236
229
216
221
204
211
207
217
217
217
197
178
170
172
