P2
# Face with average contibution
92 112
255
172
169
173
171
177
171
168
168
165
168
168
172
179
190
190
188
188
195
208
216
217
224
217
211
209
203
203
207
213
213
215
218
217
221
214
214
219
216
213
216
216
213
212
207
211
217
204
211
212
205
200
205
200
205
197
192
195
195
185
188
185
184
186
185
184
184
174
175
166
172
163
158
166
170
161
163
167
162
166
170
168
165
172
167
164
168
168
168
170
169
169
167
171
171
175
173
169
169
169
167
168
168
167
177
179
186
186
192
200
211
210
217
219
211
213
212
210
212
217
216
213
212
211
217
217
213
212
213
216
219
217
214
216
214
218
210
212
214
212
214
211
209
206
202
203
201
197
201
195
195
193
193
184
187
184
187
189
185
189
186
181
169
172
165
168
167
157
158
168
164
169
169
169
163
166
169
166
165
168
169
170
169
167
167
173
170
172
170
168
169
173
169
169
168
163
176
179
182
193
198
209
214
212
214
214
208
208
214
211
222
223
217
208
214
215
213
211
210
209
212
214
219
216
214
213
210
217
210
206
209
209
214
211
204
209
210
204
200
200
197
192
196
196
194
187
187
182
187
185
186
186
191
187
189
180
180
172
167
164
162
166
168
168
166
168
169
166
171
167
166
168
168
170
169
167
167
175
173
176
170
172
174
174
170
169
165
166
177
180
194
210
210
212
211
204
208
207
212
210
213
221
215
218
220
220
213
205
209
204
201
205
204
204
208
206
206
200
201
209
207
210
208
202
204
202
197
194
196
199
200
198
193
189
188
191
193
189
189
183
179
184
178
182
185
182
191
188
197
185
180
166
166
158
169
167
165
170
167
169
170
168
167
167
167
167
168
169
167
176
177
173
174
175
174
172
172
172
165
169
185
195
210
209
207
206
205
204
204
209
218
217
215
222
219
220
223
222
213
201
201
193
193
190
191
195
193
190
194
188
192
198
200
199
197
193
196
194
187
187
181
185
185
188
187
181
180
179
181
183
189
189
178
179
184
174
178
178
190
186
199
192
186
179
173
162
165
166
163
163
166
172
172
169
165
168
169
167
166
169
170
178
177
172
174
176
177
170
175
179
174
188
206
209
211
203
202
205
198
207
211
218
212
217
219
222
225
227
217
209
205
197
194
192
191
187
187
187
182
179
178
181
179
183
184
183
184
182
181
181
176
175
170
173
178
173
177
177
180
179
171
170
175
177
177
172
180
173
170
176
178
182
189
197
197
185
186
175
166
162
161
164
164
171
172
170
167
168
169
169
168
170
169
177
179
175
173
175
174
178
182
186
186
209
207
207
197
203
202
202
204
212
214
216
217
221
224
224
224
211
206
199
193
191
190
190
185
189
192
185
186
182
176
177
177
175
182
177
176
179
182
180
178
176
172
170
182
173
173
169
176
177
168
169
170
176
170
169
168
171
168
170
174
171
183
187
196
192
188
184
179
165
159
164
166
166
167
167
170
170
170
167
169
171
171
177
184
176
176
177
182
187
187
186
200
211
202
198
199
198
203
211
210
222
222
209
219
227
226
216
203
195
189
185
180
183
191
187
188
193
192
186
185
177
171
176
178
176
176
174
177
177
180
177
174
172
175
175
172
173
172
168
171
172
166
164
167
169
166
161
166
163
168
169
169
169
172
178
187
189
188
186
185
180
174
161
163
170
172
169
167
168
173
166
169
174
169
177
179
173
177
184
190
188
185
189
197
203
196
195
194
204
214
215
215
216
222
217
225
223
210
196
190
179
178
181
184
183
185
189
191
193
187
177
179
170
169
170
174
171
167
168
167
166
169
173
173
173
176
173
168
166
171
170
170
164
165
169
168
167
163
156
162
160
159
167
168
167
165
165
176
183
187
185
194
189
191
179
162
168
169
165
162
172
172
166
169
172
171
175
172
176
183
189
190
186
194
193
197
198
195
195
195
205
214
214
214
213
220
226
221
200
185
181
183
179
176
188
179
180
186
186
182
184
177
174
175
168
164
164
163
165
161
165
168
163
167
165
167
169
171
173
167
162
171
174
170
165
156
166
172
170
164
164
158
160
157
166
164
167
160
162
164
169
184
187
192
191
191
187
178
166
163
167
168
173
177
165
167
173
169
173
176
184
184
187
188
187
201
196
200
202
202
198
205
207
207
205
214
214
223
212
190
174
175
179
175
180
176
175
183
183
179
177
171
174
172
164
163
164
161
162
162
164
160
162
162
158
169
168
163
168
173
170
178
169
163
174
175
169
160
169
176
169
165
163
163
166
165
164
163
164
168
163
155
158
164
184
193
187
189
188
184
182
172
166
170
175
172
162
170
172
172
176
188
184
180
185
188
193
196
196
198
205
207
209
213
209
211
209
214
214
206
185
174
169
174
172
168
172
173
171
178
175
166
169
166
171
170
169
168
168
160
160
160
166
156
156
162
162
169
168
165
173
172
174
181
179
171
170
175
178
167
168
175
170
168
164
166
164
172
168
162
161
161
159
156
154
153
162
187
192
187
184
185
181
186
177
168
169
172
169
168
173
171
184
190
182
181
190
187
196
198
197
205
206
213
213
216
211
214
206
207
199
186
170
170
169
164
171
166
166
166
169
167
168
163
165
167
165
166
165
164
168
161
162
156
158
158
155
162
161
168
171
172
171
175
177
182
185
185
180
179
177
175
172
174
175
169
165
163
161
166
171
165
160
156
157
151
156
152
150
171
188
186
185
187
189
188
182
176
170
170
169
164
169
173
191
186
189
188
193
189
198
195
201
203
202
212
211
211
201
208
204
200
182
174
170
170
164
167
165
161
159
164
162
160
165
161
162
164
161
163
159
158
157
159
156
157
164
161
163
163
163
171
168
174
177
179
179
184
187
187
182
189
184
178
174
177
178
173
168
168
170
161
166
167
164
158
155
152
153
149
151
154
173
187
183
191
188
194
185
175
181
175
168
170
165
169
186
187
192
193
193
193
197
196
204
206
209
211
201
200
194
203
203
183
176
176
170
168
169
166
157
154
155
164
157
157
160
163
157
162
161
160
157
158
156
161
165
167
168
169
170
168
172
173
172
174
177
182
185
190
189
190
192
195
191
183
176
175
178
180
174
167
173
169
166
165
165
162
161
154
151
148
146
147
151
181
187
185
190
192
192
187
176
184
172
173
164
170
182
193
193
191
196
197
198
200
207
205
202
198
199
193
194
204
197
179
179
173
169
165
166
156
149
157
157
162
158
158
164
166
166
167
163
161
161
162
160
163
170
171
173
176
176
169
179
175
176
177
180
184
188
189
196
197
199
200
201
194
184
185
183
179
182
172
174
171
171
171
170
161
164
159
150
150
146
145
145
153
180
182
188
189
191
201
187
176
181
174
175
162
183
201
195
195
196
200
203
206
198
198
194
197
197
193
201
203
187
177
177
170
165
164
159
151
153
158
159
158
166
163
167
170
170
168
164
162
165
166
163
164
172
177
179
178
179
176
179
180
180
182
187
186
187
189
197
199
201
203
209
200
196
194
189
188
192
182
178
179
174
175
175
165
164
154
151
157
149
144
148
144
159
176
187
189
192
199
205
182
178
180
180
170
191
202
196
192
198
204
201
195
195
196
191
196
192
200
210
199
190
177
169
168
161
162
161
155
159
161
162
164
170
169
171
172
168
166
168
168
166
172
164
162
174
179
178
178
182
180
181
186
186
192
192
194
190
188
195
199
202
204
207
202
202
200
197
194
196
191
186
185
177
182
182
168
169
160
154
154
151
150
145
146
143
171
180
186
190
197
205
200
183
181
185
178
198
196
193
190
200
201
193
190
196
194
188
193
199
208
212
197
186
174
166
163
163
161
159
159
166
166
171
174
177
175
173
174
169
170
175
174
172
170
168
166
174
178
178
180
184
187
184
188
187
196
193
194
196
190
192
198
201
207
207
204
203
208
203
200
198
199
191
194
186
183
190
181
173
168
164
159
152
151
142
147
144
158
179
188
188
191
205
208
190
181
182
183
194
199
188
194
197
193
190
192
195
190
187
199
209
211
207
189
179
171
167
162
162
163
166
163
175
176
179
179
179
180
178
176
177
177
176
174
170
173
169
172
176
178
183
184
187
192
188
191
195
197
198
197
197
195
198
199
201
206
206
207
203
209
209
208
201
204
196
194
189
189
193
190
180
176
170
166
155
148
152
144
144
148
168
185
192
191
199
210
202
186
183
187
197
193
188
199
187
191
195
192
187
189
193
206
213
209
195
185
176
168
164
166
163
168
174
173
182
188
186
183
183
186
183
181
184
182
179
179
174
173
174
174
180
186
187
188
193
191
196
191
195
206
202
202
204
203
204
204
206
209
211
211
214
211
212
214
207
208
200
198
194
194
200
196
188
182
178
171
158
150
154
151
140
144
160
172
188
187
195
210
199
194
184
185
192
191
192
201
189
195
197
190
193
196
198
207
208
201
188
181
171
165
164
168
172
177
182
185
189
191
188
185
186
189
185
189
186
187
185
180
175
178
179
180
181
190
192
193
194
199
199
199
200
203
207
203
207
208
210
209
212
210
211
213
215
218
216
215
207
209
207
201
205
202
202
201
194
187
183
174
166
156
151
156
148
145
151
170
179
184
190
202
200
191
189
177
191
189
188
202
193
195
200
196
194
196
199
203
198
199
190
179
164
166
168
172
180
184
186
191
189
189
187
189
186
187
187
186
183
185
182
181
182
184
183
184
187
193
195
198
200
203
199
204
206
207
208
204
206
206
211
211
213
213
209
211
216
219
221
218
212
209
209
205
206
209
204
206
199
188
187
180
173
162
154
155
158
151
150
161
178
183
190
197
205
191
188
185
195
182
197
195
193
200
205
192
195
195
195
190
193
201
188
166
166
166
171
177
186
187
188
189
186
186
188
187
187
185
185
186
184
181
182
182
184
188
185
187
194
194
197
199
207
206
204
207
207
210
202
205
203
206
206
208
207
208
206
205
208
215
217
221
214
211
210
205
204
208
208
206
201
195
185
178
174
166
158
156
158
157
145
164
176
179
187
196
206
202
185
189
186
182
194
200
198
203
192
191
200
192
182
187
201
194
179
173
170
169
177
182
186
186
188
185
183
185
184
183
186
183
181
186
181
178
181
178
179
186
184
187
194
195
195
202
205
207
205
201
201
202
200
200
201
201
201
200
202
200
200
198
201
205
206
212
214
215
212
204
205
203
208
209
201
198
189
181
173
164
159
160
158
157
152
159
182
178
182
193
205
206
192
186
188
185
201
205
202
193
186
193
195
185
186
195
202
188
176
184
180
178
177
182
185
186
183
186
187
184
184
185
180
186
184
178
180
178
177
174
177
181
183
186
190
191
194
196
200
203
200
199
195
198
196
197
197
199
199
200
200
197
197
196
194
197
203
202
206
214
215
209
203
201
204
204
204
197
194
190
181
171
161
161
160
156
154
160
180
179
181
192
206
204
197
191
197
195
196
204
202
189
191
192
183
191
194
192
189
181
188
183
183
185
186
187
184
184
182
186
184
183
187
186
180
181
183
178
177
175
177
175
178
180
185
189
188
188
190
192
193
194
194
193
194
194
194
192
194
196
196
195
198
195
196
196
192
194
200
199
207
212
218
212
206
196
201
204
208
199
197
187
189
176
164
163
162
159
155
163
176
180
183
196
205
208
199
193
200
193
198
208
199
187
192
183
188
195
190
187
179
186
195
185
187
189
186
190
187
187
186
184
183
182
182
184
184
179
180
180
179
178
180
176
182
184
183
187
187
187
191
190
191
192
188
192
188
190
192
190
188
187
193
191
192
190
192
193
188
191
196
198
206
207
216
215
207
198
204
202
208
204
198
190
187
175
166
157
160
154
157
160
173
180
186
196
204
207
205
195
196
197
206
200
191
191
192
189
196
193
188
179
184
193
192
188
188
191
188
190
189
192
188
183
182
180
178
180
183
177
179
180
179
178
178
177
181
180
181
183
185
186
193
194
190
189
188
192
188
186
189
187
185
183
189
186
187
185
186
187
187
186
187
194
200
203
211
213
212
203
203
208
204
208
200
193
185
174
168
158
158
151
152
163
169
182
188
200
202
208
205
198
198
200
199
198
190
190
202
196
194
193
180
178
191
198
191
189
187
189
188
189
188
190
186
180
174
174
174
173
180
176
176
179
177
179
179
175
180
176
179
181
182
186
190
188
184
188
186
187
188
181
183
185
180
178
181
180
181
179
180
184
183
184
184
184
192
199
208
206
210
212
207
210
206
204
205
195
189
179
164
159
162
153
150
166
170
183
195
201
208
209
206
204
199
196
200
194
196
192
205
189
198
189
184
185
196
195
187
190
187
188
188
189
185
187
181
174
168
170
168
171
173
177
174
175
174
179
175
174
176
176
180
181
182
184
186
185
182
185
179
183
182
178
177
182
179
173
176
176
179
178
181
183
182
183
183
182
186
193
200
203
202
207
207
207
210
209
207
198
191
181
166
157
159
157
154
162
169
181
194
208
211
213
206
209
197
197
196
194
204
198
197
193
197
187
185
189
194
193
187
188
191
191
191
187
186
184
175
169
169
165
163
168
171
169
175
173
172
170
170
171
175
173
178
180
180
182
186
185
181
184
176
178
180
177
172
178
180
172
180
182
183
184
188
185
186
187
185
188
186
190
193
199
199
200
200
204
203
214
203
205
191
182
167
162
153
157
149
166
166
174
196
209
216
210
208
208
194
192
190
201
207
193
194
191
193
186
187
189
191
196
184
191
192
193
191
189
186
179
174
166
168
168
162
163
167
165
166
169
168
168
169
168
173
172
177
178
182
184
186
183
179
182
176
174
179
177
173
177
185
183
190
190
190
193
194
192
191
191
193
190
190
190
193
195
197
198
199
196
198
207
207
203
198
183
169
163
161
159
153
167
179
182
195
208
219
210
209
210
189
188
201
209
201
191
192
188
184
183
185
187
196
198
185
188
190
193
194
192
187
181
179
174
178
177
171
164
165
165
161
161
162
168
169
171
174
173
178
183
182
188
189
187
184
183
177
179
181
184
183
182
188
186
191
192
194
199
198
199
198
198
197
195
194
195
195
198
198
199
204
199
192
195
201
212
201
190
174
168
161
165
163
167
186
193
196
211
218
208
215
210
191
196
213
205
192
188
188
183
184
180
188
191
198
203
186
190
192
193
197
191
186
184
185
189
189
186
185
188
184
175
175
178
177
175
178
173
180
180
182
183
186
187
190
193
192
192
190
192
192
193
191
188
188
187
191
192
199
198
200
202
203
202
206
202
200
200
199
200
202
203
205
201
194
185
198
203
207
187
184
171
162
162
161
176
187
198
193
208
218
218
211
212
201
206
210
203
196
182
177
189
182
180
189
189
195
197
182
187
195
204
200
190
190
189
194
199
195
194
190
199
188
183
180
191
190
182
180
179
187
188
191
191
193
186
188
186
188
188
187
189
189
194
188
192
193
197
197
200
208
208
208
207
208
211
209
207
204
200
200
199
195
201
201
205
199
187
186
198
206
197
187
176
170
159
166
184
184
195
199
207
217
228
209
220
200
198
203
203
195
180
180
189
179
184
188
186
192
192
188
200
206
204
191
182
187
190
203
202
200
203
207
202
193
190
187
187
189
188
186
186
195
203
200
207
206
199
191
188
188
190
192
189
187
197
194
191
192
195
195
192
197
199
198
199
202
198
199
197
191
186
186
193
193
193
192
195
195
184
176
185
199
195
187
173
173
168
168
193
189
196
198
207
220
233
220
219
204
203
205
200
198
183
184
188
187
183
186
188
198
202
185
197
202
186
186
190
189
192
201
200
203
207
208
207
195
191
188
195
193
196
202
194
204
209
204
207
209
211
197
197
195
197
193
197
196
197
192
192
189
193
189
183
185
185
184
186
185
184
184
183
179
173
175
182
190
194
191
189
194
185
180
178
185
189
182
168
158
163
185
205
186
187
206
208
225
231
232
218
199
209
201
200
197
187
187
190
185
181
184
197
194
195
187
194
188
179
186
193
194
195
196
193
194
192
191
193
177
177
176
180
192
192
197
191
201
204
198
195
202
205
205
197
199
198
196
197
197
193
189
188
185
190
190
178
180
175
174
183
177
177
176
168
170
170
175
183
187
191
192
194
196
186
181
181
184
182
181
168
159
162
181
205
197
193
211
213
225
233
240
223
202
215
210
209
203
194
186
184
187
186
194
191
186
196
191
193
184
179
187
188
193
193
194
190
187
188
187
192
178
173
170
176
193
197
203
198
194
197
196
198
203
202
210
201
201
197
197
195
194
189
187
187
184
187
192
184
179
179
181
184
189
176
180
168
171
180
182
193
188
188
189
196
195
192
184
177
185
184
182
172
162
171
194
190
202
205
215
220
226
235
237
233
208
225
224
216
208
210
188
176
190
195
189
186
189
198
192
191
188
185
190
192
196
192
188
185
183
177
182
192
180
178
180
175
193
193
201
195
186
200
201
206
210
206
212
198
200
201
196
190
199
193
191
189
188
189
188
186
184
191
189
190
197
177
169
166
182
188
198
198
191
189
188
193
202
196
190
183
189
193
187
179
170
178
197
193
210
210
221
226
226
237
236
233
215
229
229
229
218
214
182
184
190
188
181
191
192
203
195
195
193
191
194
200
201
190
180
174
167
176
184
187
184
187
195
194
206
206
210
214
200
201
207
211
213
205
214
190
194
196
187
183
189
200
195
192
194
189
193
194
191
196
197
197
208
186
185
182
198
207
213
212
199
195
194
199
203
194
184
182
187
193
183
174
176
191
201
198
221
218
215
226
240
238
229
237
222
224
224
222
233
208
185
205
188
185
184
200
205
213
208
213
206
202
209
210
200
190
192
177
183
203
193
191
194
192
193
201
207
211
220
217
211
205
203
197
199
201
191
188
194
198
201
189
193
196
194
186
187
194
200
203
203
203
205
203
203
189
183
190
201
208
210
211
198
191
185
195
203
195
184
182
180
195
176
170
162
188
209
206
224
221
207
220
249
245
221
232
235
218
223
211
223
204
183
197
187
178
182
197
215
223
213
210
207
204
202
202
198
184
186
171
199
211
218
211
216
217
219
218
226
217
220
209
198
198
202
194
190
192
183
182
182
192
199
198
196
191
191
190
180
193
200
201
200
204
204
190
189
184
178
187
189
197
201
189
178
181
179
194
193
195
189
180
179
183
184
169
156
178
193
213
232
223
202
216
244
246
227
231
242
221
216
216
200
211
180
180
188
178
179
205
208
215
209
204
210
206
207
207
195
191
183
183
206
224
227
207
207
216
204
212
213
223
213
195
195
205
207
209
196
194
186
179
176
189
191
197
198
192
193
191
179
194
201
202
202
218
206
188
191
190
179
193
197
193
202
206
198
183
177
180
199
198
189
180
163
178
177
175
154
171
179
200
221
224
208
209
239
240
231
228
243
223
212
205
189
215
191
193
194
170
198
203
202
209
214
213
220
210
206
205
198
195
189
199
216
233
221
195
198
197
190
202
207
218
214
183
196
201
197
203
201
185
185
184
173
193
196
199
212
207
204
195
186
195
206
207
210
222
205
187
187
167
179
178
180
199
193
203
201
183
173
183
190
209
194
180
178
167
169
171
162
163
178
197
213
228
208
210
239
234
229
225
234
235
209
203
186
212
204
194
193
179
203
203
206
203
215
218
214
209
206
208
204
210
216
216
228
227
222
197
197
196
195
207
196
206
199
176
196
197
191
196
199
195
185
175
160
171
178
184
198
200
199
192
181
204
208
209
208
213
209
192
183
168
163
183
191
200
184
184
186
180
164
180
178
198
190
167
171
169
163
170
169
161
175
198
210
228
212
209
232
232
225
216
221
247
207
204
193
210
204
184
189
183
199
203
209
208
216
206
206
201
203
210
214
216
218
219
224
218
215
226
200
203
196
198
196
182
183
183
187
189
191
194
193
202
195
170
162
168
175
181
183
189
186
187
175
191
194
196
201
199
198
190
180
173
147
159
173
172
170
176
182
179
175
183
184
192
185
163
160
163
167
171
169
162
169
196
210
222
219
203
231
221
215
208
220
238
207
199
188
189
204
169
184
178
196
205
211
203
205
205
201
202
209
212
211
217
209
201
203
212
212
202
200
204
178
190
185
186
178
195
195
182
179
178
174
192
192
172
163
163
179
178
180
181
184
189
183
186
196
189
193
197
197
188
177
163
147
144
151
157
159
165
165
158
162
171
175
200
200
173
157
152
162
170
161
169
159
190
210
224
222
195
229
220
207
200
221
225
209
201
187
198
204
189
179
178
192
206
208
190
202
199
203
205
197
204
206
216
202
189
195
207
207
191
197
197
169
171
173
174
170
190
191
185
180
165
162
192
192
170
164
169
183
180
179
180
182
187
185
194
188
191
190
195
194
198
184
177
170
156
159
164
167
169
166
167
163
168
173
193
182
175
154
144
156
171
164
179
161
185
209
227
215
202
217
216
199
198
225
225
211
204
196
198
198
197
177
174
195
214
203
187
203
205
207
208
189
193
202
196
199
204
199
195
204
198
190
185
176
175
179
170
178
182
179
178
177
165
159
186
186
168
169
157
173
175
173
177
178
181
190
189
185
185
191
194
200
204
191
197
195
182
178
175
185
193
176
175
177
173
179
181
168
171
170
154
148
160
161
183
170
181
199
223
207
207
211
208
195
185
230
240
213
208
213
202
196
190
170
165
187
215
196
177
196
207
206
201
198
187
194
195
190
203
199
201
206
201
196
186
184
182
175
178
177
173
171
171
171
165
166
183
164
166
174
159
162
171
177
173
170
166
180
186
182
180
191
196
206
206
197
210
217
213
209
207
211
209
200
197
196
188
184
178
168
172
174
162
147
154
154
177
180
180
193
220
212
210
216
210
194
177
240
243
219
208
218
200
193
182
175
165
181
208
192
177
194
208
205
199
197
200
199
200
195
203
205
207
205
202
195
191
181
181
171
174
170
160
162
170
170
158
161
174
154
160
166
164
151
169
178
174
175
166
170
175
180
176
178
191
200
205
199
202
213
216
219
223
228
219
209
215
210
205
202
191
181
177
180
167
150
142
148
171
190
176
199
219
215
210
218
208
194
184
239
238
226
205
211
191
181
176
179
167
178
201
188
181
199
209
206
193
200
206
201
203
206
209
212
213
208
202
202
193
180
176
172
166
167
154
160
172
171
165
173
176
154
154
156
158
151
162
182
176
182
168
171
179
187
184
185
188
202
204
203
206
207
212
215
225
225
215
215
220
222
215
219
210
200
186
187
171
157
144
156
161
197
179
195
217
215
207
212
204
193
192
238
230
224
203
200
188
174
174
179
166
175
200
193
182
200
203
199
193
197
208
205
206
208
211
214
218
211
206
199
191
187
175
183
176
177
170
166
161
168
176
185
179
158
156
160
159
161
172
175
176
182
175
172
182
186
193
194
194
201
201
202
201
204
203
208
211
215
212
214
216
215
220
218
214
212
204
186
172
162
152
148
165
202
181
183
220
210
213
202
197
192
199
233
229
229
209
198
182
178
174
174
170
178
202
191
182
193
197
189
192
194
208
210
211
207
205
212
214
210
208
204
198
184
192
185
180
186
178
171
168
173
190
194
177
164
161
164
169
171
182
177
172
186
180
182
186
185
191
195
201
199
204
205
201
201
204
203
203
205
205
206
206
204
206
203
204
201
200
197
175
166
152
148
171
210
190
191
215
207
220
188
198
183
213
221
235
224
230
212
175
191
166
173
166
193
197
181
177
181
182
180
184
186
195
199
195
199
204
206
209
209
209
201
189
187
194
179
177
179
179
171
174
179
199
192
177
165
161
166
169
170
181
181
180
187
183
195
191
181
187
193
196
196
197
203
202
196
197
200
197
198
196
196
202
206
201
195
195
191
190
193
178
169
147
150
178
215
203
200
204
212
213
184
193
181
213
204
233
233
248
227
194
189
178
173
169
187
200
176
175
182
183
186
185
191
193
194
197
199
207
208
204
204
198
188
187
188
188
179
175
183
186
179
180
198
194
184
176
166
158
163
166
169
175
186
188
189
186
188
189
179
182
187
189
193
198
204
202
202
203
205
207
208
200
201
202
201
198
196
191
189
186
187
185
176
147
153
183
217
206
196
208
206
197
177
184
185
209
205
229
235
254
237
199
183
181
176
181
183
193
193
176
182
183
192
192
195
198
203
201
203
211
205
201
197
194
194
191
193
187
181
180
188
190
193
191
200
192
181
172
167
160
162
163
163
168
174
181
187
186
184
180
172
179
181
190
193
205
208
210
209
206
204
204
204
203
208
208
204
204
200
196
192
185
185
184
177
158
156
181
215
212
204
204
198
192
180
182
189
214
211
225
235
255
231
196
187
182
176
186
184
188
185
190
186
182
197
196
196
204
204
200
202
206
204
203
203
204
203
197
189
191
186
177
190
200
199
197
200
187
175
168
163
163
159
159
161
168
172
175
187
188
186
179
186
174
176
182
190
198
210
210
209
209
207
207
210
208
209
212
211
205
202
196
192
187
181
179
174
163
163
186
208
232
204
202
182
191
183
183
187
216
192
219
234
248
228
199
193
190
170
179
190
188
185
179
191
182
195
192
197
195
198
194
202
210
208
210
197
207
208
198
190
194
184
188
197
201
192
199
199
187
166
157
158
156
151
152
155
167
173
183
188
188
192
183
186
179
171
180
187
201
212
220
214
211
212
210
211
211
213
207
204
202
199
192
191
186
177
177
172
168
171
193
213
221
209
199
171
188
190
190
188
214
169
206
231
248
221
206
196
189
167
168
180
190
196
183
190
194
202
209
205
201
199
193
204
213
206
210
199
196
207
201
189
196
199
204
200
188
191
192
191
176
159
144
143
155
152
152
156
169
173
187
185
183
191
191
184
184
169
168
177
192
201
205
194
212
213
209
198
204
210
210
206
197
193
191
189
186
177
184
176
172
177
192
206
210
214
187
171
192
181
193
196
217
170
196
223
246
220
213
196
187
165
156
172
180
195
196
190
191
196
203
201
198
193
187
198
208
206
205
209
207
213
206
200
197
206
200
190
194
188
185
181
170
155
139
147
160
161
159
159
172
181
189
194
184
186
196
195
187
176
162
177
193
196
205
200
207
209
209
194
195
208
212
212
206
194
194
196
188
185
182
174
170
161
184
207
207
210
177
176
194
182
191
207
209
183
205
223
240
228
224
202
180
169
165
168
174
186
191
197
194
200
194
198
194
188
182
186
199
202
206
207
213
220
212
205
199
190
192
196
190
178
177
172
166
155
142
152
160
164
169
167
171
187
187
189
186
188
196
195
183
179
167
180
199
197
202
198
200
203
194
184
189
198
202
208
207
197
196
194
186
181
177
178
172
153
175
191
206
199
188
183
188
188
192
217
204
180
204
234
233
228
226
214
178
178
167
163
178
187
185
183
185
198
199
198
195
195
192
188
196
207
213
210
209
213
204
201
199
195
193
192
182
170
173
169
165
165
155
159
169
170
175
170
177
189
192
192
188
187
193
198
192
179
181
186
189
194
199
199
198
196
184
184
192
195
199
199
193
193
193
188
183
175
175
179
170
156
173
176
199
190
190
196
185
189
196
215
199
171
202
232
233
216
219
220
182
175
170
154
181
197
185
182
183
188
187
190
191
194
201
201
204
208
207
202
203
205
202
198
198
192
191
184
178
171
173
172
168
172
166
169
186
177
177
173
175
185
199
200
195
194
201
204
195
187
177
188
193
187
198
189
185
190
187
190
193
196
193
189
186
187
188
186
181
177
174
177
173
162
161
176
188
193
201
199
178
189
200
206
194
171
196
229
239
208
212
215
179
172
167
157
178
193
189
184
183
183
184
186
188
196
197
198
208
212
211
207
206
203
198
197
190
186
185
176
171
172
177
172
177
182
173
168
179
172
171
166
170
172
185
198
201
197
201
202
194
184
186
190
194
197
207
192
183
184
184
184
187
186
186
184
184
182
183
182
181
176
177
178
169
169
160
168
189
192
200
193
174
195
206
209
200
176
180
219
235
209
212
208
169
159
167
168
170
180
188
184
181
183
183
188
190
196
197
200
206
210
209
206
203
197
197
197
182
182
184
173
168
172
172
166
174
175
163
147
160
159
165
169
172
176
191
197
196
188
189
184
180
180
187
179
180
192
208
202
185
182
178
181
186
183
186
184
184
182
180
180
178
178
180
177
165
176
153
168
189
186
187
194
174
203
210
203
207
171
183
197
227
211
210
212
177
155
165
175
171
170
186
185
180
184
182
185
189
192
199
202
206
208
210
208
203
197
193
189
176
179
180
171
170
167
168
159
158
160
154
156
166
166
166
178
177
187
193
195
193
185
172
162
166
170
179
171
173
186
196
196
195
189
177
175
185
183
185
183
184
181
180
176
175
172
179
177
172
161
157
175
192
187
182
199
180
207
205
203
211
166
179
182
213
209
211
210
183
162
173
179
185
168
185
184
182
184
182
185
191
193
198
206
207
207
207
206
197
196
187
181
171
170
171
161
166
161
159
161
160
163
153
167
174
172
182
188
184
191
197
200
190
176
168
165
160
160
166
166
169
179
187
191
186
188
183
176
184
188
192
187
188
183
180
177
174
178
184
169
170
158
161
183
196
185
176
199
191
205
194
207
209
168
172
179
197
204
199
207
185
169
182
183
197
178
176
184
182
182
182
183
185
189
196
204
206
206
203
203
194
190
180
176
166
163
162
155
151
155
155
160
161
166
166
171
175
182
191
194
194
200
215
206
188
165
161
160
155
153
157
162
164
171
182
186
181
178
173
174
178
181
187
187
183
181
173
170
171
175
178
170
173
162
167
184
199
176
176
200
195
195
186
207
212
170
176
171
196
206
180
188
181
172
186
182
202
188
165
183
185
184
184
184
185
187
199
202
204
205
205
199
188
184
172
170
165
160
154
155
146
152
158
162
164
167
165
168
166
180
184
194
194
201
217
207
187
172
159
155
153
152
157
157
164
170
178
178
170
169
165
173
175
178
182
183
177
173
171
164
169
177
177
171
172
174
178
187
191
174
186
192
190
187
188
207
210
176
175
168
182
199
177
170
171
163
180
179
202
186
165
175
183
183
185
187
189
189
200
203
200
201
203
194
186
179
167
164
161
151
144
158
153
154
164
168
170
169
169
168
169
177
180
192
191
194
203
201
184
172
159
157
158
156
164
164
167
168
174
170
169
173
169
167
171
174
179
181
174
170
167
170
171
174
180
163
176
186
195
188
189
177
190
185
185
187
195
210
210
180
179
167
168
185
175
167
164
157
165
172
190
175
166
167
181
180
181
185
194
196
202
205
203
198
201
192
188
177
164
158
160
149
144
154
158
163
168
168
171
171
172
172
169
171
178
185
186
189
193
187
175
170
162
162
162
158
167
172
168
171
174
171
175
175
173
169
168
172
175
179
171
169
168
170
175
176
177
163
177
188
193
186
187
186
195
175
181
186
199
213
210
191
179
170
160
176
177
166
156
160
155
169
181
169
164
163
180
179
181
187
194
197
204
204
204
203
200
194
188
173
158
155
157
147
147
152
162
173
171
169
166
167
166
173
171
171
176
178
170
181
178
182
177
175
170
164
161
158
158
168
169
177
175
171
177
177
174
171
169
171
176
175
171
169
172
171
174
181
173
167
181
186
179
184
192
190
194
166
184
186
204
209
208
199
187
176
161
167
174
173
153
154
147
159
172
170
160
162
177
176
179
188
193
200
204
205
204
203
200
196
185
169
157
163
160
152
150
158
166
168
166
164
166
168
166
173
176
174
178
172
168
169
167
173
173
174
177
172
170
167
161
163
160
166
177
173
172
175
173
168
172
179
177
174
173
168
171
173
175
176
170
174
181
178
177
180
185
182
181
170
184
186
208
208
202
204
195
180
165
164
165
175
157
148
148
149
174
169
163
169
169
178
180
188
191
200
203
205
203
201
197
190
182
167
171
176
170
163
158
172
170
168
171
176
174
180
176
176
183
179
183
177
167
169
171
174
176
177
176
181
182
176
167
163
159
154
168
172
173
175
171
167
169
183
178
176
175
171
169
175
176
175
166
178
171
170
172
176
173
176
174
177
185
189
207
211
200
202
203
188
167
163
164
170
160
148
151
145
166
179
170
175
167
181
181
193
195
195
196
201
200
194
193
182
177
170
176
181
176
172
177
180
170
175
184
195
191
184
180
174
180
181
184
180
173
173
178
177
176
182
180
183
180
178
165
163
159
155
155
164
171
173
176
174
170
182
178
175
176
176
171
177
176
170
164
177
157
159
164
166
164
174
175
184
186
192
204
208
206
194
200
197
172
161
163
164
151
147
152
149
157
178
175
174
175
182
183
191
195
193
196
199
196
190
192
181
175
172
177
175
170
168
175
172
171
177
191
188
186
184
179
177
177
186
186
180
173
174
181
176
179
188
187
184
180
174
166
164
165
165
155
158
165
164
172
179
174
180
186
175
178
180
175
174
176
169
169
177
153
151
160
159
171
173
179
188
189
197
202
204
211
194
189
199
180
160
164
163
151
135
145
150
147
172
178
172
180
182
189
188
194
194
199
200
197
196
195
179
178
175
177
171
166
174
184
176
180
177
188
184
188
180
183
186
186
196
197
188
185
190
192
190
185
185
192
186
179
172
163
162
169
165
159
159
166
163
164
178
174
179
189
178
178
183
172
175
172
171
171
176
154
154
155
164
176
174
184
189
188
198
203
202
207
203
188
188
187
169
169
162
147
128
135
148
139
158
174
176
179
183
186
189
189
193
199
197
200
207
200
189
186
182
180
175
167
184
196
193
188
171
172
182
188
178
179
184
187
198
206
188
203
203
206
204
190
179
193
185
176
181
163
183
176
159
167
161
168
167
163
171
174
182
184
176
176
179
175
170
171
165
169
180
161
164
165
176
179
178
182
189
193
203
203
199
207
209
200
187
184
168
168
157
142
130
129
146
138
143
168
174
178
183
186
190
191
192
203
202
206
207
202
194
195
190
189
183
178
188
198
196
186
168
168
172
176
172
180
169
179
190
197
185
205
209
203
204
195
187
196
193
198
178
187
203
187
154
170
166
164
169
163
164
179
185
183
173
179
176
173
171
167
164
171
179
166
175
182
187
181
181
182
187
196
206
202
204
205
210
208
196
188
164
169
169
144
133
127
142
144
147
164
170
180
179
185
189
196
194
203
209
215
215
211
196
201
196
190
183
183
181
184
181
185
188
177
173
166
169
179
170
177
188
199
185
200
213
212
213
199
197
210
207
208
189
188
201
190
161
169
165
162
169
163
170
181
187
180
177
178
172
174
173
166
163
171
179
172
186
186
188
177
180
186
185
195
209
203
204
206
215
211
206
197
173
165
175
149
138
129
137
153
144
162
170
174
172
186
191
197
200
203
213
218
215
212
215
218
210
196
188
183
179
181
182
195
203
203
186
182
178
176
155
158
169
184
174
197
211
218
223
213
201
215
218
206
189
193
200
183
158
155
165
171
178
169
174
184
187
179
176
177
175
177
172
161
164
174
178
180
184
190
183
174
181
184
189
202
203
203
207
204
208
211
208
205
187
164
176
158
143
132
130
154
146
151
157
166
163
181
197
200
202
208
216
218
215
208
218
219
219
209
197
192
182
184
194
198
209
210
191
181
188
186
159
160
168
171
167
192
195
197
203
195
185
194
206
204
198
182
192
175
158
159
164
170
173
176
179
188
184
183
182
178
178
178
173
162
170
178
180
181
183
189
180
175
178
183
197
205
199
205
204
205
198
209
209
208
200
181
179
163
147
140
128
150
149
145
151
157
157
169
197
197
199
206
208
209
204
202
205
211
203
200
195
191
175
182
201
200
205
207
188
180
178
188
178
172
181
178
176
196
188
179
183
176
174
181
189
186
186
171
186
172
168
168
166
169
167
176
184
186
183
184
183
176
178
180
173
167
175
183
177
187
184
188
177
175
176
187
205
205
199
205
206
208
199
198
205
204
203
195
181
163
156
148
131
143
156
146
149
163
155
166
196
197
197
194
202
198
195
195
189
198
189
184
181
179
176
182
195
203
193
199
185
177
172
181
179
173
180
180
182
186
189
174
181
170
173
177
187
183
180
180
184
182
181
183
171
176
168
178
178
183
183
183
182
176
180
178
170
166
186
188
173
189
189
183
179
176
180
191
205
204
196
202
210
211
204
202
202
202
203
198
172
164
168
164
144
138
157
150
149
166
155
168
191
196
198
187
194
194
192
190
183
189
186
183
175
169
181
193
204
204
189
200
188
185
179
187
184
178
177
178
173
176
182
171
180
176
183
182
188
188
181
181
181
182
180
180
176
172
171
179
177
177
183
180
182
178
179
177
172
170
195
183
180
189
190
179
174
179
182
201
205
204
195
199
216
209
211
200
200
203
206
187
176
167
167
172
155
145
152
156
146
170
157
165
183
199
197
195
194
193
188
185
182
186
187
188
173
168
181
189
203
204
199
200
198
195
196
201
198
183
178
181
178
185
187
185
190
179
181
174
171
171
167
165
171
171
171
168
172
174
172
175
177
177
181
180
180
177
180
174
174
177
194
182
186
189
189
175
181
179
193
207
208
203
201
200
215
205
214
206
204
203
198
176
174
171
165
164
157
144
146
152
151
168
163
157
176
197
195
196
199
198
189
187
182
182
189
186
180
174
186
189
192
195
198
198
197
196
205
203
202
192
190
193
188
193
183
180
179
175
178
173
171
167
163
162
162
168
162
171
178
178
173
177
182
177
183
184
185
180
182
174
178
186
192
183
191
190
184
175
179
185
205
205
206
208
208
203
208
205
210
206
205
203
182
180
170
165
163
162
159
138
141
140
147
168
168
156
173
185
197
194
201
202
194
193
191
191
193
187
190
191
190
191
189
192
198
193
198
196
197
205
200
197
195
199
193
190
184
170
173
173
176
170
169
169
169
164
162
169
174
177
177
178
171
179
184
179
184
184
185
181
181
175
185
189
193
184
194
187
177
180
180
198
206
205
206
212
208
195
204
208
210
209
205
185
179
178
176
166
163
157
166
138
138
140
140
170
168
161
173
174
194
192
197
202
196
196
194
196
193
188
193
197
199
195
196
192
191
196
198
196
201
197
190
193
190
189
184
177
175
173
173
170
173
171
174
172
174
170
170
172
183
182
182
178
174
182
183
181
182
185
180
180
179
191
177
189
197
188
189
182
179
178
188
204
202
204
209
211
205
191
203
208
205
207
196
180
175
172
179
166
161
160
164
145
140
143
145
161
162
158
172
171
180
189
195
198
202
200
196
196
200
195
200
199
202
203
200
195
185
195
194
194
197
192
184
184
181
185
174
175
174
176
178
178
185
178
182
177
177
179
178
177
181
185
184
182
173
178
178
176
183
177
180
181
188
196
170
182
192
201
185
175
180
183
185
199
202
205
206
215
201
189
202
209
207
196
186
182
175
174
178
167
159
163
166
155
144
153
145
161
163
157
168
172
171
181
191
193
204
194
193
195
198
203
210
198
202
200
205
201
199
199
195
197
190
185
179
181
178
186
182
182
178
178
179
181
181
183
178
176
177
182
182
177
179
182
182
176
176
174
180
182
185
178
183
182
198
190
165
182
189
198
187
173
176
193
185
185
202
204
206
210
200
189
202
205
200
189
183
181
174
179
178
172
157
166
170
165
157
155
150
161
161
160
166
174
169
174
188
192
200
193
188
189
186
194
203
204
204
201
206
207
204
208
203
206
195
188
185
183
186
193
191
190
189
185
187
182
184
183
181
183
177
174
184
177
174
178
178
178
173
176
180
182
185
183
189
189
199
183
167
186
191
185
182
176
180
195
189
181
187
202
204
208
198
192
201
198
190
189
182
178
176
180
175
176
163
165
170
181
166
153
154
157
164
162
165
178
175
173
184
187
193
190
192
185
190
186
194
195
198
202
203
204
205
213
207
207
200
199
195
193
193
195
193
193
191
195
194
189
190
185
181
182
173
171
181
175
171
177
176
183
177
180
183
188
182
191
191
194
194
179
167
193
194
178
173
186
191
193
181
180
175
194
202
207
200
198
193
188
190
188
181
175
179
179
173
175
169
165
156
192
177
158
151
163
168
166
165
183
183
176
177
184
190
187
190
189
185
186
194
188
193
198
200
196
201
199
207
201
202
205
204
199
200
199
201
197
195
196
188
192
187
183
178
177
178
171
177
176
174
178
176
184
183
187
188
190
186
193
190
191
190
178
172
191
185
179
176
194
204
186
175
178
176
179
201
209
200
190
192
192
193
186
178
178
180
180
169
170
176
161
149
197
193
159
155
167
175
168
164
183
204
188
170
178
184
186
188
189
187
187
192
192
192
197
198
198
200
197
202
196
199
202
200
196
199
195
194
189
191
193
189
193
187
188
183
181
180
172
176
176
176
178
183
186
187
194
191
192
196
189
197
185
188
179
175
192
166
172
185
199
202
185
177
178
176
178
185
209
194
189
193
189
189
180
175
177
182
169
165
176
179
170
159
196
193
163
164
168
175
173
173
189
207
197
171
174
178
184
190
188
189
186
191
189
192
196
195
194
198
196
198
198
198
194
196
191
191
190
189
189
189
196
188
188
188
187
185
180
180
176
174
179
179
181
188
193
193
195
197
195
195
189
192
176
190
182
185
184
165
167
184
202
204
187
176
180
174
175
180
194
192
192
195
189
179
172
168
172
173
161
169
183
190
178
169
190
185
165
167
170
175
187
192
196
203
199
188
176
179
177
188
186
186
184
188
190
192
194
191
189
194
192
192
192
191
192
191
190
187
187
186
187
183
189
182
181
182
181
182
178
177
178
174
176
180
180
190
197
199
197
198
201
192
190
185
180
195
181
195
186
174
155
181
203
203
191
175
178
179
177
191
194
184
203
201
201
178
172
167
173
166
173
183
193
199
185
166
179
184
167
166
169
182
195
206
199
204
200
193
185
184
176
183
187
184
181
183
191
190
198
190
187
192
195
185
187
188
186
190
184
180
182
183
178
179
180
174
176
180
176
175
176
175
175
173
177
177
182
193
195
202
197
200
198
189
192
190
183
193
171
204
203
179
165
178
198
199
195
178
175
183
179
190
193
173
199
206
204
174
171
166
176
180
189
193
195
205
188
165
167
182
165
164
173
199
197
215
205
205
205
200
194
187
186
178
180
183
179
183
186
193
197
193
192
189
193
184
186
189
184
191
182
176
177
178
170
178
176
173
175
177
172
170
172
172
174
174
179
185
186
194
195
200
199
196
189
187
199
197
176
183
176
199
219
175
179
180
191
198
193
183
171
182
183
193
185
176
184
195
196
177
172
179
190
194
200
197
195
207
188
160
168
176
159
159
180
196
210
216
195
208
211
204
196
194
186
182
183
175
178
184
185
187
191
193
197
195
194
190
191
189
189
188
182
176
177
173
169
177
177
169
173
174
165
167
167
172
173
178
181
188
192
194
195
198
200
191
187
197
196
185
174
184
179
203
209
187
181
191
185
197
194
188
171
174
182
185
182
182
187
193
197
184
183
191
193
195
197
193
195
208
184
163
173
168
146
157
182
197
219
206
185
211
215
204
192
202
194
187
188
180
174
181
182
182
187
190
196
196
195
193
190
189
187
185
178
174
174
170
169
173
174
165
164
166
161
164
167
172
175
181
185
191
193
187
190
196
197
196
198
189
186
186
181
186
174
199
207
205
187
193
178
197
198
185
181
165
175
177
171
179
193
188
193
191
191
187
191
196
191
198
195
205
181
174
176
152
148
156
189
192
226
201
183
206
215
204
195
203
200
193
187
182
179
182
174
178
185
187
187
191
196
194
190
189
187
182
178
169
169
164
167
164
161
163
159
160
161
165
171
177
177
182
187
192
185
184
187
197
196
201
194
181
188
190
182
187
169
197
203
212
209
197
175
189
198
185
182
174
173
177
162
171
186
186
183
184
183
178
189
186
188
192
187
200
181
183
174
146
147
169
186
186
224
203
183
198
208
200
198
202
204
200
193
186
181
189
183
181
181
183
184
189
194
191
189
185
179
176
172
169
164
166
164
158
161
161
161
161
167
169
179
181
184
184
187
183
183
183
187
197
198
202
191
180
198
188
180
182
179
200
197
212
206
218
179
180
192
183
177
178
169
173
168
171
179
186
176
177
175
176
184
181
187
188
185
190
177
184
176
147
151
187
172
180
217
215
187
195
191
197
201
203
203
200
202
194
189
190
187
189
186
182
184
186
187
189
188
186
175
173
168
170
165
164
161
159
159
163
166
165
171
175
185
187
187
183
179
183
184
188
191
198
198
201
189
187
199
184
179
179
185
202
199
211
208
220
192
173
187
182
174
176
156
163
168
170
174
178
173
179
174
185
186
187
192
190
197
183
183
186
181
149
157
190
178
169
201
221
200
188
187
189
205
204
199
201
205
203
199
197
194
191
191
191
191
185
187
183
185
185
183
178
172
169
170
165
163
169
167
170
173
177
179
179
186
191
185
177
179
186
190
194
190
197
195
202
193
193
196
180
177
175
199
202
204
213
218
220
203
177
183
184
171
177
152
158
166
157
164
170
171
171
172
183
183
184
186
192
195
181
184
187
179
154
179
193
191
170
190
210
209
194
182
187
197
201
199
198
204
209
210
202
199
196
193
190
194
196
192
190
186
184
184
185
179
177
176
175
172
181
180
180
181
184
185
185
188
186
182
182
187
189
192
192
189
196
196
208
193
194
192
175
176
189
209
204
203
218
218
220
206
182
183
182
168
175
156
159
173
161
159
164
171
182
183
191
182
179
188
192
188
175
190
186
184
163
198
202
199
167
179
201
198
205
185
185
194
196
198
205
205
210
217
208
205
201
190
191
195
195
193
192
190
189
184
185
185
181
184
179
183
187
189
191
183
186
186
189
186
182
183
187
189
190
187
187
191
201
203
206
188
196
187
170
181
202
214
209
202
222
214
218
205
199
177
179
175
173
161
158
171
163
163
160
165
184
188
193
179
187
188
197
183
174
195
194
198
176
206
206
209
175
174
191
180
200
204
183
189
198
193
196
208
213
214
212
211
209
199
191
198
198
195
185
182
187
188
187
181
187
185
184
182
185
191
190
181
186
188
185
185
186
187
185
187
183
188
188
198
210
207
202
192
193
180
169
197
206
212
209
203
217
213
216
204
206
184
189
175
172
168
153
170
168
157
160
160
187
188
179
173
185
187
198
181
189
207
202
220
202
201
206
214
184
168
185
171
186
207
195
190
193
196
191
196
205
214
215
216
213
213
204
205
200
197
188
185
185
187
183
180
187
188
184
184
183
190
186
184
186
190
190
189
187
186
183
183
190
194
190
205
205
205
201
191
185
175
181
207
205
215
206
205
209
215
210
208
200
199
192
188
177
165
155
164
172
159
154
151
