P2
# Face with average contibution
92 112
255
231
231
232
233
235
236
237
238
236
240
231
233
236
239
236
230
230
230
225
223
226
226
220
218
215
222
223
220
217
218
210
207
209
213
209
205
202
201
197
202
198
199
200
200
204
204
200
200
204
202
203
198
195
191
193
195
191
190
191
196
195
199
199
203
202
204
206
210
214
222
221
226
226
231
229
229
230
233
233
233
232
233
233
231
229
232
231
235
235
236
235
234
230
230
233
232
234
234
237
238
237
233
232
236
236
234
232
227
225
228
228
223
221
221
221
221
217
217
216
213
213
216
211
210
204
207
209
201
199
200
200
200
194
197
197
197
202
198
198
199
203
197
204
199
193
190
189
195
190
186
192
192
190
190
187
195
194
195
196
203
208
215
217
222
223
224
232
225
227
230
230
230
232
233
234
232
232
231
234
232
233
236
234
232
230
231
229
234
235
235
236
235
233
231
228
236
238
228
225
220
221
223
223
220
216
212
213
216
216
213
209
209
211
210
210
201
204
204
201
201
199
197
193
197
197
197
196
197
198
195
194
192
200
199
201
198
196
193
194
189
188
190
194
186
184
185
183
185
188
193
191
194
204
207
211
212
220
220
225
225
223
228
223
233
230
232
235
235
233
231
234
234
231
236
233
233
232
228
233
235
237
239
236
236
230
228
227
233
232
223
221
216
221
215
215
216
211
208
203
208
209
213
218
210
211
208
202
198
201
197
197
194
191
194
192
194
199
193
196
194
193
192
188
185
192
198
196
186
196
195
192
191
191
187
189
186
181
184
184
181
183
188
184
186
192
200
204
202
209
216
221
217
221
225
223
230
231
231
234
236
232
234
234
232
230
234
233
232
233
231
234
234
234
236
235
233
228
229
227
228
221
213
210
216
213
207
209
214
210
208
202
209
212
208
211
214
207
206
204
199
194
196
193
192
189
189
191
197
199
193
192
183
189
189
188
186
191
195
187
186
190
193
194
194
193
190
187
182
179
179
179
182
177
178
182
181
183
189
195
195
201
213
212
213
216
222
223
231
233
229
234
235
233
236
238
232
228
233
233
232
234
236
231
234
235
234
231
230
222
218
224
219
215
210
207
216
215
208
210
209
207
204
208
213
210
205
205
207
209
209
208
206
200
196
196
187
185
186
188
187
188
188
185
180
184
185
183
184
188
191
184
192
193
191
192
199
195
188
192
182
182
178
183
180
181
175
174
174
178
181
188
186
192
200
206
205
212
214
220
229
235
228
233
233
232
235
237
236
229
231
233
233
236
235
232
236
233
231
224
222
214
211
219
213
212
210
210
212
211
204
206
207
208
207
209
213
206
202
199
205
205
208
208
204
202
196
198
193
191
191
188
186
189
184
185
184
185
190
187
181
185
191
190
192
198
194
193
201
201
196
188
183
184
182
182
184
181
177
174
171
175
178
182
182
186
193
199
199
207
209
214
223
231
232
233
232
231
235
236
237
233
229
230
232
236
232
232
235
230
227
219
216
210
210
216
209
208
212
213
207
201
195
204
207
207
206
214
209
208
207
206
205
203
207
206
201
197
194
195
194
196
193
200
194
197
191
190
192
195
196
196
193
196
195
194
197
195
199
193
197
198
195
193
188
185
184
185
188
188
183
178
173
170
176
180
181
182
184
196
197
202
205
210
212
225
231
231
233
233
237
235
236
233
232
230
231
233
230
233
234
225
219
216
212
209
211
211
206
206
208
210
204
205
201
211
206
200
200
202
200
201
200
205
208
203
200
201
203
196
195
194
195
199
196
198
197
201
199
195
196
197
200
196
199
200
200
198
197
200
199
200
197
194
197
194
196
192
187
191
191
191
187
181
181
180
177
176
180
180
181
187
192
192
204
207
205
209
226
228
232
232
235
237
235
235
232
232
232
229
233
230
226
221
214
209
209
209
206
205
202
200
198
201
203
206
209
215
205
202
201
207
202
199
199
199
200
197
196
198
198
200
197
198
200
195
191
192
197
206
202
197
199
202
200
196
198
199
200
198
201
196
197
198
194
195
198
200
198
197
193
191
190
189
193
186
180
177
177
178
179
177
181
181
188
189
195
202
208
203
208
224
227
230
233
234
236
232
234
231
229
235
232
223
221
219
209
209
204
207
204
203
199
194
197
206
210
208
208
208
204
205
201
205
201
196
199
197
194
195
198
199
201
201
197
200
199
200
193
193
197
202
201
202
205
202
205
204
201
202
200
200
201
199
196
196
200
197
201
202
205
197
194
195
192
190
188
189
185
180
173
174
178
176
177
180
185
187
191
194
204
208
204
208
218
229
231
230
234
233
234
233
230
231
224
218
213
211
209
207
203
204
201
202
195
202
207
211
214
208
204
200
199
198
195
195
198
195
196
193
199
198
197
198
205
203
201
199
201
200
199
197
205
203
202
203
207
207
206
208
204
204
202
203
200
200
201
206
209
204
200
201
202
200
198
196
198
196
193
188
189
184
181
171
176
178
177
178
183
187
188
193
197
205
204
201
207
221
228
233
231
230
233
234
232
226
228
219
210
211
206
210
205
202
200
194
195
200
204
213
210
209
206
204
205
202
197
193
195
196
196
199
198
201
202
200
205
205
201
200
201
204
206
201
202
203
207
206
211
212
209
208
206
207
203
205
205
207
205
204
206
205
205
201
203
202
199
196
197
200
199
193
190
187
187
179
175
176
175
176
179
186
186
191
194
196
200
201
202
208
224
229
230
229
230
231
231
225
226
220
208
208
207
209
202
196
192
188
186
187
194
199
197
200
194
196
198
198
193
194
192
190
194
202
203
207
202
205
203
207
206
205
207
209
211
204
206
210
209
204
210
215
214
209
207
204
203
203
210
211
206
205
207
208
206
202
202
202
200
195
196
200
198
199
193
188
189
185
182
178
177
178
178
182
185
190
192
196
195
198
202
203
213
219
228
229
228
232
232
224
221
212
210
211
207
203
193
190
185
180
186
193
196
192
192
191
191
190
190
190
190
191
191
195
203
202
202
208
204
205
204
209
209
208
209
212
210
204
206
213
212
208
208
211
212
211
213
208
206
206
207
207
205
204
206
204
206
203
200
203
200
195
194
199
194
195
197
191
188
187
181
182
176
181
174
175
186
188
194
200
200
196
201
205
204
216
221
227
226
231
235
222
221
203
212
215
203
190
194
189
184
185
192
197
192
186
190
186
189
190
192
191
190
195
199
201
205
205
208
209
210
208
210
214
214
215
210
213
211
212
210
212
214
211
211
210
212
212
208
206
206
207
202
201
202
201
203
204
208
205
204
200
203
200
198
197
197
191
200
195
194
189
185
184
180
183
178
172
177
185
191
199
202
199
194
202
205
210
219
222
225
229
232
221
217
212
211
208
197
190
195
187
189
193
200
199
196
196
192
191
191
191
194
191
195
198
204
208
206
210
211
215
214
214
215
217
217
219
220
215
214
218
216
214
217
213
213
216
214
212
209
206
207
205
201
203
202
202
202
205
206
205
203
201
200
202
201
201
198
196
200
197
193
189
188
183
185
186
186
175
171
177
187
190
196
198
194
194
206
204
212
220
217
223
227
213
216
215
204
201
195
188
190
193
189
198
194
194
193
195
195
192
197
199
196
198
201
205
211
211
212
212
216
214
218
219
221
225
224
225
223
220
220
222
219
220
220
216
220
218
219
213
212
209
208
203
204
207
205
201
203
200
200
204
204
205
201
204
205
203
199
196
198
196
194
189
186
182
184
185
186
181
171
171
183
183
189
194
196
190
200
208
208
211
215
220
224
216
212
211
200
204
198
190
190
193
191
197
192
190
191
194
192
199
202
200
199
203
206
210
214
213
215
213
216
217
219
223
226
231
230
228
228
225
228
222
227
225
225
224
223
223
222
221
219
214
212
212
211
212
209
207
207
204
202
207
208
209
208
208
208
205
203
200
197
198
196
192
190
189
187
186
188
186
177
171
178
182
185
193
192
191
193
205
207
210
209
218
223
211
215
202
203
207
199
193
194
194
200
196
191
188
194
192
197
203
199
201
202
209
210
214
213
213
214
214
218
220
221
225
229
228
227
229
231
227
225
225
229
228
230
225
223
225
224
227
225
221
217
219
219
220
214
215
214
213
213
214
213
214
211
210
208
208
205
202
200
199
199
192
195
195
192
189
186
189
186
173
171
182
184
192
190
188
191
198
206
208
208
212
219
214
205
199
209
204
195
194
194
192
194
192
195
195
198
199
201
199
196
203
207
212
213
214
213
213
215
218
222
223
225
229
230
229
231
233
231
232
232
230
230
229
233
229
224
228
229
225
228
226
220
221
221
219
223
221
221
220
219
218
211
215
213
206
209
211
207
206
206
205
202
194
196
194
193
187
186
184
188
178
170
171
183
187
186
188
190
196
204
207
210
211
216
205
203
203
205
203
201
196
189
188
194
193
192
198
203
200
201
199
200
202
207
211
214
212
213
217
219
221
224
224
227
227
228
230
233
232
231
235
233
230
231
235
234
228
227
226
227
228
229
227
224
222
223
221
225
220
220
221
219
216
213
213
210
208
209
209
210
206
205
205
201
198
196
193
192
189
185
183
187
182
178
167
178
188
183
185
187
190
198
206
213
211
212
204
204
206
209
206
200
190
186
191
194
193
197
201
201
200
197
201
202
205
207
207
213
212
218
223
223
221
226
229
228
228
232
235
234
231
230
231
234
232
234
234
235
231
230
229
228
230
229
229
228
226
225
226
225
224
224
223
223
222
218
218
213
211
209
211
206
209
208
203
200
200
199
197
195
190
187
185
187
186
182
176
175
185
186
180
187
189
194
199
212
210
208
202
204
208
217
202
194
190
192
195
193
196
202
200
200
200
200
204
206
203
207
211
214
217
224
225
226
227
231
233
234
235
237
235
237
234
234
233
234
234
235
236
236
234
235
231
230
231
229
230
231
231
230
230
228
227
226
227
228
225
224
224
219
215
214
215
211
210
208
202
202
201
196
198
201
190
188
186
188
190
183
180
174
182
184
181
181
188
198
193
203
211
209
209
202
207
210
189
192
192
194
190
191
201
199
197
196
201
204
206
207
204
209
214
217
219
226
231
230
232
233
237
238
240
239
238
240
238
240
239
238
235
238
238
235
236
234
230
231
232
234
234
234
234
232
234
231
232
232
230
233
230
227
226
225
219
218
214
214
210
207
206
205
198
196
196
196
193
187
183
185
186
186
178
173
177
181
184
179
186
196
194
195
207
205
202
200
199
196
189
188
196
194
190
194
195
195
195
194
203
204
204
206
207
212
217
220
224
228
232
234
235
235
239
237
240
242
241
240
242
242
243
241
240
240
238
237
238
235
235
234
233
236
234
236
234
235
231
229
231
232
231
232
233
232
228
228
223
219
218
214
208
207
204
206
199
197
196
193
194
185
184
185
185
184
184
173
177
176
175
179
180
193
197
196
199
207
199
195
195
190
190
181
185
189
189
189
190
195
196
198
208
207
207
210
209
215
219
225
228
231
233
236
237
238
240
241
237
244
242
243
244
243
241
241
237
236
236
238
238
238
238
236
236
235
238
236
234
234
233
233
232
234
228
230
231
230
229
227
223
221
217
213
208
204
204
204
201
197
193
194
189
186
183
184
184
180
179
173
168
178
172
169
181
195
192
195
202
203
204
197
196
188
189
183
181
187
187
185
193
193
199
201
208
211
212
213
217
218
222
225
229
232
236
236
239
240
242
242
240
243
240
240
241
241
238
236
234
235
235
239
239
239
237
236
235
238
238
236
232
231
228
232
232
232
229
231
229
227
229
225
222
220
214
210
208
201
200
202
201
197
193
192
185
184
183
183
182
180
179
170
167
171
174
167
170
195
193
194
199
202
203
196
198
191
185
186
186
185
184
188
192
197
199
205
212
213
213
215
219
223
224
227
229
232
237
237
238
239
240
240
239
240
240
240
241
241
239
238
237
237
237
239
239
238
238
236
233
237
234
233
232
231
227
225
227
226
228
229
228
227
227
224
221
215
211
208
204
201
195
198
200
197
194
190
185
178
182
180
181
181
179
170
168
165
168
165
170
186
195
198
199
200
200
195
197
190
187
182
183
182
188
184
193
197
197
206
207
211
217
218
222
227
228
227
228
231
235
236
237
238
236
236
235
238
239
238
239
242
240
239
239
239
238
240
239
239
238
234
230
233
233
229
228
225
223
222
221
223
226
227
227
223
224
221
218
213
208
203
202
200
194
193
195
195
195
193
187
180
181
182
182
182
179
171
172
165
165
161
167
184
194
199
199
200
194
195
195
192
188
177
178
185
181
186
196
194
196
207
205
214
218
221
226
231
232
229
229
231
234
234
235
234
234
231
234
237
237
238
235
238
240
238
238
239
237
238
237
236
237
233
229
228
230
227
226
223
223
221
218
222
224
224
221
222
221
219
215
210
206
201
200
197
196
192
190
193
195
194
190
182
178
183
184
183
177
173
168
169
168
162
163
185
195
200
197
192
197
198
201
190
193
178
175
181
178
190
195
194
200
207
207
212
222
223
230
231
232
229
230
233
232
233
235
234
232
232
235
235
236
237
235
236
237
238
237
239
239
237
234
237
238
233
229
226
227
230
228
224
221
221
223
223
226
225
224
220
219
218
212
210
206
202
199
195
198
195
191
191
192
196
194
184
182
178
188
180
177
170
159
163
168
164
162
183
199
204
193
190
198
200
198
192
190
176
171
179
181
190
194
196
203
206
208
216
221
223
230
231
229
229
233
236
235
237
238
239
238
235
238
238
238
241
240
238
237
238
238
242
239
238
237
237
240
237
230
228
227
229
228
223
223
223
228
228
227
226
225
224
221
217
214
213
210
204
201
200
200
198
195
192
191
194
196
191
186
177
186
182
175
168
160
158
170
165
160
176
199
206
194
186
200
199
197
190
192
177
171
184
187
189
192
197
204
210
213
220
224
228
232
235
233
233
239
241
239
240
242
239
241
242
241
241
244
245
246
245
243
244
243
243
241
240
241
240
239
236
233
231
227
230
230
225
224
225
225
226
225
221
221
225
224
222
217
216
214
209
208
207
204
199
198
193
191
192
197
191
192
183
181
182
174
170
160
160
167
168
156
168
190
204
201
186
197
200
192
186
190
181
176
188
185
185
186
196
202
206
209
214
218
225
224
229
228
230
234
240
239
240
244
249
249
244
250
253
249
252
252
244
244
245
248
246
248
244
242
242
242
239
239
238
235
235
232
225
225
227
222
223
224
222
222
222
224
221
216
214
215
213
210
213
209
204
203
197
198
196
196
197
191
191
182
183
175
167
164
163
164
165
156
168
187
202
202
188
196
196
193
184
181
181
184
183
182
186
191
198
204
205
208
209
219
230
230
231
232
229
232
231
230
233
232
234
232
233
236
249
248
250
255
250
248
249
251
246
249
241
243
236
236
236
231
233
230
234
230
233
226
234
226
227
231
231
230
227
226
222
217
214
216
214
215
214
212
209
209
206
205
205
202
201
196
195
191
179
175
165
160
160
163
160
160
162
183
196
204
186
196
198
186
180
182
184
179
181
185
186
188
197
202
205
214
218
227
227
224
221
219
222
224
224
220
225
228
224
220
220
224
232
235
242
245
250
251
254
254
252
249
240
240
233
232
233
226
229
231
234
234
234
230
229
226
222
225
225
221
219
221
219
217
216
212
209
213
214
215
211
208
207
207
201
199
195
191
188
191
181
176
167
159
156
159
160
158
160
174
189
197
193
198
198
183
173
180
187
173
184
185
182
187
198
210
212
214
212
219
216
216
218
214
218
221
220
218
224
227
229
220
220
218
229
231
239
246
241
252
251
246
245
249
248
235
232
228
228
224
228
235
236
234
232
231
232
237
229
225
223
221
219
220
218
215
217
214
216
216
219
218
218
212
208
208
203
198
193
186
183
177
174
167
164
166
160
158
155
158
155
174
185
193
195
194
198
184
169
184
185
168
186
177
182
188
207
209
202
210
210
209
211
211
210
210
212
215
213
214
222
226
234
220
223
223
231
243
243
245
235
236
237
229
227
228
234
231
220
220
221
221
227
231
230
233
232
235
241
242
235
228
227
227
225
223
223
222
218
221
222
226
224
220
219
213
211
204
202
197
189
179
176
170
163
157
154
154
155
166
164
157
157
175
184
191
194
199
196
184
164
182
189
177
180
176
180
198
196
201
199
200
201
199
202
202
195
200
201
209
209
209
218
219
230
223
215
214
225
236
238
238
234
231
230
223
221
218
219
228
218
216
219
221
227
232
232
236
237
237
242
241
239
234
228
230
230
236
231
226
220
221
222
225
222
215
214
212
211
206
205
201
191
181
174
173
158
155
150
150
153
167
172
164
159
179
184
194
193
202
182
177
165
181
188
183
172
177
190
187
188
195
189
190
191
195
190
191
195
203
203
211
211
212
217
222
230
227
220
232
232
238
239
240
238
232
239
232
229
227
215
220
210
212
222
221
222
234
236
235
234
230
233
235
235
232
232
232
229
240
221
210
208
220
218
222
220
213
214
215
218
213
209
211
199
196
192
179
163
158
156
147
153
172
172
166
161
177
185
193
197
194
165
169
173
179
177
178
180
187
189
180
186
191
181
188
190
183
186
192
202
211
202
198
210
216
227
231
230
228
223
232
234
241
239
237
238
235
242
243
235
231
217
216
203
208
215
207
206
218
232
226
232
226
223
229
232
227
224
227
223
226
204
203
202
214
219
220
218
213
211
214
220
218
206
211
206
200
199
182
169
169
172
153
158
166
171
160
165
179
188
180
199
181
161
164
179
179
165
175
195
191
179
193
192
188
185
193
189
188
191
198
204
204
193
201
213
217
228
229
227
235
235
235
237
243
243
244
236
229
238
230
230
226
212
214
212
207
212
211
203
211
214
211
213
215
216
223
223
222
218
218
216
221
210
202
213
219
221
223
220
214
206
210
215
213
198
202
205
192
192
177
162
161
169
170
171
167
168
164
171
193
190
169
197
173
168
177
171
166
158
163
181
182
164
186
188
183
186
186
186
186
189
195
196
193
195
211
211
221
231
230
227
237
240
239
233
240
229
242
225
215
221
212
216
222
208
205
215
198
203
208
205
205
205
200
203
206
214
222
220
221
217
217
212
225
212
216
223
215
220
224
220
212
203
208
219
212
211
205
203
193
190
172
159
152
157
164
174
170
175
167
172
190
192
168
192
176
177
176
183
155
159
152
160
174
161
175
169
178
183
184
180
177
186
194
198
198
201
213
205
217
220
214
230
232
229
236
236
237
235
237
225
220
233
223
216
222
222
208
211
205
207
203
204
205
195
199
198
207
210
216
215
214
212
214
214
214
204
204
215
221
223
224
223
225
220
214
221
211
204
199
200
185
195
175
156
153
157
158
160
165
172
169
170
190
189
173
190
179
179
166
184
153
157
147
158
168
168
166
164
177
187
180
178
171
186
188
198
201
205
203
208
223
222
212
234
229
231
233
241
241
237
236
219
227
232
228
227
214
228
213
213
209
214
211
202
200
204
204
198
208
211
209
212
211
210
216
213
217
214
210
223
222
231
230
232
233
222
207
225
224
214
199
197
185
184
179
159
154
160
155
149
156
169
175
170
191
185
175
194
187
183
161
176
152
152
152
165
160
164
160
172
180
190
183
175
172
183
192
199
198
201
205
216
226
230
222
215
218
237
241
245
251
238
229
219
233
226
230
231
216
224
213
212
216
224
215
207
203
207
207
197
204
205
207
206
211
206
209
208
215
220
216
222
222
224
234
231
240
219
214
227
229
221
202
195
184
186
182
169
159
161
155
145
154
160
173
170
187
189
170
193
182
186
161
172
153
158
156
171
158
162
166
184
182
184
185
177
173
185
193
199
195
193
207
213
219
230
235
214
221
239
248
242
243
236
218
216
237
230
234
228
221
222
215
208
211
220
211
207
206
207
207
203
200
201
205
203
202
207
207
213
219
220
221
224
224
230
228
228
230
222
221
222
214
204
195
190
182
192
187
163
157
165
163
144
147
159
170
166
185
189
171
187
173
187
164
169
152
159
160
179
161
161
167
183
180
180
185
179
175
190
195
193
194
200
212
218
225
227
234
232
225
237
235
233
234
233
212
221
229
227
237
233
223
217
213
203
206
216
207
212
207
207
210
206
200
201
205
209
204
206
208
213
213
224
230
227
227
227
230
226
222
224
215
209
199
188
175
187
185
188
190
166
164
161
165
144
149
163
169
164
177
188
176
190
173
191
161
162
145
154
162
180
160
157
162
176
178
181
185
183
177
197
198
187
194
206
218
224
225
226
236
235
228
235
225
225
221
217
211
222
214
219
229
220
209
216
211
207
205
212
202
214
212
209
209
215
204
204
211
211
204
204
203
210
210
217
223
221
219
222
226
229
226
222
213
202
193
179
174
177
181
184
188
167
174
157
165
143
145
168
173
172
175
178
176
193
179
199
170
164
149
154
164
169
156
155
161
169
180
188
184
177
176
199
201
187
197
211
221
223
220
221
224
220
217
223
216
211
212
201
212
214
208
214
219
211
205
215
216
215
214
213
208
215
210
209
209
218
207
205
218
210
208
204
197
199
205
209
209
209
208
211
213
213
222
221
212
200
189
186
177
175
174
174
181
170
171
159
161
142
145
169
178
175
176
177
171
186
190
198
191
169
159
158
174
176
158
158
161
168
176
180
174
166
171
194
190
188
191
201
207
209
208
209
214
211
216
223
218
216
209
199
199
196
206
206
214
204
209
213
218
218
217
213
205
209
202
203
202
207
202
201
204
205
203
195
194
199
195
186
189
190
189
194
199
207
213
212
201
188
183
187
179
177
173
167
177
170
167
157
163
139
150
166
181
176
174
182
169
183
187
189
181
161
159
147
178
182
174
161
161
169
174
171
164
159
169
193
188
187
189
200
198
204
203
211
209
205
212
213
212
208
200
203
189
191
199
200
201
192
206
198
210
211
209
212
194
194
189
194
197
197
192
191
197
204
198
193
192
190
187
177
179
184
181
182
190
193
203
204
191
179
178
178
175
174
167
167
178
180
164
161
167
140
151
164
185
176
173
187
171
175
186
187
176
154
160
148
162
182
185
167
166
173
174
168
152
164
169
188
181
182
191
203
203
207
201
209
209
203
210
206
200
194
204
201
199
197
197
200
189
194
195
191
204
200
197
200
187
180
178
188
192
190
182
182
191
191
190
187
185
183
182
174
175
183
182
184
184
184
192
195
188
178
172
164
166
165
157
168
177
168
153
159
160
141
154
165
175
173
170
191
175
170
185
185
178
159
160
166
149
178
183
177
170
173
175
167
155
164
175
183
182
182
192
200
199
200
198
201
198
196
201
195
190
177
194
191
195
192
195
197
188
204
186
195
203
203
200
199
188
183
163
175
179
182
178
182
189
185
181
189
187
183
180
172
176
182
182
183
183
182
182
186
183
180
172
164
160
161
158
175
171
166
157
165
156
150
158
160
160
163
166
190
176
169
185
177
176
174
158
172
159
176
176
188
176
172
175
167
159
162
175
180
179
184
188
196
204
202
196
196
197
195
193
188
177
190
184
184
185
185
191
186
195
194
185
201
209
205
205
205
200
186
178
169
174
181
180
180
189
186
177
187
182
180
178
174
173
178
181
183
183
189
184
179
180
178
172
171
166
160
155
175
171
164
173
163
155
155
166
161
154
154
163
190
177
175
176
175
182
185
168
171
170
180
176
177
188
169
175
168
167
157
178
181
182
186
187
191
196
198
194
195
194
192
190
182
187
196
179
179
182
187
179
184
193
186
186
200
204
200
200
200
204
193
192
178
173
179
183
183
188
191
182
179
187
184
186
183
184
182
186
184
186
191
194
184
185
177
172
169
169
169
159
178
175
174
181
166
159
163
172
160
158
154
161
184
176
181
178
178
186
189
175
173
179
181
180
174
176
185
176
170
171
167
173
183
183
184
184
190
191
196
197
195
195
191
186
193
197
196
191
178
180
180
177
188
187
186
186
195
197
199
198
196
197
198
201
186
182
173
176
184
189
191
190
182
187
188
191
191
188
186
182
179
180
183
191
186
179
177
174
170
169
168
158
168
171
185
181
162
160
170
166
160
165
153
158
180
179
185
178
179
194
191
174
173
185
183
178
169
173
183
192
180
176
179
171
180
182
185
189
192
192
202
203
191
191
188
192
191
189
194
195
183
178
179
192
186
188
190
188
191
199
204
202
196
196
194
194
187
179
172
179
179
185
192
194
197
199
200
193
190
186
188
180
177
177
179
185
185
181
179
178
164
170
163
162
164
173
182
175
162
161
170
173
164
162
155
160
174
184
185
186
178
199
192
169
168
180
181
173
172
171
174
178
199
179
185
171
177
185
186
185
188
188
192
198
193
193
187
187
186
189
192
185
172
179
188
177
175
186
186
185
190
204
209
201
199
202
194
193
197
184
172
178
184
187
195
198
196
201
203
197
189
186
179
174
177
175
181
184
182
182
180
178
172
172
163
170
168
178
179
172
167
166
175
170
164
176
161
155
173
188
187
196
175
205
191
162
169
175
180
176
179
174
173
173
180
178
186
183
179
177
182
182
188
193
192
198
201
203
195
188
187
192
187
181
169
173
186
172
179
189
184
187
195
206
207
198
198
201
199
197
203
189
182
183
189
192
199
202
200
199
202
205
198
193
189
184
184
180
183
187
187
185
185
178
174
175
171
178
173
184
179
177
176
172
167
161
164
177
165
156
171
187
189
208
179
205
192
167
166
174
182
174
187
180
177
176
180
178
182
187
193
191
188
191
195
194
193
195
195
199
199
187
188
199
186
180
171
174
176
176
184
188
183
191
198
204
208
199
199
201
197
201
195
196
188
193
202
202
198
198
204
201
199
203
201
201
193
188
188
187
188
192
188
188
186
181
179
177
176
184
182
192
184
182
182
168
161
158
168
169
163
162
175
186
192
216
185
201
193
170
169
173
183
174
190
187
182
182
179
183
182
191
192
192
197
204
206
200
198
197
198
196
194
191
193
198
187
172
175
181
177
179
188
189
189
194
199
206
210
205
206
203
196
200
200
203
201
205
206
206
199
200
206
203
200
202
202
200
195
194
196
197
198
197
195
195
190
190
186
180
181
189
190
187
181
183
178
168
167
162
177
165
160
166
178
189
190
222
187
198
196
171
172
176
181
179
191
189
187
185
186
182
189
186
196
193
195
199
206
206
201
201
204
201
191
192
192
190
181
178
180
180
180
181
190
193
194
198
206
207
203
199
207
205
204
204
208
212
214
218
206
204
205
204
207
206
200
203
204
205
199
196
197
193
195
195
191
195
187
190
186
181
182
187
190
182
184
184
180
173
172
168
169
161
159
170
177
183
191
221
190
193
190
175
168
175
180
181
188
193
185
188
191
185
189
189
189
188
192
197
203
207
207
202
204
201
192
191
192
185
185
185
192
188
187
187
193
198
201
203
210
210
196
204
207
209
210
210
208
217
220
222
211
203
210
214
215
210
207
201
207
207
206
200
197
194
189
186
185
190
184
187
184
182
182
186
183
182
184
182
182
177
174
160
164
160
161
169
170
175
193
223
197
195
180
173
174
171
181
181
184
199
187
186
194
189
189
189
189
190
193
201
206
210
214
211
209
207
204
195
199
203
194
192
196
194
200
198
195
202
202
204
208
215
205
213
214
215
218
215
210
216
222
219
221
224
219
217
223
220
212
207
219
210
207
206
200
195
189
187
187
190
191
189
189
182
186
184
180
181
189
176
182
181
172
149
163
161
164
168
168
176
199
220
202
199
184
157
173
173
185
182
181
194
192
188
194
188
188
192
191
196
199
207
211
214
216
215
210
210
209
206
206
208
200
197
203
203
208
209
205
210
214
210
209
221
211
216
219
227
224
224
219
219
212
210
217
219
230
229
220
219
217
225
231
212
211
210
206
203
196
193
190
193
195
195
195
193
185
182
181
182
188
176
176
181
172
148
164
162
165
168
165
180
197
221
213
202
196
166
165
172
184
186
182
188
190
188
194
189
189
185
188
194
201
205
210
213
212
216
213
213
213
208
205
204
197
203
205
210
210
211
211
220
224
222
222
232
229
220
223
228
226
220
217
218
214
207
218
217
224
228
225
222
222
226
226
221
221
215
209
208
202
197
197
199
199
202
197
195
193
183
179
184
183
178
172
177
171
150
169
165
168
165
168
188
194
218
217
208
202
172
172
166
178
187
179
185
191
186
189
192
188
190
190
197
203
207
213
217
216
215
217
218
212
206
205
202
200
202
204
212
209
208
213
223
224
223
221
226
231
231
229
227
226
216
214
216
214
209
217
222
222
222
219
222
232
226
222
221
224
216
213
209
206
206
207
206
200
200
198
193
193
188
181
187
182
179
173
173
171
157
172
164
169
163
171
196
191
212
220
209
210
179
167
170
169
179
176
186
189
184
184
189
186
187
191
199
201
206
209
213
213
214
216
214
209
209
208
205
204
202
202
208
207
206
213
219
217
221
220
222
221
228
230
230
223
220
213
211
215
221
228
232
229
224
223
219
227
223
224
225
222
216
208
207
210
208
206
203
202
203
197
189
188
189
180
187
181
179
175
174
171
165
171
164
170
160
178
198
187
207
222
210
219
187
172
169
167
173
176
186
191
183
180
187
185
189
191
198
197
201
204
203
212
211
205
207
209
208
206
206
203
199
197
200
200
200
210
213
215
219
219
219
221
222
221
228
226
223
218
217
218
226
230
227
230
220
218
221
227
219
218
217
215
213
205
206
210
210
206
204
201
200
195
187
183
188
182
188
179
178
176
175
172
171
175
166
167
158
186
198
186
198
219
216
215
193
180
176
169
170
175
186
190
182
183
188
184
188
190
195
191
196
194
199
205
200
201
202
204
203
205
202
201
198
191
192
189
197
199
201
201
212
214
215
216
213
218
225
223
225
225
226
223
226
226
222
226
221
215
212
216
208
204
208
204
206
202
201
203
204
206
203
198
195
191
183
182
186
185
188
182
177
172
174
178
173
172
167
161
161
191
197
191
196
210
220
218
198
185
180
176
172
171
184
186
181
184
184
180
183
184
192
188
191
190
199
198
194
199
197
199
202
201
199
199
192
183
180
179
184
186
184
182
198
199
202
204
207
210
213
215
220
216
218
221
226
225
219
220
215
211
204
204
198
198
200
197
201
203
202
200
200
201
198
192
188
184
182
185
187
184
190
182
170
168
180
179
173
168
161
158
169
190
192
194
200
202
218
221
205
183
181
172
168
172
184
186
187
184
181
178
178
182
188
189
187
186
192
194
190
196
194
197
196
196
196
194
190
182
173
173
171
170
170
171
179
189
193
195
199
199
198
199
205
199
199
205
208
211
212
213
208
206
201
200
196
194
202
195
198
203
201
198
198
197
195
192
187
184
182
188
186
187
185
176
169
172
186
173
169
162
155
163
172
190
193
193
203
202
213
222
212
184
184
173
166
166
174
181
185
181
178
175
177
179
185
188
184
184
189
189
187
192
191
194
194
192
191
187
184
184
175
170
171
163
166
170
174
181
187
189
191
191
191
189
189
188
184
190
191
201
206
206
203
198
197
200
196
195
196
196
191
198
197
196
194
193
192
189
185
186
180
186
186
183
181
175
175
179
185
168
163
152
159
162
176
191
198
195
205
209
206
217
213
185
180
176
167
168
171
179
177
174
173
176
175
178
181
187
184
181
191
187
186
187
187
190
189
189
185
183
182
181
178
170
175
171
175
172
174
183
185
187
184
188
190
185
189
190
190
199
193
200
209
204
204
199
197
196
192
198
195
192
190
190
196
197
192
188
187
185
181
186
178
181
183
182
178
175
172
179
178
164
151
148
162
167
176
195
199
199
209
208
211
206
208
178
173
170
166
167
175
173
175
175
166
174
175
171
178
178
181
180
185
189
189
182
186
185
189
191
188
187
187
183
179
180
185
180
181
174
178
185
188
194
189
192
192
194
196
200
206
208
206
207
212
207
204
204
195
196
195
196
192
195
188
187
189
195
191
186
186
183
179
181
177
181
178
180
176
174
171
182
170
154
140
150
162
173
180
201
198
200
211
207
213
207
207
174
162
164
166
167
173
172
173
175
169
169
175
167
175
174
178
179
183
188
186
178
183
183
190
188
191
192
191
191
187
188
196
192
192
188
194
199
201
203
202
208
205
205
202
209
211
215
216
210
214
213
208
206
199
200
202
199
196
197
192
186
188
192
191
187
184
178
178
177
176
178
175
175
172
170
172
180
161
144
141
150
164
172
184
203
200
198
209
209
207
211
212
183
156
159
169
165
171
172
169
176
169
167
169
166
169
173
174
180
185
183
180
176
175
184
187
189
194
195
193
198
204
206
208
207
211
213
214
216
216
214
216
219
216
212
209
209
215
218
221
215
212
217
213
214
210
204
208
211
205
202
196
187
186
190
190
183
182
174
177
179
174
179
173
175
169
168
173
175
155
141
143
154
168
174
194
205
200
200
208
211
205
211
207
190
163
159
170
167
166
174
167
175
170
166
167
166
169
168
172
183
183
183
174
175
174
180
187
189
191
191
194
202
212
219
224
218
223
225
225
221
220
219
220
216
217
216
209
205
212
218
219
213
213
217
218
227
225
223
219
221
215
204
200
190
183
186
186
181
179
175
177
176
173
174
171
172
166
164
170
166
150
142
147
161
169
181
204
204
201
201
205
207
212
207
206
200
183
165
173
166
164
170
168
169
171
165
165
165
168
166
174
183
181
180
178
171
170
182
188
187
191
193
196
204
212
219
229
230
228
225
231
222
219
210
213
209
211
218
210
201
204
211
213
200
208
213
216
222
227
233
229
228
221
213
203
196
188
187
183
178
175
174
173
170
166
169
167
163
159
157
161
160
149
144
158
164
175
190
205
202
202
202
197
205
211
206
207
207
192
171
178
167
161
168
169
167
174
163
165
167
164
168
174
178
181
178
177
172
167
181
189
187
192
200
201
201
207
219
230
241
237
227
237
226
215
204
197
195
199
209
202
184
189
196
196
185
192
206
210
208
213
220
225
219
218
220
210
206
197
190
183
176
175
172
166
164
159
162
162
157
151
157
152
156
149
152
165
173
180
194
206
202
204
201
199
204
204
204
208
208
194
176
176
168
162
169
170
162
171
167
162
162
165
169
172
174
178
175
171
166
167
181
183
188
189
197
200
192
191
204
217
230
237
232
231
226
217
209
197
188
196
193
186
175
179
188
186
183
191
199
202
202
205
212
208
199
205
209
207
200
188
179
181
177
173
167
162
159
156
158
155
151
151
154
154
154
150
158
176
178
183
200
205
205
205
204
199
201
195
201
210
203
194
182
177
171
163
174
172
163
171
172
162
166
166
165
172
171
168
169
166
162
166
177
177
182
184
187
192
189
193
200
208
208
214
213
206
208
208
208
204
192
200
188
182
181
180
190
188
185
190
187
193
197
198
200
200
196
197
197
197
186
178
175
174
175
168
166
161
160
155
153
149
148
152
155
158
158
155
169
181
180
190
204
203
206
206
209
200
197
196
199
202
202
191
188
175
172
166
172
175
170
172
177
164
168
165
164
167
165
164
165
166
159
170
167
171
175
176
176
180
181
185
187
194
196
198
202
195
193
191
192
197
189
195
190
187
183
178
195
189
187
189
183
190
201
197
198
193
185
186
190
187
181
179
176
174
173
170
168
165
159
157
153
147
146
158
157
161
157
161
173
184
184
195
203
203
204
207
210
205
198
199
198
195
195
191
184
175
174
168
173
179
174
173
175
170
167
162
162
159
157
159
159
158
156
163
159
167
169
172
170
173
170
171
174
175
182
181
187
187
189
184
180
187
183
184
186
187
185
184
195
190
192
196
193
195
198
200
194
189
185
187
187
183
184
183
180
180
174
172
170
168
159
161
157
148
151
162
162
163
161
163
179
182
184
200
201
202
202
208
210
204
202
201
198
190
195
181
169
170
173
171
174
180
178
172
173
174
170
166
162
157
153
156
154
153
152
153
155
161
164
174
172
174
166
164
168
164
171
170
174
177
177
176
175
180
183
183
188
189
190
191
199
201
203
208
201
199
197
200
196
191
190
187
189
186
188
183
182
181
178
173
170
167
161
162
160
153
160
164
167
166
163
170
181
181
194
198
198
204
204
206
206
205
203
202
195
191
194
169
168
177
175
170
177
175
179
177
173
173
168
163
162
159
153
157
150
159
153
156
159
165
174
174
175
176
172
170
170
168
174
172
179
182
184
179
177
183
179
184
186
191
195
198
202
207
205
204
199
194
192
192
194
188
184
180
183
182
185
180
179
182
176
179
172
168
167
165
158
158
166
167
168
165
162
177
182
187
201
197
196
201
206
203
207
203
198
195
190
186
176
165
171
184
184
169
179
177
177
181
176
174
167
166
159
154
155
155
155
163
160
163
163
171
177
175
174
170
173
175
175
176
183
185
188
188
189
188
182
186
186
190
186
193
193
201
207
204
200
202
198
196
192
189
189
189
178
180
180
175
174
178
171
176
177
177
174
169
169
164
155
160
163
165
163
157
162
174
173
192
196
193
190
195
200
204
207
200
187
187
188
175
162
167
172
179
193
178
182
180
180
183
187
173
172
164
158
152
155
155
157
165
162
167
167
170
176
174
171
176
174
177
173
177
178
181
186
187
187
191
189
185
187
182
186
193
190
191
195
199
195
197
196
193
190
186
185
179
172
175
176
168
167
174
171
174
179
180
171
168
168
162
153
162
166
165
161
160
166
172
173
193
191
188
183
187
192
202
205
199
188
191
182
162
162
168
173
170
185
192
189
186
185
189
187
172
170
160
159
154
156
157
158
164
159
169
171
170
171
178
177
176
174
176
175
179
177
178
180
181
179
181
185
185
188
186
190
194
192
189
191
194
193
189
185
185
181
177
172
169
166
169
173
169
168
169
169
173
174
172
171
166
163
153
158
161
165
163
156
162
170
171
183
191
188
187
183
184
193
204
206
200
190
189
172
160
162
167
164
170
182
200
192
187
190
190
190
172
170
161
161
157
157
156
158
160
157
164
164
167
169
177
176
174
170
171
171
175
178
180
178
183
180
176
181
184
188
191
194
191
188
188
186
188
187
185
179
179
172
168
166
172
168
177
177
172
168
167
165
171
173
165
166
164
160
146
157
164
161
157
157
163
170
176
189
188
185
185
184
183
193
203
203
201
189
171
170
166
162
163
161
170
182
198
193
186
190
195
186
170
167
166
162
159
155
160
156
158
154
158
162
159
164
168
169
179
172
170
175
169
178
181
178
184
186
186
187
189
193
197
196
193
190
190
187
189
194
186
178
181
175
174
171
170
173
180
177
173
165
165
164
169
168
163
162
162
152
145
154
164
162
153
157
165
174
170
188
186
185
184
185
188
193
200
199
203
177
169
171
165
162
160
160
169
178
194
194
184
193
189
174
171
171
168
167
160
157
158
154
155
156
154
167
160
159
164
166
177
175
175
173
168
175
176
177
179
183
186
188
190
194
194
195
193
191
190
188
184
190
177
176
179
172
174
169
170
176
174
171
170
164
164
168
165
162
164
161
159
150
145
153
157
162
157
161
163
183
177
172
187
185
185
185
188
195
196
196
191
174
170
171
163
161
160
157
167
178
192
192
186
189
189
176
170
171
167
166
167
157
158
152
155
157
157
166
163
163
163
167
174
180
175
175
170
171
171
174
177
178
176
176
179
179
178
177
176
176
178
176
173
181
171
172
179
176
174
170
172
173
171
169
166
162
164
167
162
161
163
161
159
148
149
152
154
154
162
165
171
185
180
169
174
188
184
185
187
194
195
199
177
177
169
166
163
158
154
156
164
179
181
190
196
188
186
173
173
175
166
165
167
160
161
152
156
157
157
162
164
165
167
171
173
181
177
176
170
175
174
174
177
174
171
173
170
172
168
172
166
171
170
167
169
172
171
173
179
176
173
174
174
172
169
168
167
163
162
165
161
161
163
160
156
148
148
148
147
155
163
173
183
182
179
176
164
181
186
185
186
191
199
201
180
182
165
164
165
157
151
155
167
171
175
192
199
184
179
174
174
177
174
161
170
161
160
157
158
156
155
163
164
165
168
171
170
180
179
172
173
174
173
175
174
171
174
175
175
173
171
174
166
172
168
170
172
169
171
174
176
173
173
176
171
170
167
168
165
164
162
168
159
164
166
160
151
147
142
145
149
155
159
185
193
180
177
181
166
169
183
182
184
194
198
203
186
180
165
166
164
157
151
160
160
172
176
188
191
187
180
173
178
179
180
165
166
164
162
158
160
156
159
164
165
166
170
166
168
177
177
173
174
171
172
172
173
169
174
176
177
176
177
176
169
171
164
173
171
168
171
172
173
172
172
171
168
162
166
168
165
162
162
167
162
165
171
161
146
139
136
147
156
161
162
184
203
185
181
182
171
166
170
182
184
191
197
201
190
177
164
169
164
159
152
153
161
172
177
178
184
194
184
173
179
182
174
165
166
160
164
162
162
160
162
164
164
167
169
170
170
177
176
174
178
173
172
169
172
169
173
174
174
174
172
172
169
171
166
172
167
168
170
170
172
172
171
170
163
162
164
165
166
162
166
167
161
168
174
158
139
132
135
146
162
170
168
177
198
190
177
190
175
169
167
173
186
190
193
200
186
177
164
167
168
154
156
152
168
178
168
168
180
197
187
173
180
179
173
164
168
158
163
162
166
165
168
164
167
167
169
168
173
174
175
178
179
177
178
176
173
174
168
172
172
173
170
172
175
173
169
170
170
170
167
170
173
171
168
164
167
161
161
165
165
163
166
168
167
172
174
154
131
134
135
146
161
171
176
183
187
189
178
187
184
175
172
173
185
197
198
205
182
178
163
175
167
156
160
153
173
172
166
156
185
193
192
175
178
171
168
172
168
161
162
161
164
167
170
167
169
170
171
170
169
175
172
178
179
177
179
176
180
174
170
177
176
172
170
168
176
172
170
171
171
172
170
172
170
169
168
165
165
159
161
165
165
163
166
169
172
174
166
149
135
138
129
147
160
163
183
187
184
179
178
186
186
180
170
175
177
193
203
200
178
177
165
177
167
153
165
163
178
168
167
157
178
184
191
183
168
165
168
177
172
162
167
160
161
168
171
172
174
173
175
172
173
174
175
178
177
181
177
176
184
176
173
178
179
173
170
171
176
176
171
172
173
175
175
171
171
167
167
166
168
161
163
166
167
165
170
173
172
172
157
147
148
134
131
142
163
162
182
187
183
176
176
181
184
182
174
174
178
176
191
196
183
176
173
180
164
158
173
168
174
166
165
165
173
172
189
182
167
164
174
177
174
167
165
163
158
168
167
172
178
171
176
175
175
174
178
182
179
181
176
181
180
177
175
179
178
175
175
173
177
176
173
176
177
175
172
170
170
165
164
168
168
162
168
168
169
169
173
176
168
162
157
149
151
134
130
141
160
171
179
182
184
180
168
175
180
178
171
174
179
180
184
191
186
180
182
177
156
158
172
170
171
164
166
169
163
168
179
172
174
165
173
177
176
167
170
163
161
163
166
173
174
173
175
173
176
175
177
182
185
184
182
179
174
175
173
179
177
174
177
173
173
179
176
174
179
174
170
170
171
166
169
169
167
164
172
173
171
174
173
171
169
155
156
153
152
143
127
145
163
172
183
179
183
183
169
169
172
174
171
173
173
184
181
188
189
183
180
169
151
160
171
170
171
163
170
168
155
174
164
169
172
166
170
175
175
167
173
170
164
160
167
169
169
174
175
178
175
174
175
181
187
185
185
179
179
176
177
179
178
179
175
175
173
176
176
174
174
173
171
172
170
172
171
169
173
169
173
174
174
173
167
165
166
148
155
157
142
147
134
145
170
174
180
179
186
183
169
165
173
171
175
169
171
183
181
181
187
175
177
162
151
165
170
172
168
164
172
162
154
171
162
170
166
164
174
173
176
173
173
173
168
164
170
162
165
168
172
173
179
176
176
180
181
182
181
180
182
182
182
181
182
181
178
177
172
173
176
170
171
173
174
173
171
174
171
174
173
174
175
177
173
166
162
160
157
147
161
157
137
145
135
143
176
171
178
181
186
184
169
162
173
171
177
171
170
177
185
178
181
173
178
154
153
170
167
170
163
166
170
160
160
168
162
171
158
159
172
174
177
180
173
176
171
170
167
165
162
160
165
171
174
175
175
180
178
176
177
176
180
184
182
182
180
179
178
175
177
173
174
173
173
179
180
175
172
176
173
175
176
176
174
174
169
163
157
159
155
151
165
152
142
144
140
142
170
175
171
180
182
181
175
159
174
169
179
181
174
179
183
181
182
175
175
151
161
165
172
171
165
168
162
165
166
164
162
174
155
161
162
169
179
182
175
178
175
173
168
166
166
157
160
165
170
172
173
173
174
172
177
176
175
178
177
177
177
176
175
177
176
173
176
178
177
183
180
175
175
178
177
176
176
175
172
172
165
158
156
159
161
154
163
151
143
141
145
146
160
173
167
171
180
178
179
163
172
170
176
182
172
180
188
187
179
173
164
160
158
163
167
172
165
167
153
168
171
159
161
175
155
157
161
162
173
183
172
182
177
172
170
168
167
160
161
159
165
170
174
171
170
167
176
173
172
176
173
175
175
176
174
174
174
176
180
182
181
183
176
176
180
180
175
174
178
176
173
164
161
160
158
164
159
156
164
149
140
143
150
147
153
169
163
156
183
180
177
169
173
175
171
185
176
180
182
196
185
169
163
162
156
163
164
167
164
167
146
173
176
157
158
173
156
159
159
165
167
176
172
181
176
171
176
166
168
164
165
159
163
163
167
166
169
167
169
171
169
173
168
173
173
172
169
174
175
178
178
181
179
176
178
179
177
177
174
176
176
171
168
164
163
164
162
165
155
158
164
147
138
148
153
146
152
160
163
152
174
173
179
173
174
182
165
184
182
178
180
189
176
165
166
164
156
155
169
165
167
166
152
173
174
152
158
175
158
162
160
166
165
171
164
175
174
171
173
168
169
162
167
168
167
161
160
159
162
166
165
172
171
170
169
172
172
172
174
177
177
178
178
181
180
178
178
175
174
176
176
173
172
168
171
171
170
169
168
159
151
158
162
143
144
149
154
146
150
151
161
153
170
161
178
174
176
178
159
180
186
178
179
183
171
169
157
160
149
156
173
164
162
163
153
160
166
160
156
178
163
164
164
166
164
169
166
165
172
168
171
169
168
168
163
172
168
164
160
156
160
160
165
168
169
167
172
175
174
176
177
177
177
179
177
183
180
177
175
175
176
172
175
171
171
172
177
174
174
166
167
156
150
161
154
149
146
153
151
149
149
140
161
162
162
153
175
179
176
170
166
167
186
183
176
173
