P2
# Face with average contibution
92 112
255
170
169
166
167
169
168
165
165
165
167
169
169
180
196
196
190
177
168
162
156
157
161
157
157
161
162
165
173
176
173
173
178
176
179
181
183
182
186
184
185
179
177
179
175
178
175
166
179
178
170
177
172
164
161
160
166
165
165
163
169
160
161
152
161
155
157
160
162
162
159
154
158
163
165
160
163
172
171
170
170
172
171
178
172
167
167
169
171
169
170
168
170
171
168
168
168
168
163
166
164
166
167
165
174
183
192
191
183
171
170
159
163
163
164
166
166
170
171
173
176
177
176
175
180
184
184
184
177
182
190
188
183
178
180
185
177
179
181
180
184
182
175
178
176
174
165
171
175
168
166
171
163
157
159
155
157
156
159
156
156
156
158
156
161
155
158
155
164
169
171
173
172
168
172
172
177
172
169
171
172
171
171
170
171
172
164
167
165
165
166
167
167
171
169
165
182
192
191
179
171
177
170
163
165
168
169
171
175
179
184
185
179
181
188
184
183
187
189
182
178
182
185
184
186
183
178
185
178
180
183
182
184
188
184
180
171
167
170
172
174
175
174
167
159
160
160
152
155
154
161
160
155
158
154
159
152
157
155
155
164
166
175
177
172
168
170
171
176
171
170
174
172
170
170
171
171
170
166
167
166
165
169
168
169
172
171
168
187
184
180
171
170
174
165
162
167
166
173
180
189
188
183
185
184
188
187
184
182
180
176
180
187
178
182
182
181
181
178
185
181
181
181
181
185
186
187
182
171
174
175
173
173
169
172
167
159
159
160
157
154
148
156
155
157
160
163
161
150
155
155
153
159
160
172
175
171
170
168
172
176
169
170
174
172
170
171
173
170
171
168
165
169
167
165
165
169
172
167
172
180
173
165
159
169
169
164
166
176
178
194
192
196
195
192
195
191
183
179
182
178
185
185
185
188
182
181
180
180
182
178
181
180
183
180
178
183
184
185
180
179
177
175
178
175
173
170
166
162
160
155
161
154
153
151
151
152
157
166
168
159
158
161
150
153
155
165
166
165
163
164
171
171
172
171
172
172
169
173
171
170
172
168
166
167
168
167
165
164
165
161
168
170
165
163
156
165
169
171
178
191
192
195
189
200
202
202
194
192
185
185
183
186
191
188
193
190
187
184
182
185
184
186
185
187
189
184
186
188
184
184
178
181
181
179
178
176
173
167
168
165
164
156
160
156
152
153
148
153
149
159
161
166
159
165
159
148
158
160
160
162
165
166
171
165
166
171
171
170
171
170
170
171
171
168
168
167
166
164
163
161
159
157
171
165
168
163
161
172
176
182
190
199
199
199
195
207
201
199
191
191
195
192
191
195
192
190
190
190
184
184
182
179
190
187
194
196
196
191
191
191
192
190
185
184
188
179
178
175
171
169
166
166
164
159
163
160
157
160
148
152
151
156
153
158
163
169
162
153
153
156
156
160
161
162
164
162
163
173
171
169
167
170
169
168
169
170
171
165
167
157
160
158
150
156
166
169
169
164
173
178
184
186
201
198
200
202
206
205
199
198
194
195
198
200
192
194
192
188
194
189
190
188
184
182
189
184
198
198
199
198
197
194
194
191
188
185
189
187
179
178
173
167
167
164
166
160
162
163
163
164
164
155
154
155
157
153
152
166
169
160
158
157
152
146
153
162
163
162
158
166
169
169
163
169
168
172
169
168
167
166
161
153
158
150
149
153
171
172
168
170
172
185
183
197
196
197
203
204
205
198
195
196
193
200
196
192
193
190
190
189
190
192
193
189
186
187
193
193
199
201
196
201
201
194
191
188
182
182
187
186
187
181
174
168
172
169
167
163
161
166
166
168
177
171
162
161
162
157
154
155
165
166
164
159
158
151
139
157
159
164
155
157
169
172
166
167
167
170
167
167
164
162
152
152
148
153
157
163
173
169
171
182
188
192
187
194
196
197
202
202
195
201
195
194
196
198
187
196
188
192
189
190
188
193
197
198
193
196
197
198
199
199
199
197
201
191
187
188
178
184
187
185
190
184
178
170
177
175
166
166
165
173
167
170
177
177
177
172
167
166
155
152
153
167
159
163
159
157
143
142
155
165
162
163
166
172
167
167
166
171
165
164
158
156
155
151
150
155
158
165
174
168
178
192
195
195
196
198
199
202
203
199
195
200
198
197
191
190
191
192
190
192
196
195
197
197
204
204
201
203
202
199
201
202
202
203
199
188
188
187
183
185
186
182
188
187
180
174
175
175
168
165
168
170
172
169
172
172
177
180
172
171
166
155
152
155
162
165
162
160
153
143
143
161
165
165
167
168
164
164
166
167
161
159
159
157
161
155
150
162
163
171
175
175
192
192
192
186
198
199
201
203
194
197
196
195
194
195
193
192
194
194
192
196
200
197
201
200
204
201
201
201
198
204
201
204
204
203
201
195
193
192
190
187
184
183
182
183
181
179
174
174
173
168
167
168
171
172
171
170
172
180
184
177
176
167
155
156
154
163
161
158
155
148
141
144
161
166
161
168
165
161
164
166
158
154
158
158
162
150
156
168
177
175
179
186
195
192
190
187
201
206
204
198
200
198
191
186
189
188
193
192
193
195
191
194
201
196
198
196
200
197
197
200
199
201
200
200
202
199
199
195
189
190
188
190
185
183
183
182
180
184
178
178
174
168
167
170
169
169
169
172
174
176
179
183
177
178
168
159
155
161
165
161
152
149
144
142
154
164
162
163
167
162
164
163
158
154
154
157
159
155
162
175
177
172
183
192
192
185
193
196
205
204
194
193
195
192
192
191
191
194
195
193
190
193
186
190
194
192
192
193
194
201
198
200
202
198
199
196
201
195
195
193
191
187
190
189
182
186
182
187
183
186
180
180
182
176
170
173
176
171
170
175
176
176
177
179
180
181
181
164
156
156
163
166
162
151
144
143
147
160
162
160
165
164
161
164
160
149
153
152
159
164
171
176
173
170
185
193
197
192
200
199
204
200
189
190
191
187
189
190
195
198
192
193
189
189
186
189
189
192
192
192
194
199
198
200
196
195
196
196
197
195
193
191
189
185
181
183
183
181
179
187
183
182
183
180
182
180
178
177
179
180
175
180
181
180
175
175
177
181
183
172
159
158
154
163
171
153
149
146
146
151
164
160
161
162
163
161
161
151
147
156
167
174
175
176
174
184
196
199
201
197
198
200
195
189
186
187
193
190
189
193
200
198
191
189
187
188
190
188
189
188
190
192
194
199
196
196
192
193
189
192
192
198
188
193
186
184
179
185
184
184
177
181
181
181
182
180
178
176
177
181
178
180
179
179
177
178
174
174
173
173
175
171
164
165
159
158
168
162
155
150
146
145
158
163
158
161
164
161
157
147
151
159
172
173
178
177
183
191
199
199
202
206
203
198
191
186
183
187
193
193
191
196
192
190
184
185
187
185
191
188
189
186
185
192
191
191
190
189
190
189
184
187
190
192
187
187
182
183
182
185
184
186
179
178
184
180
179
175
175
177
175
177
173
177
182
181
175
174
172
172
177
172
174
168
166
166
164
159
157
171
161
147
143
151
146
159
165
160
163
167
149
147
154
163
170
175
182
189
192
201
200
201
202
208
196
200
191
184
186
191
196
194
194
191
181
181
180
179
184
181
182
183
180
184
184
188
187
188
185
185
190
187
186
182
185
188
187
186
185
186
188
186
184
180
180
179
178
178
174
174
173
174
172
176
174
177
181
180
178
175
172
173
170
171
170
171
166
162
164
163
156
167
170
154
142
152
149
144
158
164
160
163
151
151
155
167
173
181
193
193
199
205
201
206
201
201
198
195
188
191
188
192
195
194
189
186
179
178
178
176
178
177
179
178
176
182
182
181
185
184
187
186
188
188
184
183
185
183
187
186
185
184
182
183
177
182
181
180
178
178
177
176
173
176
174
173
174
173
180
180
180
179
172
168
166
170
166
168
162
166
165
157
157
161
171
165
145
147
153
147
151
160
162
163
151
150
160
170
176
187
188
202
208
210
208
204
202
202
198
198
195
197
191
194
188
190
183
183
186
181
177
175
177
175
178
177
179
181
184
181
185
185
187
187
187
188
184
184
186
185
185
186
186
183
182
180
176
181
180
181
177
179
180
174
173
172
172
165
170
171
172
175
179
174
172
170
168
165
165
164
163
163
163
158
154
153
167
173
152
146
152
148
155
156
153
164
151
153
162
179
180
184
197
210
215
208
204
201
198
204
200
203
195
195
191
188
185
187
184
185
184
183
175
174
175
176
178
177
182
183
182
183
183
185
186
188
189
189
184
186
185
186
188
185
185
187
179
183
182
183
182
181
182
177
183
179
175
169
170
165
162
165
171
171
172
172
170
177
168
162
162
163
161
165
164
156
154
155
159
177
159
148
150
146
153
158
152
156
151
156
170
185
181
189
211
213
205
198
202
202
207
211
209
203
194
193
186
185
182
184
183
183
182
180
177
175
174
179
180
180
179
184
181
184
183
185
188
187
191
190
190
189
189
188
188
189
190
189
184
187
187
187
185
184
183
182
182
183
176
172
169
169
167
161
163
171
170
172
170
172
167
161
159
160
159
167
164
165
152
154
160
174
170
151
150
147
151
157
159
150
157
164
180
189
185
201
213
202
204
202
201
205
211
214
206
200
194
187
181
179
181
180
183
180
181
178
176
175
175
176
181
180
180
183
185
186
184
188
188
193
194
195
195
194
193
196
195
195
197
194
193
192
193
194
191
192
189
190
187
182
180
175
171
171
173
172
160
169
171
170
168
169
171
164
164
158
159
163
165
162
160
156
160
175
172
159
148
148
148
153
158
152
160
170
188
191
186
200
210
204
205
204
204
210
212
209
201
199
187
181
179
181
179
179
179
180
181
178
175
175
177
179
183
182
185
187
190
188
191
192
191
197
196
199
197
200
197
197
198
202
202
200
201
198
200
197
197
197
194
194
189
185
183
179
178
178
177
177
173
164
169
172
167
169
171
171
167
163
165
166
164
166
161
155
157
175
178
161
148
149
146
148
158
151
169
171
191
188
183
202
213
206
202
201
212
211
212
203
204
194
180
179
177
181
178
179
178
180
180
182
181
185
185
184
187
186
191
192
192
194
199
200
199
202
203
206
207
206
209
203
205
208
209
206
207
206
205
204
200
202
191
194
193
186
186
185
183
185
184
184
180
175
171
173
171
169
172
172
169
168
167
170
160
167
163
156
151
169
185
164
151
146
149
151
161
160
172
169
189
183
186
207
212
208
205
211
210
204
210
210
204
186
182
179
179
179
179
178
183
185
184
183
187
188
189
189
190
191
195
196
196
202
205
204
203
209
211
211
211
213
211
209
211
209
210
209
208
205
206
205
202
201
195
197
194
194
191
191
192
189
190
188
186
182
176
172
176
173
172
169
168
169
167
173
165
163
166
154
153
164
179
168
162
149
148
154
160
170
171
166
188
180
190
203
212
209
210
211
203
203
218
214
191
178
178
180
179
180
183
185
188
191
191
189
191
191
192
193
191
195
198
198
200
203
207
209
209
212
213
215
216
219
216
216
216
212
213
210
211
205
207
204
204
202
203
197
198
197
197
197
197
196
193
191
191
187
181
176
180
176
175
171
172
170
165
166
170
157
169
157
154
162
175
165
161
156
152
152
160
169
173
168
186
176
191
198
213
219
210
206
207
206
222
204
184
178
177
177
180
182
187
186
189
193
193
196
194
193
193
195
196
193
200
201
203
203
207
211
211
212
212
213
214
216
218
218
218
214
213
211
210
203
200
202
200
202
203
201
202
199
201
203
199
201
198
198
195
191
190
180
180
180
180
175
174
172
168
164
167
156
165
159
153
159
169
160
164
161
154
152
159
168
174
166
186
180
192
206
220
221
204
207
212
216
215
197
181
175
175
177
182
183
180
186
190
193
193
193
196
194
192
198
196
197
199
200
203
204
203
209
206
206
209
208
206
211
212
213
215
213
210
210
206
203
199
201
202
201
201
204
204
202
206
208
203
203
200
199
199
196
194
186
180
183
181
179
176
173
168
164
165
158
159
160
150
163
165
165
163
159
154
156
157
165
169
171
184
186
194
210
218
217
208
210
220
218
214
195
177
174
174
181
183
181
182
188
188
187
189
191
193
191
191
196
199
201
202
202
201
206
202
204
204
205
204
204
203
210
208
210
210
212
206
206
205
202
200
201
200
202
200
202
204
203
210
208
210
208
202
201
201
201
199
189
184
183
183
182
179
181
172
167
161
157
161
160
157
169
172
169
163
157
157
155
160
163
173
175
180
191
202
204
214
223
214
214
223
219
210
191
176
177
173
183
179
178
177
182
180
180
183
188
192
191
195
196
200
204
209
206
205
209
207
207
206
207
204
201
202
205
207
208
206
207
200
201
204
197
196
197
197
200
202
202
204
205
208
208
211
209
206
203
202
202
201
199
188
181
186
187
180
182
177
170
160
160
158
158
158
168
176
172
164
163
156
156
161
169
176
181
183
195
212
201
220
217
211
220
218
219
204
192
179
177
171
175
174
173
172
179
178
178
182
188
192
194
199
203
205
201
211
207
211
215
211
209
209
206
204
202
203
206
205
205
205
199
193
194
196
195
189
196
197
203
207
212
212
209
209
210
212
210
210
205
204
204
205
203
196
186
186
187
180
180
177
177
162
161
151
158
157
168
174
177
171
168
160
157
156
169
180
183
184
195
210
208
213
207
215
221
214
211
200
190
176
175
172
174
174
176
180
184
185
186
189
194
198
201
201
205
206
204
205
212
216
218
216
214
210
207
203
203
206
205
205
201
198
190
184
185
185
188
189
202
208
214
215
217
219
211
211
209
208
209
210
204
203
203
207
204
198
195
190
191
184
179
177
178
163
165
155
157
154
177
184
185
178
176
165
163
155
168
181
187
187
196
207
212
208
206
210
216
207
200
198
188
173
173
171
177
178
182
195
199
203
209
213
212
211
208
201
201
207
207
207
215
224
223
221
218
211
212
204
201
202
201
200
194
191
185
182
183
185
189
192
196
202
205
208
210
213
211
208
206
207
207
203
203
201
200
207
203
202
202
195
195
192
186
180
179
173
162
163
160
155
180
190
186
176
180
175
164
164
164
186
185
187
196
206
205
201
208
209
218
204
199
200
188
178
181
178
184
186
192
201
202
211
215
215
222
224
225
227
233
230
227
231
237
240
242
241
232
224
217
209
203
205
203
203
199
199
199
192
189
187
184
187
187
191
193
197
198
203
202
202
203
204
207
201
202
203
203
206
207
212
210
209
199
202
194
189
178
180
174
163
159
159
181
193
183
177
178
180
168
163
169
177
185
193
192
206
199
195
213
214
207
194
192
193
188
175
178
175
182
182
193
195
199
209
208
210
213
215
221
227
230
232
227
229
230
233
230
232
228
220
215
208
198
197
191
189
185
185
183
180
176
179
182
186
188
192
193
194
199
205
209
210
212
214
212
209
215
211
209
213
217
222
229
223
214
207
203
194
181
182
178
174
156
166
186
194
181
180
177
179
176
165
165
174
189
200
188
203
199
204
215
209
199
189
183
183
186
173
175
179
182
185
195
202
206
216
214
209
209
207
213
213
213
210
206
211
214
208
210
217
226
225
223
219
207
195
184
186
181
182
176
180
179
182
184
185
185
181
181
182
191
197
201
206
213
217
219
218
219
218
222
226
221
225
232
230
224
215
213
197
186
182
175
175
160
170
190
197
182
181
178
176
180
171
165
180
194
199
197
199
198
210
212
205
192
192
186
181
188
175
180
183
178
190
203
207
203
201
200
190
183
186
194
201
207
205
203
207
207
212
202
211
222
223
222
216
212
197
190
185
184
180
181
183
179
178
178
181
186
187
178
177
180
185
190
188
202
209
212
211
213
215
218
227
224
223
224
225
221
218
214
204
193
180
169
168
160
174
189
191
183
186
178
176
176
168
167
183
189
200
203
186
191
209
217
197
194
192
186
182
193
179
185
175
190
202
206
193
180
180
178
170
173
174
182
195
193
196
201
202
197
205
192
202
208
206
204
197
196
191
190
185
184
182
189
186
178
178
179
187
193
197
172
171
179
183
182
184
200
194
202
194
201
202
206
214
212
213
213
213
217
211
212
214
193
178
170
167
162
182
185
185
191
195
184
174
173
168
176
185
190
197
201
180
188
212
204
196
198
197
193
190
202
195
184
178
197
199
192
173
167
167
170
169
179
179
189
191
187
189
195
199
200
201
193
188
197
204
200
197
187
184
180
182
177
183
187
185
182
179
180
186
188
192
187
183
176
177
175
183
197
184
201
191
193
194
194
204
198
201
207
204
210
209
205
213
206
189
173
167
172
191
191
189
197
198
196
183
166
168
179
186
192
198
200
186
196
206
195
193
195
203
195
197
213
200
182
194
192
193
181
175
160
170
173
176
181
186
193
199
193
186
205
199
200
191
200
183
193
215
216
207
201
192
177
180
175
182
187
189
187
184
189
188
192
192
198
194
182
178
179
175
187
194
204
194
197
190
191
198
197
202
206
209
205
212
209
219
224
199
184
175
185
198
199
197
201
198
193
188
170
168
179
192
200
195
205
188
209
196
191
190
199
209
194
203
218
200
190
197
190
182
178
172
181
186
174
191
183
184
188
196
198
190
206
198
198
189
201
200
203
212
221
213
204
210
175
178
176
182
188
192
187
189
186
190
198
188
184
188
178
170
176
176
191
196
197
191
188
184
185
197
201
195
202
202
195
202
209
217
220
199
186
184
198
211
204
201
193
187
189
191
170
177
178
189
202
209
203
201
208
198
188
184
203
204
197
203
212
190
183
187
177
170
165
164
183
178
181
188
174
178
186
183
193
202
207
206
197
197
201
205
201
205
205
201
204
200
181
183
178
181
186
186
185
185
180
188
194
186
186
184
177
174
179
172
186
191
180
178
180
178
183
196
194
195
202
199
187
187
197
202
215
194
185
178
197
217
215
204
191
184
190
184
178
178
178
188
206
208
200
216
204
192
185
190
205
198
199
200
203
189
184
194
184
171
171
177
175
174
196
181
175
180
194
193
200
208
209
215
201
205
197
190
190
199
198
190
188
198
191
189
182
178
178
175
175
178
179
183
189
182
178
174
177
170
180
174
182
177
173
178
181
184
185
186
184
199
215
210
201
179
183
184
204
196
185
181
201
207
218
205
199
187
186
187
188
174
187
186
219
206
193
212
206
188
176
191
204
206
210
206
210
184
195
199
189
174
171
188
189
201
206
191
188
192
195
197
216
198
217
220
213
210
189
193
210
213
215
207
194
194
187
180
181
177
174
174
177
173
183
185
192
190
187
185
190
185
189
175
175
186
181
188
199
210
207
197
188
190
203
225
218
191
181
175
187
192
185
181
204
212
216
206
200
194
184
190
198
175
183
187
218
205
187
198
202
183
175
184
207
218
218
210
199
187
182
196
179
176
178
198
199
205
200
194
191
191
192
199
223
210
220
230
215
214
179
197
215
213
209
204
196
192
185
177
176
176
174
177
170
169
184
178
195
193
190
194
202
206
202
175
169
191
181
200
211
201
215
202
206
212
205
215
233
203
189
192
187
181
187
183
212
219
217
205
195
196
195
196
202
177
177
185
210
201
189
191
195
181
162
195
209
229
217
210
191
181
178
181
179
178
183
192
190
189
191
193
188
189
188
198
215
206
207
227
222
204
184
202
203
208
209
198
190
192
181
181
176
176
176
171
174
173
189
184
196
196
193
196
209
215
202
183
175
191
197
206
216
209
220
203
201
223
220
219
232
215
200
195
186
186
193
191
209
224
221
208
201
196
203
203
204
187
172
178
210
199
190
194
186
180
158
186
200
220
208
208
179
168
173
181
180
177
175
181
188
183
184
187
195
191
181
202
199
202
199
202
212
193
184
203
203
203
203
196
190
190
174
176
180
179
175
173
178
181
190
192
194
208
200
205
215
209
201
187
182
189
205
203
207
217
204
193
203
209
213
228
224
218
212
199
187
187
199
193
200
211
226
214
207
204
206
209
202
192
168
168
211
199
196
183
180
181
168
179
194
211
206
205
175
172
176
178
175
174
175
184
184
180
181
179
186
179
185
203
198
207
200
197
205
185
198
203
204
201
199
194
195
190
175
169
176
179
172
173
181
184
188
197
190
206
201
196
199
213
201
187
186
189
195
189
183
196
196
202
214
207
209
219
219
205
211
197
183
184
193
184
202
198
220
208
206
210
201
216
215
183
169
177
213
194
199
190
177
177
155
180
193
205
201
200
171
170
179
184
170
178
180
182
180
178
177
172
170
157
175
190
179
199
186
192
186
187
203
204
198
192
197
201
192
190
191
167
166
179
171
165
176
183
183
202
191
198
198
199
202
210
199
192
192
192
180
184
182
192
192
195
208
204
205
207
208
196
209
198
180
177
186
169
212
197
219
207
199
204
196
217
221
179
165
187
204
185
205
194
179
181
160
177
193
201
203
197
170
172
185
186
172
174
180
179
176
169
162
156
157
161
171
180
167
181
180
192
168
185
194
194
186
188
188
194
183
185
192
179
155
177
175
171
176
183
184
195
195
187
192
197
199
201
193
195
190
182
178
183
185
182
185
181
182
184
191
190
194
187
201
194
184
182
186
176
213
199
214
202
195
195
197
209
212
176
163
185
194
180
210
201
176
182
166
181
191
198
200
198
177
183
188
188
170
168
161
161
162
154
149
149
150
158
165
170
160
170
173
161
171
183
181
181
183
181
184
188
177
184
184
181
158
164
177
180
175
181
181
175
185
184
178
188
189
193
188
192
192
186
182
186
177
175
176
173
173
173
182
184
191
183
191
189
188
180
184
177
214
206
204
200
192
192
198
210
197
175
167
179
204
189
213
216
186
184
172
183
196
198
199
198
181
188
191
183
175
174
167
160
158
151
142
142
140
149
153
156
158
164
166
150
169
180
178
180
178
181
188
183
178
179
181
186
179
160
177
181
171
176
183
175
181
186
182
181
190
185
188
193
181
180
175
180
183
178
171
173
168
174
175
184
182
186
187
194
192
186
184
182
212
220
206
195
196
185
195
206
187
181
176
180
207
193
203
219
197
196
185
181
197
195
197
188
172
181
183
174
170
175
169
161
157
156
152
145
143
145
150
149
160
166
151
161
172
177
171
176
175
189
190
182
183
183
185
199
193
183
166
189
176
180
192
183
185
187
183
176
184
184
184
193
177
182
172
175
172
174
170
177
171
177
177
183
173
185
186
197
187
189
192
196
212
223
208
185
189
188
198
206
185
180
182
184
206
194
184
210
202
197
200
189
192
192
190
173
168
171
180
167
160
163
165
158
151
150
147
143
148
152
157
162
162
159
140
156
162
166
170
171
177
195
186
184
185
186
190
196
193
188
178
179
185
184
193
194
182
185
182
167
168
165
173
176
175
173
169
167
161
163
167
175
177
178
181
180
173
179
181
194
186
195
196
201
210
220
195
183
192
197
202
206
178
181
178
187
212
201
173
195
195
193
209
197
191
191
188
164
170
174
186
169
160
163
164
163
158
155
153
148
148
156
158
161
160
138
152
145
151
162
169
171
182
180
182
175
179
183
187
187
186
180
188
186
177
181
194
190
180
181
178
175
160
162
166
169
171
168
168
171
164
166
174
175
178
185
189
179
185
183
181
186
189
206
204
199
209
222
199
185
197
197
206
195
178
181
169
180
214
211
176
181
187
189
188
201
193
188
187
170
171
178
190
177
168
172
173
172
167
161
158
154
149
154
160
157
148
149
161
153
154
161
168
168
171
165
170
171
170
170
180
180
183
177
186
191
191
168
181
186
178
181
175
175
168
163
167
175
171
170
170
176
173
172
180
179
180
186
187
188
185
187
183
192
193
210
197
198
215
225
208
187
197
181
197
186
182
183
167
173
212
214
181
174
180
175
169
180
198
194
186
173
172
171
184
180
171
170
168
166
164
160
161
160
154
154
148
140
147
155
166
157
154
160
175
165
159
162
170
167
171
174
180
181
187
186
184
185
200
180
167
171
175
181
179
172
172
171
168
172
167
171
169
171
167
170
170
176
179
177
180
185
186
186
192
203
203
208
194
205
216
224
202
184
188
164
186
181
189
183
168
174
201
207
185
187
182
171
168
173
188
204
188
172
165
168
176
176
169
172
165
164
163
158
165
162
152
145
139
148
147
158
169
165
171
174
182
170
164
169
173
170
169
175
178
183
189
189
186
187
199
192
171
176
177
171
181
179
168
170
171
174
178
177
177
169
162
160
165
172
178
185
186
189
187
188
194
199
199
204
198
210
214
214
198
173
172
162
179
171
192
183
166
173
193
200
187
204
187
180
181
172
184
203
189
175
156
166
168
170
166
165
164
160
160
155
158
153
147
151
143
149
160
158
169
165
157
176
174
155
157
161
170
170
166
172
174
175
177
177
180
181
188
190
171
169
180
170
172
174
164
158
160
162
170
173
170
169
160
166
172
181
179
181
185
185
182
179
187
192
194
197
202
211
216
209
190
173
167
171
175
166
189
186
165
174
182
197
196
198
196
183
186
165
182
202
193
184
167
164
155
155
149
148
150
148
148
149
149
151
154
155
140
147
150
157
166
160
151
152
171
159
156
159
166
171
171
172
168
170
172
167
169
178
179
179
174
176
167
159
164
167
165
162
162
162
166
172
175
173
172
169
171
178
179
179
179
180
183
183
186
190
196
188
202
214
217
201
187
180
168
178
178
167
183
191
168
171
177
183
198
207
187
183
184
166
172
202
189
181
177
173
173
167
160
159
164
165
164
152
146
144
139
140
141
139
150
170
169
165
161
148
154
166
158
159
172
178
180
174
179
173
172
170
167
169
170
175
183
192
178
163
159
159
159
158
154
156
163
172
160
162
164
171
169
172
172
176
179
176
182
186
188
188
193
182
200
213
206
193
180
175
174
181
174
169
183
185
165
163
175
159
192
214
183
174
185
163
168
190
197
185
176
175
180
168
165
166
169
164
162
145
134
131
130
127
134
142
155
176
177
164
157
161
156
159
165
163
170
179
181
173
181
177
172
173
172
173
168
170
180
196
197
178
177
171
170
159
152
153
155
159
154
156
160
166
169
164
168
170
172
174
178
184
187
187
185
187
199
210
198
186
174
172
174
174
171
176
181
182
166
152
168
145
176
210
174
165
182
160
174
180
200
195
181
177
176
175
164
171
172
165
157
149
134
135
132
133
136
149
168
183
184
170
168
164
166
159
168
168
166
171
175
170
182
179
173
175
181
187
180
178
180
191
203
198
196
182
182
174
163
167
160
157
156
158
160
160
165
161
164
169
170
175
177
186
188
190
185
190
201
199
192
177
171
165
164
172
168
177
179
178
168
153
161
146
148
202
166
160
180
165
167
183
203
203
188
182
181
175
164
164
160
156
157
154
148
148
142
142
142
154
170
180
184
178
178
180
176
164
168
174
168
165
172
177
178
178
178
184
188
198
196
191
186
189
197
212
204
189
178
180
176
179
174
170
167
168
173
168
164
163
160
168
175
177
180
187
193
192
191
193
198
192
186
164
157
156
159
175
167
177
177
183
167
156
158
152
141
182
159
156
181
165
168
176
201
210
193
189
184
179
170
164
161
155
149
147
147
145
145
144
150
159
165
168
174
179
183
182
179
170
167
171
170
170
179
183
184
185
187
194
196
195
200
192
188
191
201
209
210
196
180
176
179
189
183
180
181
177
179
176
170
170
165
166
175
180
182
186
188
192
191
191
190
185
177
159
151
154
175
175
168
177
180
180
172
165
158
153
141
165
158
147
174
164
167
175
193
210
198
191
185
175
168
167
170
161
154
151
148
144
147
146
154
153
160
171
168
185
186
178
182
170
162
156
161
167
182
189
179
180
190
205
204
201
204
191
189
195
205
206
195
186
184
185
184
193
187
187
189
186
183
187
178
177
175
176
180
186
183
184
190
191
187
187
182
183
163
155
153
151
184
176
168
173
178
179
172
163
165
157
139
160
154
146
161
158
161
175
182
202
203
191
185
180
176
176
173
166
159
157
156
149
149
152
157
159
170
180
169
184
178
166
171
165
150
146
152
160
163
172
172
167
180
196
197
190
189
180
182
178
191
190
180
175
180
191
199
201
193
195
197
194
194
193
192
184
184
183
186
181
180
186
190
186
185
186
180
179
159
156
152
152
175
172
175
171
174
174
173
166
169
173
139
153
151
148
161
158
162
174
182
193
201
192
188
182
180
176
178
167
161
159
157
157
151
156
162
165
176
175
178
182
175
167
168
157
151
147
158
155
159
167
170
163
172
191
185
184
177
178
178
178
178
180
180
182
180
186
185
189
193
200
197
194
196
195
194
193
187
184
185
185
180
184
189
187
183
179
184
165
157
155
147
151
157
172
171
171
174
174
175
166
165
181
137
149
155
151
162
158
168
184
189
193
198
198
191
189
183
174
180
173
166
161
157
160
156
161
156
168
180
175
187
184
184
174
170
154
157
162
167
164
163
174
169
164
174
189
181
187
173
179
180
180
186
186
181
187
186
188
182
185
188
197
198
196
194
195
197
198
195
191
183
183
181
183
184
185
182
180
184
159
157
154
145
151
154
174
170
168
178
171
177
166
159
184
144
145
157
149
166
160
170
179
199
201
193
198
190
196
184
180
180
179
173
173
169
167
163
166
164
171
172
179
188
190
192
183
178
170
172
178
187
180
186
177
170
170
175
185
177
181
179
176
185
189
194
194
191
186
181
182
186
186
189
197
202
195
191
199
202
200
199
195
183
184
188
187
185
181
189
180
182
164
158
151
143
153
161
172
170
172
179
173
174
162
157
168
148
137
162
155
160
161
171
170
192
207
191
198
196
197
187
182
187
182
179
180
177
170
170
172
173
177
176
180
184
193
194
189
186
183
175
180
183
183
181
175
167
167
168
170
171
181
181
189
187
190
197
201
198
193
186
185
192
189
198
205
211
207
199
197
205
203
199
197
190
186
192
191
187
182
192
176
178
170
164
153
143
168
162
169
172
177
176
172
169
159
163
162
148
137
161
166
159
161
165
171
190
200
195
195
196
193
188
180
192
189
184
186
187
173
173
175
176
182
175
181
182
193
193
189
185
179
176
182
177
173
171
173
167
160
162
168
166
170
173
184
187
192
199
198
195
200
197
190
196
199
203
215
215
211
206
199
200
206
200
199
195
190
192
194
187
183
191
171
183
179
165
158
162
167
159
173
174
174
178
176
163
161
167
161
157
137
153
164
167
162
165
174
186
197
197
193
194
195
183
184
190
190
184
187
183
173
173
174
176
178
177
181
188
190
194
187
177
180
182
180
173
168
162
161
160
154
160
167
161
168
172
174
179
184
191
186
179
190
195
187
192
202
208
214
220
210
209
201
194
205
202
201
195
193
194
195
186
184
191
173
182
178
169
164
163
164
160
180
173
178
178
175
162
156
168
163
160
151
145
153
165
163
167
179
184
191
201
188
200
193
187
187
190
187
186
185
182
175
169
172
180
181
182
186
187
191
190
184
175
176
188
182
173
167
167
161
159
166
167
170
170
174
179
176
177
180
182
176
174
185
182
180
189
197
203
212
218
211
209
201
194
199
202
201
201
195
198
196
185
185
182
176
179
171
169
162
159
163
176
173
179
183
179
169
167
156
161
161
160
161
150
148
159
153
159
172
185
192
201
188
199
191
189
185
192
183
185
183
181
170
167
177
181
187
191
195
191
188
188
183
177
167
174
176
175
175
174
172
176
186
191
191
189
176
186
186
192
191
188
188
190
195
189
179
188
187
202
210
214
217
206
201
192
192
198
198
202
199
198
195
184
186
179
177
175
169
169
162
163
173
181
173
183
189
176
169
167
160
156
164
158
163
162
147
152
153
150
159
184
186
201
198
190
194
186
185
190
185
187
184
175
171
173
179
183
196
205
206
203
197
193
190
181
175
174
177
180
186
183
183
192
202
206
209
205
194
202
206
207
206
209
207
205
207
209
196
193
190
195
208
211
214
208
199
189
190
195
200
201
199
199
191
179
185
176
181
168
165
159
165
170
177
177
178
187
192
171
168
166
160
159
160
160
164
167
153
150
154
151
153
175
192
200
197
182
195
183
185
187
187
184
182
175
175
180
178
187
199
203
203
205
206
195
189
182
182
184
189
194
199
205
205
211
214
221
222
216
214
211
204
205
204
215
214
219
216
220
215
210
205
201
209
210
209
203
196
189
189
187
198
192
198
194
188
177
179
177
182
165
160
154
164
171
175
174
183
193
187
173
170
163
164
160
152
165
166
171
162
161
160
156
156
168
189
198
198
185
194
186
186
184
185
185
176
179
178
183
176
189
197
196
203
206
204
194
196
193
195
193
197
202
206
216
216
214
209
217
218
209
212
205
203
206
201
208
214
217
223
225
220
223
218
211
210
216
212
200
197
186
187
184
198
191
194
193
186
179
177
179
181
166
158
157
172
169
175
175
185
195
175
176
173
158
169
162
153
161
165
171
174
168
176
164
161
164
188
200
196
185
191
185
186
181
180
178
173
180
177
174
172
183
191
193
197
198
202
197
206
208
216
206
205
205
207
208
207
208
199
198
204
197
197
193
196
205
198
193
201
198
205
213
208
215
205
205
206
214
210
198
195
187
185
181
195
189
191
193
187
181
179
178
180
166
160
167
173
170
177
180
187
185
170
178
172
160
162
162
163
159
157
173
180
179
189
180
170
166
185
201
201
181
190
183
187
177
178
174
171
174
174
170
170
179
180
189
188
193
191
202
214
213
210
203
194
191
195
195
193
189
185
181
195
178
178
183
179
189
191
174
185
173
177
200
192
201
196
200
200
206
201
194
192
191
184
186
195
188
184
189
198
181
179
182
181
169
167
171
169
171
178
182
183
176
171
176
173
158
155
158
165
159
160
176
185
190
192
192
180
174
184
203
207
185
191
185
187
179
175
172
167
171
169
182
166
178
176
179
180
189
182
188
192
191
185
180
173
168
173
173
180
180
177
172
183
172
173
178
174
182
181
173
182
172
181
191
177
179
198
197
212
204
191
189
184
192
188
194
194
192
185
192
197
186
181
188
189
168
171
172
158
173
180
178
174
174
172
176
171
156
155
156
156
158
165
173
179
189
194
196
184
178
183
197
206
192
187
184
184
177
173
165
166
172
171
179
168
173
173
173
175
184
176
182
173
165
159
157
162
163
164
157
157
162
168
160
171
160
163
168
171
178
174
176
180
185
190
193
184
179
198
194
209
208
195
185
188
193
189
199
197
195
185
195
191
190
188
196
191
168
167
172
161
175
177
173
175
176
170
177
167
159
156
154
151
153
164
166
173
189
191
196
189
177
177
192
201
193
179
185
180
173
176
166
170
180
176
175
172
167
169
171
172
175
171
170
160
152
145
142
153
152
150
150
150
151
152
146
166
150
153
157
169
173
191
191
193
194
194
194
185
188
211
197
197
193
189
194
192
192
191
201
199
195
189
200
193
191
193
197
185
164
169
167
161
168
175
173
175
172
173
177
168
161
158
151
150
150
156
162
170
184
189
194
192
177
174
184
189
192
175
180
179
170
175
170
170
174
172
175
177
168
174
177
177
184
174
177
167
165
158
153
164
161
160
154
162
161
163
161
169
167
167
178
186
189
206
206
198
196
194
205
197
200
213
197
188
190
192
198
197
192
196
200
200
197
191
200
199
196
197
200
178
164
170
164
159
172
171
176
173
171
176
173
170
161
163
154
151
148
149
152
167
180
189
194
195
181
174
179
180
191
174
176
179
178
175
179
174
171
174
180
181
177
186
190
187
192
190
199
182
180
177
164
175
173
166
166
166
164
165
168
179
173
179
192
199
199
207
207
197
199
197
206
197
194
207
193
183
190
191
192
198
192
197
202
195
193
196
199
201
193
200
191
174
164
169
157
163
172
173
175
171
172
175
173
167
161
160
164
156
150
146
147
161
175
183
193
195
186
175
176
179
190
177
170
180
179
174
183
177
168
177
186
191
191
198
207
201
197
196
208
197
190
191
185
193
190
181
177
180
177
180
184
190
187
183
193
193
200
207
203
202
204
201
199
192
197
197
192
180
193
183
194
195
195
196
202
193
193
198
199
198
194
193
184
170
164
162
160
165
172
175
175
169
172
177
176
165
159
162
162
156
153
143
145
165
170
178
185
192
192
176
175
174
190
176
171
187
180
179
180
173
173
176
181
198
195
196
206
200
195
196
196
190
191
195
185
196
195
189
180
184
178
193
194
201
202
195
205
194
198
198
203
200
198
192
193
192
191
192
186
182
189
184
192
200
199
199
201
200
203
202
199
197
189
189
182
166
166
159
160
169
170
173
175
170
170
176
175
162
160
164
166
167
160
151
159
165
166
173
181
187
190
181
174
170
187
177
174
183
189
184
184
176
172
171
181
188
189
192
192
187
184
187
188
182
184
188
176
174
177
176
171
179
176
182
186
190
190
191
191
192
193
189
191
192
191
183
188
182
180
189
187
183
181
187
194
198
200
204
205
207
209
208
201
198
188
189
183
166
169
162
173
177
175
178
176
177
176
178
176
165
164
175
170
170
168
163
174
169
170
172
176
186
188
185
181
170
180
180
178
179
191
192
185
178
175
175
176
176
178
183
179
180
178
183
183
180
180
183
178
176
170
167
166
173
169
171
187
187
186
189
193
195
195
198
191
187
187
184
183
178
180
186
177
177
179
189
195
196
202
201
207
207
208
202
205
198
188
188
175
164
165
164
177
179
180
179
182
185
182
183
181
170
173
179
167
169
169
170
173
174
174
174
177
178
189
183
186
169
180
185
176
179
186
194
189
178
175
180
176
171
174
180
177
178
181
179
185
180
178
181
181
184
178
180
180
179
187
187
196
200
198
202
202
203
198
202
197
194
192
192
179
182
179
184
171
178
181
194
200
201
199
203
204
206
205
202
207
194
199
191
171
164
162
172
176
179
178
182
184
186
182
183
185
170
170
179
169
168
176
174
178
175
175
172
179
177
190
183
181
180
188
182
183
180
184
196
190
181
180
181
177
175
174
181
180
183
176
186
180
180
180
181
181
186
184
191
193
188
200
200
205
211
209
210
216
214
214
216
209
200
195
195
181
180
179
184
177
185
190
196
204
208
196
200
203
206
204
207
207
186
202
203
171
160
166
175
178
178
179
181
187
184
184
185
188
166
170
184
172
171
179
177
178
176
174
174
179
175
185
180
177
195
198
182
185
186
181
193
193
185
178
183
176
177
176
178
176
182
179
181
181
177
179
183
189
181
180
190
199
198
201
202
207
211
213
206
214
215
212
212
207
201
190
192
184
182
179
186
181
188
192
191
204
205
196
197
197
202
202
210
206
182
197
194
178
163
173
178
178
185
180
179
185
184
184
189
190
170
168
183
179
178
181
180
178
175
177
177
172
174
177
177
193
198
196
184
190
185
181
187
197
191
183
183
175
179
184
177
173
173
173
179
177
176
176
179
186
177
175
179
188
191
193
194
204
200
207
197
209
204
199
197
198
183
183
182
179
176
175
179
183
186
194
197
201
204
194
197
196
197
203
210
202
178
198
182
178
178
175
181
176
186
186
178
184
186
185
192
191
170
167
191
184
184
183
182
180
176
175
179
171
171
168
186
202
196
185
178
185
189
183
184
192
198
190
183
180
181
185
179
182
174
175
178
169
174
175
174
178
173
174
171
173
173
176
176
184
181
185
182
183
186
180
173
182
169
174
179
176
177
179
175
187
189
194
199
199
200
192
192
198
197
204
207
199
182
192
180
176
192
183
176
176
184
185
188
181
187
189
193
191
171
174
194
189
186
182
181
182
180
176
177
172
170
168
195
198
195
177
175
181
188
185
180
190
200
191
187
180
185
185
180
182
181
186
182
172
174
173
166
167
169
171
159
164
160
164
164
170
165
172
165
166
172
164
165
172
169
171
177
175
177
182
179
184
188
197
197
195
194
188
193
201
196
212
205
198
184
188
185
182
189
193
173
174
184
187
193
186
186
189
190
188
181
180
194
191
185
183
184
181
183
180
176
173
174
179
195
191
185
178
176
173
191
187
174
189
198
194
192
183
183
186
182
181
185
186
180
179
178
173
167
168
173
172
157
161
158
160
161
161
164
173
166
167
173
166
174
170
174
172
179
176
181
182
180
184
188
196
192
194
191
190
195
199
202
212
206
197
190
184
183
193
190
189
183
181
187
188
190
193
186
186
192
193
184
181
194
192
185
183
186
181
186
180
180
171
187
186
190
180
183
176
177
175
186
189
177
188
191
199
195
189
186
186
184
177
187
186
184
183
177
172
169
167
172
173
160
164
164
161
158
160
162
175
162
169
165
168
168
167
171
168
175
174
176
181
177
183
189
193
189
192
193
188
195
200
206
212
205
196
193
185
185
187
194
192
197
199
195
190
190
194
192
186
194
193
183
181
194
194
188
186
184
185
186
183
179
179
207
195
179
177
183
176
175
176
180
192
186
180
185
199
202
197
189
189
187
185
182
189
190
183
178
171
166
163
167
166
162
165
166
165
156
164
163
169
160
167
159
166
162
162
166
170
170
173
174
182
178
187
188
195
190
195
190
188
197
205
211
210
208
192
196
196
183
180
193
201
207
211
198
202
195
198
198
196
196
193
182
182
198
196
191
188
183
186
183
187
191
197
223
194
170
178
175
175
175
174
176
194
181
183
177
194
207
197
196
191
189
187
176
189
191
186
179
170
171
162
164
163
159
164
162
160
159
166
161
163
162
167
161
161
157
159
162
169
172
174
177
180
183
190
194
191
196
194
192
187
202
212
206
210
209
187
203
201
191
177
191
205
212
214
202
202
209
215
213
213
216
203
192
195
198
197
191
187
187
199
197
205
203
206
227
201
175
181
175
172
181
165
180
186
173
182
181
186
205
201
198
192
191
189
182
186
185
192
180
176
169
166
167
161
163
159
162
156
158
160
162
159
165
161
165
157
158
163
165
173
175
179
179
186
187
194
197
191
198
190
189
194
206
212
203
204
210
188
205
207
204
195
182
207
216
216
213
206
213
221
212
213
220
205
196
196
200
196
189
193
209
211
207
216
206
207
230
199
197
174
173
176
177
167
170
171
168
178
182
188
201
201
200
195
197
192
189
187
190
190
182
176
173
169
169
168
162
160
163
157
158
160
164
164
166
164
168
163
168
168
172
178
177
186
184
193
190
195
197
195
188
191
193
195
210
203
201
211
209
186
203
210
209
209
187
204
217
218
224
213
211
219
220
217
215
205
198
196
206
201
202
215
224
220
205
212
203
215
221
205
208
177
173
184
168
163
160
173
160
173
182
187
201
200
203
198
197
195
195
193
194
189
187
184
174
173
170
172
171
164
164
166
166
163
167
169
171
171
174
172
172
176
182
185
185
191
192
195
193
193
201
197
186
194
199
202
207
201
210
208
194
179
202
220
211
208
201
202
224
220
226
226
202
208
215
222
224
211
204
209
214
221
219
218
218
207
195
209
205
218
219
209
200
193
181
175
154
163
165
174
158
166
180
184
197
194
201
197
203
200
199
193
198
195
193
193
179
183
174
178
165
168
167
174
172
172
171
174
181
183
179
184
184
184
197
196
195
197
200
197
196
201
199
197
197
198
204
204
205
213
205
195
185
178
202
226
210
201
211
201
231
226
229
234
212
210
215
219
222
209
207
210
227
228
211
212
213
197
203
206
206
225
220
213
188
199
198
160
140
169
170
173
159
163
174
178
186
195
189
200
200
204
201
197
199
201
197
199
191
193
186
187
174
176
174
180
178
181
182
190
190
190
190
195
195
198
202
205
199
202
202
200
197
204
201
202
204
204
204
197
213
213
196
188
191
177
206
224
214
187
216
208
226
234
233
237
220
211
219
226
230
213
211
212
221
222
211
219
214
204
206
214
217
228
221
210
187
202
194
162
144
167
176
169
160
160
172
172
175
186
188
193
197
201
203
198
204
205
203
203
202
204
201
198
188
186
188
191
191
190
196
199
198
197
196
200
203
205
206
206
206
204
207
200
200
202
199
209
208
206
193
200
214
203
187
187
189
188
211
219
219
190
203
220
216
236
235
239
220
204
218
224
229
218
215
222
224
221
221
224
210
213
209
222
227
232
224
192
195
200
186
172
145
171
183
171
158
157
170
172
170
176
185
186
190
196
198
203
201
207
206
210
208
208
211
209
202
199
200
202
201
203
204
211
207
208
207
208
209
212
205
206
205
209
208
200
195
198
203
214
209
199
192
202
207
197
182
186
184
194
212
220
223
193
203
214
216
237
241
242
223
206
221
231
240
230
214
220
224
217
218
207
218
208
207
216
223
231
219
188
195
189
190
175
146
165
194
178
154
158
168
173
175
167
178
180
183
190
189
195
203
204
202
209
210
211
211
215
213
212
211
213
213
215
216
218
216
220
214
211
211
211
209
209
206
206
202
198
197
205
209
212
202
197
194
198
199
193
177
183
184
204
212
222
223
207
214
209
216
235
251
240
229
216
221
216
222
218
223
214
226
224
225
234
220
222
209
215
217
225
210
205
177
185
195
185
150
169
191
190
165
157
167
180
179
172
173
175
176
178
184
191
194
202
200
205
202
210
209
212
212
219
222
220
221
222
222
220
222
216
214
213
208
208
209
208
205
198
199
201
204
205
206
206
197
195
191
199
192
190
174
180
193
212
214
221
223
211
218
221
216
230
255
236
233
220
221
225
222
210
212
217
234
224
229
230
226
218
215
217
217
228
207
204
171
186
194
196
148
165
192
185
181
164
166
176
184
180
177
173
169
173
176
184
186
196
198
202
197
202
207
212
212
215
219
219
220
221
220
219
217
211
210
203
200
199
198
201
197
199
197
206
201
205
200
201
196
192
187
203
185
179
169
186
202
217
212
222
227
216
225
230
223
228
247
240
234
228
219
236
225
216
210
209
227
221
234
216
221
206
211
220
222
222
202
198
174
196
187
204
156
167
190
192
186
179
171
174
184
185
184
176
177
171
171
177
177
186
192
197
197
195
201
212
210
211
216
217
215
212
216
213
209
203
199
196
194
189
193
197
193
197
200
205
200
201
199
196
190
187
183
194
183
166
171
196
207
221
205
223
236
225
229
226
234
231
241
234
235
234
221
236
238
218
216
210
224
241
228
221
220
208
206
218
209
197
200
204
180
192
192
200
171
164
188
195
190
183
178
178
185
186
183
185
181
174
168
177
173
178
182
188
185
194
195
201
199
199
210
210
209
210
209
205
202
200
191
193
191
192
194
197
193
201
195
204
200
193
194
188
186
182
178
189
181
159
179
205
211
221
210
223
231
238
238
226
241
228
240
225
242
235
227
232
239
217
218
215
