P2
# Face with average contibution
92 112
255
195
197
195
198
194
196
195
196
197
194
198
194
193
185
191
190
191
181
174
172
179
172
178
181
193
189
197
190
197
193
194
185
180
181
183
183
187
182
189
188
189
185
188
185
179
194
189
187
186
187
181
182
181
184
179
181
181
185
187
188
183
195
197
186
191
187
184
187
181
180
181
182
189
192
191
195
190
187
188
191
190
189
190
191
191
191
190
191
191
192
189
191
198
197
198
196
198
194
195
197
197
194
198
196
190
189
190
190
187
181
168
175
182
184
177
181
187
184
188
184
183
185
187
188
186
185
184
182
189
185
183
187
190
190
189
185
180
185
183
185
185
185
182
176
177
180
175
170
174
176
174
173
178
181
193
193
191
190
190
194
188
180
177
182
185
192
193
196
195
190
184
191
188
189
191
190
191
189
189
191
193
191
188
191
196
200
195
197
199
196
198
192
195
196
200
193
191
184
190
187
183
184
178
181
180
186
181
182
179
172
183
180
175
183
187
194
187
184
186
181
187
182
183
181
183
185
184
177
178
186
188
188
186
181
174
175
176
175
178
177
168
172
167
170
176
175
188
187
192
185
192
191
195
190
194
184
181
189
189
194
197
190
187
186
187
190
188
192
189
189
188
191
190
191
188
190
198
196
198
199
198
194
196
196
194
195
201
189
188
179
180
183
186
182
179
183
185
188
180
180
176
173
173
176
183
182
185
183
182
184
183
185
179
179
182
183
177
183
186
183
190
185
188
185
183
175
174
183
187
182
189
183
176
166
164
173
177
179
181
178
181
182
192
190
195
198
199
191
192
189
187
188
187
196
191
185
190
189
190
187
190
190
188
192
192
191
189
188
198
197
200
198
200
193
196
194
192
194
193
185
176
173
176
175
185
178
184
187
191
186
175
176
176
171
176
174
174
173
176
171
176
184
181
178
178
177
175
178
167
172
184
180
183
179
173
179
179
174
177
179
185
187
190
183
175
177
173
173
176
181
179
176
179
182
186
186
194
200
207
201
195
193
195
186
184
192
196
192
188
187
190
191
190
192
190
191
192
190
190
189
196
199
198
199
200
192
196
196
199
197
188
184
174
176
180
173
178
182
189
191
184
186
186
180
184
176
176
172
169
173
171
166
166
171
179
176
179
178
175
170
170
167
173
173
174
184
180
177
181
176
177
180
180
184
191
184
182
183
180
189
183
182
174
176
178
186
190
186
187
191
204
203
204
194
193
194
190
185
192
194
191
186
189
188
192
190
192
191
190
192
192
191
199
197
199
196
200
196
200
199
203
195
181
178
177
180
177
177
174
177
178
176
183
189
194
188
191
182
183
181
173
177
175
178
175
178
172
173
173
176
177
178
172
177
172
170
166
171
171
176
184
180
177
181
187
189
191
193
195
194
191
196
193
191
179
181
184
178
194
192
186
190
195
196
197
197
189
193
194
192
185
188
192
188
186
193
192
192
193
194
190
194
189
193
196
199
195
198
198
199
203
197
198
189
179
177
178
180
175
177
170
169
168
177
182
186
193
193
184
190
183
183
182
187
179
184
183
189
187
185
183
184
187
180
181
179
171
168
171
174
177
175
184
182
184
183
192
194
193
200
200
197
198
199
197
197
190
189
187
191
189
192
186
188
190
188
193
192
192
190
196
192
181
187
187
188
189
191
192
190
196
189
191
192
188
193
199
198
198
197
199
202
200
194
196
186
183
180
182
179
167
166
166
169
179
172
183
188
189
182
181
181
181
176
177
183
183
193
191
196
193
195
199
200
196
189
196
196
194
189
189
184
185
186
190
194
193
193
195
193
194
198
200
197
200
194
199
199
190
192
187
197
194
189
189
187
190
187
193
192
186
190
194
184
179
182
187
188
184
189
190
188
194
190
191
193
191
193
198
198
197
197
201
202
199
192
189
182
181
181
183
172
162
167
173
179
179
173
183
181
177
179
178
179
178
178
174
179
191
192
191
193
195
203
204
210
203
200
203
199
198
197
196
195
194
191
190
196
195
199
202
193
198
195
197
197
193
187
191
195
193
193
186
197
197
188
186
187
192
186
192
187
177
184
191
179
176
179
184
181
186
188
191
189
195
190
190
192
191
193
198
198
196
201
199
199
194
190
182
176
184
186
174
169
169
181
189
187
186
193
189
182
174
175
181
179
180
180
178
192
195
195
201
207
209
210
208
205
206
201
202
193
194
191
190
196
202
196
192
193
194
199
201
198
195
188
192
193
190
180
183
188
191
190
192
192
196
198
187
186
190
185
186
184
181
181
182
179
178
179
180
183
186
189
190
190
190
188
194
195
195
195
195
201
202
204
197
195
192
184
173
173
176
174
166
169
182
191
193
197
201
202
195
189
179
181
179
179
180
181
189
196
197
206
210
211
214
213
214
212
204
202
196
191
189
191
191
196
198
194
184
189
190
196
194
195
201
187
187
187
190
186
187
182
190
187
188
191
188
196
194
187
194
195
190
183
186
179
178
186
181
179
177
179
184
184
186
195
188
186
191
192
196
196
198
200
199
204
195
192
183
176
173
168
172
169
169
172
194
189
191
201
200
200
194
190
190
185
188
181
182
185
191
199
201
202
212
210
217
209
211
207
207
211
197
187
185
187
184
186
185
187
184
186
191
188
191
189
195
188
193
186
188
187
190
186
182
180
186
185
177
182
190
187
193
196
194
184
180
180
177
179
184
177
174
182
182
182
188
189
191
192
190
188
196
193
199
197
203
204
186
182
177
173
172
169
173
176
171
179
199
195
195
202
198
196
189
189
184
182
189
187
187
189
189
197
203
209
211
211
211
203
200
196
198
197
196
189
184
179
178
181
182
184
186
186
190
188
189
185
187
189
185
188
184
184
184
185
188
182
183
186
183
177
176
183
190
198
198
196
185
182
173
179
180
180
170
179
177
186
185
190
192
192
192
189
193
193
197
193
202
198
183
174
169
163
169
168
178
182
181
195
190
194
200
199
195
194
188
182
181
187
186
186
186
187
187
188
199
204
201
204
201
198
190
189
189
187
190
183
183
182
176
176
178
180
179
181
176
184
190
190
187
191
187
185
186
181
185
185
185
186
187
182
186
181
169
179
183
196
201
198
198
181
174
170
172
177
176
179
176
182
186
190
187
198
191
192
187
193
197
199
195
188
185
166
164
165
166
171
182
190
198
194
188
205
194
196
193
193
193
191
194
193
190
192
184
191
190
189
197
189
195
200
192
191
182
187
180
183
186
179
178
176
174
170
173
177
179
178
172
176
181
181
185
185
186
181
182
178
177
180
181
183
189
180
182
183
176
176
182
188
195
201
197
183
179
164
166
166
168
177
180
177
185
191
188
196
187
190
187
190
196
197
191
180
179
162
168
168
167
174
185
196
203
202
213
208
199
198
195
191
191
195
196
194
190
191
184
190
189
186
191
189
201
192
187
187
183
182
174
176
179
181
178
181
176
171
172
172
174
180
181
182
176
180
178
175
182
182
181
180
181
184
179
183
186
186
177
186
184
175
181
181
198
198
193
189
180
170
161
163
163
170
180
177
184
197
189
197
195
186
185
188
195
189
184
177
165
168
178
175
173
183
190
207
204
207
211
202
197
199
198
191
192
193
196
189
189
188
187
189
193
190
191
189
192
183
184
182
179
179
172
170
180
181
180
182
178
171
175
170
174
181
181
178
179
175
178
174
176
182
180
178
181
182
181
179
183
182
180
178
180
182
181
182
190
197
193
195
180
173
160
164
164
168
171
175
178
192
199
198
199
191
184
186
194
186
181
174
164
176
177
177
185
195
203
214
207
207
208
201
197
195
193
190
190
197
189
190
187
188
186
191
191
188
187
183
184
180
180
182
177
173
174
169
178
182
186
182
182
176
178
175
181
178
180
177
175
177
176
177
180
182
183
181
184
188
183
186
186
183
177
181
182
181
186
193
187
197
199
195
191
174
165
159
167
162
167
174
178
182
200
200
200
193
191
186
183
179
180
179
170
174
182
184
195
204
210
209
203
205
202
205
200
188
186
188
197
189
186
191
183
185
183
187
184
183
184
184
186
183
178
179
176
175
179
176
180
187
197
190
185
187
183
183
183
177
183
180
180
180
183
183
185
188
190
191
188
192
190
189
184
186
178
178
178
183
184
193
194
198
198
197
194
184
171
167
167
161
162
165
179
188
194
203
202
200
191
189
175
184
185
183
179
176
184
190
199
198
202
196
195
198
200
201
198
181
186
189
189
191
187
190
188
191
185
186
184
184
185
185
186
181
182
180
175
179
180
179
180
188
195
189
187
189
189
188
187
185
180
182
184
185
186
190
184
192
191
192
194
195
196
194
187
187
183
177
177
184
183
182
197
199
200
196
192
186
172
172
168
163
159
159
171
189
192
197
202
197
199
196
181
185
182
185
181
175
183
191
185
192
196
192
195
197
196
194
182
175
185
188
187
194
191
192
192
194
184
186
188
186
191
188
191
183
186
182
179
184
184
185
187
193
194
189
192
195
188
192
190
186
182
182
181
186
185
189
191
192
195
193
195
201
193
196
191
186
186
181
178
185
188
183
193
205
201
203
195
184
172
172
177
167
157
168
160
181
195
197
202
199
201
201
182
186
187
187
183
181
180
184
184
190
192
193
199
200
194
188
176
180
190
191
190
192
193
196
190
190
184
188
188
191
192
189
190
193
190
188
188
183
185
189
192
194
192
194
192
199
194
193
191
188
181
184
182
186
186
193
193
195
194
191
192
196
195
195
193
191
186
184
185
185
191
186
196
199
207
204
194
188
183
178
174
176
159
170
160
177
188
197
207
203
204
197
186
197
189
188
191
179
184
184
187
189
190
197
196
195
187
181
182
188
188
187
195
191
191
194
189
187
187
185
190
189
191
188
197
195
190
185
189
182
192
191
191
192
191
192
193
197
195
193
193
193
184
186
188
188
187
190
194
194
192
190
189
190
196
194
194
194
191
187
191
188
191
187
189
197
206
204
201
188
185
184
172
181
167
161
165
170
187
198
204
208
208
199
190
207
187
190
186
185
186
184
182
194
195
192
190
183
186
187
188
186
187
187
190
188
190
187
184
185
186
187
191
186
190
184
191
189
188
186
184
188
191
187
187
190
189
190
192
195
194
197
196
197
191
191
193
192
190
188
192
193
190
191
189
186
192
193
194
192
195
191
190
192
196
185
185
193
197
206
200
190
188
181
176
181
182
167
168
162
178
198
200
212
211
204
194
206
181
181
184
191
190
182
188
204
194
188
187
181
193
192
187
182
183
183
189
186
185
187
189
182
182
181
189
186
185
180
181
183
183
186
181
184
187
187
187
191
192
192
194
193
197
200
202
197
196
198
193
189
188
191
187
190
188
187
186
186
189
190
191
189
191
193
189
192
192
193
180
190
195
198
199
193
187
185
180
185
187
181
168
164
164
189
198
212
214
209
204
198
184
182
185
195
183
181
198
200
187
188
178
189
200
193
189
187
185
187
186
185
185
186
189
184
183
187
186
185
182
179
182
180
181
186
182
186
186
186
190
193
198
192
193
194
197
201
202
199
201
203
197
193
191
192
188
188
188
185
184
186
183
188
187
189
192
194
188
190
193
194
183
186
193
203
197
195
188
181
180
181
192
187
172
163
164
189
193
201
217
211
201
198
185
187
191
195
174
188
191
192
186
182
185
194
198
195
192
192
187
187
190
193
193
189
187
188
183
184
187
180
184
182
184
187
187
188
186
190
189
191
193
193
194
193
193
197
199
204
202
200
204
204
200
201
196
197
190
189
186
184
186
182
183
183
182
187
193
191
190
190
193
188
188
187
190
201
200
197
187
181
170
181
189
188
178
159
174
184
200
199
217
212
195
193
190
195
193
188
180
180
187
193
182
183
185
197
198
192
194
187
186
184
191
194
193
191
188
184
183
184
187
186
185
188
186
188
190
191
188
191
190
194
193
195
196
193
195
196
198
202
202
203
206
208
200
204
197
202
192
193
187
183
183
180
179
178
181
183
187
190
189
184
192
189
188
188
187
197
200
198
189
181
168
174
183
196
174
172
173
190
198
205
204
217
189
187
200
198
192
189
178
182
193
188
182
185
187
196
195
191
186
182
181
181
187
194
191
188
188
184
183
190
191
194
196
195
192
190
187
188
186
190
189
193
194
192
196
193
197
196
192
199
202
203
208
208
204
207
197
201
192
193
187
179
175
173
172
174
177
178
181
184
181
173
184
189
188
188
187
194
199
193
189
180
175
170
180
190
182
173
175
193
202
203
203
213
183
196
201
197
198
194
175
188
194
183
187
185
187
195
194
188
183
180
180
181
185
192
190
187
189
186
191
193
196
199
200
199
198
191
188
188
187
186
189
191
192
193
194
195
197
197
200
202
200
202
207
206
213
206
196
194
186
182
179
173
170
168
167
167
173
170
175
180
180
175
175
182
185
191
189
188
197
196
191
179
175
175
178
183
186
176
177
193
205
196
204
211
190
197
200
199
196
191
178
187
184
185
188
179
190
193
184
182
181
184
184
185
188
192
188
187
185
189
194
199
203
201
199
202
196
189
189
182
185
189
185
189
190
194
195
197
197
197
206
205
198
199
202
204
204
197
182
184
176
169
160
163
161
160
160
161
166
166
172
176
178
172
177
178
178
185
190
193
192
191
191
182
177
174
177
182
183
182
178
196
206
200
199
209
195
199
198
198
190
192
181
183
182
184
187
184
193
191
178
181
183
184
185
186
187
189
186
183
186
192
199
202
207
204
202
199
195
189
189
180
183
185
187
187
188
193
199
196
199
198
204
201
195
195
193
195
190
186
176
174
161
157
154
149
155
154
155
161
165
160
172
175
181
176
178
174
176
177
184
191
191
192
186
182
179
171
173
185
188
179
172
193
205
197
195
209
200
203
195
198
188
189
188
181
183
187
184
190
195
187
179
183
181
183
182
184
178
179
175
176
180
187
194
200
199
204
200
201
195
195
190
187
183
184
185
187
184
189
197
187
194
197
197
195
187
187
185
190
180
174
172
164
159
153
156
153
160
157
162
167
168
170
171
174
177
173
174
180
176
176
181
179
192
190
185
183
175
170
180
182
183
179
177
190
197
195
193
207
206
200
194
204
197
191
191
184
182
179
177
188
190
177
174
173
176
175
175
169
171
174
174
178
178
178
182
185
184
184
187
187
185
187
190
185
194
187
183
188
189
189
193
186
190
185
183
184
173
173
178
184
171
167
164
164
165
160
165
168
168
174
176
178
184
183
188
185
186
181
183
186
182
183
180
178
184
186
184
177
171
172
177
187
178
181
189
187
194
194
195
204
200
203
190
203
201
196
192
183
177
176
178
195
182
176
171
169
172
175
170
169
169
166
171
166
167
165
171
174
174
173
177
175
181
184
191
192
196
197
193
198
197
192
197
192
190
185
187
184
176
174
178
178
167
169
162
171
169
169
166
164
171
177
183
186
194
193
199
200
201
199
197
194
189
190
190
185
181
185
185
180
167
173
173
183
183
178
191
185
197
197
192
199
206
201
186
210
200
204
187
176
186
174
181
184
177
178
171
171
176
171
165
164
162
161
152
156
157
162
161
164
169
174
172
173
175
176
183
194
192
195
191
195
197
194
198
195
188
187
186
183
178
169
176
170
167
165
169
169
171
172
170
172
177
184
184
188
197
198
200
200
206
208
205
197
197
194
193
189
180
178
186
186
174
173
176
179
185
180
191
186
191
198
193
201
206
200
186
209
203
202
183
180
181
173
174
178
178
176
174
166
172
168
160
155
161
160
155
159
157
155
160
151
153
161
158
158
162
170
166
182
181
183
183
185
193
193
190
191
189
184
185
178
173
168
174
169
164
160
164
163
167
171
173
177
187
189
192
193
195
199
201
205
204
210
210
202
201
197
197
186
186
178
183
186
176
174
180
184
180
183
186
185
192
195
191
205
208
197
195
211
207
190
187
181
180
170
167
182
181
176
175
175
179
164
163
158
163
171
169
166
165
160
166
154
153
153
152
148
152
155
152
172
172
178
185
186
193
197
193
191
187
184
179
172
166
170
168
161
157
152
156
155
162
166
181
195
198
187
198
186
192
194
191
193
194
203
206
209
203
201
202
197
191
185
180
181
175
174
184
185
187
178
181
182
191
193
191
205
203
205
203
215
218
190
185
188
178
159
177
185
182
184
184
181
182
165
170
170
173
181
178
177
172
163
163
163
165
165
166
171
167
168
170
172
176
176
181
186
195
197
194
189
184
178
175
165
165
166
166
159
154
154
161
168
171
182
195
200
201
185
199
178
183
184
182
190
187
201
202
206
210
203
205
201
200
197
187
183
170
174
185
183
189
178
182
182
184
197
194
195
198
200
212
217
222
193
190
197
178
162
174
190
182
192
187
187
176
170
176
185
190
198
194
188
188
184
185
183
170
170
172
153
160
161
173
162
172
175
175
178
192
201
192
195
189
183
178
171
166
172
169
156
151
163
169
166
170
181
186
187
191
187
184
178
187
180
184
177
176
177
185
191
205
205
202
200
196
196
182
195
170
171
183
188
188
178
191
181
181
201
201
193
197
191
206
215
224
193
199
190
176
170
178
193
189
204
191
191
181
177
187
197
197
193
183
190
183
187
192
190
169
163
177
160
164
169
183
176
183
186
188
192
204
212
205
209
203
192
187
188
180
185
180
169
163
172
175
178
190
196
195
199
201
192
194
195
199
203
205
195
186
175
182
180
193
206
204
198
198
196
188
187
179
165
182
189
190
193
198
189
191
203
213
193
190
197
199
209
212
200
204
191
179
179
188
193
201
207
202
193
186
194
200
204
197
181
182
188
186
204
198
187
187
175
176
173
173
182
185
183
192
202
200
204
211
224
221
230
218
207
203
205
199
198
196
178
173
179
179
185
190
190
189
187
194
190
190
183
189
192
196
203
190
184
178
188
182
188
202
202
197
195
201
188
189
173
179
184
191
197
195
196
192
212
208
184
193
193
200
199
200
204
204
194
181
178
197
192
206
204
195
187
189
195
199
197
187
177
185
179
191
189
186
175
167
179
184
188
185
187
178
183
196
202
201
208
214
222
227
235
224
211
203
202
203
198
185
176
169
191
198
189
196
194
195
183
190
167
175
168
166
168
171
186
175
170
171
177
184
185
195
202
190
194
200
192
183
182
175
188
207
189
192
195
189
213
209
185
196
192
195
202
198
201
202
198
187
182
196
191
195
195
193
190
190
185
186
190
188
190
194
191
201
202
205
185
172
174
173
172
178
185
179
177
200
198
201
203
209
212
222
235
227
207
206
197
194
189
168
190
185
191
200
197
188
182
184
171
164
140
177
168
161
159
158
177
171
162
155
157
165
179
190
200
200
185
191
194
186
183
181
188
201
194
190
189
192
215
212
185
182
184
190
198
206
204
198
202
188
174
189
195
192
184
185
182
170
180
191
207
210
207
201
199
192
200
200
185
186
183
166
175
170
178
182
180
188
196
200
207
205
217
237
242
228
202
201
199
191
185
174
198
193
191
198
188
174
177
181
197
172
153
168
148
161
166
158
198
193
171
162
153
154
167
182
187
187
178
192
196
189
182
187
180
190
190
201
182
210
218
225
179
190
179
181
195
200
208
201
208
191
168
176
186
185
172
162
159
177
194
202
210
190
182
177
180
186
169
175
179
178
178
178
173
191
171
175
184
188
194
206
202
200
218
243
224
225
207
203
192
200
186
174
184
187
185
169
168
175
200
200
198
183
157
166
160
162
159
169
207
206
170
174
175
165
175
179
185
191
179
183
198
192
178
179
183
184
193
203
189
210
207
224
181
210
182
186
195
196
202
206
213
185
170
171
176
179
158
153
167
176
196
194
179
165
162
163
179
192
172
162
174
175
160
162
166
171
184
182
185
193
200
205
205
194
211
224
221
222
206
199
189
185
176
163
168
164
170
168
177
184
197
188
183
179
179
194
184
174
174
188
194
187
186
196
188
188
179
195
200
193
186
171
194
190
187
173
182
188
195
189
204
198
200
211
194
214
190
194
199
204
201
206
202
188
168
166
179
178
156
156
165
182
176
165
162
176
173
166
175
177
182
162
181
195
158
215
166
152
165
190
187
185
203
210
207
198
200
198
209
208
202
197
180
179
164
153
151
153
162
179
189
169
176
185
172
176
182
200
199
192
186
185
180
177
189
186
188
192
183
184
201
201
184
178
190
190
194
182
190
200
193
192
213
204
190
210
207
207
187
184
192
200
204
202
203
188
165
159
171
177
158
156
144
163
149
152
185
187
165
179
185
177
183
169
179
167
148
204
178
165
177
187
189
181
198
201
200
189
198
192
201
203
196
186
176
182
170
155
150
155
156
169
177
173
178
176
164
174
180
185
196
187
181
177
176
177
181
182
182
183
173
177
201
200
194
183
188
182
196
190
200
207
200
190
210
198
180
199
213
206
194
180
193
198
210
196
203
185
161
155
164
160
148
143
131
154
144
164
193
194
202
187
181
191
197
179
191
176
175
187
182
171
188
196
190
187
191
190
186
186
193
194
201
197
204
178
168
178
172
159
153
156
161
158
177
172
179
165
158
170
182
185
189
180
175
170
173
177
173
174
171
176
180
193
200
188
199
190
175
182
189
194
197
211
203
185
194
197
181
189
213
214
196
190
185
202
211
204
203
171
156
159
151
157
148
150
143
175
172
188
193
192
198
193
192
208
202
192
186
178
186
187
187
189
177
186
189
186
181
188
179
186
188
195
195
192
199
175
162
173
163
162
156
158
173
162
173
181
181
166
174
168
154
160
166
161
161
159
157
167
157
166
171
183
177
193
202
187
186
193
170
177
186
182
199
214
212
200
195
192
189
186
197
214
182
186
173
191
194
199
203
173
163
162
160
167
169
169
162
186
191
199
197
200
195
193
188
194
193
187
182
174
168
170
175
184
177
186
190
182
177
179
176
189
188
194
187
181
186
178
167
166
168
162
157
154
171
179
177
184
188
182
173
177
172
172
172
170
161
160
168
175
181
172
182
184
179
182
200
193
187
193
186
180
184
183
199
216
214
219
189
188
192
188
188
212
167
181
164
172
175
185
192
169
159
160
165
171
173
173
160
189
188
194
185
184
178
181
179
183
191
175
171
164
160
168
172
175
184
191
191
176
173
171
175
180
176
180
168
162
175
182
183
168
178
162
158
154
162
183
181
186
194
182
175
174
180
178
184
179
187
178
180
189
190
176
181
183
184
185
196
190
185
190
169
167
176
186
190
217
213
207
178
172
188
182
187
207
154
175
166
155
164
171
178
158
154
154
169
165
180
161
148
166
165
174
172
168
166
165
167
167
178
173
174
178
168
173
184
182
190
187
185
175
165
166
161
162
153
161
158
160
167
183
186
177
179
173
163
166
170
184
190
192
200
197
181
174
170
176
179
178
182
182
180
180
186
188
183
182
185
188
200
182
184
185
174
165
174
190
189
203
205
185
178
159
180
169
189
197
148
186
179
153
166
170
165
152
157
148
162
161
178
157
148
162
160
164
162
158
157
167
168
182
194
184
183
180
174
185
183
188
191
184
186
174
169
158
155
161
158
160
162
162
165
175
171
170
181
170
166
165
176
181
188
196
198
193
188
184
181
182
187
186
188
186
180
176
175
176
170
181
181
191
193
183
179
172
181
162
174
193
186
193
201
188
171
153
183
165
188
197
148
195
194
160
175
168
168
153
153
150
158
158
158
163
155
162
163
167
165
164
168
172
178
192
195
195
190
188
186
184
183
191
192
187
180
177
172
154
159
161
168
169
167
169
161
162
157
157
166
180
171
164
164
173
178
183
189
185
186
193
191
184
191
187
190
190
191
185
186
178
182
178
174
178
196
189
182
184
183
157
176
193
187
193
195
194
176
156
178
163
183
207
152
205
215
171
180
180
177
159
148
146
159
159
157
154
155
167
166
166
166
164
162
170
175
186
195
200
202
200
191
187
185
196
194
192
190
179
157
162
160
160
164
168
169
168
166
157
156
169
157
172
165
165
157
164
171
164
172
177
179
190
196
201
199
198
192
193
189
188
190
188
195
183
175
180
200
197
188
188
184
155
175
193
189
189
197
194
176
160
177
174
172
207
174
215
211
169
175
178
173
165
153
141
158
165
156
151
156
160
164
164
160
160
158
169
171
181
185
192
191
184
182
181
187
197
201
187
181
168
157
168
159
157
159
169
181
170
171
159
154
161
159
162
165
165
154
154
164
162
166
165
173
184
199
205
209
204
199
195
195
201
203
205
203
194
191
191
202
192
186
190
181
154
178
202
193
190
195
189
173
175
181
178
178
198
203
219
205
162
167
170
165
167
160
143
154
166
155
157
155
158
157
156
156
161
165
174
182
194
190
185
185
181
181
190
196
196
194
176
176
167
166
169
164
159
159
171
183
185
177
161
158
167
163
158
165
167
157
151
152
163
162
169
166
175
185
198
202
203
192
197
201
201
211
213
205
199
186
185
196
192
201
194
187
161
178
198
193
186
193
186
180
191
182
182
187
193
222
221
188
171
164
165
161
168
173
145
149
162
148
154
155
172
168
167
166
164
175
180
185
184
185
179
186
185
186
186
183
192
188
184
175
168
171
181
174
165
164
181
188
202
196
177
167
176
171
166
165
168
166
168
164
165
169
174
177
174
175
179
180
189
190
195
204
206
209
207
202
199
186
187
194
202
201
200
192
164
173
192
187
183
186
184
189
191
180
193
200
199
223
218
176
177
173
166
164
160
172
153
150
166
156
149
155
166
165
169
165
164
175
186
195
189
193
191
191
185
184
170
180
192
184
187
174
167
172
184
181
171
162
182
196
203
198
186
172
182
174
165
161
151
165
178
175
179
170
175
180
176
177
180
182
181
184
186
191
196
202
203
193
194
183
183
192
204
202
204
189
181
185
185
189
181
174
187
205
189
182
193
199
196
224
213
172
180
166
169
168
166
166
163
157
168
161
147
163
160
165
168
171
172
180
194
198
201
195
198
194
185
173
164
193
189
191
186
171
159
178
195
191
179
172
184
190
194
183
178
175
177
178
170
171
159
154
176
175
175
171
178
176
167
177
179
183
189
183
180
185
190
200
197
192
192
179
181
193
198
206
201
192
183
189
190
187
169
169
198
213
194
186
193
201
196
213
215
182
173
165
167
172
176
174
156
164
170
163
158
154
171
166
169
176
179
185
195
199
200
197
195
185
178
168
176
181
189
185
178
163
172
193
210
212
186
181
189
177
188
176
170
171
174
170
167
171
162
159
163
173
168
170
175
172
166
169
176
172
176
178
178
179
185
194
196
190
190
186
178
188
187
201
192
188
184
187
181
181
168
180
207
212
199
195
193
206
202
200
212
193
182
167
166
170
182
181
159
158
175
166
161
159
162
175
177
187
189
181
185
190
197
187
187
177
167
161
172
185
186
183
180
176
195
207
214
218
199
187
195
179
183
178
165
174
169
167
166
159
162
165
160
161
165
160
162
166
165
172
181
180
178
172
174
182
192
193
195
185
187
181
177
179
189
187
185
191
183
179
177
178
175
187
206
215
199
204
199
198
208
193
216
199
188
178
174
167
186
181
170
167
170
173
167
162
171
173
180
187
190
182
189
192
193
184
179
171
165
169
186
201
199
190
184
188
197
204
211
221
205
198
198
191
186
184
177
180
180
169
164
163
164
164
169
158
144
152
153
157
159
158
181
187
187
183
175
186
189
191
192
190
181
181
186
185
180
183
180
189
185
179
178
180
174
197
200
213
204
208
199
190
212
183
207
199
188
191
186
178
189
187
180
177
177
179
169
170
178
182
186
187
190
192
190
190
189
185
169
168
172
176
189
196
184
181
179
188
196
205
211
217
211
209
206
193
188
184
190
202
192
178
170
167
162
165
156
157
145
127
140
154
156
149
178
184
191
187
181
184
184
190
185
187
182
188
185
180
180
180
175
191
194
179
182
176
167
197
203
216
206
218
207
201
214
189
203
191
191
201
199
185
193
190
186
183
175
183
178
174
172
176
181
182
184
186
186
184
189
182
174
179
184
184
183
183
171
167
172
175
189
204
204
204
205
200
196
176
177
181
190
201
189
175
168
155
151
150
145
145
145
146
151
154
155
148
173
180
185
186
185
182
181
179
184
185
187
185
181
179
175
170
167
182
192
176
178
172
171
193
206
217
212
223
205
203
212
197
215
192
188
202
214
194
192
191
192
189
174
185
179
173
185
182
181
182
182
188
188
186
189
187
181
186
191
191
175
181
163
154
153
151
168
177
175
181
200
198
195
176
172
176
188
195
187
180
170
164
159
157
156
161
158
158
161
169
166
153
167
178
177
182
187
181
180
186
180
177
179
180
180
180
168
165
168
177
185
176
178
172
176
202
218
221
217
218
202
192
216
206
202
203
181
196
219
201
197
190
188
200
171
184
180
178
186
183
180
185
184
189
191
189
190
192
188
194
200
198
176
182
174
162
164
157
176
183
180
181
183
186
191
183
185
176
177
194
186
172
167
167
166
163
165
167
156
154
159
165
168
168
174
180
171
171
173
171
172
174
175
172
174
177
173
170
165
161
168
175
183
175
176
164
181
204
216
226
221
205
202
183
209
213
190
206
180
184
217
204
200
196
192
202
178
184
182
181
186
184
184
187
187
191
190
191
191
193
194
197
203
204
181
187
195
187
190
192
194
195
195
202
193
176
169
181
183
173
177
193
173
170
165
171
167
167
162
166
163
159
159
160
161
171
178
182
172
172
168
169
172
172
168
174
173
174
168
163
160
168
172
176
183
173
170
165
188
199
219
230
215
198
197
182
206
206
203
198
190
180
197
205
197
201
195
203
182
182
182
184
189
187
186
189
190
194
194
194
196
193
195
204
206
206
192
191
198
199
202
201
194
188
190
205
201
179
177
179
179
169
180
182
178
169
163
166
168
170
168
175
166
172
164
160
153
167
173
176
170
166
165
167
165
169
170
175
171
169
163
155
165
170
177
175
181
176
165
174
188
204
223
219
211
198
196
184
206
208
210
201
199
193
189
192
184
193
198
196
183
182
184
182
188
182
180
183
193
195
195
194
201
199
203
203
207
207
199
202
212
213
211
204
202
193
192
204
197
191
189
185
178
173
178
176
179
168
163
166
173
177
183
183
179
180
176
170
161
158
166
168
172
172
170
173
171
175
174
176
168
168
165
155
161
168
177
176
179
176
164
175
194
214
223
211
201
195
197
189
212
211
206
205
205
203
195
196
179
182
187
185
175
174
185
180
182
176
172
171
189
194
195
196
203
203
207
207
207
207
207
218
219
213
219
219
211
202
205
212
202
198
186
186
178
172
177
169
162
163
167
174
173
182
183
178
186
186
189
185
171
166
166
173
175
177
180
182
180
177
179
177
169
173
164
160
157
168
180
174
174
173
164
173
199
214
218
212
198
190
198
190
201
205
194
202
203
209
201
206
189
190
176
177
174
165
180
173
172
171
171
167
179
189
190
194
202
204
205
205
208
205
220
224
225
225
224
229
225
205
209
205
202
204
194
188
187
185
188
182
172
175
185
180
177
184
184
185
188
189
194
188
185
177
176
177
179
178
181
186
182
179
180
180
173
172
160
164
159
167
181
177
176
170
165
182
201
207
221
212
194
188
197
192
188
189
179
200
197
210
206
209
196
192
182
176
174
160
172
164
169
167
172
166
173
184
187
189
200
201
201
207
204
208
218
226
228
231
222
218
221
205
207
195
201
201
203
204
215
201
205
197
195
189
183
180
186
188
185
190
188
190
190
185
179
186
185
182
183
176
188
187
182
180
178
176
180
172
160
163
160
167
179
181
177
165
166
187
197
213
217
211
192
186
200
184
187
186
176
195
195
198
207
209
200
192
185
181
182
163
164
158
164
168
171
161
168
176
180
178
183
198
201
210
205
205
209
219
213
215
205
198
214
207
202
192
193
191
197
199
204
197
203
195
183
188
181
179
183
176
179
190
187
192
191
182
180
177
188
182
179
180
185
189
188
184
180
170
175
171
162
159
158
167
176
178
174
169
164
196
212
215
213
202
185
190
201
183
188
186
180
190
194
194
200
206
202
189
195
186
184
168
158
154
163
171
168
161
165
171
164
161
177
197
202
205
208
209
207
208
206
204
206
204
205
210
204
198
194
191
198
190
197
200
202
194
178
185
179
186
188
178
182
187
185
193
198
186
186
186
186
182
174
175
177
183
181
180
181
182
173
169
161
151
153
162
174
172
173
172
173
214
218
214
207
197
182
194
198
184
191
193
172
194
192
191
194
194
203
192
197
196
188
162
155
154
156
167
169
167
172
169
148
161
188
195
204
205
214
215
197
200
203
201
199
193
198
199
200
202
199
198
201
192
199
204
203
195
177
178
178
181
185
183
184
185
177
187
191
192
194
189
186
180
178
171
171
181
173
168
181
186
177
175
168
151
159
170
176
171
182
177
196
221
218
208
205
194
186
193
193
191
193
193
181
191
196
191
192
193
198
191
196
200
184
162
153
158
157
168
168
168
175
164
167
175
191
195
206
211
214
209
203
200
198
200
198
193
196
205
212
207
198
199
207
196
200
208
207
197
181
176
183
182
182
175
179
169
165
176
183
189
190
185
184
181
175
172
167
172
165
170
186
179
178
176
173
159
165
178
181
181
189
182
206
215
217
205
199
196
191
190
191
188
190
193
189
191
196
192
196
197
197
188
186
197
184
163
149
164
161
170
169
174
175
165
172
181
184
206
210
214
215
207
198
198
204
208
207
207
200
207
204
211
199
198
208
202
199
201
209
193
185
179
179
182
185
170
168
159
160
171
172
179
190
180
193
181
174
171
169
174
162
175
188
186
179
177
181
173
175
186
186
187
191
191
210
210
214
200
201
190
191
192
186
187
184
188
192
191
207
198
206
200
199
192
176
189
177
165
155
167
166
172
173
176
172
172
175
172
181
208
220
212
212
201
190
192
196
205
207
202
196
200
191
206
194
188
196
194
187
184
194
178
176
185
181
181
175
165
169
161
167
162
159
170
207
187
218
195
176
173
177
171
176
187
193
187
184
177
183
186
187
184
186
195
196
196
203
207
206
202
195
189
194
192
181
188
181
185
188
190
208
200
206
202
200
196
181
180
182
171
158
174
177
176
180
172
175
172
176
164
187
206
209
204
194
185
185
185
191
195
205
193
188
187
187
185
184
183
186
183
176
172
178
159
156
184
190
195
184
169
171
175
192
175
163
181
221
192
210
221
171
173
177
191
185
196
192
185
187
184
181
189
193
188
187
198
199
196
198
206
204
197
191
188
195
191
183
186
183
182
186
184
205
198
206
205
195
198
183
183
180
174
166
171
185
180
178
179
181
172
167
161
187
201
189
183
177
167
174
180
185
188
190
189
194
192
200
195
190
173
203
197
197
188
189
153
158
192
205
214
206
184
180
187
214
193
168
188
223
201
188
209
176
182
196
184
197
201
188
184
180
188
189
193
189
199
186
199
194
200
199
203
200
196
189
190
188
192
184
186
185
181
185
177
199
202
197
204
195
189
193
182
179
178
173
166
182
180
183
185
182
175
167
169
188
193
174
165
164
154
159
164
178
207
195
225
212
195
234
231
226
198
241
227
222
212
207
164
172
205
213
223
214
203
190
203
210
223
178
206
215
200
179
197
195
192
188
178
202
195
192
190
181
190
193
195
186
201
190
194
190
199
196
201
195
189
188
189
191
185
181
190
190
187
182
176
191
199
192
206
195
195
196
187
183
183
177
166
172
180
187
181
185
176
170
183
194
201
178
159
156
147
150
161
178
219
202
239
224
203
252
244
243
214
250
248
239
229
219
181
199
215
208
212
205
209
200
209
204
221
169
200
206
194
190
195
206
198
183
189
207
194
194
195
194
190
197
198
186
192
188
181
189
188
196
195
191
189
187
191
187
181
185
188
190
190
187
179
185
197
188
194
196
193
194
193
179
183
180
171
167
172
171
184
179
178
175
181
199
207
196
168
170
165
163
163
179
202
198
229
230
216
250
246
240
224
246
242
237
236
234
205
206
226
220
210
204
211
173
193
200
192
170
189
193
187
198
195
199
191
185
197
204
193
194
193
194
198
193
192
193
196
181
172
179
186
195
192
188
188
188
188
184
180
187
184
190
189
186
181
182
196
184
186
198
197
189
199
189
182
187
175
167
167
168
170
166
172
173
182
202
206
206
178
183
189
185
184
190
203
198
228
243
204
241
246
249
213
244
252
241
230
225
205
176
213
206
192
187
184
156
161
182
182
183
188
188
200
189
199
190
185
188
195
197
188
195
192
196
197
196
181
192
188
182
171
176
188
197
191
183
190
188
190
179
176
184
186
184
185
185
179
177
189
186
188
188
195
191
200
199
192
191
175
170
169
168
173
163
168
168
180
204
208
205
202
193
198
204
201
206
207
204
208
225
203
200
212
202
175
197
219
203
197
178
174
165
173
173
179
183
190
194
192
197
188
185
191
205
218
188
190
186
190
188
190
195
191
195
197
194
200
191
184
191
181
171
168
178
185
189
179
186
184
182
182
174
174
182
187
177
178
176
179
177
175
187
191
187
192
190
198
200
198
189
184
167
161
170
172
169
172
171
177
196
205
197
208
199
195
194
193
193
192
198
197
206
206
217
217
210
204
197
197
203
194
189
185
189
192
209
207
202
208
211
202
194
188
190
199
227
199
182
185
188
189
191
194
198
198
199
197
205
199
189
186
187
176
171
171
183
189
182
176
182
181
182
172
167
169
181
185
182
177
180
181
174
170
189
191
192
190
191
194
195
198
195
182
166
156
168
169
171
178
181
183
196
208
206
199
202
191
187
183
179
190
198
200
198
201
206
211
216
211
213
210
209
208
211
202
199
199
204
204
213
213
204
199
189
185
197
200
209
187
187
182
191
189
192
196
191
199
197
194
203
205
194
176
181
175
170
175
188
183
178
179
179
179
181
167
170
162
186
184
181
182
180
180
176
170
182
191
194
192
200
196
193
197
199
176
168
159
171
174
175
176
175
190
202
209
215
212
203
199
197
194
183
192
193
215
211
206
202
203
207
207
208
209
204
204
212
210
209
215
209
220
226
220
184
183
181
183
184
191
187
186
185
186
192
190
191
192
190
191
193
190
200
207
201
183
175
170
168
181
186
177
177
180
175
181
170
172
170
165
182
184
187
179
176
178
181
173
174
189
194
197
200
195
193
196
187
169
164
159
176
179
175
177
176
193
198
210
212
222
211
209
204
207
200
198
194
208
228
206
202
198
198
199
196
203
210
207
210
204
204
204
200
205
192
193
180
176
179
183
182
181
181
188
183
191
185
187
186
187
187
189
187
189
196
209
191
188
177
160
170
183
181
179
173
180
177
176
167
174
170
165
177
184
183
181
177
181
177
176
171
183
190
204
202
197
195
179
172
167
166
163
176
181
174
176
181
192
197
207
207
217
212
212
210
210
205
203
200
204
220
206
202
197
195
197
195
195
201
196
193
182
186
189
191
189
181
177
179
179
176
177
184
176
180
180
183
182
189
187
184
185
182
190
186
186
200
206
184
190
183
164
171
184
180
177
174
177
178
172
168
174
170
166
173
175
181
182
179
181
176
175
174
173
189
203
204
199
179
167
163
166
163
169
173
186
177
177
185
193
203
205
205
210
211
206
206
211
203
205
203
205
208
202
203
199
195
196
192
191
193
184
188
181
182
188
183
188
187
177
178
185
176
176
177
177
175
177
178
187
186
186
183
185
188
188
181
187
199
200
185
185
186
173
175
180
178
173
175
177
176
171
170
175
171
163
169
176
179
182
181
180
179
174
174
168
185
201
204
184
177
172
156
155
164
165
174
184
188
179
185
190
202
204
206
208
204
202
200
200
202
202
202
200
203
199
197
199
192
194
188
193
189
177
185
175
184
178
178
186
182
179
179
179
177
175
177
176
177
172
181
188
182
184
183
180
189
185
178
192
189
188
184
184
185
187
185
172
173
175
172
184
175
167
171
176
168
162
173
176
180
179
180
179
178
176
167
171
178
191
188
176
185
173
146
153
163
167
167
188
194
185
182
188
195
196
208
201
204
204
202
195
196
199
194
194
199
193
189
190
191
191
194
189
185
186
180
176
184
174
174
184
179
180
176
179
175
176
172
174
175
175
178
183
178
184
182
183
183
180
181
186
180
174
183
189
182
192
192
173
168
178
174
182
171
167
168
176
164
166
176
173
184
179
178
176
179
173
164
174
170
173
184
177
188
169
148
150
159
163
165
183
196
195
183
181
189
193
203
200
202
207
204
205
195
198
194
191
193
191
186
179
183
186
185
178
180
182
180
167
183
172
179
180
180
179
172
179
172
174
168
171
171
170
172
177
178
186
184
183
187
178
189
186
177
165
173
198
190
187
194
182
174
176
177
176
169
168
169
175
166
170
172
174
181
175
176
177
175
170
164
180
162
157
174
181
193
163
154
154
157
153
169
175
191
198
192
186
185
199
198
199
202
204
203
207
199
198
195
194
196
188
186
185
184
183
181
173
176
175
171
171
181
173
183
173
177
178
175
180
175
173
167
166
166
164
171
177
180
178
193
181
183
184
190
188
167
162
172
193
193
190
188
188
181
182
174
172
165
169
171
174
165
168
173
172
176
171
170
173
169
164
175
171
154
147
161
182
189
164
161
156
152
159
170
169
192
194
196
190
186
200
189
195
197
197
204
202
198
200
190
193
189
183
179
180
181
180
180
175
173
174
173
177
179
175
184
172
176
176
171
177
175
162
162
167
164
167
171
178
188
185
183
182
181
188
184
186
163
161
190
198
182
191
190
190
189
173
180
172
166
166
168
168
159
167
170
166
173
170
169
176
166
165
174
155
156
145
188
203
177
165
165
161
155
165
162
164
184
196
197
191
188
189
187
190
193
193
199
197
197
194
187
187
185
180
172
179
173
175
176
170
173
174
170
177
174
178
168
170
172
170
166
173
171
159
164
172
173
167
179
180
193
187
179
178
189
188
180
176
170
178
196
209
172
182
192
191
195
174
175
176
162
163
172
173
162
168
172
168
172
170
169
169
160
165
163
145
156
134
217
238
182
169
166
161
168
171
165
170
177
186
195
188
186
172
189
188
192
194
191
191
195
194
186
186
184
181
176
174
172
172
174
177
176
177
177
172
174
175
167
177
172
167
171
169
166
171
176
183
180
171
181
190
188
185
177
175
194
190
176
172
187
187
196
211
180
176
187
192
187
185
179
183
161
162
167
168
166
167
176
172
169
170
172
157
153
160
156
151
151
142
232
241
213
179
169
166
176
179
173
156
173
180
191
189
190
169
189
185
191
196
193
191
195
193
190
191
186
189
185
180
175
178
176
179
180
184
178
180
172
178
171
179
173
169
168
180
175
183
188
183
182
189
186
193
183
177
176
187
188
182
174
179
192
190
195
205
196
172
183
188
180
182
180
189
174
173
166
164
162
164
175
167
167
165
163
153
159
160
157
158
143
155
241
238
218
208
161
178
188
185
166
155
165
178
186
188
184
177
194
177
193
198
197
195
194
197
196
193
188
192
189
183
184
190
185
187
186
189
183
184
178
181
178
185
186
177
185
192
189
191
194
185
186
194
189
187
181
173
176
188
191
179
171
172
190
187
196
198
209
189
180
180
174
173
188
188
201
205
185
165
169
168
173
166
159
154
155
152
159
157
158
158
140
174
238
236
218
210
198
180
189
185
163
155
162
179
181
184
184
179
194
182
194
199
196
192
195
193
198
195
192
194
189
185
193
196
192
198
199
198
197
195
196
193
197
191
194
196
197
196
202
192
193
190
194
195
188
183
179
176
178
183
189
178
173
161
185
185
201
195
203
223
186
170
167
160
188
187
185
204
200
186
187
194
187
184
178
177
182
181
187
170
177
181
161
194
215
223
218
206
234
204
174
183
167
155
163
175
183
179
182
177
190
188
195
196
199
192
198
191
198
200
197
195
194
189
196
199
192
201
198
203
199
201
196
197
205
196
200
203
198
200
199
198
194
195
192
190
188
177
181
178
171
178
179
175
164
161
180
192
210
196
195
217
210
162
161
158
185
186
156
192
189
184
183
189
190
195
207
207
204
201
182
179
192
197
206
217
205
198
223
212
251
231
177
172
169
159
163
169
175
179
179
187
186
197
193
195
199
196
199
192
190
195
195
197
193
194
191
197
194
199
200
196
194
199
192
197
206
201
208
206
202
200
196
196
190
192
192
181
185
175
180
176
166
168
175
168
168
161
180
191
210
198
192
209
215
172
162
158
197
187
150
191
197
201
192
199
202
199
184
182
188
175
154
171
176
171
194
224
208
185
197
230
252
225
217
170
164
167
170
168
171
176
178
187
188
194
197
195
189
191
189
193
184
187
184
192
183
194
190
186
196
198
199
198
191
196
198
196
203
200
203
204
195
198
187
187
191
189
184
175
173
176
170
169
156
160
171
155
171
162
181
189
214
201
188
205
205
187
176
165
207
189
156
180
183
181
178
188
188
192
211
207
219
201
176
208
193
168
183
218
199
191
174
226
255
226
225
207
172
157
172
172
181
177
179
186
183
193
190
189
189
190
183
187
178
177
174
183
177
186
178
183
191
196
196
193
198
192
195
190
192
200
192
193
188
190
180
187
185
181
176
171
169
167
165
161
150
164
156
158
174
162
184
195
226
196
189
192
206
200
182
179
209
185
164
171
166
162
168
175
175
175
188
193
204
203
191
200
207
181
196
211
191
209
201
197
245
227
221
215
206
154
163
172
185
178
181
183
177
184
186
191
188
190
181
181
170
173
169
183
174
185
174
187
189
191
188
182
193
187
185
186
183
185
180
183
178
179
175
179
180
177
163
171
158
161
158
154
154
165
147
164
175
159
185
206
230
199
190
185
203
204
192
200
208
181
156
153
172
176
178
168
168
170
187
206
195
182
164
191
193
173
188
206
203
218
211
210
207
223
227
210
211
177
160
170
183
179
182
181
183
185
178
189
196
193
191
183
172
176
167
175
176
182
175
183
187
192
183
177
185
184
180
178
173
181
171
168
172
172
168
170
170
162
159
164
157
160
157
155
161
163
151
169
174
172
190
213
225
208
188
193
196
203
206
216
218
176
143
158
182
176
183
192
168
164
184
226
210
204
183
179
170
150
166
225
207
230
222
215
196
192
206
205
198
188
189
163
181
183
178
178
188
185
182
190
195
191
196
193
181
182
174
177
179
179
180
177
188
187
184
172
185
179
184
182
172
175
169
160
169
163
165
166
160
162
159
159
159
163
160
160
159
158
157
168
171
179
197
211
237
213
182
200
188
198
227
228
212
172
157
171
176
174
181
185
184
194
