P2
# Face with average contibution
92 112
255
154
154
153
152
152
153
153
152
154
153
154
153
154
157
155
154
152
150
152
152
151
151
151
151
151
153
151
154
154
154
155
156
156
155
155
155
157
157
154
155
154
155
156
154
154
153
153
153
151
155
157
156
152
153
154
154
152
152
152
152
151
150
149
152
153
151
152
152
152
153
155
155
156
155
156
154
155
155
155
154
156
156
155
154
155
154
155
154
153
153
154
154
154
153
153
153
154
153
153
153
153
154
153
155
155
154
154
153
151
151
152
153
152
152
153
153
153
155
155
156
155
156
155
157
158
159
157
156
157
160
159
158
158
158
159
159
157
158
157
156
156
155
160
158
158
154
154
155
155
152
153
153
152
152
149
151
151
150
151
152
152
153
153
154
156
156
157
155
155
155
157
155
156
156
155
154
155
155
154
155
154
153
154
154
155
153
154
153
153
153
153
154
155
154
154
155
153
153
153
153
152
152
155
151
151
150
152
155
155
158
158
157
157
158
159
159
161
162
161
162
161
163
161
162
162
163
163
162
162
162
162
162
162
161
162
162
162
161
158
158
157
157
155
153
156
155
153
153
152
154
152
150
150
150
150
152
156
157
157
157
157
157
157
156
156
156
156
153
155
155
154
155
154
153
154
155
154
153
153
152
152
151
152
154
155
155
154
154
153
155
155
152
152
152
154
154
152
150
150
154
156
156
158
157
160
159
162
165
167
165
166
168
166
167
165
164
165
166
165
166
168
168
165
164
164
163
162
162
164
166
165
163
162
162
161
157
156
159
157
154
154
155
154
150
149
148
148
150
150
155
156
157
159
157
156
157
156
157
155
155
155
153
154
155
155
153
154
154
153
153
151
152
152
152
153
155
154
153
154
154
153
155
152
151
151
151
151
153
153
155
155
155
156
157
158
161
164
165
167
169
170
170
171
172
170
170
169
171
171
169
169
169
169
168
168
167
167
166
164
164
166
167
168
167
166
164
165
163
159
159
161
158
156
154
153
153
151
150
149
149
150
152
153
155
156
156
156
154
155
158
154
155
154
153
153
154
156
154
154
155
152
152
153
153
152
153
153
153
151
150
151
154
154
153
152
151
152
151
153
153
156
156
154
156
157
160
162
167
169
172
172
173
174
175
175
175
173
173
174
175
174
173
172
173
173
170
170
171
169
169
168
167
168
170
168
171
170
168
169
165
164
163
162
161
160
157
155
154
155
155
150
149
149
151
150
151
153
155
154
153
155
156
154
154
154
152
152
154
155
154
154
154
152
152
153
152
152
151
152
151
148
147
152
152
154
153
151
152
151
152
155
155
157
158
158
160
161
164
167
171
172
172
173
175
175
176
178
178
176
175
176
176
178
175
176
176
178
176
172
173
173
173
171
170
173
173
173
173
174
171
170
168
167
166
166
165
162
160
157
155
154
156
152
151
149
149
147
149
150
150
152
152
153
154
154
154
155
152
151
152
154
154
155
154
151
153
152
152
152
150
150
147
147
149
152
151
152
152
152
153
154
153
156
157
158
161
163
164
169
173
174
173
175
174
176
178
178
177
178
179
178
178
177
178
181
179
181
180
180
179
178
177
177
174
173
176
179
178
176
176
176
174
174
172
168
169
168
167
163
162
161
158
155
153
156
154
150
150
147
147
151
148
149
149
153
154
152
152
154
153
151
151
153
153
155
154
151
153
153
152
151
149
148
148
148
148
152
153
153
152
155
157
158
158
160
163
163
166
168
172
176
177
179
179
180
179
181
182
182
180
179
182
179
179
179
183
183
184
182
182
179
182
179
179
179
178
177
180
182
181
179
179
177
176
177
175
174
173
172
168
166
166
162
162
160
155
156
156
153
151
151
149
149
151
147
148
147
151
153
151
153
152
151
150
153
153
154
154
153
152
153
152
150
149
147
150
150
150
153
155
153
153
156
157
162
163
164
168
169
171
175
178
179
180
180
182
183
182
182
183
183
181
180
181
183
182
183
184
186
186
184
185
185
184
185
183
183
184
182
183
183
183
184
181
180
178
180
178
178
176
174
172
171
169
167
164
164
160
159
157
155
153
152
151
149
150
150
149
146
148
152
151
152
152
150
150
153
153
154
154
154
152
152
150
149
148
147
149
150
153
153
152
153
155
159
162
164
166
169
170
172
177
179
180
182
184
183
184
183
185
183
185
184
181
181
183
184
184
185
186
188
189
189
190
190
189
189
188
189
189
188
187
188
185
188
185
183
181
183
183
183
178
177
176
174
173
172
169
167
164
163
160
158
156
153
153
150
150
150
150
147
146
149
150
151
153
151
150
152
153
153
153
153
151
151
150
148
148
147
145
148
151
149
151
155
158
162
165
168
169
170
174
179
179
182
183
185
187
187
188
186
185
185
186
187
184
186
187
189
190
189
190
192
193
192
192
191
191
194
193
193
193
193
192
191
190
190
192
190
186
185
185
184
181
180
178
178
177
174
174
170
167
163
161
160
157
154
153
153
149
148
149
148
147
148
148
150
150
151
150
151
152
152
153
151
150
150
149
148
147
145
147
147
149
149
152
156
160
167
168
170
172
176
183
184
183
185
185
187
188
190
188
188
188
189
189
190
190
191
192
193
193
193
194
195
194
195
195
195
194
195
198
197
197
197
196
193
193
193
194
193
191
189
187
185
181
182
179
180
178
178
177
173
169
167
163
160
160
157
153
154
151
146
146
144
144
145
147
146
148
150
150
150
151
151
153
150
150
148
148
149
146
146
148
147
148
151
156
158
162
167
168
172
175
180
184
185
187
186
186
187
189
192
192
192
191
192
193
195
195
195
197
197
197
197
197
198
196
199
199
201
199
198
200
200
199
198
197
196
194
194
195
193
193
191
190
188
184
182
181
182
180
180
179
175
173
169
166
164
160
159
156
154
153
148
144
145
142
144
145
144
146
148
149
150
149
151
151
150
150
148
148
149
146
147
146
149
150
153
157
158
161
166
171
175
178
182
185
187
187
187
190
191
193
194
196
195
195
196
197
197
199
198
198
198
201
201
202
202
203
202
202
204
203
203
204
203
203
201
201
201
197
196
198
196
195
193
193
190
186
186
183
183
181
181
181
179
175
173
168
166
162
160
156
155
152
151
147
145
142
143
145
143
144
147
147
149
148
151
151
151
149
148
148
148
146
146
147
149
153
156
156
159
164
167
171
178
181
185
189
189
188
190
193
193
197
198
197
198
199
202
202
202
203
203
202
203
205
207
205
206
206
205
204
206
206
205
205
205
207
205
204
204
202
201
200
202
199
198
198
195
191
189
188
185
184
184
182
182
178
175
174
168
165
163
158
153
152
150
151
147
143
143
143
143
142
146
146
146
146
148
150
151
148
148
147
145
147
145
145
150
155
156
158
164
168
170
175
183
185
189
190
190
191
195
196
198
200
202
200
203
203
207
206
206
207
207
207
208
209
210
209
209
210
209
208
209
208
208
206
206
208
207
206
207
207
207
205
205
203
201
202
198
195
193
193
189
190
187
184
184
180
176
176
174
168
165
162
156
152
153
150
149
145
141
142
141
141
142
144
145
148
146
149
151
148
146
146
145
146
143
146
152
154
156
162
166
169
174
180
186
189
190
192
192
197
198
201
203
205
205
205
207
207
210
211
211
211
211
212
213
214
212
212
213
213
213
211
213
211
211
210
210
209
209
210
210
211
210
208
206
206
204
204
203
200
197
195
193
191
189
187
186
185
183
179
177
172
167
164
158
154
150
152
149
146
141
140
143
140
139
142
144
146
148
148
149
146
144
143
145
145
145
149
152
156
155
164
167
173
179
184
188
191
191
194
198
201
202
205
207
208
210
210
211
213
215
215
214
216
216
217
218
218
217
216
216
216
215
215
215
214
214
214
212
211
211
214
213
213
210
209
209
208
207
207
205
202
200
198
197
195
193
190
188
188
187
185
181
177
170
167
161
157
152
151
150
150
143
138
143
141
139
139
143
146
149
147
145
143
145
142
145
145
148
151
154
155
157
166
171
177
184
187
189
193
194
196
201
205
207
208
210
211
213
214
216
218
219
219
219
220
220
220
220
222
221
220
219
218
219
218
217
215
217
217
216
214
216
216
216
215
213
211
212
211
209
208
205
203
202
202
201
198
196
193
192
189
188
188
185
180
174
169
165
159
154
152
150
151
148
140
139
143
143
140
141
145
149
147
145
142
143
142
142
147
150
152
152
155
163
169
174
179
185
188
191
195
197
200
205
207
209
210
213
214
215
217
219
221
222
224
224
224
223
225
225
226
225
223
222
222
221
222
219
219
220
219
219
219
218
219
218
218
216
216
215
214
212
210
207
206
205
204
203
199
198
197
195
193
189
187
185
183
178
172
166
162
158
153
150
151
150
142
138
140
143
141
142
146
144
145
145
141
139
141
140
146
148
151
154
160
165
171
176
179
184
189
194
198
201
204
208
209
212
214
216
217
218
220
222
223
225
226
226
227
226
227
227
226
227
225
226
225
226
226
224
223
224
223
223
222
221
222
221
220
219
219
218
216
215
212
211
209
207
206
205
202
198
199
199
196
191
190
186
184
181
175
169
163
160
156
151
150
152
144
139
137
140
139
141
145
143
145
144
140
138
138
140
143
149
153
157
161
166
173
177
180
187
191
196
201
204
208
211
211
215
217
219
219
222
223
225
225
226
226
227
229
230
230
230
229
230
229
229
229
229
228
227
227
227
228
228
225
225
224
223
222
222
221
219
218
218
217
216
213
212
210
206
205
202
201
200
199
192
193
190
185
183
177
170
166
161
158
154
151
150
147
141
138
139
136
142
142
143
145
143
139
138
138
139
146
150
153
157
161
169
175
177
182
190
196
201
205
208
211
213
215
217
219
220
222
225
225
228
228
229
229
231
231
234
233
233
231
233
233
234
233
232
232
233
231
231
232
231
230
229
227
226
225
225
224
224
222
222
221
221
218
217
214
210
207
204
204
200
199
195
193
192
188
184
180
173
168
165
160
158
152
148
146
142
139
139
137
138
141
142
143
142
138
136
137
139
146
148
153
158
166
172
178
180
186
193
200
205
209
210
214
215
217
219
220
223
224
227
230
230
231
232
233
235
234
236
237
237
237
236
237
237
238
237
237
237
235
235
234
232
232
232
230
229
228
227
228
227
227
226
225
225
223
221
218
214
212
207
206
203
198
197
194
192
189
187
184
177
172
167
163
160
153
151
144
143
139
139
139
138
139
140
143
140
136
135
135
139
146
149
155
163
170
176
180
184
188
196
204
209
211
212
215
218
220
222
225
226
227
229
233
234
236
237
237
239
239
239
240
241
240
239
240
241
241
241
241
240
238
239
238
237
234
234
233
231
231
231
230
230
231
229
229
229
227
224
221
218
216
211
208
207
200
198
195
193
189
188
185
180
174
170
166
162
154
153
146
141
141
138
138
139
137
138
143
136
134
132
135
140
147
152
157
165
172
181
183
185
189
199
206
211
212
215
219
222
223
225
227
230
232
233
235
239
239
240
241
242
243
242
242
243
243
243
244
245
244
244
244
243
242
241
241
239
238
237
237
235
233
234
232
233
232
232
230
231
230
227
225
223
220
216
212
210
205
201
198
194
192
187
185
183
176
172
167
165
157
152
148
143
140
140
138
137
137
137
141
133
131
131
135
139
148
153
159
167
173
181
183
185
192
204
210
213
215
219
221
224
225
228
230
234
237
236
239
241
242
242
244
244
245
245
246
246
246
247
247
247
246
246
246
245
245
243
243
242
241
240
240
238
237
236
235
235
235
234
232
232
231
230
228
226
224
220
217
214
209
205
200
197
193
189
185
184
178
174
168
164
160
154
149
145
140
140
139
136
136
136
139
133
130
133
134
140
151
154
161
167
173
180
183
187
196
207
212
217
219
222
223
225
226
230
231
235
238
239
241
241
243
245
245
247
246
248
249
249
248
249
249
249
248
247
248
247
247
246
245
245
244
242
241
240
240
238
236
236
236
235
234
233
233
232
230
229
226
223
219
217
212
207
204
199
195
192
187
185
182
176
171
167
160
158
150
145
141
139
138
137
136
138
136
132
132
132
135
139
148
157
163
168
174
180
183
190
202
210
215
219
221
224
226
227
229
232
234
236
238
240
241
242
244
246
247
249
249
250
250
250
249
251
251
251
250
249
249
250
250
249
247
247
246
244
243
242
242
239
237
236
236
236
234
234
234
233
232
229
227
225
221
219
214
208
207
202
198
193
188
184
183
177
171
169
162
159
151
146
141
138
135
136
135
138
137
131
132
129
134
140
148
160
163
169
175
181
185
194
204
212
217
220
225
228
229
229
232
234
235
236
238
240
242
243
245
247
249
249
250
251
252
251
251
253
254
253
252
251
251
251
252
250
249
249
248
246
243
242
242
240
238
237
237
236
235
235
234
233
232
230
228
226
225
222
218
211
207
204
200
196
191
184
183
180
171
169
165
158
152
146
142
140
134
134
134
137
137
130
131
129
133
141
151
158
165
171
176
181
188
198
206
213
218
223
227
228
230
231
233
235
234
235
238
239
240
243
244
246
247
247
249
251
250
251
251
254
255
253
252
253
251
252
253
251
250
249
249
246
244
241
241
240
240
240
238
237
236
236
235
233
232
231
229
227
225
223
221
216
209
204
200
196
192
186
183
179
172
165
167
159
150
145
141
140
136
132
132
136
136
131
128
129
131
145
151
157
165
171
175
181
190
200
206
214
220
224
227
229
230
232
234
235
234
234
235
235
237
239
240
241
241
243
245
247
248
248
250
251
253
253
251
251
252
252
251
250
250
249
248
246
244
243
243
241
241
240
239
237
236
236
234
233
231
230
228
227
224
223
221
218
213
206
202
196
192
188
182
179
173
165
165
161
149
144
142
142
140
134
132
134
136
129
127
130
134
144
152
157
164
170
173
181
191
202
206
215
218
223
226
227
229
231
233
234
234
233
233
233
233
234
234
235
235
237
239
242
244
245
247
247
249
251
250
249
249
251
249
248
248
249
248
246
245
244
243
240
239
239
238
236
233
234
232
231
229
228
226
224
223
221
219
216
214
209
204
197
191
188
183
179
173
166
164
160
149
146
141
142
139
138
131
134
136
129
129
131
135
142
151
156
164
170
175
182
194
202
207
216
219
224
227
227
228
229
230
231
230
230
230
232
231
232
233
232
232
234
234
236
240
239
241
244
244
246
248
249
249
249
250
249
248
248
248
247
244
243
240
238
237
235
236
234
230
228
227
226
225
225
222
221
220
218
216
214
211
207
202
200
192
188
183
178
171
163
160
160
148
145
142
140
141
136
133
134
137
131
132
132
136
142
149
154
164
171
175
182
195
200
207
214
219
223
224
224
224
226
227
228
228
229
228
229
229
232
232
232
230
230
230
231
234
233
236
237
239
241
244
245
246
247
248
248
246
246
245
245
243
241
239
238
236
233
232
231
228
225
222
223
221
220
219
219
218
216
213
211
209
204
200
199
193
188
181
178
170
164
157
155
150
144
143
138
141
137
138
133
138
133
134
134
137
141
148
155
165
170
175
182
193
198
205
211
217
221
223
223
227
226
227
228
229
229
229
230
230
232
232
231
230
231
231
229
230
232
234
235
238
239
243
242
243
247
246
247
245
246
244
243
241
239
238
237
234
231
229
228
227
225
224
222
221
217
217
217
217
214
213
210
208
206
200
198
197
190
186
178
170
164
158
154
151
144
142
136
139
138
139
136
136
136
136
134
137
142
146
156
164
171
176
182
192
197
202
210
216
221
221
223
226
227
228
230
229
232
234
234
232
233
233
233
231
232
231
231
232
234
237
238
239
240
242
243
245
246
247
247
246
245
243
242
240
238
238
239
235
231
231
230
228
227
226
224
222
221
219
218
217
215
215
211
210
211
205
201
200
194
189
181
172
165
159
153
150
143
141
137
138
139
137
139
136
135
135
133
136
140
146
154
164
171
176
181
190
198
202
209
216
219
218
222
224
227
227
229
230
231
232
233
232
234
233
232
234
234
234
234
232
234
236
237
239
241
241
244
246
247
247
246
246
245
242
241
240
240
238
237
236
234
233
232
231
227
227
228
225
225
224
222
219
217
214
214
213
213
211
205
201
197
192
184
175
168
163
154
150
143
141
139
139
138
136
140
137
136
136
135
138
141
145
155
163
171
176
181
192
199
203
209
216
217
220
222
226
226
227
226
229
228
228
230
232
231
232
233
233
234
234
236
234
232
235
237
239
239
241
242
244
246
245
245
246
244
241
240
238
236
235
234
233
231
229
231
230
229
227
231
226
225
225
224
222
218
217
215
213
211
210
205
201
197
191
184
178
169
165
156
150
146
140
139
140
137
137
140
139
138
138
138
141
142
148
156
164
172
173
182
193
201
202
210
218
218
219
221
226
226
225
224
225
225
226
230
233
230
230
234
232
233
232
234
234
230
233
235
238
240
239
242
243
245
245
246
246
244
242
240
239
239
235
231
230
232
230
231
230
227
227
229
226
222
222
223
222
218
216
214
210
208
206
200
198
196
189
184
175
166
164
156
151
149
143
139
138
137
136
140
144
138
143
143
146
145
152
155
163
170
178
185
193
200
201
213
218
217
217
222
222
225
227
227
227
225
226
229
230
229
229
231
228
229
228
229
230
226
226
228
230
234
237
238
240
244
245
247
244
243
241
239
239
237
231
229
227
230
227
224
227
224
228
226
223
218
216
218
219
213
208
209
205
204
203
198
193
192
185
183
178
166
160
151
150
150
143
140
138
137
136
141
145
142
142
147
149
149
154
154
161
169
179
186
194
196
201
210
212
212
215
219
222
225
224
223
218
216
219
223
223
224
220
219
219
219
220
221
222
222
221
223
223
227
230
236
233
236
238
239
238
237
236
233
234
233
228
224
223
222
220
219
220
218
221
222
218
215
213
213
213
209
208
208
204
202
204
195
188
189
185
182
181
171
160
151
148
152
143
138
136
136
139
144
146
143
144
147
151
155
158
157
160
168
180
188
196
195
199
206
210
213
216
219
224
226
222
220
213
215
214
214
213
212
210
209
211
209
218
214
215
215
215
217
221
223
224
229
226
227
232
235
234
233
233
232
230
229
225
221
218
216
216
213
214
217
219
215
211
207
205
202
204
207
211
209
202
201
204
194
186
186
184
182
181
176
161
156
148
144
145
138
135
137
141
145
145
144
149
148
150
158
159
158
161
170
178
187
194
197
202
206
216
214
217
218
221
220
216
211
210
214
212
211
210
210
205
209
208
208
211
212
212
214
216
220
222
225
224
226
224
225
230
233
232
231
232
230
227
226
219
216
214
211
211
210
207
208
213
207
207
199
198
198
197
198
204
208
204
201
207
202
191
194
184
184
180
177
163
155
151
144
142
140
135
138
145
146
144
149
153
152
150
160
158
158
159
172
182
184
193
198
200
207
212
213
215
220
216
216
212
212
212
214
214
212
211
209
203
205
207
207
211
213
215
218
219
225
224
228
233
230
228
229
229
231
231
232
230
226
225
221
215
214
213
211
208
206
206
207
207
202
207
200
199
206
201
204
203
206
202
201
202
204
196
196
192
186
181
171
163
157
152
150
144
140
137
140
148
147
146
151
157
157
153
160
158
159
157
171
182
185
199
198
199
209
211
215
219
217
216
217
215
212
211
213
211
209
211
211
204
205
209
208
208
213
214
220
224
227
228
227
232
229
228
231
232
232
231
231
231
226
224
219
215
213
209
209
208
207
209
205
201
199
201
202
202
205
205
209
211
206
203
202
200
201
199
198
193
187
179
167
161
160
153
150
145
141
142
145
152
149
146
150
158
162
159
163
159
157
157
175
183
190
202
199
199
209
214
218
215
213
214
215
212
209
212
207
204
203
212
209
207
205
209
207
207
209
212
217
222
224
229
229
226
229
227
231
231
229
226
229
230
231
222
219
217
212
210
209
208
208
208
205
203
201
201
203
201
202
206
208
206
203
203
203
204
201
199
198
193
185
181
171
159
161
155
148
144
145
145
153
154
153
147
150
155
162
164
164
156
159
165
176
185
193
200
193
200
213
217
217
214
214
215
217
213
210
211
206
202
206
206
209
207
208
211
208
208
210
213
217
220
222
225
227
219
222
227
228
230
229
226
228
231
230
224
218
219
211
209
210
205
206
208
207
205
201
201
203
203
204
209
211
208
207
207
208
208
203
200
196
191
184
184
175
163
165
158
149
147
148
152
154
157
153
146
154
154
163
167
167
157
161
165
177
184
194
197
192
203
210
217
216
213
217
219
219
214
213
207
206
204
208
207
207
210
209
209
210
208
210
213
215
221
224
227
226
218
222
231
228
225
228
226
226
226
228
222
218
214
212
206
206
204
207
206
205
207
206
200
200
204
206
207
207
207
206
206
208
209
203
203
197
192
186
182
176
170
167
165
150
149
153
155
156
161
155
148
157
156
167
171
171
165
167
166
176
185
195
198
196
206
209
216
215
212
214
218
217
217
215
208
208
206
208
209
207
209
210
206
212
205
209
214
217
217
222
224
223
219
222
233
231
229
229
225
226
224
224
218
218
213
212
207
205
204
205
202
198
199
199
198
199
203
204
206
201
202
200
202
206
205
200
202
197
191
187
180
176
169
169
165
153
150
155
156
156
160
155
148
161
161
169
178
177
174
174
169
176
186
194
197
197
211
212
216
215
212
216
216
216
217
221
212
209
207
205
207
206
211
211
212
210
206
210
215
217
217
218
218
219
220
225
231
230
228
227
221
221
220
220
218
213
213
211
208
207
204
204
203
199
198
195
195
199
200
202
198
196
197
196
198
202
203
199
198
195
191
187
181
175
170
170
164
157
156
157
160
160
159
155
152
165
165
169
179
180
177
178
174
178
188
193
196
198
211
213
211
214
211
215
214
215
214
220
217
213
210
209
209
212
212
212
213
212
212
211
212
215
217
219
213
216
218
224
228
232
230
226
221
222
220
217
217
211
212
207
208
207
200
202
201
198
199
192
193
196
199
198
195
196
195
198
196
200
201
201
200
196
193
189
187
172
169
175
171
166
165
163
162
161
158
157
154
166
167
169
179
178
178
182
179
181
192
191
197
199
208
209
213
216
213
217
219
218
215
219
218
216
212
212
212
215
213
214
213
215
216
213
214
216
218
219
217
219
223
228
228
231
230
224
220
223
221
215
214
212
211
207
206
208
202
201
200
197
201
198
200
200
205
203
201
203
200
200
198
200
200
200
201
199
192
189
187
172
174
176
179
169
167
168
163
160
155
158
158
165
170
172
182
177
181
181
184
186
193
193
195
201
206
211
218
218
216
218
222
222
219
221
222
220
216
213
213
215
212
213
212
218
218
217
217
220
217
216
219
222
227
232
232
233
230
224
223
222
222
217
216
214
209
211
206
206
206
207
204
199
201
200
202
201
206
206
206
206
205
204
204
204
203
202
200
201
197
196
189
176
180
177
183
173
164
171
165
163
155
160
159
167
173
174
185
182
181
182
187
192
194
193
195
202
208
214
222
220
218
219
223
223
222
222
222
220
218
216
217
218
217
212
218
218
217
217
217
219
217
214
219
219
230
232
234
234
231
227
227
225
221
218
218
214
214
211
208
205
204
207
205
203
202
203
203
205
208
210
209
210
211
210
210
208
209
206
202
202
199
202
191
183
184
181
180
174
169
173
168
166
158
160
157
168
175
174
187
190
184
185
191
195
196
192
196
205
214
214
221
223
222
224
227
227
226
226
226
223
223
220
220
220
219
217
221
222
218
219
216
219
216
216
218
224
229
233
236
233
234
228
229
226
224
219
220
215
215
215
211
209
206
208
211
208
206
208
208
210
210
212
214
214
214
214
216
214
212
209
204
202
199
201
193
191
188
186
181
180
176
172
171
170
159
158
155
166
176
178
185
195
192
191
200
197
200
194
197
209
217
220
224
220
226
228
229
229
228
229
229
229
227
225
223
222
223
222
222
222
219
216
219
220
216
217
221
226
228
235
236
233
234
230
229
230
227
223
218
215
215
220
215
214
212
210
214
216
214
213
211
213
214
216
216
217
218
216
218
217
215
210
206
201
198
201
197
193
192
188
187
188
182
171
175
175
158
157
155
169
175
181
184
192
196
193
198
200
201
201
202
212
218
222
228
224
227
229
228
229
227
228
229
229
229
225
224
225
225
225
225
222
220
218
218
220
216
220
225
227
231
235
235
236
234
231
227
227
227
222
219
217
216
215
217
217
215
216
215
217
217
217
217
216
218
219
220
218
220
219
219
213
215
212
209
206
204
205
199
195
194
190
193
191
182
170
178
176
159
157
154
170
176
181
185
186
193
196
195
204
204
202
205
214
216
224
228
228
226
231
230
230
228
228
227
226
226
227
226
227
226
225
226
225
223
225
224
223
225
227
230
231
235
234
235
238
235
233
230
227
225
222
220
222
223
218
218
217
218
218
220
218
220
219
217
219
220
220
222
220
221
220
219
218
218
218
217
211
210
209
201
199
196
194
199
193
179
172
179
173
160
156
156
166
176
183
186
185
195
201
200
207
210
201
204
217
221
225
226
230
225
229
231
232
233
232
231
232
232
232
229
229
229
230
230
230
226
223
228
228
229
232
234
233
235
235
234
236
237
233
231
230
226
224
223
224
226
224
224
222
222
224
225
223
223
222
223
223
225
225
224
223
222
224
223
224
221
221
219
215
216
210
204
201
201
196
197
191
180
179
179
168
161
157
155
160
175
182
187
189
200
204
206
208
210
205
204
217
226
229
231
233
231
232
233
235
236
235
234
234
233
233
233
231
234
237
234
230
227
223
229
231
231
235
237
234
232
234
234
236
236
235
232
231
226
222
226
225
229
229
226
229
226
227
229
227
226
228
226
227
228
231
228
227
227
227
228
226
222
221
219
217
215
212
204
202
207
198
197
190
183
178
175
165
162
156
156
158
173
180
188
194
202
205
211
209
211
208
207
216
225
229
232
233
234
235
237
238
238
237
234
234
234
231
233
234
236
238
236
228
228
228
231
232
236
238
237
235
233
233
235
238
236
235
233
228
227
225
228
230
229
231
229
232
232
228
229
229
226
226
226
227
229
231
230
229
228
227
228
226
222
221
220
218
219
212
208
197
203
203
199
192
185
178
173
163
160
156
154
156
170
178
186
195
202
202
211
212
215
213
211
218
227
229
229
234
234
236
240
241
240
240
238
237
236
235
237
237
239
238
235
235
232
229
232
235
239
239
239
237
234
233
233
236
237
236
234
230
225
226
228
231
230
229
234
235
236
232
230
231
227
227
227
226
226
229
229
229
228
225
226
227
224
224
219
222
220
214
210
195
200
207
201
192
184
174
174
159
158
153
150
156
168
176
183
191
203
202
212
215
218
215
212
219
229
231
232
232
233
235
236
237
239
242
241
241
239
238
238
240
239
237
238
236
232
233
236
237
240
239
239
237
232
231
232
233
237
235
232
228
226
226
227
228
230
230
231
235
234
233
230
229
228
231
229
228
228
226
227
228
227
226
227
227
226
224
223
224
221
218
208
198
204
208
200
193
180
176
172
158
157
151
147
155
165
176
183
189
201
206
214
216
217
215
215
219
229
231
233
234
235
236
236
234
234
237
238
239
239
239
238
237
236
235
234
233
233
234
237
238
237
235
233
231
228
229
231
231
233
233
231
227
227
226
226
225
223
227
231
233
236
232
230
230
227
232
230
229
228
227
227
228
228
228
227
226
227
225
223
220
220
218
209
200
205
203
200
191
181
178
170
158
156
149
146
158
159
177
185
190
197
204
215
215
216
216
218
219
227
229
231
234
235
235
237
236
237
239
238
237
237
236
236
236
236
235
234
236
237
237
237
236
233
228
228
228
227
230
232
230
230
227
226
222
222
224
221
221
220
221
227
231
231
230
228
225
225
232
232
229
227
226
227
228
229
228
227
226
229
226
219
219
219
217
209
202
202
202
199
190
182
179
170
158
156
145
142
160
157
172
184
193
195
199
211
212
217
217
222
220
224
230
229
230
232
233
236
236
237
238
240
239
238
238
239
240
239
238
236
238
237
237
236
234
229
228
226
227
230
230
230
229
228
225
220
219
220
220
218
222
222
220
225
226
231
229
226
225
226
229
231
229
228
227
228
229
229
229
227
227
226
223
220
220
219
218
207
204
204
202
198
190
185
178
164
158
154
141
141
155
159
168
179
189
198
193
208
210
215
219
221
220
222
228
227
229
232
233
235
237
237
238
240
240
238
239
241
240
239
237
236
235
235
235
236
232
229
228
226
225
229
230
227
223
223
223
217
217
217
217
218
220
222
220
223
226
230
231
228
226
226
227
227
228
228
227
229
227
228
227
225
225
224
223
222
223
219
214
205
207
206
202
197
194
188
177
162
159
148
139
142
150
159
166
176
184
195
195
204
206
212
216
220
217
220
224
226
228
230
232
233
236
236
235
237
239
239
238
237
237
238
235
235
233
234
232
233
230
228
227
224
223
224
230
226
221
219
219
217
217
215
216
217
216
215
215
219
224
226
229
230
227
225
225
225
225
224
222
223
220
222
222
223
223
221
219
220
221
216
213
205
209
205
202
198
194
186
175
161
159
144
139
142
149
154
164
174
181
189
197
202
205
209
212
218
215
220
221
224
225
228
230
231
235
235
235
240
239
238
238
235
236
236
233
233
232
230
230
229
228
227
227
224
220
224
228
225
221
215
215
216
215
212
215
216
214
215
216
221
223
226
227
229
228
226
224
223
223
223
222
222
220
220
221
222
221
220
219
219
219
215
212
205
209
203
200
198
192
183
174
156
154
141
139
142
147
153
159
171
179
182
192
200
203
207
210
217
212
216
218
222
223
225
227
229
232
233
235
238
236
235
236
236
236
233
232
231
230
227
227
225
226
224
223
220
217
219
222
219
217
215
211
211
212
210
210
213
214
214
215
218
220
224
226
229
226
225
223
220
220
220
218
220
219
220
221
221
220
218
216
217
217
214
210
206
206
201
199
196
187
181
169
154
148
139
140
141
147
150
155
164
176
180
184
196
200
204
207
215
209
213
215
218
220
222
226
228
229
230
233
233
232
233
234
235
234
233
231
230
228
224
221
221
220
221
218
216
216
213
216
214
217
215
212
210
209
210
209
210
213
214
214
216
218
223
224
224
223
221
218
218
220
220
219
219
219
219
218
219
218
218
215
216
217
214
208
203
201
196
196
191
184
178
164
151
146
139
140
139
145
145
152
158
170
177
178
190
196
201
203
211
206
209
213
215
218
222
225
227
228
228
230
231
231
231
231
232
231
232
230
230
226
224
218
215
215
215
213
211
212
211
212
212
213
215
210
209
208
210
211
212
216
217
220
217
221
223
222
220
219
218
218
217
219
218
219
218
218
217
218
217
217
217
214
214
215
211
206
202
197
193
193
187
181
173
159
151
144
140
139
137
144
145
148
156
165
175
174
185
191
195
198
205
206
204
209
213
217
221
224
225
226
225
228
229
227
227
229
228
229
229
228
228
224
221
217
213
211
210
210
212
214
213
212
211
211
213
211
209
209
209
211
212
214
218
220
220
224
223
224
221
219
218
217
216
216
218
217
217
217
216
217
217
217
215
212
214
211
209
204
201
193
191
191
181
176
165
155
150
142
140
139
137
143
146
145
151
159
173
173
182
186
189
192
203
206
200
206
210
217
219
222
223
224
224
226
226
225
225
226
227
228
226
225
224
219
218
216
214
213
212
213
212
215
215
213
212
210
211
213
209
206
208
210
210
212
215
218
219
222
222
222
221
218
217
215
214
213
217
216
215
216
215
216
215
215
213
211
212
209
207
201
197
192
190
187
177
169
159
155
147
143
140
138
137
142
144
145
148
152
166
172
180
182
186
187
202
205
201
206
209
215
218
221
219
221
222
224
225
224
224
226
225
226
224
221
218
216
216
216
217
218
217
218
214
213
212
208
207
206
207
208
208
207
207
209
210
211
215
214
216
218
218
217
218
215
215
212
212
210
213
216
214
216
215
215
213
214
211
210
210
208
204
199
191
189
187
182
173
162
158
155
145
142
140
138
138
142
141
144
149
149
158
168
176
178
185
184
198
206
202
206
207
215
217
219
217
219
220
223
223
223
223
224
222
223
219
217
214
214
216
217
218
221
221
219
214
212
208
205
204
206
207
206
206
205
207
208
208
210
211
212
213
213
214
212
212
212
210
209
209
209
209
213
213
213
215
212
213
212
210
209
208
205
200
196
187
185
182
179
167
159
157
152
144
142
140
138
137
140
142
143
148
150
153
164
171
173
181
183
191
203
201
203
209
212
215
216
217
218
219
222
223
223
222
220
219
219
216
214
211
213
215
215
216
218
219
217
212
208
206
205
202
206
205
206
203
205
206
208
207
206
207
206
207
208
208
208
207
207
205
203
205
205
206
209
211
210
212
212
209
210
208
207
207
201
198
193
185
182
179
174
162
158
154
147
144
140
139
139
134
139
141
141
146
149
150
160
167
166
172
181
186
196
200
202
208
211
214
215
215
216
218
220
221
219
217
216
216
216
213
212
210
213
212
210
212
212
212
211
209
206
204
204
202
206
205
204
202
204
205
207
206
202
203
203
203
204
204
203
204
204
202
200
200
201
203
207
208
209
210
211
209
207
205
205
205
198
196
189
181
178
175
167
159
155
149
146
143
139
139
139
134
140
140
141
143
146
149
156
161
162
165
175
180
189
198
199
206
210
211
214
213
213
218
219
218
216
213
211
214
213
210
209
208
210
209
206
207
204
204
207
206
203
202
203
204
207
206
205
202
204
203
203
203
199
201
201
202
204
203
200
198
195
197
196
196
197
200
203
205
207
209
210
208
206
203
203
202
194
191
184
174
173
169
159
156
151
147
144
139
138
139
139
134
139
141
140
141
143
145
152
155
160
160
171
175
181
193
198
203
208
210
211
212
211
213
217
215
215
214
210
211
209
208
207
208
206
208
209
207
204
204
204
204
201
203
203
205
207
208
205
203
203
203
202
202
201
203
202
205
204
205
205
201
195
197
199
197
195
198
201
203
207
208
208
205
203
202
199
196
191
187
177
169
166
161
154
152
149
146
143
138
138
139
138
133
141
141
141
141
143
144
147
153
160
159
167
175
178
187
194
201
204
206
209
211
210
211
214
213
214
212
211
210
208
208
207
208
205
208
209
205
203
205
202
202
202
202
204
207
207
208
202
200
201
201
201
200
202
203
201
205
206
206
206
207
203
204
204
203
197
199
202
203
204
207
206
203
200
199
196
192
188
183
171
162
163
157
151
149
147
145
140
138
138
139
138
134
141
141
141
141
143
143
146
150
157
160
164
174
175
183
189
196
200
201
207
209
208
210
213
213
213
211
208
207
206
205
207
205
203
204
205
204
200
203
205
203
202
199
201
203
201
202
195
194
196
195
194
192
197
200
201
205
206
203
206
207
206
203
205
204
202
202
202
202
202
204
202
200
198
195
192
188
185
178
166
161
159
152
148
147
147
142
139
138
139
139
136
134
139
140
141
142
142
143
144
150
156
159
160
172
175
179
183
190
195
197
204
206
206
208
209
210
212
211
210
208
205
205
203
203
201
202
206
207
203
202
203
203
201
198
199
199
197
197
193
190
191
192
193
192
197
200
202
205
205
202
205
207
205
205
203
204
204
202
202
200
200
199
200
198
198
193
189
184
180
173
162
158
157
149
147
145
145
141
137
138
138
139
136
134
139
139
142
142
142
143
142
150
153
156
159
169
177
177
178
184
192
193
199
202
204
204
205
206
209
208
209
208
208
207
202
200
202
206
204
205
203
201
199
199
198
194
194
191
189
189
189
185
188
192
194
194
197
198
199
200
202
203
204
204
206
206
205
206
205
203
203
201
200
197
199
198
196
191
187
183
176
168
160
156
154
147
145
143
144
139
135
137
140
137
135
134
139
138
140
142
140
142
144
151
152
153
158
164
175
174
177
180
189
190
196
200
202
202
202
203
206
205
205
206
206
206
202
199
202
207
205
202
201
198
196
193
194
191
190
184
184
185
185
183
185
188
188
192
195
197
198
202
204
205
204
206
208
206
207
208
205
204
202
201
200
196
196
196
194
190
185
182
174
166
157
155
151
146
144
143
143
138
135
136
140
137
135
134
137
139
138
141
140
141
148
149
150
152
157
161
169
174
175
178
185
191
195
199
201
199
200
201
205
202
202
208
208
209
205
202
206
209
207
204
202
199
196
195
194
193
192
189
189
190
188
186
184
187
186
189
194
196
197
201
203
203
205
205
207
207
209
208
203
205
201
199
197
193
194
194
191
190
184
180
171
163
156
153
147
145
144
142
141
136
135
136
138
139
134
134
138
139
138
140
140
144
149
147
149
150
155
160
164
169
171
178
183
190
194
200
202
200
201
202
204
206
205
208
210
209
207
204
209
210
208
205
203
201
194
194
194
191
192
192
190
190
189
187
187
187
186
187
190
192
193
196
197
199
200
203
207
208
207
206
203
203
201
197
193
194
193
191
190
188
182
177
168
161
155
151
146
145
142
142
139
136
136
137
138
139
134
134
138
140
139
139
141
147
145
145
147
145
151
158
161
164
169
178
182
189
193
198
201
201
202
205
207
206
208
208
209
206
205
206
209
210
208
206
206
204
200
200
198
194
196
195
192
192
188
190
189
191
190
192
194
195
196
198
199
201
202
205
207
205
206
204
203
201
202
197
193
193
195
193
190
187
180
173
167
157
152
149
146
144
141
140
137
137
136
137
138
140
134
133
136
140
137
138
143
146
143
143
142
144
146
155
156
160
166
172
182
184
191
195
199
202
201
205
208
205
209
209
208
207
205
209
210
211
209
207
207
205
203
203
202
199
198
198
196
196
195
196
195
195
195
195
197
199
198
199
201
202
203
204
204
203
204
203
201
201
199
196
195
193
193
192
190
184
175
173
164
154
151
148
144
143
141
138
136
137
138
136
138
140
133
133
135
138
136
139
143
144
142
141
140
142
144
154
153
157
163
170
178
183
190
193
199
200
200
203
207
207
207
208
209
209
208
209
211
210
210
209
208
207
205
204
204
202
200
201
199
199
199
199
199
197
196
196
197
198
198
199
201
202
202
202
203
204
205
204
202
200
197
195
195
193
192
190
189
179
171
169
163
151
149
146
144
141
141
136
137
137
137
136
138
139
133
133
134
137
138
141
142
142
140
141
142
142
145
152
153
155
162
170
174
181
189
191
197
199
201
200
203
205
205
205
205
207
207
207
211
209
209
210
208
208
205
202
204
203
203
202
201
201
201
199
198
196
196
195
198
199
199
200
203
203
203
204
205
204
206
203
202
199
195
193
195
192
190
188
185
174
169
164
157
150
149
144
142
140
140
136
136
138
137
136
138
139
132
133
134
137
141
143
142
141
139
141
143
141
146
149
151
157
162
170
171
180
186
189
192
197
199
199
201
204
204
204
203
204
204
204
208
208
208
208
207
206
205
203
203
204
203
203
204
203
203
201
200
198
198
198
200
203
201
202
205
203
204
204
206
206
203
202
200
197
193
192
193
188
189
186
181
170
167
159
154
149
146
142
139
139
138
139
136
136
136
135
137
139
134
133
135
140
142
142
141
140
139
140
142
142
145
149
154
157
162
171
170
177
183
187
189
194
197
197
199
201
204
205
203
205
204
203
207
209
208
208
206
206
206
205
205
205
203
202
204
202
202
200
200
200
200
201
201
204
204
204
206
206
204
205
205
204
201
201
198
195
194
193
190
186
187
184
177
169
169
157
152
146
144
140
136
135
136
141
137
135
135
134
137
139
135
132
138
140
142
143
141
138
139
140
140
144
146
154
154
155
162
172
169
175
180
184
187
189
193
196
197
198
201
203
204
206
206
205
205
209
209
209
208
209
208
207
208
208
206
206
204
202
201
202
200
202
200
202
203
203
205
205
205
206
205
206
204
202
200
198
197
194
193
192
187
185
184
180
173
170
166
158
154
145
141
140
133
133
136
137
139
136
134
133
137
139
134
134
137
140
142
142
141
138
138
140
142
146
151
156
153
157
165
170
166
174
179
181
185
189
192
194
196
198
199
201
203
203
205
206
206
207
209
209
210
210
209
210
210
209
208
208
207
205
203
204
203
204
203
204
205
204
205
204
204
204
204
205
203
201
198
195
195
193
192
189
185
182
181
177
171
169
163
158
157
145
140
137
132
131
135
137
138
138
134
133
137
137
134
134
137
141
141
143
140
138
139
142
149
147
150
156
154
159
165
166
165
172
178
180
186
188
188
191
193
195
199
200
202
202
204
204
206
208
208
210
211
211
212
212
213
211
211
210
209
208
208
207
205
206
204
207
206
205
206
204
203
203
202
200
202
199
197
193
194
190
190
187
182
179
178
176
171
167
163
158
152
147
142
137
132
132
135
135
136
138
136
132
136
136
133
133
139
140
142
143
140
139
141
146
150
147
151
158
156
159
164
165
162
171
177
181
187
186
185
187
190
193
196
199
201
200
204
203
205
208
209
210
213
215
212
213
213
211
211
211
209
209
208
208
207
207
205
206
204
204
204
202
201
201
200
198
198
197
195
193
191
188
188
184
178
177
178
174
171
164
161
157
149
145
144
135
134
134
136
136
135
136
136
133
136
134
132
133
140
141
144
142
140
141
145
150
150
148
156
158
158
160
163
165
162
168
179
182
185
184
184
184
187
189
193
196
199
200
202
202
205
208
209
210
214
216
213
213
213
212
211
211
209
209
209
209
208
207
206
205
204
203
202
201
200
199
197
195
196
194
192
192
189
186
185
179
176
175
178
176
168
163
162
152
147
144
141
136
134
134
138
135
136
139
137
135
140
134
132
135
140
141
143
142
139
146
149
153
151
151
158
162
157
161
164
163
164
169
178
181
184
185
183
183
187
186
189
193
196
198
199
201
202
206
207
208
212
213
212
212
214
212
212
212
211
210
208
207
206
206
204
203
203
201
201
199
197
197
194
193
194
191
189
190
187
182
181
178
173
175
178
175
168
160
161
153
144
145
138
138
134
135
138
136
137
140
136
136
141
135
131
134
140
140
142
141
144
152
152
154
147
153
159
164
161
160
164
163
164
170
179
179
181
184
182
182
185
185
185
187
192
195
198
198
200
201
204
205
208
210
210
209
212
210
209
210
209
208
205
204
203
204
201
200
199
199
198
195
195
192
192
190
190
189
185
185
184
181
178
176
173
175
180
173
168
160
162
158
145
140
137
140
136
135
140
137
136
138
136
138
140
136
133
134
140
141
145
144
147
154
154
152
147
155
161
165
167
161
163
165
164
173
182
174
178
184
182
181
183
184
184
182
186
189
194
195
196
197
199
201
203
206
205
206
207
207
205
206
205
202
201
200
200
199
197
197
196
194
193
190
194
189
187
186
186
183
182
182
181
177
175
174
175
177
177
171
166
158
162
161
145
139
137
139
139
134
139
138
135
136
136
139
140
136
134
135
142
144
146
143
149
154
154
151
148
156
161
169
166
162
161
167
167
174
180
171
177
181
183
180
184
183
182
181
181
182
187
189
192
193
193
194
199
201
200
200
199
202
201
201
199
197
197
195
194
194
192
192
192
190
189
187
189
185
183
181
182
178
179
180
176
175
173
175
176
175
177
171
166
160
162
161
149
137
140
139
139
134
139
140
136
135
136
139
140
135
134
135
144
145
144
145
149
154
153
151
151
156
162
171
164
165
165
170
170
173
177
173
175
178
183
181
182
180
181
178
177
179
179
183
186
188
191
191
194
193
194
194
194
194
196
196
194
193
191
191
190
189
188
188
185
185
184
182
182
180
178
177
177
177
176
178
174
174
175
177
176
177
177
170
164
163
162
160
150
141
138
141
140
136
138
140
137
135
136
141
141
137
134
136
145
146
146
149
152
158
154
152
154
157
162
170
162
165
169
173
173
173
177
175
175
176
182
181
180
180
180
174
173
174
175
175
180
180
184
186
187
186
188
188
188
187
189
189
188
189
187
185
183
182
182
181
180
179
179
176
176
176
172
173
175
176
174
176
174
175
177
178
176
176
175
171
164
164
164
160
148
143
143
142
141
137
139
141
138
134
139
139
140
138
134
138
147
150
149
149
154
159
154
155
159
157
163
169
163
167
171
175
176
176
177
177
175
178
181
182
179
178
178
175
172
169
173
171
175
175
174
178
179
179
181
180
180
182
182
182
182
181
180
178
176
176
175
176
174
174
174
173
170
171
171
171
173
174
172
176
174
176
179
179
175
173
173
173
164
164
166
161
146
145
146
147
141
140
139
140
138
138
140
141
142
141
137
139
148
150
147
148
156
157
156
157
161
160
166
169
163
171
175
177
179
179
180
178
177
180
181
180
180
176
175
175
173
168
169
168
168
170
169
170
170
170
173
172
171
173
173
172
173
173
171
172
171
170
171
171
169
169
167
166
167
169
169
170
171
173
172
176
174
176
179
177
175
172
175
173
164
163
168
160
146
145
146
149
145
140
139
143
139
138
141
140
142
141
141
139
150
152
151
155
159
159
158
159
162
166
166
170
164
175
176
179
180
179
182
179
178
180
183
181
180
176
174
173
174
169
170
165
166
165
167
163
164
164
164
165
164
164
164
165
166
165
164
165
165
164
165
165
164
164
162
162
165
167
168
168
170
171
174
175
176
176
179
175
175
173
178
173
165
165
170
160
147
145
146
152
148
143
141
142
141
139
139
138
141
139
140
140
153
153
154
159
160
159
162
164
164
168
167
170
171
175
180
179
182
179
184
183
181
181
184
184
183
177
175
171
173
170
171
166
166
163
163
160
160
160
158
158
158
158
158
158
160
158
158
159
160
158
158
158
160
160
159
161
163
165
166
168
170
171
175
173
175
178
180
174
175
174
180
172
163
166
170
162
146
147
150
153
153
146
144
141
142
139
137
139
140
138
138
140
153
154
156
160
160
160
166
166
167
171
168
173
176
179
182
180
181
181
184
187
185
183
185
184
185
181
178
173
173
169
169
169
169
165
163
161
159
158
155
155
154
156
154
154
154
153
152
153
153
153
154
154
156
158
159
161
162
164
167
169
171
173
174
175
177
180
180
173
173
177
179
171
161
166
171
164
148
150
155
152
157
151
147
143
143
142
137
140
139
137
138
139
150
155
160
163
161
163
169
168
169
176
169
177
182
183
182
182
181
182
185
187
188
185
187
185
187
184
181
176
174
169
167
169
169
166
163
161
160
158
156
155
154
155
152
153
152
151
151
150
152
152
153
155
157
159
160
161
163
164
170
169
171
174
178
177
179
181
181
173
173
180
177
169
163
165
172
164
150
155
155
153
159
155
148
148
143
143
142
140
140
137
139
139
