P2
# Face with average contibution
92 112
255
186
183
176
182
188
177
181
184
190
188
195
197
203
202
183
177
191
188
185
183
182
165
172
172
176
182
185
179
180
184
188
175
190
195
188
189
189
186
192
200
198
187
198
215
205
199
186
188
194
185
192
200
187
174
178
177
168
174
166
165
157
154
161
175
180
199
206
209
210
204
206
194
194
202
219
208
198
196
195
203
198
193
197
194
201
199
196
191
189
190
192
194
186
188
179
185
175
177
172
180
189
186
190
201
203
195
181
189
193
203
178
188
187
180
171
168
173
184
184
185
190
185
190
187
186
193
194
193
188
197
193
208
198
202
201
204
212
194
193
187
198
196
196
192
187
178
183
179
183
177
167
149
142
143
154
163
171
184
203
203
204
206
196
191
187
189
221
221
200
191
199
202
194
201
190
204
209
202
197
204
184
193
193
191
184
178
177
175
172
176
184
180
192
186
178
188
191
188
192
210
217
199
184
189
176
173
174
165
173
165
170
174
195
195
197
199
198
193
194
196
192
199
186
214
208
202
209
207
208
200
200
187
198
203
202
190
180
181
178
183
191
185
176
153
144
155
162
172
171
176
188
204
209
210
212
191
194
182
195
215
214
196
191
209
201
196
192
205
204
207
204
201
196
189
190
195
187
181
173
178
185
178
182
186
179
175
179
193
197
193
205
214
216
202
183
180
174
171
164
162
168
162
170
173
187
196
200
202
211
199
207
189
206
204
194
211
220
211
200
216
207
208
204
193
204
207
214
195
194
200
193
192
186
176
179
171
176
168
171
171
172
182
184
189
193
200
206
213
209
197
201
200
209
204
194
210
211
196
192
200
212
201
202
197
205
194
197
197
175
184
187
187
191
179
181
176
169
174
197
198
190
195
195
201
197
200
186
180
167
177
168
161
172
168
170
187
185
187
198
197
201
207
208
200
214
211
212
210
216
226
202
212
216
205
202
198
209
214
204
194
190
191
190
193
172
167
176
181
187
177
171
163
169
193
193
184
184
179
191
208
206
200
208
207
196
196
191
206
206
198
191
196
206
204
196
196
204
196
195
199
180
190
195
189
180
185
182
174
167
180
188
192
190
201
189
193
188
189
182
173
172
175
179
180
182
176
182
192
180
186
191
194
197
194
201
202
206
210
217
217
216
213
202
199
213
214
206
200
197
205
202
198
187
183
179
181
170
164
170
174
181
174
183
170
172
194
186
189
190
182
176
182
200
194
190
205
206
194
190
210
203
213
196
196
197
196
198
195
201
194
193
191
187
187
187
189
186
187
186
189
183
187
191
187
191
187
201
193
179
172
167
165
168
179
176
191
197
178
170
178
180
185
194
190
190
193
208
202
202
209
209
216
226
213
197
193
208
210
194
200
191
196
188
185
185
176
174
183
184
173
164
174
175
165
165
178
177
188
198
193
188
190
183
182
179
189
190
200
209
210
208
208
200
194
198
194
193
195
194
197
195
190
197
188
185
179
176
188
184
181
192
196
191
195
191
187
190
197
195
192
177
163
167
166
168
185
179
190
189
186
178
176
182
185
194
191
192
192
205
212
208
206
210
219
222
208
187
193
212
216
201
199
198
203
190
197
178
169
168
172
175
171
168
163
164
169
165
175
176
173
192
196
187
190
189
185
185
176
176
197
211
214
210
206
195
190
194
192
184
198
191
196
194
184
194
192
183
177
179
173
183
187
189
186
186
188
194
185
188
185
183
192
176
164
168
181
179
183
182
181
169
173
181
193
196
195
192
207
203
203
217
217
215
206
199
211
205
210
191
190
202
214
203
201
193
200
200
200
182
173
168
168
172
178
163
176
176
174
169
176
185
180
179
196
193
187
181
183
184
182
176
182
199
211
215
207
199
196
195
188
186
183
181
185
195
191
191
190
180
176
175
179
183
186
183
180
181
177
183
187
185
184
175
179
182
186
181
184
193
187
195
173
179
187
191
192
199
197
194
203
213
214
217
217
211
200
187
196
204
216
209
222
203
204
198
215
213
206
194
182
168
164
157
168
178
173
168
172
187
185
179
170
188
208
185
198
199
192
180
177
179
199
193
185
182
198
214
205
199
199
196
181
194
183
183
182
193
197
196
189
177
176
181
188
175
180
176
174
179
189
199
193
195
196
183
189
195
203
195
187
194
194
212
206
200
197
189
191
188
202
199
194
208
214
217
215
205
207
207
203
204
210
209
229
220
209
186
207
211
192
183
162
156
154
142
161
175
170
176
173
177
181
179
175
183
204
199
194
211
201
191
175
172
195
208
208
179
177
198
202
216
192
201
196
185
191
190
178
185
199
191
186
182
189
197
194
187
179
171
180
181
195
200
196
202
195
193
192
183
181
178
190
191
196
206
213
199
187
186
190
192
192
200
188
198
211
210
209
204
212
225
225
200
202
201
203
198
194
186
191
189
182
171
155
155
155
151
167
166
153
163
162
174
184
173
185
190
198
199
194
200
208
203
181
173
183
194
198
190
180
187
193
213
197
201
188
186
181
186
176
181
191
190
183
189
191
197
187
187
178
171
182
201
196
194
195
187
186
197
195
184
181
198
212
199
200
203
205
206
207
199
193
188
189
191
195
189
197
200
207
204
213
209
205
204
202
196
193
191
194
187
188
177
171
160
167
155
155
150
159
154
153
158
168
172
187
180
187
192
204
197
208
202
214
213
203
203
182
191
196
176
183
196
189
197
198
193
183
177
180
179
180
176
180
189
190
192
188
193
189
186
179
190
191
200
201
193
192
192
199
179
187
176
165
176
190
191
200
204
205
194
190
195
197
185
183
191
194
193
192
200
209
212
207
194
197
201
190
195
189
189
195
207
199
187
178
174
180
173
168
151
157
163
168
176
177
175
188
183
190
199
213
196
200
194
216
225
216
204
204
187
179
192
176
193
202
195
196
185
200
185
174
178
188
185
180
182
179
195
190
188
202
191
184
190
200
209
195
200
208
203
201
205
196
186
166
161
160
175
194
212
207
203
192
186
194
193
192
194
192
187
197
199
201
201
193
191
191
194
196
194
190
191
183
203
211
202
197
181
181
171
168
159
157
165
174
180
189
180
188
177
192
195
197
211
202
197
199
220
217
201
202
203
185
180
182
183
201
201
193
187
189
193
180
171
177
187
182
178
181
205
201
192
197
193
194
199
205
201
205
205
215
211
211
200
195
180
177
178
162
184
198
214
200
188
187
185
184
181
184
192
193
189
189
185
192
202
189
191
198
200
197
191
195
203
193
193
204
204
206
195
189
190
189
181
171
168
177
176
191
187
193
182
187
199
198
207
213
211
208
216
215
206
202
205
189
182
178
170
189
194
197
188
183
181
184
178
169
174
177
172
180
205
208
189
193
198
198
211
211
200
211
199
212
222
214
207
194
183
190
186
183
198
198
194
195
186
185
181
181
182
186
184
191
179
167
171
184
197
191
194
194
206
202
186
183
196
200
207
196
195
211
197
188
196
198
188
186
172
170
165
172
174
175
176
183
184
189
202
213
208
204
209
210
208
208
206
191
187
180
170
176
184
182
191
190
180
179
186
180
164
179
180
180
214
208
182
193
197
200
212
212
223
199
193
196
203
201
204
192
194
204
188
185
190
184
186
186
190
180
176
173
172
174
177
177
174
172
174
184
188
193
190
185
199
209
210
203
206
201
209
216
208
203
201
205
206
197
194
195
179
173
176
165
168
163
166
176
183
189
192
204
207
203
211
197
203
190
196
191
180
186
171
168
183
170
200
203
185
177
175
179
169
167
181
177
209
196
182
188
204
206
222
224
224
200
199
204
200
198
180
190
205
208
181
176
180
166
169
181
184
180
177
174
172
168
175
173
177
175
176
177
183
188
186
183
190
201
206
212
215
209
208
218
215
212
210
214
219
204
202
202
200
181
177
178
172
165
178
174
173
187
187
195
197
206
199
202
198
189
191
198
171
172
174
160
169
187
184
206
186
186
182
173
173
167
181
178
200
187
190
200
225
220
225
242
214
205
213
200
192
174
173
183
208
196
175
172
170
160
177
182
174
169
175
174
176
178
174
174
174
175
180
179
178
181
181
187
192
193
197
196
209
213
207
205
215
219
217
224
219
214
210
207
204
198
188
185
184
181
181
189
182
179
183
186
191
203
190
199
198
197
193
198
179
163
172
161
154
179
179
188
208
192
185
181
175
170
168
173
192
185
194
228
227
237
225
225
209
212
213
193
186
169
170
196
192
176
171
172
160
157
174
164
157
166
170
168
173
175
179
178
178
185
189
187
182
182
186
182
180
202
193
193
204
205
203
197
205
212
205
222
217
223
219
216
217
210
201
197
198
194
181
195
205
192
192
196
190
194
188
186
186
195
200
188
174
171
155
165
151
162
188
189
202
208
189
181
186
167
156
171
191
190
200
233
243
232
223
214
210
205
193
178
172
164
172
182
175
169
169
160
162
155
160
161
163
171
169
167
171
170
167
179
177
183
183
181
175
175
176
178
182
188
191
188
198
194
198
194
198
207
206
215
218
219
217
211
213
204
196
195
195
180
187
175
189
211
199
198
205
192
190
188
186
179
205
189
180
174
156
168
165
154
182
195
202
204
191
184
186
158
151
169
197
199
224
243
240
233
209
201
202
201
182
170
165
163
176
174
174
181
181
165
156
168
156
157
172
175
171
167
170
169
171
175
177
180
181
172
171
179
176
174
175
184
180
184
189
192
194
193
195
207
210
210
209
211
214
208
202
209
198
202
198
194
186
188
190
188
204
209
195
206
194
197
185
174
190
186
185
189
168
157
186
155
169
187
193
211
201
189
185
169
144
172
204
211
231
248
247
219
210
200
205
187
169
151
150
161
165
167
179
187
181
168
165
167
168
171
172
174
178
174
178
176
171
169
176
173
180
178
186
183
186
184
182
180
184
184
187
191
193
193
189
199
198
203
198
203
208
208
205
204
203
205
202
187
184
183
193
178
191
202
191
206
207
199
196
182
178
174
183
192
187
165
175
188
179
179
185
209
209
195
186
170
152
172
212
215
229
243
250
210
198
188
196
164
161
149
152
156
163
175
179
196
183
175
176
173
179
180
179
177
179
171
174
176
166
174
176
180
185
179
193
191
186
178
181
182
182
182
180
184
180
182
184
189
190
189
187
194
195
199
201
198
201
207
201
193
182
173
182
179
173
198
200
198
196
201
197
193
185
176
189
185
190
170
171
189
187
174
185
197
212
196
185
182
153
175
207
204
220
252
246
203
183
196
188
160
154
164
161
157
169
189
192
201
185
183
184
187
187
181
174
180
176
183
164
179
181
175
184
186
185
179
183
202
197
182
180
176
177
179
176
185
176
178
177
177
183
182
186
188
200
205
203
200
207
203
196
191
186
182
174
167
168
183
207
204
192
188
200
196
196
191
186
190
190
168
169
177
183
179
181
198
210
188
178
179
164
170
189
211
213
242
227
209
182
185
181
165
156
166
160
165
186
194
208
210
200
192
189
193
196
186
174
187
188
182
179
179
186
179
179
190
188
190
187
192
201
194
178
171
173
173
172
176
177
182
180
174
182
184
182
194
198
204
200
200
200
203
195
192
193
188
181
174
167
174
186
193
191
189
196
201
198
188
196
185
191
171
171
174
183
183
185
201
208
189
177
173
165
171
196
198
215
227
224
212
191
192
174
162
162
161
161
172
198
203
218
214
211
198
202
204
202
190
192
189
195
189
184
188
180
182
177
183
188
185
191
185
190
189
182
176
171
175
170
174
175
184
181
175
183
189
189
196
197
201
195
201
198
204
195
197
190
194
185
182
174
165
168
181
184
183
195
198
194
191
196
193
177
182
176
175
189
173
180
198
201
186
174
166
164
164
200
198
210
231
226
206
202
193
189
167
160
155
168
174
202
211
220
227
212
208
206
211
209
199
203
205
193
196
191
177
194
190
186
197
186
185
196
186
202
197
190
186
185
192
186
181
189
188
182
180
184
195
191
194
200
203
197
203
199
200
200
200
191
187
189
184
179
168
172
178
173
181
186
195
195
200
189
187
174
180
175
176
188
181
154
177
211
185
176
168
160
170
198
190
205
236
222
224
214
197
198
167
163
168
170
183
199
216
222
227
223
219
218
215
212
214
209
206
202
195
198
183
184
193
192
193
189
188
193
192
196
201
200
195
192
199
195
196
196
193
186
183
183
183
188
188
196
202
203
209
209
205
204
196
187
190
191
191
188
169
176
183
167
175
171
176
195
209
200
178
166
169
172
179
188
186
166
162
197
196
179
164
170
174
201
194
204
239
224
216
221
194
192
176
182
178
169
179
197
219
226
232
232
232
233
228
222
219
208
200
192
196
188
187
178
186
191
187
191
184
190
194
188
197
198
204
199
201
199
197
194
198
189
182
187
184
190
194
197
196
204
207
210
205
205
198
195
187
195
190
189
175
175
186
169
163
168
164
178
194
215
171
167
175
160
176
188
182
177
178
185
195
183
169
173
173
197
197
199
228
222
215
218
202
191
196
191
180
167
184
203
226
229
229
237
227
234
232
221
210
202
198
179
188
186
178
179
181
181
184
186
187
182
188
191
192
193
202
202
197
199
196
189
190
191
184
187
191
189
188
196
192
201
204
205
206
203
202
194
195
201
196
189
180
173
183
177
160
163
161
173
179
190
195
154
176
165
176
185
183
174
172
201
207
182
178
171
171
190
196
196
214
227
202
224
206
208
213
189
182
169
186
215
220
222
221
218
224
232
224
210
205
200
189
181
179
182
181
178
177
181
176
185
189
178
173
189
189
187
197
200
193
193
187
188
183
182
184
187
191
192
185
191
195
201
200
199
198
199
197
194
198
193
190
187
176
175
183
183
165
167
162
172
181
171
186
172
164
169
181
200
187
176
163
191
221
192
187
170
174
189
199
204
206
222
204
224
217
224
203
189
174
176
192
211
212
213
220
222
224
233
219
208
201
193
185
173
173
175
181
180
173
180
184
180
181
180
174
186
190
183
188
190
197
183
180
183
178
176
178
181
182
187
184
183
190
195
196
187
188
188
194
190
191
186
184
185
180
182
181
184
170
179
171
171
183
179
178
174
162
176
187
199
188
178
160
178
220
193
194
187
172
184
204
205
205
203
220
217
220
223
200
176
174
169
187
198
197
208
212
216
211
220
206
196
188
187
177
176
180
175
182
181
179
176
185
180
182
186
182
191
194
188
184
197
194
196
186
187
186
185
183
184
182
185
180
179
186
183
189
184
185
181
187
181
184
182
181
180
185
183
183
182
180
179
183
174
183
183
170
174
161
173
188
204
180
163
159
166
225
211
189
193
176
191
206
195
199
195
208
220
215
211
192
178
166
164
173
189
191
200
207
207
203
202
193
183
175
180
177
175
170
177
184
180
171
174
180
171
171
177
179
185
185
184
184
180
183
189
182
184
178
182
176
179
184
192
183
181
185
183
189
190
187
188
191
189
183
180
179
178
181
182
179
181
179
169
170
179
172
179
171
164
169
168
181
200
180
148
153
171
208
221
184
194
176
195
201
184
198
188
196
220
211
198
178
177
168
163
159
175
184
195
208
209
206
193
192
189
193
195
186
180
182
186
189
192
186
187
188
184
175
190
189
195
196
194
193
182
189
192
190
192
187
186
194
193
191
197
195
190
188
185
185
187
192
194
199
200
196
185
179
178
182
177
182
181
179
169
168
165
183
179
172
145
171
164
175
182
179
151
153
158
197
227
186
179
185
189
202
192
186
193
200
198
209
192
165
171
160
150
147
173
192
204
192
207
203
197
193
193
196
188
175
176
178
187
189
201
196
203
198
197
184
197
194
181
190
191
196
192
195
192
194
197
195
194
197
199
197
201
207
194
182
187
183
187
192
194
203
203
204
198
186
184
184
179
181
185
174
169
163
159
169
174
180
165
158
173
176
162
162
156
151
165
190
222
191
155
187
198
193
198
188
189
185
197
203
184
166
168
147
142
146
174
193
194
181
191
181
179
186
178
174
177
174
168
165
176
184
185
195
188
189
196
198
204
202
189
191
181
178
182
194
189
194
191
195
197
193
197
200
202
200
196
175
173
171
180
186
190
202
204
207
197
190
191
185
183
176
171
172
163
164
162
179
188
182
188
179
166
184
171
154
159
138
154
205
233
184
153
183
180
199
205
186
196
176
204
201
188
167
160
153
144
149
178
185
185
186
176
163
174
171
166
155
157
170
170
173
178
194
193
188
188
190
191
185
196
196
191
196
200
191
177
187
192
194
194
193
188
183
183
179
182
174
174
163
154
151
158
159
161
171
185
189
191
193
191
186
191
186
180
185
170
173
174
176
201
194
213
199
182
187
187
174
164
141
149
197
227
180
158
173
184
190
203
192
206
184
195
199
199
168
160
162
150
161
184
179
183
186
183
173
174
167
158
147
154
157
161
163
160
183
189
188
198
202
201
198
197
208
204
204
205
217
186
180
181
180
185
182
179
171
170
181
178
167
152
154
165
144
133
136
139
157
177
183
179
191
195
198
205
208
201
193
190
176
178
182
212
211
226
231
211
195
180
196
170
155
149
202
224
176
171
186
178
192
181
195
204
198
201
212
197
168
165
162
157
172
184
184
188
191
191
184
180
161
146
149
147
156
155
154
162
170
181
184
192
196
197
203
201
216
212
222
213
215
209
185
177
172
183
195
189
185
181
180
188
170
147
149
162
144
130
145
135
157
157
161
159
175
188
194
205
207
196
204
207
177
189
185
194
204
206
212
202
205
202
195
176
161
161
210
224
180
175
195
175
184
187
195
200
210
205
220
191
176
167
162
158
168
173
192
195
195
210
204
203
187
179
178
161
169
161
152
168
171
170
184
195
198
206
203
208
218
195
194
203
212
179
170
190
185
196
195
206
204
212
203
191
172
144
153
152
146
141
160
145
170
172
157
155
156
164
174
202
199
175
198
209
193
175
222
220
205
220
208
202
194
205
185
182
170
159
211
212
190
178
201
160
184
201
198
213
220
224
229
186
163
156
156
165
161
184
195
204
203
210
209
208
205
203
200
192
177
176
170
169
176
188
201
200
162
184
198
202
213
175
162
164
184
179
187
193
199
206
194
198
193
206
198
182
188
183
172
177
181
163
194
190
191
186
177
178
154
173
181
180
202
175
188
197
203
192
219
230
229
226
213
209
217
208
187
187
184
174
205
208
185
193
198
170
177
213
188
211
225
241
235
186
144
157
173
172
168
196
223
229
215
209
207
219
222
206
203
201
194
211
199
201
187
212
194
195
212
198
217
212
228
190
162
160
187
167
196
199
201
198
197
184
172
188
202
190
190
193
176
167
149
146
168
192
177
183
174
175
157
145
179
170
192
197
182
194
188
190
217
223
236
222
210
206
229
224
210
191
199
188
203
209
182
195
202
178
185
211
184
206
217
235
224
179
140
167
184
174
172
198
203
227
198
200
192
218
241
218
201
193
222
241
224
221
191
202
194
187
191
201
214
225
215
176
167
156
190
179
179
197
203
204
180
174
174
190
208
207
196
201
192
174
143
153
158
175
194
185
178
174
147
161
175
181
190
226
194
186
179
184
207
244
239
233
213
214
232
214
220
198
200
202
202
210
184
195
205
192
192
213
189
207
218
218
224
196
136
154
172
175
175
189
199
195
188
191
193
226
224
213
198
174
202
254
244
229
189
196
215
199
186
204
222
232
211
185
169
164
199
199
188
192
202
199
178
173
187
202
228
228
209
206
189
174
149
146
175
193
193
194
181
174
152
162
173
178
184
214
211
197
170
170
192
226
254
243
222
211
233
204
218
203
207
217
220
222
201
209
220
188
182
215
200
222
209
219
220
188
141
135
142
180
182
171
180
172
173
187
206
217
193
207
209
175
176
215
218
202
198
209
216
213
195
190
195
218
204
207
197
180
209
196
189
175
188
177
163
175
189
197
201
228
206
185
197
170
162
174
197
228
208
204
184
192
192
170
188
192
203
210
204
193
187
174
171
201
241
237
195
202
223
204
206
211
204
214
232
221
219
220
233
179
171
211
224
225
210
224
212
174
134
146
148
186
200
185
182
170
183
197
208
199
186
190
201
206
156
200
194
196
206
221
239
219
188
172
168
201
202
211
204
192
211
192
171
154
172
164
166
187
192
192
191
218
211
189
172
200
184
164
191
219
222
205
195
193
212
180
180
179
195
207
210
195
189
180
169
174
220
229
189
203
219
204
210
203
219
206
225
218
223
222
244
186
176
200
226
210
221
232
219
174
152
161
161
192
188
192
195
180
191
206
192
178
168
174
160
184
163
199
196
169
211
215
237
228
208
182
172
172
197
208
207
194
206
195
165
153
161
163
179
209
208
200
196
214
224
192
176
176
186
173
196
211
214
205
201
178
196
177
177
179
181
204
215
203
193
194
183
174
213
231
199
208
220
197
193
202
231
218
204
226
222
222
234
189
199
205
218
213
219
232
227
182
171
176
180
197
185
204
208
185
199
200
171
173
180
174
159
181
186
188
191
176
209
202
202
210
224
211
197
178
185
200
191
202
194
189
173
159
163
166
180
211
220
209
206
200
223
216
188
179
171
179
187
194
216
216
200
173
178
180
172
188
187
211
213
201
196
191
181
179
195
239
203
218
234
198
178
218
222
214
201
227
225
214
230
191
204
220
213
217
218
249
232
183
181
186
208
210
201
216
212
195
201
191
188
191
206
206
192
198
198
202
195
184
209
194
192
205
217
215
198
196
184
183
183
191
199
184
181
171
171
182
189
202
214
189
180
184
198
207
214
176
174
177
185
181
166
179
175
163
171
173
173
183
188
191
193
196
177
176
174
171
175
225
205
224
225
190
187
224
225
211
195
229
229
212
222
198
187
208
211
189
194
234
236
189
177
185
211
221
206
224
220
214
212
207
214
211
223
204
205
200
181
198
194
192
193
183
183
187
194
200
186
184
165
158
171
184
195
175
184
179
191
199
188
190
197
181
168
164
172
208
217
188
166
175
164
168
156
149
159
168
156
169
168
182
203
181
177
187
181
170
167
158
181
210
227
235
214
181
196
214
209
201
201
219
235
200
216
180
165
185
194
166
188
186
235
184
175
187
206
228
218
227
215
214
217
204
190
185
197
192
192
213
219
197
195
180
179
195
183
184
182
189
192
177
162
153
172
176
182
171
179
194
214
214
202
183
190
185
172
165
155
199
226
219
202
194
196
190
166
170
165
171
177
162
169
183
192
189
176
176
178
169
166
146
188
211
198
237
200
181
186
211
200
186
187
216
227
202
223
156
153
163
176
149
188
160
216
176
161
186
204
214
214
210
199
196
200
182
164
161
166
156
159
164
178
173
162
152
150
176
179
170
170
176
189
187
156
154
159
174
163
169
181
197
225
222
227
191
185
191
183
173
167
175
214
227
219
182
201
218
194
187
181
180
175
173
166
180
182
186
179
173
181
194
175
151
188
207
198
233
194
174
190
206
185
177
173
209
224
202
226
158
171
163
172
155
188
167
197
173
143
186
203
196
208
207
190
171
190
175
157
163
156
147
145
145
139
157
150
151
158
180
193
188
174
180
182
182
166
152
161
187
168
177
189
199
226
229
218
199
191
196
200
180
165
153
187
227
232
233
225
220
199
184
182
174
169
170
177
176
174
174
174
175
184
188
185
167
191
183
210
223
194
169
203
209
183
175
159
208
207
199
217
149
202
179
184
176
191
198
190
171
154
194
198
193
191
211
193
169
179
170
163
164
154
146
146
140
140
144
151
161
175
210
221
185
179
181
188
182
155
127
165
178
173
177
184
204
227
231
222
199
187
202
192
192
187
161
171
210
225
222
226
223
202
188
187
197
191
183
181
191
171
178
171
176
175
182
174
172
196
202
201
208
200
180
205
202
185
174
173
205
201
197
213
145
198
199
199
198
183
190
185
177
183
191
190
181
192
200
194
188
167
170
157
152
150
145
162
167
157
163
162
171
204
218
222
204
197
199
193
199
167
145
167
173
168
170
188
198
220
231
231
214
185
197
180
180
189
177
185
181
209
219
226
218
206
179
189
190
211
188
199
202
185
173
169
171
173
185
177
189
206
206
194
204
200
183
192
182
169
179
188
193
191
197
214
144
204
198
197
209
173
191
183
186
185
185
180
164
193
198
189
186
181
188
182
180
180
168
194
201
176
173
169
181
206
208
216
217
209
213
210
214
200
167
174
163
163
177
180
195
206
220
227
226
202
190
184
199
201
203
196
196
206
223
238
246
221
195
199
206
207
216
219
214
201
193
192
205
191
207
186
185
190
201
199
203
201
194
186
158
171
187
201
187
183
191
216
153
199
183
180
196
178
195
188
170
177
184
176
167
189
197
191
191
208
185
192
185
180
173
192
204
192
183
189
194
217
221
217
217
203
195
197
210
204
173
152
149
153
178
181
188
199
214
216
215
225
194
172
195
204
216
219
207
213
212
224
235
239
226
213
221
227
234
233
225
222
211
206
204
185
192
170
183
188
200
207
205
197
213
199
169
203
184
206
174
187
196
215
173
180
172
168
168
177
196
186
159
171
194
182
165
181
187
200
181
201
198
173
168
162
165
179
186
184
178
195
204
205
211
207
201
194
186
212
209
198
179
152
147
164
179
185
186
197
212
213
208
218
201
171
178
192
203
217
211
206
214
211
214
231
235
231
223
228
234
231
235
229
215
209
185
182
184
180
189
187
207
198
203
206
224
217
206
230
176
196
166
185
200
219
170
190
174
157
150
163
187
184
162
176
194
196
175
177
192
198
186
189
193
188
186
169
171
181
185
186
189
191
207
213
203
208
202
184
200
199
198
189
177
160
151
160
173
186
187
202
207
200
200
206
200
183
170
188
193
206
197
205
211
208
206
205
201
217
210
214
214
223
231
226
219
201
192
181
185
178
182
191
203
198
208
234
238
237
224
242
196
173
158
181
195
223
174
193
190
173
149
168
187
178
165
166
202
188
177
189
198
198
199
194
184
178
173
161
169
186
183
186
192
191
200
209
203
194
188
205
206
193
195
188
176
173
168
164
175
192
190
204
196
199
203
210
206
182
178
169
200
204
202
201
215
211
207
213
207
202
203
199
197
210
215
215
213
201
190
184
181
168
176
190
196
199
216
253
239
228
221
228
194
173
154
173
192
227
175
193
203
201
167
196
200
186
174
172
200
187
168
188
193
199
194
204
185
176
174
161
163
174
178
182
187
185
193
202
197
179
195
222
215
194
196
189
182
178
181
184
193
203
201
193
191
193
197
215
209
191
190
185
190
202
207
197
214
215
204
214
218
213
207
198
186
200
204
204
210
203
190
187
182
178
170
189
190
197
213
239
230
229
215
218
187
168
156
168
195
226
181
171
208
221
194
211
209
191
183
177
198
172
177
186
184
188
198
199
194
191
181
166
160
165
174
177
178
178
181
190
188
186
206
224
201
184
202
194
186
185
194
196
204
202
204
184
195
193
204
205
207
200
194
209
192
196
208
215
220
224
217
209
211
212
199
189
186
189
191
202
197
196
194
201
191
179
170
177
190
194
203
201
219
236
210
200
186
161
158
171
204
222
190
171
179
223
212
238
213
180
171
172
192
180
169
183
186
186
190
190
190
198
191
184
175
172
173
176
173
180
177
196
212
198
214
207
198
191
205
203
201
199
203
193
189
180
188
191
200
198
201
199
199
198
203
206
204
188
188
204
225
224
217
207
207
212
200
198
185
188
191
190
186
189
197
202
204
191
170
192
185
194
192
194
224
226
204
185
187
152
160
188
199
228
197
177
172
230
213
246
225
185
169
176
179
192
175
180
173
185
186
195
202
199
191
182
187
178
173
168
182
192
202
210
209
206
209
201
190
188
187
197
193
191
184
175
184
184
186
191
198
211
197
189
191
199
196
207
207
203
190
194
235
244
232
216
212
216
200
198
196
190
194
191
192
201
206
211
205
180
182
189
198
198
184
190
216
210
194
168
191
146
165
195
203
212
206
186
171
224
237
224
222
183
186
176
179
194
190
172
175
177
178
189
196
196
186
172
180
173
165
167
191
198
197
199
198
200
205
190
170
176
176
186
189
166
159
154
179
191
185
193
204
208
196
190
190
193
179
185
209
208
209
231
234
220
221
220
219
219
196
184
193
193
198
203
203
222
215
210
193
182
192
200
210
206
184
188
204
195
186
177
185
157
179
196
206
203
216
209
166
204
247
238
206
170
182
185
175
194
198
174
172
177
180
197
190
194
187
173
173
187
174
174
179
185
193
199
193
206
198
183
181
189
181
186
186
181
161
158
177
190
177
193
210
189
200
203
193
188
186
184
201
210
212
214
215
215
207
206
203
212
205
194
197
202
201
212
211
209
205
204
204
189
193
199
203
208
183
193
203
184
189
190
167
171
187
199
198
202
224
214
175
199
226
247
201
159
161
207
178
181
199
175
173
179
186
192
189
191
191
181
168
184
172
167
176
175
187
192
187
201
205
200
196
198
179
176
167
175
175
177
189
205
195
202
207
195
213
214
195
189
180
181
194
205
198
194
204
211
210
213
208
200
190
192
187
193
188
203
211
208
209
207
204
196
190
185
198
212
198
203
186
181
195
187
170
167
188
203
203
196
221
213
186
210
223
226
209
162
153
212
195
177
189
182
176
185
191
190
187
190
193
187
184
182
178
175
183
186
181
177
184
197
206
206
206
201
192
181
168
178
182
199
207
218
210
207
198
197
208
214
194
171
146
148
167
188
194
197
198
198
203
197
195
187
180
176
185
191
186
202
210
207
203
202
195
201
178
166
206
220
195
198
181
191
198
183
164
170
189
209
200
192
201
213
186
228
244
224
200
172
168
209
203
194
189
182
183
194
190
191
188
186
190
192
189
185
192
195
197
196
188
189
184
188
193
202
212
225
220
193
178
190
193
199
220
228
235
237
217
204
204
201
186
159
141
139
161
171
185
197
191
188
191
182
173
164
166
166
173
180
183
197
208
202
198
199
199
196
176
164
208
209
190
188
199
207
180
187
164
169
195
203
192
191
183
210
176
212
252
230
202
175
171
205
207
197
199
186
184
190
191
190
186
186
196
198
192
198
200
199
194
197
201
197
184
181
174
170
211
225
214
193
183
184
183
185
191
204
223
231
215
207
208
199
176
181
167
157
179
181
175
180
180
178
187
179
156
148
164
161
161
171
178
192
204
196
195
197
202
202
174
166
196
193
192
196
211
196
172
194
160
171
199
195
185
199
172
195
192
174
210
231
206
187
168
185
211
196
186
192
190
191
186
182
179
182
194
204
188
199
197
204
198
201
202
190
186
186
159
150
180
195
177
177
175
169
169
172
168
161
187
203
187
177
180
179
180
175
176
178
189
198
190
178
178
175
178
176
161
153
164
167
166
173
178
187
201
200
190
206
203
201
183
182
195
205
199
199
207
183
186
200
151
180
194
190
188
194
181
187
196
178
176
226
216
189
178
174
214
204
177
189
193
196
182
175
176
182
194
201
196
201
206
203
203
214
202
185
194
184
155
157
165
170
165
165
172
184
185
175
167
168
172
179
177
158
160
172
184
182
178
186
201
206
202
187
185
183
186
183
176
159
162
169
174
176
176
187
196
191
196
204
201
205
187
196
205
201
197
198
203
195
199
196
158
180
199
186
190
196
194
189
192
184
173
212
227
206
182
189
215
206
177
190
204
195
176
172
174
187
193
201
197
204
208
202
203
204
202
192
196
183
165
167
167
170
168
180
175
173
189
177
160
165
168
168
163
157
152
162
182
185
181
192
203
198
201
201
191
192
194
191
183
167
164
168
172
174
183
187
188
184
195
206
199
202
186
195
197
191
207
207
205
193
211
182
159
182
199
186
198
198
212
207
203
191
174
190
218
205
190
195
223
218
183
192
213
188
183
176
178
192
192
209
204
196
200
202
200
199
198
204
205
192
181
182
185
187
188
187
171
172
177
176
172
179
192
185
173
169
173
171
186
196
193
194
203
196
188
199
191
197
199
194
183
174
165
172
177
176
186
186
192
185
193
197
194
191
175
190
198
188
210
208
188
192
202
167
161
187
193
193
199
192
221
222
207
204
189
174
216
202
198
205
218
230
205
197
209
194
188
184
180
190
191
204
206
197
197
198
198
200
199
206
206
199
195
200
202
205
205
199
183
176
187
187
184
181
189
199
198
184
196
196
204
213
201
189
195
193
188
187
186
193
205
199
189
182
176
186
179
184
185
185
186
188
198
189
185
190
183
192
201
196
190
199
176
191
191
157
163
185
196
198
202
179
224
212
206
202
207
171
218
215
214
209
216
232
212
204
205
203
190
192
184
183
196
203
205
198
198
204
195
205
208
204
199
207
205
204
204
196
191
202
194
180
189
183
185
176
190
203
201
190
191
191
190
201
213
193
185
193
192
185
187
186
191
191
186
176
184
188
188
188
193
179
181
191
197
185
164
178
183
186
194
190
187
190
191
189
183
150
167
182
202
197
200
172
231
208
200
212
203
178
216
223
223
218
220
219
215
205
202
209
186
193
193
182
193
201
199
202
203
203
196
205
207
200
195
201
202
209
193
188
183
194
196
187
185
185
181
177
177
190
188
189
185
179
186
190
204
199
192
191
201
194
187
184
184
186
184
178
184
186
197
192
191
184
186
184
198
185
153
173
187
191
190
182
192
210
195
180
173
153
170
194
198
201
201
163
236
209
202
203
211
189
203
220
210
213
216
208
218
207
207
209
191
194
192
189
193
202
202
208
210
202
193
197
209
201
201
198
210
210
196
187
193
193
198
191
197
199
190
181
177
188
180
186
183
187
185
188
193
213
213
215
218
204
198
194
185
193
186
187
181
188
189
198
197
193
187
192
192
185
139
173
194
196
194
168
203
215
190
177
167
152
184
206
194
204
197
162
234
223
202
191
212
206
198
212
193
203
200
212
202
211
206
215
209
194
197
191
194
198
201
211
214
207
197
201
217
210
193
193
206
209
207
200
198
196
197
193
194
209
206
197
189
197
198
185
179
191
192
193
199
214
208
218
220
202
196
201
191
194
198
199
188
191
195
195
198
195
191
193
193
186
141
176
196
196
189
181
204
207
184
174
162
157
196
210
203
206
194
160
237
230
209
191
204
218
196
211
201
195
196
209
206
213
212
224
222
205
199
193
196
191
195
204
210
213
211
219
227
212
200
208
210
218
230
234
224
222
217
207
205
211
214
206
196
201
190
194
190
197
201
198
199
203
198
203
207
193
201
210
202
211
215
204
201
198
193
198
201
201
197
196
204
184
163
192
194
185
195
205
210
209
175
176
162
167
209
203
205
208
195
164
239
237
212
195
201
212
191
204
209
203
190
204
204
209
220
222
230
209
202
194
191
183
178
186
191
188
204
215
231
228
224
206
211
212
205
228
237
236
233
219
213
195
204
210
203
202
191
193
196
192
195
200
182
175
190
194
201
195
199
209
222
219
229
221
211
205
203
210
213
208
204
203
213
211
210
219
208
190
200
210
214
201
180
172
158
185
204
206
199
215
192
170
235
233
219
206
198
202
192
201
217
202
196
203
207
195
215
216
225
210
209
199
193
170
164
168
167
158
172
181
200
224
228
206
195
214
199
197
204
213
202
182
169
166
183
189
192
193
193
202
201
189
187
201
173
173
179
175
189
190
188
207
212
215
221
222
217
213
210
212
215
210
213
218
215
226
241
231
212
193
205
204
204
192
177
171
160
191
203
205
200
209
193
169
228
233
231
210
191
193
191
195
214
206
197
209
215
199
201
204
215
204
222
212
195
181
169
173
163
155
154
150
158
180
192
198
191
208
204
199
204
210
203
185
163
156
180
185
195
185
188
197
196
187
178
181
165
166
163
159
163
167
180
184
188
196
194
206
202
205
211
211
206
202
204
215
212
233
253
236
210
193
203
203
194
185
177
170
167
202
193
205
203
209
184
171
222
230
233
208
195
185
186
198
207
212
200
207
218
213
196
197
210
206
208
208
198
186
175
167
168
165
160
145
144
160
161
163
162
176
183
194
199
214
214
211
193
188
193
199
195
180
174
175
167
156
154
148
150
170
163
150
162
165
167
172
171
189
189
200
196
190
201
202
196
180
191
189
199
227
243
229
190
198
194
195
187
179
172
162
174
198
193
202
209
205
182
167
223
233
227
208
195
182
188
202
199
211
210
212
219
213
204
193
207
211
206
210
198
183
170
170
160
174
161
165
186
184
166
167
163
176
172
168
170
179
176
184
178
178
178
179
171
165
165
155
143
143
145
156
160
165
171
162
160
167
165
173
178
185
188
197
195
193
191
186
178
170
173
174
203
206
231
202
194
191
195
190
178
176
164
161
183
196
197
196
209
205
181
168
218
220
225
201
194
191
188
201
199
202
217
219
216
220
216
193
203
208
207
211
202
186
169
173
161
178
154
168
185
192
175
167
167
176
174
172
174
176
180
174
175
167
165
163
173
169
187
173
172
166
168
175
174
178
191
190
190
184
188
188
197
191
191
201
194
188
184
182
172
171
165
176
200
209
214
179
188
190
190
182
166
168
160
154
191
190
194
187
203
199
175
170
201
213
207
197
198
192
183
200
193
193
213
217
210
218
222
199
193
202
205
205
206
199
178
177
163
162
149
145
164
160
166
163
160
165
153
158
159
165
174
175
176
172
173
181
176
184
200
186
185
171
173
174
176
181
184
199
205
200
206
211
201
212
204
193
188
184
186
184
173
173
175
196
211
209
204
176
182
182
194
171
166
160
155
163
188
187
186
188
187
192
163
166
189
205
209
210
204
199
187
185
190
183
206
223
213
213
224
207
182
187
191
202
215
203
195
184
171
171
147
154
165
158
170
177
168
167
163
159
159
157
169
163
172
173
177
176
173
181
181
182
190
176
186
181
182
184
182
193
199
182
187
189
191
194
196
197
191
182
190
182
177
169
192
204
212
216
199
182
171
185
185
168
162
153
148
176
182
187
179
183
188
191
167
167
180
207
214
219
209
201
183
181
185
186
193
216
222
207
223
213
186
180
190
196
215
206
197
191
181
181
170
172
173
173
175
175
170
170
169
175
167
170
181
174
175
177
172
182
183
192
186
179
184
177
172
170
173
175
181
180
183
170
170
179
188
198
207
201
192
184
192
177
180
173
199
201
201
206
206
182
176
182
177
165
159
149
154
179
182
185
181
186
183
187
168
162
182
209
216
222
210
194
179
180
193
192
186
194
218
220
222
203
178
179
183
193
199
206
201
196
187
184
175
187
179
176
181
173
168
170
174
178
169
188
193
182
192
181
184
178
181
192
184
176
176
168
168
163
164
184
181
173
182
175
179
185
197
200
210
200
192
186
183
178
178
190
196
198
187
197
203
184
183
193
168
168
153
145
168
187
181
187
184
180
187
187
161
165
188
211
217
218
210
194
180
190
188
196
181
184
207
225
209
186
175
187
170
184
193
196
197
198
193
181
176
185
182
179
181
181
173
168
159
163
162
170
169
170
172
173
168
168
169
181
172
168
168
165
162
160
160
184
182
182
184
190
185
189
192
203
210
194
191
183
183
188
190
201
185
195
182
197
199
185
183
202
175
165
148
149
185
193
179
183
184
179
186
187
164
162
188
213
218
215
205
195
183
182
182
198
189
181
197
215
200
171
191
196
172
170
185
185
194
189
190
176
181
173
172
172
179
177
176
166
164
153
151
157
154
158
151
158
160
160
162
175
175
168
167
170
169
175
180
186
192
202
191
190
190
193
190
205
194
192
188
180
190
194
207
192
183
190
184
183
173
183
189
197
181
165
150
170
185
193
189
183
182
177
185
185
165
164
196
206
215
209
204
191
190
178
186
193
200
184
202
197
190
167
185
217
170
170
175
185
188
182
186
175
187
175
169
166
177
171
178
169
170
174
160
172
170
175
164
167
172
164
161
166
172
170
172
171
179
189
197
196
194
201
187
193
188
192
189
198
191
191
181
188
193
198
207
186
181
184
184
177
167
164
179
187
183
162
166
187
190
189
199
186
179
173
186
187
168
166
191
199
216
205
199
188
193
179
191
191
191
204
185
181
176
165
181
210
191
170
172
188
177
184
181
179
183
178
176
174
175
165
178
175
171
174
163
160
171
168
164
173
177
171
171
174
173
176
177
175
185
192
195
195
189
195
191
191
186
190
194
196
192
187
189
203
192
190
198
186
183
173
164
175
164
164
162
163
160
168
189
194
190
190
198
198
178
172
186
179
162
171
183
191
211
205
196
194
189
180
182
199
198
203
170
188
162
151
178
200
192
187
187
190
176
177
185
186
192
185
188
188
179
174
180
178
175
172
168
163
169
162
165
168
173
169
183
178
179
178
178
183
192
199
204
199
197
200
199
186
191
191
195
195
195
190
194
203
182
189
192
183
181
169
164
182
155
165
167
158
142
170
188
205
191
189
195
199
183
173
181
177
161
166
179
187
208
203
188
188
189
173
188
193
197
194
172
187
165
135
173
191
183
207
205
187
180
178
183
197
200
200
196
196
186
186
189
186
180
183
191
182
181
170
166
165
171
170
176
176
179
186
183
192
193
203
209
204
201
201
198
190
191
202
196
188
194
203
194
184
176
192
191
190
172
164
165
194
152
148
164
158
150
173
189
188
201
192
197
198
187
174
183
174
148
164
175
180
198
196
186
185
186
187
189
188
175
181
185
197
163
138
151
182
188
201
210
197
174
183
187
194
197
205
202
195
197
193
195
194
188
195
192
200
201
192
176
176
179
177
175
184
186
191
189
198
196
196
204
204
202
200
198
189
191
202
188
189
198
197
191
179
172
187
198
189
178
174
168
198
170
138
143
161
171
183
180
193
182
188
181
187
189
180
194
171
153
166
176
175
198
194
187
189
200
212
202
195
175
167
215
202
160
138
161
171
190
188
195
204
182
180
191
187
193
202
206
198
198
188
192
195
183
197
189
197
197
194
191
190
191
189
180
190
184
180
190
197
196
201
199
198
196
198
191
192
192
198
184
197
195
178
184
179
177
197
195
179
181
187
177
191
189
152
133
151
179
196
180
182
187
189
177
179
183
180
196
156
151
148
173
174
192
200
203
197
227
208
198
188
169
176
206
202
165
146
173
173
179
176
192
193
188
184
189
194
186
194
211
200
198
194
192
188
184
199
194
186
190
187
186
197
192
186
185
183
185
172
190
191
191
203
204
195
193
196
188
198
188
195
192
187
182
171
173
177
184
196
191
180
184
187
187
191
186
179
145
155
172
180
185
183
186
187
179
175
184
182
194
163
144
149
173
171
215
222
216
210
219
204
194
184
171
180
188
187
184
164
175
180
172
167
187
182
194
184
186
191
193
187
196
206
198
203
191
190
191
197
188
182
190
185
179
190
190
182
177
184
185
173
185
193
195
204
200
194
191
197
189
189
190
184
187
176
165
171
176
176
185
192
187
177
178
202
193
182
177
195
190
161
160
175
180
185
183
188
180
176
176
191
197
160
150
158
181
196
230
223
222
209
212
199
198
180
168
177
200
187
187
182
174
180
170
168
186
177
185
184
186
190
193
191
194
203
204
211
196
194
197
199
195
189
178
187
180
179
196
184
184
187
186
188
189
196
201
202
200
196
200
202
184
183
185
174
174
166
161
161
178
178
183
194
184
174
191
210
188
186
169
211
223
171
159
178
174
178
186
186
185
174
170
197
187
159
151
159
208
219
233
221
218
210
208
190
196
178
178
180
200
191
183
187
179
182
160
169
196
183
180
186
184
196
183
192
203
207
209
205
206
203
199
197
180
193
177
188
185
184
183
179
184
186
184
192
196
192
200
204
207
206
200
193
184
169
178
159
166
165
170
165
181
178
183
181
186
175
206
210
185
191
174
214
236
195
160
184
179
176
180
184
185
171
174
199
187
155
154
154
204
211
224
211
217
205
204
198
193
180
190
192
212
193
175
183
189
182
163
163
190
196
195
177
186
187
170
195
196
212
218
217
211
202
206
193
190
190
193
199
193
195
188
189
188
189
193
191
202
209
212
212
217
208
186
184
181
158
163
155
169
162
175
177
182
175
177
177
172
178
214
209
180
220
182
214
224
211
176
191
169
194
178
175
188
172
177
194
202
156
156
159
186
212
233
205
209
214
208
194
184
190
188
197
210
175
176
181
188
180
166
165
179
188
202
188
182
179
180
181
177
201
210
216
214
213
211
201
202
194
192
193
200
196
194
194
193
192
195
202
213
213
216
207
201
196
177
179
165
160
163
166
170
172
180
176
183
174
179
181
176
174
221
210
176
211
201
222
213
221
203
194
177
187
189
179
181
182
183
188
202
158
144
156
200
233
230
207
206
220
207
192
190
181
175
205
207
177
188
194
191
168
161
176
183
183
195
196
194
185
185
176
170
180
185
204
204
210
210
207
213
215
200
200
203
201
203
196
199
202
206
200
216
209
197
189
188
185
178
174
171
166
170
172
174
179
184
177
178
183
163
207
180
182
236
207
175
211
210
212
207
231
210
205
188
184
185
179
175
182
190
191
208
171
164
164
200
232
209
207
188
204
199
180
188
178
170
205
214
194
195
199
195
164
169
176
187
196
187
197
197
193
188
176
170
173
171
184
189
199
204
210
209
211
211
206
217
199
209
195
199
202
203
191
193
192
177
180
185
174
182
182
177
173
180
181
182
181
183
179
176
173
163
194
214
204
240
189
177
215
202
206
204
214
232
215
192
194
184
177
186
187
188
193
203
179
166
178
199
206
190
194
178
199
189
169
189
185
157
203
214
202
205
209
197
175
180
193
181
196
190
191
195
195
192
192
170
177
169
174
178
179
187
201
199
200
200
199
208
200
201
196
194
199
188
182
181
179
177
174
179
185
189
198
183
181
185
188
182
178
173
169
171
171
162
197
243
231
220
181
180
211
208
198
202
207
229
231
212
195
184
176
190
196
183
190
197
177
160
172
175
189
201
189
180
181
175
179
175
202
151
197
227
201
203
213
202
174
194
202
187
195
187
191
199
189
193
199
184
181
170
173
174
178
176
190
188
194
193
193
197
189
196
195
196
199
196
186
179
179
180
183
189
193
193
189
183
181
180
186
177
177
171
164
173
173
163
227
241
250
205
182
176
220
206
195
187
215
223
223
226
208
191
180
195
190
179
187
196
169
164
162
169
182
186
176
167
175
171
181
188
199
175
192
234
208
193
216
219
183
201
211
191
202
178
185
202
190
194
191
186
190
179
172
176
181
181
187
177
185
184
185
191
191
190
182
187
184
183
187
182
178
190
190
198
188
188
190
181
186
180
182
177
164
166
170
171
181
178
235
241
255
205
174
179
211
205
189
194
210
222
217
210
221
201
205
197
187
182
186
183
179
160
153
