P2
# Face with average contibution
92 112
255
180
183
182
180
178
178
180
179
178
179
178
179
184
181
187
190
192
187
184
187
195
197
196
200
197
198
199
197
191
190
187
189
193
196
196
198
199
196
199
200
200
199
202
196
196
201
202
206
203
206
203
202
202
197
194
195
195
195
193
197
196
192
192
199
194
193
190
189
193
192
189
185
181
181
182
176
172
172
174
177
180
174
174
173
177
177
178
174
174
174
175
174
180
182
182
180
184
181
183
178
178
178
177
185
184
182
187
187
184
187
171
191
201
204
199
196
193
194
192
190
193
191
193
197
200
198
196
197
197
198
200
196
199
204
205
205
199
198
203
205
206
212
211
204
204
202
200
196
200
192
200
196
196
196
193
195
193
196
195
190
193
195
189
189
181
180
184
179
170
170
174
173
183
178
173
173
173
177
174
176
173
173
173
173
182
184
188
184
182
184
182
179
178
180
179
191
185
189
189
188
187
189
181
197
204
204
194
191
191
192
194
197
199
203
201
198
198
193
192
196
199
200
206
205
202
207
206
208
203
202
207
206
205
209
209
207
204
207
210
203
205
197
202
203
201
203
197
198
194
199
197
197
193
194
195
188
184
178
181
181
175
171
170
172
179
181
172
171
175
175
174
174
173
175
173
173
184
184
185
180
182
184
180
181
183
181
183
194
188
192
190
189
194
194
196
199
205
203
195
195
195
193
195
199
201
202
201
201
200
197
194
200
199
204
208
211
208
205
209
207
207
206
216
212
211
209
211
211
212
210
212
212
207
204
205
205
209
210
203
201
196
203
195
197
198
194
197
186
187
178
171
176
181
173
169
171
176
179
174
169
176
175
172
175
176
173
175
172
183
183
181
179
182
185
185
182
183
181
189
193
191
191
189
194
204
203
202
202
200
206
202
198
199
199
203
200
202
201
204
204
207
208
209
207
212
213
214
212
212
209
212
213
214
212
213
218
215
214
212
216
215
214
212
213
209
207
212
215
219
211
210
203
205
204
199
199
201
202
197
187
193
186
168
173
178
178
172
170
175
179
173
172
174
174
172
172
180
172
176
174
179
182
182
180
183
188
186
185
189
191
195
196
194
193
197
202
206
199
199
202
207
203
205
212
205
211
209
207
210
210
208
210
213
211
212
214
219
215
217
216
211
209
209
216
218
215
213
216
215
214
217
220
219
216
217
216
211
213
215
217
223
221
218
214
207
214
206
204
201
209
205
195
190
189
177
166
173
176
177
173
172
176
172
176
175
174
173
172
179
175
176
176
181
182
179
180
185
189
188
186
193
198
200
194
204
199
200
206
207
194
199
203
203
203
208
216
208
210
209
209
215
213
212
214
216
211
214
217
217
213
215
217
217
213
216
221
223
222
222
220
218
216
217
220
218
217
219
218
216
218
215
219
223
218
219
219
215
212
213
209
206
205
210
206
197
192
188
179
171
172
176
172
173
176
173
176
175
171
170
174
177
175
175
176
179
183
185
184
186
190
190
191
189
193
200
201
204
200
204
203
204
199
205
200
202
204
210
205
208
215
213
213
216
216
213
216
217
213
219
218
216
214
213
211
218
218
222
226
227
224
226
224
225
226
220
217
215
216
215
219
219
220
217
213
220
218
220
215
220
214
214
220
211
209
207
209
207
195
190
190
177
171
177
173
173
180
174
173
175
172
172
172
177
175
174
175
180
182
182
187
190
191
192
195
191
195
201
203
203
203
202
201
197
198
205
202
206
199
197
197
206
211
213
216
214
212
214
218
219
216
219
219
217
216
218
220
220
223
227
223
224
227
228
224
221
222
218
219
219
218
216
217
214
216
216
213
216
216
212
213
213
215
219
220
218
215
212
206
207
204
193
186
179
175
170
173
173
178
176
176
180
182
173
168
174
175
173
176
182
181
184
188
190
192
193
195
196
202
204
197
197
197
200
197
192
197
204
204
198
194
195
199
202
205
207
206
210
211
211
211
212
217
218
220
221
221
220
223
223
226
226
223
223
224
222
223
219
217
212
220
220
218
217
216
212
213
217
214
219
214
209
212
208
211
214
216
217
221
216
212
202
203
204
185
185
177
172
171
172
181
175
172
179
182
175
165
173
176
175
177
179
180
183
189
196
191
193
197
199
203
196
191
192
196
197
194
196
195
200
195
194
199
200
201
201
200
202
204
207
207
207
209
211
217
214
218
219
218
215
216
214
219
218
216
216
218
212
208
211
209
213
215
216
215
211
210
209
211
212
213
212
220
210
209
209
206
207
209
216
218
220
216
208
204
205
202
186
184
173
172
167
177
174
168
175
179
171
173
175
174
175
177
175
183
177
184
196
192
189
195
203
197
192
189
187
196
195
193
196
196
192
191
195
197
197
198
202
201
203
207
203
206
206
210
211
210
209
212
211
209
209
209
211
211
209
209
208
208
203
200
206
205
208
209
210
214
209
203
206
206
206
203
210
215
216
209
209
205
205
206
210
217
219
220
217
211
205
205
196
186
176
174
173
176
175
171
177
174
174
171
175
174
173
177
178
180
177
185
193
187
189
194
195
190
189
189
188
190
194
192
192
189
187
197
197
195
195
194
195
191
193
202
196
200
202
204
205
206
206
206
205
204
201
203
204
202
205
203
204
201
201
199
198
199
201
203
204
203
206
201
202
203
202
200
200
207
213
210
206
207
208
209
211
212
217
217
221
217
206
202
204
198
181
179
173
172
174
176
171
175
174
173
174
178
173
178
180
176
183
190
189
183
191
189
188
187
184
182
183
191
192
187
183
180
188
194
190
194
192
192
190
189
193
192
195
198
199
202
202
205
202
204
203
201
202
200
200
195
197
195
195
197
193
194
193
190
191
196
197
200
202
200
201
200
199
196
197
200
203
208
204
203
207
209
211
214
211
213
219
222
213
204
198
201
200
178
180
169
173
171
171
168
176
175
173
177
180
176
180
175
189
189
188
187
190
184
184
179
177
178
190
191
190
182
176
184
188
187
189
190
189
190
190
193
194
194
197
197
200
201
198
197
198
196
198
201
201
196
197
193
192
188
187
189
187
190
187
186
186
189
188
191
198
194
195
195
196
194
194
195
198
201
202
200
205
207
206
212
213
210
214
221
216
209
197
197
206
189
182
171
172
172
166
166
171
175
176
175
179
177
176
182
182
189
185
186
182
178
170
176
180
185
188
190
180
174
175
184
185
186
186
185
189
190
192
191
193
192
192
191
192
193
190
189
192
188
191
196
195
195
191
191
189
187
185
185
181
182
183
181
182
185
183
187
186
188
187
189
186
184
188
192
191
193
194
190
196
197
199
204
207
209
212
214
220
215
201
198
200
199
182
175
178
176
169
164
171
173
177
178
176
179
171
185
182
184
185
183
174
168
173
179
182
185
185
180
174
174
178
182
179
181
180
181
186
189
185
188
186
182
182
182
183
184
183
185
186
182
187
188
191
190
187
185
184
183
184
183
181
180
177
175
175
178
178
182
185
183
184
185
183
176
179
189
186
188
189
187
188
190
191
198
203
202
203
212
218
218
206
198
195
202
194
182
179
180
171
164
167
177
172
179
181
178
170
185
188
176
181
179
172
173
177
177
179
182
178
172
169
169
173
176
179
176
178
179
180
181
182
182
177
175
177
177
179
178
179
181
178
179
180
187
188
186
183
180
185
182
181
181
178
178
173
173
173
171
173
174
176
178
181
184
180
175
177
183
183
184
185
186
185
183
187
191
193
198
201
205
212
215
210
204
199
199
196
191
178
181
176
164
164
172
174
172
185
185
173
185
184
174
180
177
171
176
178
178
177
177
168
168
162
164
172
176
174
172
174
176
178
181
176
174
175
174
172
173
173
173
175
179
176
176
176
181
185
182
176
176
176
178
178
177
174
174
169
167
168
164
165
173
173
173
177
180
180
177
177
179
177
179
180
178
184
183
185
186
192
194
196
200
203
211
206
208
204
198
197
196
185
178
175
170
165
164
171
172
178
184
183
187
177
179
181
176
173
180
173
174
175
167
159
159
158
165
170
171
170
169
171
173
175
174
171
172
171
169
173
171
170
171
173
174
176
176
177
178
179
179
174
172
168
171
174
173
170
170
166
167
162
164
164
166
169
172
173
175
176
175
177
177
179
179
178
179
182
179
179
185
191
196
190
194
198
202
205
206
200
202
200
194
194
182
173
176
165
165
167
174
177
183
187
186
182
185
179
170
173
176
168
166
164
155
150
153
160
165
165
165
169
167
170
170
169
169
167
168
167
168
170
169
167
169
170
171
171
174
176
176
175
175
172
171
169
170
167
171
166
163
164
160
161
162
160
161
166
167
173
172
176
175
182
183
186
182
174
177
181
175
174
181
187
194
190
190
193
197
203
207
200
204
200
201
196
186
172
176
168
165
173
173
177
181
183
187
188
181
171
170
176
167
161
159
153
151
149
155
157
159
162
164
167
165
165
166
165
165
162
164
165
164
166
164
167
167
168
169
168
170
171
172
171
169
170
169
168
167
163
167
165
162
162
160
163
162
162
161
164
165
169
170
172
172
179
181
182
184
180
177
178
177
174
178
186
193
188
189
190
194
197
206
201
206
202
199
203
187
173
179
173
168
174
173
176
182
180
188
182
180
170
170
168
162
156
156
147
149
150
151
155
154
165
162
163
163
161
160
162
159
160
160
163
162
163
163
166
166
167
169
168
168
171
173
170
170
169
169
166
165
164
164
161
159
162
160
160
161
163
162
162
164
164
165
169
172
175
181
184
183
183
185
179
176
175
177
185
189
189
186
191
189
194
202
198
202
206
199
205
191
175
177
179
173
174
178
173
182
186
184
177
178
166
163
165
161
151
147
145
149
150
146
148
157
157
160
160
159
157
159
159
158
159
159
161
162
162
162
166
166
166
169
170
172
172
174
170
171
169
168
169
166
164
163
159
159
158
159
157
159
161
163
161
166
165
165
166
168
174
180
182
184
181
187
181
174
179
177
182
187
186
186
188
189
193
199
196
202
202
200
208
196
180
176
181
174
176
174
178
182
187
178
177
175
161
161
166
157
150
150
148
148
145
143
149
155
156
159
156
155
154
156
159
158
160
158
161
161
161
163
166
169
170
173
173
176
174
175
173
174
173
172
172
173
168
166
162
160
159
157
158
159
161
160
160
163
166
167
164
164
168
174
177
182
180
184
185
178
177
177
183
186
184
184
185
187
192
197
192
197
201
201
205
203
180
175
182
180
175
176
173
185
182
174
175
170
161
161
161
154
149
153
145
142
140
142
150
153
158
157
153
152
152
157
156
160
159
157
161
160
164
166
168
173
176
176
178
177
177
175
177
176
176
177
174
173
171
165
165
162
159
158
157
157
159
161
162
159
162
166
165
161
165
168
174
175
180
183
186
184
179
178
184
185
184
180
182
184
185
196
195
193
199
203
205
207
185
174
182
179
174
177
175
178
182
170
177
165
157
163
156
150
150
147
138
142
139
143
150
153
153
152
149
146
149
156
154
155
157
158
156
161
165
169
171
174
174
177
176
175
178
176
179
176
176
180
177
176
171
169
167
162
160
160
155
156
158
158
159
157
163
162
163
162
164
165
169
171
179
179
186
184
182
180
184
185
183
178
179
184
181
189
195
190
194
197
207
206
190
174
184
171
179
181
177
177
176
169
176
162
162
160
155
150
146
138
139
140
142
142
149
153
151
149
149
145
147
149
150
152
154
156
158
165
167
169
171
171
170
171
172
172
173
176
175
175
177
176
182
177
174
171
169
166
161
161
157
155
153
152
154
157
159
159
158
159
162
163
166
170
176
176
182
185
184
181
185
184
183
180
172
183
180
184
192
187
192
197
204
204
190
173
186
172
179
181
179
179
171
168
171
166
165
157
149
142
141
137
136
142
141
142
148
150
150
148
149
149
148
144
148
148
153
156
160
164
168
170
171
171
171
168
170
171
172
172
173
172
173
174
179
176
173
173
170
168
162
159
158
156
152
152
153
152
153
153
152
155
160
161
165
170
175
174
181
183
180
182
188
188
183
180
175
178
182
182
189
187
188
197
200
203
193
181
180
178
178
179
177
182
164
163
164
171
166
153
143
139
140
135
137
139
134
142
143
149
148
147
150
152
149
145
146
150
153
156
159
161
165
168
169
171
171
170
172
174
173
173
172
170
170
173
175
175
172
176
172
170
162
158
159
155
153
152
151
150
150
147
150
152
159
160
165
169
171
172
179
180
176
179
188
191
183
182
179
176
183
185
184
185
183
192
203
198
198
180
177
175
176
179
173
180
162
163
170
170
163
146
141
140
135
135
134
133
136
140
145
149
151
155
156
157
153
147
149
154
153
157
161
163
165
167
169
172
173
173
173
177
174
174
175
172
172
172
172
175
173
175
170
168
161
160
158
154
151
149
148
151
149
150
152
154
159
160
165
167
169
172
176
181
179
176
186
188
186
183
183
176
182
184
180
183
181
191
199
200
198
183
172
175
177
175
173
175
162
166
173
169
161
142
139
139
135
134
132
131
138
143
147
153
157
159
157
159
154
152
154
155
154
159
163
166
169
170
172
172
177
176
178
179
178
177
179
176
174
171
172
177
174
175
170
167
160
161
157
156
150
150
154
157
157
158
163
160
162
164
168
170
171
172
176
180
182
181
185
190
188
186
179
184
181
182
177
182
179
183
194
197
195
188
170
178
178
175
174
174
166
171
173
169
162
144
138
140
135
135
128
129
139
144
152
158
158
159
159
159
157
157
160
161
162
163
167
169
171
174
174
177
179
183
183
183
184
181
181
180
178
173
173
177
177
173
169
167
160
163
161
161
157
165
167
169
168
169
171
171
169
171
175
177
177
179
182
185
186
186
188
187
189
185
184
182
186
183
175
179
178
180
189
187
188
198
178
179
174
174
174
179
169
174
172
169
163
145
141
137
133
129
129
132
140
144
155
158
158
163
165
169
168
170
172
175
172
173
174
173
172
173
178
181
180
183
189
189
190
186
181
183
181
178
176
176
177
171
168
168
166
168
169
170
168
170
175
177
179
178
179
180
180
182
182
186
184
186
190
192
191
193
193
190
186
187
186
187
182
187
173
178
179
175
187
181
180
194
184
181
173
175
172
180
171
172
170
174
165
141
137
135
132
129
130
138
142
148
158
161
160
167
172
171
172
178
178
178
176
180
182
188
185
180
184
192
185
182
186
179
181
180
178
181
182
175
176
177
177
178
178
178
175
179
179
175
177
178
180
183
187
184
184
182
184
180
185
190
192
192
196
197
196
194
194
194
190
185
185
187
183
182
175
174
177
173
178
180
181
187
188
180
177
178
170
173
171
167
171
177
160
141
131
138
136
128
130
139
144
149
157
160
163
175
181
181
179
175
176
179
178
180
179
185
178
176
176
187
185
178
180
172
172
174
172
171
179
171
170
172
170
173
174
176
172
180
180
184
184
192
189
191
197
196
193
191
191
191
193
190
193
198
195
199
195
197
196
195
190
187
188
190
190
181
180
172
176
173
176
177
186
182
184
183
176
181
169
166
178
167
178
173
166
139
134
140
138
133
134
142
143
149
166
170
180
181
181
177
174
175
181
184
183
180
180
176
172
170
171
175
176
176
170
167
171
176
175
175
183
173
170
169
172
173
170
175
180
181
182
184
189
188
188
182
189
193
187
188
186
188
191
190
191
187
188
194
192
191
188
190
185
184
186
187
188
181
184
175
178
180
178
172
188
184
177
184
179
181
171
165
184
176
177
178
167
135
136
141
141
132
143
144
155
160
166
173
180
173
178
177
178
177
177
177
169
165
171
169
166
172
171
178
176
183
183
174
182
184
183
178
182
181
174
174
172
177
175
180
187
186
181
181
183
187
187
177
181
173
172
172
170
177
183
186
188
186
185
188
189
189
184
184
184
181
181
183
187
183
177
176
169
186
188
181
184
186
180
179
183
178
179
161
188
179
184
182
166
137
138
144
135
137
145
157
157
156
167
179
175
176
174
172
169
169
166
166
163
163
165
176
164
164
167
173
185
187
192
181
189
190
187
181
177
178
181
176
175
179
181
186
188
181
181
179
184
188
190
165
165
164
167
173
174
178
181
180
184
183
182
182
184
183
186
183
185
183
181
186
187
186
179
175
176
186
188
185
191
197
191
181
182
175
176
169
177
184
184
185
165
140
140
134
134
140
158
151
153
158
177
181
175
174
169
160
164
167
168
166
167
174
174
190
178
172
171
179
193
191
191
186
184
187
189
190
195
186
187
182
181
183
186
189
190
185
185
185
188
188
194
182
180
180
181
182
191
187
188
185
186
187
185
187
188
191
190
190
187
188
181
184
182
185
190
172
174
188
189
180
196
208
203
187
184
174
176
176
175
178
190
185
161
147
141
127
134
150
150
153
158
168
182
178
178
173
164
166
172
172
179
175
176
180
186
196
191
183
183
183
195
196
197
196
183
194
197
199
202
201
189
177
182
186
184
185
195
193
188
188
182
192
192
190
189
191
195
196
206
195
188
188
200
196
198
198
196
191
189
187
185
174
175
172
175
172
178
174
168
180
184
182
198
207
205
192
184
175
176
172
183
172
184
189
163
149
135
131
141
149
145
153
165
180
179
187
185
178
175
181
186
186
180
174
178
180
184
187
187
183
187
187
195
197
192
197
190
189
198
200
198
197
195
168
175
175
170
179
191
202
201
196
191
196
198
198
196
200
209
205
212
195
192
192
205
203
206
204
198
193
192
186
184
182
170
177
176
163
170
170
170
165
172
177
196
204
197
191
181
180
163
173
181
171
182
189
176
145
140
146
151
151
156
161
179
182
191
196
191
186
192
197
186
178
177
179
183
190
196
194
196
189
188
184
186
193
187
187
187
183
189
194
197
194
183
187
186
185
192
187
200
208
211
205
201
198
203
204
204
204
202
199
205
195
187
195
205
201
201
199
188
195
193
189
191
204
185
168
183
175
174
185
180
178
164
169
184
203
196
187
188
177
158
171
183
171
191
190
173
153
149
144
152
153
158
168
186
180
191
199
199
200
202
204
200
189
198
191
192
200
198
192
187
185
186
183
174
192
189
185
189
183
188
193
193
191
188
194
193
191
190
190
194
198
202
203
198
198
205
202
196
199
208
202
212
207
196
194
194
201
196
199
200
202
193
179
181
188
180
166
179
171
178
187
175
177
166
168
181
193
199
185
183
177
158
166
187
181
183
190
167
168
157
143
163
158
164
164
181
180
198
198
203
202
206
210
206
206
212
192
193
197
200
193
188
184
191
175
184
187
193
192
192
198
207
197
196
194
190
192
185
185
197
193
187
193
195
205
201
200
204
202
202
208
211
204
205
222
204
200
195
200
199
196
198
200
199
191
175
176
168
164
185
175
186
189
174
169
161
171
172
191
197
186
182
173
160
168
186
182
183
181
168
169
164
160
165
154
170
178
188
185
203
210
206
210
206
216
216
210
202
191
189
195
209
201
191
185
187
177
188
181
189
198
204
205
205
195
186
194
189
179
175
184
193
186
185
197
199
203
211
204
207
209
205
208
210
199
211
223
208
216
205
206
207
193
198
185
176
197
190
179
172
171
191
189
191
188
179
165
170
168
165
183
198
186
179
170
165
172
194
190
180
181
163
169
166
169
178
160
182
180
187
189
202
208
204
205
211
215
201
196
198
193
188
189
205
205
198
188
185
178
181
179
189
196
201
200
203
193
186
195
201
182
180
194
198
191
198
201
200
202
210
214
200
211
203
202
204
195
197
221
206
214
211
208
199
197
195
173
176
189
200
193
183
184
189
186
187
182
176
165
171
167
167
189
197
182
179
167
168
164
201
205
190
181
163
167
171
177
174
169
178
173
185
195
204
198
194
203
207
203
197
191
192
187
193
197
200
185
198
196
196
186
185
185
180
187
196
195
189
186
183
198
202
185
185
199
198
193
196
193
187
207
202
212
196
196
201
200
198
201
207
211
219
214
210
210
202
199
196
194
188
182
187
193
187
188
186
181
182
172
174
166
159
168
178
193
196
183
172
171
160
159
198
211
200
180
162
163
177
178
171
175
186
179
190
197
195
192
196
198
199
202
200
203
194
192
196
197
194
182
186
193
191
185
186
184
170
183
186
186
185
184
186
200
198
183
184
192
200
182
186
183
177
195
202
202
204
194
189
194
194
193
201
208
216
219
208
206
199
191
192
192
189
180
182
185
183
191
189
186
184
175
165
168
144
172
180
196
193
186
167
167
157
152
197
221
204
178
169
162
169
170
181
183
195
188
198
195
196
190
193
200
190
192
195
200
199
197
193
189
191
180
181
187
189
182
186
179
177
191
182
171
183
184
185
205
207
198
186
187
192
175
181
177
172
187
202
196
206
195
188
187
185
180
188
198
207
212
207
201
197
188
185
183
181
179
183
186
187
196
193
194
191
179
161
172
140
166
182
196
198
186
168
154
148
145
200
212
216
185
176
168
165
172
189
191
194
187
194
194
198
188
188
201
187
180
188
195
200
193
192
179
183
178
180
181
184
184
176
176
182
183
176
176
185
182
194
203
206
201
196
181
190
176
179
176
167
174
188
192
200
185
180
183
175
173
180
184
192
198
199
192
197
187
185
179
179
183
179
187
188
195
192
200
196
185
167
176
139
157
180
197
209
190
173
159
134
138
209
209
214
189
182
174
174
174
192
195
191
184
201
195
199
185
188
199
195
183
184
190
186
193
193
185
182
175
173
169
169
177
167
164
176
175
169
172
185
183
203
198
202
195
199
184
179
181
184
179
174
177
177
199
195
186
183
177
171
173
180
179
185
193
195
194
194
185
183
177
182
186
180
182
185
193
187
194
195
185
168
173
140
150
182
199
212
186
175
167
130
132
212
206
207
188
183
177
179
169
194
194
188
183
204
191
190
188
189
194
189
183
180
180
181
182
188
179
176
173
167
160
159
166
160
170
177
177
172
176
181
192
207
200
200
198
196
191
174
181
185
181
177
174
174
186
194
180
181
176
168
167
170
174
175
185
189
184
189
181
177
178
178
183
182
177
185
190
188
191
190
188
178
165
145
156
189
201
207
181
181
172
128
133
215
210
205
188
180
179
178
161
190
188
186
180
200
198
185
182
192
193
191
186
182
178
180
179
184
183
179
176
170
167
163
160
165
175
176
174
174
179
179
200
195
191
191
190
191
193
191
175
181
176
172
168
175
176
194
180
177
179
170
167
165
171
171
178
184
179
183
179
172
173
173
182
185
180
190
190
185
191
188
177
181
161
147
157
188
198
203
181
185
173
133
142
213
214
205
191
179
183
173
160
182
186
182
180
189
203
185
180
186
194
190
183
182
181
181
183
186
185
179
172
166
165
166
159
173
174
180
171
173
179
185
189
179
180
185
182
186
192
197
191
176
182
175
174
172
175
186
190
176
178
175
170
167
174
177
179
180
183
184
178
177
173
173
179
180
178
187
187
176
184
187
176
185
155
141
161
182
193
190
182
183
172
135
148
209
215
205
191
171
183
170
162
169
190
178
173
181
200
191
180
188
194
189
187
184
180
176
178
179
176
177
171
163
158
151
170
168
171
180
174
170
177
184
177
180
181
187
182
190
195
193
192
181
180
176
182
174
170
184
182
183
175
174
174
170
170
173
170
175
179
178
178
178
172
170
174
170
176
182
183
174
175
177
181
173
151
136
159
187
183
181
174
174
158
139
151
196
219
212
196
176
175
174
162
170
184
180
172
180
189
203
186
183
186
181
182
181
176
174
173
171
171
168
162
157
148
153
167
163
167
176
174
175
182
172
174
184
184
185
182
192
190
187
193
182
180
168
176
173
170
179
184
181
180
175
172
167
168
174
168
170
167
170
173
172
166
170
167
164
170
174
178
172
170
177
176
166
150
138
156
183
173
191
166
169
145
142
157
186
212
221
199
185
178
172
175
169
174
171
177
178
182
188
183
190
177
176
177
180
176
177
175
174
173
169
164
157
156
164
165
162
165
171
178
178
168
163
175
178
180
176
175
186
185
187
186
178
179
177
167
164
169
179
181
176
178
186
180
164
164
167
165
166
166
170
171
166
167
164
163
163
168
171
181
182
176
173
164
161
150
138
155
170
181
188
164
164
143
144
159
182
204
224
199
180
177
172
172
172
162
157
165
180
176
176
176
178
177
179
179
179
179
176
174
176
174
165
164
167
161
165
164
162
172
177
171
170
155
166
173
174
172
171
175
176
177
179
178
178
180
176
159
165
165
174
168
172
172
176
187
179
171
173
173
168
167
170
173
169
171
171
172
168
176
182
181
177
171
166
163
160
147
137
147
171
178
174
163
153
137
150
158
184
203
220
201
171
174
179
170
171
160
149
154
165
183
173
171
174
181
177
180
186
185
184
179
173
174
179
182
176
171
162
168
168
164
174
173
163
165
171
173
173
170
176
176
170
171
170
171
170
171
170
152
163
171
176
171
168
166
167
173
175
173
170
175
175
182
180
180
182
179
176
173
167
166
172
171
174
170
167
161
157
148
134
152
159
166
169
162
147
134
153
148
179
200
214
202
166
173
183
171
169
167
143
150
164
168
173
168
169
173
171
171
172
174
174
171
170
168
170
164
167
157
159
165
164
167
167
173
166
167
168
168
166
174
177
172
169
164
160
162
162
161
159
151
158
167
169
171
169
169
167
171
172
177
175
176
177
181
181
180
179
177
181
175
169
166
169
170
172
171
167
158
157
153
141
145
153
164
174
155
138
136
153
150
179
193
210
202
169
167
182
171
169
171
151
146
156
166
170
173
176
180
179
178
177
179
176
170
165
162
162
162
163
165
174
174
173
168
167
172
168
164
164
163
166
172
173
177
172
165
162
159
156
154
147
155
157
167
171
166
169
171
172
166
169
175
177
177
173
175
177
176
173
174
176
177
173
169
169
174
173
177
170
163
161
153
138
142
151
165
176
141
138
138
153
144
177
188
199
195
172
166
175
171
168
171
158
151
156
160
167
170
174
175
175
178
179
179
176
171
166
167
167
168
172
177
184
178
170
172
177
170
166
165
162
161
164
166
173
177
172
166
163
158
155
150
149
153
166
167
174
171
168
171
175
169
166
177
183
180
181
179
180
179
178
180
178
180
179
174
171
177
180
174
164
164
151
145
139
143
149
164
164
144
140
140
153
146
170
186
191
182
170
169
169
175
169
172
166
154
160
164
163
168
174
178
175
170
171
175
173
169
169
173
172
173
178
180
181
183
181
175
175
173
160
163
162
160
158
170
176
171
165
165
162
161
161
157
159
162
171
172
172
174
173
172
177
172
167
178
183
183
183
186
183
178
178
180
174
179
179
173
172
175
177
166
160
159
143
140
144
140
151
159
154
150
149
147
157
150
171
177
191
170
164
173
169
181
173
172
171
157
160
167
169
171
170
174
174
169
172
171
169
170
170
173
172
170
179
180
184
190
187
179
180
177
163
164
164
162
164
178
179
166
162
169
170
165
171
165
167
170
170
170
170
171
181
174
173
178
171
181
179
180
180
181
182
180
176
177
170
174
175
172
174
171
169
157
163
159
133
135
148
146
155
154
150
155
151
148
157
155
176
181
183
166
147
170
170
182
171
170
173
158
158
168
169
172
171
172
173
170
178
182
180
180
180
181
176
180
179
186
189
193
188
182
180
178
169
170
174
172
174
177
174
160
167
173
177
174
172
172
166
167
172
168
174
180
182
183
182
182
178
188
185
183
182
182
179
178
177
180
178
176
176
176
178
174
166
161
163
155
131
136
144
146
152
152
151
152
149
143
159
152
179
183
181
169
137
161
157
177
173
167
171
162
158
163
166
169
171
172
175
178
180
182
179
184
185
185
183
185
188
188
192
188
180
178
173
182
180
182
185
181
175
178
181
170
173
184
187
183
178
176
167
169
168
169
178
193
199
193
196
185
184
188
184
190
186
185
183
184
181
180
181
176
178
183
178
173
167
161
162
154
136
142
142
145
154
150
158
155
145
145
166
163
181
182
181
167
143
151
155
164
164
170
173
166
166
160
166
165
168
170
175
177
179
182
180
181
187
189
187
188
186
188
191
178
179
178
178
175
179
183
184
183
176
179
193
195
184
190
187
185
174
173
170
169
157
159
179
198
195
193
193
194
191
185
180
185
188
188
188
190
185
182
184
179
179
177
173
172
164
161
160
147
138
151
148
149
161
160
160
151
139
151
171
168
184
186
181
168
147
153
145
150
157
165
174
167
171
162
166
166
172
177
177
177
183
184
185
184
189
192
192
188
186
187
186
177
180
180
179
173
168
179
178
184
180
181
194
201
196
189
184
180
179
181
174
167
162
165
183
189
187
187
190
195
186
187
185
183
189
193
197
199
185
183
182
177
178
176
173
170
165
163
158
143
149
155
152
155
165
172
157
147
139
157
170
168
190
185
183
170
150
148
147
141
143
159
166
163
169
162
169
170
172
175
176
179
182
184
187
189
192
193
194
189
190
189
181
183
178
179
178
176
167
178
182
186
190
186
192
192
191
192
189
187
190
187
180
175
166
168
172
178
177
181
185
189
182
185
185
189
188
192
192
189
179
177
177
179
179
173
171
166
166
157
160
144
154
153
157
155
166
178
154
141
136
152
172
167
191
184
183
181
158
142
146
146
140
152
160
162
163
163
168
172
172
172
177
179
181
189
191
192
193
193
195
188
196
188
186
183
180
180
179
173
170
179
181
189
195
197
187
188
190
190
190
189
193
192
185
180
171
177
171
181
176
183
178
179
179
176
185
192
196
199
195
190
185
180
180
180
179
178
174
166
165
161
154
138
148
152
156
157
168
171
148
141
139
150
170
166
192
183
177
182
169
145
142
146
141
153
160
167
159
163
166
173
170
171
178
180
187
195
192
194
194
194
193
192
192
185
186
183
182
177
175
173
177
174
174
182
192
193
184
186
189
188
189
182
182
186
179
175
176
173
175
174
176
178
181
184
181
173
182
189
195
199
189
186
188
187
184
184
180
180
176
168
164
166
150
136
143
147
156
156
163
162
143
145
140
158
170
166
197
190
177
172
172
151
141
143
140
150
162
169
159
165
164
169
167
169
176
179
189
199
197
198
196
198
198
194
189
182
186
182
183
177
172
172
177
172
174
179
188
187
185
186
189
190
183
174
173
179
179
172
171
165
175
168
177
177
176
184
183
176
176
182
188
194
189
187
188
187
185
185
182
180
179
171
164
163
148
136
138
140
149
150
159
153
147
143
141
160
171
168
201
195
185
172
173
151
150
148
140
151
158
171
162
162
165
168
170
170
177
181
190
200
206
205
201
204
201
193
186
187
184
180
182
174
176
175
169
173
173
182
179
185
181
181
183
180
178
166
165
167
167
168
161
166
176
171
180
183
182
179
182
178
173
173
180
190
189
185
189
189
187
186
182
182
180
171
165
162
146
136
135
137
142
146
158
153
146
140
141
165
172
165
202
196
188
175
173
152
151
156
148
153
157
171
166
164
165
176
172
172
178
181
188
204
206
208
205
204
203
193
193
188
182
179
178
177
181
173
168
165
169
176
171
175
178
177
177
174
176
169
159
153
154
157
152
158
166
171
187
189
188
183
180
175
174
174
173
184
190
185
187
189
191
186
184
183
178
169
164
158
142
139
132
135
139
146
160
150
142
143
146
167
169
164
200
195
187
174
178
155
153
159
148
150
156
165
168
164
171
179
175
175
177
184
188
204
206
205
205
204
206
197
197
188
183
179
177
179
185
172
159
156
161
159
163
162
165
168
172
170
167
164
158
158
155
160
157
164
168
176
184
190
192
189
182
180
176
173
172
179
187
191
186
187
188
185
182
184
178
168
164
158
143
140
136
135
136
150
157
150
141
145
151
167
167
160
193
191
189
177
182
158
153
161
155
152
156
159
169
166
172
176
178
175
180
185
192
203
204
203
206
209
207
203
205
199
202
194
188
190
198
187
174
165
159
159
158
154
159
163
171
171
166
167
165
168
171
171
175
176
186
186
185
188
193
191
189
186
180
178
171
178
180
188
187
184
186
184
182
182
174
167
165
154
145
145
137
135
138
152
161
145
144
147
154
165
165
161
192
189
189
176
184
168
150
159
162
156
156
157
171
170
171
173
180
178
181
186
194
200
201
200
207
211
206
205
209
209
209
203
198
201
199
199
188
174
166
168
169
165
168
168
178
180
178
174
173
173
177
178
181
181
187
192
192
194
191
192
190
192
185
184
174
174
178
185
191
183
184
181
186
178
173
166
164
150
149
147
136
132
141
154
157
142
148
148
154
162
165
165
200
193
183
180
184
175
153
155
168
161
157
158
167
174
168
172
179
182
183
187
196
201
199
199
205
214
204
210
216
212
210
206
203
198
199
196
190
185
183
178
177
176
179
177
182
185
179
181
181
178
181
182
185
186
189
194
199
198
192
190
189
196
196
184
186
180
180
184
191
183
181
179
182
176
172
168
164
146
150
146
130
132
146
164
157
144
151
149
154
165
161
170
202
195
188
182
177
183
158
158
169
169
161
160
165
176
169
171
179
183
187
187
193
197
197
198
201
205
203
212
218
217
212
207
204
199
199
197
190
195
198
191
193
193
187
189
190
187
185
188
186
185
191
193
195
191
198
201
204
211
202
203
198
202
204
196
193
189
188
186
192
186
180
176
184
179
175
172
163
147
152
148
131
138
156
165
159
151
151
144
161
162
164
168
196
197
195
185
174
186
168
165
168
174
165
159
161
173
173
174
179
185
189
189
193
198
197
198
200
199
202
212
216
220
215
213
207
206
206
202
203
210
215
209
211
207
199
194
195
189
192
194
190
188
190
192
198
188
198
206
204
207
206
206
207
209
205
204
196
193
192
188
190
186
182
181
183
182
181
173
163
149
157
148
138
146
162
169
160
152
146
147
164
161
166
171
191
197
197
190
179
188
182
169
170
176
166
159
159
166
176
181
182
186
187
189
193
194
194
195
196
197
194
209
220
217
214
212
212
207
204
200
207
217
218
214
221
213
202
197
191
189
191
198
194
187
187
186
191
187
190
198
190
193
196
198
204
203
201
204
196
190
190
187
187
181
183
182
182
187
181
173
162
150
156
146
146
158
164
169
155
150
139
151
167
162
167
171
191
193
196
193
185
185
183
173
169
175
171
163
165
161
175
186
185
187
189
188
191
192
195
199
192
187
196
208
214
211
206
206
206
205
199
196
199
205
214
212
216
219
214
205
201
193
195
193
194
185
188
181
182
184
190
188
182
196
196
194
195
189
194
192
187
187
186
188
186
184
181
178
181
190
184
172
160
157
153
143
150
160
165
164
152
146
142
154
163
163
165
169
192
191
195
193
188
181
184
176
169
171
171
166
165
162
175
185
187
192
189
187
191
193
203
206
196
191
198
206
208
202
199
198
201
200
199
196
193
193
193
193
199
206
206
205
202
193
198
194
191
184
186
179
179
175
183
179
179
187
186
180
190
179
180
179
172
177
181
182
183
181
179
174
179
188
185
171
165
160
150
143
152
160
164
157
146
150
145
157
159
161
164
168
194
191
193
193
190
184
185
181
170
166
172
165
160
164
172
183
190
190
194
189
191
201
207
210
200
196
209
207
202
196
194
191
195
198
197
193
193
191
184
180
187
189
183
185
188
176
175
185
178
174
171
167
170
169
175
172
174
182
180
175
180
173
175
174
167
172
174
176
181
178
176
179
176
190
180
169
164
159
146
147
154
165
163
157
146
147
153
156
157
160
165
168
195
194
190
197
189
187
190
177
170
170
171
166
158
164
166
180
189
190
194
194
197
208
210
209
204
205
209
207
204
202
196
188
190
195
193
193
189
188
182
181
178
185
181
172
175
164
161
172
167
167
168
168
172
171
179
177
181
181
182
174
176
171
175
178
171
175
174
172
179
176
176
176
180
182
174
166
163
150
148
152
156
165
163
157
148
147
158
158
152
161
168
169
194
196
194
195
193
188
187
167
171
171
172
167
161
162
167
176
189
187
191
194
199
209
211
207
204
205
207
206
200
202
197
190
187
189
190
185
188
182
174
173
171
180
178
177
178
175
171
171
165
165
166
175
176
170
177
174
176
178
174
175
167
170
168
173
170
176
177
173
177
175
176
177
179
180
171
169
156
147
149
151
156
166
162
155
147
151
160
162
150
161
168
171
191
195
195
195
198
189
173
170
178
171
174
174
164
165
164
180
186
182
188
188
198
207
206
209
205
203
204
200
197
196
189
185
183
181
181
174
178
175
169
171
170
180
177
182
187
180
178
173
172
167
160
165
167
166
169
173
175
176
175
173
174
170
169
179
173
173
176
177
179
172
175
178
178
174
172
170
151
148
153
154
158
164
158
151
147
160
159
160
155
156
170
173
190
198
200
200
204
188
172
175
179
178
173
176
171
166
167
177
182
182
186
185
191
200
200
207
204
203
205
199
193
190
186
181
183
182
178
177
178
173
173
170
176
178
179
179
188
187
188
181
176
168
166
166
164
165
168
172
178
174
171
174
175
171
174
180
179
173
178
178
183
178
179
180
181
176
172
166
153
152
155
160
163
166
157
150
158
161
162
161
158
157
172
173
193
199
201
208
202
186
178
179
180
188
179
174
176
172
161
172
181
183
187
186
188
197
196
198
196
199
197
195
192
186
183
186
190
190
191
187
184
180
179
176
172
173
174
175
172
176
175
171
170
165
165
161
166
163
168
169
174
174
174
174
169
172
178
176
176
174
181
179
179
180
179
175
186
175
174
165
150
155
159
164
166
163
154
151
163
161
165
167
162
159
175
177
188
198
204
203
191
187
187
186
185
187
188
180
177
172
159
173
181
184
187
188
188
193
197
194
192
192
190
191
188
182
188
196
198
199
196
192
192
190
190
184
181
181
177
183
174
177
179
172
178
169
172
166
168
168
168
170
178
176
177
172
171
172
174
177
178
173
181
181
175
178
179
177
188
178
177
172
154
157
160
163
168
158
153
156
161
160
163
167
165
157
177
176
186
203
206
190
188
189
194
190
186
192
195
181
178
169
164
182
181
188
186
186
186
184
192
195
194
189
190
193
193
187
191
192
194
195
194
193
193
195
196
189
191
193
186
193
183
186
188
181
181
177
171
169
170
172
174
173
182
179
180
174
176
172
176
178
177
178
183
181
178
182
181
181
188
178
181
174
166
160
159
165
165
153
152
162
156
158
162
169
165
155
174
175
192
205
191
182
188
192
197
189
188
191
197
185
176
173
177
191
184
188
186
186
187
185
188
193
193
185
188
197
197
189
192
191
191
192
191
194
188
198
191
188
192
186
187
186
182
188
187
188
183
177
176
173
176
182
179
179
181
181
179
174
177
173
177
181
181
177
184
183
177
183
182
186
186
178
184
174
167
168
160
170
159
157
144
157
157
156
163
170
163
158
170
175
197
195
186
183
186
194
197
189
186
192
199
190
176
190
191
186
181
192
186
187
188
183
187
189
197
188
185
195
194
188
188
189
189
185
186
194
188
191
184
183
184
181
181
175
176
186
179
181
180
176
176
179
179
185
181
184
181
180
180
175
178
177
184
183
185
182
180
184
181
187
183
190
185
181
190
172
162
170
172
166
157
161
146
141
160
159
163
172
165
159
166
170
187
187
184
184
187
198
198
193
187
191
200
199
196
205
190
181
182
189
188
190
188
182
186
184
192
190
188
192
188
189
186
185
183
182
186
188
183
187
181
178
175
177
177
172
169
178
177
174
172
173
176
179
179
186
180
183
181
181
181
180
178
182
181
183
184
181
179
183
181
187
189
184
186
191
186
166
162
166
179
164
163
162
150
139
149
162
162
174
166
160
163
167
174
183
186
183
188
202
199
194
192
191
207
213
215
203
187
187
180
186
189
193
188
184
182
184
189
189
192
189
189
186
187
185
178
181
181
184
175
176
171
171
164
169
168
167
165
172
172
171
169
170
176
173
179
184
178
183
181
179
180
184
180
181
181
182
179
182
178
181
183
186
185
183
188
193
184
164
163
171
175
167
171
161
153
148
141
155
166
172
164
158
168
164
176
180
185
182
190
200
198
195
199
205
214
224
218
205
198
187
176
179
190
196
190
184
179
182
183
188
190
188
188
186
187
180
175
178
182
177
173
170
171
168
161
164
164
164
166
167
171
174
173
173
176
174
178
184
177
183
184
182
180
182
181
181
178
182
177
180
177
181
184
187
181
185
190
190
180
165
165
177
166
175
176
159
155
156
141
145
165
173
163
161
168
162
173
177
184
184
192
199
201
203
216
216
218
223
215
215
200
184
178
181
191
194
194
187
178
181
183
184
191
184
185
185
181
179
175
176
180
175
178
171
169
165
160
166
168
163
165
165
171
173
174
177
176
182
178
181
178
182
181
180
178
184
180
181
179
176
176
176
177
182
188
186
183
188
194
182
174
164
175
170
166
181
175
168
155
161
146
143
153
172
162
162
172
165
174
176
186
186
194
201
208
212
224
221
223
217
217
220
197
188
181
185
189
188
197
189
181
182
184
185
186
183
183
181
182
179
176
176
174
177
181
175
173
167
163
166
171
169
165
172
171
173
176
181
179
183
183
184
183
183
181
178
179
185
181
176
174
175
171
170
179
180
186
185
181
190
195
181
169
172
173
165
166
182
180
171
156
166
157
147
152
165
163
164
172
164
181
181
192
194
201
202
213
220
232
223
225
211
215
223
199
190
188
183
192
188
190
186
185
178
185
183
188
183
184
179
181
180
182
179
178
182
183
180
183
177
172
173
178
174
173
182
179
178
181
185
187
182
186
185
188
187
186
181
184
188
183
175
174
168
175
175
177
182
185
185
181
195
188
180
176
168
170
163
171
179
182
174
154
164
166
159
162
168
160
175
180
172
177
179
191
197
201
210
222
228
231
221
225
214
224
223
207
192
200
181
194
192
188
186
186
183
178
179
183
181
182
180
180
178
182
184
178
184
181
184
185
183
181
181
184
181
184
186
187
184
191
191
187
186
190
188
188
192
189
187
185
190
178
175
177
170
175
177
175
178
187
185
185
194
186
178
176
169
159
160
169
178
181
179
161
164
170
169
164
164
152
175
184
176
178
180
192
203
206
214
228
230
237
225
222
211
237
225
207
205
197
186
195
199
189
188
188
184
177
177
181
179
183
183
179
178
182
180
176
185
182
183
184
187
185
183
185
183
187
187
189
186
194
193
186
188
194
191
192
195
189
190
181
188
179
177
175
173
171
176
177
175
184
184
192
196
190
177
176
174
153
156
169
173
180
182
171
164
170
173
173
158
151
160
174
173
184
183
202
207
213
222
226
232
235
230
221
219
237
227
210
216
200
190
202
197
199
190
192
183
175
172
178
183
180
181
183
180
181
181
179
183
179
185
180
186
185
185
186
184
189
192
189
187
192
195
188
189
194
194
192
197
189
190
185
180
180
179
170
170
169
172
175
178
182
184
201
202
186
178
173
170
155
153
164
167
178
186
176
170
164
173
170
156
157
164
173
173
189
190
210
210
210
217
216
229
235
230
222
228
236
227
214
220
210
195
204
202
200
200
193
183
177
176
183
180
186
181
181
181
182
181
182
180
177
185
180
185
184
186
188
188
189
194
190
192
192
195
191
189
194
196
195
200
187
184
187
178
177
174
171
171
169
174
173
177
186
192
205
199
180
179
169
165
158
161
162
157
174
188
178
176
162
169
171
156
153
168
168
174
194
198
208
207
208
209
221
225
237
232
222
238
230
228
219
223
216
194
207
202
203
202
195
187
181
177
177
185
186
186
180
178
187
186
185
183
174
183
178
183
185
185
189
190
191
190
189
193
195
192
196
193
199
198
197
198
189
179
185
175
170
172
176
175
173
177
179
182
195
193
207
192
176
173
161
160
161
168
166
156
169
188
174
178
166
169
172
157
159
171
170
164
183
185
195
199
200
212
217
223
233
233
227
249
226
229
226
224
218
196
204
204
209
200
193
191
188
180
178
186
189
184
184
181
184
190
187
184
181
184
182
187
185
187
189
192
193
188
192
192
195
193
198
197
199
197
193
189
188
178
180
170
174
171
181
181
177
179
181
188
199
198
201
188
170
166
156
162
166
172
170
167
158
189
170
171
169
164
165
158
164
171
180
167
171
184
197
199
199
212
211
223
230
232
237
247
224
233
231
218
210
207
196
202
211
199
190
194
192
189
189
190
188
190
186
182
185
187
184
187
188
185
185
187
191
188
189
193
192
193
190
196
197
199
201
199
200
195
187
188
177
178
173
174
177
176
178
185
176
182
182
190
205
197
196
179
163
163
156
165
171
168
172
182
155
181
177
169
177
163
163
167
163
168
172
167
174
194
198
198
206
208
217
221
238
236
239
245
231
237
233
220
203
208
201
199
211
201
194
195
198
194
196
194
195
194
186
187
182
185
186
185
188
189
194
191
192
188
189
190
193
194
194
192
196
201
197
197
194
190
185
183
171
175
177
177
177
176
179
184
182
184
183
196
202
187
191
171
162
157
162
172
170
162
165
183
160
172
178
172
180
156
165
170
161
170
179
172
174
198
203
208
207
208
215
222
239
246
233
244
241
235
227
222
204
197
207
197
207
200
194
203
202
197
198
201
199
200
191
194
189
187
189
187
184
190
194
192
193
190
191
190
193
198
196
191
197
195
194
194
188
184
180
178
176
176
176
176
176
177
179
185
184
187
186
199
190
187
185
166
158
153
174
174
172
163
163
172
163
177
179
177
177
157
160
172
164
170
172
180
185
201
210
204
203
206
214
224
239
247
223
251
240
234
226
221
209
199
198
199
199
201
196
203
204
201
199
205
199
207
200
199
199
192
191
195
187
190
195
191
195
192
194
196
195
198
194
194
192
191
188
187
181
179
179
181
178
177
174
181
174
180
179
184
189
187
188
195
183
186
183
161
156
161
181
173
171
162
170
166
165
175
184
180
172
160
154
169
166
167
167
169
184
197
214
199
209
206
214
224
231
244
229
255
240
235
231
222
206
204
183
192
197
198
197
205
205
206
206
206
206
208
206
203
203
198
190
196
192
193
197
197
198
191
197
196
193
194
195
194
192
187
187
185
179
180
178
183
179
180
178
181
176
186
185
187
188
184
186
192
184
183
178
156
155
171
183
173
167
162
176
167
166
171
187
179
171
172
154
162
168
163
165
161
180
199
207
206
207
205
210
230
236
241
240
244
242
243
225
214
203
203
182
181
193
197
190
205
208
206
207
211
207
213
212
207
206
207
201
203
196
201
201
202
202
197
197
196
192
192
191
190
188
186
183
184
181
181
179
184
179
184
179
187
183
186
186
188
189
186
186
190
185
178
171
153
162
181
184
174
163
167
175
171
165
170
189
176
167
180
165
158
170
172
167
156
