P2
# Face with average contibution
92 112
255
189
190
192
188
195
190
196
192
191
190
190
189
187
192
190
187
183
183
185
193
189
179
181
181
178
192
191
192
189
182
187
186
188
185
186
179
184
191
194
190
185
183
189
188
187
197
192
189
186
190
191
188
184
185
198
192
187
187
194
183
184
185
183
186
198
183
185
191
185
184
183
183
179
178
186
183
182
187
187
188
190
188
186
185
185
185
185
188
185
187
186
184
189
191
192
191
195
196
195
193
191
191
188
188
187
188
190
183
180
182
189
186
190
185
188
186
186
186
183
184
182
180
182
179
180
182
183
187
186
191
192
198
191
202
199
193
191
198
204
198
192
193
200
194
197
198
202
198
189
196
199
194
191
188
185
177
181
188
188
201
202
190
184
185
174
177
187
184
182
185
190
190
189
190
187
185
184
185
186
186
186
184
187
185
195
189
196
192
192
195
196
193
188
190
187
185
183
185
184
184
184
179
183
186
195
188
189
191
181
183
180
184
183
179
170
176
184
184
187
195
192
192
200
199
197
210
202
202
192
200
204
206
204
187
200
199
199
198
198
203
201
194
199
199
208
196
183
179
176
188
188
190
199
209
195
193
175
179
179
182
186
187
190
186
188
191
185
188
188
187
185
186
189
187
186
185
195
191
195
194
191
196
192
196
191
189
188
180
185
189
187
189
187
193
187
184
191
191
184
183
189
192
190
180
187
182
185
185
195
196
204
200
197
197
209
206
206
209
218
212
208
201
206
206
206
207
203
206
199
195
198
203
204
205
203
198
207
206
183
178
191
180
184
176
187
200
196
201
198
184
174
171
181
187
182
179
181
183
183
188
191
189
186
186
190
186
186
185
193
194
193
196
195
197
195
196
188
194
188
188
188
190
187
190
193
186
188
185
194
189
184
192
193
185
187
188
181
192
196
195
202
207
202
204
200
204
211
215
207
204
221
211
211
206
200
197
209
205
206
203
207
205
197
195
204
202
207
198
188
196
189
172
185
185
172
182
186
194
198
197
194
198
192
172
168
176
179
179
175
177
181
185
189
190
188
185
191
186
188
185
196
196
193
197
197
202
196
197
197
193
184
185
185
184
190
191
194
184
195
180
186
184
186
187
190
184
181
183
189
196
202
201
202
201
214
198
209
203
207
215
214
206
215
212
200
203
208
208
214
219
207
201
203
210
204
203
209
210
202
204
189
196
189
183
179
175
172
174
186
188
190
193
184
191
193
193
175
170
166
178
174
181
181
183
189
187
187
189
190
187
187
187
199
198
194
196
193
202
203
201
199
192
180
186
195
197
196
196
194
192
191
183
183
182
181
187
180
183
188
185
193
196
197
200
202
204
208
207
210
203
201
206
208
209
204
207
211
207
210
205
215
212
207
206
210
215
210
212
212
215
202
203
196
203
202
194
187
178
165
166
187
184
187
187
188
177
180
183
181
179
168
167
172
179
180
186
187
186
187
193
187
191
187
187
194
201
199
197
196
211
202
200
192
187
184
194
205
204
198
197
193
192
185
177
174
173
177
185
184
188
194
192
198
195
192
196
201
205
209
209
212
207
203
210
212
211
199
200
215
215
216
212
206
200
199
209
210
214
221
214
208
209
210
204
194
197
197
195
189
193
172
162
179
191
190
189
189
177
172
170
180
182
181
172
168
175
178
184
184
186
185
187
190
191
187
186
190
198
195
197
210
213
201
195
183
189
193
207
212
204
202
192
196
187
169
165
161
164
176
185
191
196
190
191
187
193
194
198
190
198
204
206
213
216
207
204
214
211
210
203
216
212
210
217
209
208
200
209
220
204
209
216
200
199
207
192
195
197
199
195
186
187
185
168
170
186
187
187
195
191
171
175
172
179
174
180
180
180
179
181
184
190
186
191
195
191
187
189
192
192
198
205
211
206
192
194
195
200
208
212
211
205
210
202
196
184
175
171
172
168
181
194
200
200
195
192
189
198
197
199
197
203
206
212
214
218
210
203
206
206
209
206
215
212
207
212
206
202
201
204
213
198
198
197
192
188
197
191
191
193
195
192
185
185
185
181
174
183
181
187
190
186
182
166
172
177
182
184
183
189
190
182
180
191
188
187
188
193
187
190
194
197
202
208
205
199
191
189
200
205
211
200
196
198
206
200
187
188
186
186
184
180
183
190
200
199
197
189
187
197
195
206
207
202
211
206
211
209
213
209
206
206
201
203
208
208
201
201
202
189
186
191
196
202
195
188
186
189
197
181
191
183
186
185
185
186
184
190
181
188
178
185
187
183
186
187
171
170
183
187
183
184
194
188
181
195
184
186
190
190
190
190
203
203
203
205
195
199
196
198
207
220
214
203
204
202
195
189
179
175
172
183
188
189
179
190
191
187
189
183
193
193
200
203
203
201
209
209
205
205
205
212
210
209
195
197
195
197
190
196
197
190
181
182
180
183
194
191
193
194
186
176
176
183
184
182
183
187
188
196
190
187
180
177
182
185
193
185
179
173
175
180
182
183
192
192
186
195
185
181
192
189
188
189
205
205
199
194
192
203
202
205
214
222
213
206
208
200
191
184
184
172
174
185
186
184
182
182
192
189
194
192
201
200
202
194
196
196
200
200
202
206
206
208
205
204
196
196
189
198
185
189
181
177
173
171
173
176
183
182
190
191
193
186
177
179
188
181
179
185
186
192
201
197
187
178
175
176
198
195
188
179
180
180
183
183
191
196
196
178
189
188
192
195
194
189
208
201
191
188
198
204
212
208
216
217
209
201
197
182
177
179
180
175
186
189
181
187
185
180
188
186
198
199
199
195
199
196
201
192
194
197
203
208
198
208
205
203
201
201
189
192
185
181
171
174
173
166
171
174
176
181
182
191
191
195
195
193
191
178
182
185
180
181
190
195
194
184
181
171
185
204
198
186
188
187
183
190
186
195
202
182
181
184
188
191
193
198
202
200
190
190
206
201
208
210
210
211
197
204
192
177
179
176
185
185
188
183
182
180
189
188
196
201
188
192
192
191
193
200
195
196
193
193
203
199
192
198
200
199
193
197
190
191
183
176
175
177
173
173
167
172
181
184
186
193
193
193
192
201
202
197
186
181
184
181
180
192
190
188
189
178
181
193
207
199
190
195
184
192
181
189
191
193
180
182
184
186
193
193
206
196
195
201
201
204
203
211
208
203
204
209
194
176
176
176
181
188
190
183
186
186
193
188
197
206
193
191
198
196
198
196
197
190
195
198
193
200
193
193
194
191
183
190
191
179
179
182
183
177
175
177
174
176
189
189
194
201
206
196
195
199
202
206
196
186
187
190
186
190
186
190
189
179
174
190
201
209
201
196
197
190
187
183
190
194
185
184
181
178
189
194
203
193
198
195
203
204
208
212
203
207
211
207
188
183
185
185
188
184
193
187
190
196
201
197
204
202
194
198
205
199
202
201
195
194
192
196
191
192
186
188
190
195
187
181
187
179
179
178
181
183
176
177
176
186
195
193
198
200
201
199
194
190
197
190
200
194
186
193
193
187
182
182
184
189
176
185
195
203
203
193
198
191
197
193
195
199
195
181
187
179
182
191
197
191
196
192
207
210
208
199
199
206
206
196
192
185
184
181
191
190
187
193
196
208
210
213
202
198
197
198
200
195
196
198
199
196
197
192
190
194
191
186
190
196
188
184
191
177
179
183
185
181
179
189
189
194
204
197
198
202
200
198
198
190
193
189
195
193
181
188
193
189
190
177
177
191
193
180
191
203
199
195
191
197
203
196
197
197
202
191
178
177
179
186
194
192
193
191
206
212
206
192
197
207
201
193
188
181
179
176
187
192
188
191
202
212
217
205
200
196
195
189
195
192
191
189
191
190
195
191
190
191
195
187
189
195
188
185
190
184
176
184
187
187
189
194
203
201
196
197
200
198
198
195
192
193
191
189
187
194
179
185
180
186
188
190
183
185
188
192
189
204
205
200
196
198
203
207
207
196
201
199
185
171
175
184
197
190
191
198
209
209
204
199
195
198
187
183
177
178
181
176
188
195
187
189
201
214
211
194
194
190
190
187
193
192
193
191
197
196
194
194
184
195
190
193
195
192
191
185
188
185
182
185
192
196
205
197
200
204
199
197
200
199
196
201
192
194
199
195
188
189
182
183
178
179
188
184
185
185
180
187
188
200
216
202
195
202
209
207
206
198
190
202
194
174
175
187
201
190
193
203
209
204
202
198
188
181
184
187
183
181
182
181
181
176
186
197
206
207
199
192
191
187
191
186
188
187
193
195
195
201
196
196
193
195
196
194
193
192
188
188
193
189
188
190
199
209
204
201
201
208
202
202
200
204
200
199
192
197
195
199
199
196
188
190
188
179
182
181
181
188
182
176
178
192
215
207
197
197
210
208
207
202
192
194
198
174
182
181
200
192
193
210
210
207
200
193
182
189
184
187
187
184
179
184
180
183
192
203
203
201
195
192
191
187
192
191
191
188
194
202
202
207
199
195
200
197
201
197
191
196
197
200
202
201
201
202
209
210
198
201
199
205
203
203
199
200
198
200
200
196
199
195
191
204
194
194
197
188
182
177
177
186
182
171
173
184
210
204
205
194
209
211
212
208
202
192
199
180
176
176
198
193
194
209
220
208
196
189
186
188
182
192
186
184
181
182
185
198
198
199
201
201
193
189
190
191
188
193
194
192
197
208
207
202
199
201
201
204
203
189
193
200
199
205
205
203
205
219
212
207
201
199
199
200
203
199
197
194
196
200
203
202
197
195
192
187
202
194
192
199
192
192
190
183
183
176
175
177
204
208
208
200
202
207
211
217
205
195
205
192
176
167
203
195
194
218
225
200
192
194
186
183
184
195
189
180
183
181
194
199
197
199
200
198
194
193
190
193
192
191
193
194
200
206
202
201
197
200
199
199
197
190
196
203
206
207
214
210
216
219
214
205
196
194
193
194
194
193
193
191
196
198
201
201
196
195
192
180
197
199
191
197
201
196
194
185
177
175
179
175
192
201
201
209
197
206
207
221
211
198
200
204
184
167
202
201
203
221
219
209
195
191
185
193
195
195
190
185
185
195
205
201
201
202
202
195
196
195
194
193
189
183
188
200
196
195
192
193
194
188
192
189
184
185
194
197
200
206
204
207
209
211
201
198
188
190
190
182
186
187
195
190
195
199
197
202
196
190
193
182
185
193
192
189
196
199
194
192
183
175
175
170
183
193
197
199
204
208
212
218
215
205
201
204
191
176
196
202
207
213
220
215
196
190
191
197
198
193
191
192
197
211
208
200
200
198
196
197
191
188
193
191
182
185
186
190
186
175
179
183
184
185
179
185
192
187
191
195
199
197
197
198
202
201
197
194
190
183
187
180
185
187
195
193
197
196
194
199
200
195
186
183
182
186
195
189
188
194
196
191
192
177
176
177
177
195
197
197
197
206
214
225
208
208
203
205
198
174
209
198
199
215
225
221
196
194
194
192
196
194
194
195
206
208
206
205
201
196
192
194
185
186
181
181
181
187
185
179
182
173
171
176
175
179
176
179
189
189
185
192
194
191
189
191
193
199
197
195
191
189
185
184
188
190
191
197
198
199
197
198
197
204
199
184
182
183
188
190
186
187
190
193
189
184
181
180
181
191
195
202
195
201
216
227
211
207
204
200
206
180
205
196
200
214
221
219
195
198
189
189
200
194
192
196
209
210
208
209
197
199
196
195
191
184
180
172
180
188
182
179
175
180
172
180
178
178
181
180
182
186
188
193
186
189
186
187
187
197
197
194
196
196
192
193
195
194
193
197
197
204
196
193
200
203
202
195
183
184
178
186
193
187
192
192
190
179
184
183
179
183
191
196
193
194
210
230
214
204
201
196
209
190
205
200
199
217
216
220
203
198
194
194
190
200
193
198
209
213
211
206
202
197
200
201
195
185
174
181
180
185
180
171
179
179
181
182
184
182
189
184
189
191
195
197
195
194
191
194
191
195
198
197
202
203
201
195
197
201
199
199
203
206
200
196
200
201
201
200
190
182
177
185
187
193
190
195
195
184
172
180
182
181
189
190
193
199
188
228
217
204
202
198
200
194
210
203
199
214
210
215
212
198
200
191
197
197
192
201
208
203
204
199
204
202
201
198
191
183
178
183
180
181
184
177
177
181
182
183
192
182
189
189
189
196
196
200
200
194
195
198
194
193
200
200
203
204
205
201
197
203
202
205
204
202
199
198
196
194
198
197
191
184
182
185
178
194
190
189
196
193
173
170
176
176
189
188
192
201
203
206
224
204
204
198
197
200
214
207
203
212
209
211
216
205
195
191
202
187
189
200
200
197
201
200
207
206
201
199
191
187
185
183
184
183
182
185
177
184
189
181
185
185
187
195
193
197
198
201
202
196
197
201
193
195
199
200
206
206
207
205
201
203
203
206
202
202
200
199
195
189
195
188
189
185
180
187
176
181
193
190
194
201
177
168
168
171
189
189
196
198
202
204
221
209
205
197
195
203
215
208
206
212
208
211
215
210
199
199
200
181
189
192
200
198
206
209
213
210
206
203
192
193
191
188
185
186
186
181
177
187
187
185
185
185
186
195
196
195
200
200
201
199
203
202
198
197
202
201
205
204
208
202
201
200
196
198
197
197
197
200
194
187
192
188
189
186
182
187
182
175
185
196
198
202
185
171
167
168
189
194
198
196
192
206
220
215
201
201
194
200
211
203
213
207
208
204
208
209
202
199
196
179
188
198
202
205
210
212
217
211
204
201
194
197
200
195
193
191
190
186
181
188
192
185
188
192
184
194
197
197
200
202
202
201
203
200
203
201
204
202
202
203
204
202
197
194
191
191
193
194
196
194
195
191
191
190
191
188
182
185
188
172
178
190
196
206
188
172
174
172
185
193
199
198
205
211
233
219
208
197
198
194
208
198
216
215
204
206
201
211
208
203
189
183
192
202
204
209
212
215
215
213
195
191
194
195
195
192
190
192
197
198
193
193
199
197
194
201
190
195
201
199
202
206
208
202
206
203
205
203
203
201
202
200
199
202
199
197
194
189
193
199
200
198
204
197
197
198
197
191
185
187
186
176
175
178
189
200
199
177
172
178
188
193
198
195
220
219
235
219
214
197
196
194
211
200
219
209
200
216
201
210
211
199
183
190
197
198
203
206
213
212
213
208
190
191
195
197
195
189
188
186
188
191
193
191
193
200
203
201
193
192
202
197
200
208
207
207
204
205
200
200
197
197
201
200
200
204
202
204
198
197
199
205
211
208
208
205
208
203
201
198
192
196
189
186
183
175
179
193
203
186
179
178
187
192
194
202
220
227
226
222
217
206
194
194
216
214
213
206
198
207
212
207
206
206
190
197
198
196
203
210
216
210
211
206
197
196
198
194
193
189
190
183
184
186
188
193
196
195
205
207
199
197
198
200
198
208
213
208
208
207
206
206
207
207
204
207
201
207
204
205
204
204
201
203
206
208
209
209
211
207
209
205
197
200
197
188
187
178
177
187
198
195
189
187
187
181
193
209
228
234
221
229
220
220
193
194
217
223
206
205
199
204
214
208
206
205
197
201
199
192
204
212
212
212
207
203
190
189
183
181
178
183
184
185
183
184
186
188
198
193
195
201
197
190
193
193
192
200
210
208
202
206
201
204
207
205
208
204
200
204
207
210
210
207
209
207
205
208
207
209
209
209
207
205
201
199
197
195
193
178
172
178
191
194
192
195
192
187
193
206
236
242
213
227
223
219
212
197
232
223
203
205
206
207
208
206
204
207
192
195
189
192
206
205
209
207
205
188
179
182
186
177
176
184
184
182
178
173
171
171
176
180
173
185
179
176
181
181
188
189
202
195
195
198
198
199
203
202
208
206
200
199
212
211
205
207
210
207
211
207
205
203
206
204
208
202
201
197
199
199
194
182
175
171
183
192
189
192
199
195
200
206
226
240
225
217
226
215
231
200
230
229
203
199
201
209
206
203
203
201
189
191
188
195
201
202
209
192
189
177
178
178
185
186
184
186
185
181
178
176
167
173
177
178
172
179
176
171
173
177
181
186
185
187
187
189
191
191
196
198
200
198
193
191
196
206
202
197
201
201
202
196
202
196
200
199
196
195
192
189
191
192
197
181
177
173
174
200
190
186
202
208
208
210
219
237
228
215
221
216
231
212
236
226
199
183
198
211
209
206
202
196
190
187
193
199
196
199
198
180
178
175
178
177
181
184
176
170
173
172
178
182
180
187
189
191
193
189
187
181
175
174
169
177
181
179
179
179
180
182
183
179
184
183
179
178
182
190
187
185
194
195
190
180
193
185
189
191
187
193
184
186
182
185
189
183
182
183
179
195
190
181
207
204
216
204
217
233
228
220
214
219
225
220
244
207
200
184
190
208
215
212
198
193
185
185
193
189
193
202
191
180
176
171
172
185
185
183
180
173
179
188
185
185
199
188
184
188
195
190
191
180
165
171
173
169
173
184
177
184
181
185
177
176
181
170
176
174
177
172
173
181
184
183
183
176
174
174
179
177
183
188
180
177
179
174
186
184
174
185
182
185
197
180
205
212
204
193
217
228
220
216
207
214
227
226
232
198
212
200
202
194
220
210
205
194
185
185
187
178
193
202
187
183
188
181
184
180
174
178
175
184
189
193
188
183
197
186
183
181
190
184
182
183
172
170
177
179
170
190
185
182
184
178
172
175
176
177
179
171
176
173
178
181
184
189
184
184
180
177
176
180
181
182
180
179
176
167
177
181
174
172
180
176
197
186
203
209
193
191
201
214
211
213
199
208
221
222
211
208
209
214
208
197
208
213
207
194
197
183
173
178
192
192
185
190
185
190
185
173
166
176
175
183
197
209
191
192
195
190
190
190
190
192
192
192
186
185
196
187
194
199
188
176
176
170
170
173
171
181
184
178
179
180
183
193
205
203
201
197
200
198
188
195
195
183
182
187
192
178
177
186
171
169
171
168
191
202
219
198
191
200
192
202
212
219
208
200
212
220
214
214
208
215
217
203
186
205
209
194
202
181
169
177
194
200
200
197
201
197
190
178
187
180
194
196
194
199
202
198
190
193
192
191
192
198
210
215
212
207
216
207
214
207
188
184
182
175
178
180
176
187
205
195
183
187
184
193
203
199
203
188
187
188
181
193
200
185
187
191
192
187
181
182
182
172
175
164
174
202
224
197
188
199
186
201
205
215
220
206
196
218
201
222
200
215
231
209
181
196
206
196
193
170
169
181
190
203
194
199
199
195
186
184
182
177
204
192
189
214
212
209
179
192
186
176
174
203
200
201
200
201
202
197
208
200
190
185
183
178
184
189
189
195
210
195
187
191
191
203
210
205
191
200
181
190
178
208
213
200
188
198
197
193
180
177
181
173
170
173
171
190
225
195
175
181
185
202
193
208
219
207
196
215
202
217
202
221
238
217
180
185
194
206
177
167
169
178
194
198
195
198
197
194
183
169
161
171
200
185
176
210
192
204
205
198
195
184
182
207
206
212
219
214
211
204
212
209
193
186
178
192
189
180
184
194
195
184
187
197
197
213
222
212
184
195
197
224
202
220
222
202
198
201
206
202
191
189
190
175
169
167
189
189
217
198
189
177
189
189
198
200
217
209
198
207
205
209
205
219
239
218
188
181
174
198
176
171
164
180
200
196
196
198
191
183
181
160
158
163
182
168
157
178
175
189
177
181
180
181
179
203
190
206
207
216
213
184
188
196
187
185
186
201
180
173
183
185
182
191
186
178
188
211
216
227
195
188
191
221
230
226
222
206
209
203
210
209
204
197
202
185
178
176
184
197
212
202
203
183
185
178
191
200
208
205
197
204
222
200
203
209
222
217
192
189
169
188
180
180
166
166
199
200
185
184
176
172
171
146
149
171
153
158
176
182
205
201
173
162
161
170
186
202
194
200
199
198
216
186
181
198
195
193
198
208
179
181
190
186
188
195
168
172
187
208
210
213
212
204
200
209
220
216
201
200
200
191
202
211
213
200
201
203
192
178
186
215
221
212
218
189
182
172
182
199
200
203
198
190
229
210
192
190
192
202
197
207
173
187
180
183
158
164
199
190
169
174
174
181
179
175
156
187
193
169
192
199
214
193
183
188
184
175
190
206
207
201
208
204
210
196
187
216
208
198
196
208
195
197
201
200
199
193
172
173
202
200
197
199
221
223
214
205
204
201
212
219
215
221
202
210
214
199
186
202
198
182
189
222
226
208
216
195
181
165
173
195
196
195
203
189
220
209
192
178
189
187
188
188
173
175
177
179
158
167
195
172
158
179
172
191
196
190
177
175
192
190
180
196
219
196
178
184
197
191
191
198
207
206
194
197
203
183
168
206
215
199
197
205
185
185
193
207
206
196
193
185
186
197
189
209
218
216
208
193
184
207
210
214
223
226
201
204
206
194
178
200
209
180
186
207
223
209
208
199
182
158
177
196
198
186
199
185
211
201
184
181
186
192
186
175
177
162
171
175
163
177
189
165
173
194
175
208
221
203
188
194
194
205
188
199
196
171
162
160
193
183
179
190
202
208
194
202
186
169
162
194
208
207
200
214
181
184
184
200
205
200
207
190
190
192
203
213
218
219
199
186
182
205
188
180
198
212
196
193
209
198
188
203
214
184
184
203
216
210
208
196
172
163
179
198
202
187
186
184
191
182
185
185
195
182
182
179
191
150
161
168
162
176
179
185
191
201
203
206
218
206
179
204
212
203
209
203
188
175
161
159
177
201
184
185
194
206
197
193
179
159
160
184
190
191
198
214
174
174
175
190
199
195
205
205
205
206
206
199
217
234
208
201
180
186
185
180
191
190
194
202
213
210
198
201
223
201
179
200
210
207
214
191
172
161
183
205
204
191
174
188
182
181
184
195
220
201
187
169
182
149
159
171
174
188
184
209
209
199
217
224
206
192
184
190
203
209
210
204
193
188
188
197
197
203
193
196
200
213
210
204
194
169
175
187
197
186
196
222
197
169
173
183
194
193
189
203
212
226
217
213
213
229
217
205
206
203
206
202
208
203
203
212
219
217
194
200
220
201
181
175
204
210
223
192
191
174
184
211
207
188
175
186
189
180
169
185
232
210
201
171
167
147
157
167
172
191
188
216
215
192
212
217
210
194
190
191
194
221
216
205
200
204
204
223
220
204
203
200
201
206
213
201
186
164
175
185
202
184
200
225
210
176
171
191
193
197
194
193
204
229
232
224
217
224
213
218
224
223
234
228
216
219
214
221
222
224
205
199
209
197
183
180
203
216
220
207
193
174
187
216
206
180
183
175
196
179
165
170
226
209
205
175
163
148
158
169
186
191
190
204
205
189
200
219
215
208
203
202
208
214
214
207
205
213
216
223
215
203
197
186
184
197
196
195
167
166
172
181
194
179
200
205
207
180
168
184
195
204
199
189
190
205
205
204
209
208
202
210
211
216
214
220
207
208
206
206
217
217
204
202
214
181
171
169
200
220
221
214
205
172
196
218
192
175
186
169
207
178
157
166
192
205
207
171
165
151
161
179
190
187
190
200
200
188
197
209
207
205
204
206
211
213
202
199
194
193
209
204
199
190
180
181
183
192
182
181
157
165
167
177
184
180
192
197
201
190
175
180
196
201
215
195
187
198
199
197
198
206
204
205
206
202
206
203
199
190
189
189
195
200
200
205
218
187
176
157
201
216
222
205
195
176
195
213
174
177
186
176
217
179
177
168
185
191
194
164
158
159
177
177
188
185
182
184
190
182
184
192
193
193
193
194
197
200
201
195
190
188
192
193
193
188
177
188
184
192
188
170
167
175
170
177
181
181
191
191
203
187
182
191
201
197
214
208
193
180
195
192
190
190
191
190
190
186
184
188
190
188
183
186
190
185
188
194
216
205
176
159
200
207
215
198
194
184
198
189
170
177
185
181
228
179
195
190
187
192
186
159
157
164
183
184
189
186
190
184
182
188
185
190
189
190
188
188
190
186
196
193
187
185
190
183
182
173
165
183
174
175
178
174
174
177
176
174
186
188
192
190
199
187
183
195
207
193
205
203
202
179
179
182
187
182
194
187
184
176
186
180
181
193
194
186
196
195
187
184
194
202
179
173
195
204
219
198
196
184
197
171
169
185
192
177
239
177
201
197
183
202
190
176
171
168
189
181
203
190
198
198
188
196
196
196
194
192
195
193
189
187
193
194
186
188
187
181
171
163
158
170
179
171
188
182
180
173
175
182
189
192
194
195
197
191
186
207
208
205
193
212
209
201
190
179
176
181
199
199
185
183
173
180
183
197
192
184
184
190
184
181
189
201
186
186
193
198
211
218
206
173
178
166
167
179
200
179
231
192
201
203
175
207
199
189
191
183
180
182
207
198
205
204
205
190
204
199
195
194
194
195
190
190
186
192
186
176
174
179
175
170
171
180
170
181
194
192
183
178
178
182
197
192
188
193
200
195
200
220
209
209
203
210
219
213
211
196
190
183
202
204
191
187
180
180
178
192
197
191
190
197
191
194
186
192
191
192
195
192
212
229
204
175
178
178
176
183
198
173
214
200
210
213
178
196
203
191
205
190
174
176
199
200
210
210
220
206
201
210
203
198
200
203
192
199
182
198
195
191
181
177
185
188
189
169
175
195
210
197
184
175
189
192
198
197
186
194
207
203
201
216
214
219
220
209
206
218
221
224
214
190
197
206
212
199
192
192
193
193
191
204
201
201
202
201
191
189
194
201
190
196
217
222
198
189
172
186
184
189
196
172
197
189
204
228
187
192
195
188
205
194
174
165
195
203
208
208
214
221
208
198
189
181
193
204
196
209
196
195
207
196
173
173
187
189
192
191
189
208
219
202
184
176
189
196
200
191
187
195
215
212
206
201
219
214
219
214
207
193
214
228
230
206
184
211
217
215
194
196
201
205
199
193
201
204
203
200
192
191
196
203
188
201
210
208
192
199
177
185
191
192
191
174
193
179
184
219
191
188
189
187
192
201
165
176
192
198
205
214
218
229
219
205
200
189
195
209
209
211
215
206
205
182
159
163
184
192
188
194
197
211
216
204
184
181
186
190
192
193
187
196
214
209
203
203
198
224
213
210
197
182
195
219
219
215
212
219
223
215
193
189
195
204
199
193
191
203
205
201
189
186
206
203
173
175
185
203
182
202
173
185
195
203
188
181
189
174
162
194
183
192
190
178
174
190
174
178
192
198
206
200
219
213
223
211
210
197
197
219
219
220
216
209
202
173
163
169
170
182
196
196
204
215
215
209
190
177
177
170
175
187
188
193
208
203
196
197
187
202
214
204
193
185
181
207
217
209
215
217
220
210
189
188
194
199
200
198
197
205
205
200
181
193
211
204
158
151
177
198
189
204
173
179
204
207
183
189
187
178
156
175
161
196
202
177
166
172
162
187
186
192
203
205
205
210
215
214
220
210
199
206
213
212
201
193
185
181
178
171
180
193
204
210
209
217
211
208
188
170
165
157
169
184
180
193
198
204
198
188
189
179
205
219
210
199
177
194
206
213
218
223
219
207
208
202
205
207
206
194
196
204
198
188
184
207
202
190
153
153
167
195
190
199
172
177
205
199
183
191
200
179
173
165
148
178
202
190
178
162
153
182
195
196
197
203
207
211
205
201
205
205
200
200
197
196
194
190
193
180
175
177
192
201
209
209
212
211
202
197
172
165
166
161
167
177
177
192
204
202
206
194
182
188
192
213
223
211
190
196
198
195
210
209
214
214
216
220
211
208
207
199
195
202
185
178
188
192
196
186
152
153
160
196
186
183
174
186
200
193
187
191
193
184
179
163
151
163
173
192
173
163
161
181
191
202
203
205
201
202
199
199
193
196
193
196
198
202
198
189
187
186
177
193
205
210
217
210
216
202
202
189
170
165
168
163
166
175
179
185
208
209
209
196
184
191
198
208
213
216
199
205
212
208
222
220
219
217
211
210
204
203
199
192
187
182
188
185
179
192
204
182
159
149
165
194
182
178
181
186
202
193
197
200
190
188
185
184
140
169
161
177
155
164
165
188
187
201
199
204
212
206
204
202
199
203
201
201
201
200
190
193
199
192
190
206
212
213
214
212
212
194
204
193
180
186
191
184
176
175
178
182
198
194
200
190
192
196
201
219
218
199
209
216
210
204
211
220
226
224
223
212
206
198
193
188
187
194
203
187
184
205
214
180
158
152
166
190
177
184
198
183
194
206
203
203
195
180
183
205
142
158
167
158
160
172
171
191
184
202
204
201
200
196
199
196
201
199
201
197
199
202
200
203
202
197
197
207
208
208
210
209
207
187
191
181
183
176
179
179
181
183
178
180
187
188
193
190
191
201
212
221
230
215
219
213
208
215
220
222
221
224
224
220
211
204
202
203
202
201
201
204
206
213
207
171
169
157
170
185
174
193
217
179
192
209
209
200
205
182
173
205
171
145
174
153
155
174
187
195
183
200
202
200
195
190
196
192
198
197
192
189
201
202
200
205
198
195
198
201
206
209
206
206
204
188
179
164
164
166
164
169
163
167
179
188
184
185
187
190
199
207
201
205
218
216
211
210
212
212
217
227
231
229
229
224
216
209
208
203
201
199
203
209
214
209
195
180
177
164
177
186
171
206
218
183
194
207
209
192
211
191
168
202
192
160
165
157
158
170
184
191
184
198
204
197
194
188
187
186
189
186
181
188
193
196
191
200
196
197
194
197
203
207
206
207
202
186
177
166
159
158
164
171
167
161
170
189
180
179
198
199
221
231
225
216
215
204
201
204
208
215
217
223
232
235
229
220
217
209
205
204
199
206
207
216
215
206
192
187
183
170
180
188
168
210
216
192
196
203
203
192
219
197
179
203
198
179
190
168
156
171
177
188
183
185
203
199
196
187
186
181
184
177
182
184
183
188
193
198
196
197
192
196
201
202
205
198
197
193
189
171
171
165
167
170
173
173
178
185
187
185
205
223
240
253
247
233
222
205
200
201
193
208
221
229
233
237
224
218
216
210
205
209
204
207
208
216
215
205
184
187
181
171
186
179
172
216
220
186
200
206
202
197
218
199
188
205
214
189
194
204
178
181
174
192
183
179
193
197
199
188
187
176
179
177
185
180
182
187
194
197
193
196
190
196
195
195
198
196
198
200
196
186
180
171
169
158
167
175
184
193
208
206
216
230
241
255
240
226
226
213
206
207
194
198
220
227
216
224
223
217
214
212
206
211
207
210
207
214
211
208
171
182
177
180
185
173
186
219
203
186
199
205
200
202
217
196
188
204
230
219
196
210
209
219
203
216
212
179
181
196
201
193
183
178
175
178
184
179
184
188
196
195
196
198
194
191
195
198
195
207
208
213
204
198
191
189
176
153
161
176
186
206
221
214
218
226
234
237
227
215
213
209
207
206
198
189
205
206
206
211
218
222
217
215
209
209
210
210
203
212
208
202
171
186
181
182
180
182
200
211
181
189
204
203
200
201
213
206
188
194
221
237
217
214
218
219
214
222
221
185
174
189
198
192
183
177
173
174
179
178
179
191
195
192
199
207
197
187
180
189
197
198
212
215
210
200
197
192
195
171
169
181
191
224
232
226
213
211
218
219
215
211
209
205
203
200
191
185
187
199
199
206
210
218
221
216
211
209
207
209
200
213
210
202
175
189
192
181
182
189
199
200
179
191
203
202
202
201
216
206
197
200
205
237
225
230
220
226
215
216
221
189
168
182
198
190
187
173
173
172
177
175
177
188
193
196
204
207
196
189
178
176
188
194
203
202
204
200
194
189
191
184
178
190
207
226
233
229
219
207
208
200
204
204
202
198
193
190
184
185
185
194
198
206
208
215
216
214
209
206
208
205
199
213
209
197
172
189
192
183
191
192
197
188
178
198
201
199
204
197
217
209
197
209
191
227
228
235
223
221
221
216
221
197
166
179
197
191
189
173
174
170
170
174
176
181
194
200
206
198
182
183
177
174
176
182
192
201
197
189
188
186
186
181
183
190
204
210
210
217
203
203
200
194
193
197
197
198
192
188
185
182
186
194
200
200
205
207
210
212
204
203
203
197
198
210
209
190
171
192
189
189
188
189
190
181
182
204
196
198
207
197
214
211
200
207
197
207
222
232
225
219
223
209
218
209
168
175
195
197
191
175
177
170
170
177
176
178
194
198
209
196
184
181
177
177
174
171
181
190
187
182
185
183
183
178
183
187
190
184
176
184
179
188
196
197
192
191
195
201
199
186
183
184
188
195
199
189
196
204
204
205
203
201
199
198
197
208
204
186
177
188
186
189
185
185
187
182
185
208
194
197
205
200
215
213
206
205
200
199
215
224
229
223
220
210
206
207
176
176
192
192
190
182
176
175
174
172
177
176
192
199
205
199
196
187
191
202
202
201
192
185
188
187
189
191
185
177
184
181
186
182
176
192
193
190
194
197
189
186
181
195
197
192
197
196
198
203
202
192
190
200
201
202
205
199
195
191
191
206
194
182
185
188
183
192
184
187
190
184
196
208
198
198
200
202
218
215
211
213
203
198
213
218
225
227
214
208
198
204
185
171
189
191
188
184
178
180
176
174
172
176
191
194
196
191
195
186
192
212
218
224
217
184
179
170
179
176
176
182
187
174
181
182
191
195
199
196
201
199
182
184
180
194
204
205
211
211
209
202
202
199
185
197
202
203
206
202
195
187
188
200
186
182
187
177
182
190
182
193
196
190
204
205
204
200
198
202
215
218
216
216
217
207
218
213
221
222
213
202
181
202
194
171
180
190
186
182
176
179
177
177
172
176
183
189
192
186
195
188
191
203
213
224
221
192
180
153
163
160
161
175
192
170
180
175
197
183
189
195
197
178
168
169
174
195
196
203
213
211
210
199
200
200
194
199
204
205
205
197
197
187
171
195
182
184
182
173
183
189
190
199
201
193
208
201
206
202
196
203
212
211
219
210
228
223
230
209
216
215
209
194
176
189
201
171
174
187
185
182
176
177
181
175
182
179
184
189
185
191
199
194
190
198
208
217
218
206
197
154
166
158
158
170
190
176
179
177
195
187
185
191
188
175
171
172
181
188
184
189
205
200
210
205
206
207
206
203
203
209
207
197
197
186
175
176
174
188
174
173
179
192
199
202
200
200
203
200
203
206
198
199
211
214
215
208
225
225
239
206
217
218
206
198
187
183
204
180
171
186
190
183
174
177
183
173
183
181
186
191
186
200
206
200
192
189
189
206
211
214
216
197
192
182
174
188
196
184
192
180
187
188
189
193
185
169
166
188
196
197
185
186
188
191
202
210
210
205
205
205
206
209
205
198
201
186
181
165
172
180
169
180
193
195
202
201
201
201
198
203
204
204
202
198
211
213
212
206
220
224
237
211
210
219
209
202
192
183
200
196
176
181
190
187
174
179
181
173
182
189
182
187
189
209
210
202
194
185
167
184
212
231
243
226
208
195
206
215
217
206
210
204
205
204
214
216
203
190
189
198
204
197
191
190
185
183
189
195
204
197
211
201
209
213
203
201
200
191
183
167
181
176
174
187
196
201
205
207
199
195
202
199
204
205
201
204
211
213
210
207
210
223
226
219
206
219
212
199
195
181
181
206
172
178
191
186
175
181
180
175
184
190
186
184
188
199
198
186
189
194
184
186
194
213
231
228
215
197
208
219
225
227
236
230
234
235
236
239
222
211
198
203
198
197
192
193
188
191
183
187
197
201
205
199
207
204
200
200
198
189
176
170
183
173
177
192
202
201
203
204
198
198
201
202
200
204
205
204
217
212
213
206
204
216
216
227
208
215
216
201
193
189
175
200
180
172
190
177
178
176
176
177
182
185
187
185
191
191
181
173
188
207
203
201
200
198
209
206
207
197
195
201
196
213
231
235
244
240
237
237
225
214
201
202
201
192
184
190
194
202
203
197
201
201
200
197
203
193
198
199
189
192
170
176
176
176
176
197
201
201
202
193
194
199
201
201
199
202
207
204
217
215
212
209
204
209
211
224
211
205
216
206
194
190
179
199
197
178
186
177
171
176
178
180
181
186
181
181
189
188
181
169
176
197
199
200
207
201
205
200
197
191
189
195
192
190
197
209
213
211
212
218
216
207
206
211
200
189
187
197
198
200
206
201
205
208
209
200
199
190
195
195
187
183
167
173
174
177
181
200
203
197
203
192
194
203
204
200
199
201
205
201
212
216
213
209
205
204
210
213
213
209
212
210
198
195
183
196
205
189
191
180
170
175
182
175
180
181
182
185
192
187
194
187
185
195
201
202
205
198
194
195
200
197
205
198
195
198
195
201
197
203
204
206
212
217
215
213
202
197
202
201
204
209
215
208
205
204
205
211
202
194
197
186
190
183
168
173
171
184
182
200
201
202
198
192
199
202
200
202
199
197
204
203
209
212
210
206
201
203
202
217
209
214
208
213
204
198
189
196
204
199
195
192
175
178
184
180
183
180
180
184
188
190
189
193
187
188
186
184
183
178
168
172
177
179
197
199
193
191
191
194
189
189
189
182
184
192
194
195
196
197
198
196
201
214
214
207
207
205
205
211
206
200
193
187
190
179
172
166
172
178
189
193
197
194
191
188
195
201
194
199
191
195
201
205
200
203
205
201
199
199
201
218
210
207
205
213
208
199
195
205
203
211
192
198
179
178
189
187
190
179
187
187
186
194
185
189
187
184
181
177
171
164
160
167
167
165
166
167
172
164
159
165
166
180
183
179
181
183
191
183
186
189
187
189
198
202
195
204
203
208
206
201
201
188
180
177
187
177
164
162
175
179
190
192
198
195
184
185
196
197
193
192
187
190
200
205
196
202
204
202
197
199
203
214
215
202
201
207
204
201
199
206
203
210
193
193
184
178
188
191
195
185
199
192
188
198
192
190
194
184
181
180
175
171
166
164
166
164
165
165
174
168
169
165
166
175
175
176
187
187
185
182
184
194
199
192
202
205
202
207
206
210
203
190
197
183
179
177
185
171
157
161
174
185
187
193
199
193
182
189
191
195
193
192
187
186
203
202
195
203
203
204
202
196
201
207
219
202
201
206
202
199
202
202
208
206
192
196
188
181
186
188
195
193
199
196
191
191
189
196
206
200
189
186
183
175
172
164
159
163
166
163
167
174
173
175
173
183
181
190
189
190
186
188
194
201
198
199
206
210
206
209
207
206
201
188
196
186
178
181
189
164
154
162
168
190
187
193
195
187
183
191
192
191
192
194
188
185
200
200
197
203
199
204
205
199
200
207
219
209
199
209
202
204
186
201
213
208
196
195
192
184
183
190
196
200
200
199
194
196
191
193
207
205
204
199
198
182
180
173
173
167
171
172
176
173
171
179
183
187
187
188
187
189
187
189
197
200
204
203
207
215
210
206
209
204
197
190
196
182
179
185
191
157
157
162
161
180
185
191
190
183
185
193
190
190
188
192
189
183
196
198
196
200
202
204
202
199
201
206
223
212
199
204
204
192
170
208
216
210
199
195
188
186
183
188
196
200
200
197
196
205
204
201
212
211
210
203
202
194
192
181
174
168
171
166
176
173
178
183
189
189
195
192
194
195
196
200
209
207
215
212
213
221
207
207
206
199
195
193
195
180
185
185
187
163
164
156
166
173
176
188
185
187
188
192
188
187
187
195
188
186
187
195
193
200
203
203
200
200
203
203
221
218
204
198
190
178
174
209
216
204
200
202
188
187
186
186
187
195
188
190
182
186
201
208
213
221
215
215
211
204
204
193
193
177
171
169
180
173
176
177
182
189
189
191
192
195
202
206
209
205
209
208
214
210
210
205
202
197
195
198
192
181
185
190
183
170
186
159
165
173
177
175
179
183
189
189
187
187
185
194
189
182
188
192
191
200
204
200
198
203
203
202
217
214
212
185
172
179
185
206
214
201
209
191
199
185
192
182
180
185
179
187
182
180
184
192
201
210
213
210
220
217
216
212
214
206
192
193
194
185
180
180
187
188
187
193
194
195
203
195
197
195
196
197
203
203
209
201
201
200
200
199
185
183
184
196
189
170
189
185
167
176
172
169
179
181
183
187
184
188
187
192
188
180
191
193
193
195
201
198
199
204
206
200
205
204
210
191
167
188
194
208
203
202
214
187
206
194
192
183
181
177
179
184
181
178
189
189
189
195
201
196
200
204
202
210
216
213
211
208
203
200
190
182
184
187
182
190
190
193
200
193
195
196
191
195
194
203
208
201
202
201
199
199
189
183
187
201
202
175
191
184
187
183
177
167
177
182
180
184
179
181
186
188
185
183
191
192
191
192
197
198
199
204
204
189
184
191
208
197
192
189
191
211
196
199
217
191
211
206
194
189
182
173
177
183
181
178
185
189
187
194
196
197
198
198
189
192
202
200
204
203
201
193
187
181
184
185
189
184
188
186
190
187
184
188
189
191
193
200
199
208
202
203
198
200
191
186
189
205
196
179
191
183
190
193
176
176
187
183
179
180
178
177
184
185
181
185
186
192
189
189
194
196
200
204
191
175
177
190
207
203
206
196
189
213
189
201
195
200
216
206
193
191
187
178
178
182
180
182
185
191
187
196
193
191
198
199
192
196
204
195
198
192
197
190
184
184
190
187
188
184
181
186
184
187
182
186
190
187
196
193
202
204
208
201
196
202
190
187
191
206
201
162
196
198
189
194
185
177
189
193
178
178
173
177
181
183
178
180
187
189
185
185
190
194
201
194
179
166
180
190
210
206
215
195
195
211
192
180
178
206
220
206
197
196
190
188
182
177
186
187
189
188
183
192
194
190
189
193
192
192
205
199
199
198
200
188
183
183
189
186
185
185
183
187
188
192
185
189
194
195
199
197
207
207
204
199
200
201
191
190
191
208
198
160
184
198
194
195
189
183
189
179
192
185
180
177
179
180
170
177
181
182
183
182
191
196
200
179
173
170
179
200
210
203
216
194
198
209
186
154
188
205
224
213
204
198
199
186
189
187
183
189
185
190
184
187
196
189
191
191
194
194
195
196
193
197
193
189
184
190
191
195
189
189
192
195
197
193
191
193
197
198
207
202
206
209
201
203
201
203
191
195
200
201
185
173
169
179
196
210
196
183
188
180
189
183
179
179
185
183
179
180
187
183
182
181
190
196
192
179
172
171
174
200
209
210
220
198
197
205
159
160
200
210
213
218
210
200
201
193
189
191
186
188
182
187
184
191
199
196
192
196
196
198
199
199
188
199
193
198
189
196
196
202
198
197
196
201
198
196
197
201
203
204
213
206
204
203
206
203
201
203
196
206
204
194
189
169
181
150
193
216
209
200
184
181
184
184
178
178
181
183
177
184
189
190
177
177
194
197
186
172
173
167
184
198
206
214
230
199
193
185
142
181
211
209
203
221
210
207
205
196
190
185
188
185
184
187
186
187
192
196
200
205
200
195
195
199
192
200
194
195
195
201
206
208
204
198
197
197
196
198
209
205
208
210
215
204
207
204
210
204
201
210
198
212
202
194
181
177
179
160
162
217
211
211
193
180
180
182
182
182
181
178
178
184
184
186
176
181
192
197
182
174
178
174
186
200
208
219
229
204
196
156
151
188
217
213
205
217
206
208
215
202
199
193
185
188
190
186
191
191
184
192
198
205
209
198
199
202
199
204
199
199
199
201
206
206
200
198
202
203
202
204
208
209
209
210
215
203
213
214
208
208
207
215
206
215
208
185
179
183
178
174
155
197
212
212
200
185
177
178
189
193
182
175
182
181
185
183
174
181
198
195
182
178
174
184
190
209
210
222
237
206
188
138
165
187
210
217
217
215
203
204
213
203
213
200
189
184
188
189
187
187
186
192
205
195
208
200
201
204
205
205
203
199
196
195
198
201
193
197
197
204
201
207
200
209
208
212
215
212
215
216
209
210
209
212
207
219
205
185
182
171
186
187
165
169
209
217
204
191
189
176
187
193
188
176
185
185
186
186
187
196
206
199
192
181
174
195
209
218
203
218
233
208
187
136
168
185
211
207
227
216
203
210
204
213
218
203
200
190
185
187
188
186
187
195
203
194
195
194
198
195
200
195
197
196
193
195
196
195
192
193
192
196
197
200
202
212
211
216
216
218
215
216
213
211
208
210
206
223
194
175
179
171
190
195
186
155
191
218
211
193
195
190
178
193
190
177
180
185
186
185
191
198
204
200
192
184
180
214
230
218
198
214
237
213
178
141
161
185
209
205
224
223
206
212
208
209
213
206
206
195
185
185
182
182
183
188
192
193
193
194
192
195
194
194
191
193
191
191
198
199
193
188
189
195
198
203
207
213
210
216
223
219
216
217
212
209
206
219
210
225
185
183
171
173
186
197
210
159
161
211
221
202
192
191
183
192
190
185
182
195
193
190
188
200
199
195
194
183
191
215
224
216
199
205
236
215
168
140
157
189
197
203
223
221
217
212
209
209
208
207
210
200
198
186
185
183
183
185
186
181
190
190
190
194
194
193
193
188
191
198
198
195
194
190
190
198
203
209
208
211
219
220
221
216
216
217
215
204
201
230
224
209
176
186
174
172
181
198
214
185
144
184
229
210
197
190
185
197
191
191
182
196
189
193
199
205
210
202
207
201
196
227
219
212
198
206
231
182
160
150
153
183
191
210
219
212
219
219
215
210
207
207
206
197
202
188
187
189
185
176
179
179
181
186
182
192
189
194
195
191
187
194
191
191
194
189
192
201
200
202
204
213
220
214
212
217
218
217
207
205
207
225
233
188
173
180
173
171
188
198
199
203
146
161
221
218
196
191
189
197
195
194
188
188
194
186
199
216
212
208
211
196
212
229
215
197
207
210
227
159
166
149
153
168
190
225
211
207
218
217
224
214
214
203
209
198
205
193
186
186
183
176
175
176
178
182
174
182
179
183
186
184
185
184
186
183
189
188
194
191
190
191
203
215
214
207
210
223
222
215
206
209
217
214
232
176
175
190
168
181
184
199
200
209
158
156
191
228
197
193
193
193
198
196
193
197
198
189
202
210
206
207
204
195
220
224
211
188
218
209
203
168
159
147
144
159
184
231
205
202
212
213
218
225
220
209
209
201
206
197
193
183
182
174
177
171
173
180
177
181
176
181
180
176
176
175
178
182
184
190
189
186
195
199
210
213
210
212
217
217
222
215
207
210
208
211
210
176
184
190
172
184
182
192
220
196
172
155
169
219
211
198
187
194
203
197
193
198
201
196
196
207
214
206
210
209
222
217
209
191
195
183
173
164
158
141
127
153
179
220
208
203
206
209
213
223
228
221
215
212
206
206
199
189
174
172
174
168
176
178
175
175
179
185
179
176
179
177
183
184
187
192
191
199
203
203
210
212
213
214
216
217
222
212
204
198
199
204
188
190
188
191
179
193
185
180
225
189
181
158
167
188
213
208
193
197
201
199
198
196
199
205
