P2
# Face with average contibution
92 112
255
182
186
184
184
184
190
180
186
185
180
180
185
189
190
185
183
179
186
190
183
186
186
188
183
180
182
177
174
182
184
197
200
197
195
189
193
187
169
162
169
176
180
184
185
187
188
183
193
198
193
192
191
183
183
190
185
186
191
187
194
180
183
181
190
188
187
183
174
174
168
175
171
177
190
184
185
188
186
187
180
183
184
178
174
169
174
174
177
179
181
179
179
184
182
186
178
191
182
185
184
181
178
174
184
177
173
170
171
190
195
184
191
189
190
181
178
179
177
183
188
199
199
195
203
193
192
191
180
181
177
173
174
174
181
179
187
188
184
185
187
189
202
204
194
182
189
185
186
182
188
183
192
187
180
180
185
188
190
199
190
189
171
165
173
168
179
184
188
188
186
188
180
183
179
181
173
171
168
174
174
179
181
176
178
180
184
183
187
192
186
178
180
178
173
173
179
171
158
173
187
200
193
182
182
181
182
180
175
179
170
186
189
194
201
198
191
191
191
188
180
176
168
179
183
169
181
189
188
189
185
186
186
193
202
206
195
190
188
192
192
185
193
185
190
188
188
181
193
193
199
198
194
193
191
184
179
175
166
178
187
193
186
187
187
180
179
178
175
173
167
171
178
175
182
176
176
181
184
186
187
189
181
181
175
175
174
180
183
172
178
194
195
187
184
188
178
177
170
170
176
173
163
181
184
188
179
182
190
187
187
183
186
176
172
173
182
179
180
187
186
187
184
189
189
197
206
207
194
203
202
198
203
191
183
189
196
199
189
184
188
195
195
191
197
187
189
183
192
199
187
177
183
195
185
188
184
182
182
182
172
172
173
170
172
170
180
176
177
184
182
184
186
178
180
178
181
178
179
178
185
179
194
190
191
179
181
174
178
172
182
189
180
174
170
174
174
175
177
174
173
188
189
187
184
185
182
178
186
187
189
187
189
198
194
190
197
205
209
203
197
206
202
204
206
195
192
187
189
207
195
193
187
194
192
185
195
184
183
183
182
193
194
196
190
178
185
189
179
184
187
182
176
169
175
173
172
169
173
178
177
182
180
180
180
177
178
177
180
184
187
187
185
183
187
183
183
176
180
166
175
180
187
198
189
169
173
167
173
167
170
173
176
178
191
190
186
186
185
178
187
187
185
185
192
201
196
195
191
195
198
205
197
200
201
189
201
197
193
199
203
206
200
197
199
196
203
188
195
191
185
192
187
187
189
193
195
184
173
181
177
185
182
179
177
174
170
175
173
172
176
179
179
185
179
183
179
175
180
182
186
185
187
185
180
186
187
185
178
176
175
172
183
193
195
183
180
185
177
166
168
163
172
172
184
195
193
195
193
182
183
178
184
191
186
184
196
201
204
203
197
193
196
200
196
203
199
196
192
193
198
198
208
209
199
196
201
197
200
194
193
192
193
188
191
187
193
189
193
192
182
174
170
187
189
181
182
176
174
172
173
171
177
180
177
184
183
183
179
177
181
194
188
183
184
187
183
189
189
188
179
174
186
188
192
186
188
173
188
195
194
181
168
169
171
177
190
191
190
196
192
184
177
172
181
192
181
180
193
196
196
202
198
196
203
193
200
198
191
195
193
192
199
202
197
200
206
198
200
199
201
196
207
198
199
192
189
198
190
180
190
197
187
192
179
180
189
177
179
182
179
177
175
182
173
181
182
186
182
185
184
190
197
194
191
185
185
195
197
200
190
198
189
188
193
191
193
188
185
179
191
191
182
171
178
175
181
184
178
196
189
197
191
182
175
165
184
192
187
189
185
196
199
202
196
198
201
196
198
206
193
192
187
187
198
193
190
198
194
190
197
198
192
194
205
212
206
190
182
194
199
184
182
185
196
189
188
188
186
185
176
181
182
183
179
176
178
181
178
187
183
194
199
203
196
192
193
192
188
208
196
196
193
201
197
195
198
196
195
191
190
190
186
185
179
169
172
190
190
183
191
204
193
194
193
185
186
171
180
199
202
195
195
200
205
197
196
200
198
198
201
208
201
186
191
193
194
192
182
198
193
186
183
188
187
187
194
206
206
200
187
186
199
196
182
188
180
186
192
184
184
182
181
179
175
182
180
181
177
181
181
182
187
206
211
199
195
192
194
190
202
202
193
196
200
206
204
204
199
199
193
184
197
193
192
186
183
176
169
177
187
190
194
192
189
188
193
182
192
188
186
199
205
204
198
201
206
198
204
203
192
200
204
214
209
195
198
201
200
201
193
196
197
185
184
173
174
177
190
190
198
202
202
195
193
198
199
186
183
186
189
190
175
181
186
178
175
175
185
183
179
182
184
184
198
212
209
196
194
190
189
191
199
195
190
200
202
214
201
198
194
191
188
184
194
191
199
184
182
177
178
180
185
191
186
196
198
190
189
185
188
190
197
202
211
209
200
197
204
201
203
203
199
199
206
207
213
217
209
203
201
199
192
193
191
183
178
179
165
163
174
175
189
187
206
201
204
199
195
192
186
191
187
186
182
173
185
186
177
177
180
187
182
186
181
198
200
215
202
194
189
194
198
206
194
190
190
200
202
210
208
202
202
207
193
194
189
183
185
180
184
177
176
185
196
193
195
195
194
195
192
197
193
186
191
198
209
210
208
191
207
200
206
206
202
203
207
211
213
215
211
203
200
198
189
185
190
194
186
183
179
163
164
167
178
176
186
201
200
202
193
187
198
184
186
188
187
181
173
181
181
173
181
185
184
185
186
202
203
204
195
196
196
192
210
206
194
195
201
205
201
194
194
196
184
179
183
199
189
186
180
173
176
177
190
187
192
196
197
194
195
196
200
199
191
194
199
201
201
199
200
193
202
196
200
194
193
197
202
206
209
211
209
206
204
200
193
190
191
195
189
191
185
177
167
165
179
181
176
174
191
198
193
177
193
189
183
184
184
188
179
178
175
175
176
188
181
187
188
202
205
200
194
202
195
198
202
199
192
204
207
204
193
200
190
192
183
172
191
192
191
187
168
175
176
187
199
195
194
193
198
191
195
192
195
198
188
193
195
205
202
192
188
186
193
197
196
189
190
204
210
202
198
209
199
194
201
204
194
186
193
189
198
190
182
177
171
163
172
169
171
170
174
194
192
182
185
186
188
193
189
186
185
177
174
171
168
182
184
185
188
200
197
199
199
198
195
203
205
207
207
211
201
203
200
191
187
187
181
189
190
191
189
177
166
177
184
196
200
196
193
188
192
190
192
188
193
196
191
191
195
203
199
189
183
193
181
190
185
186
192
200
202
197
195
204
204
196
198
204
192
189
191
189
193
189
191
180
171
165
169
164
158
167
176
176
190
192
181
190
191
192
194
190
183
187
174
168
161
178
185
184
191
203
196
197
206
196
203
198
207
201
211
207
203
204
207
199
196
184
189
189
190
197
187
169
170
182
184
198
198
195
190
185
191
187
188
188
191
192
186
195
195
194
195
183
181
191
186
183
188
183
189
187
189
191
203
205
209
205
209
206
189
189
191
189
184
191
191
188
171
164
160
163
164
173
177
178
192
193
194
197
192
201
196
190
196
197
185
173
158
166
185
179
186
204
202
195
199
185
202
201
199
202
207
205
191
187
194
200
188
197
193
196
195
202
188
175
182
186
189
192
191
190
187
186
195
195
192
193
190
188
190
194
189
185
188
188
192
199
189
178
184
187
188
183
190
197
200
206
207
206
206
201
200
194
193
188
190
192
189
188
177
171
158
165
169
167
171
178
186
188
187
198
192
206
200
199
196
196
185
184
166
158
177
179
181
207
197
200
190
198
203
210
209
200
193
191
196
198
195
190
188
189
193
206
202
195
177
187
188
190
197
191
190
188
190
190
192
198
194
197
198
201
198
196
189
189
186
193
195
201
196
184
179
186
186
190
192
200
195
200
201
205
198
193
199
196
192
189
190
190
198
184
189
180
174
169
166
176
176
183
186
188
193
191
192
197
211
200
194
200
187
184
183
167
167
176
182
202
196
206
196
204
218
207
203
185
198
201
206
195
182
182
189
181
199
207
198
189
177
182
185
188
195
193
191
191
194
195
199
200
199
199
203
198
199
195
192
193
187
193
190
199
194
188
188
188
189
191
195
198
194
194
204
200
199
190
194
188
189
193
200
192
194
189
185
181
186
181
171
169
178
183
183
190
188
198
202
201
192
207
191
201
202
184
187
176
171
172
183
196
205
197
200
200
204
186
201
206
213
210
193
182
176
183
178
182
202
202
187
180
172
180
187
188
190
202
191
184
192
197
198
199
200
202
197
200
200
196
196
193
196
201
197
205
204
187
187
192
191
194
194
195
198
200
201
202
200
188
188
190
185
185
191
191
191
187
187
191
184
188
184
170
170
175
177
181
184
200
200
201
194
193
195
192
200
203
184
184
173
172
174
201
202
198
195
203
179
186
204
215
204
196
182
168
178
182
188
188
197
188
180
175
173
186
190
195
199
200
194
190
193
195
195
197
195
194
199
197
196
193
198
194
200
199
201
206
201
194
188
187
191
194
198
192
197
200
196
196
187
182
186
185
180
179
177
174
188
184
183
196
188
191
180
184
176
168
166
168
178
185
201
192
195
198
191
187
187
200
189
200
178
173
177
207
194
201
203
193
180
199
203
194
192
189
168
165
173
186
193
188
189
180
174
170
192
187
192
205
206
195
194
191
189
191
196
199
194
189
195
192
194
196
195
200
202
198
202
204
199
191
191
189
194
189
193
189
195
192
194
189
183
182
189
185
185
179
176
170
169
182
175
187
190
194
188
183
187
180
170
167
176
185
190
197
195
204
200
184
173
188
192
194
194
169
181
203
200
208
190
191
196
193
191
187
188
179
160
168
177
189
191
185
178
178
176
177
198
196
201
205
208
196
193
191
191
190
194
193
189
188
189
188
197
202
199
197
195
202
200
200
203
191
189
185
188
185
189
189
191
186
189
193
187
188
189
186
186
181
176
164
155
167
174
175
182
187
186
178
186
183
175
176
179
180
183
198
196
207
209
198
183
167
189
192
187
174
188
203
203
194
179
187
190
186
181
180
170
162
154
165
179
182
179
166
172
178
181
187
193
200
202
203
206
199
185
184
189
183
183
185
184
190
184
186
188
198
199
195
195
195
197
195
201
191
186
182
182
175
178
181
182
184
181
192
186
186
184
183
185
181
173
162
155
157
166
176
180
184
187
178
179
177
170
177
178
179
180
182
194
193
210
206
199
180
175
193
197
176
185
201
186
186
190
184
182
197
186
169
154
146
147
159
170
168
164
161
172
186
191
186
194
201
198
196
205
199
183
177
186
184
180
182
181
185
182
182
188
197
192
195
188
190
191
193
196
192
188
181
182
180
175
178
176
184
181
185
186
187
180
180
183
180
173
164
159
157
164
172
176
184
180
176
174
177
163
158
177
178
184
180
188
191
189
196
196
202
188
183
200
193
187
201
187
178
183
172
173
194
184
143
152
135
148
166
170
158
164
173
183
192
193
183
197
203
197
188
195
198
185
183
180
188
181
182
181
186
183
180
185
190
192
185
183
181
181
186
186
186
186
184
180
182
178
180
185
182
180
180
186
183
186
182
180
180
179
173
168
165
168
172
174
176
174
182
178
177
163
157
170
181
179
186
179
197
185
179
182
204
203
195
197
194
192
190
188
174
180
166
177
180
162
151
153
150
165
172
149
161
173
173
182
193
200
189
195
198
200
191
189
197
196
188
185
184
188
181
183
184
178
177
177
177
177
179
176
174
175
183
180
182
182
181
178
180
180
180
184
185
184
186
184
184
188
182
181
184
182
183
175
172
172
171
175
178
177
175
183
171
169
163
166
170
177
185
183
202
183
186
172
194
196
203
199
203
195
190
193
187
174
181
173
171
165
158
167
160
164
158
156
171
176
181
192
205
211
195
198
195
201
200
199
199
200
196
186
188
191
186
189
186
180
184
177
181
180
181
178
178
182
183
185
184
185
182
178
181
186
184
184
188
193
189
189
190
189
185
183
185
188
189
187
185
182
173
180
183
182
180
186
177
172
165
168
173
173
174
183
195
185
174
180
187
195
193
208
206
201
189
193
182
182
178
181
171
162
165
165
149
147
155
163
170
178
188
203
213
212
207
201
201
205
203
205
204
198
195
189
185
192
188
186
191
180
184
182
185
187
188
184
186
187
185
190
188
190
186
183
185
182
187
188
192
195
194
192
196
194
191
190
188
187
193
191
194
190
186
186
192
187
186
187
188
177
164
170
176
180
172
175
188
187
189
182
187
200
198
210
209
205
195
189
173
184
177
184
167
157
165
156
135
148
166
173
186
195
200
207
212
214
215
209
204
206
205
208
209
203
191
190
186
190
191
186
189
180
181
185
188
192
186
190
195
197
191
193
192
198
191
185
184
185
186
188
195
195
196
197
199
195
194
195
192
191
191
190
192
191
187
195
190
191
196
191
193
185
171
170
177
181
172
170
184
191
190
193
178
193
203
211
213
208
194
187
165
184
182
181
169
155
162
144
143
170
178
186
204
209
201
197
208
211
222
214
208
208
210
207
202
200
190
190
187
192
191
188
191
185
185
190
193
194
191
193
198
197
194
192
194
196
191
186
183
188
188
187
189
192
196
195
195
194
197
196
195
193
191
189
192
193
191
198
198
194
199
195
195
186
187
174
180
185
172
173
178
189
182
188
187
178
202
208
217
213
187
180
169
187
185
172
174
161
158
156
167
182
185
196
213
211
199
199
203
213
223
218
212
209
205
202
199
196
189
188
185
190
195
189
188
192
192
194
198
195
195
192
197
200
196
190
194
192
190
183
184
188
190
191
193
193
192
195
196
195
196
195
195
196
192
193
198
194
191
198
198
195
207
199
206
186
181
184
176
186
176
167
172
176
182
178
190
181
201
217
214
213
179
180
183
185
177
176
178
166
168
171
178
183
190
204
212
213
212
206
210
217
219
223
218
213
207
205
204
198
189
183
186
187
193
192
188
191
194
193
199
197
190
193
192
197
196
191
192
188
189
184
183
192
192
192
195
191
190
192
193
195
191
192
195
197
192
197
196
196
193
193
197
195
207
208
204
200
176
179
183
173
175
168
174
167
176
183
184
182
197
215
212
215
178
187
184
185
173
173
169
166
171
179
184
184
191
199
205
215
209
212
213
208
212
214
210
205
206
206
201
194
190
199
195
190
194
196
191
200
197
195
200
196
193
192
195
195
196
196
195
194
194
187
186
191
196
193
197
194
192
193
191
191
189
187
187
190
195
196
196
195
189
192
190
196
200
211
208
201
185
181
183
185
171
166
174
175
170
178
195
188
192
203
208
210
183
189
179
185
173
161
167
163
172
192
196
191
195
195
209
211
203
200
204
202
201
204
200
200
206
203
197
187
198
206
207
193
192
193
190
194
192
183
190
187
180
187
189
193
193
190
195
189
192
185
188
187
196
189
199
197
190
191
193
190
192
195
194
198
198
197
199
191
185
193
194
188
197
203
217
196
191
180
183
185
189
169
176
173
176
173
189
187
190
198
201
204
189
188
181
179
173
158
163
168
178
201
204
193
197
192
193
193
192
208
209
209
211
215
214
213
217
208
201
198
206
209
209
204
196
198
195
186
187
182
188
176
171
180
179
180
191
184
192
189
190
186
189
192
198
198
193
192
191
194
200
203
205
206
203
208
206
203
204
194
189
190
197
195
197
211
222
218
195
188
181
183
193
175
179
178
172
178
183
191
182
194
198
199
190
188
171
173
169
171
163
182
194
198
202
198
189
175
192
198
192
202
215
218
215
216
212
211
203
192
188
192
211
214
215
204
197
192
198
189
194
192
188
183
176
176
177
184
186
188
187
190
192
189
188
193
193
196
181
184
194
193
200
204
202
208
204
202
200
199
196
194
188
187
191
194
193
205
215
222
210
200
189
188
199
186
169
168
186
180
180
194
184
188
195
193
187
178
166
163
165
168
175
189
188
202
200
187
187
183
196
194
187
207
216
209
208
202
199
192
187
180
178
181
202
207
210
206
185
179
190
190
194
196
194
192
183
181
179
195
194
198
195
197
199
196
194
195
199
193
192
182
185
188
190
192
196
205
193
199
192
187
192
193
190
188
186
190
193
196
209
215
216
196
187
201
187
196
182
171
176
186
186
199
186
190
190
191
177
174
157
152
165
156
186
187
188
194
188
198
193
183
194
188
186
208
206
201
204
196
189
183
183
187
183
185
198
214
209
201
191
185
182
183
190
195
191
195
200
202
185
196
200
202
202
202
196
195
195
199
204
192
194
192
184
183
185
185
182
187
180
195
189
188
189
188
196
190
187
190
188
196
199
210
209
197
202
195
194
179
181
188
175
179
192
202
197
192
188
194
178
159
151
150
166
154
178
187
179
178
194
201
187
181
190
186
188
207
204
193
194
187
191
196
197
193
180
177
185
207
193
194
195
195
185
192
193
198
196
196
198
211
196
192
196
188
194
197
191
187
185
194
197
187
186
192
181
181
185
188
175
198
208
209
193
190
191
192
204
194
191
185
183
184
188
194
199
187
189
202
196
186
177
187
175
178
181
192
199
191
193
199
168
169
143
153
158
176
180
173
161
165
210
192
181
182
187
183
202
208
202
189
186
184
187
192
191
189
180
178
197
205
196
203
196
198
192
193
199
209
201
201
198
202
212
196
197
190
207
214
205
177
178
177
188
196
189
187
182
183
187
188
185
204
213
217
206
191
193
200
211
216
217
210
194
198
192
202
196
188
184
199
198
178
191
180
171
166
174
177
195
185
200
200
162
171
155
163
162
180
192
152
153
160
194
180
166
173
178
188
203
204
197
172
183
187
188
189
189
176
180
192
197
208
209
210
208
198
193
191
192
197
205
208
200
208
202
194
206
200
207
224
211
198
202
196
194
196
187
186
186
192
190
192
193
197
212
206
207
190
186
196
210
212
218
220
201
195
209
203
203
203
189
196
202
197
182
164
164
166
171
171
179
187
206
190
150
169
158
179
176
189
189
173
162
172
190
169
167
163
184
201
210
210
194
176
178
186
183
194
182
179
177
191
176
183
184
181
185
193
194
183
183
192
199
202
205
208
201
203
232
225
213
226
220
211
207
204
203
196
186
180
186
189
190
184
185
182
190
198
206
205
206
201
212
212
220
217
214
199
195
199
205
211
196
197
202
208
179
166
170
167
172
172
182
185
198
176
138
163
173
164
187
182
197
197
187
182
203
179
182
159
193
192
210
201
188
170
169
191
195
219
196
182
182
186
186
183
197
193
192
178
197
182
175
186
197
204
201
207
194
203
223
220
223
225
226
213
203
218
213
204
191
181
185
183
172
170
181
179
192
185
190
203
204
188
190
202
207
212
195
194
194
183
202
208
200
190
202
201
199
162
183
185
168
170
185
194
186
179
127
151
179
161
181
180
196
199
193
191
202
194
189
181
187
192
200
190
178
175
169
196
216
219
183
169
177
162
179
192
196
184
183
175
188
191
188
192
194
197
199
201
201
202
213
204
203
212
211
208
203
210
214
196
184
172
181
174
167
169
180
197
205
194
194
197
202
194
177
192
204
188
190
167
174
182
184
198
188
192
193
195
193
173
177
180
170
163
185
196
188
173
135
141
171
162
173
183
192
201
202
202
210
185
187
184
182
193
190
170
171
180
195
194
200
189
168
160
178
155
172
178
182
180
172
180
183
185
201
205
204
199
202
200
210
214
213
196
202
212
218
199
194
201
216
193
174
176
180
181
165
174
194
203
205
202
195
192
196
196
180
193
198
171
174
161
163
174
180
191
179
180
197
188
181
173
172
175
166
157
186
186
188
171
142
134
163
172
175
191
203
195
202
207
222
175
183
195
185
200
203
192
193
202
221
207
202
199
173
165
184
171
170
166
169
174
173
190
192
202
216
211
217
210
213
206
206
214
196
187
198
212
208
190
186
192
216
197
169
178
180
172
165
171
192
191
208
195
198
202
196
205
190
177
183
174
167
172
164
164
174
188
182
162
178
188
166
167
175
169
163
166
169
180
188
183
154
147
169
187
187
196
205
198
203
205
226
193
208
206
186
195
202
192
199
212
222
211
196
201
210
187
190
186
173
167
177
175
170
185
188
207
218
222
220
217
222
218
212
209
188
185
193
201
197
184
179
184
210
194
174
174
183
171
155
166
168
179
181
176
178
190
196
203
192
183
180
178
174
178
177
163
170
184
185
161
175
194
171
158
190
182
175
191
184
176
183
191
177
174
180
213
206
195
197
196
208
226
223
204
216
201
198
192
197
195
190
216
228
209
201
202
208
194
192
193
180
176
181
178
176
183
190
205
217
224
221
224
231
205
201
201
187
188
195
199
196
191
183
182
204
196
174
170
169
178
171
171
163
174
183
163
169
167
187
191
183
176
179
175
167
168
182
171
179
180
183
165
174
195
162
170
198
186
183
189
185
193
176
193
204
196
206
233
228
195
197
197
206
237
223
209
207
184
196
203
198
194
195
205
221
196
190
193
198
202
219
191
196
186
194
187
177
173
180
198
214
220
214
217
230
201
191
193
192
190
200
200
189
193
189
177
192
202
181
178
179
189
191
188
165
152
154
147
167
163
187
207
193
179
176
175
168
170
182
175
187
181
186
175
177
192
158
176
208
191
184
182
181
206
178
192
213
204
214
242
234
198
202
209
211
242
232
218
210
181
202
211
201
203
207
194
200
220
220
209
203
197
183
187
189
174
177
174
175
179
177
179
202
211
203
216
217
200
185
184
193
191
191
194
183
189
187
190
184
188
196
184
183
199
194
197
178
169
163
151
174
176
189
189
203
192
179
173
177
171
181
184
187
181
180
182
189
194
167
173
206
189
184
171
178
190
202
191
209
194
191
230
218
201
206
209
215
244
233
229
216
196
208
209
204
204
199
189
209
226
232
226
220
198
176
176
173
185
195
180
176
180
179
168
189
194
190
224
207
211
176
177
189
186
175
193
185
186
188
187
180
173
188
184
186
198
194
198
208
202
194
174
177
182
194
202
204
216
194
180
181
174
172
184
190
185
184
177
200
189
167
170
183
173
175
181
173
182
197
205
200
189
188
215
229
220
193
198
202
238
244
232
216
203
220
212
210
201
193
202
212
220
237
235
223
172
187
188
185
203
200
179
181
185
183
176
195
192
197
209
201
194
163
162
172
174
178
190
188
183
181
179
172
179
186
199
184
204
191
191
204
205
214
195
208
182
191
220
221
210
198
183
182
174
176
179
187
197
185
182
211
192
170
169
156
170
177
182
161
176
191
229
197
186
198
225
233
235
208
195
201
223
253
239
219
212
221
204
193
198
197
195
204
200
215
212
199
178
193
203
215
214
203
194
181
196
200
191
186
193
209
188
195
175
159
162
169
176
189
194
196
186
176
176
172
176
192
212
205
188
193
193
187
203
207
206
217
191
194
206
215
207
197
186
177
179
182
190
184
189
171
187
213
191
178
166
157
169
197
184
161
171
195
236
192
187
203
224
255
219
219
202
204
210
253
246
215
209
213
189
169
185
185
182
191
193
190
186
178
169
199
201
213
203
196
202
198
203
200
201
192
196
206
190
205
181
170
176
176
189
194
194
195
194
174
175
183
178
195
202
213
189
171
182
186
198
203
202
200
187
191
193
194
191
188
181
173
179
185
191
191
188
167
203
199
200
179
168
165
199
216
183
168
173
202
220
182
182
202
216
246
211
210
226
212
216
242
245
203
187
202
181
154
169
161
160
167
175
177
179
177
179
182
194
188
183
196
200
201
202
201
196
205
201
198
203
200
185
184
182
187
192
197
194
198
192
176
174
187
174
186
189
194
192
173
180
185
178
182
179
168
164
177
176
183
179
178
175
166
167
183
185
196
197
178
203
191
203
183
178
178
215
233
184
176
175
207
201
191
186
193
189
229
206
201
228
215
223
246
224
197
187
189
180
166
164
158
159
167
182
191
186
184
179
167
168
162
180
185
192
197
191
179
196
203
198
196
202
194
178
182
181
187
186
194
195
191
192
181
176
178
177
176
176
173
184
184
193
189
183
174
165
164
159
174
178
185
182
173
170
161
164
172
186
201
216
181
188
201
196
178
188
211
210
237
197
184
193
206
205
200
190
191
176
206
190
181
189
193
209
248
224
176
195
191
179
175
170
171
172
178
190
198
196
200
186
177
186
182
194
200
198
196
196
188
192
192
200
192
191
182
182
178
187
187
189
188
193
191
200
191
170
174
168
176
174
164
175
178
197
212
196
185
176
166
170
185
192
199
192
185
183
170
172
189
179
196
195
170
182
201
188
171
177
194
213
240
200
190
214
203
206
215
182
194
179
195
163
156
162
177
193
229
223
192
184
182
190
181
192
176
184
188
194
201
207
213
212
207
210
207
205
201
207
202
185
187
178
200
213
192
184
178
182
181
186
192
190
189
194
193
210
198
180
172
168
176
189
171
173
178
187
203
213
200
194
196
202
213
218
212
205
204
196
181
176
182
172
187
185
167
183
196
187
179
177
184
216
225
199
193
228
197
211
228
176
198
187
184
156
152
155
171
179
214
217
194
199
175
194
174
190
203
190
189
189
199
213
219
227
205
219
213
202
192
186
179
179
168
182
205
204
193
180
180
186
184
181
195
199
193
198
198
217
205
190
168
164
170
181
178
174
185
190
197
206
208
216
223
218
220
217
216
201
198
198
183
177
182
181
186
178
169
174
184
184
181
184
181
212
209
197
187
231
198
213
230
183
198
182
178
154
146
151
178
185
217
211
192
197
191
187
184
175
189
196
188
188
198
211
206
217
202
198
209
196
171
173
178
170
176
190
198
195
194
190
189
199
185
184
199
203
199
193
202
216
215
193
184
168
170
178
178
165
179
185
177
172
159
193
201
198
183
190
195
202
200
188
190
182
183
186
181
171
165
166
178
183
190
189
185
199
208
196
194
222
200
210
229
199
193
195
170
160
149
154
185
204
220
212
195
188
194
192
203
194
182
180
165
165
182
201
202
199
202
193
192
177
155
150
164
179
181
184
193
192
192
206
202
200
190
190
193
196
199
191
204
219
212
197
185
188
187
193
176
166
184
201
190
187
172
182
187
177
163
170
180
193
196
191
185
182
172
179
167
170
168
169
206
206
211
196
189
203
203
203
204
225
197
213
222
219
190
201
178
157
137
164
188
197
224
204
194
194
185
194
194
201
187
177
161
159
169
191
191
190
188
184
179
155
151
160
170
178
184
185
189
190
204
208
208
210
206
207
201
192
194
196
202
219
215
197
186
196
204
198
184
179
183
204
194
189
184
182
186
179
171
177
180
194
198
204
183
183
171
172
167
173
165
169
218
219
228
206
196
199
200
212
222
227
213
205
219
219
198
207
181
163
133
173
184
191
222
203
188
187
184
185
190
191
191
191
179
167
166
173
178
178
171
163
163
165
170
175
178
173
181
178
193
191
199
203
212
215
212
214
197
187
190
189
198
208
211
196
189
196
202
203
201
190
184
189
191
182
173
175
171
167
169
181
183
198
197
204
188
187
177
168
168
168
166
174
223
223
236
219
203
187
208
218
230
236
221
202
210
226
201
209
195
166
142
167
177
192
216
203
188
181
178
181
186
189
187
189
190
183
184
186
180
179
173
171
173
173
174
173
175
170
176
180
191
191
193
208
215
208
192
185
180
178
180
181
192
199
197
191
192
185
183
183
194
189
185
180
180
157
163
160
164
165
170
179
183
196
194
192
182
180
179
170
168
165
174
179
219
225
230
239
207
192
215
228
234
234
218
177
215
221
217
213
212
171
156
152
184
191
196
202
193
179
175
179
177
183
188
187
181
178
181
184
182
181
179
175
178
172
167
168
166
174
178
184
183
193
195
196
203
188
180
181
178
182
181
172
178
181
187
198
192
186
190
179
176
181
186
177
160
154
168
171
168
168
168
177
178
189
189
176
174
167
170
170
165
167
181
180
205
225
228
240
211
185
225
230
234
232
206
178
217
220
218
218
226
173
164
159
177
188
188
196
204
176
171
178
178
187
185
188
178
180
184
185
192
186
188
181
176
177
168
164
171
169
174
178
179
187
198
196
193
180
178
184
182
188
185
184
182
188
182
190
184
170
189
193
183
185
184
165
155
152
164
171
174
169
170
174
177
180
177
168
169
173
169
157
170
170
181
186
189
225
232
227
210
196
221
232
238
218
188
182
207
235
205
214
232
196
163
176
176
186
185
189
211
178
170
178
173
183
183
184
184
184
188
194
197
198
184
180
177
177
163
162
165
162
166
168
167
176
190
197
194
192
178
174
171
184
186
183
187
188
186
175
180
172
176
194
196
194
191
176
174
170
173
175
175
175
171
173
176
179
176
176
181
171
169
157
177
179
180
189
192
223
231
222
196
212
217
235
235
200
178
180
195
223
208
212
227
217
168
181
174
177
181
180
207
177
168
179
178
185
180
183
182
187
190
199
188
184
184
182
179
173
161
165
162
163
170
166
157
175
190
199
195
196
178
171
165
178
185
180
189
189
193
182
166
178
174
188
203
207
204
188
191
179
179
186
184
184
181
175
182
177
172
175
178
171
163
161
173
184
182
195
189
218
229
223
193
213
219
236
219
186
181
176
193
200
202
205
240
220
181
176
177
171
187
170
201
183
167
180
178
180
183
180
179
182
194
180
180
180
182
180
178
173
169
167
167
165
168
166
168
182
198
209
204
196
184
173
175
187
184
185
185
187
189
185
171
176
174
181
202
201
204
205
202
192
188
187
186
186
180
178
179
177
171
175
173
171
163
167
180
184
186
192
183
212
227
224
195
206
219
221
207
189
180
173
203
194
185
196
238
233
199
175
183
177
183
161
193
193
174
180
180
175
178
181
179
187
183
174
183
184
182
179
177
179
173
172
174
169
164
171
173
191
200
205
212
204
189
177
173
181
174
189
194
192
181
191
181
176
188
190
206
199
201
198
208
192
181
185
184
181
181
177
168
168
167
169
170
171
163
173
182
185
186
190
184
204
230
226
198
199
206
210
211
190
177
172
209
192
184
184
216
240
212
192
183
181
174
163
189
196
187
183
186
178
174
177
179
191
172
179
182
187
186
183
184
183
185
176
179
165
170
177
187
197
204
205
200
204
193
184
182
185
180
195
196
188
183
194
195
191
199
195
206
197
198
199
206
198
189
194
189
191
192
182
173
170
170
167
171
164
165
178
186
191
187
184
181
193
225
217
193
191
196
217
213
186
179
181
208
184
181
182
197
217
225
199
178
181
168
162
188
202
195
192
187
179
174
174
177
188
179
185
187
189
191
193
187
191
195
182
176
171
177
176
203
205
205
199
202
213
195
193
198
199
198
197
199
201
204
205
224
219
209
195
207
200
200
201
205
204
200
205
196
202
194
187
179
174
175
172
172
166
170
181
189
192
188
183
190
185
200
193
189
187
202
215
202
182
184
181
206
193
175
181
190
206
210
196
177
176
166
163
173
201
201
195
185
181
175
175
178
187
180
189
193
191
198
200
193
198
195
179
176
178
188
182
187
214
210
216
216
218
212
202
203
207
212
219
219
212
218
217
230
225
207
206
222
219
206
199
206
205
207
203
205
205
202
194
185
177
183
175
176
167
167
177
183
189
195
180
176
172
180
190
184
193
213
213
199
180
183
180
209
197
167
176
185
208
213
187
152
158
162
166
166
200
201
197
186
183
174
178
177
187
187
191
192
198
206
200
204
205
189
178
178
182
192
202
186
215
206
209
217
219
215
213
215
216
219
219
213
211
216
220
217
213
212
214
223
231
207
204
208
206
209
215
213
209
206
199
192
182
182
175
177
169
169
178
180
189
198
178
171
165
183
187
194
203
219
203
196
172
187
174
202
197
174
169
171
201
209
192
156
156
153
161
164
197
200
197
184
185
178
180
176
189
186
183
192
198
202
206
211
202
196
191
182
193
201
202
196
214
209
211
216
216
217
215
220
217
216
208
209
215
214
217
219
215
218
218
217
229
209
204
208
204
203
211
221
220
213
202
193
192
189
180
176
171
173
186
180
186
198
184
169
172
191
182
202
211
215
197
190
176
184
173
198
197
181
171
166
179
198
192
163
160
149
164
158
192
195
197
183
181
178
181
182
186
186
180
193
197
199
207
211
209
201
199
196
206
213
207
196
209
198
200
204
209
215
212
211
211
206
202
207
209
211
212
211
211
214
216
216
217
204
197
203
205
201
202
210
227
212
199
193
191
191
187
184
170
175
184
183
188
190
183
174
181
189
189
206
215
209
191
190
178
183
180
188
200
183
177
174
156
191
200
173
160
164
158
161
191
193
195
181
186
184
183
186
186
182
180
189
201
202
217
215
210
205
208
207
219
217
202
199
207
198
190
193
198
207
205
203
204
203
200
201
202
203
201
207
211
207
215
212
215
203
196
191
197
196
188
204
212
217
195
191
188
188
191
187
173
177
185
192
193
188
181
177
182
186
197
211
215
200
189
189
180
180
190
184
193
193
188
176
161
181
187
176
165
175
161
174
189
195
191
184
185
190
184
186
182
183
180
186
195
210
211
211
208
211
203
209
214
202
187
190
189
187
185
185
184
187
189
187
189
182
189
191
194
203
188
203
210
209
215
216
212
204
192
186
193
189
182
189
195
208
205
185
185
186
183
191
182
180
187
196
197
186
184
179
188
191
204
207
206
194
197
182
178
182
182
184
185
193
193
184
164
174
169
169
168
183
172
193
192
195
189
189
184
192
187
190
181
183
181
184
192
204
199
201
204
198
197
196
196
186
182
188
179
177
172
168
173
164
167
169
166
168
174
179
187
193
190
198
215
213
215
219
211
209
195
185
183
186
181
176
179
187
201
184
184
189
193
187
188
181
191
201
201
191
179
184
191
205
197
205
198
198
200
179
186
183
181
185
189
189
184
195
184
168
159
155
159
181
186
200
202
201
193
199
189
192
192
188
185
174
184
182
197
186
189
195
189
185
181
180
185
186
185
188
174
167
158
155
160
161
160
162
163
159
161
171
187
188
192
198
206
197
201
209
208
214
216
199
187
181
180
165
166
167
188
183
177
184
196
187
190
178
187
199
194
185
183
190
199
195
194
202
203
202
194
185
187
186
181
187
189
190
184
195
195
168
161
151
152
172
184
190
206
202
197
203
195
192
189
192
186
176
181
180
189
183
181
189
178
186
184
182
185
195
206
200
189
184
161
158
157
163
157
165
170
155
163
170
184
194
196
206
201
185
194
196
191
203
212
204
197
178
182
169
168
172
187
176
175
181
185
185
184
178
181
187
178
169
191
198
200
187
194
207
204
204
181
187
193
191
187
193
189
184
192
198
198
167
158
155
148
159
187
180
205
203
202
207
201
192
187
195
186
182
183
184
186
183
175
187
185
196
206
198
191
196
208
216
209
209
202
188
181
186
184
179
182
174
179
192
198
206
204
197
184
180
195
195
186
191
199
205
192
189
188
183
182
181
179
168
171
179
183
182
164
177
180
181
156
176
198
196
198
186
198
209
210
197
179
182
190
195
190
188
187
187
193
202
200
177
155
158
149
149
183
177
194
211
202
208
202
193
192
199
190
186
196
196
193
188
183
183
189
197
207
208
205
218
224
216
214
231
224
210
198
217
208
201
198
191
192
205
214
203
193
186
189
188
204
205
205
204
206
206
200
196
189
197
193
188
180
165
174
181
188
177
168
172
184
171
148
185
201
197
202
190
203
208
209
186
180
186
190
188
194
184
185
191
193
195
200
188
161
152
152
145
175
175
186
210
207
208
204
194
195
196
198
194
198
198
199
186
196
201
199
204
209
218
223
220
232
227
209
223
220
224
209
215
202
205
204
201
194
196
204
201
202
207
211
206
217
219
229
228
224
213
204
197
198
204
199
198
187
176
188
187
186
173
169
177
184
164
143
198
200
198
198
192
205
216
199
179
183
181
186
192
194
179
186
183
188
188
189
200
194
158
152
151
165
182
175
205
209
206
203
195
197
195
200
201
201
203
195
194
196
203
209
199
206
224
230
221
216
215
204
212
202
205
208
196
194
200
198
200
188
190
194
203
205
210
217
204
214
218
228
216
213
199
203
205
208
200
193
200
196
186
199
202
187
177
177
187
186
152
159
197
197
195
196
194
205
213
191
176
184
180
183
199
193
189
186
180
183
183
187
217
213
170
157
159
164
180
177
195
205
210
204
192
188
192
201
198
210
201
200
185
184
194
195
172
178
171
184
191
193
200
185
193
195
183
182
182
184
184
180
181
167
162
173
173
174
182
185
185
197
208
214
205
204
202
199
201
204
189
190
200
197
199
204
200
186
177
184
189
182
151
170
201
196
194
191
198
212
201
181
183
184
179
177
203
196
193
179
172
175
174
199
218
224
187
154
167
172
177
182
182
201
207
207
194
180
183
192
189
204
206
202
180
182
183
180
163
157
153
152
166
171
186
181
190
194
190
182
186
189
185
177
177
153
157
157
154
154
166
170
174
185
189
192
190
192
197
199
198
190
187
188
197
200
200
208
200
180
184
185
183
172
155
180
201
195
187
185
202
206
188
178
184
182
178
180
195
191
186
174
170
163
181
210
206
219
199
156
163
179
177
178
185
190
207
209
197
183
185
182
184
197
201
205
183
178
185
172
170
160
150
155
168
174
174
184
179
186
192
185
182
184
173
175
170
158
164
165
160
157
167
166
167
172
176
180
183
183
195
189
186
183
188
193
190
200
201
201
193
178
187
184
176
167
164
190
203
190
185
186
205
202
175
176
182
177
172
174
191
190
182
174
161
171
198
209
199
197
203
160
159
192
181
171
183
180
203
210
196
196
189
185
188
191
192
209
181
173
180
172
175
174
155
160
163
170
173
170
167
167
173
177
174
176
170
172
171
165
175
172
175
164
178
175
175
172
179
176
175
180
189
174
179
183
191
189
190
199
196
190
185
176
184
189
169
171
172
193
200
185
183
191
203
182
170
177
178
176
176
166
193
193
180
169
165
188
205
204
189
192
203
171
160
186
183
174
173
178
186
209
198
202
194
186
184
192
193
205
193
189
180
180
180
173
158
164
158
166
163
165
175
161
167
171
172
178
178
185
185
183
191
187
190
184
191
194
186
183
185
180
178
180
189
184
184
194
193
185
193
191
188
179
176
176
181
177
180
170
191
195
191
186
190
197
191
171
173
176
176
181
173
160
187
196
178
170
182
197
202
195
180
192
201
184
160
184
184
178
175
170
172
205
203
200
199
190
183
195
201
206
200
200
199
188
184
182
163
171
166
166
162
178
179
169
170
173
174
177
182
186
194
191
193
190
189
190
188
197
192
183
187
187
184
183
191
192
189
190
191
186
197
190
182
177
175
173
171
172
181
184
203
192
181
189
190
193
194
171
174
176
175
180
174
160
183
193
180
180
192
200
196
186
176
192
199
189
167
185
189
182
180
164
162
205
201
200
205
190
186
187
206
197
197
205
204
202
198
199
181
183
178
177
176
179
179
175
167
174
172
171
175
182
186
190
186
187
181
185
179
192
191
190
186
193
187
188
191
194
191
186
185
187
195
194
181
174
172
173
171
172
179
199
212
186
178
188
193
181
183
191
173
170
175
180
171
166
183
183
191
193
192
195
189
181
179
188
187
189
187
176
201
188
178
174
162
205
203
195
204
198
189
189
197
189
191
193
188
189
201
202
194
192
198
195
188
191
182
188
172
177
177
175
173
187
191
195
199
196
191
192
187
192
197
202
191
185
187
192
186
194
187
183
185
187
190
194
181
173
170
169
173
178
183
218
214
190
181
195
186
175
176
194
187
165
170
179
170
172
179
176
204
195
193
190
182
177
180
184
184
184
204
185
191
190
184
179
176
202
201
195
195
209
195
192
193
188
189
186
185
184
193
194
194
188
197
201
194
198
193
195
183
191
187
183
178
192
192
196
204
198
201
202
202
197
201
196
180
183
186
191
186
192
186
180
180
181
194
189
185
168
168
177
178
180
195
219
217
189
191
196
172
176
179
182
201
174
163
175
172
172
176
173
205
196
189
186
179
174
181
180
180
183
208
197
180
191
197
183
177
197
208
196
188
206
198
197
193
192
191
180
190
190
193
192
190
188
192
190
182
185
195
197
193
201
200
193
196
199
197
194
198
192
201
201
201
202
191
187
184
183
187
185
187
187
186
179
180
179
194
198
179
167
170
184
181
194
200
225
212
196
197
184
168
175
179
178
195
193
163
171
166
166
176
177
202
197
185
183
179
174
175
176
173
188
209
205
176
191
203
184
179
198
207
204
183
194
201
200
195
196
195
183
190
191
190
195
195
185
189
197
190
185
189
182
178
182
186
184
191
187
183
188
186
195
195
196
196
188
183
184
184
176
183
188
185
185
183
181
177
185
194
199
176
174
173
191
188
205
205
218
216
203
196
175
163
175
182
172
185
190
186
170
162
162
178
179
199
192
184
180
169
175
169
174
181
180
215
199
183
190
198
192
180
201
210
192
193
191
200
201
197
199
197
195
191
195
189
194
200
187
188
195
194
189
188
182
173
176
183
183
182
184
186
191
188
197
191
194
192
184
182
185
183
177
178
185
180
178
176
176
175
187
197
195
172
179
181
192
196
218
201
215
222
208
197
166
158
177
185
171
179
186
187
186
148
165
174
173
194
190
178
173
165
170
168
183
183
184
201
192
187
191
197
195
181
199
214
194
173
198
192
203
201
204
199
202
198
190
190
199
199
192
191
189
187
188
196
190
178
184
185
184
182
190
189
191
186
192
188
187
184
183
179
184
180
174
180
180
172
171
170
172
182
191
197
195
175
184
192
190
213
222
185
223
233
204
192
170
157
178
185
170
175
183
194
195
166
164
176
176
194
191
175
172
158
173
175
190
179
187
195
187
193
199
196
193
189
195
215
203
164
185
197
202
197
205
206
197
201
191
191
192
194
196
187
188
188
190
194
187
181
177
188
180
173
186
183
176
185
183
182
184
178
178
180
181
178
175
176
177
167
172
170
175
187
193
197
189
187
192
198
198
207
215
193
216
239
205
178
175
158
173
192
174
169
179
196
192
178
168
177
166
194
188
177
167
162
171
187
190
178
189
194
188
204
205
195
193
181
208
201
202
183
172
187
193
194
190
200
199
196
190
192
189
192
193
185
188
189
181
187
181
175
181
184
174
171
175
174
168
179
174
180
180
176
174
172
181
170
171
171
173
167
170
176
183
187
193
197
193
191
204
196
201
198
216
201
204
237
202
173
171
165
166
190
177
168
177
199
190
174
192
186
174
195
193
179
166
167
182
193
182
175
190
186
188
229
201
199
190
168
204
202
211
194
177
183
187
183
181
197
200
200
198
192
186
189
189
193
195
191
178
185
182
177
178
184
171
179
175
174
174
178
172
178
174
173
173
172
178
161
165
167
176
175
176
182
193
190
197
206
209
198
201
189
199
198
217
201
202
231
192
172
178
167
162
183
186
168
179
193
188
183
193
197
186
199
195
180
166
168
186
188
181
181
194
182
203
235
202
201
187
158
186
215
229
190
181
179
183
173
166
196
184
198
202
190
188
191
183
193
190
181
179
175
188
185
180
184
177
174
179
177
177
176
170
170
171
165
171
172
176
161
168
173
181
176
186
191
197
200
206
214
207
187
198
185
199
198
204
202
199
211
183
172
181
176
158
181
190
180
186
188
188
189
192
203
192
201
201
184
164
173
184
187
184
186
194
177
211
230
204
201
169
159
187
217
237
198
185
178
178
175
171
166
182
187
197
195
189
186
185
186
183
167
174
178
184
180
183
177
178
179
183
180
173
173
166
167
170
167
172
170
170
175
174
183
183
182
198
205
206
211
217
216
199
187
199
180
201
199
200
200
202
202
169
173
190
177
164
187
191
188
184
184
190
196
196
207
198
204
201
178
166
184
192
194
190
190
192
172
222
230
208
191
160
157
192
218
220
220
196
185
173
183
168
159
178
180
187
193
187
180
179
179
171
168
172
173
178
173
179
175
176
178
177
177
176
171
168
166
174
175
175
171
178
182
179
192
185
201
202
209
219
221
220
212
197
195
190
175
196
207
204
201
210
192
170
165
193
179
178
195
197
184
185
175
184
197
198
203
207
207
194
185
172
191
200
184
196
203
184
175
216
228
206
175
168
149
197
214
212
215
203
194
177
187
174
170
174
179
184
183
180
175
180
176
168
170
171
166
172
173
174
170
179
179
175
178
175
172
169
172
175
182
182
179
185
184
187
190
203
202
209
219
227
218
213
209
193
184
185
169
191
209
205
200
215
196
167
171
186
188
185
197
209
191
194
181
191
204
206
197
204
205
194
175
176
184
191
178
189
198
188
183
203
216
196
175
171
159
188
208
211
212
197
196
192
191
183
180
175
176
190
178
173
176
176
170
169
170
170
158
167
172
171
167
178
178
177
179
174
174
176
177
177
185
185
186
191
191
192
201
203
213
217
225
224
215
210
202
192
176
183
168
191
205
209
200
217
203
169
170
182
195
192
197
206
198
203
191
188
205
208
213
205
212
193
180
200
186
200
183
188
195
191
181
188
198
191
177
169
157
195
212
210
211
195
192
201
192
196
191
183
176
185
182
182
172
178
166
169
170
171
161
164
168
168
173
171
171
176
178
173
178
179
176
185
185
187
194
201
196
201
208
217
219
222
223
217
209
203
192
175
189
175
162
194
202
208
199
211
202
180
183
175
190
198
201
201
205
197
194
196
198
210
213
207
214
186
181
201
189
197
194
197
196
193
177
173
190
185
177
170
161
196
223
218
197
193
194
195
200
204
196
195
181
189
176
182
176
175
172
177
172
175
171
167
169
169
174
174
169
170
178
174
182
184
183
183
187
194
203
205
211
214
221
223
219
225
216
207
199
193
181
170
192
178
156
195
200
200
198
203
200
195
193
182
178
204
200
203
204
195
201
203
196
219
215
205
205
184
189
199
190
187
200
193
185
187
174
165
184
196
176
171
168
180
226
220
187
187
192
199
197
203
201
207
187
197
186
181
169
176
177
180
178
181
178
176
174
169
176
173
176
173
179
178
181
183
188
186
195
199
211
218
222
216
221
220
218
218
208
193
189
186
180
182
190
183
162
194
196
203
198
201
199
198
197
191
184
193
190
201
199
201
208
197
204
217
221
211
202
196
200
213
194
184
184
186
174
174
182
159
180
198
181
153
170
161
220
219
198
183
186
203
193
194
201
208
204
201
202
181
174
183
182
185
185
188
184
181
182
184
174
176
183
176
182
178
183
183
188
190
202
206
221
222
221
219
208
219
211
204
195
193
192
194
182
184
184
186
165
190
195
208
205
199
204
195
205
193
203
184
191
182
197
213
212
199
199
222
222
218
