P2
# Face with average contibution
92 112
255
189
185
181
186
187
179
180
177
175
179
182
186
183
184
188
190
193
195
197
198
194
191
188
190
191
189
183
190
176
175
177
181
181
179
184
185
194
192
189
192
196
189
198
188
190
187
189
186
181
181
176
178
174
174
168
163
164
163
161
159
165
159
164
161
164
166
168
165
161
157
163
164
167
166
167
168
174
175
173
175
171
173
187
182
181
180
182
183
188
184
184
184
187
183
183
182
178
177
177
177
177
183
185
179
180
184
193
192
198
195
199
190
190
185
184
185
187
184
183
182
184
186
192
191
193
191
192
194
198
198
202
197
199
201
197
195
191
186
182
186
182
182
179
177
173
177
172
165
170
166
159
156
156
160
163
161
163
169
172
168
164
160
161
166
168
165
166
169
175
175
174
174
170
171
179
186
184
182
188
185
186
188
185
185
186
177
181
177
174
177
180
183
182
183
180
177
184
193
195
189
191
193
195
192
193
186
179
180
184
183
180
190
197
195
197
200
193
192
199
202
202
197
200
195
192
195
196
194
190
187
187
185
182
179
175
180
171
172
171
166
169
164
160
159
148
153
154
156
156
161
169
168
163
169
172
166
166
167
168
168
174
177
177
176
175
172
178
184
182
179
189
186
185
188
186
183
184
181
183
180
181
185
183
184
184
183
180
181
191
195
194
192
190
195
191
184
186
179
170
170
180
179
183
193
193
192
200
202
199
200
202
204
206
199
199
198
197
193
195
189
184
182
187
187
179
174
176
179
170
169
167
166
166
162
161
162
152
146
147
146
152
152
155
163
163
159
168
172
169
173
167
169
168
177
175
179
172
174
178
185
177
180
189
187
183
189
190
183
189
184
178
184
181
183
183
184
187
185
183
185
195
195
193
186
187
191
190
180
172
167
165
167
179
182
189
188
189
194
203
211
208
209
208
210
207
205
199
199
196
193
199
192
185
188
178
184
180
177
179
176
174
171
167
166
160
163
161
157
155
155
145
147
151
145
143
145
155
157
161
169
172
173
174
166
166
176
169
173
171
169
180
180
179
179
186
185
183
186
190
185
188
184
179
183
184
183
184
186
189
194
188
192
195
187
184
180
184
185
180
172
165
165
174
180
184
190
188
189
197
207
212
211
208
213
210
212
211
210
202
199
196
192
192
195
190
191
183
182
178
176
182
179
177
175
170
167
164
160
156
159
154
158
151
151
148
147
141
136
142
150
157
164
170
169
171
173
173
175
169
172
175
169
184
175
176
178
182
182
182
188
186
189
186
188
184
182
184
187
188
186
196
195
190
191
187
178
181
180
178
177
168
164
165
169
178
182
181
183
190
203
210
209
208
208
211
212
213
212
211
210
204
201
197
194
192
193
189
189
190
188
181
177
180
179
178
176
179
176
170
167
161
162
163
161
150
152
154
152
151
147
148
148
152
160
170
168
167
176
178
179
179
172
174
172
177
173
169
182
180
177
179
187
186
186
188
191
189
181
186
190
194
197
198
195
191
190
182
174
177
170
173
166
164
168
172
176
178
177
181
192
203
207
212
207
206
209
211
206
208
211
210
209
201
196
196
198
189
186
182
181
185
183
185
185
182
175
175
173
179
184
173
174
174
164
171
172
169
163
159
158
153
161
156
157
149
161
167
169
164
175
173
178
178
180
171
173
176
174
170
177
179
179
176
184
187
187
187
189
183
187
189
197
200
196
191
191
187
183
180
177
171
164
162
160
167
174
174
174
176
185
195
202
209
206
211
209
209
211
212
213
213
215
211
213
205
205
198
196
190
188
191
187
192
188
185
185
184
184
185
181
182
185
176
173
180
172
174
174
181
177
175
168
167
166
166
166
160
159
162
163
160
172
171
173
177
177
175
174
178
177
166
170
178
179
175
185
186
188
183
183
183
189
191
200
192
193
188
183
182
177
173
166
158
153
158
162
171
171
171
176
184
194
200
204
205
205
208
204
209
210
211
216
213
210
212
207
207
203
202
197
195
191
193
196
198
197
197
191
193
193
198
194
189
190
185
182
182
177
189
181
183
185
178
178
178
175
170
173
173
166
167
169
164
165
175
173
174
177
178
176
178
176
173
173
180
182
176
182
185
190
181
185
191
195
198
197
193
195
186
182
179
170
164
159
148
153
163
164
167
170
177
191
194
197
201
206
210
208
200
202
208
211
208
210
211
205
206
200
201
196
196
198
190
189
193
193
196
197
201
199
200
201
204
205
199
196
193
195
189
186
190
187
189
187
183
184
182
180
178
181
177
179
173
174
174
164
170
171
173
173
179
175
183
180
175
173
181
180
174
177
183
190
186
192
196
195
200
198
194
194
187
183
176
165
154
147
153
159
162
168
170
179
190
200
198
197
204
208
208
202
202
205
209
212
207
210
205
204
204
199
197
198
196
199
190
194
194
197
195
193
200
204
203
205
205
206
204
199
197
193
196
192
190
193
197
192
191
183
188
183
187
185
178
179
178
175
174
172
165
170
170
174
177
176
176
187
182
169
176
181
178
175
181
186
191
196
201
199
200
198
190
191
186
177
165
160
153
150
157
166
171
170
179
188
196
197
198
200
202
202
197
201
200
201
207
207
204
208
208
208
204
200
197
198
199
197
192
195
195
199
199
198
198
204
203
206
204
206
209
203
202
195
195
191
189
194
197
193
191
191
188
185
190
188
183
181
181
177
171
175
172
165
175
170
178
180
177
184
184
178
176
175
175
172
175
183
197
199
203
200
194
193
185
186
181
171
165
154
156
163
168
175
176
182
193
196
197
201
199
197
200
195
199
199
203
206
208
206
203
204
205
203
203
201
199
197
194
195
193
198
196
195
199
198
200
200
198
201
202
209
211
202
204
197
198
196
195
195
199
192
190
191
190
187
189
191
190
183
185
183
172
172
176
170
177
172
170
179
182
185
186
179
178
174
180
175
172
182
196
201
200
196
186
185
185
183
174
170
161
157
160
173
174
182
186
191
197
197
199
204
198
203
202
201
203
201
205
208
208
205
204
201
200
200
200
201
200
198
199
198
201
201
196
195
197
194
195
196
199
200
198
198
203
198
198
195
196
194
191
189
195
194
187
186
188
186
189
192
190
190
189
183
178
167
169
169
175
179
173
173
183
180
187
187
178
176
175
180
176
177
195
196
201
187
179
183
179
181
170
164
159
163
173
176
179
184
188
192
197
199
196
199
198
201
205
200
201
202
201
201
201
201
198
194
195
194
195
201
201
200
204
202
203
199
201
201
200
194
194
193
196
197
195
193
193
191
189
191
194
191
193
189
186
190
188
179
181
182
183
190
189
189
189
189
184
179
169
166
168
171
179
176
179
182
180
192
187
175
178
180
180
177
195
195
197
185
181
184
179
171
166
159
163
169
174
176
178
180
190
193
194
195
195
192
200
203
200
193
196
200
196
198
193
191
190
191
191
192
194
200
202
202
198
204
201
199
203
202
200
197
199
192
190
192
189
186
191
189
187
191
189
192
191
190
191
188
190
182
178
175
178
183
188
188
183
184
182
186
176
166
166
173
175
178
176
183
181
185
193
183
179
178
182
179
194
199
192
188
189
182
177
172
161
164
169
177
183
178
177
183
186
188
195
191
192
195
196
195
195
192
191
196
192
197
191
191
194
191
188
197
199
199
201
203
194
198
196
195
200
201
193
195
197
190
190
190
188
179
186
187
189
194
193
192
192
194
190
188
189
184
179
177
178
181
182
186
191
190
181
184
186
170
166
172
170
176
173
178
186
187
185
190
179
182
180
179
193
195
189
193
187
178
173
170
163
175
181
184
183
175
182
185
184
186
191
191
192
196
195
189
189
189
192
194
195
194
190
192
196
192
193
201
196
200
199
200
194
191
195
196
199
196
188
188
189
185
182
180
182
177
179
184
184
189
190
187
193
193
186
187
185
181
179
179
176
175
180
184
189
192
185
180
186
177
165
169
166
172
176
179
182
193
187
189
184
186
184
179
189
194
195
191
183
178
170
168
171
179
182
181
177
174
185
184
182
187
189
187
193
192
192
183
185
186
191
192
194
194
192
194
193
195
193
199
197
199
197
195
194
189
189
192
191
191
187
185
182
185
175
175
175
175
176
177
178
181
182
183
185
187
192
189
187
183
183
182
174
173
173
182
184
186
187
183
187
181
169
170
166
166
174
179
185
189
188
182
190
187
185
181
187
191
190
187
176
183
174
173
171
178
182
175
172
178
186
184
182
184
188
187
190
186
181
181
183
185
188
189
193
192
193
194
192
194
195
195
197
196
194
194
192
184
186
188
185
184
182
181
181
175
175
168
170
169
173
170
174
177
176
183
185
185
191
189
185
183
181
181
176
175
175
177
182
191
191
188
189
184
171
172
169
165
169
179
178
183
189
183
185
190
189
185
183
189
185
183
179
181
175
174
170
179
183
177
170
181
185
183
182
183
186
186
184
176
180
176
178
177
184
187
191
191
191
190
195
190
189
192
192
188
189
190
187
184
182
184
179
178
176
175
175
172
171
168
167
166
168
168
170
171
172
173
178
181
185
185
184
186
189
180
180
182
177
177
176
187
193
193
191
187
174
167
172
169
166
182
177
173
190
191
184
189
191
191
186
191
182
184
184
178
171
171
179
184
182
179
180
180
181
182
186
184
185
187
178
177
177
174
172
171
177
185
187
189
186
189
190
186
184
189
189
186
187
184
186
182
182
180
178
173
170
165
170
168
164
165
160
162
161
163
164
166
164
168
167
177
180
183
182
184
190
180
183
184
179
177
176
179
186
193
194
194
177
172
169
167
162
181
180
174
187
199
188
185
190
192
183
190
182
183
186
175
171
179
184
186
180
186
179
179
178
180
186
187
184
180
179
176
173
168
167
168
176
180
179
182
186
185
184
182
182
185
182
185
183
178
177
174
176
173
171
172
166
162
161
157
157
158
157
157
157
158
157
160
164
165
164
173
173
177
179
180
183
183
189
181
181
179
175
179
182
185
191
195
185
171
175
166
165
174
183
175
181
198
197
192
188
190
180
187
183
186
180
178
178
180
184
187
182
186
177
180
179
183
184
185
179
175
175
171
169
167
168
170
172
174
176
179
181
182
180
178
179
178
173
175
176
173
173
173
172
170
169
169
160
157
157
156
151
156
154
153
158
153
154
158
160
163
165
169
167
171
173
175
179
180
186
181
181
181
179
178
181
183
189
191
191
175
175
170
171
176
187
173
182
196
198
204
194
189
175
185
183
179
176
180
174
175
186
193
188
183
181
182
184
186
181
180
176
174
172
169
168
166
164
168
167
168
170
173
172
171
175
174
175
172
169
171
170
170
170
165
166
164
160
158
157
156
153
156
152
152
153
155
157
151
157
160
161
159
164
166
164
167
172
173
178
182
185
185
184
183
181
179
175
186
188
187
196
183
174
175
172
176
192
175
178
197
202
208
195
188
179
186
181
178
181
177
170
180
191
186
188
178
180
182
186
185
182
178
176
172
168
167
163
160
159
160
161
163
166
168
169
167
169
170
168
167
165
168
165
167
163
164
160
158
158
155
153
154
152
154
154
152
153
154
154
156
159
162
163
165
164
167
170
169
173
177
179
182
184
187
183
185
179
185
177
181
187
193
194
194
174
177
175
182
193
191
177
201
204
210
198
186
177
183
174
184
177
180
168
184
183
188
182
174
179
183
182
180
180
176
178
171
166
163
162
158
155
158
157
163
165
164
162
166
164
164
162
163
162
161
160
161
163
160
159
156
156
153
154
153
153
157
157
156
155
154
158
159
159
163
166
165
164
168
171
174
177
180
183
183
186
188
189
187
183
182
183
181
181
189
197
195
182
179
184
183
194
200
179
199
205
208
200
188
177
183
173
188
173
177
167
181
177
181
175
174
180
180
181
178
177
175
175
173
170
165
159
155
155
159
157
163
166
163
165
167
162
162
160
161
159
159
158
157
156
158
155
154
154
154
153
153
158
161
156
160
161
162
165
165
164
167
167
165
168
167
173
178
181
184
186
186
184
191
195
192
190
185
183
183
184
189
196
192
190
182
179
183
201
194
184
198
205
209
200
190
174
182
175
186
170
171
170
181
171
173
171
176
177
177
179
180
173
173
174
174
169
162
160
159
159
157
161
165
168
168
168
165
163
164
164
164
161
160
159
159
157
158
155
153
152
156
157
155
161
161
163
165
168
169
169
169
169
168
170
169
173
175
173
177
181
187
187
189
186
194
203
197
193
188
185
183
188
191
194
193
191
184
170
181
190
196
191
199
206
210
200
196
170
179
179
177
168
175
172
176
166
165
170
172
175
182
180
174
176
176
177
176
174
166
163
166
163
160
164
168
169
171
168
168
167
167
168
166
164
165
163
164
160
161
159
158
157
157
157
158
166
163
166
168
168
171
173
171
172
171
174
176
177
176
179
182
184
187
190
189
189
192
199
206
197
192
186
186
191
197
195
194
189
187
175
179
189
189
195
205
204
207
204
199
170
179
176
174
166
175
174
173
164
162
172
170
182
189
174
174
181
180
177
178
173
168
166
167
168
165
169
168
170
173
170
173
171
171
169
169
168
168
169
168
164
163
165
159
159
160
161
162
166
167
167
169
170
174
175
174
172
174
175
177
179
181
182
186
187
192
190
191
189
191
192
206
200
198
187
194
192
197
196
198
188
192
182
189
188
188
192
208
204
202
203
199
174
179
179
173
165
176
170
175
163
161
171
171
192
182
179
178
178
178
178
175
170
166
167
167
169
170
172
170
171
177
177
177
176
171
168
170
169
173
170
170
169
168
166
163
162
162
165
167
168
169
173
175
173
176
178
177
175
177
178
181
183
184
188
189
189
193
190
193
190
191
190
196
202
199
193
196
200
198
201
201
191
195
185
189
194
184
189
207
204
201
203
201
174
174
179
173
170
173
169
171
173
165
168
177
191
182
177
174
173
172
170
169
166
166
164
166
171
174
178
179
178
182
179
179
181
177
171
174
173
175
173
171
174
174
171
171
169
169
171
171
175
175
177
179
181
183
184
184
182
181
185
186
184
186
190
192
189
191
192
192
192
190
191
192
199
200
198
198
204
206
203
206
195
193
186
186
191
187
173
204
209
197
202
202
171
169
177
178
170
167
164
171
173
165
164
181
185
182
176
168
168
168
172
171
173
171
169
174
177
178
179
181
183
186
183
180
185
186
185
186
183
183
183
179
177
181
178
179
176
174
175
172
177
178
183
182
185
189
192
191
189
187
189
188
192
193
198
193
192
192
193
194
195
195
194
195
200
203
196
200
206
211
206
208
205
195
187
190
190
194
174
188
205
198
204
207
169
175
177
174
168
167
167
164
171
163
162
183
184
184
174
169
165
169
177
178
176
179
181
182
182
182
186
186
185
187
188
187
189
192
191
197
195
192
193
193
186
189
186
184
186
184
183
186
188
186
190
189
191
192
195
196
195
192
194
193
196
202
203
201
201
201
202
198
196
199
201
202
206
208
203
205
208
210
214
211
207
202
188
194
192
192
183
182
202
201
205
212
184
202
181
173
172
162
159
161
165
159
165
188
188
184
174
169
164
171
182
181
182
182
178
177
176
177
183
182
183
186
184
189
190
191
193
200
196
194
194
196
190
189
191
191
187
190
191
194
194
194
196
197
197
199
200
202
203
204
204
203
204
206
205
205
206
207
208
204
203
204
207
205
207
207
208
201
203
207
213
211
207
201
195
199
192
192
182
185
199
206
215
211
208
201
175
179
172
156
155
165
163
158
166
188
186
185
178
169
166
174
180
180
182
180
173
171
177
182
180
181
185
185
182
184
189
186
190
194
188
190
193
192
195
191
192
191
194
192
197
196
197
198
201
203
201
197
200
206
201
205
205
208
209
208
206
205
205
208
208
211
207
206
207
205
202
205
208
200
196
201
202
216
209
200
196
199
194
195
181
183
197
207
223
213
211
200
179
175
179
156
156
168
166
156
166
189
189
188
179
168
172
172
170
174
178
173
174
172
175
181
181
177
181
187
184
183
183
185
183
188
182
185
189
191
196
197
197
196
198
191
195
195
195
200
199
197
196
192
194
204
203
204
202
200
201
204
205
208
209
209
208
211
213
209
206
203
196
199
201
198
191
193
195
203
204
198
199
195
193
190
175
184
191
208
224
212
211
191
178
183
173
158
161
168
164
163
171
196
195
196
180
175
173
171
174
177
172
168
166
170
168
171
174
169
172
173
176
179
178
181
181
186
187
189
193
193
193
198
198
200
197
193
191
191
190
189
189
188
185
186
186
189
192
193
194
193
195
202
202
207
211
212
209
207
209
206
205
199
197
193
198
200
191
192
188
194
195
201
202
192
186
188
172
175
194
212
217
212
203
182
182
178
169
154
163
177
164
161
171
197
199
197
183
180
178
176
178
175
168
166
165
164
169
176
177
175
180
177
178
188
184
184
184
188
197
192
196
202
199
195
199
207
201
197
193
189
188
185
187
190
190
185
187
186
190
183
184
187
183
197
198
202
205
210
205
202
206
210
214
212
210
208
213
214
205
208
195
192
196
200
211
197
181
183
170
177
194
218
208
214
195
178
193
179
168
151
167
171
166
167
176
186
199
199
186
179
175
178
175
177
169
173
183
180
188
191
191
190
196
193
191
197
197
197
201
200
209
215
208
214
215
209
200
218
209
202
198
191
187
187
187
190
195
189
187
189
192
185
183
187
180
192
190
193
190
198
193
193
204
210
208
219
209
203
215
215
206
222
208
194
194
213
223
211
188
180
172
181
197
209
213
212
195
181
198
191
167
154
157
163
167
168
186
187
188
195
172
149
151
159
162
166
170
161
164
168
173
170
198
200
207
204
203
212
218
216
220
213
209
219
215
216
219
213
217
211
209
203
197
194
188
186
184
188
194
194
189
193
191
188
184
183
171
179
181
183
178
187
187
188
196
193
192
203
200
174
199
223
201
217
203
180
179
194
234
234
201
183
181
186
200
204
216
215
196
194
190
193
174
146
150
156
165
169
192
197
175
173
162
155
167
173
177
186
194
192
194
199
193
184
189
202
208
214
210
205
220
198
204
206
199
203
199
207
212
210
215
208
199
196
200
193
191
185
184
186
183
198
200
195
195
196
185
188
193
193
194
189
181
182
183
178
171
168
181
199
192
183
196
224
194
210
194
176
175
186
216
238
209
193
187
186
199
208
216
215
194
208
182
188
172
145
133
150
148
166
192
178
181
190
165
172
177
178
179
189
201
198
198
201
199
189
182
201
206
216
211
230
227
219
211
214
197
193
190
171
189
189
195
193
193
188
184
187
180
178
187
186
189
191
199
194
186
187
183
178
179
181
178
185
184
187
183
173
164
157
160
183
192
182
187
213
176
202
179
166
173
189
210
226
211
196
184
189
193
212
214
217
205
219
189
195
171
146
127
139
147
183
170
189
197
194
164
160
174
173
184
188
204
202
201
202
200
188
174
189
195
203
201
217
212
211
212
201
193
194
192
177
157
188
184
186
178
174
168
158
160
164
173
174
177
186
187
187
183
187
184
179
168
164
178
178
184
190
182
181
170
167
165
163
176
186
177
197
173
169
170
160
169
192
205
222
216
196
185
196
191
210
211
216
216
223
203
193
164
142
134
132
149
175
180
207
200
200
176
167
173
179
182
186
192
191
186
190
194
188
168
163
164
190
195
205
214
200
199
197
184
181
188
205
167
182
203
214
214
208
196
187
189
188
183
179
172
182
184
171
165
168
172
172
163
158
160
165
167
176
183
174
175
178
183
185
180
185
178
186
176
164
168
168
171
193
203
226
219
194
180
195
198
208
211
216
226
233
219
203
163
141
140
138
147
160
189
214
210
206
184
179
184
186
184
183
182
176
174
170
171
179
166
153
154
170
184
182
189
173
172
179
176
179
180
191
187
169
189
210
213
208
196
192
201
198
197
189
177
186
183
167
178
186
190
190
183
186
176
181
186
184
193
175
167
170
170
173
171
168
178
183
181
175
180
176
175
195
204
222
214
198
186
186
210
204
214
218
232
229
223
210
175
162
138
179
146
167
188
211
211
209
196
189
188
192
189
190
187
184
178
167
170
173
172
172
166
168
167
173
178
160
158
152
154
174
184
185
182
165
170
191
202
202
195
184
188
190
190
184
172
184
177
184
183
181
191
190
184
189
188
186
187
186
183
182
180
185
197
194
184
170
168
170
170
165
176
176
173
188
206
211
211
199
187
178
212
212
212
216
229
227
211
202
194
148
131
151
159
171
192
205
205
202
192
187
180
185
186
184
186
187
183
170
166
169
184
176
157
172
167
175
169
170
157
157
154
163
185
196
175
161
165
196
189
180
166
159
168
173
171
177
173
158
176
181
171
171
181
178
173
174
180
180
175
174
178
180
177
179
201
201
202
193
188
177
172
180
173
169
159
176
207
206
208
194
181
180
211
217
216
216
224
207
198
201
196
178
148
134
158
185
192
202
206
206
190
182
176
186
187
178
181
188
186
166
169
163
175
172
158
172
171
167
158
175
167
168
161
179
190
186
176
157
167
189
189
189
174
161
171
162
153
154
161
149
171
167
169
164
168
165
163
160
177
176
172
162
173
179
168
172
190
201
194
186
180
177
161
184
190
187
170
159
199
201
202
196
184
186
199
217
224
218
222
200
182
200
191
197
178
144
156
193
202
200
206
209
196
187
185
193
198
191
185
187
184
170
166
161
154
151
150
162
165
167
166
155
162
167
164
165
179
166
167
151
184
181
182
182
180
158
167
166
174
178
163
167
173
174
177
161
163
171
159
148
162
172
168
175
173
177
181
179
176
194
186
176
174
160
153
171
198
198
184
164
188
203
201
188
176
187
196
210
232
225
222
217
186
196
193
202
195
150
161
198
207
200
200
206
197
195
196
193
191
187
186
175
180
176
166
156
153
155
158
150
151
150
156
154
163
165
165
156
161
143
155
145
179
182
179
182
194
166
168
171
176
184
175
170
168
177
171
160
176
173
174
166
163
175
171
158
163
166
170
173
179
180
172
169
169
161
152
168
189
211
182
165
200
216
196
175
172
182
196
203
240
218
226
229
200
190
191
198
201
160
165
200
212
210
209
218
204
199
203
197
196
186
184
171
174
176
179
173
166
167
168
158
153
165
166
163
171
172
167
160
153
153
148
152
184
183
181
190
185
174
163
175
163
174
181
171
174
171
178
180
187
187
172
180
184
192
178
187
174
170
174
165
172
177
174
173
174
168
157
172
184
196
161
184
200
208
194
174
167
188
196
208
241
219
227
233
216
186
186
192
201
166
167
201
208
220
220
219
205
199
202
203
201
189
189
179
174
179
184
179
177
175
169
167
171
183
189
186
185
180
176
173
149
150
134
158
189
178
182
191
176
172
169
176
165
169
173
174
182
177
176
192
197
191
179
186
193
192
184
191
193
183
178
173
179
182
181
185
185
179
161
177
190
190
167
191
200
191
194
164
163
181
197
218
243
213
233
238
226
195
186
178
195
170
158
199
207
224
231
216
204
200
206
206
202
192
190
184
177
178
180
183
186
184
179
174
190
191
203
200
197
189
184
175
155
144
132
175
191
176
183
184
177
170
167
184
161
174
161
170
186
181
168
175
188
189
186
175
180
181
179
185
181
178
176
173
170
174
180
183
182
185
172
175
186
186
177
189
196
190
190
160
162
179
193
230
241
212
241
240
229
206
183
167
183
191
160
195
207
226
230
220
198
195
203
200
194
189
189
187
184
182
181
181
182
180
185
182
184
186
197
197
194
190
189
178
167
144
159
187
189
182
193
183
181
179
165
178
162
178
155
165
184
194
176
171
178
184
180
172
170
166
164
163
164
154
161
163
162
160
166
176
179
188
184
173
182
194
179
182
193
195
194
170
168
176
192
241
238
213
246
243
229
219
190
173
180
204
167
182
209
215
229
219
207
194
192
194
195
196
201
196
193
186
183
181
177
181
184
179
183
182
188
195
185
190
195
177
155
167
183
193
193
196
197
192
179
178
172
171
173
166
159
154
188
189
187
173
177
178
176
176
171
167
170
164
170
165
157
164
167
161
166
173
174
182
181
169
179
198
171
179
186
198
213
182
169
175
208
247
238
221
255
244
225
225
198
184
188
198
191
156
200
213
219
220
211
196
197
193
199
203
203
197
194
184
185
187
186
189
188
190
187
184
182
184
181
179
186
162
176
179
195
192
192
201
195
193
186
181
179
180
171
167
167
161
179
183
188
179
181
172
170
169
169
159
163
170
175
173
166
168
168
164
161
172
175
181
178
183
186
188
166
180
180
197
217
173
170
176
195
249
235
216
254
242
226
222
211
188
194
194
203
155
177
215
223
214
216
196
204
201
202
207
206
198
192
188
188
191
195
201
197
192
188
189
189
194
187
181
176
189
183
197
201
197
198
198
200
195
190
183
180
179
170
164
173
176
163
184
198
185
185
180
176
168
158
158
159
170
173
169
164
169
169
167
173
178
187
194
181
190
192
180
167
184
183
189
208
157
176
184
210
241
233
207
247
246
227
223
216
196
198
189
195
181
162
199
227
211
220
198
204
212
203
208
211
204
198
198
193
197
197
203
201
200
194
192
199
200
181
159
187
192
194
203
201
202
199
197
203
197
195
189
182
175
176
168
166
187
171
179
202
194
180
188
185
173
167
167
166
171
170
169
170
172
176
180
185
184
187
190
188
192
196
172
168
191
187
188
195
154
195
186
217
234
225
201
245
242
229
226
213
199
199
189
183
182
186
183
201
211
209
206
189
204
204
196
196
196
197
200
202
207
209
205
211
203
191
195
191
175
184
202
188
193
202
200
199
208
204
194
196
192
195
194
188
178
176
181
157
179
186
171
203
204
190
191
192
183
172
180
181
182
180
181
183
191
190
186
189
191
190
190
193
191
193
169
172
187
188
190
182
173
204
197
216
234
218
203
218
235
229
223
209
193
197
185
185
171
178
199
201
182
194
207
197
191
201
195
194
189
196
202
208
212
215
212
213
201
185
174
167
190
197
197
190
198
205
201
202
207
202
194
194
186
196
195
191
179
171
180
172
162
184
182
175
200
199
193
194
193
192
194
189
187
178
183
189
194
189
189
189
194
192
191
194
193
183
172
178
179
180
189
177
189
213
197
223
237
212
206
187
212
220
209
199
186
172
185
187
165
159
201
210
201
181
179
203
198
194
193
194
189
190
201
204
207
211
211
203
187
169
168
182
189
187
193
190
202
206
204
202
198
193
196
193
188
196
193
194
180
175
176
179
165
169
192
174
180
199
202
198
190
192
200
198
190
181
185
193
196
189
188
192
194
195
194
196
185
174
170
188
178
181
182
184
181
211
207
224
239
209
210
188
194
204
195
189
183
157
185
182
168
156
188
208
199
200
193
183
188
198
192
185
186
180
180
184
186
187
189
187
184
178
182
182
177
177
192
195
204
205
200
193
193
192
200
195
191
193
190
194
186
175
175
174
173
173
177
193
174
181
206
208
195
191
197
198
191
189
191
192
195
189
190
194
193
193
197
193
174
172
179
192
184
178
175
183
182
211
208
235
231
213
209
184
186
200
197
186
184
160
185
180
177
165
185
192
188
198
199
198
199
196
195
187
182
179
176
179
183
188
184
182
176
180
187
185
187
192
196
198
200
200
193
192
200
206
217
204
193
191
188
193
191
181
176
177
171
181
182
180
185
174
185
203
202
196
196
199
195
192
195
194
192
190
196
195
193
197
199
185
179
175
181
195
187
161
192
175
188
212
213
238
215
216
205
190
182
195
197
194
191
161
186
180
179
172
176
190
181
188
191
198
200
198
192
187
181
185
183
179
181
181
184
193
191
190
197
193
194
194
193
194
193
195
195
198
204
211
216
211
197
192
189
196
207
195
182
183
179
176
185
187
174
175
186
188
205
195
191
202
199
195
194
200
198
201
207
211
208
202
190
186
178
172
189
199
176
169
192
172
194
204
219
222
214
215
208
189
186
184
194
191
201
167
191
187
181
174
167
181
188
187
193
186
189
191
188
183
183
180
175
173
179
180
186
191
188
186
196
194
193
196
197
191
194
195
200
203
206
216
216
214
205
195
196
206
213
208
195
199
189
178
182
188
190
182
181
187
182
188
192
192
193
190
190
195
204
208
216
214
201
192
189
185
174
180
189
185
178
178
184
180
197
205
214
208
216
213
210
181
189
180
192
190
197
184
197
189
183
175
170
175
192
190
198
195
193
194
190
189
184
182
179
174
171
172
177
175
177
185
193
189
193
204
201
205
209
212
217
213
215
220
218
220
217
200
201
203
207
208
203
206
193
182
191
191
188
192
191
182
176
170
171
177
187
185
187
194
208
207
198
197
194
189
192
189
180
170
184
187
177
178
178
182
188
204
205
209
216
211
212
171
188
187
189
193
185
190
206
201
184
181
175
179
190
190
194
192
193
192
188
187
181
174
168
170
168
166
166
165
170
182
189
181
195
203
201
208
215
218
222
216
220
221
215
222
221
204
194
195
201
203
195
206
214
202
205
199
197
193
191
188
182
177
174
169
168
167
165
178
188
190
190
189
179
172
183
178
164
185
188
179
175
177
176
182
185
198
202
209
212
212
208
166
178
189
189
195
184
192
214
206
185
194
181
184
189
194
192
192
195
190
188
185
182
174
171
171
168
163
161
160
166
177
185
181
186
196
203
204
212
214
213
206
206
211
207
209
222
207
195
198
196
199
191
193
197
191
188
192
193
194
186
182
187
184
180
172
178
189
192
193
192
191
190
187
184
182
183
179
173
183
184
177
174
179
177
184
193
198
204
210
211
206
210
158
169
179
181
185
184
193
224
209
185
203
186
186
191
190
190
191
195
191
191
185
182
174
169
168
165
165
167
166
173
179
184
184
180
186
198
196
202
205
201
197
199
199
198
197
206
196
187
196
193
192
183
175
181
178
173
179
187
186
183
181
188
190
181
178
178
185
197
194
190
193
189
188
182
180
179
177
171
185
186
175
174
182
185
190
194
196
209
211
209
205
208
160
163
169
172
178
179
184
225
217
193
199
188
195
196
189
193
191
196
192
190
183
177
174
165
167
167
173
174
174
180
181
186
187
188
175
176
188
190
191
192
194
195
195
200
193
191
191
179
175
174
171
163
165
169
170
175
180
186
185
180
180
185
187
185
188
188
192
196
189
187
185
183
181
178
178
175
176
170
185
191
176
172
184
191
190
186
194
211
213
208
205
209
161
161
166
165
174
169
175
214
216
207
198
195
207
199
193
195
194
194
195
190
184
177
176
172
175
173
176
178
179
184
187
188
192
194
186
180
183
184
183
183
187
188
190
187
182
178
177
176
173
162
152
152
158
161
171
168
182
187
185
185
187
190
194
197
198
194
194
195
193
192
183
181
177
177
178
176
176
170
183
185
172
170
173
179
183
173
195
212
213
204
205
211
162
159
167
166
172
166
165
205
206
206
195
199
209
206
201
199
196
194
192
189
183
177
176
178
174
178
179
179
179
185
191
195
198
196
191
186
186
176
166
169
174
170
169
163
160
161
162
166
157
152
143
141
147
167
168
169
182
184
181
184
189
192
193
199
200
199
191
189
191
191
184
185
181
175
179
180
177
173
183
185
171
168
169
162
168
166
198
212
210
206
207
210
168
163
165
166
166
168
163
201
203
204
192
199
210
206
203
202
198
197
193
189
184
182
179
176
173
183
180
179
182
188
195
200
202
200
198
196
183
168
157
150
155
159
152
148
152
157
157
156
149
158
153
153
157
167
177
178
186
188
183
185
188
192
193
198
194
193
188
186
184
189
185
183
184
179
182
182
182
174
184
191
166
173
173
167
167
179
199
211
210
202
207
204
175
169
163
165
162
166
160
204
204
202
197
197
210
205
199
207
200
196
195
188
187
181
174
176
181
181
181
184
189
189
195
198
206
202
201
200
185
172
157
150
143
146
144
137
142
150
151
160
160
165
162
160
160
166
170
181
187
191
188
189
192
193
196
198
194
191
185
188
180
184
181
185
182
185
183
183
182
180
185
199
167
182
176
173
173
191
199
210
207
201
209
203
179
174
167
167
158
164
164
202
206
203
200
194
201
204
201
208
199
197
192
191
191
176
181
187
184
183
184
186
190
193
193
200
202
192
193
194
188
180
165
153
146
144
138
139
140
143
153
159
162
168
168
167
166
166
173
178
189
194
199
193
194
197
199
201
201
198
187
183
177
180
180
183
181
184
186
187
184
184
192
204
178
187
176
180
181
194
200
211
205
200
208
201
174
174
175
163
161
159
168
199
205
199
202
193
200
196
210
201
204
197
189
195
190
182
187
189
185
181
183
184
185
191
199
194
192
195
192
193
188
190
181
170
158
154
152
153
152
147
161
169
171
175
177
174
169
172
174
179
190
194
196
200
199
204
204
210
206
201
191
181
181
177
179
178
179
185
187
189
180
186
196
196
184
186
176
180
185
196
204
215
202
200
206
201
172
173
174
168
163
157
162
191
205
202
197
200
195
195
212
202
206
200
190
192
194
183
186
188
181
181
182
184
191
194
201
198
193
197
198
194
192
183
186
183
177
165
158
159
161
155
161
166
174
175
172
173
174
167
171
176
182
185
193
198
203
204
209
211
206
199
193
185
181
178
178
180
178
187
188
188
179
188
197
186
180
180
175
182
188
197
209
211
205
202
203
199
176
173
172
175
170
158
162
178
207
203
197
200
194
197
207
205
207
200
192
190
192
184
180
188
176
183
184
183
186
190
193
195
192
194
198
197
197
190
185
182
186
176
165
167
168
161
165
156
172
162
166
169
170
160
163
170
169
183
190
197
204
208
206
205
201
197
194
185
182
180
179
176
177
182
186
187
179
189
186
181
175
183
180
184
191
199
209
210
203
203
202
194
176
172
172
173
172
166
171
169
198
204
203
202
196
194
206
202
203
202
189
188
188
182
177
179
176
175
187
180
183
189
194
198
195
196
199
210
208
204
197
189
190
180
172
174
175
174
176
167
173
174
172
174
178
179
182
184
179
192
201
195
203
204
198
197
194
190
187
185
183
182
178
178
179
184
187
182
179
188
171
176
180
185
186
187
190
202
208
206
204
205
200
190
174
172
171
174
168
169
171
168
189
202
202
203
197
190
204
206
199
203
194
184
184
182
175
172
163
163
177
180
188
193
195
194
198
197
200
211
205
206
196
190
190
189
176
183
194
188
187
192
191
195
195
189
194
196
202
204
196
208
207
196
197
200
198
194
194
186
186
188
187
182
182
184
188
184
187
179
181
186
161
183
182
187
186
181
193
203
207
205
205
205
197
194
174
173
170
173
166
168
173
166
178
199
203
197
201
192
202
208
208
204
195
188
182
184
179
178
172
173
163
167
175
185
188
188
185
187
184
184
181
191
182
184
189
192
182
187
199
194
199
207
205
208
206
196
208
207
212
214
203
217
217
202
203
213
203
192
199
191
191
195
192
189
185
188
190
186
183
179
179
178
160
184
183
187
182
187
194
201
208
203
204
204
198
191
175
176
172
165
172
168
168
172
170
193
197
195
200
201
201
216
207
209
192
187
181
181
182
181
184
190
185
173
162
163
167
174
177
170
165
165
171
179
178
178
184
191
180
182
191
189
193
210
215
218
218
193
206
205
206
203
198
205
207
196
199
204
205
200
198
198
197
202
200
195
185
190
193
185
180
183
181
170
164
183
184
183
183
186
197
203
207
204
202
204
197
190
176
177
173
165
172
168
165
172
168
183
198
192
194
201
198
219
208
212
195
189
185
185
192
187
194
195
200
182
176
163
157
157
178
159
152
149
165
171
176
182
189
192
193
191
186
188
188
205
207
213
210
199
202
200
195
195
192
189
185
188
191
186
190
192
194
196
199
205
203
194
190
198
194
185
182
184
182
161
169
184
181
180
181
189
197
206
208
203
203
203
197
190
179
178
174
167
170
172
168
173
171
170
196
192
191
195
200
210
206
210
199
193
192
192
195
196
197
196
197
188
172
165
157
153
161
153
154
141
165
159
151
162
175
175
181
190
187
190
189
193
189
194
200
200
201
203
198
193
188
187
192
188
190
184
187
188
198
194
198
204
201
196
197
201
193
185
178
181
175
155
174
183
184
177
183
194
200
208
205
206
200
204
194
192
181
174
177
171
170
168
172
169
168
164
189
190
191
191
196
211
202
204
197
189
195
201
197
194
193
193
197
193
176
171
165
160
149
147
148
144
167
157
151
152
160
160
170
177
174
179
176
168
169
163
167
167
166
172
175
174
170
169
181
183
178
179
182
187
195
197
197
199
193
195
198
195
190
181
172
173
162
162
175
186
179
179
185
197
205
204
206
206
201
201
192
193
183
177
179
174
170
170
174
167
163
164
175
195
190
192
190
207
198
195
198
189
194
204
200
191
196
197
203
201
190
175
174
171
154
149
143
147
169
170
164
159
163
156
157
159
158
162
166
159
160
156
151
149
152
156
155
159
162
161
165
173
172
171
179
183
190
197
197
196
187
186
190
187
183
177
172
162
158
170
180
181
180
180
191
201
204
204
206
204
204
196
193
191
183
180
178
176
171
172
173
170
166
161
172
195
194
190
189
201
194
197
199
196
192
198
197
188
191
196
204
206
195
183
178
179
170
162
153
158
164
168
163
169
169
163
164
169
163
162
160
158
159
162
155
152
162
164
168
175
184
182
182
183
182
179
182
191
197
202
198
192
184
183
188
185
179
179
167
154
167
175
180
179
176
184
195
202
205
206
204
207
206
196
192
191
190
180
177
178
174
172
170
173
173
157
168
191
190
191
183
197
202
198
196
202
193
189
195
192
189
192
202
200
193
190
186
182
183
174
169
171
169
171
169
175
180
168
168
167
164
157
160
161
162
171
169
175
176
177
177
184
188
191
194
195
191
192
190
195
193
199
194
186
186
186
185
181
176
175
153
159
175
178
180
178
178
193
199
202
206
203
206
207
204
197
192
190
196
179
179
181
175
171
171
173
174
160
161
190
184
191
184
195
203
196
193
195
189
185
192
195
190
193
196
201
199
198
187
183
179
180
176
173
174
173
176
182
182
180
184
179
177
175
177
183
181
184
182
187
186
184
190
194
193
199
201
195
185
190
190
186
192
192
192
185
186
185
182
178
175
163
151
167
171
178
179
177
184
195
204
204
205
204
205
208
203
195
192
192
196
181
182
184
177
172
173
170
170
160
160
184
186
186
183
193
198
193
186
184
185
184
188
194
193
196
197
198
201
197
192
185
177
174
176
173
173
172
179
183
177
180
185
180
182
174
176
175
178
183
182
185
184
183
187
193
197
194
194
185
180
188
184
184
188
189
186
184
183
184
178
175
172
152
159
177
180
177
180
179
189
198
206
206
202
203
204
208
204
194
189
192
195
184
183
179
175
171
168
171
166
159
165
179
189
181
186
189
197
185
181
182
185
183
182
192
193
191
197
196
198
201
193
192
182
174
174
171
169
167
176
172
173
174
183
177
176
174
174
173
172
172
173
174
177
171
181
189
192
188
188
183
179
183
181
184
187
186
182
181
181
178
175
170
154
156
166
179
187
179
180
186
196
199
209
209
203
201
205
211
203
192
186
191
196
185
178
177
174
170
169
171
166
156
170
192
192
181
180
178
186
189
182
181
184
184
179
184
191
190
190
193
190
193
190
189
186
176
169
166
168
166
174
169
172
174
177
178
178
174
176
176
176
172
174
173
169
176
186
186
184
184
182
179
179
181
183
184
185
184
179
178
177
176
171
155
153
159
160
180
186
181
180
200
206
207
209
206
206
203
204
208
204
189
183
189
195
186
180
178
172
171
170
173
162
155
182
204
190
175
169
173
178
185
189
175
181
182
177
181
183
190
184
189
189
187
186
185
184
175
164
162
162
164
167
169
171
170
171
171
171
171
173
176
177
175
174
176
174
181
185
180
178
180
176
180
182
183
185
183
186
182
179
174
175
174
159
150
154
155
162
177
191
182
189
201
210
210
212
207
203
205
203
209
203
190
185
187
197
188
179
177
174
174
173
169
164
165
190
192
183
174
165
167
179
182
185
180
180
171
175
180
181
183
183
187
189
189
188
190
181
177
167
157
154
156
157
164
165
159
163
165
166
167
169
173
174
176
179
185
187
186
186
181
183
184
180
178
186
185
188
183
187
182
178
173
176
164
155
153
151
142
165
179
182
200
206
199
209
216
213
204
208
206
205
208
204
193
187
185
198
190
180
175
175
172
170
165
171
170
183
177
182
171
171
159
181
180
181
177
173
167
176
178
181
182
181
185
192
193
192
193
186
183
180
173
163
160
154
160
160
156
161
162
164
166
172
178
181
184
191
190
194
192
189
191
193
193
188
188
190
193
189
187
184
183
175
176
161
154
158
157
148
132
162
181
187
192
222
210
204
214
210
204
208
210
210
209
203
196
187
183
197
192
177
174
176
168
166
174
179
163
173
177
174
172
169
169
176
178
175
164
168
170
177
172
179
182
179
186
192
197
199
199
193
190
192
185
179
180
173
171
167
165
169
170
172
175
182
184
189
190
195
194
195
195
196
200
201
199
192
194
194
194
192
187
183
185
178
168
151
150
166
156
144
129
161
184
194
197
208
224
214
210
210
202
206
209
215
210
203
196
190
185
192
186
174
171
171
165
172
180
170
150
174
176
168
171
163
178
187
169
167
157
169
168
173
168
175
180
179
184
190
200
202
204
195
194
199
192
189
191
190
191
189
186
183
185
190
190
193
192
196
190
194
203
200
201
203
207
205
202
197
195
193
190
190
185
179
182
170
157
152
158
163
162
141
138
151
191
192
198
204
218
224
215
209
207
204
210
212
212
201
191
189
181
190
190
174
172
171
171
173
173
164
148
184
175
164
168
163
183
193
170
152
159
169
168
167
167
163
179
181
182
189
199
200
204
199
196
197
200
198
196
199
202
200
200
199
200
206
201
200
203
202
202
205
210
205
208
208
206
208
202
199
189
193
188
184
181
179
168
156
151
156
161
158
170
142
137
145
180
197
194
207
208
225
224
209
203
204
205
214
211
206
197
189
185
191
193
177
170
170
168
172
172
152
155
188
172
160
172
161
181
186
183
142
155
172
167
160
161
158
167
181
181
184
192
198
199
200
198
202
198
198
201
198
201
201
202
201
201
208
208
204
209
206
209
210
210
210
212
209
203
206
200
193
188
189
184
182
180
169
157
153
155
158
156
164
168
149
133
141
166
196
200
195
198
215
225
220
201
202
205
210
208
208
200
196
193
196
194
171
157
170
166
172
165
148
162
194
175
159
170
160
173
186
180
157
157
167
172
160
156
146
160
169
177
185
187
195
196
197
197
198
200
199
201
200
197
202
204
198
205
209
208
210
210
210
209
213
212
212
211
209
203
201
196
188
186
180
177
183
177
155
155
153
156
159
161
169
165
154
139
132
155
188
214
193
186
202
223
223
205
204
207
210
205
204
198
193
192
191
187
162
158
175
171
176
159
144
167
192
174
164
163
162
169
183
176
166
169
163
168
163
157
137
146
157
171
180
186
187
197
198
193
195
196
197
201
202
196
201
204
202
206
210
208
212
208
210
208
207
211
213
212
206
200
196
190
187
182
177
172
184
181
152
153
156
156
165
160
174
167
156
147
129
147
181
209
201
181
194
216
225
213
204
209
206
204
207
194
193
191
193
183
159
167
178
177
172
153
148
175
193
174
171
163
161
164
181
175
169
183
167
167
163
159
145
138
146
162
172
176
183
195
193
189
192
195
195
194
202
195
200
201
205
206
204
207
208
203
205
210
203
209
205
205
200
193
190
187
178
175
175
180
178
180
146
152
155
163
164
160
178
169
146
159
135
149
174
197
202
186
188
206
216
218
205
207
206
201
204
192
192
193
195
180
158
173
182
176
167
150
151
180
196
181
165
164
155
162
180
176
174
184
187
166
158
160
154
141
145
148
167
167
172
185
191
188
191
195
191
193
195
193
193
196
201
201
199
204
202
197
201
208
207
202
198
195
192
188
184
181
171
176
182
179
172
176
148
152
159
160
166
161
183
170
144
161
139
151
169
192
194
185
193
201
206
218
207
206
205
200
205
191
188
190
191
171
153
171
186
170
167
145
153
185
201
188
158
169
148
166
176
178
177
186
191
185
163
163
157
150
149
142
154
161
165
168
179
185
186
192
188
191
191
190
191
195
196
197
196
197
196
195
198
202
198
197
194
186
189
183
174
170
176
187
177
177
170
176
157
157
160
164
169
164
186
165
153
160
143
145
170
189
189
178
190
198
207
211
203
200
200
197
201
191
187
190
187
165
156
182
184
171
170
144
177
187
202
197
161
165
146
167
170
179
173
182
195
188
178
163
160
159
151
144
149
150
156
155
165
170
182
186
186
187
188
188
190
192
192
193
193
196
191
196
192
191
186
189
183
186
184
171
164
175
185
181
176
175
175
178
158
162
163
168
173
166
190
165
157
156
148
139
174
178
196
178
178
198
210
211
195
193
195
199
202
192
179
185
184
163
165
178
186
172
163
148
193
190
200
200
163
164
153
159
168
178
168
187
195
182
184
177
161
161
159
153
150
146
151
151
155
160
171
178
181
184
182
184
182
188
184
189
191
190
189
190
186
180
184
177
173
175
170
164
169
184
181
183
180
179
181
178
162
165
167
170
173
170
192
163
153
158
150
147
174
178
195
180
173
193
208
211
200
188
195
189
194
189
187
180
189
171
176
179
182
172
155
164
200
194
197
195
179
161
149
151
167
172
168
181
192
183
180
183
175
166
158
157
152
149
149
148
150
155
163
164
172
175
176
179
179
181
180
182
183
184
182
183
176
175
170
171
170
168
166
170
186
183
186
182
186
181
187
175
162
171
171
174
164
181
193
157
159
156
146
155
175
181
189
177
168
196
205
208
208
188
195
188
187
180
180
183
204
182
180
183
182
177
164
178
200
196
187
198
181
150
149
145
168
170
171
176
185
185
185
185
176
182
169
161
152
150
151
146
146
149
156
154
160
162
165
173
173
174
176
175
175
175
173
173
171
169
167
168
165
169
179
183
189
187
185
183
184
184
189
174
169
172
172
166
163
190
187
150
167
150
145
162
182
182
179
182
162
199
203
206
205
203
202
190
184
175
178
182
208
181
187
186
175
185
168
190
194
195
181
184
176
156
145
145
162
163
169
178
178
182
190
185
180
182
177
177
164
153
149
145
141
138
145
146
146
151
157
155
159
162
164
167
167
167
163
166
164
161
168
170
176
181
184
185
186
186
189
183
185
187
195
174
167
167
167
163
171
191
174
156
165
151
145
171
186
182
177
179
167
191
208
201
202
201
209
204
181
176
177
178
