P2
# Face with average contibution
92 112
255
198
202
207
207
205
202
211
206
203
201
201
198
194
202
206
203
199
197
194
199
197
199
198
201
188
193
177
188
183
170
171
177
188
190
198
191
195
188
193
207
200
200
198
196
195
199
198
197
204
192
194
201
195
187
190
189
185
186
190
187
189
186
191
187
186
182
183
186
184
189
188
192
192
196
198
198
193
204
199
202
199
197
201
199
202
201
200
198
206
201
199
202
202
203
213
206
207
207
213
205
204
204
206
203
206
207
209
198
200
198
199
197
199
197
199
198
189
189
181
186
190
183
181
172
175
182
190
186
181
177
192
200
186
190
191
191
189
183
193
189
200
205
205
201
196
188
195
194
186
195
196
198
194
190
197
191
192
189
177
188
188
189
182
190
190
194
205
202
197
199
201
201
204
201
201
200
200
198
203
200
201
201
202
202
208
203
210
210
208
210
212
206
204
206
208
208
208
213
201
201
192
199
199
200
194
185
182
188
188
185
182
179
186
186
175
174
175
185
179
186
184
187
192
194
188
188
186
194
189
186
189
190
195
203
199
202
190
187
199
191
192
190
188
207
204
198
193
191
186
192
185
184
187
189
188
188
187
194
199
206
202
204
201
204
201
206
205
204
204
199
200
200
201
205
197
201
208
206
212
210
208
209
208
207
211
205
200
202
205
202
198
187
189
186
184
192
185
184
191
194
188
190
200
200
183
194
173
167
173
173
188
192
193
193
200
191
192
194
190
192
188
197
190
191
198
198
191
195
198
196
205
197
194
190
189
201
208
207
197
187
186
186
193
192
193
192
191
183
186
192
190
192
200
203
200
195
196
195
204
204
206
206
202
203
202
203
200
200
210
207
208
211
209
210
208
213
207
202
201
194
193
192
190
185
190
189
188
199
203
195
191
191
192
193
199
196
185
179
170
173
168
183
185
199
199
193
198
200
199
197
188
189
191
198
204
194
192
196
187
189
194
201
199
210
207
205
193
192
198
200
194
184
188
192
192
190
197
199
201
193
183
196
196
195
197
199
202
199
193
194
203
203
210
201
205
205
203
201
201
201
209
207
205
208
209
213
206
209
206
202
196
187
192
189
184
190
197
203
199
206
197
193
183
184
185
185
180
179
187
179
175
185
183
182
200
201
201
206
205
198
204
199
196
191
195
203
208
204
201
210
196
197
200
206
206
211
209
205
207
197
204
196
193
191
186
188
184
188
191
195
202
200
193
199
200
204
209
201
199
201
199
195
202
206
211
209
206
208
205
199
204
199
215
210
204
206
208
211
206
204
200
194
185
191
192
189
189
200
205
213
204
194
197
200
195
192
188
180
177
181
178
181
182
190
190
195
196
202
206
215
203
207
208
205
198
194
204
209
209
204
216
219
209
203
206
207
204
215
208
205
203
198
209
200
201
189
193
189
180
188
195
195
202
202
198
199
202
194
198
202
198
203
199
199
200
206
214
207
206
207
209
201
197
201
210
216
213
203
207
210
204
189
193
188
186
193
195
198
203
199
197
196
185
193
200
208
195
197
189
178
175
172
184
195
194
190
195
203
203
206
211
219
212
214
213
209
202
197
210
216
212
208
213
218
216
205
205
214
207
209
201
198
197
190
196
201
196
201
193
199
188
189
198
196
205
211
207
191
194
196
198
200
199
199
196
204
205
205
207
205
205
207
207
203
196
204
208
211
210
206
210
204
193
196
189
188
186
189
199
209
200
194
187
191
182
179
188
200
191
195
188
180
181
176
183
191
199
189
194
206
210
203
213
204
204
208
212
201
206
207
209
208
209
204
210
223
224
210
219
212
209
201
197
201
192
188
202
199
194
197
195
195
188
194
204
201
208
205
209
197
200
203
201
197
196
195
195
201
202
203
198
205
201
204
207
205
204
201
207
210
213
208
208
195
191
194
197
190
187
203
199
197
196
189
190
195
172
172
184
182
189
187
195
187
177
178
175
187
188
200
201
205
206
207
205
207
200
208
208
207
209
210
206
204
210
208
204
220
214
211
214
213
211
207
201
203
202
195
198
197
196
193
189
197
202
189
198
208
213
216
215
204
202
204
202
202
205
202
195
195
204
203
203
206
205
205
209
210
202
204
207
207
216
211
210
191
192
188
200
192
205
204
207
196
191
193
196
196
181
182
193
191
188
188
179
174
171
176
181
182
190
200
200
202
202
209
208
211
203
207
205
207
209
203
202
199
205
203
206
205
203
202
206
206
215
205
204
195
203
200
199
197
193
194
189
185
198
191
195
201
207
212
211
210
204
203
199
202
197
201
202
196
194
205
211
211
201
209
207
208
205
207
201
207
214
210
202
195
193
198
195
200
199
203
202
195
201
197
196
182
187
184
185
189
177
179
164
158
157
170
179
190
193
201
203
206
209
205
204
204
204
204
197
204
195
196
189
200
200
197
199
193
196
195
197
201
205
208
205
204
202
200
195
197
195
189
188
190
195
194
195
194
205
211
208
199
193
204
203
209
196
199
202
208
195
193
203
205
201
208
203
207
204
209
205
204
209
209
197
196
186
192
198
196
189
192
188
188
205
196
206
203
196
189
182
186
169
161
157
164
169
176
177
199
203
205
212
212
206
211
205
202
207
196
199
196
189
187
185
185
187
188
196
184
185
184
180
196
204
203
200
203
207
206
209
205
201
201
195
198
192
188
191
195
201
203
214
198
195
192
202
205
202
192
200
206
200
187
199
200
195
203
203
204
203
205
208
206
199
207
194
188
188
189
194
189
187
192
181
195
201
200
205
196
189
184
178
170
171
164
163
175
185
185
185
201
206
202
204
206
200
200
201
194
197
201
194
198
191
187
188
187
182
190
190
184
181
186
180
190
203
205
197
202
209
206
215
214
207
204
204
202
199
198
190
198
201
201
200
204
196
197
192
200
203
198
190
196
193
187
187
194
191
193
203
201
201
197
208
204
193
194
187
186
182
183
184
180
189
185
191
193
197
205
208
191
178
170
173
171
174
162
167
184
189
190
191
200
192
195
190
198
191
192
190
184
193
192
187
191
190
186
186
178
192
190
186
179
179
184
186
192
197
200
201
207
213
201
208
216
213
207
203
214
206
202
201
199
194
198
199
193
198
197
189
192
202
202
203
194
187
190
182
188
193
196
192
201
201
189
208
192
189
186
180
177
176
186
185
178
193
193
202
192
190
199
190
174
170
175
178
180
178
175
184
192
192
195
198
201
193
191
194
193
191
189
186
188
184
183
182
186
187
187
184
185
185
189
180
179
176
178
182
183
189
186
204
206
213
205
196
197
205
207
207
214
216
203
214
208
205
194
196
191
191
195
186
191
193
193
196
196
191
192
184
179
187
198
194
188
199
196
201
183
180
176
173
166
183
189
192
190
204
207
205
195
202
191
170
170
172
181
193
198
184
190
192
197
197
205
202
195
195
192
190
191
189
188
185
191
186
181
177
186
182
185
180
184
181
183
181
179
177
170
177
183
185
184
192
203
201
206
197
192
197
206
210
211
226
211
219
218
209
199
202
199
189
183
185
185
183
193
186
184
202
197
180
188
185
195
199
186
187
193
189
176
174
172
177
170
187
195
190
201
207
201
192
191
195
175
170
182
183
201
208
207
193
192
201
202
206
204
194
179
189
190
187
180
181
184
182
183
178
184
187
184
183
183
179
185
175
178
182
174
178
173
179
180
186
183
185
197
197
204
206
206
197
199
206
207
216
219
221
222
223
207
207
194
191
186
178
176
182
187
183
182
186
201
194
188
188
188
200
193
185
185
184
175
169
167
177
177
190
191
189
184
197
193
182
186
172
167
172
187
199
210
212
206
202
198
208
208
206
199
191
178
184
186
176
178
172
182
182
177
180
178
194
183
183
181
180
189
177
181
180
180
172
178
181
171
182
186
183
190
194
193
210
212
204
196
197
212
203
213
219
224
216
211
205
201
201
191
183
177
168
191
186
186
190
195
193
195
187
190
193
196
192
186
173
173
169
169
187
187
184
181
175
191
204
189
177
175
160
175
182
200
208
221
213
202
210
206
207
200
200
197
189
189
178
171
174
181
173
182
188
178
184
184
186
193
190
194
188
194
185
180
181
178
179
176
179
176
187
188
187
187
186
189
199
203
201
193
192
200
200
208
214
215
216
209
197
197
202
207
196
186
171
170
193
188
196
198
193
203
186
187
184
195
187
189
169
173
168
166
179
185
191
188
195
198
201
192
175
174
171
182
196
207
216
214
207
205
211
213
206
196
202
193
188
190
191
179
175
178
183
185
190
184
185
182
189
179
182
193
190
190
187
177
178
183
178
179
179
177
192
187
186
184
177
183
187
186
191
188
189
185
192
200
207
208
209
215
194
185
195
199
201
194
176
179
176
190
183
202
201
206
208
187
187
190
189
188
165
172
172
165
172
184
204
206
195
191
197
189
177
187
193
199
202
207
214
206
205
210
208
205
210
212
205
199
191
189
191
187
183
185
189
190
188
185
187
188
190
182
184
195
192
193
178
175
180
181
177
178
179
179
184
181
190
181
179
177
184
190
188
189
186
177
186
189
194
195
202
205
202
190
187
195
196
194
182
175
181
180
180
193
202
204
208
202
187
186
193
190
169
170
177
170
180
198
202
194
187
196
198
193
190
192
202
205
204
206
208
200
199
211
207
203
211
214
207
203
197
198
195
190
191
194
197
194
199
190
187
190
189
182
191
186
196
197
185
175
183
185
180
179
176
182
181
187
187
186
180
179
185
187
186
190
180
180
176
186
187
191
195
204
199
206
190
189
193
192
189
178
178
174
185
183
192
202
202
212
188
191
187
183
171
184
185
180
200
199
192
201
198
201
202
203
193
195
200
202
206
201
199
197
194
205
202
209
209
216
207
207
205
200
197
197
197
194
195
195
197
201
191
195
192
189
192
190
195
196
190
186
190
192
183
179
176
175
177
187
182
181
184
182
181
187
186
188
181
181
182
181
183
190
188
197
192
198
196
187
190
192
198
175
184
164
181
187
191
196
192
206
201
176
190
183
186
191
199
190
188
192
199
213
196
190
207
197
194
189
199
205
196
188
197
192
193
197
200
205
210
215
209
203
203
200
206
202
198
195
195
197
192
198
194
188
191
190
191
191
190
194
194
194
190
189
192
185
179
175
180
180
184
182
180
181
183
181
179
184
182
180
185
180
175
182
185
194
190
193
194
194
186
190
198
182
176
169
160
185
202
191
195
189
201
188
178
185
195
195
198
197
194
199
208
209
184
192
190
180
183
185
195
195
188
193
196
197
190
195
206
205
202
211
210
199
197
198
196
196
193
195
198
198
197
201
197
192
190
193
192
192
192
195
196
195
193
183
189
192
182
176
182
179
179
183
185
176
182
179
179
179
182
182
177
178
175
174
185
191
192
192
189
186
185
183
191
199
173
171
165
176
198
196
198
204
191
200
173
183
192
196
187
201
208
198
205
193
186
188
181
186
198
203
193
185
182
192
200
198
195
197
208
208
202
201
208
198
195
196
193
194
193
197
199
194
201
200
201
194
198
191
194
197
190
196
195
199
193
189
188
193
188
180
180
183
176
179
182
180
183
179
182
186
185
182
187
179
175
170
179
187
198
192
194
188
178
180
185
198
177
168
162
177
184
180
186
211
206
192
174
182
183
189
183
203
208
201
202
195
188
198
198
207
208
196
190
182
180
188
192
201
195
198
200
209
200
201
201
196
192
194
198
198
196
199
198
198
201
203
203
202
201
195
195
198
191
194
199
200
198
192
188
190
189
186
183
179
177
176
177
176
180
177
184
182
186
187
190
187
177
173
176
181
194
198
194
188
187
181
188
183
181
166
161
173
182
169
185
195
214
199
173
177
177
184
190
208
215
200
202
196
190
203
204
214
201
199
190
182
179
185
195
200
191
198
195
205
202
192
197
193
191
187
192
198
195
192
194
197
198
203
200
203
207
199
195
197
195
197
196
197
201
191
188
188
188
187
181
182
176
174
174
174
174
171
178
177
186
185
186
187
181
173
177
179
188
196
200
189
190
183
191
184
180
172
173
177
171
182
181
198
203
209
183
174
172
180
201
214
203
200
188
189
207
203
205
208
199
203
191
182
179
189
194
192
190
195
198
195
194
194
196
192
187
187
192
194
194
192
198
198
198
195
195
194
201
198
200
196
198
197
198
195
195
195
188
185
184
187
181
183
177
174
176
174
171
171
173
175
177
182
183
184
186
180
177
181
186
194
201
199
185
177
191
179
178
175
181
184
178
181
191
206
202
204
191
181
172
181
203
215
200
201
182
198
201
201
194
206
204
204
198
181
180
183
182
180
186
191
189
189
189
198
198
192
185
187
187
191
191
189
194
196
195
195
196
192
192
198
200
195
196
195
195
193
194
196
191
187
185
190
184
186
177
173
176
173
173
171
175
174
175
182
184
189
188
190
185
185
194
195
199
207
199
172
174
181
175
182
183
188
181
188
187
201
201
204
199
182
167
184
204
213
208
202
199
196
202
196
189
211
197
200
193
180
167
167
178
181
190
191
186
189
187
192
191
190
184
179
181
184
182
183
186
190
191
190
189
191
191
191
193
193
194
194
195
194
193
193
198
189
187
186
183
190
183
168
173
178
177
176
175
175
177
185
187
188
192
192
196
189
188
196
203
202
206
188
173
173
184
188
176
191
181
187
195
198
201
194
198
190
167
183
211
208
197
200
197
192
210
210
200
205
201
195
186
176
166
170
178
184
195
189
183
185
183
183
192
190
181
181
180
181
178
184
178
182
189
187
187
186
192
193
193
193
195
194
197
199
198
196
201
195
187
185
185
185
190
181
173
185
187
184
177
182
181
185
188
189
194
194
196
196
188
195
205
207
206
201
175
175
182
186
181
181
198
203
210
220
210
199
198
192
173
176
208
205
193
195
190
200
212
208
199
201
193
191
185
176
181
180
189
187
190
189
181
186
184
188
193
191
184
182
179
188
185
185
184
183
186
188
185
189
194
196
198
196
196
197
198
198
200
200
204
200
196
190
190
190
195
197
193
182
189
191
187
185
188
187
191
194
194
199
201
200
194
198
209
215
210
205
198
172
190
188
180
190
204
214
212
230
220
208
206
191
175
170
199
202
189
186
193
202
210
201
198
191
196
191
185
185
186
195
196
187
186
188
185
187
186
189
187
178
182
188
187
181
188
191
192
201
200
194
194
195
198
203
201
198
198
197
201
195
195
200
204
203
203
197
192
196
201
205
206
200
190
194
199
191
192
195
198
201
201
203
207
207
201
197
212
218
221
206
202
194
178
193
185
198
201
215
225
225
222
217
199
200
172
164
187
203
187
191
189
204
208
203
200
189
195
192
183
191
193
199
193
183
183
189
190
189
189
193
186
182
195
197
200
187
188
194
197
202
201
200
194
199
198
208
201
200
197
197
199
195
198
198
209
200
208
197
200
200
196
197
200
202
200
190
194
197
197
198
201
207
210
211
213
211
211
205
210
219
224
214
203
199
198
177
200
209
209
210
225
226
223
222
191
190
172
154
178
199
181
200
194
209
210
206
200
188
197
191
181
188
191
206
197
197
197
195
200
197
202
197
193
196
202
208
208
207
199
201
202
203
198
199
196
193
199
204
203
203
205
195
197
195
199
198
204
205
209
207
208
207
206
203
205
206
207
200
196
196
197
204
205
211
209
215
218
220
221
213
213
230
231
232
208
196
190
201
196
218
217
207
210
228
229
218
198
185
181
157
174
195
186
203
197
212
214
211
202
189
185
177
186
204
202
213
206
202
204
201
206
206
207
202
197
194
210
211
214
205
204
199
195
199
200
198
194
199
199
199
206
205
204
199
200
202
201
204
208
209
209
209
207
205
211
209
208
206
209
202
204
202
201
199
198
199
202
203
213
214
214
210
213
228
234
239
233
201
193
208
211
209
216
208
205
227
227
209
209
185
190
169
174
195
177
199
208
204
213
215
201
176
189
193
197
205
202
209
207
204
211
208
210
211
208
202
196
192
210
213
214
210
191
193
188
195
199
203
205
201
205
201
202
212
213
207
209
211
208
211
216
216
211
213
210
210
210
208
205
206
204
202
206
199
205
204
193
193
192
196
204
207
206
207
207
224
235
238
243
215
198
215
233
231
199
208
214
221
222
200
202
186
191
186
180
190
184
194
205
203
210
210
179
189
194
193
203
209
202
205
202
205
210
213
213
213
205
200
197
195
200
211
208
197
185
183
179
185
189
193
200
204
210
209
200
216
220
219
218
220
216
218
223
226
223
215
214
215
206
207
207
205
197
187
211
193
194
194
193
193
188
191
194
197
199
198
197
209
223
232
238
222
210
217
233
235
213
201
210
227
223
199
187
188
199
202
184
192
202
194
200
197
205
199
191
192
193
192
203
205
193
203
201
205
201
199
202
192
190
189
195
190
187
194
198
189
197
185
188
189
191
196
201
205
208
217
213
219
222
212
222
224
213
217
224
221
214
208
210
212
209
210
214
212
204
214
223
215
194
202
203
201
200
194
198
198
194
207
199
206
217
231
239
217
220
216
228
220
221
209
207
230
221
203
176
193
210
212
191
202
206
200
201
182
196
180
203
191
190
196
201
198
191
196
193
192
190
193
194
193
192
192
191
184
173
175
170
164
178
172
173
174
171
170
184
192
196
206
208
213
215
209
227
228
220
200
207
199
199
198
202
209
200
197
205
201
196
222
224
218
192
192
192
189
185
178
185
185
185
192
195
203
209
225
231
227
234
217
224
216
216
215
220
237
219
191
179
200
208
210
204
214
197
208
198
169
181
180
179
189
186
193
197
199
195
194
195
193
203
194
176
178
167
179
166
155
159
157
153
156
157
163
163
162
164
165
168
168
185
194
197
192
195
195
201
216
203
199
205
205
190
193
200
206
199
190
190
177
182
194
204
204
192
180
186
191
184
180
173
172
173
177
187
193
204
211
226
226
227
215
219
220
230
216
222
231
205
192
188
203
207
204
198
223
209
207
198
195
181
198
180
184
191
190
193
191
189
187
194
190
198
183
174
172
165
174
171
172
168
169
165
166
164
171
161
167
164
162
158
162
173
185
184
187
189
188
187
195
193
192
196
190
168
180
199
192
179
186
189
175
206
202
182
187
177
187
188
189
194
190
185
185
181
184
193
194
199
210
225
232
232
216
210
205
209
224
226
232
206
190
197
203
215
215
192
204
222
205
206
221
200
208
195
200
195
184
196
190
191
194
193
191
191
185
189
186
181
186
196
185
184
189
195
193
185
181
181
179
181
178
168
163
173
184
182
190
195
198
191
196
187
189
190
186
165
172
170
161
173
189
185
181
185
199
171
190
181
203
207
194
191
195
202
203
204
207
211
204
211
210
229
232
240
210
209
202
193
201
232
228
208
196
200
208
231
228
222
194
220
204
218
232
221
214
202
202
211
204
198
204
200
205
197
195
193
201
216
208
202
208
222
198
198
202
199
208
210
202
202
197
185
185
182
173
171
191
184
185
205
209
200
190
184
197
198
194
173
172
179
164
183
188
199
177
193
191
183
200
189
202
208
200
196
212
229
213
219
221
220
208
211
210
223
233
228
207
210
222
195
191
227
227
199
187
208
200
237
226
240
226
218
216
230
237
237
229
209
202
210
211
208
212
209
195
191
190
197
198
196
195
187
190
221
196
212
208
211
197
215
206
206
214
207
198
197
181
169
191
191
196
212
206
190
187
178
189
178
194
171
176
193
179
198
199
205
184
189
201
185
196
198
193
192
193
192
200
235
218
224
224
223
215
205
203
216
218
229
196
202
227
197
195
218
226
191
196
204
193
225
218
247
244
240
212
228
229
234
236
222
198
209
214
216
222
232
207
197
193
200
196
179
178
172
194
195
161
177
206
207
201
213
192
189
197
205
201
198
193
169
181
190
196
191
188
174
170
177
171
175
172
177
184
190
173
205
203
212
218
215
208
201
198
207
196
193
181
178
180
194
194
210
214
218
221
205
204
200
205
213
195
188
222
206
193
219
207
202
190
218
181
207
190
222
236
237
188
232
224
227
236
218
210
213
214
226
228
218
184
189
196
190
187
171
174
166
168
181
161
171
212
203
210
213
199
193
190
190
196
198
194
176
170
179
179
170
183
170
176
170
169
171
173
181
192
202
191
203
205
215
217
223
224
232
226
209
200
200
187
183
184
179
187
199
196
205
223
202
205
187
190
213
204
190
210
200
194
183
184
184
197
212
171
194
170
179
213
216
194
231
237
226
231
226
219
215
205
209
234
213
183
181
194
188
195
194
183
180
183
208
192
198
226
210
199
191
184
184
185
177
185
187
197
187
173
175
177
166
176
162
166
174
177
173
169
186
200
204
184
191
183
187
183
200
210
214
222
201
206
193
190
191
183
183
191
201
207
223
231
213
213
187
191
214
205
192
208
185
195
173
173
184
197
216
163
180
173
163
200
205
195
205
233
218
227
228
229
221
202
213
243
211
194
182
188
204
229
235
191
186
191
168
195
192
219
198
186
195
181
183
180
168
161
174
180
190
181
175
176
172
181
162
155
175
180
180
166
183
209
198
186
180
168
161
164
190
197
201
202
180
202
176
169
192
199
189
191
191
200
213
220
211
207
207
194
210
210
192
199
172
175
172
184
180
176
207
177
180
178
175
201
187
182
192
201
199
222
221
229
220
212
232
246
204
196
200
199
212
226
215
199
196
194
202
187
207
218
190
177
194
185
189
186
173
166
165
176
187
190
183
182
170
172
166
149
164
187
182
169
174
208
206
189
168
172
169
174
189
182
186
199
174
194
176
166
189
205
185
191
187
197
195
190
191
186
200
202
224
202
185
185
169
177
175
206
182
179
173
194
186
187
196
205
179
180
180
189
193
215
214
225
214
209
235
235
193
209
210
208
204
208
203
200
201
183
192
196
205
208
177
163
181
187
185
190
183
166
164
167
169
183
168
165
167
164
164
140
160
194
191
193
185
208
209
204
186
158
178
169
183
197
193
209
192
186
200
202
186
192
195
181
174
187
184
173
166
178
189
203
224
192
201
202
161
171
172
205
181
176
168
189
185
192
187
198
182
193
181
168
183
204
214
221
209
204
233
230
203
215
218
206
215
217
190
194
172
190
200
215
195
199
192
188
179
193
189
188
176
169
170
175
177
194
178
171
168
170
149
133
151
192
200
197
196
201
212
207
193
174
176
190
193
198
224
204
214
186
191
212
209
189
200
182
179
186
179
176
166
173
183
188
197
177
195
202
167
169
165
192
192
161
177
164
194
188
171
174
193
200
201
158
164
198
221
221
208
204
232
230
217
226
227
217
227
236
233
205
195
201
220
225
221
221
205
208
186
184
185
198
185
172
177
174
197
195
180
171
170
168
141
140
150
184
205
205
204
203
207
221
212
200
180
207
206
219
229
212
215
187
176
195
204
197
197
194
186
189
192
195
187
202
195
194
185
182
194
193
175
162
180
180
190
155
183
152
201
189
180
162
184
198
197
163
163
187
216
223
208
209
231
230
215
224
222
224
226
230
230
223
213
213
230
226
227
224
219
206
192
194
196
215
204
178
172
184
186
180
173
167
167
150
145
146
153
187
201
208
207
204
206
222
221
201
195
208
216
217
223
222
213
192
188
190
191
204
201
195
199
201
199
205
200
208
202
209
181
184
188
198
178
187
204
186
179
157
188
147
199
195
194
171
198
188
200
175
171
187
197
216
202
207
224
231
208
212
216
214
212
222
221
220
224
215
220
234
228
226
213
198
203
212
207
200
202
181
184
201
193
171
172
175
159
152
150
156
151
182
204
205
207
206
211
206
217
212
202
201
225
214
207
215
205
199
197
175
193
197
197
184
190
192
199
203
205
203
203
208
187
188
191
204
179
203
191
178
164
173
181
146
184
194
203
180
199
192
199
188
182
189
202
199
194
214
218
221
203
209
206
198
206
220
219
217
216
217
199
201
198
199
184
187
198
206
195
197
191
178
198
195
189
178
188
182
160
159
156
163
163
178
206
206
207
209
210
211
210
216
209
205
224
212
205
199
204
199
202
198
206
209
207
186
183
186
184
192
189
198
203
204
195
182
211
194
183
187
169
174
161
168
174
147
183
198
198
186
199
199
201
190
180
189
203
206
181
218
221
198
203
201
198
197
200
210
219
210
203
205
200
200
193
186
185
189
199
204
188
185
183
192
189
195
188
186
196
182
176
167
164
167
165
187
197
197
198
207
212
213
226
217
217
216
217
217
209
193
198
205
199
207
211
214
202
184
182
188
189
195
188
190
195
202
184
186
227
214
189
169
159
178
160
162
169
140
183
214
204
187
200
215
210
190
182
186
199
208
195
197
211
197
193
196
194
196
199
207
215
214
211
208
205
209
200
194
192
208
207
206
189
176
201
203
193
189
194
206
207
190
187
183
177
177
171
191
193
187
195
201
211
216
220
221
220
222
222
213
210
207
200
209
217
223
209
205
195
185
186
191
198
190
194
196
189
195
172
195
231
200
184
164
166
175
147
152
166
135
173
227
215
191
210
211
209
191
189
176
187
194
191
205
200
194
182
191
202
199
205
209
215
216
215
223
221
217
211
210
203
204
200
192
183
171
200
205
193
190
198
201
202
204
193
196
191
187
179
191
191
183
188
200
210
214
228
216
210
213
212
213
214
222
215
212
213
212
199
190
190
193
199
200
198
189
197
199
191
183
177
192
224
195
174
165
191
182
143
134
162
127
168
207
225
201
211
212
206
199
187
180
188
190
189
199
201
183
183
181
188
194
203
208
213
215
216
217
219
218
209
207
186
191
188
182
197
198
196
197
182
181
193
200
210
199
195
200
198
199
191
191
181
180
176
199
203
211
220
216
197
199
198
195
194
200
205
204
202
201
199
202
201
200
197
201
198
189
199
196
191
169
189
180
198
195
165
186
193
189
148
134
148
131
181
177
208
213
210
197
212
195
195
177
206
183
184
196
200
181
190
185
187
185
183
193
199
204
206
204
204
205
198
189
179
173
180
188
194
192
202
190
184
185
197
205
217
194
196
204
200
205
199
193
187
185
185
185
210
208
215
216
201
192
203
200
199
192
189
194
192
192
192
193
194
195
198
200
189
184
191
205
185
187
191
186
191
206
183
192
203
186
149
148
145
137
190
161
181
208
222
196
208
189
206
195
205
187
183
199
195
192
184
193
178
192
188
186
193
200
203
201
201
201
199
188
178
172
179
184
184
183
193
185
188
203
221
221
221
207
205
207
199
200
200
199
199
194
195
199
204
213
218
221
205
193
206
198
195
198
194
183
187
195
197
195
197
206
195
198
193
189
200
205
193
195
194
193
197
210
184
186
204
179
139
166
150
150
191
162
167
180
223
200
213
194
205
215
208
182
189
195
192
182
188
183
183
176
179
191
199
201
200
199
196
204
206
194
188
187
185
177
168
167
185
194
202
218
228
230
226
212
207
201
197
196
196
198
198
201
196
216
214
204
220
223
217
197
207
197
185
195
193
187
180
182
188
194
195
205
200
200
195
199
207
201
205
197
202
206
204
200
184
191
193
171
142
179
157
163
198
160
157
167
203
196
219
208
204
218
204
196
189
186
187
184
183
183
181
177
179
177
184
192
194
193
196
193
191
186
189
180
177
175
176
177
194
209
213
233
236
232
223
199
198
200
199
201
203
201
192
202
206
212
220
210
207
222
219
203
203
186
179
188
192
184
182
187
192
191
189
192
191
192
201
204
197
204
203
189
201
209
197
181
178
184
189
162
158
170
164
168
198
178
151
152
190
192
194
213
198
213
202
193
190
173
177
183
189
185
181
176
179
180
186
190
192
193
193
193
193
194
196
184
181
186
190
191
205
220
226
231
229
209
204
188
189
198
216
224
224
214
190
200
207
221
224
218
217
211
207
209
208
188
178
185
186
179
177
178
188
184
186
192
195
201
199
193
202
199
200
179
190
210
192
176
171
189
184
168
161
167
176
179
191
203
156
145
185
197
176
187
180
209
205
191
187
172
175
180
180
180
175
175
177
181
184
183
194
198
201
195
195
199
202
197
192
195
203
211
220
225
221
220
210
185
180
164
175
197
216
218
214
203
191
196
200
208
221
217
218
220
206
203
202
198
189
186
183
184
176
182
186
187
190
193
196
192
191
195
200
194
200
182
189
205
189
173
173
188
179
175
160
172
184
179
203
202
178
147
181
201
181
169
175
197
211
188
188
170
172
185
183
188
182
177
178
186
189
191
201
203
198
192
195
191
197
195
196
205
211
225
222
214
210
198
196
183
181
173
172
187
210
208
199
199
196
197
192
192
193
211
212
209
207
202
195
196
188
183
184
189
184
189
188
198
193
185
188
189
196
197
195
188
196
183
183
196
190
177
180
191
176
176
161
178
185
184
223
204
182
160
166
196
187
172
163
184
202
192
190
174
176
184
188
187
186
178
183
185
193
197
196
196
197
195
191
187
194
195
196
206
215
220
210
203
186
182
186
182
186
189
180
181
195
200
191
199
203
208
200
185
184
201
213
214
215
209
198
202
193
183
172
179
184
181
184
189
189
192
190
198
197
198
191
192
195
179
180
196
193
181
188
179
179
178
177
192
182
184
202
222
182
167
175
187
188
183
179
178
195
193
199
181
174
186
185
189
184
182
184
186
191
188
193
194
193
188
191
195
197
194
200
203
207
196
189
191
178
181
175
192
188
188
170
163
176
186
188
194
204
212
206
192
188
202
219
219
216
218
204
194
187
182
173
176
185
189
186
192
198
201
196
196
196
199
188
195
188
177
184
195
197
184
191
170
180
194
196
191
184
182
190
213
203
170
179
193
181
184
192
180
192
195
201
184
171
184
182
190
189
184
182
189
185
188
192
194
192
189
192
200
203
200
199
203
212
204
190
179
178
189
186
199
187
183
186
186
176
181
188
195
201
208
206
200
195
207
220
219
221
215
208
193
186
178
171
171
182
189
189
197
201
205
200
201
198
199
186
198
188
180
192
186
183
185
191
174
204
201
199
195
181
182
183
197
199
193
200
190
182
165
162
181
179
201
201
183
174
184
188
191
190
186
185
185
185
187
190
193
193
193
196
203
214
209
194
202
213
210
197
181
191
198
190
202
194
189
201
205
195
186
186
193
201
202
207
207
202
209
208
208
213
210
201
203
198
189
180
175
179
190
192
201
205
203
205
205
203
200
193
196
189
187
185
170
179
197
197
197
206
196
201
197
180
187
182
194
202
191
211
204
180
155
138
148
167
192
192
191
178
187
189
191
191
187
184
188
186
193
195
196
198
203
202
212
220
220
197
193
196
196
201
201
224
232
218
204
212
202
199
198
196
192
189
205
216
223
212
215
207
207
200
197
193
197
201
210
201
202
197
185
182
190
192
201
212
208
209
207
209
200
198
198
185
187
187
179
202
212
202
204
200
195
204
194
187
185
188
189
200
201
200
216
202
166
135
130
160
187
182
190
189
184
190
192
192
190
189
191
191
197
204
203
207
209
209
218
225
216
207
204
185
192
209
223
227
236
226
222
215
203
200
202
200
186
195
207
211
215
219
220
212
197
197
195
186
193
204
208
204
203
210
201
193
188
194
204
214
211
215
210
205
198
200
193
178
173
200
209
217
204
203
207
192
198
207
188
186
190
194
189
192
202
195
207
205
183
157
156
169
173
183
187
192
187
192
191
197
194
192
197
198
203
210
209
209
211
214
218
219
205
198
201
191
183
190
216
214
215
216
212
219
205
205
214
203
202
189
201
210
206
203
211
203
198
201
202
192
197
201
194
202
206
205
211
201
185
193
206
212
212
215
212
204
196
198
185
179
172
214
215
203
177
203
200
195
198
206
184
184
188
194
188
192
191
188
194
200
184
160
155
178
158
182
189
193
188
194
192
193
195
192
199
201
202
211
209
207
213
217
209
200
188
185
190
185
182
192
201
208
204
202
200
207
214
214
219
216
219
206
201
216
214
208
205
202
200
199
199
195
193
196
192
192
197
205
208
206
194
196
205
207
214
215
208
201
194
191
177
181
179
215
210
191
175
209
189
196
202
204
180
186
185
197
189
189
191
191
179
188
182
166
160
172
155
179
194
192
193
191
193
192
197
194
195
198
202
203
206
207
212
203
189
185
180
183
182
180
185
193
198
199
206
201
206
205
210
216
216
215
215
217
207
218
222
210
204
195
195
191
196
191
189
192
189
197
184
195
208
206
202
198
203
199
208
213
205
199
193
188
168
176
182
203
209
177
186
198
189
197
205
201
182
187
191
197
192
184
191
193
182
183
183
183
169
175
173
164
197
190
196
192
190
197
199
195
198
198
195
196
196
204
202
182
174
175
173
176
168
173
175
178
184
191
201
194
203
212
215
211
203
207
204
205
207
216
225
210
201
191
184
185
192
187
182
190
187
187
188
192
192
203
203
193
194
198
201
206
204
197
191
174
167
177
185
201
203
177
190
195
186
196
206
194
184
187
197
202
202
188
189
195
183
188
187
201
184
178
186
167
197
194
195
189
188
196
202
198
190
193
188
191
191
195
184
175
162
168
168
168
166
170
162
167
184
192
196
187
195
214
212
208
201
202
198
193
195
205
211
203
187
184
169
172
183
182
178
185
184
181
184
187
186
186
203
190
181
189
192
193
199
194
189
172
164
181
190
203
203
188
193
190
190
199
204
190
186
188
198
192
201
200
191
187
184
195
196
206
194
182
196
174
191
194
196
194
185
191
202
202
186
192
187
183
186
182
172
168
165
163
164
169
171
171
172
173
182
189
196
191
194
211
203
197
204
209
193
183
192
193
197
197
175
177
166
164
186
170
175
192
193
187
181
177
184
184
200
190
181
184
185
184
192
194
188
168
166
188
189
203
208
198
187
189
187
202
201
188
186
193
196
186
190
202
194
199
198
196
205
207
199
182
193
190
185
189
197
198
186
190
200
208
193
191
193
189
189
178
165
169
162
159
163
167
180
179
182
185
182
186
198
188
186
206
197
188
204
218
193
180
199
199
202
193
183
183
169
179
175
156
166
194
199
180
177
173
183
188
191
188
183
182
183
182
183
196
181
171
165
201
196
209
203
187
186
188
196
201
199
188
190
193
198
183
185
192
194
201
202
188
204
203
205
186
188
195
173
189
196
198
189
193
197
205
198
193
196
196
199
182
176
180
163
169
173
172
187
193
188
185
189
186
194
189
183
198
184
171
186
211
209
199
208
207
215
196
184
182
175
175
180
174
176
192
204
199
183
186
186
180
185
182
177
186
183
183
184
195
182
171
174
205
201
210
204
180
189
191
197
210
192
185
192
196
199
182
183
186
190
199
201
184
197
205
206
195
183
200
169
178
188
193
188
194
196
200
199
201
200
200
200
193
191
192
181
190
191
190
199
195
201
195
194
192
191
191
190
190
184
165
174
203
204
198
208
214
221
207
188
187
188
187
189
186
182
209
214
209
194
193
183
170
182
176
174
184
183
185
190
187
179
168
181
204
204
208
192
178
192
195
203
205
184
186
191
197
205
187
182
179
185
190
198
190
182
208
202
205
183
201
178
169
176
189
184
196
199
199
199
205
202
203
200
193
189
186
192
200
203
204
196
193
194
192
197
194
197
203
201
202
203
190
198
206
207
205
218
218
219
222
218
215
213
207
211
204
202
219
213
213
202
196
182
177
181
173
176
184
183
187
196
180
172
167
187
206
197
203
186
182
198
201
211
195
186
191
189
201
204
194
185
182
184
176
186
187
189
200
204
205
187
197
193
159
174
182
184
197
197
201
196
203
201
198
193
182
189
181
190
187
200
206
195
186
179
184
206
199
200
203
194
192
198
195
199
201
207
203
208
209
211
218
218
208
204
204
211
215
210
210
206
199
194
184
178
182
178
173
183
186
189
196
194
179
169
172
190
204
198
197
189
194
201
208
209
186
184
190
192
205
203
194
195
186
184
178
172
192
200
192
197
208
196
193
204
166
179
180
187
196
196
204
197
196
203
189
180
179
182
181
173
174
193
213
212
203
199
197
206
200
201
192
192
193
193
192
197
199
199
191
189
189
189
195
195
202
199
200
206
207
196
202
198
196
190
183
174
179
172
177
185
195
197
197
195
178
171
174
195
201
203
201
190
198
201
211
198
185
186
188
193
203
203
189
194
189
186
177
174
202
208
189
191
200
202
195
202
183
185
176
188
194
194
203
203
195
206
191
185
178
182
191
179
175
180
186
188
193
194
186
187
181
172
166
168
164
168
170
170
171
184
189
194
194
190
193
193
201
198
196
191
185
183
193
183
190
190
181
179
180
169
178
191
188
193
199
192
180
175
176
196
199
207
196
193
196
205
214
188
188
187
191
190
204
205
189
192
191
186
180
196
207
207
197
182
203
204
203
202
203
187
181
181
188
199
204
205
202
202
202
197
188
196
202
196
194
186
182
178
188
192
195
192
198
187
172
183
184
178
179
174
178
191
202
202
201
197
196
196
190
197
191
180
184
187
185
181
189
181
179
188
185
185
184
183
182
185
192
188
182
170
175
205
204
211
192
193
202
212
199
187
187
189
190
186
205
211
190
186
191
187
192
218
211
209
199
185
201
204
206
209
204
200
183
179
188
212
215
204
205
206
204
207
200
203
207
203
191
189
182
177
176
185
185
183
193
188
179
184
185
179
182
173
181
183
186
188
190
183
185
188
187
194
194
187
189
194
187
191
188
190
197
202
193
194
186
188
194
196
200
188
182
172
179
208
211
206
189
194
207
207
189
186
189
188
189
186
207
211
193
185
187
189
215
215
218
208
207
192
199
215
210
211
193
231
200
191
200
209
217
202
209
211
203
209
206
199
205
194
181
175
171
174
170
177
183
180
182
184
182
187
190
187
190
183
176
181
189
182
188
187
182
185
192
200
201
198
195
204
197
204
199
203
196
193
190
194
190
195
202
196
208
188
184
161
188
210
212
196
191
197
208
195
181
191
187
189
188
187
212
210
188
186
188
214
216
218
210
207
206
204
182
207
204
208
195
242
224
197
198
193
206
198
207
218
202
206
201
198
199
192
177
172
166
169
166
169
179
183
188
188
195
201
204
203
197
202
197
193
200
192
198
192
189
201
205
209
212
203
203
209
202
203
206
198
193
194
194
194
196
195
201
199
209
188
178
157
187
213
205
193
193
205
198
184
184
187
186
194
188
188
207
210
193
188
201
220
220
215
204
201
201
204
176
189
202
202
186
234
255
194
186
180
195
201
200
214
204
206
200
197
195
189
188
180
173
176
168
163
168
175
186
181
196
200
198
201
201
197
197
190
200
197
202
198
195
209
201
198
205
203
203
202
201
201
201
199
195
196
194
196
202
199
201
202
210
186
168
159
196
208
195
196
197
197
206
183
180
182
189
194
195
186
206
206
194
204
211
216
211
202
197
199
196
205
178
180
194
188
175
223
253
195
183
183
188
196
199
205
205
205
197
195
192
189
196
186
181
189
182
174
174
177
174
173
174
181
177
182
189
193
194
187
185
184
183
187
184
192
191
191
191
202
198
198
198
194
200
195
196
193
195
194
203
205
201
204
210
176
161
164
197
204
189
195
206
188
201
202
175
180
188
196
194
193
201
200
194
210
210
210
210
193
196
200
191
201
186
172
180
172
173
212
242
198
194
184
189
194
199
200
207
204
200
195
191
188
193
192
190
195
197
190
186
185
186
184
175
178
177
182
182
182
190
185
185
185
174
180
179
180
184
189
189
190
194
194
196
198
200
194
197
194
194
198
200
207
204
205
204
169
162
175
192
199
185
200
203
194
193
198
194
182
190
199
193
192
198
202
209
207
209
206
204
187
193
200
190
197
184
156
171
169
173
198
237
197
194
198
189
191
198
197
207
206
207
195
193
190
194
191
193
192
198
201
193
193
189
189
187
182
190
191
188
187
193
187
180
182
179
181
174
174
179
191
184
185
193
196
198
198
197
197
195
198
188
193
198
206
209
202
191
161
170
176
189
198
188
202
192
190
199
193
212
190
184
202
189
191
206
207
206
203
206
201
199
190
193
201
197
188
179
151
164
170
169
196
223
201
198
203
198
198
195
194
202
203
209
200
193
191
193
193
195
186
193
200
198
198
200
197
198
200
200
201
191
197
193
186
188
184
184
186
180
181
186
191
188
189
197
199
200
201
196
202
193
197
190
191
200
207
210
194
178
152
174
177
192
198
191
186
191
197
208
187
208
212
184
194
188
197
206
207
205
204
205
203
194
190
190
207
201
184
180
150
160
162
171
193
206
197
193
205
208
211
193
188
194
199
200
202
198
194
194
199
197
189
192
201
200
206
208
202
199
201
203
197
194
196
189
187
194
185
190
188
186
191
192
194
201
199
202
198
203
201
208
198
193
197
190
190
203
207
207
193
178
153
168
180
198
203
185
177
183
205
206
182
206
208
204
190
189
200
205
207
199
203
202
197
191
188
197
214
195
179
181
152
159
155
179
197
201
192
190
213
219
218
195
191
189
194
200
199
202
193
195
198
198
192
200
203
205
205
207
202
196
200
199
198
198
193
194
190
190
194
192
194
194
194
195
191
202
205
202
199
201
200
204
203
195
192
190
194
200
209
204
194
180
163
165
180
197
203
182
173
175
205
204
186
200
211
209
206
181
195
207
205
200
198
199
195
181
195
209
213
179
180
178
160
153
156
180
195
200
190
198
203
210
222
205
193
189
188
195
199
198
193
196
197
199
196
197
203
206
208
210
202
191
191
197
197
191
193
200
196
192
195
192
194
196
194
201
190
199
202
196
196
196
199
197
199
196
188
191
197
201
204
205
204
187
160
181
174
185
197
184
169
169
201
206
194
198
209
209
214
194
187
205
202
202
198
200
189
183
204
208
196
169
177
177
171
143
154
180
190
201
202
202
200
193
207
216
205
187
194
194
194
196
196
195
196
201
197
199
200
208
209
206
200
196
193
196
189
188
197
196
194
189
191
194
196
195
196
197
191
191
193
192
191
194
192
196
186
192
192
194
201
201
201
206
206
204
174
181
172
173
194
177
170
167
193
204
198
188
206
216
214
205
195
201
197
198
197
201
181
188
205
198
189
162
180
180
168
145
161
170
184
215
206
202
200
189
193
205
214
195
190
192
193
186
193
191
199
198
193
195
200
202
207
205
199
195
196
196
189
193
195
200
186
187
192
196
195
197
193
190
184
180
181
185
187
188
189
190
189
189
196
194
195
203
198
197
215
215
193
177
177
170
184
172
169
167
185
202
196
195
198
211
219
203
219
213
207
194
196
190
174
188
202
193
183
167
178
194
170
140
165
165
185
219
212
205
189
186
192
194
201
202
196
187
191
186
185
185
194
195
195
192
198
199
199
203
201
200
198
196
191
195
195
196
186
185
186
185
187
192
189
187
180
183
181
181
185
187
182
185
192
192
194
187
194
203
190
203
223
209
178
192
184
182
173
163
170
169
180
194
196
199
195
214
211
207
217
221
210
194
190
180
174
199
204
194
184
167
178
198
166
154
155
164
192
221
216
203
186
182
192
186
191
200
200
193
187
190
182
179
188
185
191
194
197
196
191
199
198
202
196
201
189
191
192
189
187
181
181
177
180
177
174
180
180
189
178
181
183
188
188
185
190
191
186
196
188
191
203
213
223
204
165
188
196
206
173
156
172
169
174
192
194
197
194
203
207
211
211
228
216
189
186
172
182
202
199
197
183
168
180
204
157
159
160
160
199
219
215
204
189
178
184
178
180
198
198
195
195
187
190
181
177
182
189
190
194
192
191
193
200
199
197
196
192
193
192
187
186
179
182
177
176
173
173
183
174
189
183
179
182
185
187
188
183
190
194
188
176
201
207
214
226
203
170
187
191
209
194
155
170
168
170
187
197
197
200
195
200
203
208
221
217
188
182
176
187
197
194
195
179
167
187
203
158
165
163
174
186
223
205
206
189
176
177
170
175
189
193
193
199
189
189
189
178
178
186
192
192
191
190
189
197
196
198
196
198
199
195
197
189
181
187
178
177
181
183
184
180
190
187
189
183
187
187
186
185
193
194
175
181
208
210
202
225
207
171
199
185
189
207
178
167
174
170
177
190
200
203
189
196
204
211
211
216
201
193
188
190
192
192
193
175
163
192
201
168
165
169
183
184
214
204
205
188
177
171
168
172
178
191
189
195
188
191
188
191
178
177
195
191
190
192
194
187
192
187
197
198
207
199
200
194
183
190
186
186
191
190
189
187
190
194
192
188
188
188
186
189
190
181
173
189
213
198
184
226
203
179
202
191
172
200
199
174
182
170
171
181
192
197
184
184
199
208
204
211
204
198
194
199
193
199
204
181
179
190
193
189
172
178
189
193
202
191
213
192
173
162
167
171
175
189
189
190
191
186
184
189
186
179
182
188
189
196
193
192
196
188
197
197
205
205
201
196
195
193
198
197
202
199
195
193
192
191
191
186
185
187
188
184
184
179
176
195
201
187
187
220
198
187
206
187
174
198
207
195
184
180
162
178
185
190
177
189
196
209
206
208
201
194
197
192
194
200
197
183
186
194
197
201
182
195
195
198
210
173
215
189
170
167
162
166
173
183
187
187
191
192
183
184
185
189
186
187
182
188
194
197
203
199
199
196
198
202
199
201
207
203
203
204
205
197
197
195
190
183
189
190
188
184
187
184
187
180
175
197
184
185
194
210
206
198
209
187
175
196
216
208
188
184
163
173
190
185
184
181
185
204
213
201
206
204
199
199
194
204
199
181
197
201
200
200
201
212
209
198
212
170
207
174
171
166
164
164
168
178
178
192
181
194
186
180
181
177
194
190
186
185
191
197
202
196
202
201
195
199
199
204
207
207
198
200
194
194
192
192
188
185
189
188
192
184
182
180
178
178
173
195
171
184
190
203
210
196
215
188
172
204
221
221
195
179
167
170
186
183
191
176
173
200
209
201
206
200
199
206
204
212
200
196
210
209
197
207
222
228
221
200
209
184
184
157
168
172
163
166
163
167
174
182
179
194
183
184
184
180
180
183
191
188
198
202
202
192
203
201
198
202
201
207
201
194
190
191
190
191
189
194
189
189
189
190
186
178
176
176
179
178
165
185
166
188
187
207
198
195
221
192
170
210
220
231
217
176
171
173
181
182
191
178
168
198
204
203
195
196
195
200
207
217
221
214
214
222
206
227
249
238
218
205
204
200
175
141
157
172
164
163
167
164
166
173
176
186
185
183
182
183
183
181
182
190
203
208
206
201
209
199
202
203
206
207
199
190
185
189
190
187
193
189
181
190
184
182
179
175
176
173
177
166
161
178
172
192
185
205
198
191
214
200
184
206
216
234
228
198
163
172
176
183
182
180
175
188
199
201
