P2
# Face with average contibution
92 112
255
138
139
139
137
138
139
142
141
141
140
139
141
143
146
146
142
148
155
159
161
162
161
163
166
169
171
177
181
181
183
183
187
182
184
188
185
186
185
183
187
188
186
185
186
185
187
186
185
185
184
182
181
187
186
179
181
179
178
178
179
176
176
174
167
166
164
158
150
154
152
156
152
148
145
145
142
139
142
141
140
142
142
139
137
138
137
138
138
137
136
138
137
137
139
139
139
141
141
142
142
142
140
139
146
145
144
146
146
157
160
162
162
164
167
170
175
177
181
182
185
185
186
189
192
190
189
193
191
191
193
189
191
191
188
192
194
195
193
194
192
193
191
189
189
192
187
186
187
185
182
185
181
181
182
180
176
172
171
168
159
158
158
154
154
149
149
148
146
141
141
144
141
143
142
142
138
138
138
137
138
137
137
138
138
139
140
139
141
141
142
141
142
140
141
142
150
149
145
154
157
163
160
162
162
168
174
179
184
184
187
182
186
188
192
191
194
194
199
198
198
200
199
197
200
198
196
197
201
203
200
199
199
198
203
200
197
197
195
195
187
191
189
192
189
188
186
185
183
180
177
172
170
165
166
158
154
151
148
150
149
147
145
142
144
143
143
143
138
140
138
138
138
138
136
139
137
139
139
140
140
141
141
140
142
141
141
143
150
155
157
160
161
163
163
164
169
175
183
188
188
186
189
189
194
193
195
197
198
202
205
204
206
205
206
209
206
206
204
205
206
205
204
206
207
207
207
205
203
201
199
196
196
197
195
196
197
193
191
189
189
189
187
179
178
175
171
166
161
159
155
151
150
151
147
144
146
144
143
142
140
143
139
138
138
139
137
138
138
139
139
139
140
141
142
142
144
140
141
148
158
162
164
162
167
166
167
168
175
184
189
187
185
187
194
196
200
198
205
210
211
213
211
214
213
215
215
216
216
217
212
209
211
212
213
212
213
212
213
210
211
210
208
205
202
204
202
204
200
202
199
196
196
194
195
188
188
184
175
168
167
161
163
159
156
153
149
148
146
146
145
140
141
141
140
139
137
140
139
138
138
139
140
139
140
140
141
142
144
145
150
163
164
165
167
169
172
172
172
178
187
187
192
186
189
194
199
203
211
215
218
220
222
224
221
222
220
225
224
223
223
225
218
217
217
219
220
217
216
217
215
217
218
213
215
216
211
212
207
211
206
207
205
203
202
196
196
194
194
191
184
177
175
172
167
166
165
161
154
151
150
146
145
143
143
142
138
138
139
138
138
138
137
140
139
139
139
140
140
142
147
153
159
168
166
166
169
172
172
176
181
187
191
193
192
191
195
202
209
217
223
227
229
230
231
231
226
227
228
230
229
228
227
227
227
222
222
222
223
223
221
219
221
224
225
217
216
220
216
215
211
216
212
212
207
209
204
200
200
194
191
196
190
188
188
180
178
173
171
166
163
157
151
150
147
145
143
147
139
138
139
138
138
139
137
139
139
140
141
139
143
149
154
156
160
167
168
170
172
175
180
183
190
190
196
198
196
199
204
214
221
226
231
233
232
237
237
234
235
235
234
234
234
233
231
232
233
226
224
227
228
227
226
226
228
229
227
221
218
224
223
219
218
214
218
215
214
214
214
208
207
198
197
195
194
189
193
191
185
179
173
169
167
166
159
154
148
146
143
145
142
139
139
141
139
138
137
137
140
141
143
145
149
153
158
157
161
169
173
174
179
183
186
192
193
196
196
201
203
206
216
223
227
228
231
234
238
239
236
235
237
238
235
238
241
240
236
238
240
236
234
236
234
230
231
232
232
232
229
224
222
225
229
229
223
219
222
221
220
222
222
219
217
211
206
202
201
196
194
195
193
182
177
173
169
167
166
162
154
150
147
148
144
142
139
142
139
139
138
139
141
145
149
150
153
155
157
161
167
173
174
179
187
191
192
197
196
198
201
203
211
221
228
232
233
232
233
236
237
237
237
237
238
241
239
237
242
239
239
238
239
240
238
237
237
233
237
238
233
236
234
230
229
226
232
234
235
227
227
227
227
228
228
226
223
220
216
211
207
204
196
196
196
195
183
177
174
170
171
167
163
156
151
147
147
142
139
142
141
140
137
140
143
150
154
157
157
158
161
168
173
175
181
188
193
194
197
199
198
197
203
211
225
230
234
236
233
236
234
238
238
241
239
240
242
245
242
240
240
240
238
238
238
239
240
237
237
237
241
239
238
238
237
231
234
229
233
235
238
233
230
231
230
232
233
230
229
224
223
218
213
207
204
197
195
196
193
182
178
173
174
173
165
164
154
149
149
144
142
142
141
138
138
144
147
152
155
161
158
164
168
174
174
182
187
193
196
199
200
198
203
209
214
225
232
232
236
237
233
235
237
239
241
242
243
240
245
243
243
243
238
242
242
237
237
243
242
242
243
240
241
240
239
236
234
234
233
234
233
233
235
236
236
236
235
231
236
234
230
230
224
225
223
213
208
202
198
197
195
191
185
179
177
174
170
166
165
157
152
148
145
144
143
140
139
148
153
154
159
161
161
167
172
176
180
187
194
196
198
200
202
204
209
219
226
231
236
238
240
241
238
242
240
242
241
242
242
241
243
243
241
243
241
246
244
242
244
244
246
245
245
244
239
240
238
236
234
235
234
233
232
235
234
234
235
240
239
234
236
235
232
230
226
228
227
221
214
206
203
198
197
194
194
186
181
179
173
173
164
162
156
150
147
147
145
144
142
151
156
156
158
164
163
170
173
180
188
195
198
197
199
202
205
211
218
229
234
237
238
241
243
243
243
241
243
243
240
241
241
242
243
244
245
242
245
247
250
250
251
247
247
247
247
246
242
241
239
243
240
240
240
235
235
235
235
235
235
235
237
238
237
236
232
233
228
228
227
224
220
214
209
201
199
197
200
199
184
184
177
174
170
165
158
154
152
147
144
147
143
151
162
157
159
164
168
171
179
185
189
199
200
199
202
205
211
213
229
237
239
239
241
242
244
240
240
241
242
243
242
243
245
245
246
250
250
248
246
247
251
250
250
252
252
251
248
248
243
241
241
242
241
241
244
239
235
235
236
235
234
236
236
236
238
236
235
234
232
229
228
227
222
221
215
207
201
199
199
202
194
186
183
174
171
166
162
156
156
150
146
147
147
155
159
162
161
163
167
175
183
185
194
198
198
199
207
214
214
223
235
238
240
240
244
244
242
242
241
240
244
243
244
244
247
250
249
251
252
250
246
245
248
251
252
253
252
251
250
250
247
245
240
240
244
242
241
237
237
231
233
233
232
233
234
236
234
236
232
231
234
229
231
228
226
225
218
212
205
203
202
198
200
188
184
177
173
170
164
158
156
155
150
147
149
157
157
161
165
162
169
178
186
191
197
196
200
205
213
220
223
232
234
241
242
242
242
243
240
245
242
240
245
245
246
245
250
252
252
252
254
253
251
250
249
252
252
252
252
251
250
250
249
248
241
244
245
240
238
232
232
231
229
232
232
232
232
234
233
234
230
231
235
232
230
231
227
228
219
215
213
205
203
199
201
194
185
180
178
173
166
164
157
155
153
148
148
158
157
162
165
168
171
183
188
195
197
197
204
212
218
224
231
236
240
242
242
243
241
243
242
245
242
243
247
247
249
248
249
251
251
255
252
252
251
250
253
252
251
250
251
250
251
248
248
248
244
243
241
239
233
233
231
232
227
233
232
229
232
232
233
234
232
231
232
231
227
227
223
226
221
220
217
210
202
203
201
198
193
185
178
175
169
165
162
154
152
151
149
158
158
164
167
172
176
184
190
197
199
202
209
216
221
230
236
241
242
243
243
239
241
245
243
245
243
244
247
250
248
248
251
250
247
250
250
247
249
248
252
252
251
250
249
251
250
249
246
250
248
245
238
237
233
235
234
232
232
233
233
232
233
234
234
232
233
229
232
230
228
225
222
222
223
224
221
219
204
200
202
201
194
187
178
176
171
167
166
159
153
149
149
157
161
168
169
174
181
185
193
198
203
208
215
222
227
232
240
243
243
241
245
242
243
246
244
245
247
247
248
246
245
245
245
245
244
243
246
246
244
244
247
249
250
248
249
250
250
246
244
245
245
242
237
236
236
237
236
234
234
234
234
236
235
231
229
229
233
226
232
227
227
224
222
223
223
225
224
221
213
203
201
201
201
190
180
176
172
165
167
161
153
155
148
159
165
170
173
176
184
188
194
200
209
212
219
226
231
235
239
247
246
244
248
242
245
247
247
247
248
248
246
245
244
241
241
243
241
241
241
241
238
242
246
247
247
246
245
248
248
243
243
242
240
240
237
235
235
235
234
231
233
232
232
232
230
230
229
230
234
230
229
229
226
225
222
223
222
223
223
221
217
208
200
199
203
199
183
179
173
166
166
164
153
155
154
161
167
172
178
179
186
191
200
206
215
220
221
229
232
239
242
246
247
246
247
244
246
247
247
247
247
247
245
243
243
240
239
239
238
240
237
237
238
238
241
242
242
243
240
242
242
238
239
238
236
236
236
232
232
231
230
229
231
231
231
228
229
229
229
229
231
233
230
227
226
225
221
219
222
222
224
222
220
211
205
198
201
205
190
181
176
171
166
166
155
155
155
161
167
174
183
180
187
197
204
207
218
223
225
231
234
241
244
245
247
247
246
245
245
247
246
245
246
244
244
241
241
242
236
235
232
232
234
236
233
231
235
236
235
237
234
235
234
234
231
230
231
231
231
232
230
229
227
228
230
227
225
225
225
221
224
226
226
228
230
227
223
223
222
217
220
220
226
225
222
217
212
201
201
203
192
183
178
175
169
165
160
156
155
161
168
180
184
182
190
201
204
208
219
223
231
236
237
242
242
245
247
247
246
245
243
243
244
243
241
238
240
236
236
236
232
231
229
226
228
231
231
228
229
228
229
229
227
225
227
227
224
224
225
226
227
226
227
226
222
221
222
222
219
216
217
216
218
220
221
226
224
226
224
222
223
219
222
221
223
224
223
218
214
210
202
203
193
185
179
179
172
168
164
158
152
162
172
187
185
183
193
199
203
213
218
223
233
235
236
242
243
245
247
247
244
243
242
241
240
238
238
232
232
229
229
228
228
224
223
221
220
221
222
221
220
221
220
219
218
216
220
220
221
219
219
220
221
222
222
221
218
215
212
213
212
209
210
209
210
216
216
221
221
223
225
222
221
221
220
221
220
219
224
217
217
212
205
206
201
186
183
181
178
169
167
157
153
166
175
189
184
182
193
198
205
214
215
224
234
234
235
241
243
243
245
247
242
240
238
236
235
234
230
228
224
220
221
218
218
217
217
216
213
213
214
215
213
213
212
212
211
212
215
215
213
215
214
216
216
217
215
215
214
210
205
209
206
204
205
204
205
207
208
214
217
218
222
221
221
221
221
220
220
221
220
219
217
214
206
205
203
188
184
187
178
173
168
163
154
173
181
188
180
185
196
201
204
213
212
227
233
232
235
244
247
245
245
241
240
236
232
231
228
228
223
221
218
213
215
213
212
212
211
211
208
209
208
209
208
207
206
204
205
206
206
209
209
211
209
210
207
207
209
209
207
205
200
202
203
202
200
200
200
202
202
207
210
213
215
218
218
220
222
220
220
219
220
219
216
212
209
204
202
193
187
188
180
174
171
168
159
175
181
186
181
186
200
202
202
211
218
228
231
230
237
245
245
244
241
238
237
234
229
228
224
220
217
214
213
210
209
210
208
209
209
208
204
207
206
203
205
203
199
199
200
203
201
203
203
205
203
203
200
198
200
199
198
199
196
197
199
197
195
196
196
198
198
201
201
204
209
214
217
219
219
224
218
219
215
218
215
215
208
207
203
197
192
187
181
172
170
169
162
178
181
186
180
185
198
201
204
212
221
229
230
234
239
243
244
239
235
233
231
230
226
223
220
215
210
207
205
208
204
205
206
206
207
206
202
203
203
201
202
201
198
196
198
198
198
197
200
199
197
197
195
192
190
193
192
191
191
192
195
193
191
190
190
191
192
195
197
198
201
208
211
218
217
220
219
218
213
215
213
214
210
207
199
202
194
188
182
173
169
170
167
178
185
180
177
186
194
200
210
211
221
228
232
232
234
239
238
234
229
228
225
222
219
214
209
205
203
200
201
203
201
202
204
202
202
201
198
197
198
197
197
198
194
194
194
193
194
192
193
192
190
190
189
187
185
185
186
186
186
187
187
186
184
185
184
185
187
189
192
193
193
202
205
212
216
216
218
219
215
214
213
214
211
206
200
199
194
190
183
174
170
170
169
174
182
179
176
187
195
203
210
212
219
228
229
228
230
235
233
227
223
218
215
213
208
202
199
196
194
197
196
198
196
195
199
198
196
194
193
193
192
193
193
192
191
190
189
190
191
187
186
186
184
185
183
184
180
178
180
180
180
182
180
179
180
181
178
179
181
183
186
187
188
193
200
206
211
212
215
216
216
214
213
213
212
208
201
199
195
191
182
176
172
169
170
174
178
181
178
188
193
202
211
214
218
227
228
227
228
233
228
221
216
211
208
203
196
192
189
187
187
187
185
186
185
188
188
189
185
185
186
187
187
185
186
187
187
187
185
188
187
183
180
180
180
179
177
178
177
174
177
177
180
179
176
174
175
174
175
175
176
176
180
181
183
185
190
197
206
209
212
214
216
213
213
214
215
209
203
199
199
189
185
176
175
173
169
175
177
183
181
190
195
200
210
214
219
224
222
225
226
225
223
215
210
206
203
196
189
185
184
181
179
175
172
173
172
173
174
177
177
178
178
178
181
180
180
180
182
183
181
183
182
176
174
173
173
171
168
171
173
174
176
175
175
175
170
166
167
166
167
169
168
170
171
175
176
177
180
186
195
203
211
211
212
211
215
214
216
210
201
202
202
192
182
178
177
177
166
173
176
182
184
190
199
198
210
214
219
220
220
222
221
219
218
210
204
199
197
189
185
184
180
176
171
165
161
162
162
160
160
164
165
167
168
169
172
173
173
172
175
176
175
174
174
171
170
169
168
165
163
163
166
165
165
164
162
161
159
157
157
157
158
160
161
161
163
169
169
171
174
177
185
193
202
210
209
211
215
214
215
210
203
202
206
194
181
177
178
177
170
170
174
183
184
193
197
196
210
216
220
219
219
220
219
220
214
209
200
196
191
184
180
175
171
167
164
163
158
159
161
158
157
158
156
157
159
158
160
165
164
165
170
171
169
171
172
170
171
169
166
162
156
156
156
154
152
151
149
148
146
144
143
143
144
147
149
149
154
158
159
163
166
168
179
184
194
203
209
211
214
217
215
211
203
204
206
194
188
178
180
179
168
173
176
185
184
197
197
198
212
218
214
214
216
218
214
217
209
201
190
187
180
174
167
162
162
159
155
157
155
157
156
155
154
149
148
148
149
146
147
148
150
152
161
163
160
163
163
160
159
157
154
155
151
149
149
149
146
142
140
138
137
136
133
137
136
136
139
142
146
150
152
155
155
159
166
177
186
195
202
207
211
214
216
216
205
204
204
195
190
180
179
182
170
179
181
189
188
199
197
200
210
217
212
209
214
214
212
209
202
194
189
181
178
169
163
162
161
154
153
153
151
151
149
148
147
145
145
142
141
143
145
145
147
150
154
153
154
160
157
153
151
153
151
149
150
143
143
140
137
132
130
130
128
128
130
133
134
132
134
137
143
148
150
150
151
156
160
171
180
192
199
206
205
211
215
217
207
202
203
196
193
183
182
182
174
184
182
188
195
197
193
201
211
215
212
209
213
213
207
206
197
191
181
181
174
169
162
161
158
156
156
155
154
152
148
149
147
143
143
145
140
145
149
150
151
149
152
152
154
156
155
151
149
152
148
145
143
140
139
143
135
129
130
130
130
129
129
132
133
136
138
140
144
149
152
152
153
162
162
169
178
189
196
200
202
211
216
214
206
206
203
200
192
187
181
184
175
184
183
184
196
195
195
200
216
216
211
207
212
213
209
203
193
183
177
177
171
166
160
156
154
151
151
154
153
154
150
152
155
151
147
145
135
139
143
143
145
146
148
150
154
155
155
152
152
151
146
143
142
145
144
141
138
135
135
135
136
132
134
139
139
142
147
150
151
151
152
157
157
161
168
171
177
181
194
197
198
211
216
214
205
203
209
205
196
187
183
184
174
183
180
182
198
189
194
204
212
216
210
206
213
215
205
199
188
177
179
174
170
167
159
154
154
149
151
149
153
148
147
149
148
148
146
147
139
134
139
143
143
142
146
150
151
155
154
154
155
153
150
146
145
144
143
140
138
136
134
137
138
143
141
152
147
148
151
153
156
155
158
162
163
163
169
172
179
178
184
196
198
209
217
212
209
204
210
207
198
192
182
181
176
182
186
185
195
186
199
202
210
214
207
207
213
216
204
196
187
181
175
169
168
169
157
156
151
151
153
155
158
154
147
153
149
146
144
146
144
133
138
144
147
151
143
152
151
156
154
157
156
155
155
152
149
149
144
139
138
140
141
142
146
144
148
153
150
147
150
154
156
157
157
160
162
164
162
169
175
177
180
189
190
201
218
212
209
209
210
206
200
196
181
178
177
179
192
193
191
186
205
202
211
209
210
209
210
215
200
198
190
178
174
168
167
168
169
166
160
159
157
160
160
156
153
156
151
147
144
144
146
139
138
142
145
150
145
153
152
160
159
161
155
156
152
151
153
148
141
138
138
142
140
143
146
144
154
155
153
147
151
154
155
155
154
159
158
163
164
170
174
180
177
185
191
195
213
204
211
209
207
204
198
195
182
178
174
186
192
200
199
197
207
202
207
204
211
209
211
208
197
194
179
171
171
166
167
170
170
167
161
154
155
157
157
156
147
147
146
146
145
141
141
140
137
141
141
145
143
154
149
155
155
149
149
147
147
143
149
148
142
139
139
139
139
140
143
140
146
153
151
147
151
155
150
149
153
161
158
162
172
175
171
179
183
184
198
199
209
204
212
209
204
200
199
192
183
180
174
189
198
202
203
207
208
206
211
204
212
211
215
203
195
188
181
176
174
170
176
179
171
167
155
153
152
149
148
147
138
135
138
138
146
144
137
137
136
142
144
146
144
155
146
151
153
152
148
144
145
146
147
149
146
142
139
140
138
140
141
142
149
150
145
139
143
138
142
149
157
163
157
160
168
166
169
181
183
186
201
204
205
209
213
209
203
203
199
193
187
177
176
185
203
206
203
207
208
214
216
205
210
209
212
205
200
188
187
177
175
174
177
175
169
161
155
155
147
142
146
144
136
140
141
141
145
146
141
139
144
156
147
151
152
156
143
152
153
157
151
146
148
150
147
150
141
145
146
145
143
146
141
143
156
151
148
134
139
135
132
138
148
159
162
160
166
163
163
180
187
193
200
206
203
202
214
213
204
203
201
194
190
173
171
182
202
205
204
208
205
216
215
213
214
203
207
208
201
189
181
175
177
180
177
172
162
155
158
159
150
146
155
149
137
141
146
144
147
148
146
148
149
161
149
149
153
145
141
146
152
154
148
147
147
145
148
147
144
147
155
152
147
143
144
151
154
146
153
141
140
139
134
141
142
149
153
156
162
163
170
183
190
199
198
204
201
202
207
217
208
204
202
193
193
175
171
187
199
204
200
208
206
215
210
215
219
208
216
209
205
194
180
177
181
181
173
164
159
156
163
169
160
148
155
155
146
149
155
150
148
152
148
152
151
157
160
157
156
146
147
151
161
160
155
155
158
153
150
149
151
150
156
152
149
150
149
151
152
148
146
145
145
142
141
147
154
146
148
155
161
163
173
183
191
198
197
196
202
203
205
216
209
205
202
194
195
175
172
186
200
206
199
204
207
217
211
218
223
220
227
209
203
193
188
180
184
179
171
164
168
163
165
167
158
151
157
159
158
156
159
156
156
151
155
153
155
155
159
162
158
147
149
161
166
162
157
160
165
160
157
150
155
157
162
160
161
161
160
159
159
161
157
152
151
150
148
152
157
149
148
153
162
164
172
182
185
199
203
198
197
206
206
212
210
206
201
192
196
181
169
182
201
203
205
205
208
216
221
223
226
223
225
207
206
197
187
181
188
182
176
178
179
178
170
163
164
161
163
165
162
166
163
162
157
149
156
151
156
160
160
158
159
150
151
162
165
167
155
161
163
167
162
150
158
159
169
163
164
167
168
169
166
166
165
165
163
156
157
159
159
167
163
165
168
165
170
181
185
202
209
203
190
203
206
207
207
206
200
191
191
186
170
177
195
201
207
210
202
213
214
224
221
217
218
203
212
201
185
182
187
194
187
188
189
185
179
175
175
170
172
168
166
175
170
169
160
157
164
163
158
166
168
164
161
160
169
165
162
166
156
159
161
168
171
160
155
165
173
172
170
172
165
168
165
165
170
174
171
165
163
168
165
176
172
176
178
172
176
181
190
202
214
203
187
201
200
205
204
205
196
191
191
185
172
174
192
200
209
211
206
214
210
223
217
212
207
205
217
202
182
186
196
198
196
194
195
192
189
186
184
182
182
179
176
177
177
172
171
173
175
176
177
175
173
169
164
166
179
175
162
170
165
169
166
168
176
171
154
165
177
175
172
171
169
172
172
176
176
183
179
182
174
177
177
185
182
183
189
183
187
183
196
201
214
209
188
203
197
203
208
205
195
189
194
185
174
179
192
198
210
211
209
218
211
220
218
212
201
204
212
199
184
193
200
195
191
191
187
186
185
187
190
195
192
190
187
188
188
185
185
184
185
181
185
185
182
174
166
179
184
183
172
171
173
178
174
175
180
174
160
165
174
176
173
172
175
174
170
172
175
184
188
192
192
191
188
190
190
191
191
188
190
189
196
206
213
212
197
201
198
201
207
208
192
183
192
183
178
179
190
192
206
208
207
220
212
215
214
212
202
206
210
203
199
202
207
206
200
199
197
192
195
193
197
199
197
197
195
195
195
190
194
194
190
190
191
189
183
182
169
185
187
183
181
169
172
174
173
176
181
178
165
170
181
184
182
188
187
192
183
187
192
195
188
193
193
195
199
197
195
195
190
188
188
188
192
202
214
205
201
203
205
204
205
206
184
183
190
182
174
179
187
192
203
209
204
218
212
213
214
211
208
214
218
207
206
205
207
209
203
203
205
203
205
202
208
205
203
205
206
200
198
199
197
198
193
195
196
191
183
181
174
187
189
185
181
175
164
172
173
178
183
182
175
176
182
189
193
197
197
200
194
199
202
202
197
198
196
197
201
197
196
196
191
194
189
189
189
199
206
192
208
205
206
208
207
204
182
186
187
175
168
179
190
195
201
213
206
212
213
209
214
211
212
225
220
207
202
207
207
209
206
205
208
200
201
201
208
210
211
208
210
207
194
202
202
199
198
198
204
192
188
177
183
193
194
188
185
177
169
164
171
172
176
181
185
184
180
187
198
199
200
203
199
203
204
204
203
204
199
200
196
196
195
193
194
198
198
185
189
204
198
189
210
205
210
209
206
200
182
189
184
174
167
184
195
193
199
213
215
209
212
204
206
208
215
227
215
203
197
206
204
208
206
205
207
207
207
209
212
211
214
212
213
203
203
203
204
205
205
205
201
197
190
179
194
200
194
192
190
180
179
171
168
167
174
178
185
191
186
183
195
201
201
205
205
202
203
201
202
201
203
198
193
194
193
189
192
196
201
193
191
208
187
197
203
201
213
213
206
200
186
188
175
174
167
185
199
191
198
216
219
217
203
201
206
200
211
219
213
197
186
202
201
206
203
203
205
204
204
209
208
212
213
215
208
201
203
200
201
202
211
208
201
202
184
187
202
195
188
195
192
183
183
175
173
166
173
178
183
187
194
185
187
195
198
200
206
201
201
200
203
200
195
195
193
194
184
183
187
190
198
201
196
196
192
202
197
198
213
212
209
195
192
188
168
173
167
182
200
195
197
214
220
215
202
192
210
197
197
210
207
201
186
196
201
203
202
204
207
203
204
203
203
208
205
204
203
201
206
202
205
210
207
205
206
194
187
190
200
188
190
193
191
182
181
178
179
175
167
173
177
183
189
192
184
186
190
197
198
201
202
201
202
196
195
192
190
189
184
184
186
188
193
193
190
192
199
196
194
194
210
210
200
191
185
188
165
173
169
182
196
196
194
208
217
213
204
205
202
194
196
201
205
200
193
198
199
200
202
205
207
205
207
202
198
201
201
203
199
201
204
201
199
204
212
210
206
191
191
195
193
188
188
189
188
180
176
176
177
173
167
172
171
177
184
190
198
191
184
187
192
192
193
196
194
191
191
191
187
187
180
186
182
179
186
184
194
198
196
191
191
189
203
202
190
187
182
178
165
172
168
183
192
194
190
197
212
212
207
205
201
190
194
202
198
200
192
199
197
198
201
197
197
195
199
198
193
193
193
193
198
194
195
195
193
198
201
196
188
183
188
187
184
187
184
180
182
176
171
170
171
172
164
160
164
166
176
184
190
191
183
178
180
182
183
183
182
184
186
182
184
185
181
183
181
182
184
180
189
198
196
188
188
190
194
198
186
195
186
174
164
171
167
181
189
189
189
192
210
209
208
204
205
191
191
203
204
201
187
191
194
186
194
191
187
190
195
195
197
190
194
201
196
193
194
191
188
185
183
185
182
186
187
181
178
179
174
172
173
170
164
165
164
164
156
155
156
157
164
174
180
184
189
186
179
182
184
182
180
180
183
184
185
183
183
182
179
181
183
181
188
195
190
189
183
185
188
196
183
191
185
171
170
169
161
176
188
186
185
193
201
205
211
202
207
197
188
198
204
201
198
192
200
197
189
183
179
183
188
186
188
184
182
194
189
179
183
184
174
175
180
180
183
186
180
177
173
169
170
169
171
170
164
160
159
154
156
155
155
154
152
162
166
171
181
187
173
165
179
182
181
177
184
188
189
185
181
180
177
177
179
182
186
188
188
184
176
177
187
190
183
183
174
177
169
169
164
175
185
180
182
189
189
201
207
200
204
200
190
194
198
194
199
195
194
196
188
182
175
173
175
176
174
176
176
181
182
176
170
173
176
176
175
177
185
184
179
174
166
168
170
168
170
170
168
160
156
154
153
156
152
152
150
151
159
170
175
181
176
173
176
178
178
174
178
181
184
184
178
176
174
175
174
182
181
181
188
184
173
170
188
185
181
169
167
177
169
169
165
170
183
176
172
187
181
199
207
198
200
198
187
191
199
192
190
198
195
191
183
178
171
166
170
172
172
170
175
175
171
171
167
167
174
177
175
172
182
181
177
168
161
158
164
164
167
167
167
163
154
151
152
155
149
145
150
151
153
166
176
176
171
172
173
176
173
170
170
174
177
181
176
175
173
175
175
180
175
175
186
180
173
172
183
188
175
160
166
178
166
166
162
172
180
178
163
183
180
197
207
199
196
194
184
184
195
195
190
188
190
190
183
178
173
166
166
168
169
165
167
170
167
167
169
168
171
171
174
169
175
174
170
160
153
150
156
166
166
163
163
162
154
150
150
149
145
146
146
154
154
156
171
176
167
172
172
170
169
171
172
172
175
178
170
172
171
171
172
173
170
175
183
174
171
180
184
185
168
160
167
176
162
168
160
173
180
186
164
172
182
188
203
200
195
195
185
180
190
192
190
188
187
185
182
180
178
175
169
167
168
165
164
165
162
167
170
175
179
175
176
168
166
167
159
148
145
150
158
165
169
164
160
158
154
151
145
142
134
135
145
149
155
151
159
166
161
171
171
171
169
171
173
172
171
173
167
168
170
170
171
170
172
173
178
165
171
182
184
179
162
158
169
173
163
168
160
171
177
186
175
163
173
184
198
197
193
195
186
179
187
189
187
185
186
184
182
177
176
176
173
169
170
167
167
164
165
168
165
175
175
172
169
165
164
159
154
147
143
153
161
164
164
157
153
151
153
148
139
133
130
127
138
149
150
147
154
154
155
167
168
170
169
170
170
169
168
169
167
169
173
171
167
169
170
170
171
162
167
181
183
180
159
152
170
172
164
167
159
170
172
184
179
169
163
178
194
190
189
194
188
182
185
188
186
182
182
181
180
177
176
174
171
166
163
162
163
162
166
166
164
172
170
169
168
165
166
162
157
152
153
157
163
163
162
153
152
149
152
148
141
137
136
135
147
148
148
147
152
154
154
160
163
164
165
166
167
166
167
165
164
164
163
166
169
165
166
169
166
157
168
179
185
181
160
154
169
166
171
162
159
166
169
183
180
174
164
164
186
184
183
187
187
184
185
186
185
182
183
180
179
177
176
173
169
164
159
161
162
159
162
163
165
168
170
169
168
168
170
169
168
160
159
160
162
160
157
153
155
154
151
149
148
143
144
145
147
151
153
154
157
155
155
158
161
162
164
166
164
163
162
159
157
158
157
161
170
167
162
167
158
161
167
177
186
178
163
159
171
165
172
158
161
162
168
176
181
179
168
161
173
177
174
184
182
182
182
185
184
183
183
182
178
177
174
171
165
165
164
161
155
158
162
160
166
167
170
171
168
169
168
173
171
165
159
162
155
157
154
152
154
157
150
150
149
146
142
143
143
147
151
152
160
161
156
157
160
159
158
156
157
153
154
151
152
157
155
158
166
166
159
169
157
162
163
176
182
172
164
163
170
165
171
156
162
165
164
175
174
180
174
164
169
173
171
179
179
178
179
184
183
182
180
180
177
177
174
168
171
167
162
160
155
155
158
161
167
167
170
172
171
165
168
169
172
168
162
158
158
160
157
157
157
158
154
151
146
147
142
136
142
146
151
152
159
162
160
158
159
162
161
156
156
151
152
150
151
155
158
160
163
165
162
166
151
160
165
175
176
165
164
168
169
168
165
157
163
169
165
170
172
178
177
168
170
173
170
182
180
176
180
183
183
181
181
183
179
178
171
171
172
164
161
161
156
157
158
162
164
165
165
169
167
163
162
160
159
164
161
160
164
165
160
159
162
159
156
156
143
143
142
135
141
141
146
149
154
156
158
160
158
163
162
154
153
152
152
150
153
155
158
161
163
162
164
163
154
157
165
171
166
160
161
174
169
165
162
160
161
171
166
167
167
176
181
172
172
173
168
180
181
176
181
181
180
179
180
185
182
179
173
177
171
162
162
158
157
159
157
159
162
162
164
157
154
155
154
152
150
157
156
161
162
164
161
157
162
162
159
160
150
149
147
140
139
140
142
146
152
155
158
158
158
157
160
155
152
154
152
149
154
155
157
161
162
162
163
163
155
155
160
164
161
153
163
176
164
164
160
160
158
173
168
166
168
177
182
180
176
175
171
177
179
179
181
181
182
180
182
186
183
178
172
175
170
162
161
159
156
158
157
156
156
157
159
151
148
149
148
149
150
153
153
157
160
160
157
155
161
164
159
157
152
149
146
142
139
140
142
144
147
151
155
157
151
156
157
157
152
156
154
150
152
157
158
159
160
160
162
161
155
155
156
159
157
159
167
171
161
168
162
158
156
173
169
165
165
175
181
181
181
177
178
172
174
183
180
180
182
180
181
186
182
177
171
173
170
162
158
158
155
158
155
152
154
154
152
147
146
149
149
151
154
155
155
157
159
158
156
158
161
164
156
148
147
143
142
139
138
139
142
146
149
149
153
153
151
152
159
157
155
154
153
153
152
157
159
157
159
157
160
156
157
155
155
158
155
159
166
166
161
167
164
157
155
173
171
166
166
171
179
180
181
182
180
175
175
182
174
181
184
178
179
183
180
177
171
173
165
159
156
156
156
157
155
151
153
154
153
150
146
151
153
159
158
157
157
158
158
156
157
159
159
163
157
148
148
145
141
141
136
139
141
148
149
150
154
153
152
150
159
158
159
154
152
153
154
156
157
157
157
158
158
154
158
153
154
158
153
159
169
162
166
165
161
156
156
169
170
166
164
170
174
179
183
180
181
180
175
179
175
176
184
177
176
180
176
176
168
169
166
161
155
156
156
157
160
160
159
160
158
162
159
162
162
161
157
157
154
150
156
150
154
155
157
157
157
153
152
149
147
144
139
138
140
142
150
152
155
152
157
153
158
156
158
155
152
155
154
155
158
156
155
159
156
156
160
153
157
158
156
165
172
166
168
164
157
158
156
169
170
167
165
169
171
175
184
182
180
184
175
180
176
177
179
180
174
176
174
172
167
168
166
164
157
157
156
160
159
165
164
162
167
170
166
166
167
166
159
155
152
149
153
153
155
157
158
155
160
156
152
153
149
144
142
139
140
139
149
154
154
156
158
158
157
158
153
155
154
156
154
156
159
156
156
161
159
160
164
158
159
161
164
173
172
169
169
162
154
158
155
166
170
172
164
164
174
173
180
183
181
182
179
180
176
175
176
178
171
174
170
168
168
168
166
162
158
155
158
159
158
161
163
163
170
171
168
163
163
163
157
156
153
147
150
157
152
153
153
153
156
155
151
155
151
146
145
140
140
142
146
150
155
157
159
159
157
160
153
154
151
156
153
157
158
158
161
160
160
160
164
160
159
160
168
172
170
172
169
158
153
157
155
164
171
172
168
164
171
174
177
178
181
181
183
178
177
175
175
177
173
171
169
164
167
167
168
158
156
155
158
160
157
159
161
164
165
163
164
163
161
162
155
153
146
147
149
156
154
152
153
157
158
157
153
154
155
152
152
150
148
147
151
153
159
160
160
162
158
161
155
155
151
156
154
159
161
159
163
160
159
160
161
158
157
161
170
171
171
171
165
158
155
155
153
168
169
170
174
167
169
175
176
176
176
182
183
176
176
173
175
176
171
168
168
163
167
165
165
156
156
154
159
158
156
157
157
157
157
156
154
155
156
158
158
156
152
153
156
164
165
161
159
165
164
165
163
163
168
163
163
162
157
151
155
154
158
161
159
162
159
158
157
153
152
154
155
162
159
164
161
159
157
160
161
156
162
166
173
173
173
169
160
158
157
155
154
168
170
171
171
168
171
171
174
179
174
180
181
177
174
172
175
173
171
166
165
163
163
162
159
156
156
153
161
158
159
159
161
156
157
161
164
166
168
166
167
164
162
163
164
167
171
171
166
168
168
168
168
169
169
164
162
166
160
157
163
156
153
154
156
158
162
160
158
155
152
155
158
162
162
163
160
158
156
162
164
163
170
173
174
175
171
167
160
156
158
156
153
170
169
173
170
169
172
172
169
179
174
178
182
179
171
170
176
172
170
165
163
162
160
161
159
156
154
157
161
161
164
162
161
164
167
172
174
178
176
170
169
163
159
160
159
161
162
163
162
165
168
169
170
169
165
160
159
163
161
157
163
158
153
152
155
154
160
160
157
155
156
155
157
161
165
164
161
160
160
165
169
170
170
176
174
171
168
165
159
156
158
156
154
170
168
171
171
170
171
176
167
175
176
176
181
182
175
172
178
175
175
167
160
160
163
165
165
161
157
158
161
161
166
165
162
160
171
175
175
177
173
164
164
157
155
154
153
150
153
153
156
163
165
164
168
161
160
158
162
166
164
161
163
162
158
161
157
157
159
157
156
153
158
157
158
161
166
163
162
162
162
164
173
173
171
174
171
170
166
164
157
159
159
156
155
168
170
171
172
171
169
175
170
170
176
174
179
181
181
175
179
179
179
171
160
159
164
165
164
163
161
162
161
163
163
166
166
165
167
169
174
176
173
166
168
164
164
164
155
152
154
155
155
159
162
159
163
159
161
165
167
170
169
162
166
166
165
166
162
157
158
155
156
151
156
157
158
164
166
163
162
161
162
162
176
174
171
173
169
170
165
161
158
159
160
156
154
168
168
171
171
173
171
174
171
171
171
174
177
182
180
175
177
181
182
170
165
163
166
165
164
167
164
168
162
165
165
168
168
175
172
169
171
175
174
173
176
173
175
177
169
170
165
163
161
163
163
160
162
165
168
172
170
169
171
170
168
167
166
163
165
162
158
158
156
154
155
161
162
166
165
161
161
162
161
165
177
173
173
170
167
170
164
160
158
160
158
156
154
169
167
169
172
174
172
178
179
168
169
173
176
180
178
175
175
180
183
175
170
169
168
170
169
171
169
173
172
169
169
173
173
178
176
173
175
179
178
178
179
178
177
179
174
174
171
170
167
169
167
166
166
166
169
165
162
164
165
167
163
161
164
158
162
159
162
160
159
157
160
165
166
170
165
162
163
166
159
169
177
173
172
170
167
168
164
159
158
161
158
157
155
167
169
168
171
174
171
184
181
166
168
171
174
176
178
175
175
178
178
177
169
175
171
171
168
175
169
178
177
171
174
176
177
177
174
175
177
180
176
176
175
174
175
178
179
175
169
170
170
169
169
165
165
161
160
158
158
155
156
161
161
161
162
161
160
158
163
161
163
160
162
166
168
168
165
165
166
165
162
172
175
173
172
171
169
167
160
158
159
160
159
155
155
169
170
172
172
175
177
185
182
169
165
167
172
173
175
174
175
177
176
179
169
173
171
169
164
172
168
177
173
171
171
175
174
174
173
171
175
178
176
174
175
170
171
173
176
175
172
169
165
167
164
162
163
158
157
157
157
154
153
155
156
164
164
160
162
161
161
164
163
163
164
166
167
169
166
165
169
164
166
177
175
177
172
171
173
165
162
161
163
161
161
156
156
171
175
175
174
180
184
183
180
174
161
166
171
173
172
174
174
178
179
178
175
171
170
168
166
168
165
173
172
170
172
171
170
174
171
168
169
170
169
173
176
173
173
171
170
170
173
165
164
161
159
157
158
154
150
153
152
155
156
156
161
163
160
163
164
160
161
165
162
160
164
169
166
166
168
167
168
166
173
179
175
177
174
172
171
166
166
165
165
164
165
161
157
172
174
173
174
183
183
180
178
176
161
163
169
169
167
170
174
180
182
179
180
168
168
170
165
167
162
170
173
167
167
165
165
167
170
167
167
167
164
165
170
168
168
164
163
164
161
159
160
155
158
153
154
155
152
152
152
154
156
158
160
164
160
163
165
161
160
162
160
162
162
168
166
166
167
167
175
168
175
180
178
176
175
174
168
166
167
166
164
166
165
160
157
172
173
171
177
183
181
180
177
178
164
159
168
164
166
168
176
178
185
178
176
164
165
167
165
166
163
168
167
165
163
160
163
166
165
165
165
163
165
161
162
163
165
162
161
160
159
158
158
155
154
154
155
156
154
152
153
157
158
164
163
166
163
162
163
161
159
158
158
161
164
165
165
168
167
164
175
175
178
181
178
176
176
173
166
166
166
166
164
165
166
159
157
171
173
176
179
181
179
178
178
174
167
160
166
166
164
169
177
175
182
175
173
164
161
167
166
170
166
171
170
165
166
163
163
169
166
164
166
165
166
162
164
161
160
158
157
157
159
157
160
157
155
153
153
156
152
150
154
160
162
165
165
162
163
161
158
161
159
159
159
161
166
164
166
171
165
169
174
176
186
183
177
176
174
173
167
165
167
166
165
166
166
159
158
170
175
178
178
178
175
175
176
174
169
163
167
165
166
167
169
174
177
174
173
166
161
164
166
173
170
168
169
168
169
167
168
171
168
169
166
168
169
168
168
165
163
160
158
156
159
158
161
156
154
153
154
153
156
154
159
164
164
167
164
163
165
160
158
160
159
157
160
161
167
166
167
171
166
172
172
179
189
187
177
177
172
170
170
166
165
166
166
165
164
161
160
170
176
177
177
175
173
174
176
173
170
168
165
166
167
165
166
173
174
172
175
172
163
164
166
167
168
164
167
164
168
167
166
172
171
170
170
168
170
171
170
169
167
164
162
166
166
167
168
165
164
165
161
159
166
161
162
166
161
163
161
165
165
160
161
158
158
155
160
162
165
166
168
176
168
168
172
181
184
187
184
175
171
169
172
168
164
165
165
166
165
163
162
175
174
179
176
175
172
175
177
173
170
168
163
174
172
159
165
174
176
173
174
176
166
163
164
166
167
165
167
168
165
162
164
165
171
168
166
167
167
172
168
169
168
165
167
169
170
169
175
168
173
169
166
165
167
165
162
163
159
159
160
161
164
159
159
162
156
156
160
164
166
165
167
177
172
169
169
177
182
184
188
172
170
172
169
170
167
164
165
167
166
162
162
173
175
177
177
176
174
176
177
171
165
165
175
175
168
165
162
171
177
176
172
179
169
165
161
165
166
165
167
168
164
164
164
158
168
166
159
162
161
164
166
166
166
166
168
168
169
168
172
166
170
164
167
167
163
163
161
161
157
158
161
158
162
160
159
161
157
155
162
166
168
168
168
175
174
171
172
173
176
179
182
175
170
171
169
170
170
166
166
167
167
163
163
172
175
175
176
175
174
177
174
170
159
170
179
174
170
167
164
168
177
176
173
173
170
167
160
164
164
163
165
168
166
165
162
159
163
164
162
163
159
159
158
161
159
160
162
161
161
162
166
161
167
161
165
162
160
161
161
159
161
159
161
159
163
161
160
159
154
157
163
167
168
171
168
176
175
172
172
174
175
175
170
175
173
174
167
169
173
171
166
168
167
164
161
172
173
175
174
175
176
172
169
166
167
176
175
181
171
168
168
167
177
175
168
173
169
169
163
162
162
162
162
163
167
165
159
158
161
162
161
163
160
158
157
158
155
155
157
154
156
157
158
161
164
160
162
157
160
160
161
158
159
162
160
160
160
158
157
158
155
158
160
167
167
170
170
178
175
174
166
176
177
173
163
166
171
176
170
167
171
173
169
169
169
164
163
171
171
174
174
175
174
168
169
171
176
178
178
181
171
166
171
174
173
170
165
175
171
173
163
160
159
164
162
161
165
165
160
160
159
161
159
158
157
155
156
158
155
152
156
154
154
153
153
157
158
154
156
156
157
156
156
153
156
157
157
160
155
156
156
153
156
158
160
170
167
166
176
179
175
174
163
166
184
172
161
162
169
174
167
166
173
178
176
177
173
169
171
170
171
174
175
176
174
166
170
177
172
177
187
182
169
165
177
178
173
166
165
176
174
172
166
161
160
162
163
161
164
164
166
161
160
160
157
157
154
155
156
158
152
151
156
153
149
150
150
152
150
151
150
152
153
153
152
149
153
155
153
159
155
151
154
152
155
157
161
169
168
168
182
180
175
172
164
160
175
172
165
160
162
175
167
168
174
175
173
178
173
170
170
170
171
172
177
176
171
165
180
179
168
180
193
184
159
166
180
180
170
166
167
171
174
174
169
161
160
161
163
163
163
163
165
162
159
161
158
157
156
155
153
156
150
146
152
151
147
147
148
149
148
147
147
150
150
150
148
152
153
152
154
158
155
150
151
155
154
158
165
168
171
174
181
183
175
172
165
162
167
167
166
159
159
172
170
167
173
176
175
174
175
170
169
173
173
177
179
173
172
170
183
173
167
181
193
181
159
164
181
178
172
171
167
169
173
173
173
166
164
159
160
161
159
164
162
162
159
160
160
160
161
154
158
155
151
146
149
149
147
146
146
148
147
143
145
148
148
148
146
153
152
153
154
154
150
153
152
154
156
161
167
169
174
174
183
185
180
166
165
161
164
164
164
162
161
167
171
165
168
172
178
176
177
173
175
176
175
181
175
167
169
171
181
167
169
181
190
172
167
164
179
182
170
171
169
168
171
174
173
170
168
161
162
158
158
161
163
162
159
157
157
165
162
158
158
156
155
150
152
151
149
149
146
148
149
145
144
150
149
147
150
153
152
153
152
152
148
154
156
154
163
163
166
174
175
176
186
184
185
165
159
162
162
162
167
165
162
168
172
169
166
171
176
178
173
175
177
175
176
176
168
163
166
177
177
165
168
183
186
171
168
167
186
183
163
168
171
168
169
174
175
170
166
171
162
158
158
157
162
163
158
159
158
165
161
159
156
157
156
155
153
152
153
147
149
149
150
150
150
148
149
150
153
151
154
151
151
153
152
154
160
159
163
164
168
172
175
177
184
179
187
164
155
159
163
159
170
169
166
169
173
171
166
170
177
179
176
174
178
174
176
178
171
166
170
178
177
164
169
183
178
172
165
171
194
181
164
165
172
171
171
173
175
170
169
173
163
161
158
157
157
163
162
160
162
162
158
157
155
157
154
158
152
153
155
149
148
151
153
153
152
151
150
154
154
153
155
150
154
156
158
157
166
165
163
164
170
173
175
181
179
179
182
162
152
155
162
163
171
171
170
172
174
175
170
170
175
181
176
175
178
176
177
178
169
165
174
178
170
161
172
182
171
171
168
170
194
179
169
162
171
171
178
173
177
171
171
168
166
165
160
161
158
161
161
161
164
161
158
157
155
157
158
157
156
155
154
153
151
153
154
154
153
153
151
156
155
156
153
154
157
158
161
163
168
165
165
166
173
175
176
184
175
182
179
164
151
151
157
167
177
173
171
173
173
174
174
175
181
187
184
177
178
172
174
174
162
169
172
171
161
162
172
180
165
172
170
169
188
180
174
164
166
172
180
176
176
173
172
166
166
167
163
165
162
161
161
163
166
162
159
162
160
156
160
157
159
158
159
154
156
154
152
155
155
152
154
155
154
153
155
158
158
162
165
166
169
166
164
169
169
173
177
183
175
181
174
163
150
146
150
166
177
176
171
175
173
176
177
174
177
184
180
184
176
173
175
169
164
166
170
165
160
164
167
174
165
173
167
165
181
177
176
169
164
171
178
174
179
176
171
170
168
167
163
167
163
165
163
166
162
163
162
163
164
160
160
159
160
163
162
160
163
155
156
157
156
156
156
154
154
156
160
162
161
169
168
169
167
165
165
170
169
167
180
181
175
176
167
159
150
143
148
163
170
180
175
177
174
177
177
173
179
180
180
179
180
169
167
161
163
166
168
157
157
164
166
170
172
169
159
160
178
176
178
172
163
169
178
174
181
178
174
175
168
170
163
166
165
166
164
164
164
165
164
161
164
159
164
163
161
165
163
162
164
160
159
162
159
161
159
157
157
163
167
167
166
169
167
173
165
164
167
171
169
166
179
181
174
171
162
157
151
142
146
159
169
175
176
181
171
177
177
172
182
179
178
177
178
159
163
160
161
161
162
151
156
168
168
172
174
165
155
157
175
174
181
170
166
168
171
178
183
180
179
178
173
176
166
167
167
166
166
164
164
165
164
162
163
162
165
162
164
163
162
163
162
164
162
163
162
163
164
162
164
168
169
170
165
168
166
169
165
165
167
172
169
173
176
178
170
171
159
157
150
146
150
152
166
175
170
180
174
176
178
172
176
180
181
177
176
159
164
157
161
160
162
146
152
172
170
174
170
159
158
157
171
170
183
172
163
172
168
171
182
185
184
181
178
177
171
167
173
167
165
163
163
167
165
165
166
164
163
162
165
159
160
159
160
161
161
159
163
163
165
163
166
167
168
170
166
167
168
172
166
164
164
172
174
175
170
172
166
168
156
157
151
148
155
154
160
173
167
177
177
171
178
175
170
180
178
181
180
