P2
# Face with average contibution
92 112
255
204
204
206
202
204
205
205
207
205
206
206
206
208
211
216
214
211
211
213
212
211
213
215
213
218
224
229
229
231
231
236
237
235
230
236
239
240
236
233
240
236
242
247
242
241
238
242
241
236
235
243
241
238
239
241
239
238
239
237
235
239
234
233
227
229
232
229
226
226
223
221
222
224
222
217
217
217
214
216
215
220
218
216
210
208
207
208
210
205
208
208
207
205
205
204
205
206
206
207
206
206
205
207
207
208
209
213
212
214
217
215
218
217
222
224
224
230
230
234
236
238
238
239
241
241
236
239
239
240
234
235
236
236
238
245
242
245
239
238
241
243
239
242
244
236
242
245
245
244
243
241
240
241
239
240
231
231
230
230
226
225
225
223
222
219
220
214
218
218
216
219
217
219
219
215
213
211
209
209
209
207
207
208
208
206
204
205
207
206
207
205
206
206
205
210
208
209
215
215
215
215
220
219
224
226
228
232
231
231
231
237
239
245
244
242
240
240
239
237
236
236
235
231
236
235
235
241
240
242
242
240
239
243
242
245
239
237
243
243
243
245
248
245
242
239
241
240
236
236
232
235
230
228
227
222
225
219
218
213
217
221
219
222
217
216
218
216
213
211
210
208
209
208
206
208
208
203
204
205
204
204
207
205
207
207
209
212
210
215
218
220
219
218
224
228
228
229
231
234
232
235
240
243
244
245
242
241
240
240
234
237
231
234
237
232
236
238
237
238
242
241
241
240
237
239
242
245
242
242
244
239
244
244
244
245
245
243
241
239
236
236
236
233
237
234
233
224
224
222
219
217
215
218
220
223
217
218
217
215
214
213
211
209
208
210
207
208
208
203
203
203
204
205
205
206
206
211
212
216
216
217
217
220
222
224
227
232
230
227
229
235
236
238
242
245
246
244
239
238
233
233
231
228
230
230
230
230
231
236
235
235
237
237
237
236
233
235
236
237
239
244
244
240
238
239
240
242
240
242
245
243
238
238
234
238
233
238
231
230
226
224
222
219
219
217
219
221
217
217
217
214
214
213
212
211
208
209
209
207
207
204
204
203
203
204
204
203
208
208
214
214
214
215
219
223
227
226
234
234
233
231
229
236
237
239
244
241
243
236
231
233
231
228
229
226
226
221
229
226
230
235
233
229
229
233
235
231
230
232
232
235
233
234
238
238
233
234
235
235
236
235
237
242
241
238
233
236
235
231
233
233
234
230
224
223
222
220
220
219
219
215
219
215
214
214
211
211
209
208
208
207
207
204
204
200
203
203
202
203
206
210
217
212
216
220
224
226
226
230
231
235
235
238
238
239
237
241
236
233
231
230
229
226
222
220
219
219
220
218
220
222
224
230
229
226
222
226
230
230
227
227
227
225
226
229
231
230
232
230
227
229
233
230
229
228
235
236
231
235
234
233
232
236
234
236
232
228
229
226
223
220
220
218
215
214
212
215
212
211
211
207
209
208
208
203
202
205
202
203
199
204
207
213
216
214
219
226
226
229
227
228
231
234
240
244
241
242
242
236
228
228
228
225
225
222
216
216
216
217
214
216
216
221
223
226
227
227
224
224
225
223
223
224
223
222
227
229
228
229
228
230
226
225
229
227
227
232
229
235
232
231
233
234
232
236
236
234
234
233
232
230
224
219
216
220
217
211
213
212
213
211
214
209
208
209
207
201
201
205
205
203
202
208
212
213
219
222
224
227
229
228
225
228
233
236
243
244
245
243
235
225
222
221
223
223
219
214
211
212
213
209
210
212
215
217
220
218
222
221
224
223
222
218
216
219
221
222
225
225
228
226
227
226
223
226
226
225
226
227
229
232
232
233
237
233
235
234
234
232
231
228
230
228
229
225
216
213
219
215
217
214
213
214
217
212
209
206
207
202
202
205
205
203
204
211
215
225
226
231
230
230
229
229
230
236
241
245
248
249
248
237
231
225
220
219
220
217
211
211
211
212
209
208
209
214
213
213
217
217
218
212
216
217
219
221
215
218
219
221
222
219
222
227
227
228
221
220
224
226
224
225
226
230
232
231
235
237
234
235
235
231
228
225
227
231
229
228
223
214
217
219
220
218
217
213
212
212
209
208
204
201
202
202
206
204
207
213
219
227
231
232
234
232
230
231
235
246
248
246
249
246
238
233
232
229
226
224
219
211
210
212
208
208
208
208
212
212
211
210
213
216
222
216
217
216
219
221
220
218
220
219
220
217
216
221
225
227
225
223
221
225
221
224
221
225
230
232
232
236
237
235
232
234
230
228
225
228
230
229
224
221
219
217
216
220
218
215
211
212
210
207
204
198
200
202
204
202
213
217
224
231
235
236
237
232
235
236
242
242
244
241
238
232
232
231
230
226
228
223
216
210
208
206
205
203
205
204
207
210
210
208
212
217
222
223
221
216
219
218
222
220
217
217
217
218
219
222
226
227
229
225
223
224
222
223
224
224
224
231
228
235
236
240
233
233
233
227
227
223
227
233
227
224
223
219
214
227
224
215
214
213
212
208
205
196
201
205
206
205
215
224
231
234
239
239
237
236
238
240
246
244
242
240
234
233
233
232
230
229
229
222
215
211
205
200
202
202
202
202
203
205
208
208
213
217
217
220
220
221
220
219
221
222
214
214
217
221
222
219
223
226
224
223
225
224
225
224
223
223
222
227
228
229
233
235
240
235
230
228
227
222
221
229
230
229
225
224
215
218
225
221
216
214
212
212
207
197
202
208
205
208
223
227
232
235
236
234
234
233
240
238
239
241
237
233
234
235
234
233
229
230
223
218
215
208
204
203
201
204
205
203
204
206
209
212
217
219
221
221
222
218
218
219
219
219
216
214
217
220
221
219
220
224
221
221
220
221
222
220
222
221
223
225
227
226
227
232
232
234
231
226
226
227
221
228
232
230
226
229
223
218
219
221
220
214
211
210
211
200
203
206
211
215
226
229
228
232
233
230
232
236
241
239
235
237
234
232
235
232
230
228
228
227
216
215
212
210
207
206
206
207
209
206
206
209
210
213
215
217
220
220
220
223
219
217
216
215
217
217
219
220
218
217
216
219
218
214
217
218
216
215
217
219
216
218
224
223
224
227
228
228
230
229
229
222
224
224
229
233
224
227
227
223
216
221
220
218
212
209
213
200
203
205
219
222
226
228
229
236
234
231
237
241
237
237
238
235
233
235
233
230
230
227
225
219
214
209
207
206
207
204
208
208
208
207
208
210
211
210
212
215
216
218
219
220
219
219
218
215
217
218
217
217
214
214
210
213
212
210
213
211
211
210
209
212
212
210
213
219
221
225
226
225
224
228
226
222
225
224
222
227
228
228
227
222
218
220
217
217
217
211
211
200
206
213
222
227
228
226
233
231
228
230
237
239
240
237
239
234
235
232
232
231
228
222
223
215
211
208
206
206
207
209
210
210
210
211
210
209
210
212
214
213
214
216
217
218
219
215
218
216
216
213
211
210
211
209
207
207
209
207
207
205
205
203
206
204
207
204
208
210
213
215
223
223
225
225
225
221
220
224
221
224
225
229
225
226
219
217
216
216
214
214
211
203
208
216
224
225
228
228
231
225
226
233
237
239
239
234
238
236
234
231
230
228
225
221
219
213
210
208
207
208
210
211
209
211
212
210
209
208
212
212
214
213
215
216
217
215
217
214
213
213
211
211
209
207
205
208
205
204
204
206
205
201
199
201
201
200
198
199
202
201
205
207
212
216
220
222
222
221
220
222
224
217
218
221
224
227
222
218
214
210
213
211
212
204
210
216
223
226
227
224
226
228
230
237
237
236
236
236
234
230
231
229
226
224
222
220
214
212
209
208
209
209
208
209
208
210
213
209
208
208
208
210
211
213
211
214
216
213
213
215
212
209
209
209
206
204
203
205
204
202
203
203
203
201
197
199
199
196
196
196
196
198
198
200
205
209
215
220
221
219
225
218
222
217
215
215
222
225
228
220
215
211
206
213
212
208
213
218
228
227
230
226
227
229
231
234
234
236
234
233
230
227
225
229
222
222
219
214
212
208
205
205
208
208
208
207
206
211
212
207
209
208
207
207
208
209
209
210
213
210
211
209
208
204
206
205
203
201
204
204
204
204
203
204
203
200
196
195
197
194
194
195
192
195
195
196
198
204
209
215
218
220
226
225
221
218
212
212
217
225
228
222
216
213
205
207
209
211
216
221
224
225
231
228
226
227
230
235
236
233
232
231
227
223
223
222
218
217
214
211
209
205
205
205
207
205
205
206
205
207
206
203
204
206
206
205
205
206
206
206
209
207
206
206
201
200
204
201
200
201
202
203
206
206
205
201
200
200
198
195
195
196
195
196
194
192
190
190
190
194
201
207
211
215
220
221
224
223
218
212
213
223
227
227
218
215
208
204
210
210
218
219
222
227
226
229
225
231
234
234
235
232
229
227
224
223
218
218
215
213
212
209
208
205
206
206
204
207
204
204
205
203
204
201
202
203
201
202
202
202
202
202
205
204
204
202
198
196
197
198
197
199
201
200
202
206
202
200
201
199
198
198
194
192
193
192
192
191
189
187
188
188
193
201
205
206
217
215
219
225
221
216
217
220
225
229
227
214
210
203
208
209
217
217
224
225
227
228
229
234
233
232
230
227
229
223
223
219
217
213
213
211
209
207
207
205
205
205
205
204
203
204
204
201
200
198
202
200
199
196
200
200
201
201
203
202
203
201
195
195
196
197
197
196
198
199
202
204
202
201
201
202
198
198
196
194
191
188
191
189
188
186
186
188
185
194
198
200
209
213
216
220
220
218
222
218
222
226
227
219
210
202
208
213
219
222
224
232
229
230
231
238
235
234
226
226
225
223
219
215
215
211
209
211
208
206
203
204
202
204
204
204
204
201
200
197
197
199
197
197
199
200
201
199
200
200
202
202
200
198
197
196
200
199
199
197
199
198
199
204
204
204
205
201
199
196
196
196
196
189
190
187
189
186
182
186
184
184
190
199
205
208
211
216
221
219
222
221
215
226
229
224
214
207
205
214
220
223
226
232
227
226
232
238
238
233
227
227
230
224
218
215
213
211
212
212
209
206
203
203
202
201
201
202
203
200
198
196
196
196
198
196
196
196
196
197
198
200
200
200
200
198
198
200
198
200
200
201
201
202
202
205
206
206
206
205
202
200
197
196
197
190
191
190
187
185
182
179
180
181
185
191
200
205
206
211
219
219
219
226
215
217
226
229
216
213
204
215
223
222
227
230
226
230
236
241
237
230
227
230
231
222
217
214
212
212
212
212
209
205
204
202
201
199
200
201
198
195
196
195
196
195
196
196
196
193
195
196
198
199
201
201
201
201
200
200
200
200
202
201
200
201
203
203
204
205
205
206
205
202
199
199
199
191
191
191
189
185
184
178
175
179
182
184
194
200
206
206
214
218
217
222
216
215
219
227
221
214
208
219
224
219
225
227
224
231
239
236
236
228
230
228
228
218
215
215
214
211
209
209
204
202
202
199
197
197
200
200
196
193
194
195
195
193
192
193
192
194
195
198
196
198
200
201
201
200
202
201
200
200
203
201
203
201
201
198
201
204
203
204
204
200
199
197
197
194
192
190
189
185
185
180
177
176
178
184
191
196
203
203
210
215
220
218
216
217
221
224
222
215
211
215
217
219
228
227
224
233
238
234
230
229
225
229
230
218
218
218
216
210
205
204
202
201
199
200
199
197
198
195
195
193
193
194
194
193
194
193
194
194
195
197
196
199
200
199
198
199
200
200
201
199
201
204
207
204
203
201
202
200
203
202
201
202
198
197
197
197
195
192
191
185
183
180
177
175
176
180
188
196
199
200
206
214
215
220
214
217
224
224
219
214
213
212
216
226
230
228
226
235
237
232
232
228
226
234
228
221
221
219
214
206
203
205
201
200
199
198
199
198
195
193
194
194
195
195
195
195
195
194
196
195
197
196
197
200
200
199
198
199
200
200
198
200
202
204
204
203
207
207
205
206
204
202
203
204
200
201
200
198
199
198
194
186
181
180
175
176
176
180
185
193
198
199
204
212
216
215
215
216
224
225
224
214
217
209
218
229
227
228
227
237
235
233
233
229
232
236
228
225
218
215
210
204
204
203
202
201
202
201
201
199
197
196
195
195
195
195
195
196
196
196
198
196
197
198
198
201
201
201
199
201
199
199
200
200
201
202
205
208
209
210
211
210
210
207
209
206
204
203
201
200
201
202
199
192
184
180
175
173
175
179
187
188
195
199
205
207
218
216
215
215
220
224
222
219
216
209
220
227
226
226
233
238
235
235
230
234
237
234
226
221
216
215
207
206
207
205
204
204
206
207
203
202
201
200
198
200
195
196
197
198
198
197
200
197
199
197
198
201
200
199
199
200
200
199
201
202
205
206
209
213
211
213
213
212
212
211
212
209
208
206
204
203
202
201
202
198
190
185
178
175
175
174
185
190
190
197
206
210
214
222
216
216
220
220
221
220
217
208
224
222
227
228
235
236
236
235
234
236
237
232
223
217
215
216
212
210
209
206
208
209
211
212
208
208
208
206
208
205
204
202
203
203
202
202
199
198
198
197
198
198
200
197
200
200
202
202
202
205
208
208
210
212
211
212
211
212
213
214
213
211
210
208
208
206
205
204
203
201
197
190
183
177
178
173
179
188
190
195
204
209
213
217
218
219
220
219
222
222
214
215
219
222
228
230
232
237
235
236
236
241
241
231
224
219
215
215
212
210
208
209
211
213
215
213
215
215
214
214
216
214
213
212
210
208
207
207
203
200
199
198
196
196
198
196
196
201
203
203
203
205
207
206
206
207
206
210
210
211
214
215
215
213
212
213
212
211
209
207
205
203
201
195
189
180
179
175
175
186
191
194
200
205
215
213
225
227
223
225
224
220
217
212
215
230
232
229
231
241
238
234
243
244
241
232
227
221
215
215
213
212
210
214
214
214
213
215
217
218
221
222
222
223
222
219
218
214
211
212
206
202
202
198
196
195
192
194
195
200
200
200
200
200
204
206
204
206
208
210
212
213
215
214
216
214
215
215
213
212
214
210
209
206
203
198
192
185
179
177
175
180
188
196
202
203
214
218
223
229
224
234
226
222
216
212
216
234
229
227
233
242
235
236
241
242
237
232
225
217
211
213
211
211
213
219
215
217
217
220
221
218
222
219
221
223
225
222
221
218
215
216
211
205
203
198
191
191
191
190
191
194
195
195
195
197
202
204
205
208
210
211
211
214
217
217
219
219
220
219
218
216
215
214
214
208
205
201
193
190
181
180
174
178
185
194
197
201
215
221
218
230
230
235
231
220
214
213
222
226
226
226
231
237
234
236
243
245
239
234
223
215
211
213
213
216
221
222
222
222
220
223
223
222
222
220
222
222
226
226
223
221
218
218
216
213
209
203
195
195
196
194
195
198
199
197
197
199
203
204
204
207
209
212
214
218
219
221
221
221
221
223
223
219
217
218
213
211
207
203
198
192
186
183
177
179
183
191
196
200
216
224
218
225
231
231
235
220
211
215
220
215
222
225
233
235
233
239
243
246
240
232
222
217
212
213
212
220
221
221
223
220
219
222
220
220
222
220
222
223
223
224
219
220
220
214
211
211
204
202
196
195
197
195
196
198
200
198
199
200
203
207
206
209
213
218
221
222
224
222
223
223
224
224
226
222
215
216
212
209
206
202
200
195
190
184
179
180
184
192
196
202
217
227
222
220
231
228
236
225
210
219
225
212
220
228
235
232
237
239
242
244
240
228
223
218
213
213
218
217
221
220
218
214
215
212
209
210
211
213
217
218
218
220
216
215
215
211
205
204
202
198
197
195
193
194
195
198
197
196
197
200
204
207
208
208
216
219
219
220
220
217
221
220
221
220
221
220
217
216
209
208
204
201
202
201
193
187
183
180
186
188
196
207
217
223
223
223
228
233
226
229
207
222
228
218
216
228
228
234
238
240
240
246
237
226
220
217
214
216
219
218
220
215
215
212
211
212
212
211
211
211
214
217
213
213
212
213
218
214
209
208
207
201
199
194
191
192
193
194
192
192
197
198
204
203
203
206
204
206
210
212
208
212
216
210
216
213
211
210
209
210
208
205
203
201
200
199
196
195
189
184
189
186
197
214
215
218
221
224
227
233
226
226
213
223
230
223
213
230
227
232
243
242
245
247
235
225
218
215
212
218
216
217
215
211
210
208
208
215
214
215
211
218
219
221
222
219
220
215
218
219
214
207
205
202
196
192
190
188
191
188
188
188
191
194
195
196
196
197
199
203
204
203
200
196
206
194
210
210
207
209
205
214
209
206
205
201
197
198
196
198
201
190
191
189
198
215
212
213
220
222
227
229
225
223
217
225
225
227
219
237
227
235
249
247
250
246
233
220
218
213
206
212
213
216
211
206
210
206
211
215
218
213
207
216
220
212
221
214
217
210
209
220
211
206
200
194
197
188
190
186
190
187
188
188
188
192
193
194
198
197
198
200
193
191
191
190
194
197
207
214
214
207
209
216
217
211
204
199
197
190
191
192
193
190
194
191
199
210
213
213
220
221
227
222
226
221
217
229
223
224
231
240
225
237
248
250
252
242
231
217
217
209
201
208
209
208
205
206
200
199
205
207
204
198
200
210
212
209
222
216
220
214
209
218
219
209
205
198
197
189
191
186
187
186
191
192
195
197
197
200
206
202
201
204
204
203
204
201
197
200
204
214
217
214
215
222
225
221
213
206
203
198
192
194
191
193
188
197
194
203
206
214
222
223
227
225
222
218
216
222
227
221
235
234
230
241
249
249
250
241
227
217
212
204
202
205
205
202
201
200
200
204
209
211
204
205
202
208
217
217
219
217
216
210
208
215
222
216
217
206
203
193
193
195
193
196
196
201
204
206
204
203
205
201
206
209
209
204
208
203
202
204
203
206
214
212
214
222
229
227
217
214
218
209
199
203
194
193
193
199
204
199
199
207
220
230
224
230
221
211
218
219
218
222
234
229
235
237
242
244
242
235
217
215
206
199
195
201
200
193
192
191
202
201
214
208
199
204
206
204
213
217
221
214
219
213
215
221
224
219
220
209
210
199
199
203
199
197
198
200
206
203
204
204
207
208
208
209
210
206
207
218
213
210
213
215
219
220
214
223
225
226
217
214
212
212
206
204
199
195
192
197
206
200
202
203
214
227
227
228
217
214
216
213
212
217
231
231
237
229
239
234
238
236
220
210
206
198
201
208
199
194
193
198
206
204
211
206
203
205
203
200
211
208
216
216
214
217
219
225
219
218
219
212
209
207
210
204
200
199
199
198
200
200
201
201
205
209
206
208
210
209
201
203
204
201
211
223
227
227
225
217
223
221
213
209
206
202
203
210
203
200
193
192
197
201
201
201
216
225
225
226
211
211
218
200
208
217
226
229
237
227
236
228
234
243
225
210
203
205
203
213
198
199
198
209
214
210
207
201
201
202
198
200
208
207
210
215
211
211
218
218
214
210
219
205
204
216
213
205
198
199
203
199
198
199
196
194
199
201
201
199
210
211
202
200
205
209
211
217
227
225
221
209
214
215
212
205
203
200
199
202
205
202
195
192
192
204
207
200
211
232
224
218
206
209
217
203
205
214
228
224
234
232
242
233
232
239
221
216
204
208
211
208
201
202
205
210
210
206
199
194
194
200
203
205
206
207
206
205
208
210
211
209
209
211
209
202
201
214
208
199
196
199
198
202
201
203
203
194
201
207
201
193
203
206
199
196
204
210
221
223
224
219
214
202
199
211
216
208
207
203
199
199
200
194
193
196
195
202
209
203
215
233
226
214
202
212
211
215
204
210
226
218
225
236
244
233
230
229
214
216
213
207
203
201
201
200
201
202
203
199
192
183
187
193
200
202
213
209
211
213
207
211
209
209
208
210
209
198
204
205
208
202
200
200
199
202
202
199
202
195
194
206
207
192
200
210
209
207
212
208
221
227
223
218
216
209
206
215
214
217
209
207
199
197
197
189
191
197
207
199
210
210
216
231
226
210
195
209
210
217
207
206
219
213
213
232
233
231
228
222
215
218
216
205
201
203
197
199
205
201
202
193
193
185
186
196
195
198
208
199
210
211
201
201
201
199
206
209
211
203
210
209
209
204
204
200
199
201
197
192
194
199
196
197
193
191
198
203
205
205
207
205
209
214
218
205
202
196
195
206
208
210
213
212
206
199
201
194
190
190
212
200
209
217
224
228
225
216
196
207
208
212
213
201
215
213
216
224
230
226
225
219
214
223
214
210
200
204
192
204
200
199
201
195
185
185
187
193
191
189
195
198
204
203
199
193
198
191
198
207
207
200
209
211
204
205
205
197
200
203
199
189
186
192
201
191
191
194
198
201
204
207
204
202
210
214
211
204
199
196
193
204
209
214
213
210
209
199
203
199
192
183
208
201
207
218
227
223
228
218
205
202
209
205
210
200
206
209
212
206
225
221
217
214
214
219
212
210
199
201
193
197
196
198
197
198
185
185
184
192
194
193
198
205
205
190
206
196
193
189
197
202
202
200
208
209
200
199
202
197
196
197
198
189
185
187
195
192
193
190
195
197
199
202
205
208
210
216
207
215
204
203
204
212
214
218
217
214
209
205
204
203
192
186
203
199
203
219
221
221
230
223
210
203
204
196
205
200
203
201
205
201
219
212
213
215
209
213
208
205
191
194
188
196
189
189
192
192
187
186
189
190
190
196
203
209
204
209
199
192
186
193
198
203
199
200
205
207
202
205
208
207
200
200
197
193
193
195
201
198
196
192
193
195
205
199
202
209
211
219
217
217
213
211
210
213
214
216
213
215
215
208
206
204
194
192
199
193
206
222
223
224
231
223
214
206
198
196
204
197
208
199
199
203
216
211
209
214
205
204
202
200
181
188
181
188
182
180
180
186
188
184
186
185
186
190
192
195
193
201
196
186
184
195
202
198
203
205
208
206
205
204
203
207
203
200
200
194
192
196
196
201
194
190
190
193
193
200
204
207
214
214
213
212
212
211
210
205
211
210
208
205
211
202
204
204
196
201
202
195
209
216
222
224
228
225
213
205
202
198
207
203
200
202
195
201
220
213
210
213
206
203
200
200
178
184
175
183
179
176
172
179
181
182
182
180
178
183
182
186
187
190
188
183
187
189
195
192
195
203
205
204
204
204
203
201
204
194
192
187
184
194
192
196
193
189
187
187
188
191
203
205
211
205
199
202
202
199
199
197
204
203
204
201
204
192
202
202
188
203
199
205
209
221
224
209
218
219
206
201
209
204
208
205
198
200
193
203
215
217
212
206
206
201
201
194
178
182
179
182
182
181
174
175
179
183
182
181
179
176
178
182
185
188
185
185
185
187
188
194
195
207
205
202
203
202
203
201
199
192
188
189
183
187
189
191
193
193
193
193
187
190
199
204
206
202
201
200
196
192
192
193
196
200
200
198
197
191
199
194
190
201
194
209
211
214
218
196
214
212
196
198
211
204
210
205
195
197
196
210
207
215
214
205
206
199
201
192
179
182
179
183
180
179
176
175
177
181
182
180
180
179
181
188
189
189
189
183
182
182
185
186
198
210
202
200
197
203
206
198
196
191
189
191
182
183
189
183
186
190
189
187
186
186
194
200
199
198
201
201
199
197
195
193
195
199
199
194
194
189
195
184
196
189
194
204
212
209
211
195
206
201
200
196
208
207
206
201
196
183
194
204
211
210
210
206
203
198
196
195
187
183
181
184
178
178
178
180
184
186
189
185
185
184
187
189
189
188
189
184
182
186
191
185
205
206
204
205
203
210
205
200
196
192
188
190
183
183
189
184
186
187
194
188
189
190
191
194
197
200
204
203
197
206
199
194
192
196
198
199
199
189
190
193
194
184
191
202
210
208
211
207
198
196
201
198
209
210
202
189
192
180
184
191
203
211
207
207
204
198
196
191
186
191
179
183
179
176
177
178
182
184
186
186
190
194
195
189
188
194
192
188
183
189
183
195
201
204
200
202
211
217
210
206
202
200
188
186
189
188
187
185
189
186
193
196
194
195
193
195
192
197
200
200
200
206
204
199
194
193
192
195
202
198
190
194
192
182
193
202
209
208
214
209
194
195
204
200
205
212
199
177
189
184
186
181
198
202
209
207
203
199
198
194
181
189
182
182
180
178
174
173
174
179
179
180
183
186
188
185
186
193
192
186
184
184
186
193
197
202
200
202
218
218
216
211
206
204
196
192
196
191
184
189
189
189
185
188
195
199
197
195
193
196
198
200
201
205
203
198
195
197
196
197
202
195
187
190
194
187
192
208
208
205
210
206
190
202
206
203
206
209
201
175
187
198
189
184
188
201
201
212
205
202
196
201
181
188
186
178
181
178
177
176
178
184
186
184
185
186
187
190
191
193
194
184
188
190
195
191
196
201
198
206
215
219
217
214
212
209
203
194
196
197
186
186
190
190
185
186
189
198
198
195
197
197
202
202
204
204
201
195
194
196
197
193
197
188
190
191
194
189
193
208
212
198
208
197
191
208
207
204
209
202
199
178
189
205
193
183
187
198
196
217
211
197
191
203
186
191
193
186
184
182
181
179
179
180
183
191
189
184
190
192
190
192
191
192
184
194
195
191
196
203
206
203
211
218
218
219
218
211
206
202
200
194
193
193
198
193
189
186
184
188
196
195
195
196
195
198
194
192
195
194
194
195
197
197
194
191
189
193
192
190
196
205
204
193
205
187
191
210
210
203
216
192
193
189
187
204
198
182
184
193
198
211
214
204
194
198
193
185
187
187
186
187
188
186
185
186
187
198
198
191
193
192
190
193
195
196
194
194
192
191
192
204
216
207
204
214
218
218
222
215
208
210
203
192
194
195
202
198
198
191
187
186
193
199
196
196
195
196
190
188
190
192
194
193
195
194
193
194
192
196
192
191
200
201
193
195
197
189
201
207
210
204
216
195
185
189
188
203
200
182
181
195
190
205
212
205
204
197
201
188
186
187
188
187
189
189
188
190
191
195
193
188
190
192
192
192
192
195
194
196
192
193
198
208
215
208
205
207
216
218
215
216
211
206
202
195
191
194
203
202
197
196
186
187
191
192
195
200
198
198
196
192
189
187
190
193
193
191
195
193
196
192
190
184
196
196
190
195
194
198
208
208
207
205
215
196
191
190
189
201
200
177
180
194
191
198
215
209
203
207
201
203
190
191
187
187
186
188
186
188
188
192
190
187
193
191
186
187
190
192
192
198
195
199
204
212
212
205
207
213
216
216
213
213
211
203
196
194
192
195
201
204
196
199
195
190
191
189
189
191
199
201
198
194
192
187
190
193
192
191
195
195
198
185
185
184
195
190
193
193
201
206
212
207
203
208
209
203
191
195
191
198
198
177
179
193
195
195
213
217
206
206
204
203
204
200
195
190
183
183
182
185
186
190
191
187
187
183
182
186
188
192
192
202
200
203
206
211
208
208
214
215
215
215
213
213
210
208
200
195
197
199
200
200
199
200
201
199
198
193
191
191
195
201
199
196
194
188
192
192
193
190
193
196
192
187
191
193
195
190
196
193
204
212
214
210
207
204
209
206
198
192
202
186
190
178
178
192
199
196
216
217
207
209
209
204
205
204
202
196
191
187
187
187
187
189
191
188
191
193
193
194
194
199
200
200
203
211
214
217
215
212
217
219
214
213
214
217
212
211
207
204
204
210
203
198
199
204
207
204
208
203
199
199
199
201
200
197
197
194
195
193
192
194
196
199
196
193
196
199
196
196
199
196
210
214
213
209
214
201
211
208
205
193
201
198
184
177
173
193
204
202
212
219
208
209
212
210
208
207
206
202
197
195
195
193
191
195
197
201
201
201
203
195
196
197
196
197
204
213
212
217
220
215
219
218
213
214
216
218
211
211
219
216
217
217
213
206
196
204
206
204
202
199
201
200
205
206
205
205
199
199
197
193
196
198
195
202
198
196
199
205
200
198
197
192
212
215
212
209
209
200
207
206
209
202
197
202
192
183
171
183
204
209
209
218
212
212
214
210
208
207
206
205
198
199
196
193
193
197
199
200
201
203
203
196
196
195
193
200
206
205
205
212
214
214
217
218
216
221
219
219
214
215
219
217
217
217
210
205
203
203
202
204
205
199
198
197
202
204
205
204
201
198
197
197
198
194
196
204
197
197
200
207
201
196
192
190
209
215
211
213
201
201
204
203
206
210
202
200
192
194
181
183
201
210
209
217
214
212
218
215
213
211
209
206
200
199
200
198
194
192
197
200
201
202
200
197
195
196
196
203
208
207
208
212
213
217
216
220
227
230
226
225
225
222
219
222
219
221
213
209
205
205
207
208
207
204
204
203
202
205
207
205
205
202
198
196
199
200
196
199
199
200
205
205
200
198
188
190
206
212
209
210
198
208
204
202
205
211
203
200
194
194
188
194
199
211
209
219
220
216
218
218
218
215
213
209
205
202
203
198
194
193
196
195
198
200
195
194
193
193
196
203
202
206
211
215
220
217
225
229
235
239
237
233
235
229
226
226
222
228
225
217
212
209
207
210
213
212
210
207
209
207
207
208
206
203
203
201
205
205
201
201
205
202
205
201
200
197
193
196
205
215
207
203
200
208
206
202
208
207
203
203
198
198
189
194
199
212
213
220
221
220
221
220
222
218
217
212
211
209
202
200
199
198
199
195
194
194
192
189
188
189
195
203
200
204
210
221
222
225
228
232
239
242
238
238
235
230
230
227
226
229
225
226
224
220
211
214
215
216
216
218
217
210
207
211
208
207
207
206
205
206
207
206
205
204
209
202
201
198
198
200
210
214
202
201
205
209
202
208
211
213
206
202
204
203
195
195
201
208
216
222
221
220
223
221
224
220
219
213
214
209
203
204
201
201
199
197
195
193
189
187
189
188
196
201
205
207
212
220
225
227
228
233
239
244
240
238
235
229
233
230
230
235
227
227
232
224
216
216
221
221
226
223
220
217
213
216
212
209
211
209
208
208
210
207
206
208
209
208
209
201
206
205
214
208
199
206
205
205
204
209
215
219
217
200
206
207
206
201
208
205
219
224
220
219
227
225
224
222
219
214
213
206
205
206
202
203
201
198
198
194
189
189
188
197
200
202
208
210
211
217
222
224
228
231
236
238
240
240
240
231
232
229
227
230
222
223
225
224
222
224
223
227
228
222
219
215
214
216
214
212
211
210
209
209
208
207
207
209
208
215
220
210
210
206
212
200
207
206
205
203
206
210
210
216
225
203
206
209
215
209
215
204
216
221
224
220
228
226
224
224
219
216
214
207
207
207
205
205
204
199
196
195
193
194
193
201
206
204
205
205
205
209
223
223
226
232
236
238
235
236
233
227
224
223
224
220
216
217
224
227
229
228
226
224
225
219
220
215
215
214
211
212
212
209
208
209
209
210
208
207
208
216
222
215
207
206
207
204
210
204
204
204
208
211
211
212
219
210
205
206
214
212
217
211
213
218
227
225
227
226
224
221
220
217
215
209
209
211
207
206
204
198
195
196
197
202
204
204
204
207
204
201
201
210
219
227
229
230
234
235
236
232
226
226
220
214
219
218
215
221
223
222
227
228
226
223
221
222
219
217
216
214
210
209
211
208
204
210
208
213
206
208
212
216
221
217
214
207
208
211
208
204
204
208
208
212
215
209
209
211
205
205
212
207
211
211
209
219
230
226
226
225
225
221
222
219
216
214
215
214
211
205
201
197
196
198
203
209
208
207
205
206
206
198
201
211
217
226
226
227
227
223
228
230
225
223
218
218
221
216
220
224
226
219
223
228
227
224
224
222
221
217
216
215
211
210
209
206
205
209
210
212
204
210
214
217
222
223
220
209
208
212
208
203
207
211
211
210
212
214
205
203
209
204
204
205
209
210
210
220
224
229
224
224
225
220
225
219
219
215
217
213
212
205
199
193
195
199
201
204
202
202
200
202
209
207
210
214
216
227
223
229
224
217
219
221
219
217
219
219
220
221
221
226
230
226
225
228
225
228
225
226
223
218
212
213
214
211
211
206
207
210
212
210
204
210
210
216
223
223
218
209
206
211
207
205
211
212
210
208
210
214
207
202
205
207
200
201
207
209
209
221
219
229
226
222
222
221
225
221
217
217
216
213
209
204
198
194
200
198
201
203
201
201
201
202
213
218
219
214
215
220
221
220
216
214
213
216
213
214
216
214
218
222
222
222
230
232
228
228
227
226
227
227
226
220
216
214
213
213
212
207
208
210
211
206
200
207
208
214
223
220
213
208
206
205
208
207
217
211
208
207
211
208
210
207
200
207
208
199
201
209
206
218
222
229
227
224
222
225
223
222
218
217
216
214
209
207
204
202
204
202
207
205
204
204
206
210
216
219
216
215
216
215
219
211
211
209
208
208
206
209
209
209
214
219
221
221
227
232
231
230
229
227
226
229
231
223
219
216
216
210
214
209
210
210
210
204
202
208
210
217
221
218
211
208
205
204
206
211
217
215
204
208
209
208
210
205
200
207
210
201
198
208
206
215
222
226
227
222
222
224
224
226
223
218
216
217
214
213
207
206
206
206
210
209
212
213
213
213
215
215
216
218
218
214
216
211
211
209
209
211
209
208
208
206
211
214
217
220
220
222
224
229
229
229
232
232
232
229
222
218
218
212
215
213
210
210
209
204
204
209
210
217
220
215
210
209
204
204
210
213
218
214
206
208
206
210
207
201
203
207
205
207
201
211
207
213
223
229
227
222
222
222
229
228
223
219
223
222
219
217
209
207
206
205
211
217
218
220
217
216
215
210
212
216
219
210
215
213
218
215
214
215
215
211
213
211
217
214
211
216
214
220
222
231
232
232
236
234
231
230
222
221
219
215
216
215
214
209
211
204
206
205
212
216
216
213
208
209
204
210
211
214
217
213
203
205
209
209
206
202
200
204
205
204
207
214
213
214
224
229
229
225
224
226
229
231
227
222
227
223
218
217
208
207
204
202
206
216
218
216
211
209
212
210
205
208
215
214
221
223
225
228
220
223
222
219
222
216
216
213
208
215
216
218
220
225
228
226
234
237
230
230
223
219
220
215
217
218
216
213
212
202
206
202
215
215
215
209
210
208
208
211
210
216
215
214
202
206
210
208
206
206
201
200
207
205
208
213
216
218
220
230
228
229
227
226
229
232
232
224
224
223
219
216
209
205
199
202
205
209
211
214
212
210
212
212
203
200
206
204
207
212
214
220
220
219
218
213
214
205
209
211
211
216
215
219
219
217
223
221
225
233
231
223
220
220
217
215
217
218
216
215
209
203
204
205
214
213
215
211
211
212
211
209
213
216
216
214
206
208
209
206
209
208
201
197
205
207
209
211
219
215
219
227
230
229
228
226
230
234
227
220
220
218
217
216
209
202
200
203
207
208
204
214
213
215
216
214
206
198
197
192
191
192
196
196
202
199
199
197
204
201
205
211
210
209
216
219
217
214
222
221
223
227
226
221
216
220
217
216
218
217
211
214
208
203
202
212
211
214
216
214
212
214
210
208
214
215
216
215
207
208
205
207
211
207
203
193
206
208
207
211
218
214
217
220
233
228
228
230
230
230
224
219
219
216
214
211
208
202
203
204
208
206
203
208
210
219
221
215
211
199
199
193
187
186
188
186
187
182
182
188
198
197
201
206
208
211
215
216
218
221
227
228
224
223
224
222
218
217
218
216
218
213
213
210
208
205
206
215
210
214
216
215
213
210
211
209
215
216
216
213
209
205
206
208
211
208
202
194
201
206
209
210
218
216
216
216
232
225
228
232
229
227
222
222
223
217
216
209
206
201
200
203
205
201
196
206
206
213
215
215
214
211
207
207
204
203
196
186
192
187
188
192
200
200
208
219
222
222
222
222
225
224
226
227
226
225
225
221
220
215
216
213
216
212
212
208
206
206
215
215
211
214
214
214
214
210
212
211
216
217
217
211
208
204
205
207
209
207
205
194
196
204
212
210
215
218
218
217
233
225
228
235
231
226
221
221
224
218
216
209
205
198
199
196
197
197
196
202
204
203
208
209
208
210
209
205
203
201
203
204
210
211
212
217
216
213
219
221
217
221
222
222
220
221
223
223
221
223
222
222
221
216
216
215
218
217
212
208
205
207
220
213
213
213
215
212
211
212
211
210
214
218
217
210
208
205
204
203
205
205
204
194
195
203
211
212
212
217
219
215
234
230
229
233
236
226
223
224
225
221
219
210
208
205
202
197
193
196
202
206
205
202
208
207
205
204
205
205
205
201
202
206
214
219
214
219
217
210
211
214
215
217
220
219
220
223
222
222
221
223
219
222
222
221
219
216
217
217
213
207
208
215
220
213
212
215
215
211
208
211
213
211
211
218
217
210
208
203
201
199
199
203
199
195
196
199
209
212
211
213
219
215
234
231
228
231
235
232
228
224
226
226
225
217
214
211
207
200
192
193
195
202
209
207
211
214
209
210
215
210
214
212
214
216
219
219
218
217
216
214
215
217
217
221
219
219
220
219
218
222
222
222
222
221
227
225
220
219
216
216
213
209
207
219
216
209
209
210
211
209
206
206
212
209
209
213
215
208
207
195
197
194
193
197
194
196
199
199
202
207
209
209
216
213
227
231
228
231
239
235
233
229
225
227
228
223
218
214
209
203
196
197
198
196
206
207
213
214
215
217
221
218
220
218
215
221
216
216
217
213
211
212
213
212
212
215
216
218
213
215
216
215
216
222
224
218
222
222
219
213
212
215
210
205
210
219
211
209
209
210
209
207
204
207
208
207
205
210
210
202
205
191
195
193
193
193
199
199
199
197
201
200
203
205
206
210
223
231
231
231
238
240
233
233
230
228
232
223
223
217
211
209
202
199
198
197
202
207
210
211
212
215
219
220
218
217
216
216
213
214
214
215
215
214
214
215
216
217
217
215
214
212
217
217
219
221
222
218
219
218
218
214
214
214
207
203
208
218
209
207
209
210
207
207
204
208
209
206
206
208
211
202
206
189
195
193
190
196
200
200
198
196
200
197
197
199
201
206
219
226
229
229
232
240
238
235
234
230
232
227
225
221
214
212
209
204
203
199
199
199
206
211
212
211
217
220
218
218
217
216
214
215
218
217
219
216
218
221
220
221
218
217
221
217
219
222
221
222
222
221
220
216
216
215
217
216
206
202
210
211
207
204
209
209
207
205
205
205
208
208
207
206
210
202
206
189
193
191
192
196
198
198
197
194
198
194
192
197
201
193
209
219
224
225
226
236
239
233
235
232
233
228
226
226
221
216
214
209
211
206
202
198
203
212
209
211
215
217
218
221
217
218
217
222
225
226
223
223
226
226
220
220
219
218
219
220
220
221
222
222
225
221
222
217
218
218
218
215
206
204
215
211
201
204
208
207
205
204
205
208
206
208
204
208
208
203
204
188
187
190
192
193
195
197
195
195
195
192
194
195
189
186
196
211
215
221
222
232
237
234
234
233
230
233
230
230
224
220
221
215
216
214
209
205
206
208
206
207
212
212
214
215
217
216
215
217
224
224
223
220
221
221
216
215
218
214
219
219
220
222
222
225
225
222
220
217
218
219
217
214
204
207
216
211
203
204
208
208
205
203
203
208
206
208
203
208
209
203
204
182
184
188
190
192
194
195
195
196
192
191
193
185
181
180
188
204
210
215
220
223
237
234
235
233
232
236
235
236
228
227
227
224
217
217
216
215
212
211
209
209
213
210
214
213
214
215
216
219
222
220
219
220
215
216
216
216
219
215
221
222
223
224
224
224
224
225
220
219
221
219
214
212
198
199
212
210
209
203
210
211
208
206
201
205
208
206
203
208
210
204
203
180
184
187
188
190
193
194
194
198
192
184
189
182
180
170
180
204
211
211
217
217
231
236
235
234
235
235
236
235
238
234
235
235
226
222
223
222
214
215
218
216
214
214
213
215
215
219
218
223
217
222
222
222
220
221
221
222
224
221
223
223
220
222
222
218
223
225
221
221
220
219
212
214
191
199
199
206
211
206
205
213
211
207
203
204
207
206
203
207
210
205
204
180
182
187
186
189
193
193
195
194
185
176
178
182
171
160
180
202
213
209
212
212
227
232
237
235
235
238
237
236
241
236
237
240
236
228
232
228
221
221
222
220
219
218
219
221
221
227
227
228
224
231
225
223
224
224
225
222
226
224
221
222
215
221
222
220
223
221
224
220
220
217
212
208
187
196
202
192
204
204
206
209
212
207
203
207
205
206
203
207
209
202
207
181
181
185
187
190
192
191
189
177
179
177
171
170
166
161
181
197
211
208
211
209
222
229
235
234
239
238
240
238
241
239
242
242
237
234
232
229
227
225
228
224
227
226
226
228
230
230
233
233
231
232
226
224
224
223
224
222
222
223
220
218
214
218
222
220
223
220
223
221
219
216
213
202
186
193
200
198
192
199
202
204
208
206
202
208
208
203
203
207
205
201
206
178
177
185
185
187
190
187
177
170
178
171
162
163
166
170
185
196
207
208
214
209
214
224
231
236
237
238
240
242
243
243
248
244
239
237
234
229
228
229
228
227
229
229
231
232
234
233
232
229
228
228
226
227
223
222
224
224
223
220
218
216
214
217
218
218
221
219
223
223
216
219
213
198
190
188
192
204
194
192
198
200
203
206
203
206
207
204
202
205
204
199
205
173
174
178
182
185
188
179
168
166
172
156
158
157
166
177
192
193
202
208
214
211
212
213
231
237
236
235
239
241
243
239
246
243
239
237
238
232
228
231
229
226
229
228
227
229
230
231
228
227
225
227
227
222
221
221
224
226
222
220
218
212
216
218
213
217
218
220
224
219
220
219
210
196
188
190
193
197
196
192
196
196
202
203
203
202
200
199
199
203
198
194
198
172
173
178
182
187
177
169
159
163
163
151
149
156
168
179
193
196
200
208
206
207
213
208
222
234
236
234
238
240
244
246
243
243
241
237
238
232
230
230
229
226
229
227
221
225
225
226
226
225
223
225
221
219
220
220
224
222
219
218
217
209
217
217
213
216
221
223
223
222
220
214
210
198
186
195
202
196
186
196
193
194
199
200
202
200
196
198
200
202
197
194
193
172
173
179
180
178
163
163
156
166
156
149
147
147
171
180
194
199
205
202
199
206
212
209
216
231
236
235
235
241
245
247
248
245
244
239
239
237
232
231
231
225
228
227
222
221
222
224
225
221
219
222
219
218
219
219
222
216
217
216
215
210
214
218
216
216
224
223
225
222
217
214
214
193
192
198
210
196
185
190
188
192
196
194
200
201
196
194
202
205
195
193
195
168
171
174
173
168
156
159
159
162
154
148
146
147
168
177
195
202
199
191
203
205
210
209
211
224
234
232
236
239
247
248
250
250
247
244
243
237
233
236
232
227
228
225
223
221
223
221
221
218
217
221
219
214
217
218
218
211
213
216
214
211
218
216
218
219
223
224
227
220
214
217
214
196
196
201
208
204
183
188
187
185
196
190
194
202
198
194
200
203
192
191
192
167
164
169
171
165
157
160
160
159
150
149
143
153
158
176
194
193
197
195
204
205
208
208
211
216
223
228
233
234
244
249
252
251
250
251
248
241
238
237
235
229
227
225
224
223
223
220
222
218
217
219
218
210
214
218
214
208
213
216
215
213
220
218
218
223
225
229
226
218
214
218
211
197
196
208
202
200
188
184
189
182
193
190
187
196
194
193
199
201
194
188
192
161
160
170
169
162
156
157
159
154
146
150
143
151
160
166
179
186
205
198
201
203
203
208
208
214
219
216
228
233
237
243
249
251
255
252
249
243
245
244
242
235
234
227
228
225
220
225
222
224
219
215
216
215
218
217
216
215
216
216
219
217
219
222
222
225
230
231
225
218
214
217
208
198
193
209
208
197
186
184
186
183
186
189
185
192
194
192
195
193
186
185
188
158
158
165
160
157
151
159
154
147
145
151
139
153
163
160
163
183
206
197
199
199
199
208
207
211
215
211
224
226
233
239
245
247
254
254
248
249
250
248
247
238
238
233
234
229
226
226
226
226
221
218
217
221
221
218
222
221
218
222
222
221
223
231
226
231
231
230
226
222
213
218
210
197
189
210
209
199
189
176
180
182
181
182
179
189
195
193
194
193
183
182
184
153
157
161
159
156
150
157
146
142
145
145
145
158
157
157
158
176
200
200
198
198
195
207
204
206
212
213
214
219
227
234
238
242
249
254
251
251
254
249
250
244
239
240
238
235
233
229
228
227
223
222
224
228
228
223
227
226
224
226
225
227
231
234
230
233
232
229
224
221
211
218
207
190
192
209
208
198
190
177
167
183
176
181
176
183
190
191
187
184
175
178
180
152
158
162
164
154
154
157
147
145
145
141
155
155
150
158
159
166
190
195
201
196
196
204
202
206
208
211
213
212
222
223
231
236
243
247
250
250
251
249
248
248
243
242
240
237
234
231
227
231
230
229
229
233
232
229
230
231
231
228
231
234
234
236
231
232
232
231
224
220
207
220
199
188
197
210
208
197
187
183
167
173
177
179
173
180
189
189
189
189
175
173
182
152
157
157
154
152
150
153
142
148
145
142
155
150
148
157
164
167
181
189
200
197
195
203
201
203
206
206
210
211
214
217
225
227
238
238
247
247
249
249
245
248
245
243
240
237
239
236
231
233
235
235
235
236
232
234
236
233
232
234
239
237
237
234
232
232
234
230
221
211
210
218
191
194
201
206
208
196
186
179
171
170
171
175
174
179
191
190
186
189
176
176
179
150
158
153
151
149
152
147
140
149
142
142
148
141
155
156
165
170
172
182
200
200
192
201
197
200
202
202
207
207
209
210
218
220
227
233
238
240
241
245
243
248
242
244
240
239
240
238
236
235
238
239
239
238
237
241
241
239
238
240
242
239
238
231
235
234
231
224
214
209
218
209
190
197
201
207
208
194
188
178
168
171
165
168
176
180
190
190
186
186
177
175
177
148
151
147
151
153
156
144
137
144
140
131
135
144
154
158
162
173
170
179
198
202
198
195
195
195
197
199
204
202
207
206
210
212
220
226
232
234
235
236
238
242
240
240
238
241
241
242
240
240
241
243
241
240
244
244
246
241
242
242
241
237
236
231
233
228
223
216
211
210
219
204
195
197
200
209
204
193
184
178
170
169
162
157
173
183
181
187
188
184
176
175
177
145
146
145
149
153
152
137
137
137
130
127
132
150
153
158
166
183
170
179
195
199
199
197
193
191
194
196
201
201
205
207
204
210
214
221
224
227
229
233
232
235
236
235
238
239
241
241
244
241
243
242
241
242
242
243
243
241
241
237
239
234
230
224
225
224
220
214
208
214
212
202
201
196
201
207
195
187
182
176
176
164
161
154
163
184
177
180
185
182
174
171
172
