P2
# Face with average contibution
92 112
255
193
198
203
197
192
204
194
204
202
187
185
196
196
207
187
174
183
186
179
178
176
186
172
159
166
169
174
166
184
184
199
198
197
197
193
188
185
180
183
193
190
192
191
187
192
195
199
206
201
204
203
210
207
198
192
192
183
180
172
165
168
161
166
163
162
159
158
164
173
159
154
155
166
172
178
180
188
195
199
193
196
202
198
183
177
176
178
181
185
183
182
182
195
197
200
195
202
206
196
198
194
186
172
189
191
198
188
185
178
185
169
175
172
163
175
170
180
186
172
175
181
187
186
193
191
189
188
191
187
183
184
190
191
181
188
183
182
193
196
203
197
195
200
195
192
205
207
188
191
191
197
178
172
180
179
176
167
171
167
173
168
159
160
159
159
172
174
170
177
193
199
194
185
199
205
189
182
177
184
179
186
186
181
180
193
201
199
202
206
198
197
186
185
180
181
179
191
197
186
193
208
168
162
164
159
162
180
190
190
178
175
181
184
179
180
171
173
183
186
189
182
180
184
182
193
171
176
188
180
174
180
182
174
178
185
187
178
197
200
206
198
196
187
188
179
182
179
185
177
174
183
171
171
160
156
156
174
170
169
167
170
176
190
188
186
192
201
194
187
179
183
184
181
189
180
185
188
195
204
202
177
174
184
188
179
181
188
186
187
186
194
198
188
166
144
163
166
175
172
186
182
185
185
191
183
176
177
174
182
174
189
185
177
176
179
181
181
185
175
183
171
167
173
171
174
168
177
178
178
183
186
196
197
201
201
195
188
194
188
183
178
189
189
179
179
161
167
168
183
155
173
167
164
176
183
181
180
183
190
187
179
189
181
181
180
184
185
181
198
193
202
190
187
165
167
167
170
180
192
204
194
184
178
178
172
153
150
169
169
182
171
171
166
175
186
191
181
179
181
174
181
181
178
175
182
174
179
176
183
189
176
168
179
173
174
173
174
176
175
166
173
173
175
186
190
189
197
203
198
194
191
186
196
196
187
179
178
184
186
178
184
169
162
170
163
168
177
178
182
197
189
182
173
193
195
181
174
186
186
185
198
194
185
188
184
187
171
161
168
177
186
193
196
183
169
162
153
156
177
169
173
174
168
171
168
177
176
184
179
178
186
182
184
183
175
179
180
188
177
179
187
188
183
175
186
179
180
174
179
186
176
173
174
182
176
190
186
192
193
191
194
199
200
195
195
197
189
188
189
186
188
177
174
177
169
167
166
156
168
177
191
196
178
176
174
178
198
187
174
184
185
186
193
189
185
190
178
170
183
172
176
182
185
181
181
179
166
164
168
173
188
179
174
172
173
177
173
178
178
178
188
184
193
189
184
184
181
191
185
191
186
180
181
182
185
180
178
177
180
180
183
183
174
174
172
172
171
184
179
184
191
179
190
189
200
193
199
192
192
189
194
190
186
194
185
178
176
172
159
163
161
163
187
184
175
177
186
174
186
193
180
182
182
186
190
178
174
181
183
174
170
181
177
169
174
167
165
160
169
170
179
180
194
192
182
181
185
176
180
183
181
186
188
190
187
194
186
191
193
193
193
192
193
176
181
180
177
175
177
181
179
179
174
179
171
168
169
179
177
185
181
178
175
177
191
187
190
191
197
194
195
194
193
189
188
186
196
186
183
165
153
155
165
158
173
182
175
174
188
185
172
175
190
183
182
185
192
187
178
176
184
189
187
189
182
178
165
165
171
180
171
174
180
184
184
190
189
185
177
182
177
181
176
187
183
179
182
188
184
188
184
187
186
201
192
179
179
174
168
172
178
177
178
178
180
179
170
173
169
177
184
186
184
178
179
168
185
187
186
189
184
199
196
201
190
193
190
183
190
188
188
166
152
154
159
169
166
172
164
164
177
163
163
176
189
188
181
182
193
185
179
183
175
187
204
199
191
175
169
171
179
182
176
182
191
197
186
191
186
176
173
187
185
186
186
176
179
183
186
189
187
190
189
180
179
182
184
172
169
172
161
161
170
169
176
173
176
178
174
175
180
175
184
180
179
179
180
174
175
179
183
183
180
186
188
189
187
197
200
195
189
189
185
177
166
164
154
165
160
152
149
162
170
157
173
182
175
183
183
184
193
190
180
168
172
188
193
202
192
182
184
177
181
181
183
185
191
194
190
182
189
173
180
184
190
189
192
183
183
191
195
189
195
193
188
181
178
171
173
177
177
175
170
167
163
163
161
166
165
165
169
169
175
186
181
181
175
172
182
175
159
176
187
182
182
178
181
179
188
198
203
206
191
187
184
187
176
169
157
164
159
151
156
165
167
167
176
171
180
187
190
186
182
191
194
199
182
192
185
198
195
189
192
188
187
184
182
187
189
187
189
181
185
183
178
181
186
176
186
187
182
182
184
186
189
192
190
178
181
170
163
170
164
156
158
159
156
154
161
163
171
161
160
163
174
174
179
186
180
179
186
178
168
177
180
177
178
181
173
178
190
196
199
196
198
186
180
182
179
174
168
170
167
153
161
159
171
177
170
168
170
175
186
183
186
177
175
177
183
185
185
186
190
191
188
191
185
181
197
189
187
187
184
192
186
185
184
184
186
184
188
177
182
181
179
179
178
182
175
179
175
176
174
169
164
161
155
154
154
151
158
154
162
164
152
158
161
179
178
184
179
181
183
183
178
185
184
177
174
177
172
174
188
194
200
194
202
192
186
183
189
189
184
187
174
160
157
156
163
176
164
178
172
164
185
191
176
170
162
186
185
187
178
178
179
186
188
192
175
184
175
186
179
179
183
183
188
188
184
183
181
170
174
170
178
175
176
172
180
178
173
168
178
173
168
167
166
170
157
162
161
152
155
152
155
151
165
167
164
185
181
180
178
175
186
184
172
180
179
175
174
167
164
173
188
191
194
187
198
196
195
183
188
191
191
189
188
171
164
151
165
178
171
171
177
173
177
176
182
165
173
182
177
171
172
175
184
188
192
183
180
174
169
177
183
178
185
173
171
167
167
178
180
166
154
153
162
168
177
170
169
178
178
169
170
171
163
164
156
159
163
159
172
163
158
158
155
153
158
174
168
182
180
175
178
173
187
178
173
173
173
169
176
166
166
170
183
191
194
183
186
199
192
186
186
187
193
194
191
170
166
153
155
166
176
184
185
170
166
177
190
180
172
171
169
175
169
176
188
197
189
188
176
170
176
180
181
186
183
185
173
164
172
172
166
160
156
161
169
175
177
175
168
177
178
174
173
170
169
169
162
162
164
159
165
161
161
166
161
164
156
169
169
172
180
179
180
182
188
184
172
166
161
161
176
170
169
173
185
191
198
191
191
190
190
194
188
187
192
192
197
184
170
170
161
155
169
180
180
163
162
175
189
190
184
176
179
163
167
186
189
189
195
195
190
187
191
190
182
189
188
191
172
177
182
184
173
170
168
172
177
176
179
185
180
179
182
179
176
182
185
185
179
169
175
165
165
165
168
170
171
164
158
158
167
169
174
179
181
188
186
179
190
171
170
165
178
172
168
178
174
194
194
194
193
191
185
194
192
190
197
190
192
195
183
176
164
159
159
179
182
189
185
188
194
191
188
181
166
163
180
195
196
185
179
179
188
190
188
190
181
181
184
178
175
184
190
185
178
178
183
185
179
178
186
191
189
191
194
191
174
181
179
187
191
182
175
178
185
177
174
169
176
165
168
155
171
170
170
176
186
192
182
175
180
182
186
179
177
176
171
179
174
186
200
187
192
191
186
191
193
196
191
197
184
197
189
178
177
163
156
184
186
191
191
194
197
201
182
166
163
175
187
195
183
177
191
189
176
184
188
178
173
174
169
169
175
187
185
176
182
181
176
180
180
184
187
192
186
187
184
190
193
185
184
184
186
191
185
183
181
191
183
183
183
188
176
181
177
173
179
174
187
188
179
169
174
189
185
190
183
173
173
172
172
179
202
199
189
191
190
190
189
196
192
195
187
197
194
174
183
179
159
165
181
194
195
191
198
199
174
154
168
184
192
198
188
180
183
185
182
180
175
182
170
171
167
176
180
176
177
172
176
170
163
174
176
186
190
187
189
189
187
194
195
196
200
203
200
186
194
189
189
187
187
189
191
200
180
186
184
172
185
186
185
193
182
179
182
181
180
172
179
176
181
187
178
183
196
207
189
191
193
196
193
195
200
208
190
190
198
184
178
181
169
163
173
196
206
199
193
189
162
162
171
179
200
198
173
171
183
188
174
176
181
175
175
172
174
183
181
182
173
168
165
170
167
174
181
181
189
184
179
189
187
197
193
200
208
207
209
199
191
193
186
184
187
189
189
199
188
183
192
181
188
185
188
185
182
171
171
173
170
174
177
178
193
192
185
185
193
199
191
193
195
199
197
200
198
205
201
194
195
196
179
178
173
162
158
180
200
208
193
180
176
169
162
180
186
176
166
179
178
173
173
182
191
181
184
180
180
177
181
177
169
168
166
172
180
185
187
193
186
187
176
186
195
205
191
196
207
204
204
193
193
188
190
185
186
180
184
193
185
181
191
188
190
182
181
179
181
178
182
176
173
182
174
182
184
191
173
177
186
202
187
181
186
196
192
200
192
202
206
196
203
197
182
185
180
176
153
159
184
193
197
191
187
174
175
174
178
170
171
175
182
180
177
187
193
194
194
194
193
185
187
173
174
174
168
177
189
195
189
200
199
197
196
190
195
192
193
198
195
189
187
187
188
186
187
191
188
185
179
185
188
186
184
191
189
183
186
177
178
181
185
184
173
173
170
183
184
180
175
177
194
198
196
181
181
188
194
201
193
205
204
197
205
198
189
187
183
184
159
165
176
179
200
186
187
191
177
177
170
159
161
167
177
172
173
180
190
200
193
194
193
192
185
171
184
185
178
185
197
202
209
201
193
194
202
195
190
187
188
193
185
184
186
191
184
185
190
183
184
183
190
184
185
187
186
185
188
186
188
181
176
168
181
186
178
175
176
176
195
183
175
184
203
197
200
194
175
184
187
204
195
197
203
200
206
193
195
180
193
177
174
166
182
175
192
193
199
190
167
168
153
151
160
176
184
172
178
181
196
199
197
202
198
192
190
183
188
190
188
185
195
202
206
203
196
198
198
191
190
187
178
178
182
176
179
179
176
181
186
178
182
187
186
186
181
187
184
186
183
188
189
183
183
171
170
176
185
183
186
186
185
185
176
178
199
208
200
200
184
185
186
194
194
190
198
199
196
202
195
181
191
190
180
171
166
174
199
189
188
180
168
155
156
160
176
196
185
177
183
192
203
208
207
203
201
195
196
189
191
186
194
195
195
210
203
198
192
187
185
184
177
175
175
177
175
172
177
177
171
178
179
179
174
188
190
186
181
180
190
182
181
183
185
181
180
179
172
174
189
184
191
188
191
180
178
177
181
198
215
192
196
179
179
184
195
188
192
195
195
200
191
176
190
191
182
176
158
167
192
185
187
170
165
148
150
162
184
185
189
188
187
198
206
215
214
211
202
199
195
190
191
191
207
205
209
214
206
200
188
183
178
178
178
181
178
176
169
171
177
174
176
178
176
177
175
184
185
187
182
183
181
182
185
181
192
188
182
179
177
177
180
191
192
183
188
179
173
179
182
189
199
193
184
178
173
176
185
192
193
192
194
196
195
178
191
186
173
179
160
166
186
190
181
164
158
142
136
165
177
187
183
186
197
202
214
210
207
207
200
198
200
200
198
200
206
207
212
199
194
193
188
188
189
183
184
183
181
175
177
178
181
183
177
178
173
185
176
186
184
182
184
188
192
191
184
185
188
187
183
182
177
178
183
183
189
188
183
184
179
177
183
183
197
192
177
176
172
174
183
183
192
196
190
194
195
185
190
187
172
169
164
156
196
186
179
170
143
138
145
164
179
186
179
190
191
196
202
206
205
199
191
190
201
200
204
205
201
203
194
189
187
187
191
189
189
191
183
185
186
187
186
185
189
190
191
190
179
186
188
185
179
181
187
195
190
189
188
192
190
194
193
192
185
186
184
186
197
193
190
185
180
182
184
183
180
190
183
173
172
167
174
183
190
194
194
192
191
182
192
189
168
175
164
160
200
188
171
170
142
131
160
175
182
178
183
197
194
198
207
206
197
185
187
184
195
207
202
194
194
191
190
181
185
183
185
183
184
186
182
181
191
191
186
188
184
193
188
191
186
186
183
187
177
183
184
188
186
187
189
195
193
196
195
195
191
189
188
191
195
197
198
193
184
183
179
190
182
183
179
175
175
178
168
183
188
194
190
188
188
181
181
191
166
175
168
168
198
186
170
165
141
140
174
179
177
181
192
199
190
190
191
195
189
182
185
180
189
200
194
188
184
190
177
176
186
188
181
182
181
183
182
186
189
190
187
185
189
186
186
182
186
181
183
183
176
179
182
186
193
193
195
195
199
197
194
196
197
192
197
190
192
196
202
193
191
185
189
182
189
176
183
178
176
182
174
181
187
192
185
182
183
179
182
182
181
174
176
181
204
191
169
166
143
147
182
179
172
183
186
189
180
188
185
186
186
183
184
186
188
190
186
178
179
181
168
181
186
182
178
177
174
179
183
188
182
185
184
184
185
187
189
184
182
177
183
176
173
172
183
186
192
195
195
192
192
195
197
196
198
193
195
189
192
195
200
195
194
191
192
188
190
186
184
185
173
183
174
173
180
178
176
173
181
183
171
183
186
188
179
188
196
185
169
164
143
147
183
177
178
186
188
186
185
178
180
178
176
181
187
188
189
182
175
179
184
176
173
185
179
172
178
176
171
175
184
186
180
179
180
180
178
183
183
186
181
176
177
172
162
170
169
176
188
193
196
192
191
191
193
193
189
189
191
186
192
192
189
196
188
187
195
192
187
192
177
185
177
186
183
177
173
171
174
175
173
186
165
171
189
189
187
185
198
183
177
158
143
153
177
179
181
188
184
184
182
170
177
167
165
182
187
185
192
179
180
184
188
166
171
179
174
169
178
176
167
178
184
183
181
178
182
177
172
172
175
175
177
163
164
162
157
164
166
163
172
180
189
185
187
188
190
195
191
186
191
186
184
187
188
193
192
189
187
188
188
188
176
176
183
184
181
184
168
175
176
177
173
181
167
173
173
196
194
177
204
186
178
156
135
152
175
182
186
188
181
184
180
175
174
169
172
183
186
188
181
176
183
176
179
169
179
181
175
176
184
177
171
180
185
175
173
175
174
175
173
168
168
174
173
167
157
163
157
154
161
164
171
171
180
183
182
182
183
185
190
188
188
187
184
186
193
192
189
192
184
188
182
180
181
176
182
188
183
177
175
175
176
180
170
175
187
177
183
190
195
184
203
194
181
157
132
149
175
185
190
184
181
185
179
175
172
171
178
181
192
188
173
177
179
171
178
175
175
178
175
172
182
167
172
185
190
171
172
173
170
174
171
165
165
170
167
163
159
146
164
160
155
166
177
174
174
179
183
182
186
186
190
195
190
189
188
191
195
192
185
186
188
188
186
181
182
182
186
186
187
187
173
188
182
176
176
173
180
180
180
198
194
188
206
197
184
151
135
145
172
186
194
183
184
185
178
171
172
175
185
189
188
193
175
180
177
178
179
175
171
174
174
174
177
158
171
183
176
167
172
170
174
166
163
163
161
158
162
161
151
158
151
165
167
163
170
168
170
173
172
174
179
180
186
186
191
190
193
192
197
196
190
191
188
192
187
181
192
190
192
180
193
197
186
190
194
172
176
178
181
184
173
187
202
209
202
207
189
142
137
144
173
196
193
185
188
182
172
172
172
179
187
182
184
192
187
185
175
178
173
166
163
162
170
173
172
156
172
172
172
179
181
185
181
178
171
178
167
169
163
158
158
170
164
161
172
168
166
172
164
165
162
161
166
174
176
180
183
186
186
191
190
198
193
197
194
191
190
183
183
196
201
183
188
205
189
193
196
184
179
183
184
185
172
188
191
214
197
206
188
143
127
145
176
194
190
185
190
188
177
169
172
186
185
182
183
186
187
177
174
173
168
162
163
164
169
170
167
170
181
169
174
178
177
186
192
188
180
176
180
175
174
168
175
177
180
166
176
171
169
166
173
159
156
168
169
178
180
185
180
180
185
184
189
194
199
199
201
189
185
178
180
180
188
177
174
195
179
194
182
184
194
185
187
189
174
182
190
204
192
206
194
132
136
152
180
194
187
188
198
200
189
181
183
192
189
188
185
184
178
174
170
169
172
178
174
175
176
167
162
170
173
176
175
174
171
181
183
185
187
183
182
183
182
179
180
180
180
173
174
174
174
174
175
172
167
171
179
177
188
189
182
184
182
184
187
192
197
200
193
183
175
166
167
164
170
169
176
186
167
187
191
187
203
193
188
189
183
186
192
196
185
208
196
128
142
161
179
186
190
189
196
205
193
185
191
191
193
195
190
184
181
178
171
171
174
172
171
172
167
161
162
174
180
190
182
180
178
184
192
189
190
189
182
174
175
175
177
171
171
173
168
173
170
171
172
172
176
175
177
183
185
190
189
185
186
182
184
188
191
192
182
176
164
153
155
152
153
149
162
173
156
168
184
194
202
202
194
180
183
195
189
183
187
198
187
128
147
169
174
185
192
194
194
201
195
193
190
195
197
195
196
190
181
182
172
175
181
175
176
180
172
174
171
182
183
189
185
184
180
180
190
189
191
186
179
158
170
168
172
168
167
166
171
169
171
175
176
170
173
174
179
184
186
186
186
183
185
178
177
177
186
184
190
184
160
167
150
156
168
155
160
182
176
159
163
181
203
205
196
182
187
198
188
189
184
188
184
128
151
183
179
184
194
199
204
196
201
190
192
196
202
198
196
190
176
174
180
182
184
183
185
186
185
194
190
186
179
183
183
172
158
165
181
187
182
178
167
168
170
169
176
176
170
166
167
172
170
174
174
176
174
177
175
185
188
188
185
186
182
176
173
176
182
177
190
179
157
155
167
142
167
166
154
176
181
174
174
160
196
205
196
176
195
208
184
194
183
179
185
132
157
188
187
181
192
196
207
203
197
184
199
199
198
198
192
189
184
184
189
193
189
188
188
188
181
185
176
169
168
200
199
172
155
145
170
180
185
177
161
171
177
175
169
173
178
164
165
171
168
169
173
174
179
184
178
192
191
192
192
188
188
185
169
170
182
182
194
175
165
152
152
139
170
168
165
165
178
170
175
167
187
200
206
181
200
207
190
198
186
180
185
137
162
192
192
186
187
191
201
198
191
189
206
207
200
197
192
187
190
189
194
193
186
181
171
177
174
173
183
172
178
164
195
164
161
151
179
182
187
193
167
168
173
172
173
174
180
183
168
171
173
179
175
179
184
178
173
179
190
191
191
181
193
187
187
154
168
174
190
190
157
159
159
141
181
185
184
171
171
170
170
179
187
197
207
189
205
204
188
197
182
185
179
140
170
192
201
184
182
185
203
200
189
189
204
206
201
200
194
187
197
201
191
173
164
163
162
163
178
185
178
167
175
162
167
162
159
161
180
185
188
188
174
173
176
174
173
176
183
196
184
172
179
184
177
182
186
175
173
175
184
199
196
184
194
201
203
191
170
174
175
191
184
158
156
159
166
192
185
180
168
173
165
177
180
194
207
197
210
193
193
197
185
176
177
142
174
193
195
184
182
184
190
185
175
183
198
197
196
201
200
197
205
197
175
158
155
166
175
162
179
200
194
181
181
173
166
157
168
181
195
194
194
200
192
187
192
189
186
187
199
195
185
179
189
187
176
181
180
173
171
173
187
203
200
196
192
203
211
213
189
180
189
180
181
173
168
163
168
178
179
174
177
176
159
173
181
194
211
201
209
192
191
194
183
171
167
152
183
173
180
172
171
164
150
150
165
170
179
183
173
174
194
200
198
175
159
162
158
178
189
174
176
190
201
204
193
194
180
177
196
202
202
205
197
200
199
194
195
193
193
196
202
183
177
182
194
197
180
175
177
165
170
167
190
203
205
201
197
207
213
213
198
190
187
186
172
167
169
160
158
173
184
170
174
173
157
176
184
192
220
203
192
187
193
197
174
173
179
175
179
159
175
157
165
156
140
134
156
161
167
174
161
169
189
191
182
168
154
153
174
180
175
186
174
185
187
188
199
206
191
196
193
196
207
203
205
204
200
189
193
195
198
197
193
182
172
181
190
192
190
177
174
174
172
167
182
193
201
202
191
196
201
196
190
182
179
183
177
168
174
163
161
173
185
174
178
174
162
178
187
198
219
210
191
181
188
190
178
185
172
193
167
151
173
162
168
157
149
144
161
164
175
172
168
186
178
179
171
163
162
158
158
164
164
174
173
184
182
194
191
194
194
200
190
195
205
206
206
203
203
197
187
191
198
193
193
180
175
176
190
184
185
179
167
176
174
171
173
187
199
197
190
181
189
194
195
187
187
191
189
191
192
187
165
177
177
175
180
180
161
177
190
202
215
217
182
184
184
183
181
202
178
181
178
165
190
191
191
188
175
170
188
190
200
195
188
200
192
175
174
164
155
151
155
151
171
169
180
184
185
197
190
193
199
192
191
192
203
193
212
196
198
196
186
180
186
183
184
170
162
169
177
179
178
176
170
168
173
174
169
178
191
183
190
180
196
192
209
201
202
208
204
203
204
192
178
172
189
179
183
177
165
173
193
203
225
215
173
185
187
177
181
207
205
188
208
187
208
205
190
191
177
184
206
214
217
198
196
209
198
184
178
163
144
145
150
163
173
182
187
198
204
213
202
198
189
182
195
200
198
203
208
188
189
196
193
174
171
175
164
154
142
147
146
152
162
168
172
161
166
180
166
144
169
161
184
182
186
200
208
204
197
194
206
204
205
199
175
172
185
179
190
177
168
173
186
195
200
196
159
185
193
177
176
188
212
206
222
205
215
201
180
179
164
170
196
197
208
190
192
199
184
177
185
179
152
157
159
176
177
173
181
187
198
212
200
197
171
172
185
195
194
203
202
188
187
196
187
181
164
164
149
143
144
140
138
140
155
164
165
168
166
172
164
144
158
167
178
191
175
186
206
205
195
191
192
191
193
185
171
174
179
178
182
174
161
162
169
166
193
188
164
181
185
176
172
175
199
214
213
214
209
202
170
158
155
146
182
188
196
167
176
186
176
175
179
172
163
157
158
163
157
160
180
175
192
197
200
191
182
185
187
189
192
195
182
181
180
191
191
188
176
162
151
140
143
143
132
133
154
162
159
158
160
160
149
144
148
159
154
181
168
169
188
200
188
182
189
187
202
183
167
168
176
171
173
171
153
146
163
165
190
205
178
195
172
173
179
168
183
207
194
218
196
201
167
148
154
154
162
186
183
160
163
169
168
167
178
172
145
142
142
155
152
164
179
189
201
198
206
202
193
195
199
184
192
188
171
160
170
184
183
184
173
168
163
153
147
152
142
140
159
160
151
158
158
151
144
130
138
145
139
156
161
158
170
184
188
184
184
199
210
198
168
175
181
168
174
157
136
151
179
190
189
197
182
196
172
173
178
162
166
203
203
215
195
188
167
148
144
152
160
200
201
175
158
174
174
183
194
183
161
146
160
172
156
172
169
194
205
216
211
219
217
213
209
203
199
187
174
159
164
177
174
177
167
161
162
158
159
172
164
164
168
169
171
172
164
158
162
155
149
152
150
161
164
173
174
185
184
181
189
201
214
200
166
171
174
174
160
156
147
170
187
183
174
179
182
170
174
174
173
157
158
202
210
218
205
184
170
166
161
160
176
198
221
188
177
191
190
204
205
195
169
151
168
173
180
177
172
190
216
239
235
237
233
225
209
209
197
191
177
163
167
169
176
175
173
162
157
156
156
164
173
182
183
178
169
180
167
173
177
181
167
167
168
181
184
165
187
191
200
178
181
196
212
202
181
164
177
168
157
162
175
185
175
162
160
169
185
155
171
176
172
162
150
195
212
219
216
190
177
186
172
180
187
209
230
200
200
202
199
199
203
198
168
156
163
159
182
182
175
204
230
242
248
241
237
229
196
195
190
178
162
165
178
172
170
174
186
166
159
151
163
156
161
168
178
182
165
168
168
162
182
174
176
162
171
175
183
171
188
199
202
175
182
190
200
197
188
170
166
155
162
173
182
189
164
161
149
164
179
157
169
183
175
166
158
191
213
229
219
205
193
179
168
181
191
211
222
206
207
212
200
197
198
191
166
156
155
155
163
162
168
190
205
220
229
227
217
216
198
187
195
184
171
173
175
163
169
170
185
173
171
155
155
155
160
174
177
189
172
168
173
172
170
175
174
162
172
183
173
185
194
205
200
181
192
197
202
192
189
162
158
156
174
180
183
194
175
172
153
171
172
161
168
180
169
164
159
196
200
222
225
211
198
181
166
175
186
218
215
202
194
191
186
197
187
180
158
151
154
154
164
163
174
193
202
221
217
213
207
199
180
183
182
171
173
179
185
165
166
173
173
169
163
159
149
140
145
176
181
190
179
167
157
152
161
162
159
160
160
178
186
197
196
204
194
185
191
191
192
183
191
160
164
169
180
189
194
201
192
180
161
183
162
163
169
170
176
162
150
191
199
219
217
209
198
189
170
179
186
202
202
187
178
184
187
186
183
172
162
154
155
165
177
182
190
200
202
215
215
204
198
173
172
178
173
162
169
180
189
187
174
179
182
174
177
159
146
137
154
165
173
181
185
171
155
144
157
167
162
160
166
174
183
193
190
198
190
192
188
190
186
188
186
166
169
174
182
213
214
214
201
177
170
175
159
161
174
166
186
158
155
181
194
213
212
204
194
193
171
185
185
196
194
181
188
181
195
201
198
187
178
169
170
182
198
203
197
200
199
212
214
205
210
185
167
169
158
160
176
186
182
181
180
180
180
184
180
162
154
156
161
166
168
179
185
182
166
160
159
159
168
166
167
180
187
199
198
199
195
192
188
188
190
192
190
158
170
177
179
207
224
220
188
172
188
164
160
168
174
157
196
160
152
172
186
195
209
202
199
187
178
183
184
189
198
184
203
193
198
204
198
195
193
188
188
192
202
197
193
195
204
215
208
211
199
173
162
161
159
167
184
191
183
178
175
186
186
188
186
170
161
164
170
172
174
181
185
190
182
174
174
180
172
174
180
183
190
199
195
200
200
194
191
188
181
189
186
160
162
167
169
196
208
214
186
181
188
153
167
172
170
168
205
155
150
173
170
178
203
208
201
190
183
188
176
186
192
193
192
206
197
211
203
204
197
190
191
197
198
201
197
205
218
217
202
199
184
165
157
159
164
176
188
204
191
185
182
181
191
192
181
171
166
173
178
177
174
179
183
188
184
181
182
183
181
177
184
187
197
202
200
200
208
194
192
176
179
184
185
164
155
151
149
183
188
199
187
191
178
153
186
179
176
179
202
175
143
170
171
165
191
211
202
203
194
190
178
179
189
190
195
198
200
205
200
196
196
187
194
191
196
195
204
221
228
218
205
194
176
160
159
164
174
184
191
204
198
192
193
188
194
195
193
182
179
183
185
187
176
180
187
198
191
185
181
187
181
182
179
184
181
195
191
197
208
187
182
177
176
182
184
175
164
154
147
162
174
193
190
198
170
162
191
185
183
185
202
180
153
167
163
174
176
194
195
200
191
190
177
171
187
190
193
196
194
200
196
198
202
198
198
203
200
204
208
225
227
222
211
199
186
179
170
168
185
193
203
207
193
186
195
196
199
202
190
182
176
177
182
189
184
187
190
196
203
187
183
182
180
184
184
180
184
187
189
199
206
194
177
179
176
180
182
186
183
170
154
151
171
191
185
195
169
180
195
176
187
183
195
192
150
164
156
170
181
181
189
192
191
184
177
170
182
191
192
195
194
195
197
205
201
200
197
200
198
208
213
227
229
212
213
201
188
192
181
185
191
192
195
199
194
188
194
199
204
206
195
184
172
168
167
178
179
191
195
195
193
176
169
172
165
177
181
181
178
185
185
189
196
180
176
180
174
178
182
188
193
182
163
154
175
183
186
199
168
197
194
172
195
192
201
195
157
155
154
160
182
185
191
191
197
181
181
165
181
191
193
194
193
195
196
196
197
192
188
198
201
205
220
232
236
220
217
209
193
194
196
194
195
187
186
188
192
192
193
201
211
202
186
182
174
165
154
165
176
186
180
185
180
176
169
167
168
167
176
180
178
184
185
190
186
168
174
178
168
176
183
188
191
185
165
166
187
192
182
193
173
212
186
172
199
196
199
203
171
157
150
159
177
184
197
197
194
178
184
168
179
195
192
195
194
196
198
191
185
177
183
196
197
204
220
234
230
221
218
210
196
195
197
195
193
187
183
187
187
195
195
199
222
208
197
192
182
173
162
173
179
173
171
186
192
190
185
175
175
172
172
178
177
180
190
193
181
173
183
177
175
182
184
187
184
178
166
176
197
191
179
194
180
216
175
183
196
197
197
204
173
166
151
157
181
183
184
202
190
178
180
177
182
190
192
196
189
189
192
186
172
175
185
191
193
198
220
229
223
216
212
205
200
203
194
180
180
179
182
185
183
193
203
211
227
212
214
202
193
190
178
186
188
185
182
191
197
194
190
178
176
175
171
172
178
184
193
188
176
180
185
181
183
190
187
178
188
183
178
190
191
180
192
188
194
205
174
185
198
198
195
195
174
156
166
157
185
191
182
191
192
183
186
179
184
189
184
189
190
184
183
171
172
179
186
190
198
200
207
215
215
210
201
195
197
203
189
172
176
179
180
183
184
197
206
219
230
220
220
213
199
199
194
196
189
195
189
194
207
206
193
178
176
173
173
175
180
191
194
186
180
186
186
188
188
193
183
176
193
201
193
185
179
190
192
176
199
199
182
190
198
192
193
190
173
154
165
166
183
191
185
188
198
190
190
186
179
186
180
184
182
176
166
168
178
185
188
197
205
203
208
211
202
198
197
189
190
190
180
171
180
180
178
178
187
202
210
209
221
223
221
215
209
197
194
187
190
196
192
194
193
191
187
171
169
170
178
179
185
188
187
186
185
184
186
191
191
193
190
189
196
199
185
181
183
196
184
165
204
205
188
192
195
190
202
180
177
155
163
171
185
190
193
195
191
202
189
186
173
178
172
179
180
171
167
178
184
187
189
194
200
203
203
199
191
190
192
181
181
177
168
169
180
175
167
159
175
189
197
196
197
208
213
208
212
202
203
195
193
191
180
187
187
182
180
178
171
172
181
184
192
190
186
187
188
186
186
191
190
194
198
194
195
193
184
184
195
187
174
174
211
202
187
199
197
195
213
184
175
165
157
177
177
184
194
200
192
204
188
189
173
172
174
175
176
169
172
181
181
187
185
195
192
197
200
192
189
192
195
188
186
176
159
170
176
179
161
159
168
178
183
190
194
195
198
192
194
192
194
196
187
185
187
188
181
179
178
181
176
180
186
191
192
192
183
187
186
188
185
190
188
190
194
197
188
193
183
193
189
172
167
186
214
197
189
197
200
199
210
191
172
165
157
178
172
175
186
198
199
200
188
185
180
172
175
173
173
180
186
186
175
178
186
188
193
195
199
192
191
190
189
188
182
177
159
162
178
173
166
151
165
175
179
190
198
193
186
184
186
184
186
191
187
185
193
189
189
183
182
182
171
174
183
192
190
192
183
181
187
182
186
189
192
193
196
203
197
193
188
184
173
174
177
195
213
192
191
195
206
196
206
198
171
165
156
172
174
170
179
186
203
196
184
180
179
176
176
170
180
199
203
192
168
163
174
186
192
196
195
194
200
192
191
183
187
183
174
171
180
174
168
152
158
175
185
190
191
191
196
189
193
192
196
197
193
190
187
186
190
184
183
181
175
170
173
184
189
188
186
183
186
182
184
185
191
191
194
205
203
198
180
168
172
187
184
196
216
192
185
195
204
187
189
183
179
160
152
162
175
168
177
182
198
203
181
176
180
185
178
178
194
208
208
208
190
160
156
183
187
190
192
199
208
205
202
194
201
191
184
188
180
173
169
171
174
182
198
199
193
199
201
202
202
203
201
203
198
189
187
183
184
185
187
178
177
174
166
177
183
185
190
186
187
187
184
175
185
188
194
205
203
187
174
172
185
189
179
203
212
188
188
199
200
186
182
173
179
164
155
155
170
168
175
190
191
200
190
176
187
187
187
186
199
205
213
216
214
180
154
174
186
191
196
203
211
201
193
181
179
175
170
176
174
176
180
186
194
200
204
199
194
203
201
196
199
200
196
200
192
191
185
182
175
179
180
178
174
172
172
171
176
181
191
188
193
189
189
176
180
183
200
200
199
183
179
185
186
179
181
203
210
189
194
197
202
192
182
182
170
172
159
152
174
169
170
183
187
194
187
187
190
198
192
192
198
203
213
215
216
191
176
173
181
190
206
198
193
194
183
176
172
162
151
153
174
179
185
191
190
203
201
198
188
191
192
183
185
190
190
188
191
184
180
184
175
167
176
174
173
170
175
178
169
176
187
188
183
190
180
173
169
184
202
191
193
177
178
178
179
176
185
210
204
184
196
196
200
195
177
184
178
169
161
153
180
177
170
176
186
185
195
198
196
196
197
192
205
204
205
207
212
200
184
178
182
187
191
188
177
172
176
174
171
165
166
178
185
184
184
187
189
198
199
201
191
191
186
185
178
186
184
185
186
182
181
182
177
177
179
182
179
176
179
177
179
174
183
186
184
186
173
176
171
185
198
191
184
175
171
172
174
179
190
211
195
188
199
198
199
195
170
177
188
177
163
156
185
178
174
175
181
184
199
199
198
197
205
193
202
207
206
207
210
209
190
178
177
182
181
178
166
175
170
175
173
172
175
187
185
186
184
187
189
190
196
207
203
201
188
193
195
195
186
184
185
182
185
175
175
182
186
195
195
188
182
180
183
177
180
179
182
178
174
176
168
186
193
192
177
170
164
165
168
179
195
209
192
186
199
198
200
192
163
171
185
182
169
161
186
182
175
177
182
184
197
197
198
196
205
199
199
205
207
209
212
210
192
178
174
167
171
174
166
172
168
170
178
181
179
188
185
188
183
185
192
188
188
206
213
206
196
189
199
209
193
182
172
174
183
169
164
177
184
178
179
185
189
194
194
185
178
176
176
169
174
177
169
178
190
183
177
164
162
162
168
184
202
209
187
190
202
198
204
192
167
161
177
183
180
161
178
186
176
181
185
186
197
200
203
196
202
204
196
200
205
210
212
205
190
173
168
158
155
165
160
165
174
175
181
187
193
196
196
193
188
188
199
187
181
193
215
213
203
194
193
211
194
178
174
169
173
162
167
179
172
168
171
178
179
189
177
171
176
177
164
161
170
172
173
176
183
180
177
166
166
165
172
191
208
206
192
189
196
200
200
196
166
161
171
178
191
166
165
187
179
184
181
191
186
198
206
191
192
200
189
194
202
209
215
207
194
190
179
165
161
162
155
167
174
176
183
196
206
200
196
190
184
178
186
182
171
181
202
208
201
194
186
207
184
165
169
161
168
164
159
169
172
169
172
174
172
170
159
156
163
169
153
156
165
155
161
175
174
180
177
168
170
173
179
199
214
205
188
192
194
199
199
195
168
163
161
181
184
179
156
186
185
181
183
187
180
190
199
192
184
186
188
187
194
202
205
209
198
205
202
188
185
172
165
167
179
180
192
198
200
199
196
198
192
189
191
174
173
178
194
197
188
177
163
192
172
167
169
163
171
181
169
172
176
167
175
172
164
167
165
159
167
157
146
157
158
150
155
169
170
177
177
170
176
179
189
205
219
201
184
188
195
199
193
194
168
163
161
176
177
182
164
180
179
184
179
181
186
180
194
188
188
171
180
180
179
188
188
184
184
189
194
195
202
194
185
175
176
178
181
186
189
193
203
208
217
216
207
193
195
201
198
204
198
187
177
197
190
181
186
179
182
193
189
183
179
178
176
183
171
177
177
175
180
155
160
165
159
147
152
163
171
173
176
179
181
187
192
212
219
195
187
191
191
191
200
194
171
168
163
170
171
182
173
174
184
182
181
186
180
178
188
192
198
177
160
165
170
169
173
165
166
178
177
175
177
183
180
167
160
155
158
165
179
184
195
200
209
206
200
204
204
198
195
199
205
208
199
208
206
194
198
194
192
196
199
195
186
191
184
191
183
180
183
185
181
168
181
183
166
159
162
171
173
173
179
180
186
188
195
219
213
191
187
192
187
193
197
194
175
169
164
169
174
178
174
182
183
188
181
188
182
173
183
189
193
201
192
174
169
164
148
149
140
163
161
179
173
170
166
167
165
158
159
167
176
179
192
191
195
201
195
202
196
178
183
199
200
204
199
200
197
185
185
184
182
189
188
192
188
187
188
189
186
182
185
188
180
177
189
180
169
167
173
185
179
174
182
184
189
186
203
220
207
190
186
192
189
191
199
193
181
171
164
171
177
178
182
175
194
184
186
189
185
172
182
191
191
202
198
194
191
185
176
169
153
163
155
172
175
167
161
169
176
174
179
174
182
177
179
173
167
181
172
167
155
152
161
182
186
185
187
187
187
180
178
178
181
184
177
183
181
180
185
189
177
180
183
189
173
174
177
171
167
166
187
191
183
179
188
191
186
190
213
219
197
185
191
193
187
190
197
196
185
165
162
171
172
180
181
181
191
193
190
189
184
177
177
177
181
202
205
202
201
193
204
204
202
188
175
177
181
166
165
165
171
171
168
171
174
162
170
159
152
158
158
151
164
168
169
186
188
186
190
185
184
179
182
185
183
181
181
179
181
176
187
191
187
183
190
188
170
177
174
168
166
170
196
201
188
182
191
192
186
195
217
209
186
191
189
193
187
187
196
194
188
163
170
168
179
179
184
180
182
197
190
195
188
178
168
179
186
199
209
203
195
178
197
205
212
218
212
208
202
192
181
172
170
169
161
166
168
171
173
174
174
178
173
179
180
187
185
185
186
179
181
181
176
178
176
188
189
184
185
187
187
183
191
190
188
177
186
181
174
178
169
169
163
173
209
205
189
186
189
188
188
205
217
195
181
187
192
191
192
179
198
195
188
171
178
164
174
183
182
181
176
198
192
183
184
181
161
186
184
190
201
191
182
169
183
194
199
212
217
223
218
205
199
196
199
187
180
181
175
181
182
177
184
185
183
185
180
186
186
185
180
182
181
179
181
179
180
184
193
185
194
188
188
183
185
188
179
187
194
186
178
173
169
166
163
186
210
207
192
192
185
185
193
218
210
185
179
184
189
197
190
177
192
193
189
184
166
158
175
180
179
178
172
176
189
182
179
181
173
191
178
180
170
182
187
177
174
186
190
189
195
204
202
202
199
192
197
196
188
182
180
186
178
174
178
185
180
188
187
188
187
179
179
175
179
179
178
183
178
172
185
185
185
182
181
181
186
183
184
194
199
185
179
173
174
169
166
198
213
202
191
204
186
191
204
217
194
182
181
185
190
197
191
178
186
194
199
185
159
154
166
174
173
170
170
163
185
188
172
176
173
185
182
163
167
172
183
182
176
180
186
185
179
184
181
183
186
181
179
180
179
172
170
174
171
170
172
176
174
182
183
189
182
180
171
172
166
168
164
168
167
166
170
174
175
178
179
180
184
187
193
199
209
181
174
173
171
171
169
201
214
201
184
204
195
201
216
207
184
176
184
183
187
198
189
177
181
183
200
174
152
149
163
177
172
168
169
164
169
178
162
172
171
173
180
158
164
170
178
184
174
175
184
176
176
175
173
171
171
167
164
165
172
166
162
168
162
169
167
174
176
182
183
181
187
186
186
181
173
169
165
163
164
168
169
171
174
175
179
186
182
189
195
202
203
177
170
172
172
164
176
209
212
198
188
187
209
220
232
206
183
174
183
183
187
199
188
182
178
179
196
171
150
147
153
177
179
170
171
167
144
163
178
188
163
158
186
159
164
169
176
181
177
174
175
171
174
169
169
163
162
161
161
160
167
175
165
172
172
179
177
178
183
184
188
185
186
191
186
182
179
171
168
165
173
174
178
173
180
186
188
184
187
193
196
197
195
174
172
169
172
162
178
208
216
190
176
182
217
242
229
202
189
174
180
180
184
195
187
177
182
177
199
168
150
144
154
176
187
172
170
152
135
188
198
180
161
153
176
162
161
162
168
183
174
175
173
176
172
173
167
167
163
161
161
162
167
169
171
166
173
180
181
187
191
192
197
190
189
192
181
179
179
172
170
170
172
178
180
175
183
189
186
188
190
197
192
190
190
174
171
167
170
171
183
205
212
187
173
177
213
242
224
200
195
180
176
182
182
194
185
178
180
175
188
168
145
146
151
174
197
171
152
145
158
196
201
175
163
158
167
169
175
162
168
179
183
174
180
179
183
179
175
170
167
160
158
161
165
165
166
164
169
173
174
186
187
191
188
188
187
192
183
183
180
177
173
177
179
184
191
185
190
197
193
198
199
195
188
187
192
176
171
169
171
174
190
199
200
187
181
191
197
216
213
209
198
186
178
178
184
190
179
177
181
176
184
171
152
143
155
183
191
161
134
151
179
188
197
188
164
153
167
169
175
174
168
174
173
182
184
184
186
186
187
184
176
169
169
164
168
165
169
163
170
169
168
180
183
183
181
181
178
181
176
181
174
178
185
181
187
188
196
195
198
200
197
191
187
186
189
189
189
173
169
173
173
184
188
198
188
174
194
206
186
180
196
216
198
189
182
178
183
192
173
174
181
174
187
179
156
152
160
177
171
143
149
170
179
192
199
198
165
146
163
171
175
179
183
171
165
173
182
183
183
191
195
194
189
180
184
174
170
176
171
170
169
170
166
172
180
173
177
178
175
172
171
176
168
173
187
186
189
195
196
198
201
200
186
182
177
179
189
193
188
167
164
172
173
190
191
188
192
173
192
206
178
169
179
202
202
188
192
186
194
189
178
178
184
178
191
182
157
154
163
166
182
195
208
199
180
205
201
188
170
143
158
164
181
176
192
183
169
168
171
181
182
183
197
194
194
187
190
189
182
191
183
184
176
180
181
174
178
170
168
172
168
168
173
173
176
175
181
190
193
195
193
199
195
189
175
180
182
180
187
195
183
166
167
172
174
189
185
192
185
185
176
181
174
169
176
183
199
193
197
193
192
192
179
177
184
177
191
178
155
177
190
203
207
188
202
177
183
202
206
186
162
149
154
160
182
180
183
191
181
173
163
169
175
182
186
195
195
193
189
190
182
189
185
184
190
187
186
185
179
172
172
164
167
165
171
170
173
178
183
190
191
196
194
194
186
186
177
183
187
187
189
194
186
165
165
167
183
194
190
186
176
186
171
152
166
167
175
174
187
193
191
196
201
187
174
179
180
178
194
190
204
230
198
203
180
196
201
176
195
211
198
186
164
153
160
157
180
177
186
184
191
175
173
163
173
175
178
182
189
189
193
189
186
191
183
183
193
194
189
189
181
168
173
165
164
166
166
168
171
176
180
186
194
197
192
189
182
184
184
191
190
197
186
190
195
175
165
174
197
205
187
188
161
170
169
134
154
163
170
180
170
190
193
194
200
180
183
178
184
176
214
245
234
223
184
193
164
200
196
176
203
206
192
199
170
151
158
161
175
180
180
190
189
177
176
170
168
166
170
175
182
185
189
188
187
189
185
185
192
194
193
186
181
169
170
167
161
164
168
168
172
175
178
185
193
189
185
183
181
178
186
191
196
193
186
189
192
191
183
186
209
207
186
175
162
148
160
142
143
163
165
183
170
179
189
189
198
179
180
177
183
178
255
251
231
202
177
178
172
200
186
180
200
188
195
204
165
156
156
162
175
176
191
189
181
174
174
175
168
171
165
168
173
178
188
183
182
179
181
187
194
191
195
191
183
177
178
171
171
171
173
172
178
179
187
184
184
183
180
181
180
188
188
191
194
189
186
194
192
195
201
218
234
218
198
163
166
142
148
148
139
156
169
184
170
175
185
192
191
179
186
179
183
176
251
234
229
186
169
178
173
191
179
176
199
191
207
188
158
168
159
164
177
174
193
190
175
170
168
167
169
182
169
168
169
170
180
184
186
181
175
185
186
184
193
189
188
182
186
176
178
178
176
179
188
180
187
182
182
182
181
180
192
191
192
192
191
194
186
195
198
196
210
226
232
204
176
190
198
151
152
142
138
165
164
178
166
164
181
191
183
175
187
184
184
187
246
230
223
187
170
186
166
192
171
180
218
194
203
183
152
181
170
164
178
181
193
184
176
170
169
164
165
174
177
177
169
166
181
184
186
181
181
180
178
174
183
180
185
184
187
182
176
186
186
185
194
186
189
186
182
181
189
189
191
194
188
192
192
194
188
194
197
202
220
228
221
199
163
170
230
202
168
144
138
171
166
178
164
152
179
186
177
182
185
188
175
180
236
221
221
179
173
193
166
175
173
177
221
189
198
174
160
184
176
165
170
178
194
174
174
173
171
165
165
171
175
179
172
170
175
179
186
181
182
178
174
172
174
170
175
180
181
186
186
188
187
190
185
188
190
191
186
192
184
185
189
190
186
183
189
194
191
194
194
213
223
215
208
189
169
149
235
220
189
182
157
167
167
180
165
151
171
181
167
181
178
183
181
174
232
222
216
184
179
194
168
170
178
172
213
185
199
173
166
184
179
168
170
173
188
179
172
175
173
166
165
165
168
179
171
179
176
180
183
183
183
181
182
177
175
178
170
176
180
188
195
189
185
189
185
191
193
198
192
192
182
184
183
188
185
187
186
191
195
198
197
213
219
209
197
187
173
158
241
221
186
184
205
184
168
175
165
154
171
177
168
176
172
178
175
176
226
214
210
188
182
198
169
155
170
171
199
187
212
180
167
181
185
172
175
178
176
177
173
177
171
173
167
168
170
179
175
177
185
183
180
186
189
186
184
185
182
182
176
179
180
182
185
188
185
190
190
195
190
191
188
189
185
180
181
186
190
192
189
193
195
194
198
212
209
203
190
190
173
182
241
222
179
181
202
218
211
176
166
155
162
172
168
172
166
172
174
166
216
209
207
189
191
190
177
150
180
165
186
180
216
184
168
185
179
173
167
183
176
171
166
175
174
172
168
170
171
183
180
183
179
185
184
186
188
189
197
191
184
186
182
186
180
182
187
183
183
184
188
188
185
192
185
189
184
184
182
185
191
189
189
188
192
195
203
208
198
204
196
179
181
208
241
218
172
183
198
219
225
215
201
161
148
161
166
168
167
173
170
163
216
212
197
185
190
180
178
168
196
170
179
183
219
189
168
178
175
168
165
181
181
173
166
172
172
168
166
170
169
174
185
181
173
175
177
177
178
186
190
197
195
195
192
189
189
184
190
183
182
185
183
178
180
179
177
186
180
182
177
190
186
188
187
195
196
202
201
201
195
201
196
166
202
224
230
219
175
182
197
224
210
210
221
201
183
160
151
148
170
166
166
160
