P2
# Face with average contibution
92 112
255
188
190
191
192
194
192
192
191
191
190
190
187
187
190
194
187
186
190
186
184
180
179
174
170
172
171
168
167
160
162
164
162
161
160
160
160
157
155
154
151
153
153
153
152
150
153
152
157
157
156
154
153
159
158
154
156
160
159
157
159
162
159
155
158
162
169
172
173
173
170
166
170
172
176
177
179
179
178
181
182
182
179
179
180
181
182
183
182
183
185
183
182
189
191
193
191
192
192
190
191
190
188
189
188
186
189
186
186
185
183
182
177
173
170
171
169
168
167
166
165
162
160
163
163
160
160
158
157
155
155
152
151
150
150
152
155
151
151
147
149
154
155
154
153
153
157
155
154
159
162
162
161
160
162
156
155
158
161
163
160
164
166
168
165
170
174
172
177
179
179
179
182
179
178
177
178
177
180
181
182
183
183
182
181
191
192
192
190
192
191
192
189
188
188
185
185
184
186
185
180
179
174
175
173
174
169
169
166
164
162
159
161
162
163
163
159
157
157
156
155
155
153
155
152
153
151
151
154
153
152
148
148
149
151
153
151
150
152
150
152
150
153
158
160
158
157
157
154
155
159
161
158
156
158
162
165
167
171
174
173
174
179
179
177
177
177
174
179
180
178
177
180
182
182
182
179
193
191
194
192
192
190
191
190
185
186
186
186
186
183
180
177
178
168
172
172
169
167
166
164
163
159
159
161
159
158
155
155
156
156
153
152
156
154
155
154
154
154
152
151
148
151
151
149
149
149
150
148
144
140
144
147
145
147
147
152
154
151
154
151
155
154
152
155
158
154
155
163
163
163
170
175
171
175
175
176
177
175
177
179
178
179
178
179
180
182
180
182
191
193
195
193
195
189
188
188
187
184
185
189
184
180
177
176
175
171
169
170
163
163
163
162
163
163
163
162
157
158
157
157
159
154
154
151
153
156
154
153
152
155
154
152
150
150
150
148
146
148
149
149
149
147
144
146
145
146
143
146
152
153
151
152
151
152
148
146
154
153
152
156
159
160
159
167
172
175
173
175
175
174
176
180
177
180
180
179
180
179
181
180
194
194
195
195
195
192
187
186
183
179
184
182
181
178
176
174
172
169
165
163
161
163
161
160
161
165
164
163
162
160
162
163
162
159
155
156
152
155
156
155
153
153
155
151
151
149
146
147
148
148
152
150
149
153
149
147
147
150
147
145
150
151
151
153
149
149
147
145
146
151
149
151
155
158
157
155
165
175
171
174
178
174
175
175
177
179
180
180
180
181
182
182
196
195
193
193
194
190
187
180
180
181
183
180
176
175
174
173
169
168
166
166
165
163
161
158
161
160
166
162
165
162
162
162
163
159
159
159
156
154
154
154
154
152
156
155
155
155
155
153
150
154
153
154
154
156
157
152
149
148
151
150
152
152
150
150
149
147
147
146
145
145
146
146
151
157
161
159
157
168
174
178
177
177
177
174
175
180
181
181
179
182
181
183
196
197
193
194
191
187
177
179
180
182
181
179
177
172
168
166
165
165
167
165
169
165
164
162
161
162
164
164
167
164
165
166
165
164
163
161
159
159
158
156
157
157
160
162
160
158
159
159
161
162
160
159
156
158
159
157
154
154
153
153
156
155
158
152
153
148
147
151
147
146
144
143
144
150
158
162
157
164
167
174
177
178
181
180
178
178
180
181
181
182
183
181
195
196
192
188
184
182
179
179
180
179
180
176
170
166
164
161
164
166
168
167
169
168
167
164
162
163
164
168
170
170
169
168
170
166
168
165
163
162
165
161
161
164
162
163
162
169
164
161
165
165
163
166
164
165
164
163
164
159
163
158
154
157
159
159
156
157
151
151
153
148
148
144
143
147
150
155
158
163
168
169
172
176
182
182
179
178
182
182
181
183
184
182
196
193
188
182
183
183
180
182
180
179
177
172
168
167
166
164
165
167
169
175
173
172
173
168
163
165
167
166
173
174
173
172
172
171
170
168
168
165
167
168
168
169
168
168
168
169
168
170
170
167
166
170
170
171
170
170
168
165
165
166
163
161
162
161
161
158
156
155
155
153
151
149
146
145
147
153
158
159
165
165
167
170
177
181
179
181
183
184
181
181
183
183
197
190
185
183
183
181
180
182
179
177
177
173
168
167
166
166
164
166
170
173
174
171
172
171
164
166
164
171
172
171
172
174
173
175
173
172
170
171
168
169
172
173
174
175
173
172
174
173
171
171
172
171
172
173
176
179
174
171
171
169
170
170
167
162
163
162
158
156
155
155
156
150
148
149
147
148
157
158
161
161
162
165
169
180
179
179
180
180
181
183
184
187
193
188
187
187
183
179
182
182
180
178
177
171
165
164
164
163
164
169
172
172
170
168
171
171
171
170
171
176
175
175
177
180
176
175
175
173
171
174
174
178
181
181
182
184
182
177
175
175
176
174
174
174
176
180
177
180
179
177
172
171
170
176
173
166
165
165
163
158
156
156
156
154
152
154
147
146
148
161
160
160
162
165
164
171
176
184
179
179
181
181
185
187
187
186
186
184
182
180
184
181
178
175
173
169
168
167
166
167
167
172
174
173
171
171
175
175
171
174
177
183
180
179
182
184
180
178
180
179
177
178
179
181
185
187
190
188
190
186
183
181
180
177
176
178
176
179
179
178
178
179
177
173
172
174
177
171
168
168
168
166
161
157
159
156
153
155
152
148
145
151
160
162
166
165
164
169
169
181
185
181
181
179
184
186
185
187
184
183
182
182
185
179
176
172
171
168
169
167
170
170
175
177
173
170
174
178
181
177
177
180
180
186
189
188
188
188
185
185
186
185
187
186
189
186
190
191
191
191
191
189
188
185
186
183
181
180
180
180
181
179
181
174
177
175
175
174
173
175
171
169
168
170
167
164
157
160
158
153
156
154
153
146
154
160
162
166
164
167
167
174
181
183
182
181
181
184
186
188
187
182
182
183
181
178
174
169
168
168
167
172
174
175
177
173
172
175
179
181
181
183
182
183
190
190
194
194
194
194
193
193
195
192
190
193
193
192
191
193
195
192
195
193
190
190
188
189
185
187
183
181
179
179
177
172
172
173
176
177
172
171
170
170
167
168
167
167
164
160
161
159
157
158
157
153
151
160
160
161
166
167
164
168
178
176
183
184
181
184
188
191
189
183
184
184
180
179
172
173
172
169
169
174
179
180
176
174
174
180
180
186
186
187
188
188
197
194
194
196
196
196
196
196
197
193
193
195
196
196
193
193
196
195
196
197
195
196
192
191
189
191
187
184
178
177
173
172
168
167
170
173
171
169
169
168
162
161
165
166
164
166
164
159
162
160
159
154
157
155
164
161
167
168
164
165
171
176
175
181
182
182
191
191
191
185
187
184
180
174
172
172
172
171
169
176
180
177
176
174
180
185
185
189
188
186
191
194
196
194
195
198
198
198
198
196
197
194
195
196
199
199
194
195
196
195
194
197
198
196
196
193
192
191
189
187
181
177
173
173
169
166
165
166
168
167
165
164
165
162
161
167
166
166
162
159
166
164
158
160
157
154
160
167
167
165
166
167
164
173
173
175
180
183
193
193
188
186
186
182
176
173
173
175
174
171
172
176
183
180
178
180
184
186
189
190
188
189
197
197
197
197
196
201
201
198
196
196
197
196
197
198
200
202
197
195
199
197
196
197
198
194
195
192
193
189
188
186
184
181
177
177
173
166
163
163
167
167
164
161
164
157
159
158
160
159
160
162
165
165
161
161
163
158
154
164
168
167
163
165
167
171
173
174
177
177
191
191
188
186
181
178
173
173
175
174
172
173
176
181
183
183
181
182
188
190
190
192
192
198
201
199
198
198
198
198
197
196
198
199
195
199
197
198
197
198
194
194
196
197
194
197
197
194
192
188
190
187
185
185
185
183
179
177
174
167
165
163
162
167
164
158
161
158
157
156
156
158
161
161
163
163
162
162
164
163
157
157
165
170
165
165
164
166
171
174
176
178
190
189
183
182
177
176
173
174
174
174
173
177
183
185
183
185
185
186
191
191
196
193
202
202
199
199
197
197
197
197
194
195
198
199
197
199
199
196
195
196
193
192
190
192
191
190
193
190
186
186
183
183
182
182
183
182
179
177
172
167
167
163
162
163
162
158
158
157
155
156
156
155
158
158
162
160
159
161
162
162
161
158
161
168
170
164
162
164
169
172
172
182
189
188
181
177
177
174
174
178
177
178
178
184
186
189
184
186
191
192
194
199
200
201
205
204
199
197
197
197
195
194
192
195
195
195
193
196
195
193
193
192
189
189
187
186
185
187
186
186
184
180
181
178
179
177
180
178
180
177
175
169
169
167
164
163
161
158
161
157
155
155
155
154
157
155
156
158
159
159
161
161
163
162
159
165
172
167
164
165
167
171
172
177
187
187
183
178
176
175
174
183
180
181
182
185
190
193
189
191
192
199
201
205
202
204
203
203
200
197
197
195
195
192
192
194
193
190
192
193
190
190
188
187
186
184
183
181
181
181
180
180
178
178
177
176
177
176
176
174
175
175
173
170
169
164
163
162
161
164
160
159
156
157
158
154
156
155
154
159
157
158
161
161
161
164
159
162
169
169
168
169
163
172
171
172
190
187
182
174
175
177
179
181
181
186
185
190
196
198
195
196
201
206
204
207
205
206
205
202
200
201
198
195
194
195
194
192
189
189
188
188
189
188
185
185
184
183
180
177
177
174
177
174
174
175
175
176
174
175
173
172
171
170
173
172
170
168
163
162
159
164
162
159
156
155
159
158
152
156
156
157
156
155
158
158
156
162
159
162
166
167
170
168
168
167
172
171
192
187
180
174
177
178
182
182
186
187
188
194
200
200
196
200
204
208
208
209
207
205
203
202
202
202
199
196
196
199
193
189
190
189
188
187
188
187
186
184
182
180
176
174
173
170
172
171
171
171
175
172
174
175
173
173
172
169
171
171
173
171
167
163
161
162
162
161
159
156
158
160
155
154
155
156
156
153
154
157
155
157
161
161
165
166
166
168
170
165
170
175
190
188
179
179
181
183
182
185
187
188
189
199
203
202
202
205
208
210
211
210
209
208
206
204
204
199
199
198
198
198
194
193
193
193
191
190
188
187
185
184
181
178
175
171
172
168
169
170
170
170
174
173
173
176
173
175
174
171
173
171
172
171
168
166
159
160
160
164
160
160
158
157
158
153
153
154
153
154
151
155
155
156
160
162
169
166
162
166
169
166
169
172
191
185
183
184
183
182
183
186
189
188
195
200
207
205
209
210
213
213
213
213
213
210
208
206
203
201
201
199
200
198
197
198
196
196
194
190
189
188
185
183
179
177
174
173
172
170
168
171
170
169
171
175
173
174
173
174
174
172
172
170
170
169
168
167
162
158
159
161
162
164
160
157
158
158
156
152
151
152
154
156
155
155
159
163
170
169
167
164
168
165
169
169
187
185
184
185
183
181
181
189
189
196
201
203
208
208
212
214
215
213
214
212
211
211
211
208
206
204
202
202
203
203
201
199
198
196
194
193
191
188
184
183
181
178
175
175
174
172
170
170
171
169
170
174
171
172
171
174
173
172
170
167
167
167
165
166
163
157
157
157
160
165
164
161
157
157
158
157
152
151
150
154
154
152
155
165
168
169
166
166
167
167
164
167
186
187
186
186
183
183
187
192
197
205
203
208
207
214
218
215
216
215
216
214
212
211
209
211
207
205
206
202
202
202
199
199
196
194
194
193
190
186
187
185
183
179
178
177
174
174
172
173
172
171
170
173
172
172
169
171
171
170
168
165
165
166
162
162
163
158
153
154
154
162
165
164
161
158
157
158
155
150
149
153
157
154
151
164
170
169
165
168
169
171
165
167
188
190
186
185
184
187
190
197
202
207
209
209
207
219
220
217
217
217
218
217
213
210
207
207
206
206
206
203
199
201
200
199
197
193
193
192
188
187
187
185
183
181
180
180
177
175
176
175
173
173
172
172
171
172
168
169
169
169
166
164
164
165
164
161
161
158
156
150
148
154
165
166
163
162
157
155
156
152
148
148
157
157
154
154
166
171
168
165
170
171
166
165
190
189
185
185
186
189
192
201
204
208
211
211
213
223
223
219
220
220
221
219
215
208
207
206
206
204
202
201
198
199
198
195
196
194
193
193
189
188
188
186
185
184
181
183
181
180
179
178
175
175
172
171
171
170
170
168
168
167
166
163
162
162
162
162
159
156
155
152
147
146
156
164
164
162
159
155
155
153
154
153
150
155
157
158
162
168
171
168
168
173
167
169
191
186
184
183
187
192
196
200
208
211
210
214
219
228
225
224
225
223
223
222
217
210
207
206
204
202
200
201
200
198
196
195
193
192
192
192
189
187
188
188
187
187
184
184
184
183
182
181
180
177
174
172
172
171
169
169
169
167
166
163
163
162
161
160
159
159
155
154
151
146
148
155
161
164
160
155
152
150
152
157
155
153
159
165
165
166
171
172
170
172
169
165
189
187
182
183
186
193
196
206
212
210
213
217
227
235
229
228
226
225
223
223
217
212
208
202
200
200
199
199
197
193
193
191
190
189
188
189
187
186
188
187
188
188
187
187
187
186
186
184
184
181
177
176
173
171
169
170
169
167
166
166
164
162
160
159
160
158
157
154
152
149
148
148
154
163
162
157
155
150
152
155
162
156
159
167
170
172
175
172
171
171
171
167
190
185
184
186
189
194
200
211
213
214
218
223
235
239
235
228
226
225
223
221
215
209
204
201
198
198
196
194
193
190
189
185
184
185
185
183
185
184
185
186
187
189
189
190
189
190
190
190
188
186
181
178
176
173
171
169
167
165
164
163
163
161
159
159
158
157
156
154
154
150
150
146
147
156
161
160
156
152
152
156
161
158
162
168
172
174
181
177
172
168
171
166
189
185
186
190
192
196
206
214
218
217
225
230
241
242
234
231
227
225
222
221
210
204
199
197
195
193
191
188
187
189
183
181
180
182
181
181
182
185
185
187
189
191
194
193
195
194
193
192
190
189
186
182
179
176
172
169
168
166
165
164
165
161
160
159
159
159
157
157
152
152
150
149
148
150
156
161
162
156
150
155
162
162
159
172
174
178
178
183
176
170
170
162
190
186
185
194
192
202
206
216
219
222
226
233
245
241
236
233
226
224
219
211
201
196
195
194
189
188
185
185
184
181
178
177
177
180
182
182
186
187
187
189
191
192
194
194
197
199
196
195
192
190
189
187
183
177
175
171
170
169
168
168
167
166
167
164
163
163
162
162
157
153
154
151
148
151
148
160
159
161
154
153
160
162
164
175
179
175
176
177
178
176
172
165
193
190
184
194
196
204
210
218
221
226
228
241
250
246
237
233
226
223
215
206
201
198
196
191
186
181
182
181
180
176
176
172
174
176
178
181
185
188
189
192
191
191
191
193
194
197
196
194
193
191
189
185
183
180
177
172
170
170
168
170
167
168
168
166
166
163
165
165
161
158
156
155
152
153
147
150
161
156
160
155
156
162
163
175
181
175
175
173
175
178
170
171
201
193
188
195
199
204
210
217
225
230
234
245
250
249
239
228
220
219
212
205
205
199
195
191
185
183
181
179
179
177
176
173
174
174
176
180
184
186
188
193
191
194
194
193
192
193
195
193
189
189
189
185
181
178
179
175
169
169
167
167
168
167
164
165
162
161
162
165
163
164
159
158
156
154
150
147
155
155
151
156
154
158
164
177
178
175
173
178
173
173
173
171
201
194
186
196
201
205
212
218
229
233
240
250
253
247
238
225
221
217
212
206
206
204
200
197
194
188
185
180
177
173
169
167
170
170
170
175
178
180
182
188
190
193
191
192
192
191
192
192
190
189
189
186
181
178
177
172
169
168
168
168
169
166
166
162
160
157
158
164
164
165
163
161
159
158
155
148
150
153
148
150
153
157
168
174
177
173
172
175
175
177
176
173
198
193
189
196
201
208
211
218
227
236
242
255
253
249
237
229
223
215
214
210
214
208
204
199
197
191
187
181
175
173
165
161
163
163
163
166
169
173
174
179
186
189
190
193
191
191
192
192
191
188
187
184
179
179
176
175
172
168
168
172
168
164
164
156
157
156
155
158
160
160
161
162
160
161
159
154
151
154
149
147
148
157
171
176
175
178
174
173
174
174
179
171
194
193
196
199
203
207
213
217
224
235
241
252
254
248
236
231
222
214
216
212
214
211
206
202
194
189
186
184
181
177
171
167
166
167
169
167
167
169
170
175
180
188
192
192
191
189
192
191
190
189
189
188
184
180
182
180
176
174
173
172
168
156
164
149
151
154
153
157
152
155
156
159
160
159
162
159
154
158
153
144
149
154
168
176
176
178
176
177
177
176
176
175
193
197
202
201
205
204
213
217
226
234
239
252
252
248
236
229
221
216
214
215
217
215
210
205
201
196
194
192
180
177
178
164
169
167
172
167
166
170
168
173
182
186
192
192
194
191
194
192
192
191
188
181
179
177
180
177
171
179
178
171
171
166
161
153
156
156
160
157
155
154
156
156
159
158
158
159
158
162
159
152
153
159
165
169
176
180
178
181
181
178
175
178
195
199
205
200
207
212
213
214
225
230
242
249
248
247
236
229
221
219
217
219
216
212
208
211
203
203
203
199
189
186
191
180
182
181
184
182
180
180
179
181
187
191
196
197
200
198
196
194
192
187
184
177
174
173
178
182
177
184
185
179
178
176
173
171
173
177
174
168
164
160
162
164
165
158
164
159
154
162
161
149
147
164
170
172
175
184
183
183
187
181
176
171
199
199
208
203
213
215
216
211
222
229
242
248
246
248
236
229
222
221
217
214
216
208
207
204
204
207
207
202
193
185
186
189
192
196
196
192
193
193
188
184
191
196
195
201
204
201
194
194
189
186
186
180
173
175
183
185
188
193
191
184
184
175
175
179
179
181
182
177
170
169
163
169
170
164
167
175
159
160
159
156
148
159
168
175
177
182
178
183
187
184
177
168
201
203
207
201
216
215
212
214
222
229
245
249
245
246
236
230
227
223
221
220
216
210
211
201
208
210
207
202
195
195
196
193
198
193
194
194
195
202
198
193
197
203
205
206
209
205
201
197
193
188
186
182
176
180
187
189
188
189
192
176
178
168
170
173
171
178
182
176
167
169
165
175
174
170
170
180
170
169
151
154
149
160
166
174
187
175
169
180
183
186
176
167
198
206
204
205
213
213
208
216
227
233
243
239
246
246
236
220
221
218
217
220
211
209
210
206
209
215
216
201
197
202
194
194
193
198
190
190
189
197
197
191
190
197
201
198
206
203
201
198
194
189
187
184
176
182
186
189
190
192
193
182
181
174
176
179
178
179
174
180
173
168
164
164
175
169
164
174
162
175
154
145
151
160
164
165
185
178
163
178
182
181
175
165
194
202
202
207
212
217
211
219
233
233
231
242
248
247
235
226
216
221
217
224
205
196
198
204
209
214
207
195
195
193
187
190
189
194
190
183
188
193
194
188
184
186
194
195
192
196
194
192
191
185
185
183
177
179
184
185
188
193
187
187
186
173
181
176
179
183
167
176
177
170
168
158
161
168
159
166
165
159
165
146
152
159
167
166
171
175
164
171
181
178
174
159
198
199
200
201
212
217
218
219
232
229
234
242
246
246
232
224
220
216
215
210
194
185
190
194
200
194
188
181
185
176
178
185
186
191
183
178
185
180
182
193
192
188
198
200
196
202
201
202
200
194
191
183
176
182
185
186
187
198
198
194
190
175
176
180
181
180
171
174
176
171
168
167
158
165
162
162
164
165
165
155
151
162
167
170
171
167
162
165
172
168
168
158
200
197
196
199
204
213
215
219
225
227
240
247
242
242
229
221
217
216
208
197
192
187
193
199
196
191
182
184
181
173
167
171
176
182
181
188
179
177
185
189
198
192
194
203
205
208
212
211
202
204
195
192
176
183
185
188
193
197
199
196
193
189
184
184
185
182
180
176
173
171
169
169
163
162
162
163
165
166
174
163
151
168
169
168
173
164
158
161
161
160
165
158
201
201
194
201
201
217
209
219
227
228
238
247
244
234
221
214
211
207
200
193
198
201
204
205
197
193
192
190
187
177
177
179
179
171
173
183
181
181
191
191
194
200
197
209
214
211
212
207
199
197
194
190
174
176
183
196
195
196
197
196
196
192
188
184
184
189
179
177
174
172
175
171
169
171
164
157
161
163
173
165
150
158
162
168
171
164
154
161
166
152
164
158
202
203
195
205
207
210
203
209
229
230
234
243
244
236
226
208
204
207
200
198
200
203
203
203
200
196
194
192
183
178
191
190
186
181
179
183
183
186
193
197
198
202
198
209
214
209
202
197
188
188
184
186
175
168
181
193
189
194
193
196
193
185
183
182
188
184
175
173
173
173
179
181
178
173
167
160
164
166
170
164
146
147
159
162
172
158
148
158
167
153
159
160
202
196
191
202
206
211
209
212
228
236
234
245
242
236
226
203
205
212
202
197
197
197
202
207
205
206
209
202
196
192
194
196
184
194
188
191
193
204
200
202
204
202
198
206
210
199
197
196
187
184
174
175
170
163
178
184
185
189
185
188
187
183
180
175
182
178
176
170
171
173
185
182
183
179
170
164
166
170
173
171
156
145
158
161
168
160
143
152
166
161
156
162
200
190
185
200
202
201
207
213
228
238
237
238
242
227
217
203
205
211
204
194
192
195
202
212
206
205
208
203
196
191
194
194
194
196
193
189
195
202
202
206
204
194
203
203
209
200
193
196
191
185
178
177
172
170
178
176
183
184
180
180
185
181
178
177
179
176
178
172
176
170
175
183
180
175
173
172
168
176
175
174
161
152
162
165
169
152
144
144
159
161
161
161
203
193
187
204
205
200
208
213
226
235
240
240
235
221
206
207
203
200
200
190
190
188
194
206
205
203
202
197
189
191
192
196
191
196
192
192
196
199
201
205
204
193
201
205
201
199
192
196
193
185
175
175
178
171
175
173
181
190
182
181
185
185
174
170
174
166
171
167
176
178
166
173
172
168
167
171
169
173
176
170
165
154
164
166
166
144
144
144
157
160
163
157
201
195
192
203
211
204
209
216
229
233
238
246
235
221
203
199
201
198
199
194
193
190
197
201
201
198
197
193
189
194
190
193
191
191
194
194
199
202
203
202
199
192
198
201
194
192
190
190
186
182
173
172
177
172
171
171
173
184
182
178
184
183
183
173
175
166
166
169
169
171
167
168
165
162
166
169
169
176
178
171
166
160
165
163
162
151
141
142
154
157
163
158
202
198
200
203
212
207
215
219
228
233
237
247
233
222
206
199
201
200
199
199
199
195
198
201
199
199
199
194
188
192
193
193
195
193
197
196
199
208
203
203
192
195
203
200
195
192
191
186
179
179
172
170
170
175
168
168
170
176
176
176
180
180
182
181
178
174
172
167
169
167
167
167
165
163
160
160
161
167
170
168
169
164
164
160
165
155
142
146
147
158
167
160
205
205
206
204
211
211
221
220
224
232
237
244
236
226
213
205
205
203
203
204
202
201
201
202
200
199
203
196
188
188
194
194
197
198
198
199
202
208
205
198
197
201
206
195
197
196
192
185
178
178
167
167
160
163
178
172
171
176
178
179
178
179
182
180
178
176
173
172
172
171
171
171
169
167
162
159
157
166
167
162
171
162
160
161
165
155
145
148
143
161
168
163
207
205
203
212
216
215
223
224
222
225
229
243
239
229
216
206
209
207
208
208
207
205
207
205
204
204
203
199
192
188
194
197
196
198
200
203
205
209
203
192
195
209
204
193
200
194
193
184
182
177
170
163
153
156
169
182
174
174
183
184
181
180
184
183
181
181
178
173
174
172
170
171
173
174
171
169
160
167
166
166
168
160
154
165
163
154
146
147
146
161
166
163
203
200
210
224
222
220
225
233
222
223
231
243
240
228
218
204
214
205
208
207
207
206
206
205
201
201
202
200
195
195
200
200
202
202
203
201
205
205
191
194
199
209
197
195
198
191
190
182
181
176
171
158
153
152
165
177
182
174
178
183
178
180
179
181
177
179
177
175
175
173
168
168
172
175
176
176
170
162
164
167
166
162
151
164
161
152
148
141
149
165
167
162
200
199
213
224
224
221
229
239
240
221
234
246
241
228
220
209
215
209
208
206
206
205
208
207
204
203
204
201
200
199
201
202
203
203
203
204
201
193
191
194
203
201
196
195
192
191
189
183
179
174
167
158
159
157
165
168
177
183
175
173
176
174
175
174
175
174
177
175
172
172
170
169
174
176
175
176
173
165
164
171
166
163
148
160
158
147
146
139
146
164
169
161
199
200
215
213
221
219
232
239
240
227
227
245
242
228
223
210
214
212
205
208
204
204
205
203
202
202
204
201
199
197
199
199
201
201
204
199
190
187
187
196
199
195
198
196
187
186
183
180
177
174
164
163
158
162
160
167
173
180
178
167
170
175
171
174
175
175
175
176
174
173
171
170
175
177
176
175
170
165
167
173
166
163
149
154
155
144
144
142
154
162
166
158
195
202
214
207
221
222
232
236
232
234
226
237
240
227
224
211
212
215
204
207
204
204
204
203
202
201
208
202
196
196
196
197
199
196
196
183
188
185
188
195
191
189
194
193
190
184
180
178
176
171
160
161
159
157
156
162
171
177
174
173
171
176
176
175
174
174
173
174
170
172
174
171
175
177
175
174
168
166
174
167
166
165
148
153
155
142
137
143
161
164
162
158
191
203
215
205
216
224
234
232
230
229
235
231
235
228
221
216
208
215
208
207
208
211
205
202
201
198
205
205
193
194
198
195
194
189
185
186
184
186
191
190
186
183
188
189
188
183
180
177
175
169
162
158
156
154
157
154
168
180
176
172
177
179
184
176
173
173
178
176
172
170
172
174
173
176
174
173
166
170
172
166
163
162
147
153
156
137
138
148
160
164
164
160
192
200
218
205
209
223
228
230
228
224
232
237
235
223
216
220
209
210
209
209
210
215
210
205
201
201
200
198
191
191
195
192
188
186
188
186
185
187
192
190
188
182
190
188
191
184
179
177
174
170
169
162
154
154
157
159
166
183
182
172
174
177
180
179
179
177
179
180
175
170
168
171
171
175
176
172
170
168
169
161
162
160
149
151
146
136
138
151
164
164
162
159
189
199
218
200
207
219
220
232
227
223
227
232
239
227
216
214
217
210
214
206
208
216
214
205
202
202
197
190
185
182
189
191
187
185
184
184
185
192
194
192
187
187
192
188
191
187
180
176
173
170
168
168
159
156
164
164
166
175
188
180
176
176
180
181
182
187
184
180
175
171
168
167
174
174
176
175
168
169
167
155
163
161
147
144
144
134
141
151
170
167
160
160
195
193
219
198
206
215
214
232
228
222
222
231
235
229
225
222
216
216
214
210
213
211
210
207
201
200
194
187
186
188
190
187
183
185
186
187
189
193
192
193
188
189
193
193
194
191
181
176
174
174
171
168
165
158
165
168
168
167
178
187
181
177
181
182
185
189
191
186
179
172
169
168
172
173
172
172
168
172
163
158
161
157
145
143
139
135
146
150
176
162
160
155
199
196
211
206
201
210
207
227
228
223
221
227
234
231
227
226
224
221
216
211
214
218
215
212
207
204
200
194
194
194
196
194
193
192
189
191
188
190
192
192
190
193
201
208
202
198
186
179
177
176
178
173
167
164
165
170
171
169
169
182
185
185
187
186
186
186
186
184
177
173
171
172
174
174
170
171
174
174
167
156
159
155
144
149
135
140
144
155
174
161
158
149
200
198
208
209
205
210
203
218
224
222
221
221
231
235
230
226
225
220
217
213
216
217
213
214
214
211
205
201
200
200
199
195
191
186
187
189
193
197
199
196
199
200
204
208
204
199
187
184
182
179
180
176
171
166
162
170
171
172
175
183
181
181
186
183
184
185
187
182
180
177
175
177
175
174
172
175
175
174
169
159
163
148
146
149
137
144
147
156
175
164
160
147
199
196
209
212
203
215
206
216
218
220
221
217
223
236
230
228
226
223
219
217
218
220
216
212
213
210
204
202
198
196
193
191
189
187
193
193
195
200
201
202
200
199
198
200
202
201
188
189
187
185
185
180
178
171
163
168
177
182
183
186
185
179
183
185
179
182
185
182
177
177
175
177
176
174
173
174
173
174
169
159
157
144
147
151
141
147
153
155
169
172
157
152
201
195
204
211
209
213
210
219
218
217
218
219
218
236
230
228
226
222
219
220
219
222
217
212
210
213
207
201
196
193
192
189
189
191
192
189
189
191
194
192
198
205
209
208
207
201
191
190
187
186
188
188
184
176
166
172
179
184
180
186
188
185
182
181
178
177
180
179
178
175
177
177
176
172
170
175
175
174
165
159
151
143
149
153
146
151
156
156
170
170
155
152
199
198
201
210
215
216
209
219
224
218
219
224
220
232
231
226
226
222
222
220
217
218
217
215
212
211
208
205
200
196
192
191
190
190
195
189
185
187
187
185
188
203
213
207
207
200
189
188
184
185
188
185
183
183
174
176
176
179
176
183
190
188
183
184
183
180
178
179
180
177
179
175
173
167
167
172
173
169
166
162
148
140
149
151
146
156
157
157
165
166
156
150
201
196
196
214
216
217
211
217
222
221
225
227
220
226
231
225
226
224
222
219
216
214
214
214
212
208
206
203
203
202
194
193
193
193
195
188
182
185
186
189
189
192
200
201
203
200
195
187
182
179
186
179
173
175
171
173
178
179
179
179
185
192
187
185
184
184
183
182
182
180
179
175
172
170
171
173
172
168
165
163
151
140
148
150
150
163
157
159
162
163
154
153
201
199
194
215
221
218
211
216
222
222
229
226
223
218
229
226
226
226
222
219
214
213
214
212
210
207
205
200
198
197
195
194
195
191
190
186
182
182
188
191
193
193
199
198
200
202
199
190
186
180
180
174
168
173
175
176
180
179
180
179
184
193
193
193
192
188
184
184
185
181
180
178
173
173
171
171
169
170
164
162
153
142
151
152
152
163
152
156
162
164
156
154
191
197
196
211
221
219
215
216
220
222
228
225
225
219
225
226
224
227
224
217
214
215
214
210
208
207
203
199
196
193
195
192
194
191
182
181
187
188
188
189
192
194
196
198
198
196
201
191
189
184
176
170
170
172
177
178
179
178
179
182
187
194
198
198
192
188
184
185
187
183
180
178
173
173
171
169
169
170
162
164
156
146
157
151
151
154
150
152
164
164
158
156
181
187
195
206
217
217
222
222
225
223
224
220
222
216
223
224
224
224
224
221
217
215
215
211
208
205
201
196
195
193
194
196
193
191
185
181
189
193
192
191
190
192
189
187
187
187
187
186
179
177
176
170
170
170
173
173
179
180
182
183
187
191
194
195
191
188
185
184
188
186
180
176
173
173
169
168
168
167
160
162
155
150
153
147
148
149
145
156
166
160
159
158
181
184
194
204
212
215
221
226
228
231
225
220
224
221
223
225
226
225
225
223
218
213
213
212
208
205
200
198
197
192
197
195
192
190
190
186
187
194
194
192
189
186
187
182
180
182
183
182
178
174
175
170
168
167
167
171
177
181
183
179
181
185
187
191
189
185
186
184
185
185
179
176
172
172
171
168
167
165
161
160
146
149
148
146
143
137
144
159
167
159
159
158
181
183
190
206
206
216
221
225
225
228
221
221
227
222
224
225
225
226
227
222
219
215
212
209
205
206
203
199
196
194
197
196
194
194
193
191
184
184
187
185
184
182
186
185
182
182
181
177
178
176
173
171
167
163
172
175
178
182
182
180
178
184
186
186
187
184
183
185
181
181
178
175
172
171
172
170
166
163
161
157
147
148
150
144
138
136
145
166
163
158
160
157
186
185
188
206
205
210
219
229
225
228
223
219
226
221
219
227
226
227
229
221
219
220
215
210
204
206
203
200
195
198
201
201
200
198
197
193
188
184
183
184
183
181
181
182
179
178
177
174
171
175
172
168
165
162
172
177
179
181
182
182
181
185
189
187
184
185
179
183
179
179
178
174
170
171
173
171
166
162
160
156
149
150
149
145
136
138
146
165
160
160
158
159
187
187
186
204
206
209
211
229
226
226
228
218
221
221
221
227
230
228
227
224
223
222
219
213
207
206
204
201
198
201
204
203
200
200
195
192
193
187
184
180
182
179
179
177
180
175
176
173
169
171
173
169
170
165
172
174
177
181
182
184
186
188
190
191
185
184
180
179
181
174
177
173
170
171
172
167
167
162
157
156
154
152
151
145
139
138
149
163
160
161
158
163
187
186
185
201
207
211
208
216
228
227
227
219
219
219
223
224
229
227
227
227
227
223
219
215
209
206
204
201
199
200
199
195
194
195
187
187
187
185
181
179
176
176
177
178
181
179
179
177
172
172
173
174
175
173
176
177
174
179
180
184
187
188
191
191
189
185
183
177
179
176
175
175
170
170
169
167
165
160
156
155
155
155
152
142
139
139
155
165
160
162
158
167
187
184
182
196
208
209
208
209
219
230
229
221
218
221
225
223
229
228
225
230
227
223
220
215
208
205
204
200
196
196
194
192
191
189
185
184
180
183
182
181
175
175
179
175
182
183
182
181
177
177
180
179
176
175
177
175
175
177
179
183
185
187
190
192
191
184
184
181
179
178
176
175
172
170
167
165
160
160
154
151
155
153
149
140
139
147
157
164
161
161
159
171
191
185
181
186
204
206
208
206
210
223
230
220
217
220
218
223
226
228
227
228
225
222
220
217
209
204
201
198
194
195
194
191
192
189
189
189
184
183
186
187
180
179
182
181
184
190
188
184
184
183
185
184
180
181
181
177
183
182
187
189
188
190
193
192
190
184
185
184
181
180
177
174
172
169
165
162
159
160
150
144
151
151
147
142
143
150
159
164
159
160
162
173
192
188
182
183
197
200
206
202
209
216
228
220
214
215
216
222
223
229
225
226
224
222
222
217
216
212
203
197
191
194
195
192
194
192
191
195
193
192
193
200
193
192
190
188
187
193
193
190
187
185
182
181
179
180
183
181
185
187
189
192
188
190
193
191
188
186
185
184
184
183
179
175
174
172
164
160
159
158
144
141
143
143
148
146
147
151
161
161
161
161
164
174
191
192
187
182
193
197
205
202
208
214
225
224
217
214
214
220
222
228
227
227
225
225
222
217
216
216
210
204
198
197
197
198
198
198
198
202
199
199
197
200
195
194
190
189
191
192
189
187
184
185
182
180
175
181
183
184
188
186
186
188
187
190
188
192
188
187
188
188
189
185
182
180
179
175
165
161
161
156
140
138
141
144
149
148
149
153
160
159
161
160
165
173
192
192
189
183
190
196
203
204
207
213
221
224
221
216
218
219
224
229
227
228
226
229
227
218
220
221
211
205
203
200
202
205
204
207
206
210
202
203
206
203
203
193
192
193
198
196
189
187
186
186
182
184
185
187
186
186
188
186
188
190
190
193
194
193
195
190
194
191
192
188
183
180
181
177
169
162
163
155
137
137
145
149
151
149
150
154
159
159
160
160
165
173
192
194
191
184
189
194
199
206
204
212
214
224
219
221
219
220
226
230
228
225
225
230
226
224
223
223
217
209
202
198
198
201
205
207
205
208
205
200
201
202
200
196
201
201
200
199
191
190
192
191
189
189
187
185
183
181
178
178
179
189
192
198
198
197
195
193
191
192
192
187
184
179
181
175
169
167
162
149
136
140
145
149
151
151
150
156
160
160
159
159
167
173
190
192
192
187
186
196
195
207
206
208
212
219
216
220
221
222
222
229
226
221
221
224
222
221
220
219
218
211
206
203
199
197
206
207
207
206
204
199
196
194
194
189
195
198
198
194
187
184
188
192
191
191
189
185
185
179
179
182
180
188
190
189
192
191
193
190
186
187
185
180
182
180
177
176
166
168
160
143
140
144
147
152
150
150
150
159
160
159
160
159
169
175
191
190
192
189
186
191
196
206
212
208
210
214
216
216
219
223
220
229
225
219
217
219
218
219
218
218
215
209
206
206
202
198
198
202
203
198
199
196
193
193
191
187
185
188
190
188
189
184
188
191
190
191
191
186
180
180
185
185
181
182
181
182
183
183
184
186
183
185
179
175
177
178
175
169
165
162
153
143
143
148
147
151
149
149
153
159
161
160
157
160
169
175
189
190
192
189
187
187
193
201
214
210
213
211
213
215
218
225
218
228
229
217
216
214
215
215
216
215
215
211
203
201
200
200
192
190
192
190
191
184
187
193
189
184
183
183
184
181
182
179
180
179
176
178
177
177
175
178
181
179
179
179
179
180
179
178
180
181
182
184
177
175
177
174
172
168
166
154
146
145
144
147
151
153
148
150
156
159
160
160
158
160
173
175
190
188
190
188
184
185
188
195
211
214
212
213
213
214
216
225
220
221
230
221
215
217
220
216
217
217
217
212
201
199
195
195
190
188
184
183
185
179
178
184
183
181
178
178
179
177
175
172
171
170
166
170
174
174
176
176
177
177
174
175
177
178
176
177
177
181
181
181
178
175
174
172
170
167
163
149
142
145
144
145
151
150
147
149
155
159
159
158
159
160
174
174
186
188
188
185
182
183
183
192
205
214
212
215
212
213
215
221
223
219
229
223
215
221
224
223
224
224
220
215
206
201
198
196
195
193
191
192
191
185
184
185
181
175
174
172
171
174
173
171
172
172
173
175
179
172
174
174
177
180
178
177
180
176
174
175
173
178
177
177
173
172
170
166
167
166
153
143
144
147
146
146
150
147
147
150
156
157
157
159
158
161
173
174
186
188
187
186
182
183
183
190
198
211
211
214
211
211
213
217
226
222
228
225
217
219
225
223
225
226
226
221
214
210
209
206
203
200
199
200
199
197
193
194
187
181
179
176
174
175
175
174
176
178
179
179
182
178
177
176
176
178
178
178
178
174
177
175
173
174
176
174
173
171
170
163
165
160
141
145
146
148
146
149
149
146
148
153
156
157
158
160
159
159
173
174
187
186
185
186
184
182
184
189
195
203
210
213
211
210
211
223
224
221
226
226
214
217
223
224
222
225
225
223
220
214
213
214
208
207
206
206
204
201
200
200
197
193
192
191
189
189
186
184
184
187
184
185
185
182
181
178
177
176
176
177
175
172
174
175
172
171
171
171
173
172
169
165
164
150
135
143
147
147
149
149
148
144
150
155
157
157
157
161
158
157
173
176
184
183
186
188
186
183
184
189
194
194
206
215
212
212
214
224
222
217
222
229
217
216
221
224
222
220
219
219
219
216
216
213
209
208
206
205
206
203
201
202
200
198
199
196
197
196
190
189
185
184
185
181
180
177
177
178
176
174
172
173
172
170
172
175
173
171
173
170
172
170
167
167
162
143
137
145
145
147
150
148
147
145
152
156
158
156
157
160
156
157
172
176
182
181
186
187
184
184
182
185
195
190
201
212
214
216
220
221
221
214
220
230
222
216
222
221
221
220
217
214
215
212
212
209
203
201
200
201
200
197
196
197
197
197
198
194
192
190
186
181
178
176
178
176
173
173
172
174
174
171
171
171
170
169
169
175
174
172
172
171
170
168
166
167
156
142
139
148
144
148
152
147
147
148
154
159
157
158
157
158
157
157
169
174
179
182
185
187
187
182
182
184
196
192
194
208
217
222
221
218
215
215
218
230
226
215
221
221
223
225
219
219
218
215
212
208
202
200
196
197
195
193
192
194
192
191
194
192
188
187
187
181
180
178
179
176
172
173
172
171
173
172
175
172
170
168
171
172
173
172
169
168
169
166
167
168
159
138
134
142
144
148
152
148
148
153
159
159
158
156
156
159
156
156
170
168
180
183
186
188
186
182
182
183
195
191
194
209
217
223
214
216
214
217
217
226
230
218
218
223
223
225
223
223
221
217
216
211
207
202
198
196
192
191
193
190
190
188
188
187
186
184
183
181
180
181
178
177
176
179
177
178
176
174
175
173
171
169
170
171
175
171
172
167
167
166
166
172
159
134
133
135
142
152
151
148
151
158
164
158
158
157
156
159
156
157
166
165
179
182
187
187
187
183
180
184
193
194
202
211
213
212
209
213
222
216
216
222
231
220
216
222
226
224
225
223
221
220
216
214
211
209
203
196
193
194
192
189
187
185
183
182
183
184
181
181
183
183
178
181
182
182
181
179
177
173
175
172
173
171
170
171
174
171
170
166
166
170
170
173
153
130
130
136
133
149
150
149
152
159
162
160
159
157
157
160
157
157
166
167
182
183
186
189
186
184
182
186
189
197
205
208
204
204
209
214
226
217
214
222
230
220
219
221
225
227
225
226
224
222
218
216
211
211
206
199
195
195
193
191
189
186
184
181
183
183
185
181
186
183
182
182
182
183
178
179
176
177
175
172
170
172
170
172
170
172
169
168
170
170
176
172
148
127
130
138
135
140
149
147
154
157
162
161
160
159
159
161
154
158
167
164
184
185
188
188
188
188
187
180
189
196
206
203
197
205
207
217
224
223
220
217
230
226
222
223
225
229
226
226
225
223
222
218
214
213
209
203
198
195
193
192
192
190
190
186
187
186
186
184
184
186
185
184
182
185
180
180
178
180
179
172
171
170
170
170
172
169
172
169
174
172
175
167
138
130
135
138
137
140
144
151
151
153
161
161
163
158
161
161
153
159
169
164
187
190
193
192
193
193
183
181
189
196
201
200
193
205
205
217
226
225
223
213
229
227
228
222
224
229
229
230
228
228
229
222
218
217
215
209
203
198
195
193
194
192
193
190
191
189
188
187
188
186
185
184
182
184
180
180
180
179
178
172
171
168
173
171
170
171
170
177
178
174
170
158
135
133
145
147
135
139
144
149
150
154
159
159
161
159
160
162
153
161
170
164
189
190
191
194
197
193
186
189
192
197
201
194
193
204
205
215
228
230
217
217
232
227
231
227
222
227
230
233
229
228
231
225
224
222
221
215
211
203
197
199
195
195
195
193
189
190
191
188
188
188
182
183
182
179
180
181
181
177
174
173
171
169
172
172
171
171
175
178
180
173
165
152
134
134
152
155
139
139
147
148
150
152
158
158
161
160
159
161
152
163
170
165
189
190
191
195
205
194
195
190
185
192
200
193
193
199
205
215
231
229
218
221
229
229
228
227
219
223
232
233
231
231
230
228
228
224
222
221
214
210
202
202
200
197
195
194
190
189
187
185
185
185
179
181
182
178
178
179
176
176
173
174
172
171
172
172
173
173
178
178
176
169
157
146
131
140
154
163
147
146
145
145
150
149
155
161
160
161
160
157
152
166
170
167
188
191
196
204
206
195
195
188
182
192
194
190
197
196
203
219
234
230
227
214
225
231
225
226
219
219
225
232
230
233
233
231
229
228
225
223
216
213
207
204
204
200
197
197
187
190
185
182
183
184
180
179
183
179
176
177
177
175
176
172
174
171
174
174
173
178
181
178
169
160
151
149
135
141
159
164
162
152
150
145
149
151
151
160
159
157
163
155
152
166
170
167
191
196
199
207
204
195
194
187
182
192
188
190
197
200
198
222
239
231
223
212
221
229
225
224
218
219
223
224
227
231
233
231
227
227
226
223
218
216
209
205
205
200
199
195
189
190
186
181
188
186
182
181
183
182
178
178
179
175
177
176
176
174
179
181
177
179
181
175
166
153
150
153
136
141
159
163
174
161
151
150
151
153
154
158
160
158
162
155
153
166
171
167
198
198
202
206
203
196
192
187
184
190
185
192
197
200
198
229
238
230
218
211
218
225
224
224
218
217
223
218
222
228
232
231
229
227
225
225
222
221
215
207
206
200
198
195
193
191
189
187
190
187
185
185
185
184
183
181
181
179
179
178
179
179
182
184
180
178
176
170
160
155
155
158
141
144
153
163
174
178
152
153
154
155
157
158
160
160
160
156
155
169
173
167
201
202
204
207
205
199
193
191
185
187
182
193
196
199
213
237
226
227
219
210
218
222
219
223
219
217
219
214
218
219
227
229
229
228
223
223
224
221
217
212
208
202
198
198
197
194
191
189
191
190
191
188
184
185
186
183
185
183
180
183
185
184
184
186
180
175
173
167
158
161
157
157
141
152
157
161
163
175
166
153
160
155
161
162
162
163
158
157
156
169
174
169
204
208
209
207
207
200
197
192
188
184
182
189
195
205
224
234
223
220
222
211
217
220
214
218
220
218
216
218
217
215
219
222
226
226
223
222
222
220
217
214
209
205
203
201
200
199
194
193
193
194
193
190
188
186
188
188
186
185
184
186
188
186
186
187
179
174
170
165
163
164
164
155
146
151
160
164
164
166
169
157
162
157
163
167
163
164
159
161
161
172
177
172
206
209
205
207
207
199
195
190
186
184
181
184
198
214
218
229
225
219
219
214
217
219
213
215
216
216
217
219
220
217
216
216
222
219
223
223
222
219
215
216
211
209
208
206
203
204
198
196
196
194
193
193
190
190
189
189
188
186
190
189
189
189
188
187
177
175
169
168
165
163
166
154
146
156
158
160
170
170
174
163
168
158
166
166
167
164
163
162
162
174
177
175
210
212
204
210
206
199
196
188
187
178
181
183
200
215
216
225
225
220
217
213
217
217
212
215
212
213
215
218
220
216
216
214
218
215
217
217
219
220
217
217
211
210
212
208
208
206
202
201
198
197
196
197
193
194
192
193
191
193
191
191
192
191
187
183
175
175
173
168
165
164
162
151
145
157
156
153
172
165
183
169
173
166
165
168
170
164
165
167
162
177
178
176
208
205
201
208
208
198
196
190
186
176
179
194
200
210
214
221
223
221
217
206
213
216
211
215
213
213
213
214
217
218
217
218
216
213
212
213
214
216
216
217
212
212
212
208
210
206
207
205
203
202
203
202
201
198
197
196
198
198
196
193
190
190
187
180
176
176
174
165
165
166
158
150
147
157
158
152
169
164
181
179
177
173
169
169
168
165
167
168
166
179
178
178
204
202
203
206
205
196
196
189
178
173
192
199
196
204
210
219
224
221
217
203
208
215
209
212
211
214
214
212
213
216
217
219
217
213
209
210
211
212
212
207
210
211
209
209
210
209
210
206
209
207
207
206
204
203
202
201
201
198
196
189
188
187
186
180
178
176
171
163
167
166
155
152
147
156
157
150
166
170
174
183
185
180
182
168
165
166
171
167
170
180
181
179
202
204
206
207
205
198
191
186
176
183
204
203
198
199
208
217
219
219
216
198
206
213
211
210
209
212
213
216
212
214
214
215
215
212
208
211
209
209
208
205
205
206
203
209
208
207
206
208
208
208
207
206
205
207
202
199
199
195
194
189
186
187
186
181
175
172
165
164
169
160
154
154
145
156
156
149
163
176
172
184
188
189
183
181
168
165
168
167
170
180
180
180
