P2
# Face with average contibution
92 112
255
211
207
203
207
197
202
198
201
201
202
202
197
199
187
183
182
187
175
168
163
180
170
172
181
186
189
186
172
190
186
189
192
191
185
188
188
197
188
185
189
176
168
173
168
169
182
177
174
169
167
179
175
164
161
174
181
182
175
180
190
178
188
188
179
166
174
173
173
177
174
181
179
189
189
193
200
200
194
194
196
193
195
196
214
217
215
212
213
211
214
212
209
205
207
199
205
200
204
198
200
205
208
204
200
199
185
177
176
173
181
162
176
183
174
169
173
174
177
184
186
193
193
190
187
190
185
188
188
190
183
187
184
170
168
172
168
174
170
181
179
181
176
182
171
167
156
165
177
175
184
182
184
179
186
202
187
179
177
173
180
178
185
175
178
181
177
186
198
192
192
191
191
194
197
197
206
213
217
209
214
209
208
214
213
205
207
207
199
202
200
198
198
207
208
194
200
188
179
181
183
184
182
160
165
175
170
173
160
163
175
181
184
189
190
184
181
180
193
190
187
179
174
171
181
175
166
170
175
170
166
173
168
175
170
169
160
158
157
157
166
172
178
174
175
186
196
201
190
180
182
181
178
185
185
188
180
186
177
174
188
185
186
190
191
198
199
199
201
204
215
212
210
208
208
214
212
206
207
200
200
201
197
201
196
200
197
189
195
191
182
179
179
182
174
160
157
163
164
167
168
171
172
170
167
177
188
186
185
190
179
194
181
173
166
160
173
178
168
174
176
165
166
168
170
169
173
166
158
157
167
167
167
174
166
165
170
179
182
190
186
171
184
193
192
191
193
198
190
185
192
173
184
184
188
193
191
196
201
196
199
204
205
213
212
212
206
213
213
200
204
205
200
199
200
201
193
190
187
190
183
188
174
169
167
172
166
164
157
166
171
167
171
172
166
168
171
172
171
176
183
180
186
185
184
177
170
165
173
184
176
176
174
175
170
170
169
167
172
170
162
164
167
163
168
170
172
168
167
165
173
175
185
180
192
200
197
191
195
202
196
184
192
183
184
176
186
196
199
197
200
197
198
204
201
205
211
211
211
209
210
194
198
206
200
197
199
200
192
182
178
176
176
169
167
162
159
171
167
171
170
172
175
170
169
170
174
170
173
182
180
178
179
179
179
187
182
178
180
176
175
186
179
176
172
177
187
177
173
170
175
166
166
168
178
173
172
176
182
181
179
177
170
168
176
184
196
192
196
196
203
197
202
195
188
190
188
181
175
192
199
194
198
196
200
205
206
201
209
214
210
212
205
193
195
205
201
203
199
200
189
177
167
173
175
172
162
161
167
173
174
177
181
180
186
178
178
176
173
184
192
189
187
190
186
186
176
183
183
178
182
174
178
188
182
177
173
180
187
185
183
183
185
178
175
187
190
188
190
182
185
187
190
190
182
183
180
184
195
193
195
196
197
206
195
200
199
188
184
179
178
179
193
195
197
199
203
201
203
201
201
206
212
206
206
198
195
195
200
203
201
197
181
166
159
178
181
172
160
160
168
166
179
195
187
188
191
195
189
182
186
197
196
193
195
190
183
181
184
191
188
188
188
182
174
182
186
186
176
184
188
181
178
183
183
185
189
191
193
195
197
191
196
192
192
190
196
193
186
192
201
203
188
187
193
200
201
201
199
192
188
189
186
185
180
194
193
197
202
200
200
204
198
201
209
208
208
204
198
198
199
199
200
183
178
168
174
186
186
173
171
170
176
184
193
182
181
184
192
190
191
193
197
189
184
193
196
192
187
182
191
195
193
193
195
182
179
186
183
182
191
195
194
182
187
188
193
188
195
198
194
196
200
195
190
190
189
195
199
196
190
189
209
212
200
185
189
192
196
195
207
190
188
187
193
186
182
177
196
190
194
200
200
197
195
199
203
210
209
202
203
198
202
199
186
178
171
168
179
180
190
186
192
198
208
201
196
183
184
194
188
204
210
209
207
201
192
198
193
187
191
189
192
191
192
195
199
187
190
191
184
178
185
197
207
197
198
192
202
194
192
193
190
196
202
200
192
190
195
197
198
197
201
198
207
211
207
201
193
197
200
199
205
200
191
189
187
190
192
179
181
192
190
198
193
194
197
202
202
206
211
199
201
203
203
189
178
171
177
172
183
185
188
196
206
214
207
199
196
195
194
200
211
215
221
218
212
210
201
191
189
191
187
194
193
200
198
198
192
188
199
201
199
189
190
193
196
200
197
200
199
197
191
185
187
200
203
208
202
200
191
206
194
195
196
204
210
219
207
208
202
198
205
210
207
201
206
186
182
184
190
190
182
186
193
188
187
190
198
197
200
203
208
201
208
203
195
186
176
180
195
188
194
194
195
207
221
212
200
192
194
185
189
202
212
209
212
214
215
201
195
195
194
196
194
194
192
201
201
201
198
197
200
205
209
205
201
197
195
192
198
197
191
192
191
187
191
197
204
206
204
205
196
200
201
201
198
205
208
217
208
209
205
209
197
208
214
198
200
200
191
186
190
193
193
194
184
187
178
193
194
193
198
199
207
208
207
201
186
179
167
193
200
196
202
200
213
219
218
206
206
215
203
199
216
222
216
211
205
212
210
202
196
195
195
194
196
201
200
203
203
198
205
200
204
208
204
200
201
202
202
195
202
192
187
180
186
192
195
197
198
203
195
199
200
198
197
200
200
203
206
209
208
210
206
214
212
197
207
219
203
200
201
197
194
192
202
203
189
187
181
188
192
189
195
195
202
211
198
195
179
176
175
194
203
205
204
196
207
206
202
195
211
207
196
211
226
223
218
212
206
210
207
209
207
197
198
201
198
198
198
196
188
193
199
187
193
200
195
197
210
200
197
195
200
193
187
183
187
190
199
195
199
201
207
203
203
203
201
194
196
196
207
208
207
204
205
211
219
216
208
219
213
203
207
213
205
194
196
199
201
185
184
186
190
187
190
192
195
209
185
192
180
189
189
194
206
205
189
188
206
197
195
207
209
204
209
221
218
217
207
209
211
213
211
208
206
207
205
200
202
196
198
197
183
191
191
187
191
195
196
194
202
208
204
203
196
194
183
191
192
190
189
190
194
199
209
199
201
201
196
193
195
197
199
214
214
204
204
214
215
223
215
211
214
209
211
212
206
203
188
185
193
191
187
179
186
184
189
188
189
206
187
185
192
195
200
206
213
204
198
204
215
205
195
203
204
206
220
226
221
217
203
210
209
203
209
204
207
205
207
197
204
200
197
194
183
184
191
186
183
190
192
198
199
208
210
214
214
194
193
190
191
191
185
188
187
201
204
204
207
200
197
190
194
200
193
206
207
204
209
209
216
222
217
213
214
210
221
207
207
203
205
189
191
193
189
180
180
182
183
188
185
195
189
184
192
195
192
204
217
201
203
204
202
202
199
200
197
213
218
220
223
216
211
207
208
197
205
201
205
211
210
198
201
197
197
191
182
184
190
179
181
183
190
196
199
205
209
208
215
208
204
196
185
189
193
192
192
198
198
198
202
191
185
181
191
199
199
206
211
208
205
206
209
209
211
224
217
209
213
213
207
214
213
201
191
196
190
185
179
178
180
183
181
195
190
191
188
196
190
205
210
206
204
198
197
204
191
189
208
220
219
221
218
213
215
215
208
203
206
198
201
204
198
195
198
192
193
188
191
182
187
183
182
181
187
185
192
202
204
204
211
217
204
204
200
201
189
198
195
195
196
200
199
199
185
189
186
193
199
197
205
206
201
200
195
209
212
223
225
211
210
207
206
226
219
204
206
197
197
186
184
174
178
180
177
193
190
187
192
203
207
206
211
216
203
199
198
187
181
196
204
208
207
214
209
214
222
216
211
207
205
204
201
205
194
192
191
189
188
191
193
185
182
183
182
184
178
183
188
192
201
198
203
202
201
195
196
194
192
190
194
184
193
199
191
196
187
185
181
177
195
192
196
199
196
190
198
209
209
220
229
212
220
208
201
218
228
216
209
211
195
188
181
183
175
179
177
189
186
189
199
207
214
216
213
216
206
194
182
176
183
192
197
201
206
216
208
212
213
218
211
204
201
203
202
200
198
192
191
193
196
194
191
192
182
183
187
184
185
191
194
195
197
194
194
194
200
197
191
188
193
193
194
188
184
191
185
184
179
177
178
173
184
180
185
186
181
182
188
203
210
214
224
214
222
226
207
210
221
220
215
206
197
178
181
184
176
175
178
181
185
184
206
206
215
212
216
210
195
188
173
165
183
184
193
194
196
203
204
205
206
211
205
200
202
199
200
205
198
197
199
196
199
191
189
187
181
183
183
186
181
190
196
196
193
196
194
190
203
202
195
196
198
195
198
191
195
192
188
184
175
174
170
175
170
176
185
184
183
179
178
188
204
209
212
212
217
232
216
207
216
226
217
206
197
191
182
187
172
180
179
182
189
192
213
204
211
216
219
205
188
170
165
173
181
184
185
191
192
197
202
204
205
202
204
202
205
202
203
207
201
197
203
206
203
196
190
185
184
191
191
191
189
195
202
197
203
198
194
195
200
199
196
195
198
193
191
193
188
189
187
181
176
178
175
169
169
170
174
183
188
176
168
172
185
200
206
205
215
225
221
209
219
225
217
206
198
197
194
178
172
171
180
191
203
201
211
208
207
220
215
191
175
159
169
172
177
180
183
193
196
200
198
199
202
203
202
198
200
201
207
207
208
206
206
200
201
195
193
193
195
192
193
193
192
198
201
201
202
198
199
199
205
205
197
195
196
195
191
190
192
187
188
190
180
184
181
171
170
165
172
180
188
174
171
174
180
193
195
199
211
225
229
209
221
219
226
211
204
196
201
192
176
166
170
201
212
210
222
210
212
223
205
185
167
159
177
169
169
175
179
192
192
197
194
198
197
193
194
190
195
201
206
208
206
205
203
200
195
193
188
190
189
189
186
194
190
198
193
203
207
207
209
204
209
205
200
193
193
193
189
185
189
193
187
191
189
187
183
183
175
167
174
175
183
175
165
173
177
186
184
197
206
221
232
209
217
225
222
213
209
197
200
204
180
182
162
205
211
221
211
209
209
204
188
175
165
164
177
172
170
174
190
195
191
197
194
202
200
199
197
192
192
201
202
208
204
203
204
197
195
192
186
178
179
182
182
192
186
195
196
197
206
205
201
202
203
197
197
195
192
198
189
190
194
193
193
196
193
184
183
185
179
170
175
182
175
175
164
169
174
178
191
193
200
204
227
221
212
224
225
221
207
196
200
206
196
179
175
203
207
215
205
206
215
204
184
170
162
166
172
179
178
185
202
204
199
202
202
205
204
200
198
200
200
200
203
205
205
200
198
192
191
189
180
176
174
176
183
182
184
187
186
191
196
195
197
192
193
194
194
189
191
192
192
195
194
195
199
199
196
193
186
178
185
172
179
181
176
174
169
167
170
184
187
196
201
206
216
239
218
212
219
217
204
206
191
197
206
179
177
208
206
209
195
203
205
195
181
167
156
167
178
174
183
195
199
206
211
206
207
204
203
203
198
195
193
197
196
200
198
200
193
190
187
185
178
175
176
176
180
181
183
187
182
186
189
191
194
190
192
195
193
192
189
191
192
191
191
195
196
200
200
199
194
189
184
184
185
187
177
174
173
167
173
186
191
198
200
210
214
244
222
206
211
212
199
213
195
200
198
186
183
202
200
207
196
206
201
191
171
158
155
174
174
179
191
202
208
210
213
211
204
203
203
202
194
192
187
186
189
192
192
192
191
186
186
181
183
180
175
176
179
180
179
183
186
186
187
190
195
193
193
197
191
190
187
191
193
190
190
191
192
193
196
198
196
196
191
188
190
189
186
181
173
173
176
177
191
209
199
208
216
232
227
209
200
210
201
214
207
206
195
186
191
201
196
216
208
204
206
184
170
157
160
170
174
187
202
211
213
215
211
211
206
207
204
198
190
185
181
181
183
185
187
187
187
183
182
180
179
181
175
176
180
179
178
182
183
188
188
192
195
194
195
193
190
192
190
195
191
192
188
193
191
193
192
189
199
193
193
192
190
189
185
187
185
176
186
183
179
203
204
203
225
222
228
210
205
187
208
215
207
210
201
181
188
203
205
223
205
207
195
194
167
158
163
170
182
195
208
215
213
213
207
212
209
199
195
185
181
173
174
178
175
179
182
181
183
182
186
181
178
182
178
179
183
180
178
179
180
184
187
188
192
189
189
191
190
194
187
189
189
190
190
192
195
191
190
190
191
191
191
192
189
191
195
188
190
183
192
192
183
202
214
206
216
225
231
216
209
196
208
200
202
207
205
186
184
215
213
214
206
201
188
187
174
161
164
177
195
198
209
208
209
210
206
211
210
193
184
175
173
170
170
172
174
179
180
179
181
184
187
184
181
181
179
178
183
182
177
181
182
184
189
184
188
182
188
191
187
187
186
185
186
187
192
195
199
196
190
193
191
192
192
196
187
189
194
186
188
193
200
202
193
196
216
221
207
220
225
220
207
208
219
211
200
208
194
197
184
223
216
207
199
210
189
183
183
163
168
173
194
200
206
204
207
212
208
212
205
190
180
174
173
172
170
174
180
180
188
187
184
187
189
187
188
185
184
184
186
183
179
184
178
184
187
183
187
178
186
189
184
183
183
191
193
196
200
203
201
202
198
201
201
194
193
192
189
190
191
187
184
186
205
209
202
204
214
229
217
212
212
219
206
209
210
226
211
206
199
189
185
221
217
197
202
213
192
188
183
171
174
185
192
208
209
201
209
209
206
207
202
191
180
183
181
179
177
179
182
186
192
193
193
195
194
193
191
189
187
193
193
188
185
186
181
183
189
180
189
177
185
187
186
186
195
201
201
208
205
208
207
207
207
208
209
201
197
194
188
190
189
188
179
179
196
210
209
211
216
229
223
217
206
216
211
200
186
201
207
205
204
187
189
211
218
203
201
217
207
186
185
171
180
185
196
211
206
207
209
206
214
212
214
198
196
194
192
190
191
192
190
184
185
192
193
193
196
198
193
194
191
193
197
186
185
186
184
185
184
183
190
182
191
196
192
194
197
201
206
208
207
204
206
207
209
209
209
202
198
196
190
186
191
190
184
176
182
197
210
209
221
226
221
218
216
220
214
189
178
190
190
180
204
198
194
214
220
207
200
220
219
198
183
169
171
174
195
210
202
203
206
213
216
224
210
200
198
194
196
195
194
199
204
199
201
202
204
200
200
197
193
195
194
187
193
191
185
191
187
189
193
198
203
196
201
204
196
195
199
197
202
207
201
200
202
203
205
207
206
203
202
199
194
192
193
190
183
182
181
185
200
208
218
216
218
217
216
230
206
178
172
188
189
177
188
199
193
212
225
210
206
219
211
202
187
169
176
183
202
212
201
201
209
216
224
228
219
203
198
192
197
196
195
191
191
190
197
198
195
191
186
186
178
180
184
177
177
182
178
183
180
182
187
189
195
192
196
198
197
197
199
201
203
205
204
202
203
204
206
202
198
198
202
200
195
191
194
191
190
184
183
181
194
206
217
211
211
214
214
224
199
171
163
187
195
183
170
192
186
217
220
199
201
211
214
200
193
175
179
191
203
211
198
210
218
223
234
236
219
204
201
204
212
206
197
198
195
191
186
187
185
179
180
171
170
174
179
183
179
184
181
176
173
181
186
187
192
192
196
194
196
195
194
196
192
191
195
191
196
195
201
200
197
201
201
202
203
199
195
191
191
186
184
175
186
195
214
220
209
204
218
213
193
177
167
185
188
185
166
170
188
203
216
193
190
211
219
200
192
176
173
190
211
207
203
213
225
233
232
237
218
208
205
206
203
186
168
171
170
177
181
182
186
186
188
186
175
193
187
183
182
181
181
179
177
180
187
188
188
195
195
190
192
191
198
219
205
189
183
187
186
184
197
201
206
210
213
210
214
207
208
202
201
203
198
193
181
189
195
215
214
207
217
212
197
175
174
186
187
174
180
151
182
204
196
196
197
209
204
197
188
166
175
187
205
212
208
218
232
233
234
227
213
201
197
193
188
184
175
174
181
186
183
185
194
201
197
196
180
189
187
183
176
169
174
182
180
183
187
187
188
196
187
191
194
198
208
214
179
175
176
197
192
190
203
205
206
210
207
212
207
204
205
200
203
201
208
206
192
187
197
202
202
209
210
200
192
191
175
188
193
169
175
158
162
188
194
202
203
219
197
200
177
168
169
182
196
210
201
224
233
233
222
216
194
190
184
185
184
182
178
175
189
184
181
178
181
188
188
188
184
182
179
181
186
182
171
175
175
183
184
182
189
194
193
195
193
197
199
213
203
202
200
202
193
201
201
205
204
205
206
209
201
198
201
197
202
200
201
201
187
177
190
217
188
201
199
193
201
198
181
183
194
181
182
165
145
180
177
201
211
227
201
201
184
179
169
181
197
203
214
228
223
222
210
196
189
191
194
190
197
200
201
203
211
204
196
212
207
199
196
191
194
185
190
196
197
198
194
179
176
186
190
192
196
200
203
199
191
185
207
211
212
209
211
211
212
219
211
213
210
201
202
203
200
193
197
199
198
203
193
193
182
183
174
205
197
180
193
182
211
202
187
192
190
178
186
170
145
192
164
179
207
218
215
205
188
182
176
189
197
213
232
228
236
214
207
203
205
213
209
206
220
225
218
219
215
212
205
212
207
199
193
182
190
182
187
193
195
191
197
179
171
179
185
192
202
205
210
199
201
183
204
202
199
196
202
208
202
194
193
193
191
181
190
182
173
163
162
169
170
182
187
175
179
180
163
185
195
193
181
179
195
193
188
184
183
186
180
173
152
189
180
176
211
205
218
214
196
175
179
202
206
233
236
236
221
216
211
202
212
215
217
221
220
221
216
226
228
212
204
204
198
197
194
186
185
174
178
181
187
189
190
194
202
191
188
207
208
208
213
212
211
199
196
201
202
209
214
216
214
212
209
203
206
191
191
186
161
159
152
165
152
162
177
170
153
166
161
162
195
190
179
177
194
185
191
168
165
181
191
170
161
185
198
203
209
188
210
229
191
168
171
210
217
247
240
236
229
232
225
220
223
224
230
232
233
236
233
239
228
211
210
213
198
193
205
210
198
194
195
200
198
201
201
220
221
204
198
201
200
198
209
210
218
214
203
212
231
226
215
222
230
205
205
216
220
214
201
187
178
177
161
164
147
153
166
157
149
165
152
153
193
186
188
190
197
175
201
160
153
173
194
175
150
195
209
217
217
178
200
229
198
176
175
218
218
248
242
233
228
220
219
227
230
231
236
234
220
211
211
219
215
204
208
220
196
203
205
212
192
195
205
219
203
196
207
214
188
188
190
190
202
211
216
215
226
219
226
229
239
225
209
221
242
240
216
240
216
227
213
187
193
206
204
193
174
159
163
158
145
165
179
170
188
181
204
198
236
181
185
177
148
170
188
170
153
205
223
212
226
180
198
225
194
167
168
222
234
238
234
237
228
209
214
215
230
228
204
184
179
199
193
208
224
220
221
215
201
202
194
195
190
208
211
209
199
192
196
201
167
162
191
184
199
208
199
208
210
215
230
227
216
204
201
209
227
229
236
243
209
234
213
178
193
192
205
215
206
189
179
169
162
171
178
202
186
190
220
207
213
169
175
186
164
167
179
169
157
214
220
221
225
200
202
208
212
176
171
212
222
220
233
241
214
200
204
222
227
205
178
190
203
215
215
203
223
207
204
198
201
189
191
191
186
203
187
195
189
192
188
185
145
164
202
192
206
183
192
202
211
198
206
204
207
201
193
187
199
202
222
226
205
199
194
179
188
180
177
210
208
199
202
189
181
177
181
194
201
199
229
206
207
173
183
189
172
164
184
162
161
207
215
227
220
213
209
202
204
177
191
198
208
213
210
233
212
188
210
227
215
187
181
207
210
214
196
194
198
197
167
171
170
167
185
171
188
185
171
172
159
183
199
159
136
167
203
203
206
184
201
206
223
199
204
204
193
184
180
179
184
186
196
188
184
183
189
180
181
172
176
193
189
190
193
194
194
187
176
201
205
195
237
208
198
198
187
193
166
181
184
159
164
219
212
223
239
228
243
207
200
172
194
189
201
206
198
237
218
192
239
224
197
173
178
208
215
220
200
207
205
192
175
160
163
169
179
153
181
180
166
170
159
176
215
155
158
183
189
183
199
180
199
211
216
201
178
197
187
199
190
172
185
181
184
179
186
185
190
183
178
174
175
180
180
191
193
190
198
183
174
194
198
193
202
181
209
210
190
183
169
171
198
162
168
227
224
220
252
229
245
211
177
175
192
189
192
198
205
229
222
193
243
226
188
178
184
204
223
227
214
209
216
191
183
164
168
176
165
165
177
188
179
175
164
183
200
146
166
185
178
162
185
166
180
193
210
198
158
196
186
188
191
183
198
194
176
170
190
180
171
166
174
174
166
167
173
194
200
189
211
202
174
180
185
185
185
163
183
213
199
182
180
183
195
169
174
225
222
210
241
216
222
224
176
178
190
185
188
214
224
228
208
195
224
218
197
183
173
185
215
213
216
200
193
179
166
165
161
174
147
171
167
190
211
192
187
204
178
150
170
170
152
156
183
171
184
177
203
193
175
209
200
196
201
207
211
199
183
166
181
179
161
149
149
148
160
155
170
179
179
169
189
208
180
181
206
195
197
172
172
205
197
196
193
190
175
179
180
215
207
198
212
203
192
199
163
176
195
190
185
230
209
217
218
214
222
208
210
195
172
175
190
192
188
179
176
160
154
147
141
127
148
175
177
196
202
193
202
209
156
166
168
164
148
159
181
174
187
184
199
210
209
199
203
205
203
213
203
202
214
202
206
181
180
169
166
159
166
157
180
173
176
158
166
190
188
167
197
199
208
198
191
198
178
199
208
201
179
179
190
218
209
228
214
219
186
180
158
166
185
194
185
236
219
214
238
221
217
199
197
186
175
179
167
168
182
180
162
156
155
150
157
130
167
182
192
193
195
190
208
189
139
177
182
174
179
175
192
191
188
186
196
217
214
222
191
201
206
215
215
193
208
208
201
195
182
196
179
181
180
187
179
167
169
161
163
181
183
171
157
197
212
194
177
194
182
186
215
201
186
188
184
223
212
247
213
224
191
171
169
166
185
190
196
233
230
206
239
217
204
191
179
178
170
166
163
164
175
174
169
173
176
153
162
172
170
189
180
180
187
205
220
178
162
203
209
192
203
190
189
207
194
200
204
215
221
239
205
183
204
215
216
190
202
206
201
197
202
207
192
184
184
200
192
186
176
175
174
190
197
179
160
215
213
191
175
202
190
189
211
205
202
190
184
226
218
233
211
213
199
154
172
172
189
186
195
221
242
201
224
217
201
194
184
178
184
180
183
191
194
195
192
183
188
175
168
198
193
198
178
181
185
213
206
170
192
215
203
192
203
194
200
210
201
206
217
207
222
227
228
183
201
206
192
183
181
189
191
189
191
192
183
178
178
188
193
191
182
187
180
200
198
172
163
231
213
190
185
202
191
196
203
217
213
197
174
218
219
211
204
201
189
146
163
172
185
183
195
214
232
215
208
221
206
201
198
193
197
201
203
209
213
207
202
184
183
172
191
201
197
189
181
183
212
202
194
165
201
205
186
180
177
190
204
219
198
199
214
202
204
239
216
194
182
193
189
186
185
178
175
176
177
175
179
176
171
171
179
174
181
178
189
212
206
188
169
224
199
186
191
202
187
189
197
226
212
195
173
213
195
185
183
195
181
135
159
165
181
182
186
213
213
232
210
222
200
194
189
184
190
199
206
208
209
202
196
183
169
176
192
192
186
174
176
186
212
192
174
177
196
185
179
175
174
188
199
232
215
188
201
201
197
216
227
195
189
189
195
195
192
177
178
174
175
176
169
187
175
172
163
169
176
184
192
210
216
197
172
206
186
178
181
196
197
172
203
237
209
184
176
201
191
172
165
194
175
146
152
162
183
180
182
202
207
214
208
225
204
197
187
182
189
195
202
207
197
193
178
170
178
181
184
192
182
181
195
195
191
176
181
190
200
181
184
182
184
195
210
229
228
200
191
188
194
203
222
215
198
206
193
206
194
190
178
188
184
187
184
194
190
178
164
173
181
184
199
209
220
191
174
200
184
183
182
199
192
183
214
231
212
179
174
190
196
188
165
188
181
171
169
177
184
185
181
204
209
212
195
202
206
202
197
193
191
191
194
197
186
177
174
177
175
180
182
194
194
192
195
188
176
176
185
201
183
179
183
191
189
200
224
230
229
215
193
190
187
189
202
217
206
197
196
207
210
201
189
189
193
190
192
200
200
185
181
188
188
188
196
206
203
188
196
196
193
180
195
208
204
197
213
210
193
183
174
181
188
197
185
182
195
178
201
188
183
173
179
207
208
219
193
210
189
198
203
203
204
206
206
208
205
196
198
195
191
187
196
196
181
195
201
176
175
188
199
194
176
178
184
180
174
194
211
220
220
209
201
187
184
182
188
198
197
194
188
179
192
189
193
190
194
202
203
195
188
178
170
176
183
182
189
193
186
186
202
193
190
173
197
222
217
203
211
213
171
185
169
199
177
196
198
183
194
182
209
196
181
173
177
198
206
216
193
203
201
182
205
202
202
202
206
206
208
204
200
189
186
186
188
183
184
191
172
173
183
202
202
182
169
168
172
164
163
185
204
205
210
192
202
190
178
177
175
178
195
194
207
191
181
189
197
197
196
195
193
183
179
179
183
187
194
193
193
192
182
197
197
184
178
175
214
219
213
213
199
209
168
176
178
225
190
197
203
187
180
184
200
200
174
176
170
190
205
214
204
189
220
206
196
199
197
202
203
202
197
203
200
188
190
185
181
188
186
183
179
180
196
199
187
178
175
171
162
158
164
177
194
198
186
189
180
198
176
174
165
169
182
184
191
207
186
174
187
188
191
188
189
191
189
196
194
193
198
199
202
195
188
197
196
180
184
195
219
211
226
218
204
194
167
174
177
209
218
207
198
181
167
179
184
179
167
165
181
184
199
210
212
202
213
217
212
209
204
196
194
192
186
190
181
178
183
186
173
189
186
186
178
184
201
198
187
185
173
169
165
161
170
180
185
192
185
180
182
181
195
165
160
154
171
181
181
192
192
202
193
187
190
190
193
192
188
191
192
186
195
201
199
197
179
199
188
173
200
205
230
216
240
204
217
185
159
166
181
190
202
217
200
174
166
174
169
165
170
169
178
187
206
207
205
215
209
215
205
211
205
197
196
190
196
194
187
187
185
186
188
178
178
186
179
182
197
198
193
188
168
156
155
159
169
184
188
196
192
185
189
192
185
172
164
153
152
182
189
196
183
193
199
194
188
181
190
189
186
188
187
188
185
197
202
185
181
190
184
181
203
207
233
227
226
195
217
181
143
169
177
191
194
205
192
183
166
176
154
165
161
163
184
181
204
212
212
207
210
207
198
210
218
205
196
197
200
190
190
192
200
196
189
186
186
185
179
189
204
208
198
182
161
151
151
164
173
182
189
201
197
204
204
204
185
180
179
170
156
171
203
198
190
193
196
194
194
194
191
187
186
186
182
181
182
185
186
181
184
181
183
199
209
214
229
219
211
198
208
176
151
162
177
193
193
207
192
185
194
171
154
160
165
158
181
197
199
207
210
213
210
203
204
215
223
212
199
193
194
191
202
209
206
205
200
198
198
203
206
211
223
229
214
192
177
172
174
177
183
188
195
203
199
216
215
206
212
198
191
196
180
180
203
199
199
198
196
196
197
198
202
194
190
189
184
180
179
167
173
186
177
176
186
198
210
204
219
204
202
197
190
170
158
172
191
201
196
187
198
176
209
195
178
148
158
162
179
189
198
209
210
211
208
202
207
215
216
210
210
209
214
212
223
221
223
222
216
207
210
208
229
233
245
246
227
200
201
201
191
182
187
197
204
207
204
219
222
214
213
213
212
203
201
201
204
201
213
202
201
201
197
195
193
193
189
189
183
173
171
178
175
175
175
175
179
194
195
203
216
200
200
197
165
160
168
172
187
201
195
195
208
175
188
200
200
181
161
167
180
186
203
204
210
222
222
221
219
224
226
219
217
211
207
209
216
215
221
220
206
213
213
214
226
240
245
243
226
204
192
203
205
189
198
206
205
192
197
213
216
193
192
216
226
212
202
209
217
209
204
198
195
203
196
195
194
191
182
175
165
166
179
186
180
170
182
184
184
197
197
204
213
206
206
190
158
159
181
185
178
210
194
201
226
182
171
192
185
189
175
170
180
186
203
203
209
218
220
225
228
227
227
224
218
210
209
220
214
207
209
213
202
213
213
214
218
226
236
224
221
201
191
214
216
205
198
213
199
194
203
210
213
195
193
216
204
202
196
201
206
205
211
208
196
191
196
193
191
189
184
181
179
181
177
181
187
187
189
188
183
206
196
206
217
202
209
188
147
170
190
190
176
229
196
194
216
206
179
202
177
172
196
171
176
188
196
208
211
219
225
228
231
230
225
222
211
215
211
213
209
205
208
204
203
195
206
201
209
214
227
213
202
202
191
216
211
196
194
214
206
210
213
218
213
200
197
201
193
182
184
185
193
189
195
196
200
205
199
200
200
192
190
190
181
180
175
178
186
200
188
190
192
206
189
213
218
211
207
181
151
162
197
188
169
221
221
187
203
213
190
205
188
175
203
169
172
186
187
210
210
224
229
229
230
236
220
210
223
215
204
198
205
212
207
205
193
186
186
182
193
206
211
204
200
199
203
202
199
183
170
204
204
211
211
214
205
194
200
193
196
180
181
173
182
179
187
191
194
201
195
203
206
194
194
198
187
185
190
184
191
204
192
194
195
199
187
218
216
211
203
184
160
168
200
186
173
216
227
208
199
198
207
210
194
177
205
177
172
178
172
205
215
223
227
231
226
231
214
220
226
202
199
199
209
206
196
198
192
183
178
182
186
199
190
188
191
187
184
176
172
161
150
180
180
193
204
206
197
193
191
190
185
173
181
174
189
179
186
195
196
207
210
207
210
206
200
202
198
197
200
188
195
203
194
194
196
192
188
218
209
200
197
186
159
176
197
184
182
216
215
218
221
199
200
212
204
182
202
189
178
167
169
190
218
219
218
227
220
224
213
227
222
200
204
204
205
195
189
193
193
192
183
191
188
184
176
179
182
186
166
174
168
164
166
181
173
186
194
204
197
197
181
190
180
177
175
182
195
188
187
194
198
207
209
205
200
205
204
201
205
202
199
190
191
195
197
191
189
189
197
201
192
190
191
180
164
181
192
180
184
219
219
211
217
212
200
199
203
186
199
201
170
160
168
180
216
217
214
219
216
221
218
228
218
208
208
200
197
185
191
193
189
200
188
192
192
173
170
169
176
178
162
176
175
187
185
190
183
198
203
209
209
195
191
189
191
182
175
168
177
188
191
195
187
201
194
197
191
200
205
199
203
196
200
187
192
191
195
192
190
186
197
188
187
185
183
178
167
184
185
183
180
225
224
210
208
217
213
206
199
175
187
209
178
165
177
177
216
204
208
213
213
216
216
230
220
206
204
199
189
191
189
190
189
190
175
187
192
188
177
194
183
186
182
172
191
191
193
192
184
196
215
213
210
206
192
197
198
187
168
165
174
181
182
194
186
187
196
190
187
188
199
197
197
193
197
186
196
190
193
196
193
187
198
196
189
178
179
177
170
188
186
187
186
233
229
214
205
211
218
212
212
180
181
197
195
165
170
185
201
193
198
205
211
217
215
226
219
206
201
196
182
189
188
190
185
172
163
177
184
216
208
229
214
213
208
190
195
195
202
198
202
199
214
215
214
213
208
207
190
187
178
168
177
176
187
191
183
179
183
181
185
180
185
192
195
192
191
186
194
193
201
197
196
187
205
201
185
182
174
180
183
188
187
191
188
225
224
227
201
197
215
209
207
183
185
194
204
162
167
182
185
193
187
201
204
206
214
214
214
204
201
191
182
192
196
192
183
174
174
180
179
219
230
228
222
224
218
207
201
206
209
208
221
217
220
227
228
221
210
212
191
179
189
185
175
180
185
180
187
174
182
170
176
182
173
188
198
190
183
181
198
202
210
199
194
182
213
193
188
178
166
183
188
188
192
192
197
225
224
229
199
198
201
197
198
191
185
194
213
175
172
179
175
192
186
193
200
200
199
209
208
208
201
187
186
193
188
184
183
181
187
182
182
209
224
232
225
227
221
225
216
217
215
219
227
236
229
224
223
218
202
205
198
178
191
189
181
182
183
180
188
178
182
172
169
181
171
175
181
188
177
181
190
209
215
203
186
187
214
189
182
177
164
186
190
187
200
194
197
221
229
214
218
201
196
188
186
198
186
192
208
186
172
168
170
186
178
192
186
194
197
201
198
207
203
185
186
186
181
189
181
181
184
188
194
206
214
226
214
212
211
223
220
215
219
221
225
229
219
218
214
208
197
198
193
188
182
185
178
183
192
192
187
193
186
178
171
183
176
176
176
181
176
182
188
212
210
212
192
194
221
188
188
176
164
194
186
193
203
195
191
225
223
219
222
197
194
184
186
189
195
196
195
195
170
158
165
176
177
183
179
191
202
192
198
204
201
187
185
188
185
189
187
188
191
197
209
215
219
231
217
209
204
213
214
216
219
226
228
224
217
217
220
209
194
205
192
192
190
182
186
193
201
204
202
199
190
181
177
184
179
170
179
176
177
188
200
216
209
222
194
208
227
188
177
183
187
194
190
202
209
196
199
216
218
233
219
195
197
196
175
193
192
199
188
194
166
161
164
170
180
179
183
191
195
186
203
206
207
189
190
192
193
195
195
200
208
212
215
216
226
227
219
216
208
199
196
199
212
219
216
217
215
219
213
209
201
202
195
188
192
189
198
203
215
210
207
196
188
180
179
187
186
168
171
178
180
196
207
229
218
225
209
218
227
192
185
198
190
199
194
202
206
202
197
206
222
233
214
204
211
202
176
187
186
204
191
182
178
158
170
173
187
187
190
191
192
187
199
205
210
190
191
192
193
189
194
199
209
208
206
208
224
209
205
197
203
195
191
193
200
207
203
209
221
223
212
202
205
199
185
177
188
191
190
193
207
202
195
188
174
174
183
181
182
174
172
179
193
198
212
228
226
225
218
218
238
197
202
197
198
194
194
204
203
203
200
210
223
225
216
218
208
204
176
188
187
193
200
188
192
158
180
179
190
196
193
188
188
184
193
197
198
190
198
187
186
183
190
194
193
196
199
195
200
193
186
180
180
181
180
180
180
182
183
190
199
211
187
179
181
191
179
174
192
196
192
186
195
204
193
186
177
180
185
185
183
184
180
178
197
195
219
220
223
217
221
236
231
197
203
203
200
191
198
204
205
210
203
212
219
213
220
220
203
196
181
185
187
185
198
192
195
184
190
186
200
198
195
194
182
182
191
191
192
189
185
174
177
181
184
176
180
180
176
180
179
179
174
165
159
152
161
158
156
159
163
170
164
181
169
176
178
191
189
183
194
199
190
189
191
196
188
181
183
194
178
181
182
186
178
182
186
195
217
214
219
221
222
246
230
199
204
203
198
193
200
208
206
213
214
212
210
214
224
215
206
192
188
180
183
185
186
193
182
193
180
194
196
211
198
190
191
181
188
189
189
200
173
172
164
170
173
165
159
177
175
174
177
167
165
164
161
136
144
153
155
149
167
169
166
183
171
189
197
202
202
191
182
192
181
188
190
192
183
177
192
192
188
180
178
178
179
172
183
204
213
214
221
220
230
243
216
197
207
207
203
195
201
206
208
214
219
213
208
213
222
209
202
190
186
176
187
186
186
197
189
191
169
187
193
216
201
193
200
190
200
195
199
196
175
173
170
163
162
172
158
167
165
169
171
158
162
159
170
156
152
144
152
149
161
165
172
176
176
187
187
193
192
180
167
182
166
176
182
182
170
167
183
187
186
180
172
176
172
170
175
213
206
210
224
218
236
236
210
196
204
205
204
197
200
212
209
215
215
215
212
211
221
206
206
187
188
177
180
192
182
188
193
192
169
178
187
208
195
194
204
204
205
207
202
204
186
183
181
176
173
182
190
181
172
178
177
171
170
166
172
171
159
154
161
165
170
179
181
185
182
191
186
197
186
176
177
180
175
167
182
171
165
160
177
183
183
176
171
177
177
166
183
210
202
208
220
221
239
221
203
200
202
210
205
195
197
215
212
212
215
213
215
206
210
202
203
194
190
184
182
191
182
185
191
195
171
169
184
206
198
192
202
208
205
213
198
206
199
189
188
190
187
206
215
217
214
222
229
214
199
193
193
194
181
175
187
182
191
203
202
201
206
202
200
208
198
188
185
186
181
171
179
174
166
167
177
189
185
184
169
174
168
166
185
209
203
208
222
224
237
212
201
198
199
206
202
192
190
213
214
213
215
210
207
203
199
198
201
192
198
191
190
187
185
174
192
207
176
170
180
198
204
190
203
204
201
205
194
203
196
196
200
195
198
215
226
220
226
237
240
238
227
220
212
208
203
194
201
199
210
221
216
224
218
208
203
208
200
193
194
189
182
174
176
167
161
169
173
187
192
190
166
167
165
169
191
206
199
208
219
228
223
204
194
199
192
198
195
189
190
200
211
210
220
197
196
194
190
190
198
190
206
202
199
185
190
181
188
202
176
168
180
198
217
193
200
201
201
200
189
197
186
188
205
194
185
202
209
202
211
211
204
210
212
210
214
219
204
211
213
213
216
225
218
221
207
216
211
209
205
202
193
181
177
167
168
165
165
173
179
189
186
180
175
166
170
173
201
215
200
211
224
228
216
198
201
196
186
193
195
188
185
191
202
212
208
194
192
187
185
188
202
198
206
204
193
185
194
175
175
190
181
179
182
198
207
191
196
202
202
208
182
190
194
182
193
179
169
181
183
182
193
191
182
192
192
196
199
197
190
187
194
199
194
212
209
210
208
207
205
202
201
197
190
183
176
166
168
181
178
176
180
195
178
187
172
181
171
181
209
215
210
219
222
226
206
200
201
191
184
185
193
193
185
189
203
211
214
184
190
182
184
193
202
203
201
203
192
189
185
172
172
187
180
180
181
196
193
190
193
204
202
204
190
199
187
189
187
175
171
186
175
178
174
171
178
184
183
185
188
182
189
178
184
191
198
199
207
205
208
205
202
207
197
206
190
178
179
182
174
185
183
186
188
197
182
191
184
183
187
188
215
207
217
220
224
213
196
194
197
187
184
182
187
189
187
185
209
206
211
189
183
178
195
196
198
197
198
198
191
186
191
170
172
188
177
175
174
187
190
186
189
200
205
205
195
205
202
195
194
186
179
201
188
179
181
165
175
183
180
188
191
194
193
191
197
197
208
206
209
218
212
206
213
204
182
198
183
179
179
183
185
190
196
198
193
194
186
194
188
180
194
200
218
205
222
215
223
200
195
192
191
187
183
182
185
188
183
190
204
207
209
185
174
184
196
188
188
194
200
192
189
181
191
182
179
192
164
161
166
176
191
185
185
200
204
210
203
200
213
205
197
188
198
215
201
199
189
179
185
177
172
177
185
189
180
191
203
201
208
200
199
206
201
187
198
182
179
185
180
181
173
181
190
192
203
201
195
192
192
191
192
181
200
198
223
217
205
215
216
206
187
195
190
184
184
181
184
188
181
194
207
204
204
168
175
189
189
185
183
192
194
193
188
180
190
201
190
192
149
154
155
172
185
189
184
198
200
196
215
203
214
204
202
195
213
227
225
220
215
211
205
197
185
188
189
181
177
185
200
201
195
194
194
193
186
176
192
182
182
184
177
178
182
183
200
197
206
196
194
192
193
186
185
187
202
196
220
212
200
211
221
203
192
192
188
184
182
180
183
185
182
193
206
212
204
171
176
191
181
184
181
191
189
197
191
190
187
199
197
200
153
157
153
166
177
187
184
198
195
195
205
214
218
206
209
207
219
220
235
235
235
228
222
222
216
210
199
193
186
188
193
193
200
188
186
194
182
183
190
185
185
184
177
178
194
190
200
205
209
186
203
189
189
188
180
183
205
203
216
208
199
218
228
198
201
194
180
182
178
180
182
185
181
193
203
215
214
171
182
182
180
185
187
187
191
191
186
181
181
200
205
211
157
146
160
170
170
182
189
193
188
197
197
208
222
213
212
217
217
218
233
235
227
229
217
232
224
219
213
210
209
202
198
201
208
198
197
196
195
192
197
191
193
190
187
189
201
196
201
203
207
188
205
185
204
176
185
181
208
197
224
202
195
221
238
207
200
191
186
183
174
178
180
185
179
188
206
210
219
173
180
180
182
184
192
181
180
177
169
189
193
212
207
212
154
141
163
171
170
187
187
177
185
195
190
198
217
214
215
218
216
226
234
236
228
232
218
221
224
216
220
217
219
214
205
209
219
205
206
199
211
193
198
193
190
197
202
205
212
198
204
204
203
192
194
191
202
185
189
182
202
190
220
206
198
215
226
220
201
186
189
187
173
180
182
183
177
190
202
205
219
174
171
173
179
185
179
175
176
169
169
205
204
212
207
196
160
143
170
173
179
192
174
165
185
193
187
198
203
208
216
213
220
221
229
230
226
234
224
215
218
218
218
219
219
216
214
210
209
211
208
202
209
194
197
199
194
203
208
207
213
206
195
205
206
197
190
197
193
188
180
179
201
190
215
221
213
209
219
219
203
194
184
187
181
178
183
185
174
190
197
202
214
165
162
169
171
179
172
179
173
181
182
206
206
203
207
184
158
160
171
181
181
197
170
156
177
190
181
189
194
202
211
209
216
210
223
221
226
228
220
213
213
211
206
207
210
213
208
209
207
214
207
204
198
192
198
199
202
211
204
204
209
201
193
203
191
205
194
194
197
187
182
174
196
192
217
237
211
218
223
215
202
201
189
185
183
184
191
188
187
198
203
209
221
159
161
169
169
181
186
194
184
177
184
207
195
202
201
184
157
173
171
187
173
195
173
156
160
184
174
175
190
191
207
203
208
207
212
208
219
212
214
214
211
210
197
191
187
198
193
200
200
208
195
203
188
191
203
195
200
197
199
191
201
190
193
200
189
200
192
191
197
177
176
182
175
204
217
224
219
220
228
212
204
200
202
195
179
184
189
185
191
203
204
211
212
158
158
168
170
196
202
202
177
180
194
203
187
196
198
182
154
180
185
185
179
182
178
162
161
174
186
170
175
194
203
188
199
204
201
202
216
203
205
207
209
205
195
184
187
198
189
201
198
206
200
195
194
197
200
192
198
185
191
179
189
188
192
197
199
188
190
199
181
171
177
181
170
203
216
218
232
221
226
213
210
203
208
210
177
183
186
183
196
199
200
206
213
161
163
172
188
213
203
193
179
183
203
195
199
181
191
192
168
178
184
190
170
180
178
165
166
172
179
167
168
175
191
193
185
203
198
193
208
196
213
204
214
205
201
188
192
196
194
194
196
200
204
194
192
202
194
197
197
182
173
179
182
189
196
199
197
185
191
188
183
172
179
175
179
191
207
220
231
241
218
216
207
211
207
216
191
175
178
179
198
204
203
208
218
169
174
178
197
210
190
185
178
182
202
196
201
181
178
187
182
176
185
197
164
186
175
171
171
177
178
156
173
166
182
190
181
200
197
193
192
195
212
208
210
200
197
193
199
194
199
189
191
201
206
190
186
200
193
188
193
179
170
186
183
197
200
207
200
192
192
188
187
178
186
173
187
192
198
214
228
255
233
212
202
219
217
214
203
173
174
173
194
202
202
210
217
174
175
172
193
210
176
185
180
191
197
194
205
177
178
183
184
166
190
189
170
181
174
176
171
179
180
166
171
162
168
179
179
190
192
198
189
195
207
199
200
198
195
202
200
195
192
191
192
199
199
191
192
194
195
175
190
181
174
189
194
200
209
210
196
196
196
185
189
184
184
172
184
188
182
205
219
250
241
222
197
215
220
213
209
186
171
185
194
192
201
202
206
156
160
155
193
192
174
187
176
190
194
199
203
173
180
184
181
164
184
180
165
176
165
175
185
169
182
183
170
164
157
175
176
177
189
189
195
191
189
190
188
194
196
207
205
195
193
203
192
201
197
193
188
190
186
178
187
188
187
196
202
216
206
211
203
203
192
187
193
187
185
171
177
192
177
199
220
245
243
236
208
201
216
204
208
186
165
185
192
193
206
204
201
154
150
155
198
186
181
183
172
184
189
211
198
175
179
191
182
164
172
170
166
171
165
169
187
170
181
180
172
168
159
164
169
175
179
177
191
187
186
183
185
194
195
203
203
202
198
194
198
201
199
198
188
188
189
184
197
192
199
207
215
213
206
207
213
197
193
189
195
186
179
177
171
182
183
199
214
232
242
248
224
202
204
205
203
196
162
190
189
188
198
200
204
160
156
167
200
198
185
195
175
186
201
216
195
180
187
206
184
169
157
168
164
166
179
171
176
180
179
175
177
168
161
152
158
173
180
177
187
181
185
195
185
184
199
193
195
199
202
198
195
203
201
202
197
195
200
199
207
200
208
219
219
208
207
209
217
200
193
187
188
182
179
175
167
180
187
203
203
227
244
245
239
201
198
207
203
198
179
194
188
183
191
213
203
157
157
178
205
196
188
187
179
185
216
212
191
183
201
211
195
171
159
161
157
170
179
175
179
183
177
178
176
164
164
159
160
162
178
199
190
177
190
202
192
191
198
190
200
201
211
204
204
205
202
202
204
206
209
207
214
206
216
214
208
211
213
209
214
196
189
181
181
182
184
168
164
187
188
209
196
223
240
240
237
210
196
202
205
203
190
198
199
189
193
198
214
169
176
198
199
201
190
186
183
182
220
220
185
178
220
212
203
172
166
153
152
162
172
172
178
182
175
183
174
171
160
166
171
164
169
184
194
189
189
200
194
202
203
198
197
204
212
203
206
208
204
210
206
212
211
208
219
214
213
202
213
206
217
207
207
194
183
179
173
192
179
164
181
187
198
211
193
222
240
246
230
224
199
203
204
209
206
190
199
193
204
202
205
174
183
204
191
209
193
190
192
189
215
218
196
180
225
215
205
178
169
166
152
159
172
157
168
176
181
190
171
186
163
160
172
179
170
173
187
178
187
195
199
202
210
199
199
204
204
204
202
203
202
209
206
204
209
210
212
206
211
202
211
202
210
200
199
176
174
180
175
186
171
170
192
184
210
208
200
228
239
251
229
232
198
206
208
221
221
193
201
199
197
210
209
176
191
189
189
203
200
205
198
186
203
220
218
192
219
223
219
190
175
172
165
152
163
148
155
172
176
185
182
186
175
163
177
178
174
174
179
175
183
189
200
201
203
205
205
201
201
196
196
191
202
200
194
203
208
203
212
199
207
201
205
199
195
198
184
174
175
180
180
178
170
172
193
188
224
194
209
234
237
246
227
230
203
206
211
217
223
211
207
213
198
211
203
