P2
# Face with average contibution
92 112
255
186
189
193
191
189
194
195
195
197
196
194
199
202
209
211
202
204
213
210
206
199
194
197
198
198
202
204
210
208
208
199
207
211
209
212
206
204
203
206
201
201
198
195
191
189
189
194
199
204
203
196
200
199
200
203
198
193
208
214
203
201
200
208
206
210
211
200
200
201
201
200
206
196
200
201
197
192
195
199
192
198
197
195
178
178
175
175
173
173
169
171
172
189
192
191
193
193
194
194
197
194
188
194
201
204
206
201
200
212
216
207
200
201
198
197
192
196
198
197
200
202
210
202
201
205
207
213
213
209
208
206
200
208
208
197
193
188
190
192
193
187
192
194
188
192
189
188
198
190
186
198
199
199
199
200
204
210
208
207
206
209
202
198
199
200
199
200
198
194
196
199
198
198
200
196
193
184
178
179
175
177
175
173
171
190
192
191
197
197
191
197
191
188
189
198
203
205
201
196
209
210
210
207
200
199
201
191
189
188
191
190
195
196
196
203
200
200
203
208
209
208
210
211
204
206
209
201
196
194
188
189
189
185
183
186
187
183
176
184
182
185
184
193
192
189
200
194
201
197
205
205
210
205
203
204
204
196
193
205
201
205
198
197
206
202
202
201
198
195
184
180
178
177
176
173
171
190
190
192
200
197
194
194
196
189
187
199
206
210
206
204
212
211
204
200
207
198
188
189
189
191
184
182
191
195
200
205
207
206
205
203
206
212
216
213
207
206
208
203
199
193
182
187
192
189
183
183
190
191
185
180
183
179
184
185
187
189
187
193
195
199
197
198
204
203
198
198
200
201
198
204
204
202
205
196
204
210
205
203
199
199
197
179
178
180
177
178
175
193
191
196
194
198
193
196
192
189
189
201
209
213
210
204
213
204
197
198
197
191
185
190
191
194
183
189
189
199
200
206
205
201
206
206
201
209
203
204
200
196
196
193
191
190
190
189
195
186
185
183
191
190
188
185
186
184
191
187
187
182
187
186
188
196
199
192
197
198
195
193
194
199
203
207
206
207
200
199
205
204
208
201
201
194
200
186
177
179
178
178
177
195
198
192
194
197
194
194
195
195
200
209
208
208
209
207
205
196
188
182
182
186
193
190
185
190
193
192
196
202
199
205
202
201
205
204
207
205
200
200
200
194
187
188
193
190
195
196
195
194
193
193
191
191
195
195
193
189
191
194
189
186
188
186
189
187
197
195
202
188
187
194
193
193
199
201
206
213
200
198
201
206
203
207
207
202
191
196
183
177
179
177
177
197
192
190
193
196
194
193
199
200
208
212
206
208
206
200
195
184
180
180
185
184
182
186
190
185
193
191
189
197
200
199
201
203
205
203
196
196
191
190
189
189
190
187
189
196
194
196
200
196
197
195
194
186
194
189
195
196
198
196
195
196
188
189
189
188
193
203
205
196
189
186
193
191
197
206
201
206
200
200
199
198
200
198
205
206
197
191
196
180
176
179
179
194
187
192
195
192
188
199
204
203
202
208
209
203
201
189
183
186
180
189
182
175
179
185
185
187
192
192
190
192
197
196
196
200
198
197
194
190
188
188
182
189
197
193
189
190
195
199
200
198
203
198
198
191
196
197
198
196
205
209
205
205
199
198
192
184
186
191
202
199
200
189
190
199
196
208
210
196
203
196
199
195
199
198
196
206
203
192
197
189
176
178
179
191
192
191
194
185
191
203
210
204
201
206
205
201
199
198
190
189
186
191
184
175
185
183
176
176
177
188
176
188
193
192
191
198
193
192
195
189
191
193
196
193
193
194
188
196
201
201
199
197
202
199
202
204
201
203
202
199
207
209
210
210
200
197
193
197
194
185
193
202
198
201
196
203
203
202
209
206
204
199
194
206
193
198
195
203
205
196
197
196
185
177
178
191
197
191
189
191
192
207
208
198
198
201
203
197
197
205
200
188
188
186
184
179
185
174
167
168
172
174
178
186
183
192
190
192
196
187
192
189
192
200
195
197
197
199
196
193
194
197
198
196
198
204
202
207
207
204
205
205
205
206
201
209
203
193
195
201
194
194
189
191
196
205
204
209
200
214
205
219
211
206
201
210
197
200
197
204
204
199
198
193
198
182
178
194
196
189
190
190
199
207
204
206
197
207
207
194
201
208
200
192
183
183
188
188
177
173
169
168
170
178
187
183
182
191
192
192
199
195
192
193
193
196
188
193
201
196
196
195
191
189
189
190
194
195
194
199
211
204
196
195
195
195
192
196
209
202
200
197
200
195
196
188
184
202
200
210
212
207
205
212
218
214
208
214
205
199
200
202
206
204
198
193
193
185
176
198
194
184
189
194
204
202
205
203
203
199
200
201
205
202
196
183
183
184
187
184
178
174
177
184
186
192
188
186
185
189
196
201
203
194
198
195
188
192
192
192
196
190
195
194
195
190
190
192
196
195
191
197
204
210
200
198
194
193
185
192
205
204
200
194
194
186
194
191
180
192
195
189
208
206
202
209
213
209
212
211
211
197
199
199
200
200
202
193
191
189
179
194
196
188
191
200
202
202
203
203
199
189
197
205
206
194
186
177
181
185
181
184
183
184
187
191
191
188
188
191
193
196
202
199
205
202
204
198
188
194
194
194
197
196
200
196
199
196
192
192
193
195
192
190
193
202
202
199
200
195
188
193
201
200
200
192
198
187
192
187
183
185
199
193
198
201
198
197
195
209
208
207
209
201
198
196
201
202
199
195
195
190
186
193
197
195
188
196
201
201
203
204
197
196
196
202
195
191
181
185
191
191
187
185
188
190
184
188
184
188
185
195
204
208
212
212
212
213
208
206
199
208
202
199
197
194
197
198
200
197
191
193
188
182
185
188
190
197
190
191
191
192
185
194
194
197
195
189
193
195
191
186
188
185
193
195
190
188
188
188
196
200
205
203
203
205
200
198
196
193
200
194
195
194
191
191
200
189
193
199
209
200
201
200
201
198
201
198
187
181
185
186
189
187
190
192
193
194
193
193
195
198
194
204
212
207
208
213
216
207
210
206
204
205
198
196
190
192
189
189
192
196
191
194
190
184
186
184
186
188
187
189
192
195
188
192
192
198
190
189
183
198
190
185
186
185
188
191
183
184
187
192
196
198
197
197
207
205
204
205
201
196
192
195
189
200
196
196
193
183
203
204
205
197
200
205
196
203
200
190
182
182
190
190
184
189
194
200
201
202
212
201
204
208
199
204
205
210
211
211
213
212
206
201
198
198
192
194
192
193
184
185
183
186
181
189
194
190
191
187
189
189
186
186
190
196
191
192
198
195
194
196
191
194
184
188
187
187
185
199
189
184
188
195
189
198
202
203
198
208
205
201
206
198
196
188
188
194
199
197
187
189
207
205
206
203
196
201
202
208
201
185
182
188
191
189
192
196
199
205
207
220
220
209
202
200
209
204
213
215
211
212
212
217
209
200
206
204
198
194
193
191
189
185
186
187
180
182
182
184
187
189
184
190
186
180
192
195
197
194
201
203
201
199
193
189
184
188
192
186
187
201
199
189
188
192
190
186
205
206
206
208
213
203
204
202
198
191
185
189
194
189
187
199
204
207
207
198
197
196
207
214
199
191
192
190
193
189
198
202
201
207
215
221
209
210
204
205
208
203
207
206
208
212
206
210
206
209
206
204
204
192
193
196
203
197
194
184
182
186
175
180
182
187
191
190
185
182
189
192
195
196
208
204
205
204
198
194
193
193
195
191
190
198
199
194
190
200
201
191
192
209
210
213
218
207
210
205
198
191
183
183
192
183
186
197
198
210
208
193
197
206
220
212
196
201
196
196
194
195
201
207
209
211
213
208
204
204
199
198
203
197
202
205
202
203
201
203
207
208
204
199
199
194
193
201
204
202
203
196
197
197
189
190
199
200
195
194
193
190
188
192
190
195
207
199
202
210
205
192
186
187
194
193
194
192
196
200
193
195
203
202
189
197
205
212
216
218
212
209
203
194
183
189
189
183
195
196
201
211
202
197
205
217
219
196
190
198
192
192
197
202
202
205
206
210
203
204
201
200
194
197
202
202
197
197
194
196
197
199
199
199
196
197
190
192
194
196
200
199
203
202
200
197
196
197
199
206
202
202
196
198
197
195
194
197
199
204
205
207
208
198
196
196
200
199
188
192
196
198
199
197
198
211
194
192
203
206
209
219
211
211
211
203
181
188
187
187
201
203
208
210
201
204
212
217
204
190
186
192
191
193
200
199
200
202
201
204
204
201
204
196
196
200
200
197
197
195
195
194
193
198
196
200
197
198
189
189
192
199
199
196
197
203
195
199
193
198
199
196
200
205
202
199
204
191
186
195
197
204
209
203
206
203
199
202
205
202
188
202
203
202
199
206
197
214
202
199
199
202
202
209
216
210
212
210
192
182
182
190
200
210
211
202
204
208
211
207
192
186
187
188
195
193
191
195
197
202
201
209
203
203
199
196
198
199
196
199
194
195
195
192
185
191
191
191
191
183
186
188
190
193
193
191
193
192
196
197
195
196
198
199
200
205
203
202
198
194
192
205
206
207
211
205
206
208
201
194
198
201
193
191
203
201
197
202
198
212
208
203
204
198
204
206
206
212
208
209
204
189
180
193
200
212
213
207
196
208
208
205
188
184
191
193
195
194
195
198
203
204
213
211
205
199
197
198
195
200
198
197
196
193
187
186
189
186
187
189
181
183
183
185
187
188
186
193
191
191
187
196
195
196
194
195
196
200
199
199
195
197
202
208
207
210
213
203
202
210
199
194
191
198
195
187
195
200
204
200
193
201
205
204
204
205
197
206
207
209
205
212
200
195
189
192
198
204
210
199
192
205
206
198
184
182
189
189
190
194
200
204
210
210
206
212
206
202
199
201
195
201
198
196
197
194
183
185
184
183
184
184
182
191
190
192
187
189
188
188
188
187
181
188
193
194
191
192
194
192
198
202
200
200
207
207
207
204
208
193
199
200
203
194
194
197
196
183
193
200
201
199
190
195
200
203
208
200
196
199
208
209
208
205
204
199
191
195
194
207
208
193
197
212
201
192
189
186
187
190
194
198
204
207
209
206
206
206
205
200
197
195
194
195
195
191
193
192
187
187
185
189
187
186
189
192
187
187
188
182
182
183
183
189
186
189
193
193
192
190
194
194
193
201
196
196
197
200
198
202
200
190
191
198
195
189
195
198
197
186
189
198
201
197
190
183
198
206
201
205
196
191
205
206
203
205
202
205
196
187
195
209
197
188
203
209
190
192
193
191
187
191
195
202
205
207
208
204
202
198
200
195
198
192
187
188
188
190
189
191
192
190
190
191
191
192
194
194
187
189
188
185
185
189
188
195
192
191
193
192
196
194
191
192
192
197
197
197
188
195
197
193
188
192
184
193
191
187
196
197
191
190
179
189
194
190
188
182
190
205
204
199
196
202
200
192
201
206
201
201
198
183
202
205
198
192
200
199
193
194
193
188
189
186
193
205
207
210
204
199
196
190
194
191
190
187
182
185
192
196
196
194
194
197
194
192
191
190
189
190
190
190
186
188
189
188
193
196
196
194
191
189
193
192
190
190
192
191
195
195
189
193
191
190
194
192
187
192
194
188
193
193
184
181
181
178
182
181
183
178
191
197
203
204
196
207
209
193
192
202
201
200
197
186
200
208
194
191
194
198
191
190
183
180
183
191
205
201
202
204
201
196
190
188
186
189
184
186
188
188
197
198
199
198
198
199
194
194
194
188
192
190
191
193
188
195
192
193
192
195
195
197
191
189
188
192
191
187
188
194
189
187
192
191
187
191
195
194
193
198
194
190
191
190
181
171
182
177
178
176
175
176
183
196
200
208
201
203
216
201
187
194
196
197
203
191
197
196
192
197
198
193
186
179
176
176
182
200
204
200
198
201
197
192
189
187
186
186
184
188
189
193
198
202
198
200
203
204
204
200
200
200
198
200
205
203
198
204
199
199
197
194
195
195
187
193
193
188
187
183
191
188
182
187
192
184
189
191
193
198
197
202
199
189
189
186
178
172
173
179
181
180
176
174
180
196
199
210
201
206
206
209
188
186
195
196
205
186
202
190
198
205
194
190
178
173
177
174
190
201
199
199
195
197
194
190
193
191
185
187
186
192
191
197
199
203
202
205
209
207
206
203
203
205
203
202
209
210
207
210
206
207
203
198
196
196
194
197
191
184
190
190
193
193
187
189
184
184
187
198
195
198
196
203
201
195
185
189
181
170
171
176
175
181
176
177
185
194
197
206
197
199
210
204
190
186
194
196
202
187
198
190
195
209
188
184
174
171
176
181
194
198
199
195
195
195
198
197
195
193
190
192
192
198
195
198
200
202
207
207
208
208
206
204
202
205
203
205
208
209
209
211
208
207
207
205
200
200
201
196
193
187
192
198
195
190
187
185
184
186
191
195
194
193
195
203
200
196
189
189
192
174
175
170
174
181
183
176
186
197
195
210
188
193
207
202
187
179
196
196
194
184
190
188
196
200
183
179
175
173
175
187
193
200
201
192
199
203
205
197
197
195
194
195
197
197
197
196
195
201
204
208
208
207
206
206
199
203
202
202
208
208
209
213
209
208
211
207
204
203
205
204
198
192
191
194
194
189
181
181
179
190
195
196
194
194
196
201
203
196
189
191
193
181
173
172
177
175
185
177
183
198
195
212
196
188
205
202
181
179
191
197
188
173
185
189
192
198
183
175
181
177
169
185
194
199
198
197
203
205
201
195
193
195
193
200
195
194
195
195
198
200
200
205
206
207
209
203
200
204
206
200
211
212
204
208
208
207
205
204
202
205
204
205
194
193
194
190
191
189
187
185
188
197
197
194
197
197
199
206
208
203
193
189
189
187
190
179
179
182
182
182
179
187
196
200
200
189
192
202
181
177
190
200
180
175
180
183
193
195
181
180
179
176
169
184
195
195
199
200
201
196
194
192
191
196
195
196
198
194
193
195
196
203
203
204
204
209
208
209
205
211
208
202
206
211
207
201
200
199
198
192
193
197
194
191
193
195
194
191
190
192
194
193
192
191
194
194
197
199
200
207
209
206
197
196
193
190
195
195
183
186
189
182
187
186
195
192
197
199
189
195
185
182
184
192
180
172
178
182
194
195
181
181
176
176
169
187
195
194
198
201
196
194
193
187
195
198
192
191
195
194
195
200
201
202
203
206
209
208
206
208
207
212
209
203
208
209
208
205
201
199
192
186
184
189
189
186
190
197
197
192
196
195
199
197
194
185
188
190
193
194
196
204
206
202
201
200
198
197
200
194
188
189
196
189
187
192
197
198
198
202
194
193
183
174
185
186
178
169
175
183
192
189
180
181
177
171
168
184
192
189
196
197
195
192
191
192
196
196
191
191
189
186
190
196
202
198
195
195
210
209
206
207
211
211
213
213
213
217
209
210
203
195
190
186
181
185
189
190
195
201
207
200
204
205
207
203
199
194
196
195
200
198
197
206
206
204
198
200
198
203
208
203
195
192
202
201
189
194
200
200
202
203
203
189
186
180
184
185
180
162
179
177
194
198
180
184
180
170
167
182
190
190
198
198
199
195
188
183
189
186
182
182
178
174
181
184
189
186
190
187
200
204
203
205
211
213
215
214
218
222
215
213
205
199
191
186
187
190
196
197
200
204
206
204
203
206
206
201
199
195
198
194
196
201
194
198
202
198
195
188
190
197
200
206
196
188
202
205
195
202
198
200
203
203
202
193
181
187
188
193
181
159
174
175
198
200
179
193
180
173
166
180
186
199
208
200
192
191
183
184
185
184
180
181
181
187
191
193
200
188
187
192
199
201
200
203
205
209
214
213
215
220
225
211
207
202
193
193
195
197
200
199
197
200
196
195
189
195
199
195
197
197
198
195
199
199
193
195
197
192
190
187
178
187
192
198
195
187
193
204
199
197
203
207
212
206
211
197
189
185
185
194
181
165
171
166
210
203
192
194
186
177
169
182
199
201
200
197
191
188
186
189
188
182
185
184
185
190
194
195
205
192
191
195
200
207
206
203
199
203
206
204
207
211
215
211
204
200
200
197
199
196
199
192
189
188
186
189
194
196
200
195
190
194
201
201
207
203
198
195
197
195
191
191
186
182
188
192
188
185
191
196
200
198
197
209
216
213
214
209
191
189
179
181
178
181
169
175
220
209
203
200
185
183
182
197
206
203
215
198
191
195
188
189
189
187
189
186
190
195
195
199
200
197
188
187
193
200
205
202
200
196
201
201
197
201
204
210
204
202
201
202
197
195
191
187
179
175
179
175
181
187
186
186
185
193
199
191
197
196
194
191
190
191
189
190
184
180
183
185
186
173
185
187
192
195
192
196
219
218
219
217
198
186
174
175
172
186
185
181
221
218
218
202
179
185
189
198
208
212
212
204
199
205
196
197
191
192
184
186
187
190
193
194
195
194
187
181
193
194
194
192
195
193
200
204
206
207
202
212
206
209
204
200
193
195
193
191
189
190
181
176
184
194
182
175
172
178
169
173
182
187
187
184
181
183
188
194
192
182
185
187
187
173
193
191
182
186
193
197
210
216
227
222
208
188
169
174
176
191
200
192
219
228
226
195
176
182
191
187
212
216
204
208
203
208
204
194
191
189
186
187
184
191
189
193
193
198
195
186
190
192
184
182
185
183
182
194
200
200
195
208
202
200
200
189
186
189
201
201
200
199
182
179
181
188
173
161
169
173
171
177
174
183
181
180
177
179
179
181
184
179
181
186
188
175
182
194
202
174
197
198
204
221
231
230
211
198
178
162
173
201
195
195
213
237
224
192
179
179
188
190
207
206
201
202
200
204
190
189
194
185
191
190
186
186
186
183
183
172
178
187
185
188
186
185
191
191
184
191
196
194
197
201
199
196
194
189
184
193
199
192
192
195
185
187
188
182
180
183
192
191
198
194
178
180
184
184
186
191
194
183
181
180
180
181
186
177
174
178
202
175
186
203
204
234
225
217
204
204
182
159
170
203
195
205
211
228
219
194
175
175
178
183
197
191
200
202
205
206
196
194
199
193
190
177
182
182
179
188
181
186
179
187
184
183
190
193
205
203
196
207
198
190
196
198
194
194
193
199
202
205
206
203
196
194
185
176
182
176
184
186
212
185
185
181
177
181
177
186
188
192
196
197
189
188
188
191
189
175
182
173
191
184
185
196
201
230
224
212
205
200
182
171
168
204
193
212
217
217
218
189
168
161
167
171
196
184
200
183
192
199
196
196
193
206
193
179
176
180
195
199
185
191
184
193
181
177
193
193
193
206
206
201
216
200
196
197
199
194
201
201
209
215
219
216
207
198
201
197
194
194
193
195
209
206
191
188
195
187
179
196
205
202
195
196
197
197
198
196
201
185
180
180
184
183
188
185
201
219
217
216
209
195
180
177
176
219
191
211
218
216
214
187
166
170
172
174
186
173
179
176
171
191
179
187
185
196
192
179
175
177
199
199
184
196
179
180
179
178
197
191
181
198
195
199
202
217
187
188
199
200
204
200
217
219
216
207
206
194
201
208
208
210
201
206
211
208
191
186
192
189
184
191
204
206
187
182
198
202
203
197
202
192
182
176
187
181
191
177
206
218
227
216
218
195
175
183
181
207
194
196
222
216
212
184
171
172
178
175
187
172
171
170
166
183
188
179
188
200
202
195
194
185
189
201
189
202
173
167
168
185
205
193
183
199
198
193
187
205
187
181
196
198
194
197
219
206
208
195
204
190
203
206
202
211
212
218
228
229
205
197
200
196
193
202
208
207
192
171
190
191
200
205
207
195
182
183
184
179
187
184
201
217
217
221
229
198
184
186
185
183
184
175
208
226
216
187
175
197
191
176
192
192
183
175
181
191
179
178
189
201
200
207
212
206
196
193
196
195
177
166
174
189
208
204
193
199
203
193
188
193
177
187
188
193
185
196
212
199
198
192
189
190
212
204
194
217
216
214
210
224
219
209
204
201
200
210
205
201
199
181
185
186
191
192
206
204
185
177
191
187
180
186
201
210
214
226
226
203
189
191
185
175
187
178
189
217
217
194
190
201
194
185
191
188
191
187
198
192
181
188
193
199
204
212
219
213
209
205
205
205
197
201
201
204
206
203
198
207
206
195
190
193
178
198
187
190
180
182
205
190
199
197
200
194
210
215
206
215
209
219
209
217
217
217
215
204
206
207
200
204
196
186
184
182
183
185
193
208
200
178
193
196
181
190
199
203
214
225
224
199
196
187
188
195
202
194
192
204
211
199
200
198
190
182
183
168
170
161
187
177
186
181
192
198
195
204
213
217
213
203
213
207
198
206
196
199
197
196
191
204
202
198
187
193
190
203
192
188
191
205
209
197
208
209
201
198
205
208
208
207
204
213
208
208
201
198
199
208
205
197
191
202
197
191
189
188
185
185
191
214
208
200
198
194
184
196
206
194
208
217
215
201
196
200
194
214
216
220
202
209
209
212
202
200
188
175
182
166
165
156
185
176
191
194
189
188
187
193
206
210
213
209
205
199
185
186
183
193
186
182
183
200
197
191
199
191
205
207
194
190
189
200
217
205
205
206
193
199
202
211
199
200
201
200
206
210
198
180
180
207
211
207
191
201
205
198
188
193
197
192
208
215
219
206
203
187
181
201
209
188
208
215
203
192
191
202
196
210
222
255
221
218
219
209
201
209
203
186
186
175
179
174
196
189
201
215
201
196
194
197
208
215
213
199
200
194
182
193
179
177
193
180
174
201
207
205
215
200
214
211
205
206
200
202
211
202
202
197
192
198
209
216
188
183
187
197
199
201
204
195
180
199
204
212
210
194
198
190
178
190
207
204
205
225
231
204
206
190
175
210
205
176
194
199
180
187
182
198
198
202
218
250
241
220
221
213
202
219
207
194
187
179
191
188
194
194
196
203
195
184
180
205
208
224
219
207
199
199
190
189
185
174
183
172
173
192
200
210
212
202
202
208
201
206
207
201
204
205
204
198
204
208
214
200
178
177
182
187
204
193
209
196
178
189
211
200
207
208
187
195
178
186
201
201
197
215
223
207
183
185
179
193
189
157
185
198
176
178
183
193
198
196
221
241
233
229
215
219
202
226
212
205
198
187
196
191
199
207
203
203
199
193
187
201
206
209
203
196
188
195
190
189
181
181
190
180
186
194
202
202
192
200
210
215
204
207
204
191
187
210
200
201
200
203
212
202
187
188
179
188
193
181
205
190
185
179
190
200
199
199
189
192
181
178
185
189
185
210
209
196
191
185
176
182
176
166
197
208
187
189
193
201
193
195
220
232
234
230
208
211
200
229
217
215
210
200
194
192
208
203
204
205
201
198
193
204
206
211
202
191
193
193
191
191
189
192
191
191
193
199
207
198
195
210
218
211
204
202
203
189
186
206
206
207
198
202
204
210
200
199
188
194
192
186
193
190
188
186
192
197
200
193
192
188
185
181
180
190
197
225
208
191
191
185
185
180
181
184
206
211
193
198
202
208
190
186
214
226
233
229
207
195
193
218
224
218
214
213
198
192
211
204
197
191
192
185
185
188
191
193
191
184
189
193
187
177
189
192
193
206
199
204
208
208
200
208
217
211
202
197
189
187
198
211
199
205
203
207
219
207
213
199
202
199
196
186
188
194
192
190
197
197
190
192
200
195
190
192
192
197
211
231
212
208
194
193
190
186
188
192
202
186
198
191
195
203
197
178
221
232
235
224
207
204
202
217
221
223
214
210
206
180
204
202
199
190
185
184
187
194
192
196
197
191
184
188
182
179
188
198
198
207
205
206
211
217
213
217
206
206
200
188
191
199
206
218
206
202
196
195
211
214
214
203
198
194
190
179
175
183
183
185
186
196
194
194
200
204
198
197
199
201
206
231
217
202
197
195
195
189
180
180
189
189
192
186
198
198
195
180
225
228
236
219
213
217
228
224
220
214
221
211
202
193
202
189
194
195
195
198
194
197
185
187
190
189
186
188
188
189
189
191
191
185
191
195
210
211
212
211
202
205
198
183
195
200
209
202
217
206
206
197
197
205
203
205
198
192
190
183
184
182
182
183
181
195
202
195
201
199
201
192
195
193
194
210
217
201
192
189
197
189
173
180
198
195
205
189
197
188
201
179
223
224
239
216
210
211
224
217
219
208
213
224
205
199
195
197
189
198
200
201
203
196
178
183
188
184
186
190
187
189
182
173
170
175
178
185
194
201
203
209
200
193
188
188
193
206
217
211
209
213
201
198
196
197
185
190
185
189
190
182
181
183
184
179
182
189
192
193
195
191
186
170
177
186
193
213
217
196
179
184
197
184
165
191
203
199
206
205
188
183
199
184
216
220
246
216
205
203
211
206
215
204
207
212
216
201
192
197
193
204
207
209
203
193
183
174
183
188
195
192
183
174
176
176
178
197
196
194
203
215
212
214
207
187
188
187
195
205
218
214
199
204
209
206
205
203
191
192
183
190
197
191
178
172
173
175
181
183
183
188
186
186
179
177
187
202
207
213
206
187
173
190
203
171
170
186
191
191
195
203
185
183
193
188
213
222
240
214
213
193
206
203
209
205
204
215
210
206
193
194
189
198
206
210
205
196
191
189
190
189
189
192
185
178
184
184
196
203
195
203
208
206
211
216
207
186
189
191
195
208
210
208
199
198
208
214
204
202
196
195
188
187
199
199
191
182
181
185
183
181
183
180
177
191
189
191
195
205
210
205
199
183
186
193
205
185
177
184
195
205
185
203
181
185
186
191
209
225
226
206
218
204
202
206
196
202
202
209
206
198
196
195
194
201
207
210
202
197
193
192
194
191
186
195
191
183
190
196
205
196
196
211
210
205
215
214
210
198
190
192
196
199
199
199
196
195
201
229
208
204
205
200
191
182
189
192
190
192
200
204
198
194
188
189
189
197
197
199
199
205
209
202
191
191
192
184
186
195
186
191
208
201
178
203
181
187
182
203
201
224
227
203
225
218
200
202
199
194
198
208
212
199
198
197
193
200
208
206
201
198
195
195
193
197
196
195
196
190
195
208
197
188
206
204
201
201
210
206
211
207
193
191
194
197
195
198
190
190
201
215
231
207
204
201
192
184
184
189
196
199
199
204
206
199
196
197
207
207
209
206
205
210
210
199
181
199
187
170
180
187
195
207
214
201
181
190
193
187
193
218
195
211
231
203
228
218
206
202
200
198
192
203
207
208
202
202
201
190
203
206
197
196
192
195
195
192
196
199
197
203
207
196
186
190
199
197
194
199
203
202
205
200
191
194
200
197
202
206
201
197
204
208
221
224
205
205
201
189
185
187
198
204
201
203
193
196
203
201
210
209
212
214
212
211
207
196
180
199
184
176
191
187
200
205
209
208
184
178
206
195
205
218
204
200
222
206
222
215
208
212
206
208
208
195
196
200
195
202
201
197
196
198
199
202
191
194
194
192
190
193
199
208
202
193
183
187
195
192
197
209
204
202
195
196
191
184
200
198
201
212
213
205
203
210
200
212
216
196
202
193
177
181
191
198
206
203
191
190
195
196
200
206
208
209
214
212
201
189
188
189
181
180
203
199
192
199
209
208
184
180
201
207
213
223
213
188
206
205
220
217
208
212
209
212
201
198
188
191
190
195
198
202
207
203
196
197
190
185
189
190
185
191
192
187
188
184
186
193
193
193
202
205
205
197
191
195
193
190
190
193
197
208
207
204
198
194
198
188
201
207
196
193
177
178
189
192
201
208
199
201
204
205
205
205
208
205
209
204
197
196
186
191
176
185
187
187
184
199
211
207
187
179
198
211
209
213
214
191
203
197
212
224
206
206
206
210
198
191
186
194
196
191
196
201
201
201
197
198
191
189
191
195
190
188
187
186
185
187
192
192
183
187
195
198
203
197
192
190
191
192
186
194
205
208
206
196
192
186
187
185
182
193
211
192
182
191
191
192
202
205
206
206
209
207
212
214
208
210
201
204
209
190
187
185
171
190
192
175
184
203
208
197
183
187
198
220
217
209
220
199
198
202
208
221
212
206
204
209
198
184
180
189
197
206
210
209
208
209
203
211
201
186
186
185
184
183
187
186
180
190
187
182
183
184
198
201
197
193
180
177
177
180
187
189
200
209
204
197
197
195
196
184
172
188
195
195
202
204
199
195
203
203
200
208
212
211
208
210
203
202
208
214
206
186
185
184
178
202
200
180
188
199
204
186
188
190
200
222
226
206
212
200
182
207
211
219
211
211
202
207
196
184
182
184
192
197
206
206
210
207
205
205
193
188
179
180
180
181
181
177
180
187
183
187
190
188
203
211
201
187
181
178
179
177
189
195
202
204
201
194
198
203
203
191
178
185
200
195
197
205
209
214
213
205
199
201
211
206
198
205
213
211
207
208
199
185
184
193
187
202
196
184
186
192
194
186
186
191
203
223
224
207
205
198
186
198
215
223
212
211
198
203
200
183
180
183
190
196
208
207
211
209
208
203
189
186
183
177
168
173
175
173
179
184
191
190
185
190
198
205
197
185
180
186
181
192
198
196
200
198
189
192
200
205
201
200
189
190
198
202
207
206
213
216
211
213
213
211
218
215
213
209
211
205
205
204
196
188
195
189
187
196
192
187
189
189
185
187
187
199
203
225
221
208
202
200
189
188
200
224
221
212
198
210
203
186
182
182
192
203
209
212
211
214
214
207
193
191
190
184
169
171
172
172
176
185
192
187
188
186
198
199
195
186
187
195
187
192
201
200
197
195
180
192
208
202
204
208
201
198
210
217
218
220
220
214
208
206
210
205
201
211
211
209
204
202
200
201
194
194
197
184
181
190
187
194
187
184
186
181
197
206
202
219
222
209
202
190
190
191
187
200
222
212
195
211
207
192
190
185
195
203
207
215
215
216
221
211
203
199
194
187
182
181
178
178
178
191
198
193
192
189
193
195
191
188
193
197
194
196
207
203
200
198
186
188
210
207
209
215
212
205
212
216
212
209
209
204
202
196
199
201
200
207
210
207
202
199
198
200
194
198
199
180
178
187
193
196
183
184
187
182
211
209
204
221
216
207
197
190
188
186
187
190
204
203
194
206
205
196
193
199
198
206
209
212
214
212
217
210
205
202
202
199
190
186
184
187
187
198
207
205
203
192
190
187
191
180
184
183
190
192
193
202
198
195
196
194
198
199
208
203
202
193
202
202
198
199
201
198
200
197
198
200
200
208
209
205
203
198
197
199
196
197
193
180
182
191
204
192
172
190
183
189
217
205
208
220
220
199
198
192
190
193
181
186
199
196
180
186
189
181
198
206
200
204
213
210
214
214
213
216
211
211
208
204
196
187
185
185
190
197
205
205
206
208
197
196
191
186
180
183
183
176
174
183
182
181
195
201
206
198
194
188
188
185
194
201
200
201
204
205
201
200
203
202
202
207
206
207
200
201
196
198
200
190
188
180
180
193
195
174
188
192
185
199
215
203
213
221
219
197
194
195
200
195
183
181
195
194
183
175
178
185
194
213
203
207
209
211
211
212
213
213
212
214
210
205
195
184
182
187
196
196
198
199
209
218
207
194
191
184
177
171
169
167
170
172
169
180
190
199
203
193
186
191
186
180
188
193
203
204
207
205
201
198
204
205
202
202
202
206
201
198
197
197
194
189
183
177
183
179
189
181
192
196
192
207
212
200
215
219
214
191
190
200
205
201
189
179
187
195
190
178
181
190
199
217
207
205
208
210
213
212
213
212
211
215
211
203
196
185
183
191
194
191
197
196
210
211
204
188
186
185
176
176
174
176
179
182
179
170
183
193
201
195
187
193
188
182
180
189
195
197
203
205
199
198
202
204
203
198
199
200
198
195
195
194
192
190
185
176
184
181
191
190
190
202
206
203
203
205
216
217
207
196
192
191
214
210
200
188
182
193
188
184
186
197
197
219
212
203
202
206
214
216
213
211
209
213
205
203
197
189
197
198
197
208
209
203
208
209
207
196
185
187
190
181
179
177
181
191
180
179
185
197
201
195
194
192
192
191
182
185
192
189
199
199
200
202
200
200
204
200
198
198
194
195
197
193
192
193
187
181
193
192
198
201
206
209
210
203
203
208
210
219
201
194
194
187
210
215
207
196
187
190
189
185
187
199
191
219
210
200
195
197
207
211
214
207
205
208
206
201
195
191
198
196
194
198
197
197
203
203
197
202
195
193
196
190
189
185
186
186
188
191
191
196
200
196
200
191
194
193
190
185
192
188
192
193
195
200
194
196
200
197
198
198
195
193
200
192
194
205
201
190
204
208
207
212
213
213
210
201
206
207
206
215
197
196
195
194
200
211
205
201
191
189
189
186
195
201
192
213
208
199
194
197
199
201
204
202
205
200
205
197
184
183
189
184
180
178
172
172
175
180
191
194
201
195
197
197
193
190
190
192
195
201
199
197
203
198
201
196
193
198
199
191
188
186
188
188
198
194
191
190
194
190
190
198
189
195
199
194
199
209
204
195
206
212
219
212
217
214
214
202
208
210
205
213
199
196
199
197
198
209
211
200
196
197
187
187
195
195
186
207
205
201
193
196
196
196
196
195
196
195
192
184
181
181
183
173
179
173
164
163
166
159
189
195
200
197
208
205
194
188
194
196
190
198
202
200
204
187
188
190
189
196
203
195
194
189
185
189
199
198
190
188
187
186
183
191
191
190
198
193
209
216
203
198
206
214
218
217
218
214
208
205
201
207
208
208
192
193
204
196
200
212
215
201
202
206
196
185
197
189
185
190
208
204
196
195
193
193
192
193
188
183
173
169
173
174
171
169
176
177
172
167
169
160
182
193
202
200
206
211
199
188
199
201
196
196
206
216
216
195
192
197
193
200
200
193
202
199
195
202
207
204
200
199
191
186
181
189
187
188
195
201
208
217
207
196
205
214
215
220
219
210
204
200
205
207
208
204
190
194
198
198
203
214
215
206
206
205
205
189
195
191
188
183
208
208
198
196
192
191
195
192
186
181
168
165
170
170
169
168
178
177
176
175
176
168
175
183
204
199
208
213
203
183
199
205
194
190
188
205
219
198
180
185
187
200
187
174
195
199
192
205
210
212
220
215
199
190
187
187
191
186
189
198
209
217
214
190
201
209
206
216
210
201
201
200
204
209
209
200
188
191
193
199
201
210
214
212
203
204
204
190
188
190
186
184
200
207
199
194
191
189
193
189
184
183
180
171
173
177
172
169
170
173
168
177
179
174
181
185
195
192
193
200
192
173
182
200
192
185
189
198
219
194
175
180
175
194
176
171
190
195
189
196
200
208
212
207
192
189
192
187
188
185
185
194
205
218
209
184
204
203
204
209
199
194
202
200
204
210
209
196
187
190
194
200
198
203
218
214
203
201
199
195
185
191
186
188
190
206
202
195
191
187
191
183
185
185
181
181
184
188
188
180
177
176
177
181
191
197
192
194
193
178
171
182
180
175
175
188
190
184
194
195
221
191
177
177
172
192
186
183
195
196
195
200
196
199
194
193
189
188
191
186
190
187
181
189
205
214
201
183
203
199
201
199
200
192
198
206
204
205
208
195
183
192
196
197
197
200
214
221
200
200
198
193
182
188
194
191
186
205
209
195
196
197
191
190
191
193
191
188
190
192
190
191
194
192
186
177
194
208
202
209
213
191
179
197
186
185
178
188
186
181
184
175
205
178
177
183
188
204
202
187
203
206
198
201
198
191
180
187
185
188
188
190
191
187
178
189
206
210
190
187
195
199
196
196
193
194
196
206
208
204
202
195
182
198
192
197
200
198
214
221
200
199
198
197
178
180
187
201
187
200
214
202
202
206
207
205
204
212
206
202
203
198
188
192
203
194
184
169
180
191
199
205
205
202
194
205
208
215
206
203
195
192
189
185
196
180
185
198
199
202
212
200
207
207
205
199
195
185
178
186
186
187
192
189
195
188
186
194
212
203
181
186
190
194
194
198
191
193
197
210
207
198
205
194
182
198
195
197
199
199
207
221
194
195
201
194
184
176
180
194
190
188
217
212
212
212
216
216
213
221
219
213
207
206
195
189
203
203
190
183
193
185
186
194
194
194
194
207
211
216
207
200
192
188
198
205
203
193
195
196
197
204
209
202
208
209
205
196
191
187
189
188
190
192
196
197
194
187
184
203
212
198
177
183
190
198
197
194
196
192
203
209
206
196
203
192
183
197
196
199
198
204
202
211
197
199
204
195
190
181
177
188
192
180
202
210
206
211
220
218
215
217
218
210
198
188
187
191
199
199
192
199
208
207
199
205
217
219
211
217
218
210
204
197
196
190
202
208
202
196
193
192
197
199
203
200
203
208
207
199
194
191
199
192
190
196
201
201
192
186
191
202
203
192
180
186
193
196
193
196
195
196
206
207
211
193
196
190
185
197
199
201
202
208
196
199
212
196
204
203
195
192
184
184
186
181
195
205
194
202
209
213
207
214
212
209
193
184
178
182
191
186
183
193
199
206
204
208
215
217
213
221
217
211
206
197
188
189
190
192
188
188
193
186
193
192
197
207
204
210
205
203
199
197
200
198
198
199
202
201
191
187
195
199
197
191
184
188
200
201
195
195
198
205
212
209
212
200
194
188
184
199
203
206
210
203
196
196
207
201
205
205
200
200
193
188
185
185
189
203
196
200
192
201
202
205
207
204
199
193
185
184
189
187
183
191
195
195
201
200
204
212
210
208
205
201
207
197
194
192
194
184
187
186
189
187
190
185
195
199
199
204
201
205
204
203
205
203
200
201
198
198
193
189
201
193
193
188
190
192
204
199
195
192
200
212
210
211
210
208
194
190
190
205
206
204
203
195
192
198
203
209
209
209
203
204
201
194
183
184
188
207
199
201
192
192
194
193
193
194
189
192
188
182
187
189
185
185
186
188
194
196
198
202
204
201
193
194
195
189
195
187
191
190
187
192
193
191
194
193
197
201
202
208
207
206
208
204
206
203
201
202
200
193
197
194
203
188
190
190
194
196
201
198
197
195
205
209
208
211
210
206
189
191
185
206
204
195
198
193
192
195
201
211
212
210
206
207
202
199
191
181
184
202
201
193
193
194
195
190
193
189
193
194
193
185
183
184
187
183
189
188
192
192
196
201
198
193
188
193
190
189
192
196
192
201
198
201
201
205
204
201
201
204
203
207
205
205
203
199
205
204
201
200
194
189
193
201
198
184
187
197
193
201
198
197
194
200
210
209
205
209
212
209
184
186
187
202
197
194
197
193
191
197
195
207
211
214
205
209
209
197
185
184
181
198
200
189
193
197
198
197
194
196
196
198
198
191
189
184
181
180
185
186
187
187
193
192
193
190
190
192
192
193
193
194
192
190
192
197
198
206
207
204
200
203
207
204
206
203
197
199
208
200
199
196
188
192
190
204
186
182
192
203
190
199
194
198
200
194
209
207
203
209
214
206
185
180
188
199
190
195
200
191
191
196
189
206
218
216
206
207
200
185
179
187
180
197
198
195
191
194
192
199
194
197
198
197
202
203
195
189
189
186
186
187
187
189
195
186
188
186
190
186
188
193
195
196
196
192
195
203
207
209
207
208
207
208
208
207
206
205
198
200
205
199
195
191
188
190
193
203
184
180
195
212
191
189
189
195
205
199
196
205
205
207
216
205
187
176
183
192
189
197
198
192
185
193
190
204
218
218
201
189
193
191
181
185
181
192
200
204
193
193
190
197
191
193
193
192
198
196
198
197
191
193
191
191
190
193
194
188
188
183
190
187
187
189
198
200
197
198
200
201
209
209
202
208
205
205
202
203
204
203
201
203
203
198
188
189
192
187
204
200
181
185
199
214
191
180
184
199
207
199
192
197
205
206
216
206
185
173
177
183
195
196
199
195
183
188
190
204
213
209
190
183
191
189
179
183
178
186
203
206
203
192
191
198
192
190
188
191
191
188
196
195
191
187
187
188
187
189
188
186
190
186
189
187
190
191
195
194
195
194
195
198
196
199
194
198
201
200
195
202
203
201
206
205
195
190
192
188
194
192
218
192
182
190
193
195
193
176
185
197
201
196
198
191
199
207
215
206
183
175
174
182
196
195
200
197
184
179
193
196
194
193
194
179
169
184
186
186
179
180
203
207
211
196
196
198
195
190
186
190
189
189
193
194
193
191
190
187
186
186
193
184
188
187
191
191
192
188
189
184
185
187
184
192
181
187
184
188
194
194
192
196
201
206
210
200
192
187
187
189
197
199
223
196
190
194
194
188
174
173
190
200
196
195
197
196
191
207
216
203
184
177
168
195
196
197
198
199
186
174
188
184
191
197
198
165
167
189
193
189
177
173
198
198
206
211
198
199
196
196
188
186
186
189
188
192
192
193
193
187
188
190
192
189
188
191
191
192
193
186
188
182
186
183
182
187
178
185
181
182
188
192
195
196
205
205
205
194
186
187
185
189
201
200
218
200
201
194
195
190
169
168
180
211
195
194
192
196
194
198
217
202
188
177
170
195
192
194
198
199
184
168
170
190
202
196
180
164
179
195
192
190
179
185
188
191
202
211
204
198
198
201
190
189
188
188
185
192
187
187
190
185
188
190
193
191
193
190
192
193
190
184
186
185
185
181
184
184
183
182
179
183
190
195
199
205
208
200
195
188
188
185
190
194
203
202
215
197
208
199
190
183
178
173
169
195
203
190
193
192
194
200
208
202
190
183
174
185
185
186
193
196
185
161
166
197
215
194
167
168
194
208
184
189
195
200
184
195
197
206
203
198
195
199
193
192
192
188
188
188
181
180
184
186
188
190
192
193
197
192
191
193
187
180
183
180
181
180
188
185
187
180
178
184
198
204
200
206
203
192
195
181
189
189
189
201
198
210
201
190
208
205
188
173
182
181
177
173
197
195
193
194
195
206
210
197
195
185
175
184
186
185
195
196
179
157
175
198
206
182
160
171
211
210
184
191
213
195
182
197
198
200
198
194
197
197
192
190
192
190
192
183
179
177
182
187
185
188
187
194
191
191
191
189
186
186
185
183
180
190
188
188
187
187
182
191
203
209
195
204
200
190
189
188
189
196
198
194
196
214
187
182
208
205
197
172
178
190
181
174
174
190
199
193
197
205
209
186
194
189
179
183
185
185
201
192
172
169
185
199
193
170
154
188
221
207
183
212
209
184
179
195
199
196
188
189
189
200
197
191
183
193
188
187
182
183
180
187
183
183
182
189
186
191
192
188
187
186
188
188
186
195
190
191
191
189
192
204
199
206
191
201
197
194
190
194
188
200
203
196
194
214
181
174
209
205
209
183
174
197
186
174
171
181
202
199
199
206
198
189
182
185
180
182
183
193
200
188
175
185
191
189
184
157
148
208
227
201
188
215
200
177
178
195
193
196
184
177
181
190
192
192
185
185
188
186
187
184
186
189
182
186
187
193
187
187
195
189
188
190
191
192
196
194
197
192
195
195
191
206
198
198
197
199
193
193
191
196
195
204
196
198
207
206
185
163
193
222
211
199
175
200
202
176
172
169
195
205
202
203
192
192
184
182
178
181
179
197
204
181
181
188
193
186
177
147
151
219
246
194
196
209
189
172
174
191
193
189
179
171
173
189
195
186
187
185
182
187
189
186
187
193
184
186
194
196
192
197
195
191
193
194
194
198
200
199
204
200
204
200
192
199
196
196
196
196
195
188
191
196
201
198
191
198
213
192
181
172
180
233
216
205
189
194
210
186
180
169
183
208
208
204
183
194
184
177
181
185
187
206
200
175
192
188
194
187
170
132
162
228
244
192
204
201
183
164
175
185
190
181
181
171
168
187
193
191
186
186
187
188
187
187
185
188
192
191
193
197
198
200
201
196
198
199
200
202
206
211
212
208
201
199
192
194
196
195
194
196
194
192
192
199
193
192
190
194
208
184
181
171
181
227
225
206
216
182
205
200
190
181
176
201
214
204
184
193
181
179
177
194
200
222
194
181
201
195
200
189
158
127
188
237
229
203
211
189
183
163
175
182
189
174
174
175
170
177
186
199
187
184
181
190
186
189
187
186
190
192
193
195
201
202
201
202
204
204
205
204
217
215
215
204
202
197
195
194
200
197
194
195
195
193
191
195
187
188
192
191
204
188
182
175
174
218
230
205
226
191
193
208
195
191
185
199
220
198
189
194
180
176
168
205
220
224
185
190
199
196
211
187
150
144
194
243
219
212
211
184
175
167
180
180
180
173
177
177
171
176
179
196
192
181
184
186
186
191
191
187
193
192
192
196
205
201
204
202
206
210
208
211
212
208
210
198
197
198
196
199
200
197
194
196
196
194
184
188
187
190
193
189
203
192
180
183
173
209
233
206
226
210
175
212
193
198
192
207
221
195
200
202
184
180
177
214
225
211
180
193
191
201
211
178
150
153
182
242
219
215
201
183
174
176
179
182
167
164
183
175
177
180
178
190
197
191
189
181
183
190
190
191
196
193
196
199
200
201
204
204
207
213
212
206
206
205
198
197
194
194
199
202
201
197
197
193
192
187
183
187
187
190
194
195
201
192
186
183
175
208
235
213
208
220
182
203
193
203
191
211
223
202
210
203
184
180
178
222
230
201
195
197
201
203
214
176
160
163
178
231
216
216
188
182
178
176
188
185
167
164
170
176
179
179
182
188
197
199
194
191
190
188
192
195
195
200
199
203
204
208
205
214
212
211
212
205
200
197
195
191
193
198
200
206
198
196
189
193
188
188
181
188
192
195
193
194
200
191
194
181
177
210
228
221
204
212
198
209
194
197
195
210
219
206
220
212
188
177
186
225
215
193
204
201
205
212
225
177
166
179
168
218
225
210
179
183
179
177
175
183
175
173
173
168
177
182
184
188
197
200
198
201
200
202
199
209
202
208
209
210
208
215
212
213
212
210
206
201
194
199
193
198
200
200
197
198
197
191
184
193
189
188
187
188
193
196
191
201
198
186
194
185
178
222
222
219
203
205
198
231
189
197
198
204
215
211
221
217
192
181
185
204
195
191
211
211
207
216
224
182
166
181
161
214
227
203
177
183
173
171
162
175
172
182
185
172
173
174
181
187
197
203
198
197
206
209
208
212
209
215
218
214
214
220
218
213
208
209
205
203
196
198
195
202
200
198
194
196
193
188
191
193
189
189
190
194
191
194
193
205
189
192
195
187
181
226
224
208
202
203
217
236
194
191
200
194
198
206
215
220
192
183
189
197
201
204
228
219
205
228
215
163
155
203
180
213
215
202
168
170
165
161
162
171
168
183
187
184
178
178
171
181
190
201
204
199
199
209
205
210
206
212
216
216
214
221
211
212
207
208
206
204
198
202
199
200
200
195
199
193
193
195
194
191
196
193
192
196
191
194
196
203
191
202
188
188
187
228
218
196
210
191
233
242
213
191
189
198
197
190
198
206
192
176
186
