P2
# Face with average contibution
92 112
255
183
184
186
184
185
184
185
183
184
183
183
184
184
181
187
190
187
180
178
176
175
175
178
177
177
178
179
180
180
182
185
188
186
183
183
184
187
191
191
190
192
194
191
192
188
190
190
193
189
189
187
189
188
186
184
182
179
179
180
177
177
172
176
179
182
180
183
188
190
187
189
187
188
186
188
185
185
185
187
185
186
187
186
183
183
184
184
185
186
186
185
186
183
185
185
185
185
184
186
185
183
184
185
182
181
183
186
185
182
176
178
179
182
180
179
180
179
179
181
182
185
184
184
185
185
183
186
188
191
195
193
193
198
199
197
194
194
195
196
194
191
194
192
191
191
192
188
189
184
181
180
177
176
171
173
171
176
177
180
184
186
190
189
188
187
187
188
186
183
184
187
185
189
187
187
184
183
184
185
185
185
186
185
185
184
184
184
186
185
185
185
184
182
183
186
181
181
184
182
181
177
180
182
179
179
183
185
182
181
179
183
185
185
185
184
184
187
190
192
191
195
197
196
198
199
201
200
201
201
199
200
198
196
196
196
194
192
189
192
188
189
183
182
181
179
173
172
176
173
176
179
183
184
184
185
189
188
186
188
188
188
185
185
188
188
189
189
184
186
184
184
185
185
185
185
184
183
183
186
184
186
186
185
185
185
184
186
181
181
183
181
180
178
180
182
184
182
187
185
181
179
180
180
181
181
183
186
191
192
193
193
193
198
197
200
202
201
204
205
205
206
202
198
202
199
200
199
195
193
191
193
187
188
184
183
186
182
179
176
178
180
180
181
182
182
184
183
185
184
187
186
188
189
186
184
189
188
190
190
186
186
185
185
184
185
185
186
186
185
184
183
183
185
186
186
186
188
187
181
180
181
182
184
182
181
180
183
185
186
186
185
185
182
181
182
181
183
188
189
191
197
195
194
195
195
198
201
202
199
204
206
204
207
206
201
200
200
198
201
197
194
192
191
188
185
185
185
186
188
185
183
182
184
187
187
186
185
182
184
184
185
181
183
186
189
185
186
188
190
191
190
189
185
186
186
185
184
186
187
185
186
184
183
183
186
184
185
186
188
185
177
180
181
180
184
181
178
182
184
183
181
183
188
186
183
181
186
187
187
190
190
192
194
197
195
201
201
204
205
205
204
205
205
203
207
205
203
202
201
201
198
197
194
193
194
188
191
190
189
191
192
191
189
188
188
193
196
189
189
190
187
184
187
181
178
179
184
184
185
188
188
188
191
190
187
186
185
186
184
186
186
186
185
184
184
184
183
185
182
183
181
181
178
181
180
181
184
181
179
181
181
179
180
182
185
182
185
187
191
193
193
192
192
195
197
201
204
205
204
206
205
207
205
204
205
203
202
205
201
202
203
202
200
195
195
194
193
191
188
194
193
195
193
194
192
191
191
193
196
195
191
194
194
189
187
182
178
176
177
173
178
182
187
188
191
189
189
186
182
187
184
186
186
186
185
187
186
185
184
183
180
180
181
178
179
181
180
182
181
179
177
181
183
182
180
178
180
185
191
193
197
198
195
195
197
203
205
208
209
211
209
208
210
206
205
201
202
202
200
205
201
199
200
199
200
199
197
197
195
193
187
192
193
194
195
196
196
192
193
192
196
197
197
195
197
195
192
187
181
175
176
172
171
177
185
187
186
188
190
189
185
185
187
185
187
187
184
185
186
186
181
180
181
182
180
181
178
180
180
180
179
173
177
177
182
181
179
181
187
194
196
196
196
198
198
201
203
204
208
208
210
211
212
209
211
207
206
205
204
207
203
205
204
201
201
199
200
199
198
199
197
195
190
192
195
193
197
198
198
197
195
196
195
199
198
197
199
197
193
189
187
179
174
175
172
170
178
182
185
186
190
191
188
184
186
187
187
186
185
185
185
182
179
180
181
185
184
183
180
182
186
180
180
178
177
178
180
178
182
187
197
196
196
201
199
200
207
207
207
210
210
210
209
211
213
210
212
210
208
208
205
207
205
206
204
200
202
203
200
201
201
201
198
197
197
191
193
193
192
199
198
199
198
200
198
200
201
197
200
202
198
194
194
187
179
174
171
173
174
177
183
186
188
187
187
187
187
187
187
186
185
184
180
178
178
179
183
186
182
178
182
185
181
177
179
179
176
176
178
183
190
193
195
200
201
200
202
205
208
210
213
213
213
211
212
215
213
212
215
216
214
213
211
210
209
206
206
204
202
203
202
203
204
202
202
200
199
197
195
194
191
197
196
196
200
200
199
199
199
198
201
201
204
200
197
193
182
179
176
173
173
178
176
181
189
188
184
188
187
187
186
187
184
180
174
174
175
182
183
180
183
184
185
183
177
177
177
176
174
178
182
186
191
192
196
200
198
202
205
210
213
212
214
214
216
214
216
215
217
215
214
216
214
214
211
209
210
207
209
207
207
204
204
204
202
201
201
201
200
200
198
197
195
202
197
194
198
201
201
202
199
200
202
200
203
202
197
198
194
183
177
178
173
176
177
173
182
187
188
185
187
185
188
187
178
178
175
174
179
183
180
181
183
186
187
182
178
177
177
174
177
180
184
191
192
192
197
196
200
202
207
211
214
214
214
215
216
215
216
215
215
215
214
213
212
212
211
207
209
209
208
208
206
204
201
205
204
202
202
205
204
201
201
200
204
204
203
200
198
200
201
204
205
207
204
205
207
204
203
197
198
194
183
177
181
177
176
177
173
182
187
188
184
187
187
188
179
177
176
179
181
181
181
179
180
186
182
177
178
176
176
176
175
183
188
194
195
193
196
200
201
205
207
209
210
210
210
213
214
213
211
214
212
213
210
211
211
211
213
209
212
209
210
210
207
209
204
203
204
205
204
206
207
206
205
205
207
209
206
206
203
203
201
205
209
213
214
211
207
204
203
202
198
197
194
185
181
181
180
178
176
179
184
186
187
185
187
189
179
175
180
181
181
181
179
177
180
180
175
176
173
174
173
177
178
186
191
194
194
194
197
199
198
204
205
209
208
209
208
210
210
212
210
213
212
210
209
211
209
211
212
209
212
213
213
210
210
209
208
205
207
205
205
209
209
212
211
209
210
211
208
210
206
210
204
208
213
215
214
212
208
206
203
202
202
196
198
191
184
182
183
179
178
177
184
184
185
186
189
190
176
176
178
181
180
178
178
176
179
180
173
171
171
173
173
178
181
189
192
191
192
195
197
195
199
206
205
204
207
210
210
210
211
210
209
212
212
209
209
209
208
210
208
210
209
213
213
212
210
208
210
212
211
212
213
214
211
215
216
216
213
214
213
213
214
216
214
213
213
216
217
214
208
210
204
200
204
200
194
197
188
184
186
182
180
182
182
187
185
186
189
192
174
180
180
182
182
181
179
177
178
172
166
165
171
173
175
176
182
189
191
191
193
197
197
197
202
206
205
204
210
211
211
210
209
207
208
211
209
209
207
207
207
209
209
210
210
211
213
210
209
208
211
215
214
215
215
215
215
216
218
215
216
219
218
216
218
217
220
218
216
217
220
219
216
213
208
200
203
205
202
197
198
187
186
184
181
183
181
184
185
185
186
189
174
182
184
179
182
185
181
177
176
166
166
168
170
174
176
179
184
189
188
192
195
194
196
200
203
204
205
205
207
205
208
206
206
204
207
209
208
209
207
205
207
207
207
208
208
213
214
211
212
213
214
217
215
217
216
215
215
214
217
217
215
217
219
220
220
221
225
224
221
223
225
224
216
215
210
206
200
206
207
202
202
193
190
186
184
183
181
183
185
187
185
187
176
181
182
181
183
185
182
179
172
165
166
168
174
178
175
182
188
190
188
192
196
195
195
201
204
203
203
204
206
204
205
205
201
204
203
205
206
205
206
206
211
206
207
208
209
210
214
214
213
217
216
217
217
217
218
216
215
215
216
216
218
219
220
220
221
220
225
224
222
226
226
227
218
217
211
209
203
206
209
207
200
200
191
188
185
185
183
183
187
188
188
186
179
183
183
183
186
183
178
174
168
165
167
170
174
175
176
184
189
190
189
191
195
193
198
203
205
203
203
204
204
204
203
201
203
203
201
202
204
203
202
205
206
208
206
207
207
211
211
213
215
215
218
215
215
219
220
215
215
216
218
216
219
219
220
215
221
220
224
225
226
224
228
227
223
218
214
212
206
207
211
208
200
201
197
187
187
187
187
185
184
191
190
188
182
184
186
184
183
179
175
170
171
168
169
169
170
172
176
183
187
189
187
189
191
195
202
201
203
204
204
205
202
203
202
201
203
204
201
201
202
201
201
203
206
207
204
206
209
210
212
213
213
217
216
216
215
219
218
217
215
216
217
218
220
217
216
216
216
218
224
227
225
227
228
234
227
221
217
214
213
206
208
208
204
202
199
190
187
190
188
188
185
189
192
190
183
186
191
182
182
179
174
172
167
168
171
170
170
172
177
184
185
186
188
189
193
198
203
201
203
203
202
203
203
204
202
201
201
202
201
200
200
200
200
202
205
207
206
208
210
210
212
213
217
216
216
217
217
218
218
219
220
218
220
219
221
221
218
217
215
218
221
226
225
225
229
230
231
224
220
215
215
209
209
206
209
204
200
194
189
191
187
189
190
189
191
192
185
189
189
182
185
178
172
170
165
167
170
169
170
173
179
184
184
188
190
191
194
201
201
203
203
203
201
202
200
200
199
201
199
200
201
202
201
201
202
203
206
208
208
210
212
214
214
217
218
217
219
221
220
222
221
222
223
224
224
220
223
222
221
219
220
220
222
223
224
226
228
229
232
224
224
218
217
212
210
206
211
208
203
194
193
190
187
189
189
191
193
190
188
187
189
186
185
177
169
166
167
169
170
169
169
174
181
183
189
191
191
194
197
200
199
202
202
200
200
200
199
198
199
199
201
201
202
203
202
204
205
206
208
209
211
213
215
216
218
221
222
220
223
227
222
224
224
224
226
228
226
224
223
225
223
222
224
226
224
223
221
227
229
229
232
228
225
221
220
211
212
205
213
212
204
198
195
195
192
188
189
189
194
193
185
188
188
188
188
176
172
167
165
169
167
170
170
175
179
189
193
192
193
196
197
200
200
201
203
202
202
202
202
199
199
199
201
202
203
206
206
209
208
210
210
213
214
215
217
219
220
224
228
226
225
229
229
228
226
227
227
230
229
227
228
227
228
229
227
228
226
223
220
226
227
230
232
234
228
226
222
213
214
209
211
211
205
199
192
194
198
188
190
189
194
194
185
193
188
191
189
176
171
168
167
167
166
170
172
171
181
192
195
195
196
197
198
200
201
204
204
204
204
203
204
203
202
202
202
205
207
212
212
212
210
213
213
214
216
218
219
222
222
225
228
230
228
232
231
232
228
230
230
231
230
231
230
232
230
232
232
232
227
225
222
223
226
232
234
233
233
229
224
217
211
212
210
210
204
198
192
194
201
194
188
192
193
194
193
192
189
193
188
180
174
167
165
166
165
169
170
173
184
189
194
197
198
199
201
202
204
207
204
207
207
205
205
205
204
205
209
208
210
211
214
214
215
216
218
217
218
220
222
225
224
225
228
230
231
233
233
233
232
233
232
233
231
231
233
235
234
232
231
232
230
226
221
224
227
230
235
231
234
230
223
218
213
213
215
213
205
197
194
194
198
198
189
193
192
196
194
197
191
193
186
181
170
163
165
167
165
168
164
174
186
191
197
198
197
199
202
205
205
207
209
210
210
206
208
207
208
208
210
212
212
213
215
217
218
218
218
221
221
222
223
224
226
228
228
231
233
234
234
235
236
237
234
236
234
232
235
235
235
233
231
231
234
228
221
225
227
228
232
233
233
231
225
220
213
213
216
214
205
197
197
198
196
195
192
192
190
195
196
201
194
190
187
181
167
163
164
164
163
167
166
176
189
193
199
199
198
200
201
205
207
209
211
210
210
208
208
209
209
209
211
212
215
215
215
217
216
218
218
220
221
221
223
220
223
226
228
230
233
234
234
233
235
236
237
237
233
233
235
236
235
233
232
234
233
231
227
224
226
228
231
231
230
231
226
220
214
213
215
215
207
200
197
201
199
195
193
193
188
190
199
201
195
190
185
180
167
164
166
163
163
165
168
181
193
195
199
200
201
201
203
207
210
212
212
212
211
211
209
210
211
212
212
213
214
216
215
216
215
217
218
219
221
222
221
220
222
223
227
228
229
233
232
231
233
233
236
234
231
233
233
233
232
233
232
233
232
231
228
224
224
226
227
230
230
230
230
220
215
212
214
214
211
205
202
202
199
198
195
194
187
186
201
201
197
193
185
176
165
165
169
163
164
168
171
186
194
195
198
198
202
203
206
210
211
212
212
211
211
211
210
209
213
212
211
214
211
214
216
215
215
217
218
218
219
221
220
219
221
221
225
226
228
232
234
231
230
230
233
232
229
231
231
230
232
233
233
233
232
231
229
227
224
223
228
227
229
230
231
224
219
213
215
210
208
206
201
201
202
196
200
195
188
182
202
200
200
195
182
176
165
168
168
165
167
167
177
186
195
196
196
199
205
204
209
214
213
213
211
211
214
212
212
211
213
213
209
211
209
209
215
213
214
214
216
219
217
219
219
218
220
219
224
226
227
230
233
230
228
227
225
228
226
226
226
228
230
231
231
232
231
230
230
229
227
224
226
228
228
230
230
224
220
213
214
210
207
201
198
201
200
197
198
196
191
182
199
198
201
197
178
171
165
162
168
167
171
171
180
188
196
197
199
202
204
205
210
211
213
211
210
212
213
212
213
212
211
211
207
208
207
207
210
210
212
213
215
217
218
218
217
220
221
219
223
225
227
228
229
225
224
223
221
221
223
222
220
223
229
230
230
231
232
231
231
230
232
229
227
226
229
229
229
225
220
215
214
213
211
201
200
205
205
204
200
197
193
184
199
196
206
200
176
170
165
164
172
170
172
176
184
191
199
201
206
205
206
206
207
207
205
204
201
205
209
209
210
210
209
208
208
207
205
205
206
209
211
213
214
217
219
217
217
221
223
221
222
223
224
224
223
222
222
222
219
217
218
222
220
222
225
228
230
231
234
235
233
231
234
232
230
228
227
231
229
224
219
212
213
215
212
203
203
207
209
207
207
198
193
185
198
198
209
197
177
170
165
169
169
168
168
176
186
189
196
198
202
203
202
200
201
202
199
199
198
199
199
200
197
193
195
200
198
197
196
194
197
202
208
211
212
213
215
216
216
218
219
219
220
220
221
220
219
220
221
221
219
217
216
220
222
222
221
223
228
229
231
234
235
233
233
234
230
231
230
228
230
225
222
214
210
214
213
203
203
206
210
206
205
203
194
187
199
203
206
196
177
168
167
166
164
170
171
183
188
191
196
198
203
205
202
199
203
200
198
197
197
196
193
191
188
187
187
194
195
196
197
197
199
202
207
211
214
213
218
219
219
222
221
224
221
223
222
222
216
219
217
219
219
217
214
213
215
216
217
217
220
222
226
229
231
231
232
232
230
230
234
234
232
228
225
219
216
215
213
204
203
208
205
203
206
205
198
190
203
207
200
195
177
171
166
163
168
174
177
186
191
192
202
204
204
202
197
195
197
193
191
191
192
192
192
190
188
188
190
194
196
197
202
203
202
200
204
206
210
211
217
221
218
222
221
224
222
221
223
220
217
216
217
219
218
217
214
211
213
212
212
214
218
218
219
222
226
231
232
232
231
227
229
236
234
229
223
220
222
222
215
201
202
207
204
201
203
206
201
196
207
208
195
190
184
174
162
166
172
176
177
190
196
196
202
200
200
202
193
190
192
196
197
197
201
205
204
200
194
191
190
194
195
198
200
203
204
199
201
202
208
211
213
218
220
219
221
220
221
221
221
220
216
213
213
214
215
216
215
214
219
212
211
214
218
221
223
225
226
230
233
236
234
231
226
233
236
229
223
216
217
220
218
208
199
203
207
199
202
202
207
198
203
206
197
186
185
175
162
164
171
177
178
194
199
190
200
203
204
201
194
191
198
204
207
207
209
208
206
202
194
193
192
190
193
197
195
200
198
199
199
203
209
214
217
215
218
218
218
216
217
219
218
216
211
209
207
211
214
213
212
217
218
213
219
215
223
224
226
227
226
230
233
237
237
234
230
230
235
230
226
217
213
215
213
209
206
202
202
198
202
202
205
200
201
203
202
187
188
176
167
170
172
175
186
193
198
191
201
207
204
200
197
200
207
210
211
211
208
200
201
201
197
196
194
195
197
198
199
202
201
198
197
200
206
211
217
216
215
219
216
212
213
213
214
212
207
207
205
204
206
210
212
215
217
214
223
215
221
224
227
229
226
230
230
231
235
232
232
226
235
230
224
220
215
213
209
205
209
205
200
197
196
203
203
200
200
201
206
192
189
179
175
178
176
182
183
194
196
191
201
210
205
203
203
207
208
213
210
211
209
206
209
209
200
200
203
195
199
196
200
196
200
200
193
196
203
207
214
217
218
222
216
213
214
214
215
210
209
206
203
197
201
205
206
208
215
208
207
208
220
218
226
227
226
229
230
231
234
237
232
231
239
232
230
222
215
211
205
203
211
210
206
196
195
200
202
198
201
194
205
196
194
177
183
181
184
179
187
194
195
192
204
212
209
206
208
208
212
208
207
217
211
211
211
209
201
197
201
191
197
191
196
190
191
193
192
191
200
205
207
214
216
219
214
212
212
219
216
215
213
201
201
200
201
200
201
203
207
197
199
201
210
211
219
221
217
219
226
228
232
236
229
230
238
237
234
233
223
211
202
199
211
216
208
202
198
201
195
200
197
191
198
196
191
180
190
193
192
180
197
198
195
195
207
211
206
206
207
206
210
202
204
206
200
206
209
207
205
198
192
193
192
196
196
193
189
192
193
196
199
204
208
214
211
215
217
215
216
217
214
213
210
204
202
199
196
196
196
197
202
200
194
199
205
207
210
216
212
214
216
223
226
228
224
225
231
230
233
228
223
208
206
202
215
217
208
202
203
201
192
202
200
185
198
196
181
190
193
194
190
175
197
196
196
196
210
217
213
213
213
209
210
210
210
198
208
208
208
202
200
199
191
186
185
190
191
192
189
190
189
195
200
204
201
212
205
211
214
219
221
222
215
215
212
204
199
199
193
194
195
195
202
193
189
195
197
199
206
207
212
215
212
215
221
231
234
227
229
229
233
225
224
201
204
204
209
218
207
204
201
199
194
200
201
188
194
196
179
195
192
193
192
178
196
191
198
198
212
220
214
216
217
216
217
211
205
198
208
208
206
208
208
196
208
194
188
191
191
193
186
185
181
192
195
193
194
208
203
208
208
217
225
225
220
220
214
206
203
203
198
197
198
195
199
194
183
195
194
199
206
210
211
216
220
219
213
227
239
238
238
232
231
227
226
200
198
201
206
210
211
203
198
194
197
198
207
194
199
196
189
196
191
197
193
190
192
195
202
201
215
218
217
218
221
220
212
209
208
210
211
209
206
205
208
192
197
192
187
196
193
199
195
189
189
192
201
205
210
217
211
206
206
217
224
221
221
216
212
202
205
206
202
207
206
205
212
210
196
212
201
207
221
215
221
216
211
225
223
221
237
236
236
239
229
234
224
202
195
204
205
208
207
207
196
188
196
201
208
198
203
203
192
198
197
204
194
193
191
201
205
205
223
221
222
221
219
219
213
210
210
209
204
200
198
196
206
197
192
190
190
195
197
199
202
201
201
194
197
202
211
215
220
214
214
224
220
221
217
214
205
200
205
200
206
212
213
209
211
216
204
212
210
210
223
220
232
223
217
220
227
222
237
236
239
239
232
236
228
206
198
202
209
207
205
207
199
193
194
197
208
197
204
209
195
200
197
204
198
198
198
203
203
209
227
227
233
226
224
223
216
209
207
209
205
201
196
199
198
199
190
189
191
191
202
200
207
205
206
203
203
193
208
216
219
212
216
224
218
219
224
216
212
211
202
195
205
210
210
209
208
217
208
209
212
209
212
221
225
221
217
219
220
221
233
238
239
245
235
241
239
212
207
209
208
206
210
205
203
199
196
193
208
196
205
203
193
202
197
213
201
204
206
206
203
214
229
233
236
228
230
231
223
218
217
219
211
210
203
200
201
197
189
197
198
198
209
210
210
206
210
209
209
192
209
224
223
218
211
228
217
222
223
224
217
217
204
203
202
197
202
201
200
209
206
208
210
209
218
224
225
227
225
224
222
225
231
239
238
240
238
242
243
221
220
209
216
215
215
212
202
203
197
189
213
202
205
198
197
201
200
213
207
210
218
212
206
214
225
240
244
233
235
236
234
230
222
221
215
212
200
198
207
196
190
195
197
201
209
210
207
214
213
210
206
198
206
221
222
218
211
225
218
223
223
221
221
215
216
207
203
202
210
208
201
210
213
202
204
204
214
217
216
223
224
226
229
233
235
241
244
239
236
232
239
224
223
217
215
221
218
214
203
203
199
183
213
203
203
198
200
206
207
216
212
209
220
214
207
216
227
245
249
236
236
244
242
230
223
221
216
212
211
202
200
187
190
191
201
197
204
207
211
213
211
213
206
204
210
214
220
231
219
231
228
229
229
221
225
218
221
213
211
209
216
218
210
211
211
206
207
209
208
213
211
217
216
224
232
232
233
240
248
237
240
231
238
224
223
218
216
226
223
214
197
199
201
178
209
201
204
199
201
206
207
215
214
211
213
216
208
225
233
243
242
230
236
237
236
231
219
216
209
208
205
205
202
193
198
193
199
201
206
209
219
213
212
211
209
209
212
213
215
227
227
232
229
228
230
228
218
218
226
221
221
210
217
221
217
214
207
203
207
203
202
204
204
212
213
217
227
236
235
238
251
240
240
234
239
231
224
220
223
231
217
206
200
201
202
178
204
196
208
200
206
206
210
210
209
208
207
214
218
232
240
242
240
230
237
238
236
232
214
210
205
207
204
204
202
202
204
199
204
203
203
207
215
214
216
211
213
214
216
214
225
232
238
237
233
225
228
230
218
221
228
237
228
217
219
222
221
210
207
205
202
207
197
198
203
204
216
216
220
231
236
242
249
245
243
235
236
234
227
223
224
226
213
204
198
203
200
178
204
193
209
195
203
210
213
212
206
208
206
209
215
225
237
240
233
226
229
232
229
225
220
214
210
205
204
203
200
200
204
201
204
201
202
212
209
213
215
215
213
219
224
226
240
244
241
250
243
233
232
236
221
225
226
235
234
220
218
223
221
213
211
212
207
211
206
208
214
209
216
214
219
224
226
240
245
248
245
238
238
238
226
223
222
217
214
205
201
203
199
183
202
194
207
195
190
207
214
210
205
209
204
205
208
215
230
234
226
222
223
227
223
217
211
210
204
207
205
207
205
201
199
204
196
200
204
212
210
210
212
216
215
220
223
233
241
244
242
250
255
242
233
232
226
217
222
223
226
220
213
217
219
214
212
209
210
207
211
214
217
216
219
219
224
226
227
236
253
252
243
238
239
238
218
214
221
215
214
203
203
205
197
191
205
197
201
196
189
194
215
208
198
211
197
199
204
213
224
234
229
222
224
226
223
218
213
210
209
205
204
206
210
204
207
203
201
206
205
208
210
212
215
218
211
218
222
234
240
235
245
244
251
251
241
237
225
217
214
220
218
219
215
215
215
215
210
211
211
210
218
224
223
227
228
226
232
231
230
240
251
254
245
240
240
239
217
205
218
215
206
205
205
203
193
192
207
199
199
200
196
194
207
210
192
206
202
198
204
217
220
234
230
230
230
228
224
222
219
219
217
212
209
212
213
216
218
212
208
210
208
207
205
213
215
215
214
217
220
230
230
233
241
242
248
247
246
241
228
223
221
216
224
221
221
218
221
220
217
218
220
221
225
227
231
232
232
231
233
237
237
244
249
253
251
240
239
237
218
202
217
213
201
200
209
204
186
189
210
198
203
206
202
202
205
202
191
198
196
206
208
218
218
228
220
226
226
225
222
222
220
221
218
215
209
209
212
216
214
212
212
210
213
209
211
216
215
221
219
222
226
226
228
237
237
242
244
243
247
238
233
224
224
221
223
227
224
220
222
221
220
220
222
222
223
223
225
230
232
231
234
235
238
243
244
249
250
242
240
231
214
206
211
211
194
196
217
199
182
189
213
201
203
205
202
209
202
202
198
195
190
197
214
216
217
218
213
215
217
221
220
221
217
220
216
212
211
211
209
210
209
211
216
213
215
219
222
214
225
222
221
225
225
219
224
232
235
242
245
242
239
235
231
229
225
230
224
224
228
226
219
216
215
215
220
219
221
222
222
226
228
229
235
231
232
240
242
246
249
245
237
228
209
204
211
203
188
198
215
198
183
191
214
206
203
200
191
203
208
202
201
201
184
191
206
220
218
212
210
207
214
216
215
216
213
214
215
211
209
206
206
209
216
215
216
220
221
223
211
216
221
218
219
224
216
215
222
229
233
234
240
240
232
232
224
222
219
226
227
227
227
230
227
222
218
216
215
215
215
220
221
224
224
227
231
233
233
240
241
240
242
243
233
226
209
216
208
196
193
202
209
196
183
190
209
210
206
190
189
201
213
204
201
204
182
182
197
207
214
209
216
207
216
216
219
219
217
214
213
211
216
213
206
213
218
217
218
222
228
215
217
218
217
215
217
213
213
218
219
224
231
232
231
232
224
227
219
216
215
217
219
218
223
219
222
225
219
217
214
215
215
218
219
225
223
225
229
233
234
238
242
236
235
244
230
227
215
214
207
197
196
202
201
192
186
190
205
206
209
190
190
208
214
209
202
199
190
177
188
199
202
200
206
207
210
215
221
221
216
213
214
212
217
218
210
213
217
216
218
222
224
223
217
216
215
211
209
204
213
216
220
227
230
232
230
226
223
218
214
210
214
209
213
210
212
215
216
222
225
216
216
217
221
221
220
222
226
227
229
233
234
238
243
231
236
246
233
220
213
214
199
205
196
197
199
190
187
195
198
201
208
195
192
202
212
212
200
200
191
182
185
195
199
199
202
208
211
217
221
223
219
215
215
216
217
216
213
214
217
218
218
221
226
223
214
212
212
206
205
205
211
214
221
227
227
226
227
224
222
217
205
205
207
203
212
211
203
205
209
213
214
210
214
219
227
228
227
225
226
229
232
236
238
241
239
233
239
244
229
216
213
212
197
214
200
195
195
194
188
197
192
192
203
194
189
193
207
212
202
204
198
182
188
200
198
196
204
206
210
219
222
222
221
216
214
213
218
212
209
211
213
215
218
221
221
218
214
209
209
206
206
202
206
207
217
223
223
218
216
215
216
217
208
201
202
201
204
209
201
198
202
208
208
205
205
210
220
225
227
227
228
229
234
239
236
240
236
235
239
248
221
211
213
204
204
214
198
191
199
196
187
198
190
189
197
190
181
195
202
211
206
209
200
189
191
202
204
203
200
203
207
208
213
219
221
216
212
210
214
212
208
213
212
211
211
216
216
217
213
212
212
212
212
202
200
202
217
216
218
216
209
208
213
211
209
197
192
198
203
204
203
195
195
207
211
207
208
212
213
216
221
224
229
232
234
237
236
239
239
239
235
243
216
211
211
201
207
212
197
190
200
195
189
195
190
186
198
194
185
192
201
212
209
205
194
192
193
202
202
205
206
208
211
210
207
204
204
206
209
209
212
213
209
208
207
206
208
215
218
220
219
218
214
212
211
198
194
198
206
212
213
210
206
203
207
209
202
192
190
192
201
206
202
197
199
209
208
209
211
213
216
218
222
223
229
232
232
235
234
237
238
234
229
241
216
215
208
207
210
209
198
191
199
192
191
187
192
182
195
196
193
190
198
204
207
203
197
194
191
200
205
205
209
212
211
211
208
208
206
205
206
206
206
207
207
207
208
216
217
219
224
223
225
219
217
214
207
201
195
198
203
205
207
208
200
197
202
204
201
191
188
196
203
205
203
196
201
211
209
207
210
213
216
219
222
224
228
231
230
231
236
240
236
232
229
231
214
213
215
208
206
204
196
193
201
197
192
185
193
182
190
192
195
189
195
197
197
201
200
205
194
196
205
207
212
216
214
212
211
212
212
213
211
212
211
211
211
212
214
225
224
221
225
226
226
218
216
210
208
204
202
199
203
202
208
206
198
193
200
198
204
196
189
195
203
207
204
200
203
206
207
210
213
216
219
218
222
225
227
228
234
237
239
238
236
233
230
223
212
216
218
208
205
203
192
194
202
199
189
185
189
182
187
189
192
194
190
199
191
199
202
205
198
195
206
209
215
216
217
215
216
216
216
216
215
215
214
213
213
216
220
226
225
224
226
227
225
213
211
204
203
199
201
200
201
203
207
206
202
196
198
196
198
198
192
198
202
207
207
208
207
209
208
208
209
215
218
218
224
228
231
233
238
240
239
241
238
234
227
218
217
217
214
210
207
207
192
198
204
193
188
183
184
184
182
193
187
198
193
199
195
195
199
205
199
198
206
211
213
219
220
219
219
220
220
219
216
214
212
215
215
217
225
227
228
229
225
229
224
215
207
200
198
197
201
205
207
206
207
211
209
204
201
199
199
199
195
203
208
211
211
212
206
208
209
211
215
216
220
223
227
228
231
234
237
239
238
239
234
231
226
217
219
215
212
209
212
205
193
204
204
184
189
181
186
181
179
191
185
193
197
200
198
193
192
200
198
204
203
212
211
220
221
222
222
223
221
217
216
214
215
218
216
220
226
230
231
229
229
230
228
219
210
204
199
203
208
209
211
212
211
214
213
211
208
206
202
205
203
206
209
214
215
218
213
211
211
212
215
217
222
228
229
231
232
237
238
240
241
239
236
230
221
211
215
214
209
207
212
197
200
205
195
182
186
182
182
182
175
191
182
186
195
200
200
193
190
201
195
202
205
213
215
221
224
225
225
225
221
216
217
217
219
217
220
225
226
230
233
230
231
231
227
225
214
212
207
210
213
211
211
214
211
216
215
213
211
211
208
210
206
207
208
212
215
219
217
212
216
218
222
224
227
230
231
234
234
240
241
241
241
238
233
228
215
210
212
212
203
211
208
191
205
200
192
185
185
185
182
178
178
187
178
179
193
202
194
196
192
203
196
200
205
211
218
222
225
224
226
227
225
219
221
221
220
220
223
227
226
230
233
233
233
230
229
226
221
218
216
217
220
212
213
212
209
213
215
210
211
217
218
217
210
207
211
214
218
220
216
217
216
220
225
230
231
232
231
236
236
240
242
242
239
235
229
223
215
208
205
200
201
205
199
196
203
196
191
186
183
189
181
176
176
185
177
169
186
204
197
197
195
204
195
198
205
212
219
224
224
222
225
226
225
222
225
224
225
224
228
226
226
227
230
233
235
233
234
231
226
222
222
220
222
220
216
216
211
209
211
213
211
213
222
218
216
208
213
212
213
214
214
217
218
218
226
230
234
237
231
236
238
239
240
242
236
234
226
221
213
209
200
190
194
195
190
196
197
199
186
184
186
191
180
179
176
183
178
168
175
195
198
196
198
204
200
192
205
212
218
224
221
221
223
225
225
225
228
229
229
228
230
227
227
228
225
228
231
230
232
230
228
226
226
223
220
221
218
218
212
206
210
211
211
211
213
216
213
210
213
214
213
212
213
214
214
216
224
231
234
236
235
234
239
238
239
240
235
230
226
220
210
206
193
185
191
190
184
195
199
197
183
183
189
191
180
181
178
182
178
172
173
189
192
190
195
204
203
192
207
211
218
221
221
219
222
225
227
228
231
233
232
231
229
229
228
225
224
225
228
228
225
225
227
227
226
223
218
216
216
217
212
207
205
206
206
204
204
205
208
208
213
213
215
213
214
212
210
214
219
229
232
232
235
235
237
238
239
239
235
229
226
220
210
202
191
190
190
189
185
194
200
192
180
185
191
189
179
179
180
182
180
170
174
186
190
188
190
205
207
197
209
210
215
219
221
219
224
225
226
230
237
233
235
235
229
226
223
219
223
225
225
226
226
225
226
224
220
219
215
209
211
213
211
207
204
198
198
198
200
200
201
206
209
209
212
212
215
211
207
213
216
225
233
232
235
236
237
237
237
237
232
229
227
219
214
200
192
193
190
189
189
192
195
184
180
189
190
189
180
176
180
183
180
174
171
185
189
190
188
203
211
204
207
212
213
221
219
220
226
226
227
234
238
236
238
236
231
224
223
220
220
221
223
221
222
220
220
218
217
215
210
205
205
207
208
204
199
196
196
198
199
195
197
202
207
210
208
210
212
208
205
208
214
221
233
234
232
239
233
236
235
235
233
231
231
220
217
196
194
197
188
188
187
191
188
180
181
192
190
189
180
176
177
183
182
179
169
179
185
189
190
198
210
206
206
215
213
218
221
222
226
228
233
233
237
237
240
236
229
225
222
217
218
217
217
217
216
214
212
213
211
208
204
199
203
202
201
201
199
199
201
201
197
196
197
199
203
206
208
207
209
206
205
208
210
217
228
235
230
239
235
234
235
235
232
232
229
221
216
193
197
199
191
187
188
192
182
180
187
194
189
190
177
179
175
180
182
180
175
174
180
185
188
193
209
207
205
215
212
221
222
224
228
231
232
233
235
237
240
233
230
224
218
212
214
212
210
210
208
206
203
206
201
201
204
200
203
202
204
203
204
204
205
205
200
198
202
202
205
207
211
210
213
209
206
207
211
214
220
234
231
238
232
234
232
234
234
232
226
222
213
191
203
201
191
186
186
186
181
183
191
193
191
190
179
177
177
176
183
180
179
173
174
177
182
188
203
207
202
215
215
218
221
227
229
230
231
231
235
236
234
228
228
220
215
212
213
213
207
202
199
202
203
205
202
200
202
203
206
203
205
208
210
209
214
213
207
201
205
209
211
208
211
209
214
212
209
210
214
218
220
230
233
236
231
231
232
234
235
233
227
222
211
194
205
199
183
182
184
183
184
185
193
190
190
189
180
177
176
176
179
177
179
173
175
175
178
181
194
203
199
211
215
217
221
227
228
231
233
231
235
233
232
227
226
224
219
214
219
217
211
200
199
203
205
208
203
201
198
202
206
205
205
208
211
211
212
216
208
204
206
213
212
213
216
215
216
219
212
215
219
220
225
228
233
234
231
230
233
232
236
232
230
222
209
199
200
189
179
181
184
186
184
186
192
190
190
189
179
177
176
176
180
173
180
172
175
176
179
179
188
201
199
209
215
216
221
224
226
230
231
227
229
227
228
229
228
229
226
221
218
218
213
204
202
207
208
209
208
207
209
210
212
210
210
211
209
212
213
215
209
206
209
216
219
221
222
225
222
223
219
219
222
223
225
228
230
229
233
230
233
233
235
230
231
220
208
202
198
187
180
183
187
189
180
188
191
190
191
188
180
178
177
176
178
176
176
175
174
177
177
179
180
196
196
204
213
213
220
224
222
226
228
223
225
222
221
223
225
231
228
223
223
218
218
215
214
218
223
218
218
213
216
217
215
215
214
212
208
209
211
214
212
214
217
220
225
227
229
227
223
224
223
223
225
222
227
227
228
228
232
230
232
235
232
228
228
216
208
202
197
188
184
188
189
184
182
189
190
190
190
190
180
178
178
176
177
178
173
180
173
178
176
177
179
187
190
198
212
210
219
225
220
222
227
225
225
223
220
218
217
224
228
223
228
226
226
225
227
225
225
224
227
222
220
222
218
215
216
217
214
209
214
218
215
219
221
225
226
223
227
229
225
226
226
227
224
223
227
230
228
229
229
229
230
234
228
226
221
212
212
197
196
187
185
186
187
182
185
190
190
188
190
189
179
180
178
176
177
179
174
178
175
175
179
174
176
181
189
193
212
210
222
222
226
224
231
232
229
228
226
224
223
226
226
224
236
236
237
236
236
234
223
223
223
223
218
218
212
213
215
220
219
216
217
220
216
217
215
218
218
219
226
226
226
228
231
225
221
222
227
229
230
229
229
229
229
231
223
224
215
211
209
197
193
184
185
184
185
184
189
189
190
191
191
189
180
179
179
176
176
180
171
171
177
176
179
173
176
178
188
194
206
210
220
224
227
228
234
236
232
233
232
234
232
231
231
227
236
243
245
244
244
239
230
227
226
222
218
220
217
210
208
210
209
210
211
208
210
213
216
219
216
221
226
226
228
228
232
225
225
225
229
227
231
229
229
229
229
228
220
222
212
213
202
193
190
184
185
187
185
186
189
190
188
191
189
191
181
181
179
178
179
178
165
166
180
180
178
175
179
179
184
192
202
209
207
222
225
231
235
235
233
235
237
236
232
226
230
225
227
236
237
235
240
235
227
225
226
222
217
216
210
208
205
206
206
207
210
205
208
210
213
217
217
216
218
220
223
228
229
229
228
231
229
227
232
229
227
229
229
227
218
221
211
212
197
191
187
184
185
186
186
190
188
189
188
189
191
189
180
176
175
174
176
166
162
167
176
183
177
179
176
181
180
189
200
206
202
215
220
223
231
230
228
230
231
232
227
222
222
222
222
224
226
228
229
228
227
223
220
218
218
216
205
205
201
203
201
201
199
196
197
197
199
203
209
208
211
218
219
223
228
229
228
229
229
227
229
228
226
228
226
222
218
216
211
205
192
189
181
180
181
181
185
187
183
186
185
187
189
189
174
172
169
173
167
158
161
168
174
180
176
179
175
177
182
185
197
200
199
209
217
217
221
222
221
222
224
226
224
223
224
228
228
227
228
226
220
219
217
220
218
215
212
209
208
205
201
202
196
194
191
195
193
197
200
206
211
212
217
221
223
226
228
230
228
229
228
228
229
227
227
228
229
221
219
213
212
197
190
188
179
179
179
180
184
183
181
181
180
183
185
184
174
172
175
172
160
160
162
169
173
179
177
174
172
175
180
178
193
198
198
201
213
216
217
219
216
216
218
217
220
222
223
229
231
229
228
225
222
219
216
218
215
210
211
208
207
203
202
202
198
199
199
201
202
204
205
210
212
217
221
225
226
229
231
231
230
228
229
228
227
226
226
226
229
220
220
209
207
193
189
186
179
179
179
181
183
182
182
180
180
181
187
186
175
173
179
163
160
160
166
167
172
176
182
175
172
173
178
173
186
194
198
197
213
217
216
218
215
215
214
217
216
218
219
225
229
229
228
224
224
222
219
220
217
215
213
211
207
204
204
202
202
202
203
205
205
208
210
214
219
223
225
229
230
233
235
232
232
232
227
229
226
224
225
225
226
216
222
208
200
191
189
182
179
178
180
184
181
181
181
182
180
180
186
187
175
177
168
159
162
163
166
167
172
173
181
178
174
174
169
171
180
192
198
198
208
217
217
219
214
215
214
215
217
217
218
223
228
230
231
230
230
227
229
227
224
221
219
217
215
209
207
204
209
208
208
210
209
216
216
220
226
226
229
231
232
233
235
234
234
230
225
227
223
222
224
224
222
219
218
211
197
188
187
179
179
179
176
182
182
180
180
182
179
179
183
187
178
171
163
158
163
167
166
167
172
170
179
182
177
166
162
172
178
190
198
201
203
213
218
218
215
218
218
218
217
219
219
220
224
229
232
232
231
229
230
230
230
227
222
221
220
213
210
208
211
210
209
211
213
217
222
224
228
227
229
233
232
232
234
233
233
230
225
222
221
222
222
221
220
218
218
210
194
187
182
179
179
182
177
175
182
181
179
181
179
178
181
185
175
165
160
158
162
171
167
166
173
169
178
185
174
160
163
176
179
191
195
201
204
210
214
217
219
217
222
221
220
222
221
219
220
225
230
230
228
225
228
227
229
225
222
220
217
213
211
209
208
209
205
212
214
216
225
226
229
229
231
233
233
231
233
234
231
230
223
222
220
220
220
218
220
215
223
208
192
186
181
178
182
181
176
173
176
182
180
180
179
178
180
182
168
164
160
159
163
173
170
165
173
170
173
179
168
160
170
180
179
191
193
200
204
206
209
214
220
219
217
218
217
220
223
218
220
224
226
226
226
225
223
222
225
221
221
217
214
212
213
207
208
207
206
212
214
217
225
229
230
231
235
234
235
232
234
234
230
228
217
220
218
218
218
217
220
215
220
212
192
180
181
180
187
179
173
172
171
178
181
182
178
178
179
180
169
164
159
158
164
172
172
164
168
165
167
166
166
167
177
183
175
188
192
198
205
211
208
212
217
216
216
213
213
213
217
218
222
220
224
226
225
224
220
218
221
218
216
212
210
211
209
206
209
211
212
218
218
221
228
229
229
232
236
236
232
234
235
233
229
221
216
213
216
216
215
215
222
217
216
211
199
175
180
185
185
179
172
171
170
171
179
182
177
177
179
179
166
162
160
157
165
172
171
158
153
163
164
164
167
176
176
184
174
185
191
197
210
215
208
209
210
212
213
210
209
213
213
214
216
219
220
222
222
222
221
217
219
217
214
213
211
212
210
207
213
212
217
218
221
224
227
228
230
234
237
235
237
238
235
229
226
216
213
212
214
214
209
216
220
220
216
212
194
185
177
187
180
178
171
173
170
169
172
180
176
175
178
178
164
162
159
157
164
167
163
151
150
157
164
165
170
177
173
182
172
182
191
200
212
215
206
206
203
208
211
208
208
208
211
207
210
216
218
217
220
220
220
217
218
215
213
213
213
212
210
212
213
214
217
216
222
224
225
227
229
234
234
236
240
236
236
229
221
212
212
213
211
214
206
215
221
222
217
212
192
187
183
184
179
177
169
172
169
168
168
173
174
173
177
177
160
158
156
155
161
161
157
146
149
152
159
166
176
174
176
181
170
185
196
200
209
212
208
208
205
204
206
206
207
205
209
206
207
212
212
215
219
219
214
213
214
212
211
210
212
207
210
211
214
214
215
217
220
223
225
225
228
233
233
237
236
236
230
227
216
211
211
208
208
208
208
215
222
222
220
207
196
189
187
185
181
174
170
171
169
162
166
163
164
170
175
172
160
159
154
156
160
149
150
136
144
150
155
158
179
173
178
181
168
189
201
203
206
212
212
212
210
204
204
205
205
205
205
204
204
203
208
209
215
217
211
211
210
211
208
209
210
211
210
210
212
215
214
218
218
221
224
224
228
231
233
231
234
231
226
218
213
208
206
208
203
203
211
212
219
223
223
209
193
189
191
187
181
175
168
170
167
161
165
165
159
166
172
171
160
158
155
157
150
135
141
137
145
153
153
161
167
174
180
180
172
191
207
204
204
215
215
216
211
207
203
204
204
203
203
204
201
203
206
208
208
213
209
208
208
209
206
208
209
213
211
210
212
215
213
216
217
222
223
225
229
229
232
229
231
227
217
213
210
206
204
205
203
204
205
215
221
218
219
215
195
187
198
193
181
178
166
167
168
163
164
163
162
160
167
169
159
157
149
149
137
130
140
138
147
151
155
161
160
172
182
182
176
198
213
199
203
217
217
218
216
212
208
205
203
204
202
202
201
202
204
205
208
207
207
207
206
209
208
207
208
211
212
209
211
211
214
216
221
221
225
225
232
227
228
227
225
218
210
208
208
205
200
198
204
203
203
217
219
217
209
208
203
190
198
195
183
177
169
164
169
168
162
162
162
159
162
163
156
148
143
145
134
131
141
139
149
153
156
158
158
172
180
187
187
205
211
198
205
216
215
217
224
219
215
211
206
202
204
205
204
203
205
206
207
206
208
206
211
208
212
210
209
208
209
210
210
212
215
217
221
222
226
224
230
226
223
222
222
210
208
210
204
201
195
199
203
200
207
217
220
214
207
203
206
198
196
197
183
175
169
163
166
168
165
161
159
162
161
161
148
145
146
144
132
134
136
142
148
156
155
156
162
174
175
190
195
207
209
201
206
215
215
215
225
224
222
217
213
208
205
207
206
206
208
208
210
207
211
208
210
210
214
213
213
211
210
211
212
217
217
220
222
223
224
223
225
223
218
216
213
208
207
207
200
197
196
199
201
204
207
213
221
212
206
202
204
207
197
196
184
176
169
162
163
169
166
160
157
160
161
159
147
147
144
142
133
132
135
143
148
157
156
158
167
168
182
184
195
210
210
203
207
211
215
217
222
226
229
225
221
216
213
209
209
205
210
211
211
209
211
211
213
214
218
216
216
217
214
215
216
221
219
222
221
223
221
220
222
220
215
212
208
206
206
203
195
197
198
200
199
210
212
213
218
208
202
198
206
204
206
194
185
180
171
162
163
171
167
160
160
158
160
156
141
140
140
139
135
130
135
144
146
157
159
162
163
168
189
178
192
208
208
207
208
212
215
218
222
227
229
231
227
223
220
217
214
209
211
210
212
212
213
213
216
216
218
217
218
218
219
218
220
222
221
221
220
220
219
219
218
215
210
210
208
206
202
201
195
198
202
199
204
214
207
213
211
208
201
195
201
203
203
200
185
180
170
161
167
171
164
160
158
158
159
158
140
139
143
139
135
133
134
143
149
152
160
162
165
176
190
180
192
206
205
206
208
207
218
217
221
227
228
232
234
231
226
223
221
217
216
214
214
214
217
216
217
217
218
216
221
218
222
221
222
218
220
219
218
215
216
215
214
211
207
208
205
203
199
200
197
199
202
204
210
213
204
214
206
206
203
196
193
199
188
201
188
181
169
165
168
168
167
167
163
162
159
162
137
137
140
130
132
128
130
144
149
145
162
159
174
179
187
183
192
202
210
200
203
205
216
219
219
225
228
232
236
237
233
230
226
224
223
222
219
218
218
219
219
219
218
220
223
218
221
221
221
217
218
214
215
213
212
209
207
209
207
207
202
201
203
203
200
200
207
209
209
209
206
214
207
204
203
196
192
197
180
188
189
185
171
170
169
166
167
168
166
163
161
162
133
136
138
128
131
127
131
144
147
146
164
161
180
180
189
188
193
198
210
198
196
199
215
216
219
221
223
227
231
237
237
234
232
228
229
227
225
224
221
221
221
221
221
222
221
219
219
218
219
215
214
211
211
210
206
207
205
205
204
203
205
203
204
203
202
206
210
212
209
202
206
215
209
204
200
198
192
191
181
179
182
186
175
173
168
166
168
166
169
164
163
163
136
137
135
131
130
128
134
148
151
153
168
165
182
184
190
189
192
195
203
193
197
195
210
213
218
219
221
221
223
231
233
234
235
231
231
231
228
227
226
225
225
224
222
220
221
219
216
215
213
211
209
207
205
205
205
204
204
202
203
205
206
206
207
203
206
210
211
210
204
202
208
215
211
205
200
199
191
188
180
175
179
180
175
175
166
166
168
165
166
165
164
162
141
136
133
127
130
136
144
154
164
165
167
176
187
185
187
186
191
190
199
188
195
196
207
209
214
217
222
222
223
225
228
231
233
234
234
232
229
230
230
228
226
227
224
218
219
216
212
212
208
207
207
203
205
205
204
202
203
202
206
206
206
210
209
207
208
210
209
207
204
203
213
210
212
206
198
199
190
183
181
175
171
181
173
173
162
167
169
168
164
168
164
162
