P2
# Face with average contibution
92 112
255
202
211
213
203
198
212
202
201
202
194
191
187
186
188
190
189
183
190
194
184
191
192
191
187
196
195
195
193
195
201
192
193
202
206
197
202
197
200
198
197
190
186
192
195
194
188
184
183
174
189
184
187
195
202
211
210
212
216
208
201
213
206
205
199
205
206
198
193
192
197
194
202
205
203
191
194
206
205
207
191
199
212
210
210
193
197
199
203
214
213
206
210
201
198
204
202
212
205
213
205
198
202
199
184
179
180
181
178
187
189
193
192
192
187
183
190
204
205
202
208
202
208
207
204
202
212
204
192
193
197
193
196
194
191
202
199
189
182
180
178
185
195
192
189
189
195
198
202
214
216
212
216
202
207
206
197
196
196
206
201
204
200
201
200
202
200
180
185
197
207
207
193
202
203
216
203
190
199
203
200
213
211
208
203
201
208
201
210
220
204
201
197
193
189
195
184
176
175
184
178
187
185
182
181
189
189
185
195
195
198
200
209
217
217
216
215
207
201
194
192
194
202
195
205
203
200
207
194
198
195
195
186
192
193
203
201
199
196
190
184
193
212
208
222
204
197
203
206
200
189
195
203
197
199
203
212
206
204
189
183
188
197
209
196
198
207
216
205
194
193
206
205
204
211
206
207
196
205
209
200
200
198
197
195
191
193
190
183
180
182
186
182
182
186
185
179
192
194
195
201
201
196
201
203
211
219
208
215
208
206
199
197
205
211
204
199
209
204
199
204
213
218
205
196
188
198
198
207
205
202
199
202
195
200
189
202
210
201
203
205
204
200
192
193
200
198
200
212
211
211
198
190
193
189
205
197
190
204
210
202
185
196
209
203
192
208
209
208
208
195
196
192
187
194
194
196
195
196
182
179
187
188
185
176
184
179
179
181
189
193
198
208
203
204
205
204
200
204
214
216
213
215
207
203
206
206
204
199
197
205
203
211
213
210
209
201
192
198
195
206
210
210
199
203
196
201
199
194
194
204
205
204
203
198
201
192
198
198
197
200
200
207
207
196
195
199
205
198
204
210
212
203
189
196
211
205
188
205
209
206
201
188
181
187
193
190
191
193
191
197
188
182
178
177
187
181
180
175
181
189
192
184
183
185
187
202
206
210
202
208
211
214
213
217
213
201
188
200
198
201
201
197
203
204
203
202
203
213
203
200
199
201
195
212
203
191
188
186
195
197
192
194
200
200
207
204
209
204
196
207
197
199
194
190
201
193
190
200
205
196
207
207
206
207
195
197
206
207
188
204
210
208
192
192
190
191
187
186
187
185
182
177
177
173
178
169
168
171
179
175
186
190
192
187
191
183
182
187
204
195
202
205
198
196
196
194
206
195
195
196
195
200
209
206
203
206
211
206
199
208
210
200
199
194
200
196
202
195
196
188
193
201
196
194
194
197
200
199
216
210
198
205
201
197
197
193
187
196
195
193
194
194
211
214
206
203
201
200
202
201
198
205
210
209
192
197
189
191
186
190
185
181
178
170
173
178
168
156
161
184
183
181
178
177
185
196
194
178
183
184
198
193
199
192
189
183
181
179
192
190
189
196
195
205
213
214
212
219
219
215
206
210
210
204
204
201
200
186
192
179
181
186
191
195
199
198
193
192
189
184
192
211
200
204
203
202
191
203
198
193
200
191
195
191
207
220
205
206
215
198
207
207
203
207
208
209
196
196
196
204
199
201
191
194
188
178
181
174
161
154
178
194
186
177
178
186
185
195
197
189
187
191
201
197
192
187
181
184
182
178
188
189
184
193
185
204
204
209
211
210
212
219
210
206
202
202
210
211
203
197
191
189
185
180
185
191
196
195
201
190
193
182
185
183
184
205
201
205
196
202
206
202
202
191
190
189
208
211
202
209
212
205
212
215
195
208
208
212
200
202
209
206
213
204
201
199
188
190
191
178
174
175
193
189
181
181
187
187
187
192
194
180
187
188
193
193
188
181
189
182
176
181
187
190
193
191
182
190
199
201
212
218
208
212
209
218
211
202
206
200
197
195
185
192
183
179
175
192
193
202
200
198
202
197
185
190
184
183
187
192
200
206
203
213
205
195
185
177
200
199
198
205
207
201
205
220
197
201
206
210
202
209
207
212
210
203
194
191
186
191
179
186
190
198
198
197
189
193
190
194
189
191
194
182
185
190
188
189
180
186
181
172
178
180
186
186
189
197
193
188
193
195
201
211
216
207
201
212
211
207
194
191
186
185
182
183
187
187
175
179
200
202
190
193
204
205
197
201
200
196
180
177
189
209
214
215
214
200
202
189
179
200
197
202
205
192
206
217
205
197
209
206
199
206
206
207
194
197
186
192
183
197
198
207
206
197
193
194
184
189
179
182
183
182
191
189
187
187
187
179
181
182
178
175
168
178
178
187
180
194
201
195
196
204
199
198
204
205
196
200
191
196
197
189
188
196
185
186
188
187
186
185
187
200
197
196
197
198
212
204
206
204
199
184
175
197
205
213
208
211
207
200
187
193
197
203
215
202
208
219
211
204
207
208
205
209
206
198
187
189
199
195
188
206
219
216
211
197
184
182
176
177
179
187
183
194
200
194
204
194
195
187
181
181
175
179
174
176
174
183
175
180
201
194
197
204
204
204
208
205
197
206
189
183
194
200
182
189
190
188
186
192
196
193
195
198
198
198
202
194
206
213
209
207
207
198
187
186
198
208
194
198
201
199
185
181
191
195
205
212
199
212
212
207
208
210
202
208
207
197
190
196
204
200
206
204
214
205
211
197
191
188
178
181
184
186
186
206
216
211
214
200
196
189
186
179
175
173
173
176
178
180
184
185
198
193
198
199
207
204
207
210
211
214
208
200
194
204
197
187
193
198
198
203
200
197
203
203
201
207
205
208
208
208
202
204
200
205
197
199
195
202
211
189
194
205
200
173
175
185
194
200
193
202
199
212
209
205
201
203
207
199
193
197
202
206
203
209
202
204
205
200
204
198
195
179
182
187
198
218
230
223
208
203
195
191
186
178
180
181
180
176
179
183
185
189
198
198
195
203
209
210
210
204
213
218
220
216
196
203
202
193
195
206
212
206
202
205
211
214
214
216
219
212
219
209
205
194
197
204
204
203
205
214
204
209
197
206
207
189
175
179
198
195
192
191
195
210
211
203
195
199
193
192
193
203
207
203
208
209
202
208
200
197
195
195
189
185
191
191
208
224
234
226
203
196
194
183
175
180
179
185
185
176
183
183
195
185
193
199
202
204
209
219
222
219
214
212
223
225
212
209
215
210
204
197
211
210
204
200
200
214
216
211
216
212
208
209
213
205
193
201
205
203
203
209
208
207
203
202
205
195
173
166
189
196
190
183
200
203
203
197
199
201
198
195
201
217
218
207
207
205
207
202
191
189
185
178
183
190
202
198
215
217
219
217
201
193
191
186
182
180
182
182
184
174
181
186
191
192
187
194
207
207
206
209
213
215
222
217
217
230
228
216
220
217
212
203
199
201
195
199
187
199
202
210
201
205
209
209
213
207
202
200
198
201
205
202
202
209
193
198
206
206
174
165
177
187
186
180
186
196
193
202
198
199
191
199
207
225
215
207
210
214
208
205
187
179
176
186
194
201
205
204
208
208
208
207
203
197
190
184
188
183
172
176
175
176
182
181
187
191
185
195
209
215
216
213
208
205
220
225
212
222
226
228
215
215
217
213
204
204
201
191
194
193
189
192
201
199
197
206
203
208
200
195
196
198
200
198
197
203
198
192
196
200
191
167
171
176
191
187
172
195
195
203
196
196
192
209
220
219
222
214
220
220
201
199
187
178
188
192
206
211
200
208
211
211
207
207
202
202
198
191
189
187
173
177
182
180
178
169
171
179
175
185
196
204
202
206
208
202
205
213
209
203
210
213
219
209
210
225
211
206
203
201
199
197
195
188
191
198
190
196
200
202
198
195
197
198
200
203
196
197
200
201
198
195
193
181
173
169
177
191
178
185
193
206
186
190
192
214
214
212
228
221
227
215
185
191
191
189
191
197
212
211
197
206
211
217
211
209
204
198
201
205
193
190
185
182
176
186
187
172
163
173
178
182
186
198
204
197
202
205
204
194
203
190
202
207
208
215
208
214
211
204
205
200
201
206
205
207
190
191
187
177
189
203
198
193
202
201
193
201
202
194
202
195
194
194
192
189
178
169
178
181
186
176
182
197
194
185
191
218
211
216
222
220
215
209
194
195
202
195
193
207
214
206
198
210
218
222
218
211
201
201
202
200
200
195
193
187
187
192
185
175
173
179
170
170
173
180
187
185
190
193
201
195
192
186
190
201
200
205
209
207
206
209
214
212
211
208
209
214
209
207
197
184
180
193
196
189
195
194
197
201
193
199
195
206
194
201
196
189
188
179
175
189
180
191
182
186
188
186
198
213
201
216
220
213
221
213
188
191
200
196
199
204
201
201
205
214
217
218
214
205
200
206
202
196
193
187
189
193
195
197
183
178
180
177
173
168
174
175
177
182
181
178
184
195
192
188
187
189
195
195
205
206
203
205
209
205
207
205
210
205
209
210
205
192
193
192
192
194
192
191
196
196
194
194
200
200
208
194
191
198
188
191
188
175
188
194
188
182
196
188
191
192
200
212
214
217
216
196
180
190
197
195
197
190
191
204
206
210
215
210
213
203
205
208
207
199
198
194
190
192
192
193
187
184
186
182
178
179
178
176
180
180
182
187
184
183
197
192
192
183
184
187
194
200
200
204
201
202
202
199
205
214
211
209
204
205
196
196
188
202
189
189
194
197
192
195
202
199
206
197
196
196
193
191
197
171
185
198
190
187
186
184
182
187
207
217
217
213
207
194
185
201
206
204
193
191
195
209
211
209
214
209
210
209
206
209
205
204
202
199
202
195
190
188
189
193
196
188
181
185
183
176
182
179
178
186
185
182
187
193
181
175
177
181
184
199
199
200
198
201
198
190
195
206
213
206
205
202
201
197
188
198
191
186
190
187
187
191
201
217
200
202
203
200
190
184
203
181
178
202
194
191
189
174
186
197
217
215
210
211
219
202
209
218
204
205
191
189
202
211
210
205
210
216
212
210
204
201
199
201
202
200
200
200
198
195
197
194
197
200
189
184
189
186
184
181
182
185
182
178
174
184
193
175
172
178
182
181
189
184
186
199
198
189
183
189
199
192
203
208
198
194
187
192
190
186
183
183
189
186
193
211
207
201
204
200
202
178
189
183
175
190
206
188
187
181
189
204
224
212
207
221
217
199
210
219
208
195
193
200
210
215
207
208
210
213
205
206
200
190
195
197
198
202
199
202
201
202
203
195
193
204
202
190
191
189
191
182
182
184
179
179
174
172
183
184
173
174
185
182
173
181
182
185
188
186
179
178
184
182
187
197
202
201
192
185
183
187
184
199
195
197
192
198
210
199
210
209
220
200
186
189
166
187
206
187
188
186
184
210
221
219
199
214
207
206
214
215
199
189
203
203
213
219
210
209
207
204
201
202
195
189
192
197
197
198
205
206
202
202
208
203
199
203
205
204
189
193
187
189
185
185
183
179
179
175
176
178
176
174
181
185
175
175
177
184
180
179
185
185
186
189
192
189
196
194
192
191
187
187
192
200
207
199
199
196
203
208
202
214
226
201
180
183
171
180
202
190
181
178
190
213
225
209
208
218
204
205
210
193
196
203
204
216
225
219
217
200
203
202
198
195
194
188
193
198
198
197
198
202
198
201
198
201
204
205
200
202
198
193
189
190
189
185
182
181
181
179
175
179
175
172
180
175
175
174
172
175
179
182
180
184
185
190
193
185
185
188
189
188
193
193
195
200
209
204
195
201
204
204
211
215
216
201
184
184
173
188
198
197
180
173
198
213
215
214
210
216
199
195
195
184
202
207
207
217
227
221
215
204
204
197
199
194
197
198
201
198
201
201
199
202
201
199
201
197
201
199
205
204
205
196
196
191
191
194
184
186
187
182
169
180
177
179
182
179
175
177
173
174
176
177
175
177
181
179
187
181
177
179
182
188
190
186
197
199
205
206
194
195
210
210
218
215
207
194
195
189
175
184
207
204
171
170
198
212
212
207
209
204
194
193
188
192
197
203
215
223
225
215
211
207
204
197
197
193
201
201
197
200
201
201
200
206
202
207
204
200
203
201
199
205
208
202
205
195
194
196
193
194
196
185
178
176
181
182
184
186
181
172
184
176
177
171
175
173
175
172
173
176
179
186
188
184
185
183
191
205
197
195
190
194
202
212
220
213
205
183
176
196
178
191
201
212
163
175
198
210
221
205
204
193
183
180
189
196
200
204
211
225
223
216
215
212
206
205
202
199
200
196
196
197
196
199
198
204
205
211
203
199
207
204
201
201
204
206
208
203
200
200
203
201
203
198
186
182
177
182
184
192
186
175
187
187
180
176
172
172
177
178
178
178
184
191
192
187
181
181
180
197
202
182
181
199
202
209
218
216
211
191
169
187
179
194
200
208
170
178
188
206
217
209
191
187
178
180
202
199
201
209
210
225
226
220
213
206
198
206
202
199
193
191
195
193
199
196
199
199
206
208
204
202
205
206
204
206
206
208
209
206
202
202
204
201
200
207
194
186
185
181
189
198
200
184
188
198
190
180
184
176
186
189
183
183
184
184
191
189
176
180
188
185
191
181
169
193
204
202
213
220
211
210
171
171
186
192
194
200
173
177
188
205
216
203
194
178
179
184
200
202
200
211
217
220
222
218
211
200
197
201
202
197
192
195
198
200
195
193
191
199
204
206
200
204
206
208
204
207
205
207
212
209
200
210
200
201
205
207
208
201
197
183
192
198
205
198
184
196
200
192
183
190
185
191
192
183
187
186
188
181
179
178
180
185
179
172
163
192
209
205
214
225
210
213
183
166
189
194
193
201
186
180
192
208
203
203
183
173
176
188
196
204
203
213
215
214
215
206
203
202
197
197
196
193
194
197
204
202
196
191
197
200
199
205
204
206
205
209
206
204
198
207
211
209
207
207
203
202
206
211
213
215
207
194
193
201
209
210
201
190
201
204
190
187
196
192
196
192
192
190
193
182
171
162
170
178
178
170
162
178
205
218
225
232
222
207
193
170
186
199
200
201
193
183
193
201
197
185
173
167
186
201
199
211
205
214
222
218
215
204
206
204
205
196
197
195
199
204
207
204
192
182
190
194
197
199
203
200
198
202
199
196
199
204
203
206
202
201
199
201
206
208
211
213
208
206
198
206
213
219
220
212
197
203
208
198
197
195
203
204
197
192
189
183
172
166
166
171
184
176
165
163
188
207
225
230
227
204
205
184
187
200
204
199
194
184
189
191
193
172
166
184
203
201
202
211
209
215
219
218
216
205
208
207
206
205
206
207
208
201
202
208
192
184
188
196
193
194
207
206
200
201
203
198
206
205
214
209
209
200
202
204
206
210
211
210
208
212
208
213
217
216
227
226
219
197
201
205
207
206
206
207
202
204
198
188
188
186
177
177
185
183
179
172
180
194
218
233
223
205
193
200
196
191
205
193
195
185
191
190
187
170
174
202
207
198
206
211
209
217
223
218
214
201
203
202
208
204
201
195
190
196
197
195
184
188
189
192
189
195
201
203
196
192
194
190
195
191
198
194
201
201
197
203
202
202
202
204
211
213
212
211
220
216
221
222
223
209
202
197
200
203
204
207
195
197
193
186
187
190
187
188
191
199
195
197
193
198
213
228
223
205
194
206
196
197
192
186
192
187
193
194
196
165
189
212
209
201
205
208
215
222
220
211
212
203
207
207
208
201
195
191
198
197
196
190
184
193
189
196
189
193
205
207
210
209
212
207
205
201
195
197
198
198
197
199
196
195
194
201
201
201
204
214
212
216
218
213
215
220
209
205
197
198
194
199
189
193
194
190
194
196
204
200
201
208
206
197
206
199
221
237
228
215
192
206
207
198
189
185
187
186
183
205
190
177
199
209
213
196
201
217
211
220
213
210
209
207
200
205
201
194
199
195
195
197
197
198
189
190
198
194
203
206
205
203
202
208
219
215
219
218
212
201
204
201
200
199
199
197
196
193
196
193
201
208
212
214
218
213
208
212
206
203
202
195
193
196
198
200
209
204
199
199
188
190
188
196
201
199
202
192
201
222
222
216
204
204
197
198
187
187
189
183
186
204
197
198
202
211
204
200
203
206
198
219
203
206
206
197
195
201
197
198
190
196
195
197
202
198
194
186
185
190
196
204
210
209
205
213
216
218
213
213
212
206
202
204
204
202
201
201
196
198
201
199
200
211
212
217
220
220
215
208
196
187
190
185
188
195
204
201
201
196
183
190
179
178
179
183
192
198
199
190
196
218
211
213
204
193
206
191
194
196
190
191
176
207
194
207
202
213
194
201
194
195
199
215
201
203
199
190
189
187
185
189
191
191
190
191
189
191
194
189
184
196
197
202
209
214
215
215
217
213
210
201
207
206
203
209
205
198
199
193
191
191
198
197
207
214
210
218
222
216
223
210
197
193
196
187
181
185
196
193
186
189
174
178
174
172
180
171
183
181
179
185
190
207
214
212
208
198
196
194
188
202
200
190
176
207
203
205
207
206
205
203
189
196
204
211
202
201
193
195
184
181
178
187
195
178
181
182
185
185
190
197
190
199
203
210
217
219
214
208
210
204
201
196
195
198
202
211
201
192
184
182
179
181
185
189
203
210
202
206
212
210
224
217
211
210
210
193
190
188
192
195
211
200
181
197
184
179
208
200
201
223
203
192
179
196
211
209
212
194
201
193
188
198
202
175
176
194
212
205
201
218
208
213
195
200
209
219
207
207
199
191
188
183
169
184
186
175
178
181
185
191
189
200
204
201
194
202
211
205
186
185
216
226
204
202
214
217
207
209
210
203
186
177
166
163
170
177
197
201
202
204
211
209
219
212
212
221
225
209
202
210
207
202
224
203
176
178
222
172
193
208
182
212
212
214
209
193
208
198
209
190
208
192
178
192
204
179
181
182
210
200
198
206
209
215
205
210
209
213
207
203
199
193
201
194
188
197
193
201
200
216
219
221
215
197
185
161
173
230
224
203
188
177
220
241
241
223
214
215
219
212
207
212
208
189
175
156
159
166
179
186
184
187
198
189
193
202
210
218
224
231
200
194
216
203
240
211
194
180
202
180
212
205
184
198
197
209
211
204
218
198
204
181
204
194
180
187
207
187
183
190
207
212
200
211
213
212
201
197
204
211
204
193
195
194
192
203
191
205
220
232
232
234
212
219
213
197
197
188
190
172
219
183
187
172
225
231
234
225
233
209
215
209
206
209
212
211
176
159
157
160
159
161
173
182
178
182
184
198
209
212
228
237
231
163
185
196
219
235
194
190
206
177
212
225
191
189
194
203
206
210
219
203
206
173
195
188
188
186
201
184
180
197
208
220
211
223
219
206
186
193
206
208
200
205
194
199
194
212
216
219
232
242
227
221
191
189
215
224
202
195
196
189
199
180
177
184
225
227
221
204
217
216
203
201
186
195
208
213
176
171
172
172
168
165
174
175
165
168
176
179
189
186
217
246
227
216
167
164
171
210
216
191
186
195
175
210
192
166
184
206
207
205
208
217
204
174
184
192
189
187
192
183
171
190
205
216
219
213
221
198
193
199
207
212
193
205
202
199
211
218
219
218
218
223
222
216
200
161
195
228
221
198
193
199
183
163
162
198
215
229
217
208
215
223
210
198
189
195
222
216
194
187
194
198
189
192
196
192
189
192
183
175
176
188
198
234
213
215
187
177
171
190
203
206
201
195
188
193
178
169
171
204
209
209
206
209
216
165
169
190
193
194
183
189
170
184
196
216
214
217
221
198
199
204
211
212
206
198
202
202
217
216
217
205
200
206
202
205
202
194
187
195
204
214
197
193
179
177
179
204
198
204
207
205
212
222
215
206
202
207
228
219
208
208
209
213
209
208
219
214
214
206
204
201
198
203
200
217
233
210
196
174
179
194
196
200
201
191
199
203
210
184
180
213
212
214
211
207
213
189
163
183
187
196
176
195
180
189
205
227
213
230
218
200
206
209
208
207
212
216
207
219
217
213
215
196
183
179
177
180
186
201
182
201
204
201
204
206
189
178
172
197
187
195
199
203
206
210
215
203
214
207
219
219
219
214
213
216
214
210
222
220
223
216
218
218
216
209
204
206
225
213
220
180
185
195
192
205
201
194
203
215
227
198
182
199
214
211
203
209
215
192
177
187
181
199
186
195
206
192
223
227
216
222
213
197
204
212
207
210
210
216
206
224
219
210
191
167
171
170
172
160
203
205
169
222
219
212
208
217
204
177
181
181
198
199
197
207
213
207
201
198
206
197
209
209
219
215
201
195
202
193
196
202
206
214
211
209
206
205
206
196
204
213
207
191
177
187
182
182
188
175
174
194
214
201
179
192
205
197
197
203
214
183
183
190
185
203
194
182
219
200
214
221
223
210
205
189
198
204
200
208
203
212
215
228
206
189
166
166
182
169
172
178
186
190
180
215
216
209
198
212
206
185
185
181
198
199
199
208
209
198
191
186
199
198
214
226
220
208
192
182
204
174
182
196
181
182
190
187
202
203
212
199
200
210
192
190
172
177
182
175
178
166
165
181
192
204
183
190
207
196
192
192
190
191
170
201
182
203
200
180
205
196
202
223
213
198
193
193
193
198
201
197
195
213
219
221
190
176
170
188
208
206
190
195
200
196
189
197
202
193
192
196
207
199
181
182
192
195
200
204
202
193
186
191
203
212
227
238
227
196
190
203
210
182
173
194
181
169
178
179
176
191
202
200
200
206
192
185
173
180
183
186
188
178
177
186
188
205
183
189
207
202
205
200
193
205
175
201
198
192
211
206
205
207
204
231
211
191
188
192
193
205
205
202
202
221
218
220
202
190
191
195
207
221
212
197
212
217
208
198
192
191
193
202
218
206
197
198
196
198
205
201
200
199
192
197
219
223
237
235
206
220
204
207
205
183
172
168
177
175
190
189
161
164
185
182
192
187
200
192
179
179
189
190
200
185
187
192
196
205
193
186
212
224
232
224
197
210
180
195
215
193
210
207
198
201
208
225
219
201
189
189
197
209
213
205
205
215
224
225
219
198
187
197
219
220
250
249
226
225
208
207
207
205
203
196
212
200
201
193
187
196
208
200
210
208
204
208
217
217
228
227
212
218
217
203
209
202
199
192
196
196
213
201
174
168
174
181
185
188
195
198
191
191
193
198
192
185
191
191
193
210
209
195
220
250
242
226
208
199
182
201
211
209
200
194
191
188
205
205
222
208
193
186
198
206
218
204
205
220
230
231
214
204
188
193
201
219
232
241
228
212
189
187
199
202
191
185
185
201
194
188
174
194
206
207
214
208
199
207
215
206
207
200
210
211
209
206
191
200
209
204
185
194
219
207
185
173
172
190
185
186
192
197
191
196
191
199
189
176
185
182
203
204
210
208
231
246
239
212
202
206
192
191
199
207
203
206
200
181
185
202
216
220
188
196
202
210
223
204
208
216
227
226
213
205
199
193
199
209
207
209
205
203
191
189
198
181
183
170
169
176
178
163
168
181
203
198
199
189
192
203
201
208
201
190
187
204
191
188
177
192
202
207
219
216
210
201
186
176
177
182
186
181
181
192
191
193
197
193
187
180
176
180
197
193
209
214
234
221
228
200
195
223
208
209
190
208
205
230
208
187
174
202
212
196
179
189
207
207
208
201
200
208
212
214
211
202
207
198
204
211
201
206
203
200
200
193
184
178
170
159
167
173
170
163
159
171
189
191
187
182
184
193
195
205
199
196
191
199
189
181
167
181
204
203
211
212
198
186
185
178
197
199
189
201
190
187
186
196
200
201
192
177
190
193
197
188
209
213
222
215
221
198
203
221
214
209
196
209
192
220
231
210
183
186
195
183
170
184
206
201
198
200
198
204
208
211
207
202
195
195
202
216
213
220
212
218
217
195
186
188
171
165
172
164
169
170
155
175
193
189
179
184
189
188
193
198
203
196
183
186
183
185
188
180
193
194
198
204
191
186
177
186
200
210
205
211
215
201
196
196
209
211
205
193
194
202
206
198
209
226
208
210
208
201
202
212
219
208
200
210
182
216
225
220
206
187
190
186
188
198
202
197
201
203
199
209
210
209
210
211
208
206
210
221
227
225
221
221
214
202
195
192
178
180
176
184
192
180
172
183
197
190
194
195
194
192
200
196
197
194
191
190
190
180
190
182
192
201
199
200
199
205
201
209
212
213
218
209
212
210
203
203
210
211
204
195
192
210
223
204
211
226
204
189
185
186
199
210
213
207
208
214
178
211
209
207
212
199
199
193
194
203
208
208
202
208
200
208
217
220
212
208
202
203
209
219
225
213
211
209
206
201
192
183
181
184
187
199
192
189
181
185
194
183
199
212
197
187
196
199
196
193
198
198
195
191
195
196
194
199
203
207
210
214
218
210
218
216
214
204
209
215
213
213
206
212
205
189
191
207
215
208
212
207
202
202
182
183
199
207
224
200
212
213
181
198
201
197
189
209
212
202
186
198
211
213
200
204
205
212
212
218
208
198
192
192
200
210
211
201
194
199
206
189
187
183
185
198
194
209
199
190
191
200
199
191
200
211
205
196
190
197
199
193
203
198
200
205
210
206
203
204
209
218
222
224
216
211
214
218
219
212
212
219
214
210
206
200
204
193
184
214
215
210
217
198
194
208
202
203
194
203
230
208
213
215
172
203
191
189
180
199
213
205
188
189
207
210
199
204
213
222
218
222
213
195
190
191
200
208
206
203
188
196
204
200
190
191
192
196
203
205
203
197
196
208
202
193
203
215
205
200
198
198
205
199
196
203
206
214
216
201
198
208
212
213
212
214
209
216
218
215
214
213
212
214
210
198
201
198
199
190
186
219
220
214
215
224
199
215
219
218
191
191
231
211
217
216
176
197
196
183
183
205
216
201
189
182
192
213
192
192
209
211
213
217
209
195
193
194
201
207
208
200
195
200
206
204
194
190
191
203
210
210
211
206
203
208
198
193
201
213
205
201
198
199
208
199
199
201
215
215
210
208
191
196
209
207
197
207
200
204
209
214
209
207
205
211
212
201
196
200
196
191
195
217
219
212
204
224
201
204
211
200
189
193
229
206
223
205
172
186
196
182
184
211
217
204
179
181
186
204
194
195
199
201
210
215
205
197
193
195
197
200
207
202
191
204
204
184
190
194
201
211
213
221
212
208
203
206
201
193
202
209
201
204
199
204
206
196
196
199
206
207
202
201
186
184
198
200
191
193
198
199
206
206
213
203
192
200
203
199
186
191
186
192
200
213
223
207
202
209
194
203
202
184
190
199
233
206
217
197
186
173
197
180
183
213
211
203
175
169
168
189
198
191
195
198
202
205
203
199
197
198
196
196
198
198
188
192
197
187
191
199
203
212
214
217
207
203
200
204
197
202
207
211
203
206
201
201
191
188
189
191
195
193
203
201
196
188
192
195
187
183
185
183
193
195
197
198
183
187
200
195
181
185
185
185
201
218
224
199
192
191
190
203
201
180
192
211
230
195
215
192
204
182
182
186
177
207
210
200
186
169
169
187
197
197
198
199
201
198
196
192
196
202
201
202
208
204
196
193
195
196
191
198
211
211
211
207
198
192
192
205
197
197
211
218
209
218
213
210
196
187
192
191
197
190
193
200
196
197
192
193
187
187
175
169
183
190
190
190
183
186
204
196
179
183
187
178
196
224
212
184
187
192
188
209
207
183
195
225
221
194
207
195
214
195
179
194
182
211
211
196
190
175
179
188
196
204
203
197
200
189
192
189
193
195
199
201
212
212
208
202
195
198
190
189
212
211
208
197
194
196
198
202
205
206
204
207
205
212
211
211
207
182
175
181
181
183
187
191
195
186
174
168
165
171
163
167
183
186
187
188
187
192
195
180
178
186
178
176
194
219
206
189
191
187
191
212
209
188
206
224
209
197
203
193
205
209
184
187
187
213
214
197
194
180
183
195
192
210
201
195
193
193
185
191
194
197
198
206
218
213
211
206
197
197
189
194
205
206
208
192
177
191
193
208
208
200
201
199
198
203
203
209
217
190
154
170
178
177
189
194
174
162
159
166
161
157
154
159
176
185
182
184
189
197
184
165
177
183
176
178
197
221
213
194
197
181
187
205
215
193
210
232
199
192
198
203
199
217
191
174
183
206
209
193
191
188
183
196
200
204
207
195
194
190
189
187
194
202
204
211
219
217
215
213
208
201
194
201
204
211
194
181
163
176
183
194
195
198
201
203
206
195
200
213
221
194
152
146
168
178
189
182
170
177
176
178
171
162
167
163
169
189
172
175
196
189
170
171
185
191
184
185
203
217
207
198
196
178
183
201
220
191
216
232
197
186
200
204
186
210
207
172
181
198
202
185
195
210
192
199
201
206
203
196
188
190
187
188
190
199
209
211
218
219
217
217
217
207
203
198
216
213
194
180
170
179
185
184
184
194
205
204
203
203
205
212
218
200
165
155
170
186
200
200
192
197
191
177
178
168
169
172
174
185
183
183
200
185
166
181
189
191
193
197
205
208
203
206
196
181
187
207
208
192
232
222
185
185
200
201
198
193
213
196
180
189
193
189
186
208
198
196
196
204
201
193
189
189
184
186
190
194
201
203
212
218
219
222
217
217
208
204
217
212
201
177
161
179
189
186
187
189
196
190
187
187
208
221
217
200
174
173
194
207
203
194
193
193
202
198
185
184
187
188
190
197
200
199
203
185
176
187
191
201
208
208
204
202
207
216
199
189
200
206
205
203
236
213
173
190
202
204
219
193
188
224
210
183
182
190
191
206
199
200
196
193
201
192
192
190
184
189
192
197
196
203
213
217
214
216
212
217
209
195
204
206
206
207
190
179
187
187
188
185
192
190
199
214
214
217
228
218
200
194
197
202
203
197
192
197
193
196
195
198
207
214
217
220
220
218
208
190
185
196
198
206
214
211
197
199
208
212
205
197
215
199
205
219
227
196
173
193
210
202
219
213
171
199
229
189
182
197
191
207
203
196
193
188
201
195
195
191
189
192
194
203
202
207
213
213
212
210
210
213
204
190
183
197
210
216
211
198
186
185
179
181
183
195
211
215
221
222
207
202
202
195
196
201
202
196
205
208
200
196
196
204
211
218
217
225
235
221
214
199
189
198
198
204
212
204
196
194
202
202
210
210
214
199
202
215
217
185
182
199
214
198
215
209
190
179
210
190
186
204
203
213
200
198
184
186
197
205
195
194
192
197
194
200
207
206
209
212
211
207
211
206
201
195
177
178
191
204
216
212
195
178
181
186
182
182
187
191
199
204
193
198
201
183
184
186
196
191
196
205
203
200
201
205
213
217
213
224
228
220
214
201
191
195
197
203
208
198
204
200
207
208
215
216
210
204
212
207
215
180
185
203
207
192
208
212
195
185
199
178
173
198
206
215
213
207
188
193
194
204
197
193
194
192
194
197
205
211
207
206
207
202
204
192
195
198
190
185
188
199
214
214
198
190
198
197
189
183
178
181
189
196
206
206
205
190
175
177
190
185
189
196
198
197
200
199
205
208
208
212
216
215
209
198
196
196
197
200
200
199
208
204
208
209
201
218
212
206
206
211
202
180
187
210
200
199
208
197
194
195
201
173
167
178
193
205
211
210
196
199
195
195
193
195
193
186
187
194
209
210
202
203
200
203
198
192
192
200
189
197
193
201
204
201
191
190
195
196
191
191
180
181
184
188
200
211
209
200
201
191
193
199
192
197
200
194
199
204
206
204
208
198
202
207
196
193
203
200
197
200
198
200
201
197
194
197
205
224
212
199
201
205
208
190
186
209
196
195
184
180
189
201
206
182
158
174
182
191
214
207
200
199
197
189
192
199
189
183
181
189
198
201
198
197
200
200
196
198
199
198
189
185
190
187
188
196
190
190
192
194
195
195
187
187
185
188
198
214
206
210
213
206
199
207
202
200
199
192
193
193
205
206
204
197
197
198
200
197
200
201
196
199
198
187
184
184
191
181
206
210
200
196
192
210
212
191
200
203
197
202
175
173
170
198
216
195
165
168
176
187
205
210
202
197
200
189
196
197
190
188
177
177
182
190
193
194
193
195
195
193
201
200
200
198
194
195
189
197
202
198
189
189
196
190
189
194
189
195
203
210
212
212
216
212
207
210
209
200
201
193
193
191
191
193
193
193
186
186
195
198
201
204
200
197
198
186
174
178
188
182
184
187
193
202
179
215
219
195
201
201
199
207
161
184
170
185
210
211
178
171
183
186
206
208
208
197
201
197
193
195
190
184
176
175
171
183
188
189
189
185
189
185
197
198
199
202
195
203
204
207
210
208
193
190
197
194
196
198
190
199
200
207
207
210
215
212
209
206
208
205
204
200
192
188
182
184
185
188
191
182
195
205
205
199
202
200
195
178
172
177
184
172
176
185
204
193
179
231
223
193
198
200
198
202
150
183
184
179
195
212
187
179
197
196
202
194
204
194
199
201
194
190
186
183
179
180
172
170
182
182
182
183
179
182
187
194
198
209
204
211
208
210
208
206
197
196
207
198
190
196
188
197
190
193
189
200
211
211
211
204
202
200
195
193
192
184
182
184
186
187
193
185
194
206
206
204
208
199
186
170
176
183
177
167
177
195
209
186
185
252
219
186
197
200
197
207
143
170
190
190
183
209
187
179
198
207
199
189
198
194
201
201
197
192
183
177
172
176
178
174
178
177
180
185
186
189
195
196
210
223
224
226
216
219
216
209
200
203
213
200
193
193
188
188
182
171
168
178
190
202
199
194
186
181
186
180
178
180
187
188
192
188
189
182
190
204
201
209
209
197
176
173
178
183
167
168
188
204
214
185
208
253
199
187
197
196
200
206
142
160
185
196
187
195
188
168
194
206
203
194
189
193
197
197
188
186
186
174
168
172
183
182
190
184
195
198
201
201
210
214
223
232
227
225
223
226
222
221
211
209
207
198
194
193
183
190
178
161
160
159
177
184
185
190
178
184
190
184
175
180
179
188
189
179
183
184
192
200
197
205
208
194
184
182
179
191
171
169
201
199
210
188
228
238
192
187
200
193
202
206
149
153
174
193
197
195
190
170
191
202
200
195
184
191
193
191
182
181
181
175
170
177
181
192
203
211
217
227
225
222
222
226
226
231
229
232
227
227
225
226
223
217
214
208
203
199
185
191
184
173
171
158
172
178
186
187
186
183
180
183
186
182
180
183
181
181
181
182
187
191
191
196
193
199
197
200
198
198
184
191
199
201
205
188
233
228
186
194
200
196
201
211
150
146
166
189
200
201
194
171
180
198
200
192
180
193
196
188
185
182
184
172
173
182
191
201
210
218
222
229
242
244
240
230
229
228
216
223
228
220
224
226
230
209
208
208
214
203
185
178
179
181
185
172
164
171
167
171
172
174
170
178
175
176
170
172
179
179
181
170
174
182
183
184
188
196
208
211
214
206
185
199
197
196
184
198
240
215
188
197
197
193
205
214
151
146
158
184
200
205
199
173
176
191
201
187
180
191
194
182
181
184
185
175
176
190
198
198
203
206
201
204
220
225
222
211
209
217
193
192
192
192
194
191
199
193
196
196
191
182
171
172
177
176
180
168
166
162
168
167
176
176
168
176
179
187
179
177
182
185
184
180
175
173
167
169
177
192
199
207
210
193
180
193
188
186
178
211
243
207
188
197
201
193
206
213
151
147
150
175
195
205
212
175
167
185
198
188
185
185
192
186
181
184
182
177
177
185
193
189
191
195
192
176
173
179
174
184
196
211
188
180
182
177
184
179
172
165
170
171
156
148
152
160
161
178
184
181
180
193
197
193
202
198
182
189
195
202
203
202
204
200
196
192
190
189
173
174
183
193
188
189
190
187
173
183
185
185
186
228
236
196
194
198
199
195
208
208
153
146
146
172
183
203
222
179
169
180
190
190
187
180
191
188
184
179
182
178
174
174
188
185
187
183
186
177
167
164
152
157
176
190
183
183
184
189
192
201
196
197
187
175
172
180
190
195
191
194
206
194
199
209
211
209
214
208
204
208
211
215
218
219
221
224
214
209
208
205
192
195
206
207
198
186
187
177
178
187
185
183
194
238
226
192
195
195
197
196
208
214
164
147
141
164
183
193
209
198
173
180
186
189
185
185
183
192
178
181
181
183
180
177
187
191
192
189
191
190
193
199
184
177
186
188
190
186
185
188
203
212
218
222
230
226
214
230
231
223
220
206
206
194
203
197
199
204
207
206
211
215
217
223
224
223
233
232
227
226
218
217
210
216
231
211
206
194
188
171
177
191
187
184
208
242
213
195
194
195
192
197
208
213
179
157
146
165
183
182
195
213
190
187
184
185
182
188
179
189
183
178
190
185
190
184
186
184
191
185
192
197
197
201
197
188
180
179
181
177
179
195
216
214
218
222
234
242
238
240
238
230
223
207
199
190
198
197
198
200
204
201
213
221
220
227
229
226
234
224
220
213
214
216
212
228
233
218
209
198
189
180
184
193
195
196
234
244
208
200
199
204
201
200
209
212
199
164
158
166
180
180
188
212
202
202
189
178
188
188
185
186
188
182
187
192
185
192
184
181
184
184
182
190
190
188
192
192
184
177
181
179
182
200
213
217
220
218
235
234
234
236
230
220
212
209
198
194
195
191
189
196
200
205
208
217
223
216
219
219
218
215
205
200
204
205
214
227
219
217
199
194
187
181
185
191
192
208
246
235
208
207
208
209
207
205
219
218
206
166
157
158
171
175
193
202
206
216
193
180
186
193
191
185
183
178
181
192
190
196
188
187
186
183
181
185
187
194
189
197
197
193
199
196
195
203
201
199
205
204
216
215
213
215
213
207
208
212
209
204
199
193
190
196
198
202
206
207
211
211
210
212
208
209
201
197
197
206
222
222
213
214
186
193
188
184
187
192
193
228
249
220
207
206
209
208
208
206
213
217
215
167
151
147
170
178
189
199
208
217
214
183
183
196
195
178
179
181
181
196
195
198
194
194
187
186
186
183
186
189
186
189
198
199
206
209
207
207
206
199
198
201
198
202
200
200
193
193
192
194
196
192
187
187
187
190
197
196
204
211
210
214
206
211
207
205
198
196
202
217
228
224
210
207
181
191
184
189
187
188
208
236
240
209
207
206
211
208
205
207
213
214
210
168
146
150
161
180
189
194
211
226
222
203
184
190
188
177
171
186
185
198
195
192
191
186
191
188
192
185
188
188
188
192
187
190
200
202
204
202
205
199
197
203
199
195
192
187
188
182
183
181
176
179
179
177
180
187
191
192
202
211
210
210
210
206
200
201
197
202
216
232
231
227
209
197
184
188
187
187
183
193
218
247
215
202
204
211
206
208
206
205
217
212
209
162
153
151
168
179
193
198
208
224
223
216
196
189
188
167
175
182
192
183
188
191
190
184
187
185
187
185
190
192
194
193
187
191
194
195
193
189
189
182
183
185
187
187
188
182
182
186
189
188
188
189
190
185
189
192
198
198
212
212
210
207
205
203
201
200
201
213
227
234
229
223
207
199
182
188
195
182
181
202
231
238
198
189
207
204
211
204
210
209
218
217
212
166
158
152
164
186
194
195
211
219
227
225
212
191
179
158
176
194
184
185
185
185
190
185
184
183
188
183
182
184
196
194
195
192
189
191
187
187
186
178
180
178
177
181
181
183
180
185
195
191
196
199
202
205
205
207
208
207
218
211
211
203
202
192
197
201
207
220
238
229
229
223
207
194
171
186
193
188
181
215
238
208
188
189
197
204
205
208
204
217
222
214
208
179
157
160
167
190
194
193
214
215
229
236
206
198
178
160
166
200
181
180
184
180
184
186
186
178
186
183
185
185
190
197
194
189
185
186
183
181
180
174
180
176
171
180
180
182
184
182
190
193
191
203
209
211
206
207
208
210
208
205
204
203
195
190
192
208
212
220
228
229
226
223
210
193
164
183
192
185
198
219
223
191
177
193
186
195
207
205
207
212
222
215
210
190
157
159
172
192
187
197
216
216
222
224
202
196
188
163
169
194
195
183
178
180
181
180
184
178
186
185
186
183
191
198
196
191
187
184
185
175
171
173
173
174
171
176
177
181
182
182
188
190
189
195
202
201
201
197
206
210
202
192
196
192
188
188
199
216
210
212
229
230
226
223
208
187
171
179
185
195
211
219
199
180
179
188
191
185
203
207
206
211
219
216
221
192
155
161
175
187
185
206
232
208
213
212
208
201
186
180
170
193
192
191
185
178
177
177
179
179
181
182
182
187
190
197
199
198
197
192
189
184
178
180
179
181
182
184
183
187
187
186
189
189
194
195
197
198
194
189
193
194
192
187
181
182
188
195
214
216
206
215
232
231
226
221
207
178
179
175
187
199
222
204
191
174
179
188
189
192
197
205
207
213
220
219
217
197
153
156
176
175
190
225
232
207
208
212
204
207
192
179
179
188
198
211
192
180
181
173
175
179
180
181
182
188
192
195
195
198
198
198
195
196
193
193
191
190
192
191
196
196
200
197
200
199
201
201
197
195
194
188
193
197
186
182
176
185
196
202
216
210
202
216
235
229
222
213
204
176
179
177
193
208
214
194
189
177
175
191
183
196
198
199
209
217
222
220
206
187
146
153
154
181
209
230
222
200
214
205
203
206
196
184
182
193
200
216
211
188
185
180
177
180
178
182
183
183
185
196
194
193
203
199
199
203
203
202
202
204
202
203
206
206
207
203
212
209
207
214
204
200
194
195
198
192
186
177
181
192
209
207
202
204
197
213
235
223
211
215
195
181
180
187
214
209
188
183
192
178
171
185
178
188
194
199
197
218
220
219
203
195
148
149
156
204
211
217
204
198
214
215
205
201
189
189
186
196
204
208
219
207
194
180
186
182
179
185
180
184
178
193
193
198
195
203
199
204
204
201
203
208
209
202
203
205
211
208
215
211
208
213
212
207
204
198
199
190
186
187
201
207
211
205
193
197
192
217
218
218
208
210
208
186
183
195
225
191
177
179
194
185
172
182
182
184
191
197
191
211
218
221
198
199
152
139
163
215
215
210
188
210
209
210
217
194
190
189
199
203
195
202
217
216
208
195
186
188
184
179
182
178
186
185
191
198
203
198
197
195
199
203
199
208
213
207
206
205
213
215
216
213
213
209
212
203
207
200
199
201
198
200
215
205
209
202
197
199
197
207
218
212
229
204
195
224
201
200
210
175
170
182
188
188
178
183
185
183
190
191
191
206
211
209
208
201
141
137
174
214
218
209
184
208
213
204
212
203
188
191
197
208
198
192
215
213
214
208
198
192
188
178
179
184
184
182
189
191
200
194
200
195
202
204
202
206
211
204
208
210
212
214
214
220
216
211
207
200
201
202
206
209
213
206
213
206
204
199
202
204
199
209
216
226
224
210
198
209
233
215
187
168
177
177
184
188
187
184
182
187
184
188
191
205
208
209
199
190
132
151
192
216
219
202
191
207
198
204
219
201
198
198
189
212
199
188
207
210
209
210
208
199
192
184
182
186
188
181
187
191
194
191
199
193
207
208
208
210
209
211
210
212
208
212
221
217
211
209
204
205
208
209
212
213
214
205
206
204
205
209
206
206
197
214
222
228
224
206
206
206
213
219
201
161
184
178
179
188
183
186
182
189
185
186
184
207
206
208
200
184
130
183
197
221
217
192
192
205
198
211
211
202
209
200
195
210
194
188
198
202
203
205
207
207
199
197
198
188
192
188
186
183
186
188
192
186
203
204
205
207
208
213
209
212
201
210
215
211
213
211
209
215
211
216
210
216
211
205
208
203
208
214
206
204
202
217
230
221
220
218
193
205
197
163
224
193
173
178
177
184
187
182
182
184
188
184
182
207
206
206
217
188
154
196
201
220
218
195
205
210
200
203
207
211
212
209
202
216
193
189
193
196
191
203
202
210
203
198
206
206
197
200
197
184
189
187
186
195
196
201
204
202
203
208
205
207
203
206
209
206
213
218
214
220
214
214
216
211
203
205
203
207
207
206
201
206
210
217
222
218
229
221
188
187
195
138
216
229
187
163
177
180
188
188
179
189
190
186
179
200
202
203
245
216
192
192
199
217
233
203
216
216
176
191
209
203
218
211
207
223
195
189
194
189
184
193
198
193
202
200
200
202
206
206
207
193
195
189
186
192
189
194
201
201
199
197
200
208
206
205
208
206
215
219
212
211
211
212
209
205
199
200
202
203
204
201
198
203
214
221
210
225
236
214
184
199
190
127
191
242
209
154
170
181
190
189
183
183
192
192
184
196
207
201
254
214
188
186
204
215
240
211
210
213
167
200
212
198
217
205
214
222
204
195
195
189
186
180
187
191
191
197
197
199
204
212
207
204
202
193
197
192
194
191
200
202
197
202
200
209
205
210
205
207
210
212
211
208
202
201
199
200
200
198
197
202
200
196
198
201
205
216
215
223
231
207
187
214
185
131
175
228
237
165
157
180
189
194
180
183
193
194
189
198
204
205
255
210
184
184
214
213
240
213
196
206
179
214
202
196
204
207
211
230
204
208
197
189
187
181
180
186
183
190
199
198
198
206
200
204
197
201
195
196
194
192
190
192
195
203
201
198
202
204
203
202
204
199
200
204
197
195
191
199
200
200
193
194
194
193
193
199
206
219
222
219
220
197
198
220
184
138
172
220
222
197
160
170
192
188
189
183
192
189
193
203
201
206
250
198
174
178
223
209
234
208
194
205
188
219
183
192
203
203
211
225
211
206
206
197
187
181
186
185
181
180
188
193
194
200
197
195
195
198
199
191
188
186
187
184
189
187
190
190
196
196
192
202
196
198
195
196
197
193
196
200
200
195
194
191
197
193
195
203
205
217
223
225
223
194
186
221
188
149
174
209
212
206
173
169
190
189
188
189
189
193
190
204
201
205
241
197
174
186
210
210
219
214
189
203
191
215
177
183
201
202
204
218
213
213
206
205
192
186
191
185
184
180
183
186
191
199
195
199
196
196
198
191
192
191
194
194
191
191
190
188
194
194
194
194
191
195
195
190
195
194
197
198
195
195
192
195
192
195
196
201
197
222
236
234
222
200
172
207
196
172
166
208
207
194
196
171
176
186
187
191
191
189
195
204
198
206
243
199
174
181
204
213
213
208
183
204
193
210
176
183
193
200
206
208
215
220
208
207
201
195
195
191
181
188
183
180
183
189
195
201
205
203
207
199
197
195
200
194
196
197
199
198
194
188
194
190
187
191
192
193
188
193
191
189
194
195
193
194
196
196
194
195
199
242
241
230
221
213
166
173
204
191
169
196
205
192
199
189
171
173
185
185
192
196
192
204
202
202
