P2
# Face with average contibution
92 112
255
193
194
193
191
192
192
193
189
188
189
189
188
192
198
201
200
196
199
207
210
211
214
211
209
213
206
203
203
197
197
197
197
196
198
198
197
193
195
199
199
198
188
187
190
197
196
196
192
198
198
206
204
201
196
200
201
207
207
204
210
208
212
207
210
214
215
216
214
213
212
207
199
196
196
191
191
193
194
192
193
193
193
195
198
196
196
197
197
197
195
196
196
194
192
194
193
193
189
194
189
190
193
192
194
197
200
203
207
207
208
211
211
210
209
210
210
207
202
200
197
197
197
194
190
190
192
196
196
194
192
196
194
195
193
188
188
191
192
192
195
197
191
195
199
198
198
201
197
202
206
204
201
206
208
207
212
208
212
215
217
217
216
216
208
202
198
192
192
196
194
195
193
195
192
195
195
196
197
196
197
196
195
197
196
194
193
193
192
191
192
191
193
194
192
193
198
204
208
211
212
219
215
217
213
210
207
209
205
204
201
204
202
193
190
192
188
185
187
193
196
194
197
197
191
191
193
186
188
188
188
193
193
192
199
190
194
198
198
202
198
198
203
202
202
206
208
204
211
208
205
207
213
213
217
217
215
206
201
193
193
197
195
195
191
194
193
197
194
194
196
198
195
195
195
196
196
192
194
193
189
190
192
191
192
194
195
193
202
210
215
217
217
219
218
213
213
213
209
206
205
203
208
203
197
192
191
189
187
187
191
193
198
194
191
196
192
187
187
191
188
186
188
191
192
190
188
186
188
193
195
195
196
199
202
201
196
202
206
205
204
206
209
202
205
211
213
212
216
209
201
195
195
194
195
195
190
194
192
194
196
194
194
197
199
195
195
194
195
193
191
190
189
190
193
191
193
196
197
200
208
214
221
218
219
217
216
218
221
213
208
201
202
204
202
194
193
193
190
195
194
189
193
194
194
196
194
194
194
192
187
190
190
184
189
191
195
189
191
186
186
185
186
190
191
194
195
198
198
200
205
205
203
202
203
208
209
202
208
213
219
207
204
199
201
198
195
196
191
191
194
192
195
197
192
194
198
196
196
194
194
192
189
189
190
191
192
193
194
197
202
215
219
222
221
214
219
217
215
218
216
210
214
213
206
203
201
200
195
198
199
201
195
196
187
189
191
196
195
196
190
189
189
189
190
183
190
190
186
185
185
185
185
177
178
174
182
186
185
192
187
189
196
202
203
204
197
199
208
207
203
210
213
211
204
202
206
201
201
196
189
192
193
195
195
197
194
192
196
196
195
195
194
190
191
190
190
191
190
193
197
204
213
224
219
222
215
215
224
222
216
216
215
212
214
220
212
212
204
200
205
200
200
200
194
195
185
187
187
192
193
194
191
185
185
186
184
183
181
186
182
183
182
180
182
177
175
167
177
181
179
185
184
180
185
190
197
200
200
196
202
207
208
205
209
208
209
199
205
203
199
202
194
193
195
194
193
194
194
194
192
196
195
195
194
191
193
193
190
192
194
195
207
212
222
222
218
220
211
220
224
218
219
220
217
219
218
216
216
211
207
203
206
201
199
194
189
185
185
181
185
185
187
186
180
175
178
177
176
179
174
175
176
175
173
176
171
173
171
168
175
179
178
179
180
181
181
182
190
189
196
199
197
203
205
208
205
202
207
204
200
198
197
202
203
196
192
193
195
194
191
195
196
194
195
197
195
192
194
193
191
197
200
202
213
217
217
218
221
218
221
226
223
227
227
219
219
219
218
219
215
212
202
206
201
198
193
187
186
182
182
179
179
178
181
181
173
172
173
175
173
177
175
176
177
172
167
169
169
172
170
169
172
173
173
173
175
174
178
180
182
188
188
195
196
202
202
207
205
202
199
207
201
197
200
197
201
203
197
194
192
191
191
194
195
191
194
195
194
192
193
191
198
201
205
211
212
212
217
220
221
221
228
222
227
228
223
218
221
217
212
213
208
204
198
204
200
189
186
185
181
178
178
180
178
175
176
171
168
171
172
172
172
173
170
174
177
170
164
164
166
169
169
172
168
167
173
172
175
171
172
176
176
184
185
195
196
195
199
203
206
203
200
194
203
203
201
197
198
198
205
197
193
190
190
192
193
192
192
193
194
189
193
195
201
208
211
209
208
214
223
225
223
224
228
227
224
225
224
222
216
210
207
209
195
195
200
200
193
187
183
182
179
178
175
180
177
172
171
173
167
165
165
170
173
169
168
173
175
172
170
167
168
166
166
171
170
167
166
170
172
173
171
173
173
178
178
185
194
194
201
200
201
201
200
195
192
199
205
201
199
199
200
201
195
192
190
189
193
192
192
191
193
195
198
195
202
214
210
204
209
216
216
221
220
223
222
225
225
231
227
219
215
212
212
206
199
202
202
196
191
186
183
179
180
178
178
179
177
173
175
174
173
165
162
164
169
171
169
172
171
170
171
170
167
165
165
164
165
167
165
163
170
172
170
172
175
175
178
176
188
190
199
193
192
199
190
196
188
192
200
206
207
196
197
199
198
197
192
192
193
189
194
190
193
194
199
197
208
214
206
205
209
213
220
216
220
225
221
222
228
223
217
213
206
211
209
206
210
203
205
192
188
184
180
181
178
179
179
183
182
181
183
181
177
172
170
169
170
172
170
170
171
171
171
169
165
161
165
163
161
163
164
167
164
169
168
166
169
176
176
181
181
182
192
195
187
191
191
188
188
183
189
201
209
201
192
193
197
198
188
192
191
186
188
188
189
196
198
203
212
212
207
206
210
217
221
215
222
230
219
221
223
216
209
210
207
209
208
208
203
206
195
185
187
184
178
184
182
181
181
185
186
186
184
187
182
179
179
176
176
176
180
174
172
175
173
171
171
166
161
159
158
161
161
164
166
166
169
165
168
170
173
180
178
180
185
187
188
188
192
188
188
180
185
193
202
203
196
190
187
197
192
184
190
189
187
183
190
194
204
207
213
206
208
211
218
221
219
222
229
221
212
214
217
205
204
211
212
211
212
207
205
204
187
186
187
185
184
185
185
185
185
185
190
189
191
190
188
188
185
184
181
179
178
177
176
176
176
174
171
172
165
158
160
160
159
159
159
163
166
166
166
168
171
177
175
179
186
188
189
184
189
187
183
184
179
193
198
203
201
195
190
186
194
188
187
187
188
183
182
193
205
214
211
205
210
217
218
217
212
213
216
213
207
206
202
206
206
213
213
208
210
208
206
198
188
194
194
189
191
188
186
188
192
193
194
192
196
192
191
193
189
189
187
186
183
184
179
182
180
176
172
174
167
160
160
162
162
160
160
159
158
162
167
170
169
174
179
176
181
189
190
181
185
187
183
179
177
189
198
201
197
195
194
188
191
191
184
186
189
185
179
199
210
209
210
210
213
217
222
212
210
210
210
208
204
197
201
205
209
209
206
204
205
207
204
196
194
200
196
192
192
193
189
195
193
197
194
194
195
194
197
193
196
195
192
191
185
187
184
185
183
180
178
176
167
164
162
162
163
162
169
164
156
162
162
168
171
174
180
180
182
189
187
183
183
186
181
181
179
183
192
197
197
198
192
192
189
192
185
186
182
184
182
203
207
209
211
217
213
220
221
208
205
206
202
204
196
197
204
206
203
204
201
201
203
203
195
195
197
197
196
196
198
198
196
202
195
197
196
196
194
198
200
195
200
194
192
191
190
188
188
187
185
182
179
177
171
169
168
164
165
166
169
170
163
162
162
166
174
174
181
185
184
185
188
187
187
187
186
182
179
180
183
189
197
197
195
195
192
188
191
186
185
178
177
206
210
208
215
216
213
218
214
208
205
200
195
203
196
208
206
203
196
202
199
198
200
197
191
193
199
200
200
204
203
200
198
206
198
195
198
195
199
199
202
200
202
198
195
194
193
192
188
188
184
183
177
176
173
175
175
172
166
170
167
171
171
167
166
168
174
175
178
183
184
186
187
187
189
187
186
185
182
178
182
186
192
196
196
195
195
188
189
188
188
187
177
210
210
212
217
211
209
210
208
203
200
193
199
200
200
208
201
194
192
202
195
201
196
190
194
194
200
202
202
204
205
201
202
205
201
197
202
203
202
202
204
203
203
203
200
199
196
197
195
190
188
186
183
182
179
177
177
175
170
169
169
173
174
169
167
173
177
177
180
180
181
182
187
186
186
187
189
187
186
180
177
183
192
195
195
195
193
195
186
186
186
193
180
211
209
215
213
212
208
207
200
194
197
197
198
200
202
201
196
192
196
195
194
192
190
191
195
201
202
201
204
203
204
205
202
202
199
203
204
207
205
205
205
202
201
201
197
198
200
197
200
195
187
190
184
184
182
179
177
176
175
175
172
171
172
169
169
172
175
177
181
183
184
186
185
184
186
186
191
192
192
188
180
178
185
194
192
197
187
196
191
186
186
195
188
208
210
211
213
212
206
202
196
196
195
199
196
195
194
195
193
197
194
187
190
188
192
194
199
203
201
202
203
202
203
208
205
203
200
204
204
208
207
206
208
205
201
203
199
198
199
198
197
195
192
190
188
184
182
179
177
178
180
178
176
169
168
168
167
173
176
182
182
184
185
186
187
187
183
184
194
193
198
193
186
180
180
193
193
197
190
191
192
185
189
189
195
207
204
205
215
207
199
203
191
191
187
197
192
193
192
195
199
197
189
184
191
189
199
197
200
200
199
201
202
204
205
203
206
203
204
204
206
209
207
207
211
207
204
206
201
202
197
195
193
192
191
186
185
183
181
179
177
176
178
177
176
171
168
169
168
173
176
185
184
185
184
183
184
183
184
185
194
197
201
198
187
185
178
184
191
197
194
190
193
190
184
187
193
198
193
209
207
204
205
203
186
186
185
191
184
195
200
203
200
193
189
188
191
194
198
198
198
198
200
199
203
203
204
204
207
208
206
205
204
207
209
209
206
206
203
203
199
200
195
194
191
188
190
184
181
181
180
180
178
176
177
176
175
174
171
172
169
177
176
181
185
190
184
180
184
183
181
188
197
198
203
199
194
188
180
179
184
195
195
192
190
192
187
183
196
194
193
208
208
211
208
196
183
185
184
187
191
203
208
202
192
189
188
190
192
196
196
198
196
198
199
200
201
201
202
203
206
206
206
205
205
205
206
205
206
203
204
202
198
196
195
190
190
185
186
184
180
176
177
179
176
179
179
175
175
175
173
173
172
175
175
177
183
190
187
183
182
185
181
188
197
197
204
202
196
193
183
181
184
192
195
194
189
189
192
184
188
194
198
211
209
207
194
185
182
183
177
193
201
205
207
190
182
185
186
193
192
194
194
196
196
195
199
200
198
199
200
202
204
204
205
203
201
200
201
202
201
197
197
199
195
194
194
187
189
187
182
181
179
176
176
178
178
178
178
175
179
178
175
178
177
175
177
174
182
187
188
185
182
185
186
188
196
201
208
204
200
195
188
184
190
195
191
193
187
188
190
188
184
196
204
208
209
203
188
181
180
177
183
201
200
205
196
184
185
188
189
192
192
192
193
194
196
195
197
195
195
196
198
201
202
202
202
204
204
202
201
199
197
195
195
194
191
192
189
187
187
187
182
183
180
178
177
175
178
176
175
177
180
179
181
182
180
180
182
176
182
183
189
187
186
182
188
186
197
204
210
208
200
198
189
185
196
194
192
192
190
189
187
190
183
197
202
205
208
199
189
180
177
179
191
199
197
204
194
183
186
186
191
193
193
194
196
195
196
197
194
191
193
197
196
198
201
199
200
201
203
203
201
199
197
194
195
191
189
188
187
187
188
186
185
181
180
178
177
175
177
177
180
180
180
181
184
183
184
185
186
177
179
184
187
189
188
185
185
191
196
205
208
206
203
202
192
188
199
199
194
195
196
191
189
191
186
195
201
202
205
194
181
177
182
181
190
202
196
201
191
183
182
185
190
190
196
196
197
195
196
196
192
191
193
198
196
197
200
199
198
200
199
198
199
199
195
192
195
190
189
187
188
186
188
187
186
180
178
182
181
179
183
182
183
183
185
186
189
186
186
184
188
184
179
178
190
191
190
191
181
191
196
204
209
205
200
204
197
193
189
200
199
197
196
193
190
191
188
198
201
197
201
190
179
181
184
180
191
198
196
199
191
180
181
187
187
189
194
196
193
192
193
194
194
193
195
196
198
195
197
198
197
200
198
196
198
198
194
194
194
189
190
189
190
187
188
189
184
179
180
184
183
186
186
187
185
189
193
192
190
192
190
192
189
187
187
183
188
193
192
194
187
189
196
200
208
209
199
203
199
194
188
189
201
201
198
196
195
196
191
199
198
194
197
189
181
189
178
180
191
194
197
196
184
178
183
185
185
191
195
194
193
190
194
197
195
196
198
196
196
198
198
201
201
204
200
201
201
199
198
194
195
190
193
192
192
186
188
188
184
181
182
185
185
190
189
192
188
194
197
194
191
193
195
197
194
191
192
194
191
194
194
194
191
189
198
197
206
212
201
201
202
196
186
190
196
202
196
200
196
197
193
199
195
195
190
189
183
177
181
183
188
197
199
192
183
180
182
186
186
192
195
195
192
192
195
202
199
200
201
198
201
205
206
208
210
209
207
208
203
201
201
197
195
193
193
195
191
187
187
187
184
180
183
184
189
192
194
201
197
199
200
195
192
195
197
197
196
195
194
194
192
193
194
200
191
191
195
198
204
213
203
199
205
197
190
192
198
203
196
192
198
195
190
196
192
198
196
190
180
173
187
184
193
201
204
193
187
182
184
185
184
187
190
189
197
199
202
205
204
202
200
203
209
213
212
212
212
211
210
210
207
202
199
196
195
194
193
194
191
187
185
183
185
181
184
192
193
198
200
204
201
197
197
197
193
196
197
195
193
195
191
193
189
190
194
200
196
191
198
196
201
210
207
200
199
199
202
192
205
210
195
191
194
191
194
197
187
201
198
189
178
180
192
194
202
206
207
193
188
185
188
186
186
188
191
197
203
201
204
205
207
203
201
203
207
210
210
211
212
209
209
207
207
204
198
195
191
191
190
189
188
185
185
187
187
187
188
193
190
192
194
196
195
190
191
194
194
193
193
191
191
192
189
191
190
188
192
198
197
194
194
201
201
201
206
204
197
192
203
202
208
208
196
198
194
193
193
193
190
200
197
183
188
186
195
197
198
204
199
187
180
176
177
178
179
178
188
194
194
199
199
204
201
203
209
207
207
209
211
208
207
208
207
206
204
199
195
189
186
184
187
188
185
190
190
192
192
189
187
189
188
185
185
184
186
187
186
184
192
189
190
187
190
188
188
188
191
187
186
191
199
193
196
196
203
199
202
208
198
198
205
202
211
211
199
205
199
199
194
195
196
192
190
183
189
189
190
193
203
209
200
187
178
176
172
176
175
184
192
194
194
193
195
195
193
194
188
194
197
198
200
197
194
194
196
194
194
193
188
180
176
175
178
181
178
183
185
187
187
186
190
190
191
189
183
183
187
193
195
195
193
193
193
193
192
191
185
187
185
187
183
189
195
194
194
192
197
205
201
202
201
202
209
205
213
214
205
205
206
201
196
193
198
184
183
181
184
187
188
200
203
204
198
184
179
175
175
175
176
190
190
194
199
196
195
194
194
192
191
185
186
184
185
185
182
182
185
186
190
189
184
178
175
167
169
177
176
182
183
185
188
187
190
191
190
188
185
184
187
186
190
195
199
197
197
194
193
193
187
187
181
182
181
185
193
197
196
196
194
203
203
200
202
206
215
204
206
212
210
210
205
202
196
200
194
181
172
174
188
182
195
201
196
197
201
185
180
178
173
171
181
190
198
195
196
197
193
190
190
186
194
191
190
188
191
189
190
192
184
191
191
185
182
176
174
169
170
172
181
181
181
185
188
187
188
192
196
199
194
190
192
190
195
193
201
196
201
196
197
191
194
193
189
184
184
190
200
206
206
199
198
199
203
206
205
213
218
212
205
211
209
211
202
213
198
203
200
189
160
180
188
181
200
198
196
199
197
187
178
180
174
175
189
198
200
191
192
188
186
186
192
191
199
200
201
201
201
202
198
204
196
192
184
177
176
171
170
170
168
170
179
179
184
184
186
189
194
200
202
204
199
195
199
198
188
189
205
192
204
196
194
196
194
197
197
189
192
190
202
207
206
202
202
200
206
206
207
217
217
212
211
216
208
206
201
214
202
200
202
198
158
185
180
189
199
200
197
197
191
187
179
178
169
178
186
195
189
185
183
183
183
193
193
194
194
204
195
192
196
197
197
192
199
197
188
179
178
170
166
170
168
174
177
182
185
188
188
194
198
200
203
199
199
204
195
190
184
183
200
176
201
192
190
195
188
201
195
194
195
188
195
207
207
202
205
205
208
210
217
219
218
216
215
220
214
202
204
210
209
195
201
202
163
186
178
199
199
206
204
198
193
184
176
173
165
173
177
182
180
185
182
182
200
203
203
192
187
199
200
192
212
198
199
184
192
198
197
190
184
176
169
171
169
175
181
184
186
194
197
195
191
193
190
194
200
192
187
186
183
179
180
183
195
193
190
181
188
201
206
202
199
188
189
201
202
202
208
203
203
212
223
224
218
223
217
217
218
206
204
206
216
188
189
197
175
183
188
203
204
210
210
201
192
184
176
173
165
170
174
181
184
192
174
177
201
210
199
189
190
206
206
197
218
206
201
182
184
197
206
196
187
174
170
175
171
176
186
185
185
193
197
191
189
187
191
190
187
183
182
181
181
177
172
178
185
194
189
183
187
199
204
198
200
192
193
201
202
199
202
205
207
213
226
224
225
222
219
213
212
212
206
205
217
185
184
195
189
192
198
203
209
214
208
209
196
186
182
177
166
175
180
179
179
189
182
193
201
205
187
186
190
186
201
201
200
196
190
178
179
187
201
196
194
175
171
176
173
178
188
186
187
190
189
184
183
183
181
182
185
188
191
188
186
186
181
181
186
191
192
186
186
206
207
213
204
198
196
202
203
199
198
202
209
218
230
226
231
230
217
209
208
216
210
204
214
183
190
197
191
199
206
206
212
214
198
210
196
192
193
180
166
179
180
176
173
165
183
180
196
185
179
180
177
175
180
183
183
174
181
184
176
182
194
193
191
182
178
173
175
181
189
192
194
189
193
182
180
189
179
178
185
188
188
185
178
187
174
180
192
190
190
189
184
203
201
216
209
208
202
201
203
205
200
201
213
218
230
229
229
233
223
207
207
216
219
207
211
185
195
191
201
196
206
203
210
211
197
207
192
195
195
179
168
175
175
174
168
166
187
182
198
181
178
178
170
165
169
166
167
169
172
181
167
182
197
192
201
192
189
174
181
181
190
195
200
203
190
190
181
193
189
184
186
193
196
184
176
175
162
165
185
188
190
188
189
187
198
203
204
204
196
197
205
213
211
208
211
219
227
227
223
228
221
207
205
215
221
208
210
192
199
197
204
189
213
205
204
203
207
203
190
186
193
176
172
174
174
174
171
173
180
183
185
180
174
163
160
161
163
161
157
165
164
169
157
182
187
189
202
196
190
188
183
182
192
194
204
199
192
189
183
182
185
185
183
187
188
184
185
185
174
171
173
173
183
178
180
176
181
188
192
192
190
183
199
207
216
220
212
216
225
228
228
225
221
211
206
211
224
214
207
192
204
200
204
185
224
218
213
200
200
192
190
188
193
177
168
174
176
177
172
172
174
173
169
176
160
147
143
151
146
149
156
151
163
163
156
187
184
195
197
194
185
183
180
185
198
194
203
190
193
192
184
170
180
189
177
190
188
188
190
192
178
178
182
180
178
174
169
172
172
173
184
184
185
182
191
205
217
217
214
215
228
231
231
228
221
214
211
213
223
217
210
197
206
207
207
192
224
223
217
201
198
185
190
187
183
176
171
169
169
168
157
161
164
162
166
157
143
137
152
147
144
142
152
150
165
170
168
187
181
198
191
194
189
175
180
185
191
193
198
185
187
192
181
170
171
181
178
179
180
181
188
188
183
184
191
189
184
169
176
171
161
174
181
179
183
182
186
201
214
217
208
218
240
237
238
226
222
212
212
215
221
219
211
206
202
199
208
190
219
228
218
203
193
183
187
183
182
183
173
167
158
162
155
171
171
164
164
152
145
151
156
166
167
165
168
163
162
159
181
181
182
193
193
199
200
192
194
194
194
182
202
185
186
192
182
171
171
174
180
180
181
180
188
188
186
188
188
194
196
179
182
171
163
173
179
178
190
190
181
198
216
219
212
234
240
247
239
238
220
212
209
217
223
217
212
200
202
192
205
195
219
229
225
206
199
186
189
193
192
189
182
174
166
178
173
181
176
168
168
170
166
169
177
177
178
184
179
172
168
165
186
179
192
195
189
192
194
193
194
198
200
187
210
194
196
198
189
176
183
181
180
183
181
182
189
186
173
169
183
192
193
178
185
183
175
178
179
175
181
181
180
197
215
223
220
240
237
252
246
236
221
215
218
220
223
216
203
206
206
192
217
205
220
237
233
211
206
183
186
199
201
192
183
182
180
185
187
194
185
184
192
189
194
189
194
189
190
184
184
179
178
188
186
185
196
192
193
195
199
192
202
195
193
196
211
199
204
204
200
185
187
193
190
185
186
179
183
183
177
175
186
191
193
180
182
179
189
185
181
179
181
177
184
199
208
221
223
238
233
253
245
233
219
218
220
218
220
215
203
216
214
192
218
225
222
247
239
213
200
185
185
200
206
195
186
187
188
183
184
194
194
189
192
191
186
192
186
189
189
189
185
179
191
202
195
198
193
191
195
196
196
197
199
197
193
199
211
203
207
203
204
200
197
200
193
184
188
184
175
184
181
176
182
179
184
180
183
181
190
188
188
186
190
180
190
199
209
220
219
239
234
255
243
227
218
212
208
216
220
209
202
228
211
195
201
231
215
245
243
215
210
193
189
196
204
197
194
194
200
199
200
200
198
183
175
175
182
185
185
190
188
184
185
179
204
201
205
195
191
195
197
197
194
207
207
198
199
191
201
200
205
199
208
207
205
207
201
199
198
193
191
189
186
180
177
178
181
179
185
193
193
190
189
188
191
190
197
201
209
221
209
231
238
250
232
210
201
204
201
214
214
195
192
231
202
194
198
225
211
226
238
215
211
202
194
198
209
195
194
197
205
205
206
207
203
183
177
174
188
189
189
193
192
192
189
200
201
203
209
199
196
197
199
197
197
209
211
209
209
200
199
202
206
205
209
211
202
204
203
200
201
206
203
204
192
186
185
186
191
190
190
194
194
191
187
183
186
188
197
201
222
226
213
227
236
236
213
207
192
194
198
212
204
186
181
229
196
195
196
219
220
206
224
216
207
202
199
204
206
193
199
205
210
209
206
205
207
193
186
187
194
194
192
197
197
197
193
216
212
216
213
206
204
203
200
196
199
208
210
205
206
210
212
203
210
211
209
214
213
205
203
205
201
211
207
208
198
197
197
196
201
201
195
196
193
188
185
181
180
189
196
209
225
212
210
228
230
216
213
209
190
190
196
208
191
183
175
230
197
199
204
209
209
211
208
214
212
206
203
207
206
192
201
212
215
216
209
208
208
200
196
195
198
201
202
203
203
197
214
221
220
219
211
206
209
212
205
197
205
212
208
203
202
209
207
213
204
213
214
220
223
214
210
206
210
215
212
206
207
203
206
204
205
203
200
197
193
190
184
180
185
190
200
216
227
208
205
233
235
216
223
217
188
189
199
196
182
177
171
226
202
206
208
198
196
208
209
213
217
219
205
210
204
193
198
215
213
216
214
210
206
199
195
194
196
199
199
200
198
212
222
215
214
213
210
206
209
216
208
202
207
205
204
207
201
211
207
223
205
201
213
224
228
220
215
206
202
210
215
214
216
213
210
204
202
207
196
192
190
195
186
183
186
188
202
210
224
205
212
231
235
222
227
214
192
188
195
190
180
174
175
211
204
196
195
189
187
188
186
210
220
216
210
210
199
195
197
206
211
215
216
215
211
204
201
199
197
200
196
198
210
225
218
214
211
211
213
208
212
214
205
208
211
206
206
207
208
210
213
221
210
205
214
220
231
223
224
215
203
201
204
211
214
218
214
211
204
209
205
194
191
194
190
190
190
191
196
203
215
198
219
229
226
223
221
208
189
181
188
193
175
170
179
209
193
186
193
193
187
186
181
185
206
208
204
203
198
194
198
199
206
208
212
213
215
209
210
206
202
205
205
211
218
220
214
216
207
207
211
213
218
215
212
212
213
210
209
205
204
206
213
218
213
212
212
219
219
222
225
220
214
214
205
204
208
211
209
207
208
204
202
198
199
201
195
194
190
192
193
202
209
198
218
225
218
221
213
207
184
185
189
201
173
165
181
216
177
190
197
213
197
190
191
176
187
202
196
196
203
195
194
197
198
204
210
211
211
206
206
206
208
210
209
212
211
213
213
207
197
205
204
205
205
209
210
212
209
215
206
207
205
208
208
216
216
207
211
211
211
220
222
223
213
216
206
203
205
205
205
204
203
204
202
203
206
203
203
198
191
195
197
206
202
202
216
224
216
219
205
203
182
188
194
198
176
163
187
210
169
197
198
210
202
187
193
177
178
206
199
193
194
190
193
197
202
201
206
209
209
208
209
211
207
205
211
207
209
206
205
202
197
199
201
199
201
203
204
212
214
212
204
206
208
207
210
212
216
204
214
213
208
208
215
218
213
211
211
209
207
207
207
206
206
207
211
213
210
207
207
201
196
196
199
206
199
205
217
221
217
222
199
192
182
180
189
198
178
162
188
197
164
195
198
206
189
190
192
179
173
201
203
192
192
184
186
185
195
205
206
208
207
208
210
208
207
206
206
201
201
199
197
202
199
197
195
197
199
198
202
213
223
211
205
212
215
211
207
212
206
223
214
230
219
206
210
209
211
204
208
207
205
200
207
209
209
209
216
218
215
212
209
202
201
200
203
206
194
207
216
219
215
213
195
186
181
182
188
190
175
165
185
201
161
181
197
200
183
192
191
179
172
192
203
197
188
183
183
186
187
201
206
207
206
208
208
207
206
210
205
201
200
199
194
200
199
195
194
194
197
195
204
210
216
203
203
207
212
207
202
211
215
209
218
224
231
210
215
208
207
209
210
208
204
204
205
206
209
213
213
216
216
216
213
205
206
201
207
200
195
209
207
220
219
207
191
190
184
191
190
182
167
166
186
204
172
168
196
200
187
195
193
179
170
181
206
196
185
184
186
188
193
196
202
205
207
207
209
208
209
213
207
203
201
203
197
194
198
197
187
192
195
196
199
202
205
194
202
204
203
201
199
205
215
207
209
217
213
214
213
210
204
209
211
207
200
205
204
206
205
208
215
211
214
217
211
207
207
201
205
196
200
203
204
222
222
199
193
189
180
191
193
175
160
163
191
201
180
165
185
197
186
201
194
181
168
188
205
192
182
184
186
186
194
199
200
207
211
210
212
214
215
214
209
207
207
210
201
194
199
196
188
192
193
198
191
189
191
193
202
207
201
199
201
203
204
211
208
214
206
206
213
206
206
204
205
205
201
206
200
203
201
205
210
210
211
212
209
206
203
202
198
197
199
197
204
217
216
191
189
182
179
190
190
170
161
159
194
192
181
166
174
183
178
201
197
180
180
197
198
193
182
183
186
185
190
198
206
211
215
215
216
214
215
211
217
214
211
214
205
201
203
200
194
189
192
191
188
186
192
200
209
210
200
196
198
197
191
206
211
206
212
203
202
201
202
200
199
200
200
211
205
202
201
204
207
209
210
208
206
205
198
193
198
199
195
197
203
209
206
191
180
174
178
188
185
174
163
160
195
191
177
162
167
171
164
189
200
183
182
190
194
195
186
185
187
186
186
195
205
209
211
213
214
213
215
213
215
217
212
215
211
200
199
196
191
187
192
189
189
196
201
202
209
208
195
190
186
188
182
200
210
206
203
196
197
193
192
191
193
190
193
205
203
203
201
205
208
209
209
209
201
197
193
200
200
197
191
196
196
200
202
184
176
174
176
182
184
167
160
162
187
192
178
160
167
173
160
179
191
185
185
180
181
196
186
185
187
190
192
198
202
208
209
212
211
210
206
204
207
209
203
201
197
199
191
194
187
185
197
197
201
209
209
196
207
205
199
193
192
195
195
203
211
211
205
199
192
192
196
190
183
184
189
196
195
197
196
198
202
201
200
194
192
192
199
202
199
193
190
197
192
194
196
179
173
168
170
176
183
168
150
174
181
195
177
150
161
174
161
176
185
186
182
179
178
195
189
183
187
187
192
196
202
201
206
203
204
200
196
200
199
196
198
194
191
192
185
190
181
183
197
198
211
213
218
204
201
207
208
200
198
201
200
205
209
218
213
202
195
193
197
196
194
199
195
194
195
194
191
192
194
198
196
195
198
196
194
195
193
191
190
197
189
189
183
176
167
160
156
164
178
159
159
182
176
202
186
156
151
171
162
172
184
183
175
186
176
191
189
182
188
188
191
194
198
200
199
199
197
195
191
191
191
194
199
192
191
188
188
192
183
191
201
203
207
207
213
210
200
211
210
202
193
200
196
201
207
209
208
205
197
195
197
198
196
199
194
196
197
202
198
193
196
196
192
193
194
190
190
190
190
188
194
195
185
183
178
167
163
159
157
160
170
157
174
182
172
201
199
171
148
157
160
170
186
183
173
191
181
194
188
188
187
191
191
193
196
196
193
191
193
189
182
186
190
194
198
194
189
188
192
194
193
195
209
213
211
208
204
206
201
204
202
202
186
192
187
189
198
195
193
196
196
195
196
198
198
197
202
197
193
198
192
190
188
186
185
185
187
185
185
185
184
184
194
190
181
181
173
165
161
163
161
160
162
166
185
182
171
203
201
191
168
153
147
162
182
185
174
189
182
198
198
194
186
192
186
190
191
191
185
184
188
179
179
182
187
189
194
190
186
188
195
198
206
202
206
211
207
202
199
197
198
195
194
190
183
184
180
182
184
181
182
189
192
191
194
196
198
201
208
196
193
190
186
187
182
181
181
178
180
181
181
183
180
185
189
180
179
179
172
167
171
167
162
159
166
178
181
179
179
197
197
199
198
156
150
146
168
183
172
184
185
197
205
197
190
187
184
184
186
185
182
182
183
176
178
177
181
185
186
185
182
190
197
206
212
206
204
203
202
201
197
193
194
196
190
185
181
180
173
172
179
179
186
188
193
193
199
199
198
204
203
200
195
191
187
184
181
182
179
177
179
177
179
181
182
185
189
177
179
180
175
173
170
163
161
160
181
181
176
176
184
187
190
194
203
161
156
148
152
168
161
170
176
194
212
203
189
182
178
178
180
181
178
177
176
175
173
173
176
180
181
185
186
194
203
205
209
208
204
204
198
204
196
194
192
190
186
184
181
184
176
176
183
187
190
194
196
197
202
204
203
203
204
204
201
195
190
185
181
183
176
177
177
178
179
179
184
186
191
175
176
178
182
171
175
154
158
173
188
175
173
176
188
187
185
193
201
178
157
164
152
164
162
156
168
187
214
202
190
179
176
176
177
177
175
174
173
169
170
169
176
179
178
187
191
202
203
209
213
214
215
208
201
201
207
201
196
190
187
181
180
188
184
182
185
188
191
196
198
197
199
202
208
206
209
208
206
198
193
186
181
183
179
176
177
179
179
181
183
189
187
176
175
185
187
175
173
159
170
193
180
173
171
182
187
186
183
192
205
188
161
166
157
172
170
163
166
183
205
201
194
178
179
172
178
178
173
177
176
170
170
170
177
178
183
189
198
206
210
215
219
219
217
212
204
210
211
213
208
201
191
191
187
188
184
184
188
190
191
198
199
202
198
202
208
209
212
208
209
202
193
188
185
185
182
175
177
179
181
181
182
196
187
176
179
190
189
184
181
176
184
194
177
169
175
189
187
186
184
186
206
198
182
167
161
171
174
170
161
177
193
194
195
180
176
175
179
176
177
180
184
179
176
178
180
180
193
197
211
217
217
229
233
223
220
218
214
221
220
214
214
205
194
195
192
190
190
191
192
191
197
197
201
199
199
200
204
204
213
210
207
205
196
190
188
188
183
181
178
180
186
184
182
197
190
175
187
195
201
188
189
185
185
189
172
166
184
189
190
185
186
181
202
202
196
185
170
170
175
170
160
165
179
194
191
185
174
180
183
182
185
190
187
188
186
185
184
187
195
205
218
222
226
234
235
226
224
229
222
224
224
216
215
203
196
197
196
197
195
192
192
193
200
200
200
200
199
197
201
198
206
207
208
206
198
191
186
187
185
186
184
182
186
189
188
194
191
180
198
209
210
195
196
187
187
181
170
169
189
187
189
181
184
184
196
203
196
198
190
167
172
170
161
162
175
193
185
186
181
184
187
188
188
194
193
195
195
190
195
197
203
214
225
223
231
228
228
229
228
227
222
228
229
217
210
195
193
194
194
200
197
191
192
188
194
199
204
207
201
199
201
197
199
199
205
202
201
190
184
185
183
187
187
187
191
190
194
194
188
182
202
214
215
197
196
186
185
178
169
183
187
188
185
180
179
186
192
202
197
196
196
173
168
168
172
161
179
192
184
191
187
190
187
191
193
197
200
196
199
196
199
203
212
215
220
223
221
221
225
230
232
229
225
231
228
214
206
192
188
184
191
201
202
196
191
183
195
201
203
207
197
194
195
189
192
196
198
197
197
195
182
181
183
189
190
187
192
194
196
194
188
182
200
217
215
201
193
184
187
174
183
189
186
186
187
186
179
178
189
205
192
192
189
181
176
172
185
167
183
189
185
191
189
194
192
194
200
198
204
200
198
195
199
206
217
215
221
223
219
217
220
218
223
219
220
225
222
211
207
197
196
183
193
197
203
199
192
180
203
204
202
201
189
199
192
184
188
192
194
189
189
190
182
180
185
188
191
185
191
197
197
192
190
182
203
211
212
204
187
186
182
185
189
189
186
186
189
192
187
176
184
201
184
186
185
181
179
183
192
183
185
191
191
193
195
198
198
195
200
200
205
200
203
193
197
203
210
210
217
219
212
217
213
206
208
206
209
210
214
211
210
205
201
191
197
200
199
198
191
192
200
200
204
195
199
210
207
186
188
191
188
182
182
178
184
182
188
188
190
183
192
197
194
188
193
183
211
201
205
202
188
184
188
195
188
186
187
188
188
194
189
185
184
195
186
187
184
185
176
182
189
188
178
193
192
199
200
198
197
201
201
197
198
194
197
195
195
198
207
206
211
213
206
213
211
204
198
194
198
200
199
197
201
210
210
193
200
201
202
205
195
205
204
197
202
195
192
200
207
196
187
184
185
177
179
186
186
186
188
187
186
180
190
193
188
186
189
188
215
206
203
199
186
191
195
192
188
188
185
185
189
195
192
190
188
191
194
187
184
185
182
179
190
193
178
190
198
203
206
199
194
204
195
184
186
181
182
190
191
191
198
196
208
206
204
210
198
193
191
189
197
203
196
191
190
197
206
186
195
205
204
204
195
200
200
192
190
188
182
189
197
190
184
183
185
180
188
190
191
185
188
185
187
180
186
188
184
184
181
198
212
208
205
202
193
195
193
189
192
191
187
185
187
193
194
192
190
190
200
185
189
188
186
179
192
194
188
191
203
205
213
200
194
202
188
183
181
179
176
184
186
188
188
188
195
198
197
201
198
189
190
195
198
204
201
201
197
205
204
191
198
205
201
198
190
187
192
186
188
183
174
179
183
183
186
183
184
183
188
191
189
191
189
185
188
186
184
185
183
179
184
199
210
205
203
199
194
194
191
190
191
189
189
186
188
186
192
191
191
193
202
191
187
189
187
181
189
196
194
191
210
208
219
202
202
197
191
189
183
185
181
188
186
192
184
192
192
194
192
194
199
192
190
204
211
205
209
220
212
219
215
209
203
203
201
201
195
190
190
193
193
190
187
184
187
187
185
182
182
183
186
192
196
193
193
186
190
185
186
185
180
181
188
197
203
202
200
196
192
196
188
191
191
192
187
185
186
188
186
188
192
192
202
195
191
190
190
181
188
198
198
194
205
205
217
206
202
194
195
196
186
191
190
199
195
195
197
200
203
197
195
197
199
203
201
216
213
213
216
223
224
229
230
231
219
216
217
217
212
210
206
197
197
199
194
190
189
187
187
181
182
182
188
190
197
195
196
187
191
188
187
184
182
181
188
198
201
201
199
194
192
192
189
191
188
193
185
187
191
190
187
188
192
192
201
190
194
188
194
184
186
195
200
199
204
203
211
209
202
196
195
201
191
196
197
202
200
196
206
205
207
207
202
203
206
210
208
219
220
219
215
222
221
230
230
232
222
213
215
209
212
208
206
200
201
197
193
190
191
187
187
186
181
183
189
191
193
194
191
190
190
186
186
182
179
182
189
201
200
200
197
193
195
190
190
191
191
189
192
186
191
184
181
177
181
185
185
183
195
186
192
188
186
190
196
200
203
199
200
208
194
190
195
199
191
191
192
203
199
199
202
204
201
202
203
200
201
205
198
202
204
202
199
207
210
218
214
215
202
201
198
197
204
203
203
202
196
186
185
185
182
192
189
182
182
185
193
195
192
191
190
190
190
189
185
184
177
179
188
192
193
193
186
183
185
181
182
184
182
181
188
185
183
169
169
170
170
175
168
175
186
187
189
186
189
186
194
197
209
197
191
202
190
183
189
189
190
190
189
197
199
199
199
201
200
207
206
204
202
203
202
200
193
193
193
194
196
197
200
198
194
197
197
199
200
205
204
197
194
186
184
182
182
196
185
189
192
195
197
197
197
192
191
190
192
187
186
183
179
177
191
193
192
190
185
180
181
176
175
174
171
172
179
176
172
166
171
176
175
172
167
169
176
181
188
188
187
184
192
192
211
195
188
192
193
182
183
183
187
191
188
190
197
196
196
195
201
204
205
204
201
201
200
200
198
201
201
197
200
198
205
202
205
199
199
196
192
198
198
195
188
187
187
187
188
197
186
189
192
195
198
197
196
198
190
190
193
190
188
188
180
177
188
192
193
185
184
181
181
176
175
173
171
172
179
174
177
163
176
181
171
169
165
168
175
181
185
192
186
186
193
189
209
202
183
187
190
184
184
182
182
191
192
190
188
193
196
198
194
200
198
198
201
200
199
198
202
207
204
205
203
207
209
208
209
205
205
199
199
203
197
195
188
187
189
192
189
191
184
186
188
195
196
199
198
194
192
189
191
193
190
189
182
184
188
191
189
181
180
182
181
178
176
172
168
171
178
178
179
161
178
177
164
168
166
166
175
183
183
192
190
189
192
201
207
197
181
183
187
189
185
187
183
194
191
192
191
192
195
200
194
197
197
198
199
203
203
195
202
203
204
206
207
206
206
204
208
203
200
194
200
204
191
197
193
190
189
188
191
189
190
185
187
191
197
198
196
192
193
189
187
195
193
186
182
187
202
192
180
179
179
179
184
180
178
173
167
168
174
181
179
167
175
168
161
168
171
165
171
181
187
191
190
195
206
212
206
193
183
187
183
191
191
185
184
190
190
192
197
198
200
201
205
205
201
198
198
201
204
201
202
201
203
204
204
197
200
200
203
196
198
196
198
203
197
197
192
191
192
188
189
189
191
188
187
190
194
197
191
190
191
188
192
194
191
181
185
188
204
197
179
177
179
178
184
186
180
171
166
164
172
181
181
171
167
165
161
166
173
166
168
180
191
191
194
207
218
211
203
193
182
192
184
187
194
185
185
182
191
188
195
195
200
200
204
207
203
199
199
200
203
203
203
199
201
199
200
199
199
198
204
201
200
202
200
196
201
191
188
189
191
187
191
187
191
191
191
190
196
195
190
190
187
187
195
199
188
177
190
188
198
196
187
182
181
183
186
184
180
169
164
163
170
180
180
167
162
163
162
164
173
171
161
180
193
197
206
214
218
212
199
194
181
191
183
181
191
186
185
182
187
186
190
190
195
194
203
201
202
201
200
201
201
202
202
199
198
198
197
200
203
200
210
204
203
206
197
195
195
189
187
187
191
187
191
188
193
191
193
194
192
195
190
190
186
191
197
205
176
178
191
193
188
193
193
188
188
186
183
180
177
172
161
167
171
170
177
167
161
163
162
163
170
174
160
180
206
207
220
216
217
210
199
200
186
188
185
175
181
187
184
182
180
180
188
189
194
189
198
194
201
198
194
202
196
200
204
198
196
196
198
204
199
203
210
199
202
203
198
196
187
187
186
189
191
189
194
192
192
195
192
194
193
191
191
189
193
195
202
207
174
179
190
186
193
195
198
197
188
183
187
179
172
172
163
169
166
166
176
160
161
163
161
162
168
176
177
191
210
213
222
223
212
204
201
203
189
188
190
169
169
185
186
178
177
179
185
188
188
192
190
194
192
191
192
191
190
197
202
197
196
195
200
198
195
198
207
196
202
198
200
196
187
192
188
193
194
192
196
192
195
194
193
190
190
188
187
188
198
198
205
198
170
180
183
176
183
203
205
198
192
184
190
178
171
170
165
166
166
166
172
161
164
165
164
163
169
185
197
193
198
216
228
221
212
200
199
207
190
191
183
164
166
180
183
183
174
174
180
184
186
189
190
194
186
186
186
185
187
191
197
194
195
195
199
194
196
196
200
198
198
196
199
192
191
192
191
196
194
193
194
193
198
192
192
193
191
181
187
194
198
202
206
192
168
180
171
178
184
192
206
203
194
190
189
182
171
168
161
168
166
167
173
167
168
169
167
165
172
208
202
199
199
203
230
224
210
196
198
212
195
190
179
166
167
178
179
183
176
178
175
179
187
181
190
193
184
187
185
186
186
188
195
193
195
189
197
194
195
193
196
197
196
199
200
195
198
189
195
196
197
198
192
191
193
190
191
189
189
189
191
199
203
200
199
191
165
162
169
179
182
182
200
207
197
193
186
189
180
170
165
174
172
174
176
167
168
169
167
162
187
225
204
198
200
203
213
227
206
194
203
210
201
182
174
171
169
172
178
183
176
175
171
178
186
182
191
187
186
185
188
185
182
190
186
192
189
187
191
196
191
194
194
197
193
201
197
198
199
190
193
197
198
201
194
193
192
188
192
189
191
195
196
202
202
195
196
186
151
147
170
186
184
179
195
210
204
194
185
189
185
170
169
178
174
175
181
170
168
169
167
170
201
226
207
199
201
204
214
218
205
197
207
215
196
168
170
176
172
175
176
185
176
178
174
180
186
185
187
188
184
184
184
187
182
189
188
191
187
187
192
195
189
195
197
197
196
204
198
199
196
198
192
197
196
200
194
192
193
193
190
192
194
200
200
201
200
192
191
159
152
143
168
191
189
178
188
207
206
200
185
183
183
176
170
177
173
173
179
175
171
171
172
187
210
225
209
196
202
203
218
214
193
199
215
223
178
161
180
179
171
176
180
181
176
179
179
182
182
188
187
186
185
182
186
187
185
188
191
194
189
188
192
196
191
195
198
198
195
204
197
199
199
202
194
194
194
196
193
191
193
197
196
196
196
203
203
202
198
186
177
149
144
145
165
196
192
190
185
202
207
204
193
178
180
174
178
180
175
174
184
178
176
176
177
193
204
223
201
196
202
204
222
206
194
192
220
212
165
169
184
180
170
180
183
174
174
176
182
185
182
184
187
187
184
181
182
188
187
189
191
186
191
186
192
196
193
200
197
198
199
200
201
199
201
201
200
195
192
193
193
191
195
198
197
197
200
201
202
197
186
180
167
143
143
136
165
184
199
194
184
202
212
204
200
183
178
181
181
177
177
173
179
181
180
174
183
195
203
222
199
200
203
207
224
202
195
199
199
199
177
174
187
184
177
188
189
177
171
175
183
186
186
184
190
184
185
184
182
186
189
189
190
186
189
191
192
194
196
199
201
200
201
203
202
200
198
199
199
196
196
198
196
195
199
198
200
200
201
200
203
188
178
175
161
135
144
131
161
187
196
195
188
200
217
209
204
184
177
185
188
186
186
180
179
184
186
185
196
200
211
221
200
205
205
210
223
196
197
195
191
192
180
180
192
186
186
196
193
185
176
175
178
188
187
187
189
183
186
185
186
184
185
187
186
189
187
191
189
190
195
199
198
198
201
201
199
198
195
196
198
198
198
200
199
197
203
201
199
202
202
201
201
181
174
168
151
135
140
129
157
188
203
184
194
198
218
214
209
186
174
187
188
185
190
186
188
191
196
198
201
205
219
218
206
208
204
217
213
199
192
186
206
186
169
183
197
187
193
199
201
193
187
178
175
186
188
190
188
186
189
186
187
186
185
185
189
186
191
188
190
188
191
194
198
197
193
196
194
193
197
195
199
201
201
202
199
200
202
199
200
205
202
204
190
174
170
162
142
141
141
127
155
181
207
199
188
192
217
220
213
190
176
191
197
194
199
191
193
190
194
202
196
207
217
216
201
197
200
226
207
197
181
191
205
185
168
173
195
193
197
199
206
201
195
187
181
178
186
192
191
191
191
190
194
190
189
190
190
187
192
187
190
189
190
194
195
192
191
189
190
193
198
197
199
202
203
203
200
201
200
202
201
203
199
198
179
172
166
154
142
144
141
130
155
176
198
219
195
175
214
228
211
194
183
194
191
192
197
199
195
192
199
213
208
215
222
220
197
191
197
223
213
177
185
198
199
186
174
172
182
192
198
199
203
204
199
194
191
183
181
190
191
196
195
192
193
198
194
190
189
190
191
190
191
189
190
196
191
189
189
187
192
194
198
199
200
201
202
200
198
205
204
200
201
199
197
190
170
169
160
149
148
138
145
138
155
175
186
221
213
175
200
230
212
197
191
190
193
195
198
198
200
196
201
217
214
219
222
217
193
186
199
221
202
173
189
188
197
186
177
171
186
187
191
199
204
197
200
200
194
192
186
186
184
190
199
195
193
197
196
190
189
188
190
190
190
192
191
192
193
192
191
192
196
199
200
201
200
200
202
203
203
205
202
202
200
195
187
185
169
163
156
150
148
138
148
141
157
172
182
215
220
190
191
224
209
200
194
186
199
200
199
204
198
195
210
222
211
214
217
214
191
194
195
201
197
175
190
180
196
188
183
170
195
191
186
190
201
198
198
201
197
200
187
188
189
185
195
199
197
196
196
188
188
189
192
191
191
193
192
193
195
194
198
197
197
203
203
201
200
202
201
201
204
203
200
199
195
186
186
183
166
161
152
149
146
139
147
142
166
171
180
211
215
202
196
205
206
203
201
191
199
204
204
205
197
195
221
222
217
214
211
208
193
200
181
197
202
175
188
186
191
192
188
174
194
197
188
190
192
194
195
203
199
203
197
191
198
191
188
196
196
198
197
191
192
193
195
191
195
195
191
194
194
197
202
199
200
201
202
201
204
205
199
201
202
198
195
192
188
185
187
185
162
159
148
150
143
142
143
147
174
171
185
204
213
206
206
197
190
206
200
197
202
206
206
208
200
