P2
# Face with average contibution
92 112
255
195
194
192
194
198
193
195
192
193
195
196
188
189
185
191
190
192
195
192
189
187
190
201
202
203
207
203
220
225
209
208
199
201
196
203
210
213
210
215
207
204
209
205
199
204
204
206
215
201
199
211
211
201
198
195
197
201
200
200
209
208
202
201
189
190
187
184
180
173
176
182
185
187
191
194
194
197
195
194
197
190
194
192
197
194
196
199
198
198
200
198
199
196
192
192
196
193
192
194
193
196
193
197
188
181
186
188
192
199
200
197
191
194
199
198
207
213
219
218
219
214
209
207
199
207
206
201
193
201
195
198
193
195
192
191
192
192
191
192
199
200
189
196
208
199
200
203
203
202
205
202
202
206
200
204
199
189
189
190
188
186
182
180
181
187
186
194
195
193
197
193
197
193
195
194
191
195
194
197
197
199
200
201
199
193
191
192
192
194
194
191
194
194
197
192
187
187
191
195
203
195
207
191
192
195
201
206
211
220
226
220
210
213
211
215
206
204
198
198
189
185
184
176
183
179
183
181
182
185
189
187
181
186
185
181
189
189
192
195
199
205
204
200
209
199
201
200
202
197
191
199
190
185
186
187
186
181
190
186
197
200
196
198
201
194
197
193
194
193
195
195
196
198
200
199
200
192
194
194
190
198
197
194
194
198
198
191
190
192
200
205
203
197
210
194
196
198
197
203
212
217
218
211
207
211
211
216
208
199
184
184
177
176
174
169
176
177
180
182
179
179
185
181
179
178
175
176
166
178
176
182
187
192
193
199
206
207
199
200
202
197
202
197
193
188
184
190
190
190
187
184
184
197
193
195
200
194
195
197
195
193
194
196
196
197
196
197
200
193
194
194
195
193
195
196
197
198
196
194
187
190
204
203
195
197
204
197
206
210
201
211
209
203
205
210
209
206
200
194
185
185
181
170
165
166
165
163
171
175
170
171
177
177
174
173
175
176
184
173
166
175
175
177
183
182
190
188
193
202
204
203
203
202
201
206
202
190
194
189
188
195
192
190
187
184
184
193
196
194
194
197
197
195
192
191
198
195
193
199
196
195
191
194
194
194
191
193
199
197
205
196
192
198
199
200
190
191
201
206
212
217
211
204
198
207
204
214
211
188
178
176
179
173
170
165
161
157
160
161
167
175
164
159
174
181
176
169
173
180
187
181
177
178
183
179
184
179
190
186
185
185
195
203
207
210
203
201
207
205
204
196
193
195
186
193
197
189
185
192
199
191
194
196
196
197
196
195
194
195
196
197
200
195
197
196
195
194
193
194
198
205
205
190
196
200
197
197
195
196
206
207
209
208
203
202
205
203
202
197
189
176
173
171
169
164
159
166
163
163
163
157
175
176
164
158
162
168
172
177
172
177
186
181
178
184
186
182
188
188
184
190
190
182
185
185
194
204
211
206
201
211
218
206
205
199
196
194
190
194
195
191
197
197
199
199
198
194
194
197
192
196
198
195
199
195
201
196
192
193
193
198
198
210
198
195
200
204
196
195
200
198
205
204
199
199
208
213
208
206
189
185
179
179
177
173
170
170
161
164
171
167
175
170
173
175
168
153
156
169
172
175
174
182
188
186
184
178
186
185
187
191
186
191
184
188
183
181
188
194
203
208
196
200
215
205
214
211
205
194
196
192
191
202
194
197
200
203
197
196
197
197
192
198
195
196
199
193
195
194
194
197
201
201
203
205
204
196
204
202
199
191
201
194
199
194
195
205
202
213
197
183
176
181
181
181
177
187
183
178
173
172
174
175
186
175
171
172
169
161
162
172
181
175
187
187
185
182
189
192
187
193
189
188
183
190
185
179
181
177
181
184
192
196
197
201
198
207
203
214
214
202
195
193
189
188
193
198
201
206
203
200
200
198
194
194
197
195
196
193
193
196
198
207
201
202
204
213
201
193
203
200
201
198
202
198
189
195
206
208
200
191
186
182
175
176
171
173
180
184
182
174
179
177
180
178
180
174
174
176
172
163
162
172
180
180
191
185
181
175
188
196
193
194
187
179
184
184
182
177
179
174
176
178
178
188
186
192
197
199
202
208
206
211
201
193
189
191
192
194
198
207
201
205
202
196
197
196
195
194
198
194
194
204
212
208
202
204
201
201
199
186
201
199
203
205
202
204
199
204
208
205
186
180
182
188
183
182
176
170
178
184
180
184
187
190
184
187
177
177
173
177
177
172
172
177
183
187
190
190
189
186
185
186
189
194
192
183
181
178
174
176
172
173
178
176
179
182
190
185
190
201
203
205
210
206
209
195
195
188
191
195
193
202
202
204
200
199
199
199
194
195
197
194
204
211
210
201
201
202
197
196
187
193
201
199
206
201
204
201
207
206
203
189
179
171
172
188
181
179
185
179
176
182
189
192
193
193
189
193
189
188
188
175
182
180
188
193
196
193
197
200
193
194
186
185
186
194
194
191
184
179
182
185
176
173
182
180
179
181
190
188
189
187
198
201
200
207
203
202
200
188
188
194
194
200
199
203
201
195
201
198
198
195
196
202
209
217
207
205
205
200
200
196
191
204
191
192
201
212
214
205
222
219
204
195
185
179
181
184
175
184
184
183
182
177
186
197
195
196
198
197
196
204
197
193
197
191
197
201
203
202
205
198
200
197
195
189
190
191
188
192
190
188
181
180
177
169
181
178
181
183
186
192
189
186
185
195
198
210
209
194
203
190
187
188
191
198
204
200
197
202
201
194
196
194
195
211
209
212
208
207
204
201
199
191
199
202
192
191
196
203
212
211
223
208
194
187
187
178
182
185
179
192
191
192
190
184
187
191
198
193
200
201
211
210
211
210
205
200
209
209
209
210
215
208
199
205
204
198
197
190
192
196
193
188
186
179
179
170
175
180
173
185
186
192
192
186
184
199
207
202
219
201
197
202
186
188
193
188
196
199
196
199
200
196
191
197
195
211
206
213
213
209
205
199
189
185
200
194
189
194
202
206
212
215
208
191
182
176
174
174
191
191
197
190
193
194
199
194
197
200
205
203
203
210
221
218
221
222
213
211
218
216
212
214
220
214
210
208
204
205
200
190
185
190
185
184
176
180
170
177
171
178
175
183
187
189
193
191
182
188
198
199
210
212
204
206
190
185
188
187
183
195
198
196
199
196
193
195
195
209
208
210
218
206
201
196
190
193
207
200
191
196
208
202
217
201
186
188
188
176
171
189
201
205
205
201
201
201
204
201
210
208
205
212
208
212
223
225
221
223
226
224
219
226
224
221
219
217
209
209
207
206
195
181
178
177
179
183
175
173
165
167
172
175
167
172
187
186
190
190
194
187
189
189
205
213
207
208
199
188
190
190
185
188
197
195
192
197
192
197
196
207
211
213
216
201
189
195
193
201
199
197
197
207
216
221
215
191
181
183
185
170
176
200
206
210
208
204
210
206
208
210
216
217
218
220
225
225
230
234
230
232
234
228
226
234
222
224
221
219
214
210
213
210
197
187
179
179
177
178
180
170
163
168
169
171
176
170
179
180
181
184
185
193
187
188
190
214
213
208
207
195
189
194
187
188
191
194
184
191
191
192
190
210
211
214
205
184
187
195
197
200
198
187
204
211
212
217
196
187
184
189
176
176
195
209
210
212
212
207
211
208
216
214
223
225
227
227
232
234
231
237
238
244
237
229
226
229
228
221
224
223
218
212
212
204
191
189
185
180
179
179
182
180
173
173
172
169
180
168
176
174
181
180
180
190
193
192
194
193
221
207
209
201
193
195
193
186
187
196
191
178
188
191
185
204
208
209
194
185
183
207
203
208
201
200
203
209
215
198
188
185
187
178
177
183
210
222
216
211
213
212
214
216
222
223
231
237
231
230
232
229
231
238
245
245
243
234
227
232
230
221
225
225
213
218
203
196
194
197
192
190
188
193
191
188
187
181
174
169
175
177
174
172
175
176
180
187
195
194
193
184
208
213
211
209
201
190
195
193
186
189
190
186
178
195
186
201
208
207
197
192
200
208
217
222
202
202
204
214
198
189
187
188
179
173
184
199
217
222
215
214
218
215
221
224
220
226
236
234
232
236
239
242
239
245
250
248
249
236
234
236
230
225
222
221
215
211
201
198
203
204
203
200
197
199
193
193
189
179
163
170
179
171
169
171
169
171
174
189
194
196
197
189
186
210
219
217
201
192
198
192
193
185
190
187
183
184
199
204
208
201
199
201
207
207
211
205
195
201
211
204
183
181
182
181
174
179
198
214
222
220
219
216
222
215
222
229
229
229
234
238
234
240
244
244
242
246
251
251
246
242
239
235
233
228
222
222
212
204
205
202
207
207
204
204
199
208
198
188
185
175
168
168
170
170
166
169
170
169
165
180
188
195
195
189
177
192
214
226
206
193
195
200
192
190
190
188
189
180
197
202
206
204
203
201
206
206
199
192
195
203
208
188
178
179
177
180
182
190
208
217
221
214
219
213
218
218
223
226
232
236
235
241
243
242
244
245
246
246
251
248
246
244
234
229
231
228
223
220
214
202
211
206
205
205
202
197
199
203
197
179
182
177
176
172
172
170
171
168
173
163
164
164
175
184
192
187
177
173
201
226
216
199
196
195
201
192
193
192
194
181
188
197
214
205
202
200
199
198
194
191
194
206
196
174
174
173
179
189
189
203
207
216
206
218
216
208
213
221
228
234
232
236
238
241
242
244
243
242
245
244
253
251
250
244
240
233
233
231
223
221
216
208
211
212
211
210
207
203
204
205
196
181
180
175
176
177
175
176
176
173
173
170
164
164
167
179
187
192
181
179
191
221
227
202
204
197
204
197
194
195
201
181
188
205
215
208
196
204
198
195
189
191
191
206
182
172
169
177
186
193
199
208
206
209
206
214
209
207
212
223
229
227
232
236
241
241
245
244
245
246
246
248
251
245
246
242
239
232
233
224
219
218
216
212
213
213
209
210
209
202
204
200
195
188
184
185
178
181
175
184
178
179
176
168
165
165
170
177
185
191
188
180
190
213
232
210
197
201
200
195
196
190
200
192
182
211
218
204
193
193
190
189
177
178
203
203
168
174
167
188
190
200
207
204
203
204
203
206
207
207
212
218
227
228
231
236
243
242
244
244
242
239
243
245
245
243
240
238
238
231
234
221
218
216
215
210
211
209
206
208
203
201
198
197
194
189
189
186
180
182
177
180
182
186
175
170
163
165
168
178
183
190
188
181
182
198
227
222
199
200
203
188
190
194
198
190
190
208
210
187
192
170
183
180
176
188
211
194
173
173
180
195
203
206
203
202
200
203
201
198
203
208
210
212
221
217
226
235
239
238
237
237
235
235
235
240
238
238
237
236
233
227
228
220
217
216
211
212
207
207
198
204
198
196
191
196
192
187
187
186
186
182
177
178
185
186
180
171
165
164
167
176
178
185
188
178
180
191
220
228
204
195
202
192
179
193
198
186
185
208
204
180
177
157
166
171
178
197
206
177
175
169
182
205
210
210
204
204
201
202
197
192
195
206
204
203
210
211
222
229
228
228
227
232
226
230
233
232
231
232
237
231
226
222
221
221
214
214
213
214
205
207
204
204
203
198
193
193
194
191
193
193
191
187
181
180
180
186
187
176
172
160
171
167
176
180
184
187
177
182
210
222
214
190
192
204
184
179
195
187
180
205
197
190
169
162
156
174
180
193
192
167
167
168
191
207
208
214
209
206
195
200
192
196
192
196
199
196
205
209
212
216
215
221
223
224
221
226
229
227
226
227
230
228
219
220
220
221
214
211
211
211
209
202
204
206
202
198
195
196
193
190
193
191
187
186
183
179
175
174
184
181
180
173
164
168
174
185
176
183
184
181
201
221
213
208
196
198
190
177
181
190
179
202
195
193
177
172
163
179
174
192
180
164
167
175
192
204
209
208
206
196
192
199
195
195
188
187
194
194
195
208
207
209
211
215
215
215
217
218
221
220
216
218
223
222
218
212
216
216
214
209
205
207
202
199
201
207
196
195
198
193
191
193
183
182
179
175
177
173
168
167
172
185
184
184
171
172
167
185
177
176
180
183
198
215
204
200
211
201
189
179
184
188
188
193
191
191
178
181
181
174
171
193
177
164
170
179
184
194
203
200
197
189
191
195
190
187
184
187
189
187
196
204
208
206
207
207
208
208
211
212
214
216
205
209
211
217
214
203
207
211
212
206
198
200
202
197
197
198
194
190
190
188
184
185
176
171
171
169
172
166
172
168
161
178
184
187
183
174
171
180
182
177
183
179
195
207
203
197
209
196
198
180
186
184
192
186
190
192
174
186
195
168
170
188
182
178
166
172
177
188
190
190
188
183
186
185
180
180
181
184
181
182
190
200
198
197
200
195
197
200
202
202
204
205
199
200
205
209
209
203
199
205
203
200
193
196
200
198
193
187
193
190
189
184
184
181
175
171
169
169
172
164
170
174
170
167
175
182
192
181
171
175
183
176
179
183
189
206
204
199
204
197
193
199
179
183
186
188
195
183
181
184
195
179
161
185
193
178
163
164
172
179
181
189
187
178
179
176
169
169
171
171
169
174
179
186
184
182
186
186
183
184
193
193
197
195
190
192
199
199
205
200
193
197
198
197
190
192
199
201
192
189
191
186
188
183
185
177
171
171
171
172
173
171
170
168
173
171
173
179
189
181
175
174
178
179
170
174
191
201
199
191
205
198
194
213
194
184
191
186
199
180
181
189
188
184
159
188
189
164
149
155
164
173
180
184
183
180
178
170
160
159
157
160
162
163
165
170
172
169
176
173
174
176
180
183
186
193
184
187
198
199
204
197
193
197
192
199
192
197
203
197
183
185
188
187
185
181
180
173
169
169
171
172
172
171
173
175
170
177
181
182
182
181
182
171
175
178
180
172
178
205
203
188
210
203
213
219
202
192
200
197
203
186
187
181
183
188
172
182
180
154
147
149
156
168
173
177
178
170
169
158
151
148
142
142
144
151
153
162
169
169
172
170
169
171
175
176
179
188
188
185
194
203
206
200
204
203
197
198
196
199
206
194
183
185
188
187
193
191
189
184
183
177
176
181
177
178
177
183
177
175
183
188
183
187
181
185
176
173
183
180
188
201
197
196
204
201
221
222
207
201
202
196
205
186
187
177
175
180
180
188
179
158
146
144
164
172
176
179
177
171
158
144
147
140
134
133
138
143
143
148
153
153
157
159
164
165
172
175
175
186
189
186
193
198
205
200
200
203
200
197
197
196
200
193
185
186
189
192
197
199
199
199
193
191
189
188
184
182
181
189
180
180
182
185
192
190
192
184
185
177
167
184
188
204
202
198
204
215
220
213
213
204
199
200
201
188
181
186
175
174
193
195
165
152
144
144
166
176
177
174
166
159
147
145
146
148
142
143
143
150
158
153
156
157
158
159
168
164
170
176
175
184
191
193
201
201
204
205
205
207
204
197
198
198
191
189
182
183
183
188
189
190
194
192
188
188
185
187
189
184
190
193
190
185
185
183
188
197
189
188
181
187
171
170
195
202
197
198
207
221
215
211
209
201
200
197
183
191
191
197
183
191
198
190
163
150
145
145
168
169
166
166
157
154
154
155
158
158
154
162
162
160
165
173
177
183
184
178
182
179
173
175
173
181
187
192
199
205
209
208
207
208
203
200
192
191
189
189
187
187
184
189
191
193
195
197
189
185
181
183
185
183
187
197
196
194
195
191
192
204
197
192
180
176
180
170
186
204
190
197
205
216
209
204
210
196
190
189
182
202
198
199
183
218
196
182
165
164
140
152
165
164
167
172
159
165
164
173
176
176
181
180
180
181
180
181
186
194
189
178
184
181
182
177
173
177
184
189
194
204
212
208
210
207
202
195
193
191
190
189
193
166
169
196
197
195
189
196
183
182
178
178
172
172
172
180
183
185
183
180
178
184
193
197
189
183
173
177
180
193
196
198
196
210
207
206
202
194
189
187
190
198
207
186
190
215
194
182
168
163
145
155
167
168
171
180
170
180
180
190
196
196
191
187
179
179
172
163
166
171
159
146
161
163
183
188
191
195
198
200
197
202
211
206
208
202
201
196
197
195
194
189
188
176
181
191
188
178
195
197
171
179
160
166
164
162
164
164
168
173
174
173
175
180
185
192
183
186
184
170
181
182
190
195
198
201
204
209
199
191
200
190
199
197
206
176
197
197
193
185
167
160
157
152
166
171
178
183
177
184
199
209
216
204
190
184
180
185
185
181
198
196
189
183
186
188
187
186
192
194
197
212
204
195
200
197
200
199
196
193
199
198
197
202
195
196
191
181
194
189
194
187
163
186
159
161
166
164
174
159
167
163
164
162
163
170
176
181
177
183
195
184
167
180
192
194
189
198
198
207
203
194
198
195
204
199
195
176
185
185
180
181
168
168
166
156
177
176
180
181
187
200
209
200
194
185
170
170
179
192
196
185
200
183
168
202
193
203
199
191
192
193
192
197
217
208
199
200
198
197
201
197
194
194
205
210
206
201
193
196
202
202
198
196
204
199
192
186
192
195
193
180
173
179
176
175
175
170
177
181
176
191
203
206
179
167
188
195
185
193
199
198
204
203
205
192
214
196
189
178
177
172
189
177
182
167
181
168
181
175
177
193
186
184
177
173
177
178
166
166
176
186
187
170
177
166
149
182
189
204
206
200
192
195
197
205
208
220
200
199
204
205
209
199
189
200
191
211
199
199
205
204
210
212
211
217
236
228
221
215
218
218
213
201
188
195
198
203
193
190
181
178
181
187
209
215
201
193
168
200
180
199
201
191
207
208
210
182
214
197
183
185
182
169
177
180
193
169
184
188
183
177
210
197
176
176
173
174
177
175
167
173
190
175
176
183
180
184
181
188
195
208
214
214
202
206
194
205
222
194
197
206
210
212
223
210
209
222
208
208
213
218
220
214
216
220
217
225
237
231
226
238
219
223
235
205
200
174
202
211
208
213
217
200
180
183
198
199
212
204
151
195
187
203
203
186
200
209
216
189
196
193
190
187
190
170
168
181
208
183
197
206
194
192
194
177
160
154
159
163
149
161
151
175
199
194
206
212
215
218
220
236
220
222
229
229
223
225
216
207
223
200
212
234
215
210
224
222
217
233
222
208
220
233
225
212
217
225
227
225
239
214
210
234
224
241
241
216
208
180
205
214
227
238
245
224
215
192
192
205
222
195
155
181
200
216
202
187
195
209
218
194
183
199
174
208
197
180
175
185
203
197
217
201
183
199
175
182
155
149
160
157
152
168
177
199
204
208
206
221
228
235
233
237
230
231
245
232
224
228
221
212
216
221
238
235
223
211
216
219
226
220
228
208
217
219
212
212
223
230
239
229
243
226
210
222
225
233
228
223
205
197
210
220
231
243
250
230
229
206
193
212
227
203
164
176
196
222
202
194
188
206
214
196
189
214
164
198
193
188
175
191
178
221
217
193
170
198
194
194
163
157
174
170
174
188
197
174
183
202
179
200
210
216
205
216
216
213
227
208
205
203
195
198
189
213
232
222
218
206
203
219
215
215
234
218
208
213
202
209
215
214
211
209
229
213
209
207
210
207
209
219
209
202
204
202
213
228
236
233
222
201
194
220
225
198
195
177
188
202
210
200
185
202
204
189
193
212
201
188
181
185
180
190
178
224
196
196
168
179
207
212
176
174
188
187
195
194
180
145
151
188
186
202
198
193
178
198
211
213
224
192
197
187
183
205
181
217
238
204
179
181
183
190
196
195
233
226
203
215
224
207
202
209
193
189
210
202
195
196
204
196
196
203
202
197
191
188
202
217
225
222
215
197
194
228
222
191
217
182
185
195
207
204
200
202
204
169
188
206
219
207
185
192
177
199
184
192
162
196
215
187
191
206
176
179
184
192
200
208
194
182
183
185
176
191
185
175
181
189
200
211
210
188
188
176
189
186
195
210
235
190
179
183
178
187
186
172
207
222
195
208
211
201
199
202
186
169
182
182
184
196
197
202
193
197
215
201
195
202
197
206
217
214
207
205
205
218
219
194
209
191
188
205
208
217
213
220
201
154
174
199
210
213
184
197
148
191
193
194
154
193
229
197
207
210
171
177
182
186
190
201
194
173
181
170
164
163
166
169
184
192
181
190
187
179
183
167
177
178
208
226
212
186
180
181
175
176
176
165
179
210
204
200
174
180
186
195
188
174
167
162
169
178
172
162
168
178
189
199
190
198
195
209
214
217
211
214
199
195
222
185
215
185
190
213
225
219
225
224
201
164
173
200
204
206
199
195
167
187
196
216
182
203
216
184
206
206
168
182
182
173
189
185
186
174
169
153
147
142
144
175
181
181
169
176
165
170
168
170
181
186
214
240
187
189
198
197
186
186
180
170
175
192
230
191
171
182
180
194
184
173
155
158
159
167
153
145
148
155
158
188
184
188
193
200
201
206
212
218
225
183
228
181
208
202
196
200
222
228
233
222
193
167
172
207
200
204
189
178
177
190
200
206
210
198
197
183
215
201
173
180
173
168
166
167
160
160
159
164
160
165
156
171
179
154
173
154
161
155
160
169
178
191
221
237
179
180
185
183
182
183
173
173
189
184
215
202
185
177
168
171
172
156
139
150
154
166
155
157
149
142
142
170
177
175
173
178
187
184
207
209
225
201
225
179
215
213
199
200
218
217
231
222
189
164
175
208
203
201
199
176
178
199
202
207
196
192
193
187
208
199
165
163
154
151
156
143
140
140
148
153
151
150
153
170
167
167
154
152
148
155
158
162
172
178
232
216
183
192
193
194
192
196
179
171
173
185
185
206
176
152
146
159
163
168
148
139
139
148
154
156
155
140
143
147
166
163
164
167
163
168
189
199
210
204
208
171
215
206
210
203
214
213
228
227
185
153
190
216
214
193
209
181
189
199
204
212
190
181
188
201
214
198
169
173
171
174
172
153
146
142
158
152
143
147
146
153
164
156
144
141
144
150
148
156
162
164
222
188
182
179
185
205
181
188
184
170
173
188
171
198
186
160
153
158
163
170
150
136
137
152
160
151
149
167
155
157
152
165
175
174
164
166
182
191
195
222
204
162
210
196
221
211
212
216
226
220
191
147
194
202
217
181
195
192
210
196
197
212
194
191
198
213
206
184
169
186
185
184
178
173
165
168
179
167
157
162
162
154
169
158
138
144
141
148
143
156
149
177
218
188
188
181
194
189
182
186
191
183
178
194
182
190
203
165
154
165
165
169
148
138
144
139
158
150
144
154
166
170
163
162
183
178
170
176
180
193
193
238
188
176
205
207
232
218
215
226
220
217
202
157
195
195
211
172
178
188
217
213
197
204
209
205
199
211
210
185
178
187
182
179
171
156
167
176
189
174
170
163
163
166
152
151
152
152
156
157
152
160
148
209
203
185
186
184
192
169
176
190
188
186
172
188
205
189
203
182
158
175
168
171
142
137
145
134
154
155
152
147
157
165
161
159
171
182
181
185
193
201
211
234
178
187
219
204
231
223
216
236
204
214
208
160
196
202
202
184
165
176
216
235
197
204
220
206
202
181
221
186
177
189
180
179
177
173
171
177
183
172
172
171
171
177
141
151
151
159
155
152
154
148
157
207
177
183
173
183
177
163
178
184
188
193
171
191
211
190
193
198
171
167
162
167
157
147
146
145
153
154
156
145
145
150
152
158
165
180
192
195
189
202
238
207
181
195
225
207
216
217
212
235
190
213
206
164
186
195
201
194
181
176
189
221
209
200
221
207
195
162
237
185
179
189
178
176
169
165
160
163
161
157
153
162
167
153
154
150
152
152
160
147
148
140
185
194
169
163
162
173
176
163
174
175
184
207
187
198
211
182
195
187
190
168
164
161
167
156
146
146
151
141
146
145
149
145
162
163
163
173
185
202
192
215
230
186
178
191
217
193
213
198
206
220
203
206
197
173
187
199
202
213
203
191
177
216
214
197
206
204
185
154
205
215
177
187
186
180
176
175
175
173
168
169
165
173
164
158
173
163
157
159
173
156
138
178
178
183
171
165
166
164
171
170
168
167
191
203
211
212
207
180
180
186
186
185
175
174
165
161
154
148
145
145
147
155
158
159
155
170
176
175
190
216
223
225
198
184
177
179
210
184
208
184
199
196
199
201
190
188
194
212
200
222
222
207
207
237
224
179
201
193
178
167
168
237
190
189
190
186
187
178
194
194
182
190
174
172
169
165
179
176
176
164
175
170
177
200
185
175
156
170
169
158
168
170
170
176
181
195
215
208
211
202
186
190
184
200
201
197
188
178
174
165
159
151
156
163
167
175
175
187
193
197
202
205
212
225
191
180
175
182
182
168
201
190
184
194
198
189
189
187
214
211
203
193
212
224
227
232
225
191
201
200
165
181
161
222
231
185
190
185
186
187
200
212
199
188
173
171
177
178
191
186
186
171
172
177
188
180
174
158
147
171
167
160
167
166
168
176
175
199
217
205
205
210
201
202
190
194
192
210
203
210
204
195
188
185
187
188
197
196
196
200
196
192
196
191
200
213
192
183
170
179
167
159
186
200
170
177
193
190
191
183
227
210
198
191
194
222
229
224
220
196
200
205
179
183
166
177
215
216
187
187
183
182
188
185
187
170
169
179
180
183
189
189
190
195
202
185
183
176
167
153
150
173
178
163
164
163
160
174
175
192
201
200
199
218
215
200
192
183
190
199
203
204
210
208
198
198
203
208
202
194
199
195
192
189
193
188
192
202
191
182
168
166
160
148
171
191
172
185
183
193
193
174
229
217
189
194
196
198
221
219
228
182
211
214
186
176
182
166
188
198
209
204
199
197
199
187
194
181
183
199
195
194
205
210
221
222
192
185
170
173
171
157
142
178
190
167
164
156
163
168
187
177
184
185
194
212
225
207
203
183
185
199
210
192
203
207
200
196
199
205
198
195
189
189
191
191
191
185
195
191
192
169
169
161
150
143
165
172
174
181
180
191
194
177
217
226
184
197
203
192
216
217
226
188
200
222
202
179
192
180
173
185
183
182
181
196
204
207
201
198
202
213
202
196
209
223
213
210
199
188
157
173
173
160
158
183
188
182
168
157
168
176
183
186
174
168
184
222
229
223
202
201
190
195
209
203
196
189
193
185
188
195
194
203
190
186
187
193
192
193
188
188
193
169
172
151
148
164
158
165
173
189
173
200
191
187
223
231
185
211
210
204
218
213
206
191
202
213
177
194
194
200
184
173
177
188
180
180
194
196
194
192
202
215
211
205
207
205
215
213
204
185
166
174
183
178
172
193
201
205
179
158
167
176
178
182
176
161
204
227
216
231
209
205
204
195
215
198
199
196
182
181
187
195
198
210
199
197
195
197
199
197
183
186
195
178
181
149
163
156
147
164
172
187
171
198
188
179
227
243
191
213
222
215
218
214
200
189
197
201
173
176
184
194
196
190
180
187
187
185
193
192
191
192
197
203
198
200
206
216
218
212
200
194
179
188
193
196
200
202
208
214
170
159
166
176
187
179
168
162
199
219
219
216
223
209
213
220
228
202
199
196
192
189
190
196
207
211
200
209
210
206
203
194
180
188
209
191
176
160
166
149
153
155
173
182
176
200
186
182
211
251
196
199
222
221
214
209
199
192
190
189
172
176
179
179
181
186
189
189
187
188
188
182
180
184
187
196
196
203
212
220
215
208
197
192
189
197
198
206
204
186
181
185
183
162
163
178
195
182
166
174
183
192
208
214
205
206
221
224
224
213
212
206
206
203
206
212
208
207
203
201
205
214
215
200
197
198
207
190
172
186
167
160
148
157
165
176
191
198
184
183
205
255
213
200
216
229
204
209
199
201
190
182
173
177
179
179
183
183
181
182
184
187
195
199
203
211
212
212
216
220
220
221
210
202
195
182
197
201
193
196
186
180
184
191
195
185
175
180
198
188
192
189
196
206
207
213
215
218
222
228
215
206
215
217
222
217
216
220
219
218
221
215
210
203
222
209
197
183
198
184
170
185
169
165
151
150
167
184
203
194
176
192
204
246
228
192
219
223
197
212
199
208
197
186
173
175
178
183
182
182
177
182
186
186
195
204
209
216
211
209
216
220
216
205
202
196
191
182
200
193
186
182
186
192
203
215
206
191
193
195
201
203
205
198
203
214
223
216
207
215
216
223
224
218
214
215
218
221
216
222
229
222
225
220
207
203
200
212
197
175
201
195
172
180
180
172
152
147
176
195
214
187
172
200
210
239
238
203
222
235
192
205
194
202
200
188
172
176
175
179
179
172
171
176
181
186
197
210
215
207
206
218
226
225
215
207
199
192
186
198
199
189
180
191
196
198
216
219
206
186
200
200
201
209
206
199
208
220
225
211
207
206
196
206
215
221
225
227
223
220
218
221
225
219
220
220
215
206
188
187
197
183
207
191
171
182
189
180
159
158
190
204
212
182
180
198
208
231
231
217
219
237
201
202
191
196
199
184
174
176
175
182
176
168
175
175
182
200
212
203
201
211
220
228
223
224
211
208
192
192
192
199
200
179
183
195
210
201
218
207
201
186
205
195
195
204
211
198
218
227
229
201
202
207
196
198
209
215
217
219
231
235
231
235
234
230
224
223
229
215
194
188
207
186
199
185
163
174
194
180
164
159
197
209
202
178
183
193
197
218
227
228
228
233
205
217
196
198
195
176
173
170
174
168
170
167
171
178
188
214
189
195
209
220
224
220
220
221
212
207
200
198
191
200
200
186
188
190
210
209
200
198
203
183
200
175
181
190
201
191
199
205
200
194
193
202
187
191
190
215
217
212
219
221
232
227
234
232
227
229
220
209
198
190
200
188
194
176
162
176
192
180
160
161
198
199
192
181
183
185
192
197
225
229
231
238
214
213
202
202
203
178
179
170
176
172
177
169
177
184
207
199
186
213
222
219
213
217
218
224
211
217
213
200
195
197
199
196
203
190
204
201
193
190
194
188
200
176
174
191
189
187
189
194
180
182
188
190
179
190
179
197
209
211
211
225
227
222
227
229
224
224
216
214
198
198
200
195
191
180
175
184
181
174
155
158
199
187
187
182
179
179
186
190
205
227
226
229
218
222
202
201
202
185
174
176
170
177
179
176
186
198
214
194
203
221
213
212
211
224
223
221
217
225
219
216
204
198
194
201
215
186
203
203
203
194
201
198
205
197
192
191
199
198
199
204
195
183
186
190
177
185
178
184
197
204
205
214
223
220
220
228
221
226
217
215
207
196
201
203
186
187
196
194
182
164
143
172
188
186
189
184
172
175
177
180
203
221
222
219
212
230
212
202
213
199
172
178
170
180
178
180
184
195
205
191
203
211
214
211
218
233
219
218
226
220
214
217
213
186
188
194
204
189
193
208
218
203
207
208
214
202
201
192
186
197
204
208
207
195
189
189
167
177
177
171
193
191
210
209
213
214
216
224
221
223
216
223
210
202
203
198
182
190
204
201
181
157
163
183
176
192
187
183
171
173
180
177
194
205
230
210
203
224
218
207
211
205
176
174
173
183
181
182
182
189
200
192
204
219
213
216
226
225
218
221
224
218
214
209
206
184
184
193
203
199
190
201
207
213
209
211
213
208
213
213
204
200
208
210
198
193
193
183
165
176
173
166
182
196
196
212
208
208
213
219
218
217
215
222
202
203
203
196
190
199
201
193
177
165
169
173
181
199
186
179
173
181
183
176
181
200
226
222
191
208
212
207
197
211
187
180
171
182
178
183
179
176
192
195
213
219
216
221
230
222
221
228
218
209
206
207
204
192
199
197
215
205
195
200
196
211
211
206
212
195
203
202
193
197
206
199
195
188
192
184
180
181
168
169
177
191
197
208
208
205
213
220
212
212
214
217
207
192
202
200
188
200
187
181
167
160
168
177
189
197
188
172
179
190
186
184
173
194
213
223
196
199
206
201
193
216
184
170
168
178
181
177
179
177
197
207
211
220
222
222
228
221
218
224
212
197
204
207
199
197
208
203
215
200
194
200
192
205
209
201
197
186
181
183
181
183
183
185
181
179
178
178
178
182
176
180
177
189
194
204
217
209
208
211
212
213
212
217
210
199
194
202
185
205
191
186
170
177
176
184
197
197
183
168
179
189
194
185
178
185
202
205
190
195
196
196
193
210
183
168
175
174
184
176
180
183
201
199
206
217
221
220
220
210
212
217
204
198
206
211
210
198
206
193
196
179
189
186
181
183
187
177
169
161
159
167
173
174
167
171
167
160
161
165
159
167
175
180
183
192
190
200
212
215
208
202
209
209
209
215
210
206
194
186
199
218
202
190
174
186
186
187
203
194
178
169
181
187
190
181
187
185
198
197
172
193
190
197
188
206
188
167
173
171
187
180
180
191
195
190
205
209
219
218
205
208
213
199
206
204
207
213
209
195
189
174
172
163
159
164
163
172
172
159
154
149
156
166
170
167
171
165
160
153
147
148
141
156
169
180
183
190
202
190
199
212
204
198
203
205
206
215
206
209
197
179
205
213
204
183
180
184
187
197
195
181
177
174
182
191
184
187
188
187
198
208
183
173
189
195
193
197
185
175
178
164
179
187
187
194
184
192
190
208
210
203
204
205
204
196
197
194
205
198
178
169
161
153
150
142
138
147
160
173
161
159
155
148
163
171
173
169
164
159
152
147
150
151
153
164
172
188
184
189
203
194
192
203
198
189
194
200
207
214
203
210
203
174
218
209
203
183
176
183
192
201
184
170
180
182
180
185
189
188
190
191
205
217
199
164
174
182
189
189
181
174
175
165
183
185
191
193
184
196
186
196
193
188
196
199
191
191
185
182
187
177
164
162
150
148
143
139
131
148
159
167
163
157
154
149
157
163
168
172
158
149
150
150
157
154
162
180
182
182
183
185
191
194
186
195
191
190
193
191
212
219
209
209
206
175
199
200
198
183
179
191
197
192
180
175
183
184
182
185
186
185
184
199
217
210
211
178
172
179
182
178
176
178
179
167
181
185
188
201
191
192
198
198
191
192
182
187
182
181
177
173
169
169
168
169
157
163
150
157
147
153
169
175
170
172
157
154
158
167
172
168
157
147
150
154
158
157
169
178
182
179
184
181
179
194
181
188
185
182
199
191
205
220
217
218
202
184
187
196
199
174
182
196
189
184
181
182
185
189
185
184
183
180
182
194
218
217
214
188
179
184
184
188
179
186
177
171
182
185
194
203
197
198
205
212
211
206
186
188
169
178
174
168
169
182
176
176
174
174
156
159
165
153
159
162
164
157
157
162
160
160
167
163
154
150
152
163
163
166
162
174
186
190
183
188
177
187
185
188
182
188
200
195
203
216
216
218
203
186
197
209
198
174
184
192
184
183
181
180
185
190
189
186
187
179
180
195
209
214
210
201
179
180
181
193
186
184
187
182
180
186
197
200
203
207
207
212
213
219
205
202
176
187
181
181
186
192
186
181
191
182
169
168
164
156
158
152
153
148
156
152
158
151
150
152
149
161
159
160
170
175
175
186
197
201
194
188
184
183
188
192
184
194
196
205
206
207
211
213
198
185
202
208
190
168
181
184
185
181
181
178
182
192
189
183
185
178
184
185
198
214
206
210
182
180
187
187
190
185
192
194
183
184
202
209
212
213
215
213
212
207
218
201
199
204
196
193
185
185
186
190
200
198
188
182
168
151
158
162
165
156
166
161
158
162
153
156
152
154
148
149
167
174
187
204
197
213
198
190
188
186
188
202
190
197
198
202
217
200
209
209
194
187
200
203
182
169
185
175
183
177
178
185
185
191
194
187
184
185
182
174
185
210
211
207
196
176
184
184
182
196
195
196
192
190
199
218
222
216
226
218
224
213
227
205
207
215
217
192
181
185
186
187
201
201
202
203
191
189
196
206
197
177
173
168
158
164
160
156
151
164
162
175
183
183
199
202
201
200
199
192
194
196
189
203
196
197
196
210
213
206
210
202
187
193
201
195
172
174
181
177
184
170
182
177
183
192
193
183
189
186
177
174
171
202
205
206
209
185
182
190
184
192
197
191
197
201
200
216
227
215
229
225
236
223
234
223
221
220
232
206
195
194
192
181
194
191
208
219
225
217
223
223
222
216
215
206
191
175
188
181
184
187
189
203
209
203
212
210
207
201
195
199
197
205
198
205
194
196
200
204
210
208
207
199
186
190
197
183
172
177
179
180
173
173
181
184
179
192
192
188
187
188
173
173
166
199
198
208
207
193
185
190
190
186
193
194
193
199
197
214
230
219
232
224
249
235
227
238
224
220
232
230
224
214
212
197
211
209
216
225
241
235
241
237
243
237
239
229
206
195
199
191
191
201
199
213
211
205
206
213
209
207
205
204
197
209
201
208
197
198
208
209
211
203
206
199
183
194
191
176
169
174
174
176
176
179
178
185
181
198
192
194
189
190
181
182
176
194
203
199
204
204
183
190
187
178
188
199
193
197
194
208
214
210
228
216
240
219
222
227
218
202
205
218
218
222
225
205
199
216
205
209
225
217
211
214
216
203
205
203
197
188
185
188
188
199
199
199
207
207
209
201
202
209
200
200
204
201
209
206
198
210
208
212
208
201
204
204
192
200
196
169
178
187
177
184
177
184
186
186
191
193
193
205
194
192
192
189
195
187
205
200
185
200
182
181
186
172
179
199
193
195
192
205
205
207
211
207
223
206
214
219
205
198
196
200
205
210
208
204
198
199
186
185
191
181
178
176
169
177
182
174
182
183
165
171
175
184
190
186
191
194
201
190
204
192
192
194
199
202
211
207
208
220
207
218
201
199
212
201
196
201
186
168
170
187
187
183
184
187
195
193
193
197
205
203
191
189
193
193
203
189
196
202
187
185
177
176
174
176
175
192
195
192
192
209
204
207
209
194
220
196
206
218
200
194
187
182
192
195
191
190
191
196
184
180
188
178
174
173
172
169
166
167
159
165
153
152
156
173
187
193
188
192
199
194
198
192
197
198
192
204
218
203
220
222
209
217
201
204
205
197
199
199
175
174
166
181
186
185
184
185
191
197
195
200
203
200
192
190
196
197
204
189
191
204
198
187
173
183
164
174
175
190
198
195
201
205
205
205
214
204
216
202
216
211
193
199
188
174
188
189
188
179
182
194
181
179
178
170
163
154
154
151
146
157
153
150
150
146
163
173
192
197
187
187
189
198
204
203
207
199
193
203
215
205
215
219
209
200
201
217
206
192
200
193
176
175
176
172
187
184
187
188
194
194
197
196
198
202
193
196
203
199
198
191
185
208
210
183
173
177
166
170
180
192
202
196
204
202
207
200
213
206
216
213
218
226
202
201
205
175
196
195
189
188
190
197
183
184
181
168
162
154
156
158
145
155
153
161
159
161
181
188
188
194
194
195
195
203
205
210
210
203
196
205
212
208
213
216
207
192
205
225
213
199
196
183
184
176
178
178
179
185
187
191
192
196
201
198
197
200
205
201
205
203
194
193
196
204
214
184
174
173
167
182
177
181
208
198
205
206
198
201
204
208
208
217
218
230
218
218
216
189
210
209
218
209
205
199
200
196
189
173
171
172
172
177
166
173
171
175
180
174
191
196
199
192
204
207
209
206
206
213
209
208
210
210
209
212
218
204
204
206
206
229
216
203
201
183
185
182
176
177
182
181
186
192
188
194
211
203
196
209
207
206
204
203
197
195
198
196
207
193
163
170
178
177
173
183
203
203
200
201
190
205
198
213
201
216
207
225
211
228
215
199
208
231
234
229
228
214
220
201
198
196
189
179
189
188
181
184
184
180
194
194
179
204
208
195
199
211
208
207
211
207
201
211
209
209
206
207
210
208
208
206
216
217
213
207
209
177
185
181
181
176
178
187
187
193
190
195
213
210
200
213
211
202
202
196
197
196
196
198
201
202
173
171
176
171
182
180
201
196
210
204
199
196
206
209
203
217
203
224
213
225
214
218
203
229
238
234
240
224
222
208
210
211
202
196
201
204
180
195
193
193
202
197
190
202
207
191
196
210
203
212
214
204
201
209
208
203
206
202
209
210
224
199
209
221
204
209
207
188
173
179
190
186
183
194
186
190
190
193
212
213
209
216
208
203
200
195
194
193
194
205
217
208
184
169
162
172
186
180
198
195
211
204
193
185
206
202
202
215
201
224
218
221
211
222
208
220
234
231
240
231
220
225
233
228
220
214
223
218
198
211
204
204
199
195
201
199
205
202
205
209
202
216
215
205
203
208
206
205
196
202
217
212
230
209
191
212
217
205
208
196
172
170
189
191
190
200
196
186
186
196
207
215
214
216
205
204
200
198
197
194
204
227
229
208
175
157
155
161
181
184
195
198
203
196
190
186
199
196
199
205
199
210
221
211
210
213
205
217
218
227
235
224
214
223
229
231
217
225
224
219
202
213
208
211
204
201
209
202
210
211
210
214
207
222
213
208
199
207
205
204
195
211
218
221
233
211
175
197
220
208
194
195
193
174
182
189
189
203
197
192
185
200
208
213
213
219
210
207
203
201
206
208
217
229
235
197
168
162
149
153
164
198
187
203
199
199
192
195
185
186
198
196
195
207
208
209
207
208
198
207
219
220
222
231
216
214
220
218
210
221
219
216
211
207
212
207
200
210
208
209
208
209
212
214
215
218
218
205
206
199
198
206
208
216
229
215
234
194
174
201
221
204
196
183
205
185
186
189
189
205
205
192
192
197
209
209
213
223
219
213
209
210
211
211
219
220
231
190
167
166
146
149
158
185
188
197
193
210
197
198
180
175
193
182
195
200
196
208
200
206
199
203
214
215
216
226
212
205
214
219
215
211
214
219
209
204
214
205
201
215
202
217
206
210
217
218
226
217
221
207
206
201
197
204
220
215
223
218
225
189
181
193
223
199
191
189
204
189
196
190
199
208
206
196
193
201
205
199
204
222
219
211
212
211
211
204
208
208
219
181
174
167
135
143
162
178
183
196
203
209
213
194
190
158
183
183
190
193
187
202
195
206
204
192
208
214
217
207
210
199
204
220
210
198
217
214
205
205
213
205
213
213
207
217
210
216
220
219
225
207
216
212
195
197
207
215
222
217
211
228
218
186
195
185
200
202
190
185
194
196
205
191
202
204
206
200
206
208
204
207
202
222
221
216
205
202
206
199
205
210
210
171
165
180
139
136
171
174
169
207
211
217
212
205
190
165
169
177
184
178
176
192
194
194
199
189
203
217
203
201
200
190
206
223
205
197
216
215
198
206
208
213
213
221
210
216
212
212
215
215
214
207
205
209
192
210
212
217
220
214
207
233
218
186
195
183
190
200
196
188
182
188
202
201
204
208
208
199
207
214
217
214
220
219
219
205
192
205
209
194
208
202
203
169
173
172
149
140
167
170
185
203
217
221
210
214
199
173
167
168
171
167
178
180
196
183
194
196
203
207
188
201
191
190
208
219
197
196
216
209
200
206
214
208
215
212
210
207
208
207
214
204
201
209
205
193
200
215
212
220
200
207
220
235
223
185
194
181
190
198
193
188
194
179
197
204
205
215
214
208
206
212
214
219
213
213
208
194
197
214
215
198
210
204
192
180
176
168
140
158
168
180
188
190
224
223
221
211
207
176
173
174
147
158
168
175
190
183
184
195
195
191
176
182
188
199
194
212
193
195
206
196
205
207
207
205
212
202
201
202
194
202
207
200
197
207
209
188
199
215
208
216
188
204
232
240
227
185
197
178
196
205
192
182
198
184
195
207
206
213
215
205
212
210
214
219
214
204
202
201
204
217
217
203
207
200
184
187
159
165
137
156
188
199
173
194
211
227
234
217
212
186
188
167
146
150
157
177
175
180
183
183
183
166
172
178
189
194
195
192
190
196
194
194
203
202
201
205
198
203
196
195
190
201
190
198
194
205
202
201
194
208
209
207
196
204
237
242
222
181
193
179
179
204
207
189
187
185
202
209
213
212
214
207
215
208
215
216
215
203
199
197
198
213
206
214
205
197
184
181
162
166
137
160
193
198
174
185
206
220
245
229
207
207
185
164
169
136
161
153
174
175
173
175
171
156
178
177
183
182
184
174
191
193
189
190
194
192
200
191
193
197
200
188
190
193
189
201
189
201
199
201
188
202
200
213
189
215
241
238
221
189
182
172
174
189
208
204
193
176
209
212
217
217
215
216
219
210
217
218
221
209
198
194
206
214
202
210
211
188
180
166
166
161
152
162
179
191
192
184
194
217
231
247
212
212
193
178
179
154
154
147
158
161
165
179
160
168
174
174
172
178
172
176
185
187
189
183
188
185
185
188
194
194
184
181
178
195
199
198
192
195
198
194
184
199
195
207
191
226
238
238
216
196
180
158
167
174
199
207
206
183
197
212
217
221
215
217
212
204
209
210
217
213
201
202
218
207
204
213
204
180
162
158
171
166
164
145
179
179
191
188
197
213
221
242
228
218
210
203
184
173
164
149
157
147
154
166
153
166
175
163
169
177
170
176
175
178
181
174
174
177
186
184
183
187
172
183
190
202
194
190
191
190
190
196
181
193
199
201
204
222
234
244
208
194
186
153
166
158
181
200
209
208
197
200
208
219
220
231
221
219
225
214
227
210
197
207
211
212
207
209
195
169
147
165
166
184
160
135
172
177
176
187
199
216
227
235
226
222
226
214
198
190
181
161
163
152
150
146
161
162
161
164
170
177
167
181
168
170
172
163
163
178
177
172
184
178
178
191
197
196
186
186
190
182
182
191
181
197
201
211
221
224
235
238
206
180
186
163
164
155
172
196
202
205
210
198
209
217
230
234
223
229
222
230
224
214
207
213
216
210
214
196
176
156
150
177
167
195
161
127
157
183
174
179
192
217
234
233
222
227
232
218
225
202
199
172
180
168
148
153
162
158
157
168
169
175
161
174
174
162
168
167
164
177
170
174
179
172
185
195
190
188
180
185
184
182
179
177
187
198
209
206
228
220
238
229
201
174
181
162
156
166
159
184
196
188
210
207
208
218
228
235
226
225
231
233
230
220
213
218
218
205
210
179
175
155
162
191
176
176
154
128
155
178
177
166
183
212
234
245
228
231
224
214
233
211
219
192
186
175
166
158
169
167
165
168
178
172
159
180
169
165
176
176
176
179
173
175
176
179
185
187
189
181
178
176
182
181
182
176
187
213
210
202
225
220
234
224
195
170
184
158
150
172
160
168
181
184
199
210
209
221
221
231
229
221
229
236
231
224
212
207
203
207
201
187
182
165
176
182
163
156
153
131
149
188
181
156
178
201
230
232
243
228
227
211
216
213
218
215
188
189
191
184
181
177
178
175
176
168
175
169
159
171
178
178
181
173
173
178
176
177
176
189
184
173
184
171
183
182
184
174
201
210
210
197
218
235
222
225
188
176
176
158
134
177
179
165
164
168
198
213
218
212
216
228
234
223
227
239
230
