P2
# Face with average contibution
92 112
255
171
169
172
171
172
169
174
172
173
172
171
174
170
176
173
172
180
178
180
181
181
181
181
189
189
186
188
189
184
176
172
178
174
177
175
172
176
180
178
178
176
179
185
180
183
178
181
192
187
179
187
182
175
180
182
181
179
187
185
179
184
186
186
183
184
183
173
171
173
173
169
162
164
166
167
168
168
168
168
167
164
166
166
167
166
166
163
165
168
166
166
167
172
169
173
170
170
171
174
172
172
172
169
175
177
178
176
181
189
183
186
184
185
185
183
188
186
184
184
192
187
184
176
173
175
171
174
171
177
181
180
184
185
191
192
192
187
188
185
191
191
189
189
179
169
174
180
182
180
183
184
169
175
186
186
187
178
185
185
175
170
171
173
170
160
163
167
170
168
169
170
167
165
164
167
167
167
166
167
164
169
166
166
167
170
173
171
172
172
172
172
173
172
171
172
176
182
184
189
191
192
186
194
186
188
186
185
184
178
183
182
180
183
180
177
169
167
174
178
180
180
181
182
191
192
196
192
192
197
201
201
196
200
198
194
181
176
179
185
185
182
187
182
175
169
185
189
190
184
183
190
185
176
176
175
174
164
157
164
169
166
171
166
169
167
166
165
168
168
166
166
167
167
168
165
167
170
172
171
172
173
171
174
172
174
171
170
177
188
187
187
187
188
181
182
184
182
182
184
185
184
182
183
179
175
175
177
177
180
179
187
184
179
185
188
195
195
191
191
193
199
201
206
204
196
195
195
188
190
186
187
191
187
182
180
183
182
178
187
186
188
193
187
187
186
177
176
179
167
157
163
165
168
169
168
166
169
166
166
167
167
167
167
167
166
169
166
167
172
172
172
172
171
173
172
176
168
169
172
187
184
185
181
181
185
180
186
182
183
189
183
178
178
174
174
176
176
175
180
180
180
187
188
188
185
186
184
188
188
188
191
190
199
196
193
199
195
194
188
186
190
190
183
186
184
187
182
179
184
184
184
182
182
194
195
186
189
185
180
187
175
168
161
168
165
165
169
168
167
167
168
167
167
166
169
167
168
167
167
167
173
173
174
172
173
174
172
172
167
168
180
186
180
180
178
180
183
181
185
187
188
186
186
180
175
172
173
179
177
179
178
179
177
178
186
185
188
184
187
187
189
184
180
183
196
194
191
187
186
191
188
183
187
188
186
183
182
186
187
177
179
179
180
181
176
187
195
196
191
185
186
187
183
174
170
167
168
166
168
169
171
167
170
169
167
168
170
170
166
168
168
168
174
171
175
173
173
175
170
165
169
179
185
181
180
178
184
179
179
181
184
185
186
182
180
181
180
181
182
184
183
187
177
178
179
180
184
185
185
184
185
186
189
184
180
177
182
189
193
187
183
188
181
185
186
190
185
185
184
178
184
183
177
172
175
174
172
182
188
188
192
184
184
186
180
180
174
177
173
171
174
172
176
174
169
169
169
168
171
170
169
167
169
170
173
174
172
172
174
173
170
172
174
179
186
182
183
180
180
180
179
181
185
185
180
179
177
186
187
189
188
183
185
184
185
188
190
191
191
187
188
182
182
180
186
181
180
183
183
185
183
184
191
189
185
183
185
188
190
189
187
186
184
176
176
179
181
180
179
184
182
183
180
183
182
186
176
180
178
178
182
174
176
172
174
177
176
170
173
169
171
173
172
171
170
169
173
174
173
174
174
172
177
181
177
182
186
186
183
180
177
182
180
181
181
181
177
181
185
185
185
183
184
183
184
190
193
195
196
195
190
189
190
183
183
183
187
184
183
189
187
188
186
183
185
189
190
189
190
190
186
186
186
184
191
179
178
175
179
184
183
185
183
181
184
180
183
182
177
178
178
183
180
178
179
180
167
178
184
177
175
172
172
172
173
172
171
167
175
173
174
175
177
178
176
183
178
183
189
181
180
184
180
188
184
184
183
182
185
189
188
186
188
183
177
178
182
186
187
196
197
188
189
191
194
194
189
189
194
192
181
185
188
192
192
187
187
190
183
192
196
192
193
189
188
183
190
184
185
181
176
177
187
187
182
182
182
180
186
184
179
175
176
178
183
177
178
183
180
171
181
181
178
177
174
174
169
170
170
168
177
172
176
180
178
180
182
179
182
185
185
180
185
190
192
193
186
191
191
196
196
194
191
193
194
187
183
181
184
186
186
188
190
186
190
191
195
192
191
188
189
191
185
186
187
191
186
187
188
189
186
192
193
188
186
185
185
187
186
183
185
184
183
178
181
183
180
184
184
181
182
185
186
178
178
177
179
181
175
181
186
176
172
181
179
178
178
175
169
172
171
170
176
173
183
183
184
183
188
184
192
184
185
183
190
193
195
196
192
191
189
192
193
186
189
185
181
182
182
182
186
184
181
185
185
181
186
181
185
186
181
181
178
184
181
178
179
184
187
182
182
184
183
184
186
188
189
188
184
189
190
187
185
183
184
179
183
179
183
183
183
183
180
182
186
187
182
178
174
183
174
174
181
179
176
181
183
183
178
179
174
173
174
171
172
181
185
188
187
185
192
194
195
196
190
189
194
195
194
193
197
199
198
203
194
186
187
182
182
181
182
178
182
179
175
175
179
174
175
173
174
174
172
177
178
171
168
171
173
179
176
179
178
178
179
179
185
188
187
188
187
188
186
188
183
187
189
182
185
187
184
186
183
185
181
182
185
190
187
181
174
175
183
176
174
178
182
177
181
192
185
181
176
175
176
172
172
189
185
188
190
190
195
194
201
197
194
195
195
192
187
187
195
194
192
194
191
192
186
187
181
179
179
182
176
174
172
173
172
172
168
173
172
177
174
176
174
170
169
166
166
170
172
176
175
173
172
173
180
184
184
188
185
187
184
183
183
184
187
186
185
192
188
184
185
188
192
186
185
188
188
184
179
172
183
179
175
172
181
182
177
187
191
186
179
176
176
174
176
195
189
194
193
195
196
201
199
198
201
204
192
189
188
193
199
196
190
192
187
186
185
180
178
179
181
184
177
175
175
173
171
174
167
166
170
173
170
171
172
169
165
167
166
165
166
174
171
171
170
170
172
173
179
180
177
177
179
175
175
175
178
182
180
185
186
186
187
192
188
187
191
187
189
192
188
174
178
183
179
176
178
180
181
180
190
190
187
182
176
177
181
191
198
196
194
198
201
204
202
202
203
196
190
195
195
199
198
198
194
191
187
186
183
173
174
182
182
177
177
174
174
170
164
165
165
166
170
170
164
164
165
167
164
167
165
166
164
165
163
170
168
166
166
159
161
161
164
163
165
163
161
162
166
169
169
173
178
179
186
189
192
188
192
196
194
188
193
181
177
181
183
184
178
174
178
184
186
187
196
190
181
178
186
191
202
198
193
199
205
206
206
196
194
195
198
202
211
211
205
199
190
188
189
187
178
175
180
183
182
177
175
168
172
168
165
163
165
168
165
169
165
162
164
165
161
163
163
163
163
161
157
159
154
156
154
150
152
154
152
156
155
151
158
160
161
163
165
167
166
168
174
180
181
190
197
206
200
191
192
188
178
179
182
185
185
180
173
180
182
184
190
193
190
179
196
198
200
198
197
199
200
205
200
188
193
197
200
208
212
208
205
198
190
190
190
187
177
184
181
184
180
175
174
172
175
169
168
171
167
167
165
164
163
162
165
166
163
164
161
162
157
157
154
150
148
146
141
142
142
143
146
150
150
149
153
160
159
161
162
159
162
164
170
177
179
190
191
202
202
197
191
191
180
180
181
186
186
186
180
181
180
181
184
191
190
187
194
200
203
198
202
197
203
202
199
193
192
195
206
212
211
208
202
194
187
187
189
185
182
180
181
179
179
175
173
175
175
173
170
175
169
163
166
164
164
161
165
161
163
164
161
155
158
158
149
148
143
137
137
135
136
135
143
147
147
152
155
159
157
157
160
157
160
162
167
175
177
181
186
196
200
196
198
196
187
182
181
184
187
188
187
184
181
186
188
180
188
187
193
205
208
200
203
201
202
201
202
199
198
206
208
212
209
203
196
190
187
185
186
188
180
176
179
175
175
175
173
174
173
173
169
170
168
163
166
163
163
163
160
157
157
160
158
152
156
152
149
143
140
131
137
134
138
135
141
149
150
151
152
154
157
158
158
156
160
161
166
173
177
178
175
189
196
199
203
197
197
183
185
184
187
190
189
185
187
188
187
182
187
189
198
207
205
201
200
202
201
203
201
202
201
207
209
208
200
193
186
185
183
183
185
182
177
173
176
173
177
176
169
173
170
171
167
167
163
162
164
166
164
160
159
158
157
159
155
150
153
149
143
139
132
134
134
137
139
139
141
144
145
148
152
152
156
158
152
155
157
157
161
164
171
174
168
177
193
198
203
196
202
192
190
191
189
185
189
191
189
194
181
187
184
190
198
206
206
202
200
203
202
210
202
199
200
210
213
203
196
191
183
181
181
180
177
179
179
174
175
175
174
174
172
172
170
168
164
164
161
162
162
160
160
155
155
158
156
152
155
151
151
148
141
136
134
135
136
137
137
140
142
140
142
145
149
153
154
155
153
149
151
153
152
155
162
168
168
173
187
193
196
199
201
200
200
198
192
188
187
193
192
194
185
192
189
191
203
211
208
207
208
207
210
210
195
196
200
207
202
199
194
188
180
178
179
177
178
179
178
177
176
177
176
175
170
168
167
169
167
163
164
162
161
155
157
156
156
155
154
154
154
155
155
149
145
143
141
141
141
140
143
144
147
145
143
147
151
153
156
158
157
153
148
150
150
156
162
165
167
168
179
192
196
195
202
203
206
202
201
193
187
188
194
195
189
189
192
196
207
210
212
211
208
217
214
201
193
201
200
203
198
198
191
184
181
181
179
179
178
181
180
178
179
180
179
175
172
169
169
168
164
164
164
163
161
158
159
159
155
155
155
160
157
157
155
153
153
150
151
150
147
145
147
148
153
149
150
150
154
156
158
162
159
164
157
151
148
157
162
163
164
166
170
189
197
199
200
196
210
202
198
195
194
191
189
197
190
195
192
195
208
210
211
211
208
212
200
191
198
200
199
204
200
196
189
185
183
181
181
184
180
183
180
180
182
183
180
175
175
175
171
165
164
163
162
165
164
161
159
158
159
161
164
163
165
163
158
160
160
161
158
156
154
152
151
155
155
156
157
155
158
160
163
166
163
165
164
156
148
156
161
162
162
168
171
183
197
203
197
199
203
197
196
193
196
198
194
193
193
196
196
191
209
209
218
207
210
208
201
196
200
197
202
202
202
190
188
186
186
185
185
187
182
182
181
181
180
180
178
175
178
173
170
169
165
166
164
166
168
165
160
161
163
165
166
168
167
165
165
168
167
166
164
161
159
158
155
156
159
161
160
158
161
163
165
167
168
171
170
162
152
156
162
160
162
161
172
177
188
200
194
193
203
195
199
190
193
205
196
195
196
194
201
192
208
208
211
206
208
205
207
199
194
199
208
204
200
189
190
188
189
187
189
188
184
181
182
182
180
178
177
178
178
176
171
171
168
168
168
167
168
168
165
166
168
167
166
169
168
168
170
172
172
171
169
167
164
162
162
161
162
164
161
161
165
166
168
167
169
175
173
168
162
157
163
161
165
160
168
173
182
189
194
193
195
197
189
195
189
209
194
203
194
191
200
192
207
206
203
204
204
206
206
192
195
205
211
205
192
190
191
193
190
190
187
183
180
180
180
180
182
182
181
179
177
175
173
172
172
168
168
170
171
171
172
172
172
169
170
169
168
171
172
173
174
173
173
170
166
166
165
165
165
165
164
164
167
167
171
170
170
173
178
174
170
162
163
161
163
166
168
172
178
186
193
196
195
190
186
186
200
204
199
198
197
190
200
194
209
208
200
203
207
212
200
198
203
206
206
200
189
196
194
195
194
191
185
181
176
177
178
180
182
182
182
176
176
176
175
176
176
171
174
175
172
176
176
175
173
169
168
168
169
169
170
172
174
171
173
172
169
168
163
165
167
165
164
167
166
171
172
171
176
177
179
181
179
168
162
163
163
165
170
174
181
183
195
196
204
191
192
189
203
203
206
202
196
197
197
199
206
210
204
202
203
203
202
202
202
207
201
194
196
203
196
192
190
189
179
178
179
181
180
181
183
181
179
178
175
177
178
178
181
178
178
176
176
176
177
176
172
170
168
170
172
171
169
170
172
172
174
172
170
170
165
164
166
166
164
165
170
170
172
173
174
178
180
180
179
172
165
167
164
168
171
175
183
182
189
193
201
196
192
193
205
206
207
206
200
199
197
197
205
207
201
204
205
199
204
201
204
199
196
194
201
204
198
193
188
187
183
179
180
182
180
180
179
178
176
176
176
175
178
177
176
179
179
177
178
174
176
175
173
170
169
170
173
170
169
168
173
172
171
170
170
169
168
164
163
166
164
167
168
170
172
171
173
175
179
180
177
176
173
168
169
168
171
177
183
183
191
191
194
196
197
194
200
211
208
205
199
201
200
195
211
203
201
209
207
203
200
202
199
194
193
198
199
202
195
192
187
186
182
180
181
181
177
173
172
173
171
169
169
171
174
170
170
173
172
171
175
172
174
175
173
171
171
168
172
170
169
168
172
173
169
169
171
167
169
167
165
166
167
166
169
172
171
173
173
174
176
178
181
181
179
175
173
169
173
180
181
184
189
194
186
191
194
194
195
209
210
203
202
197
201
198
207
199
204
208
211
201
199
196
194
192
194
200
202
201
197
192
187
183
181
176
181
175
173
168
165
165
161
160
160
162
161
158
161
163
163
164
165
170
168
171
172
169
169
170
170
172
169
169
173
170
170
168
173
173
174
170
169
169
169
168
168
168
170
171
173
172
172
174
177
178
182
183
176
176
174
174
185
183
187
196
189
188
189
189
202
198
212
203
200
198
201
197
203
195
208
212
210
201
195
192
186
188
195
200
205
201
197
190
188
181
176
170
173
170
169
166
163
159
155
150
151
148
144
145
149
149
153
155
157
163
164
163
168
167
168
168
170
171
165
168
172
171
172
169
172
174
173
172
167
167
168
167
165
166
169
166
169
169
169
171
173
173
178
183
179
179
177
175
180
185
186
194
192
187
190
192
196
198
203
198
196
196
202
197
202
203
212
211
209
201
194
186
182
186
196
200
209
202
193
188
185
180
169
167
170
167
168
163
158
156
156
152
154
152
149
145
153
149
150
158
153
157
163
160
163
171
170
168
171
173
172
172
175
175
173
171
172
171
170
169
165
167
165
162
163
163
163
163
166
165
165
168
171
171
177
180
179
174
182
174
177
180
188
189
193
188
187
193
193
195
198
193
189
193
202
205
211
209
214
211
210
193
193
182
180
190
196
199
208
201
189
187
185
176
168
159
168
165
164
161
155
154
154
149
157
156
158
153
154
151
152
158
154
152
154
155
155
166
165
164
167
170
168
166
173
172
169
169
170
169
171
169
165
164
162
161
161
165
165
166
165
161
167
166
168
168
174
178
177
173
178
180
177
177
185
189
195
188
190
193
197
192
198
191
190
189
201
208
209
208
212
211
199
196
189
184
182
198
197
199
203
200
189
186
184
177
164
168
174
171
169
163
161
163
162
158
159
159
158
156
153
157
154
157
158
158
157
159
157
163
162
162
168
168
168
167
171
173
171
171
168
168
168
168
162
159
159
161
162
166
167
167
165
161
166
172
171
173
176
181
185
176
177
185
183
183
182
188
190
192
186
193
196
200
195
192
189
192
202
212
203
207
210
203
199
198
186
185
187
201
200
200
200
195
190
189
184
174
169
179
180
177
177
167
175
181
176
174
172
165
162
157
155
156
157
159
162
167
165
164
165
166
168
168
170
169
169
172
174
175
174
172
168
169
172
166
163
167
168
167
170
168
167
163
164
165
166
172
175
179
181
186
191
189
186
192
190
185
186
187
196
194
186
186
192
202
197
194
191
191
206
212
200
203
202
200
195
194
181
186
191
203
201
199
201
199
192
185
176
174
178
188
193
185
182
176
176
175
173
169
172
173
172
172
167
165
165
160
164
163
161
162
169
171
174
177
178
176
176
179
179
177
177
175
175
176
175
186
184
181
177
177
171
171
175
170
173
176
181
184
182
188
191
197
197
195
191
196
196
187
190
188
203
199
191
188
195
200
204
199
190
197
207
208
201
198
194
196
191
192
190
186
195
206
196
201
206
201
184
182
176
181
187
198
198
187
184
183
177
175
171
173
169
169
173
170
171
171
173
172
168
168
169
165
166
178
183
182
187
182
182
183
185
183
182
183
181
184
183
187
183
180
184
187
188
183
195
186
185
189
193
198
192
196
200
207
208
204
199
198
204
189
185
193
204
205
197
188
197
202
205
208
200
196
205
208
201
199
192
193
184
190
188
188
198
204
202
202
209
192
181
187
188
185
194
203
203
190
185
184
182
183
186
190
181
178
184
174
177
176
178
179
173
177
179
182
186
174
193
191
194
187
188
187
190
190
192
188
191
184
185
183
185
193
197
203
195
201
202
196
191
196
201
204
202
201
205
213
219
212
207
205
208
206
185
186
200
213
202
194
193
205
203
201
200
200
202
208
193
201
197
190
178
189
187
187
195
201
205
206
205
186
190
193
194
193
204
210
207
202
198
200
202
207
213
214
204
199
205
197
197
197
197
200
194
194
194
196
201
187
202
207
209
204
201
192
193
189
189
192
192
184
189
194
196
203
208
209
208
215
215
215
211
208
219
222
220
216
219
224
228
226
222
214
215
212
194
190
191
216
203
201
192
195
199
192
201
196
206
201
196
197
195
185
177
186
185
192
193
203
199
207
199
193
193
197
201
206
213
220
223
225
227
225
226
230
222
222
223
217
216
215
213
212
209
212
211
212
209
203
208
200
210
202
213
206
187
190
182
180
178
187
189
188
194
197
203
210
214
213
218
213
222
223
223
224
228
232
226
225
232
232
234
236
228
225
222
220
205
191
197
213
203
205
193
194
198
193
196
196
204
202
197
202
190
181
186
180
182
198
195
209
201
208
200
205
200
201
205
211
221
231
234
229
227
211
219
223
218
218
225
226
215
220
220
214
216
206
203
209
213
207
208
203
204
195
210
204
199
198
188
186
187
190
196
190
192
203
212
212
215
215
206
211
221
223
226
223
228
229
228
229
235
239
236
240
230
222
214
221
212
198
202
212
210
199
193
195
194
197
199
193
198
202
182
202
195
183
185
179
181
199
200
204
196
206
202
206
194
204
200
216
229
233
230
219
209
210
220
216
209
214
215
218
205
219
212
213
210
205
207
219
217
234
230
220
209
211
214
211
211
210
205
203
208
198
204
202
210
218
223
221
222
225
223
219
218
222
218
212
223
226
225
225
224
228
233
233
228
221
217
206
211
205
204
210
210
194
197
193
189
195
201
201
196
197
185
195
189
186
185
180
182
187
205
209
186
189
195
200
194
200
203
222
231
223
209
208
209
218
222
209
196
209
205
206
198
202
201
207
203
189
200
205
214
221
235
223
204
211
214
205
210
218
214
210
208
202
207
207
212
219
225
219
211
215
216
211
216
215
206
201
211
206
210
214
215
212
211
222
220
215
217
213
199
207
200
211
202
193
209
198
185
189
197
207
193
195
184
194
184
171
183
182
180
176
188
205
180
192
189
197
197
197
208
227
222
216
211
216
215
222
233
225
203
207
202
208
205
212
204
208
203
191
212
221
222
221
238
222
210
220
223
216
219
223
220
221
216
202
215
213
221
226
217
214
217
216
222
213
218
211
203
201
207
197
203
216
199
205
202
208
218
214
215
207
203
206
196
209
210
190
203
195
183
188
192
204
194
193
178
193
179
165
174
178
174
174
188
201
191
210
193
192
201
208
219
225
222
223
230
235
230
235
244
233
222
227
215
216
214
216
212
221
217
204
230
232
235
240
235
220
207
220
232
214
219
222
210
209
214
199
210
214
226
225
224
220
223
220
222
224
223
220
216
211
211
210
212
220
209
211
206
211
210
215
216
209
199
211
210
202
215
194
191
185
181
183
191
197
195
198
176
192
170
163
165
167
166
180
197
199
196
214
193
193
199
211
227
223
230
234
238
237
236
231
233
243
234
229
221
224
219
215
221
211
199
203
214
229
240
237
239
217
227
217
229
219
208
209
201
196
196
200
198
219
223
227
227
230
229
228
230
223
225
225
224
227
193
198
200
204
224
223
212
219
217
214
218
230
207
211
223
207
228
190
187
179
175
169
178
192
192
203
168
187
164
167
156
165
168
185
198
196
195
210
190
195
201
218
230
229
244
238
241
238
231
235
239
248
233
228
217
217
224
219
215
203
196
206
206
222
238
234
231
209
228
222
219
221
219
218
207
204
204
197
197
214
207
224
229
228
223
222
225
200
204
226
235
217
194
193
201
196
225
218
214
215
208
207
210
231
226
226
218
211
238
208
175
169
172
168
165
182
197
206
167
181
165
165
153
152
170
182
199
195
192
202
187
196
207
220
229
238
251
239
238
235
227
235
240
239
227
219
218
211
211
219
196
215
209
205
205
219
222
224
213
206
218
219
206
200
211
217
204
201
208
193
191
192
191
208
216
216
216
224
227
215
220
228
237
213
216
205
205
210
226
222
211
216
208
209
212
221
224
221
221
188
237
211
175
157
161
169
163
178
192
202
166
179
160
166
155
141
163
180
199
192
192
197
183
206
218
216
227
234
255
241
235
229
221
219
230
233
221
211
207
203
205
203
208
222
217
206
209
220
219
215
192
202
210
218
219
214
210
218
215
205
207
206
202
191
188
192
199
206
211
213
211
215
220
224
222
215
206
205
201
209
222
212
209
208
209
211
220
232
224
217
221
189
224
209
174
160
158
169
167
178
182
195
171
176
156
161
147
143
157
181
199
192
193
198
172
198
215
197
220
228
240
231
219
214
211
203
213
212
206
203
200
197
191
183
185
201
204
209
209
215
215
209
197
198
209
210
208
214
201
210
209
206
203
209
209
197
177
187
190
199
202
200
199
203
205
201
195
198
187
194
187
185
199
205
206
203
205
209
217
236
232
213
204
201
201
199
148
153
159
157
166
178
177
188
172
172
150
151
148
139
156
180
193
188
198
197
182
194
212
185
212
222
224
213
208
204
192
190
193
198
194
191
191
181
184
169
170
189
186
196
198
199
203
187
196
201
202
198
203
207
202
196
201
188
193
195
206
193
170
174
192
187
188
190
194
201
190
189
182
176
179
182
184
184
186
195
200
195
200
202
210
232
232
214
189
208
197
184
156
153
144
143
166
173
173
175
168
170
150
148
158
144
155
177
186
183
193
194
188
183
194
186
201
211
211
196
191
193
189
183
186
188
185
181
184
172
171
165
168
177
180
188
188
190
186
183
190
192
188
183
196
202
204
201
198
191
194
193
204
189
178
163
184
180
180
181
182
194
183
182
182
178
171
183
184
186
182
187
191
189
193
197
209
229
225
208
185
209
192
188
163
154
149
142
168
170
171
176
172
172
149
146
163
153
156
173
188
177
188
187
193
186
184
184
197
204
203
187
182
182
177
172
168
165
167
166
171
170
156
165
164
165
167
168
171
166
172
181
177
184
178
179
194
195
193
196
198
187
195
193
196
205
166
171
162
171
172
173
169
175
174
173
175
172
172
176
183
180
182
181
180
181
188
192
202
221
223
195
195
213
191
209
172
155
150
146
165
170
169
176
172
169
144
146
174
164
163
172
194
174
177
189
193
199
178
172
199
201
200
185
181
175
171
171
165
161
156
154
154
151
151
157
156
155
159
155
156
153
171
169
172
178
175
180
198
188
190
189
195
185
183
186
190
203
176
167
159
153
159
165
165
161
162
163
164
163
161
168
177
176
175
179
176
177
185
193
194
209
208
194
210
214
199
211
166
158
152
152
162
167
167
169
171
170
147
146
178
174
178
182
195
179
173
184
197
201
193
177
176
191
196
185
172
171
166
164
165
157
151
148
142
150
151
152
154
149
140
143
141
152
161
159
164
168
171
183
190
187
189
186
189
187
179
180
185
190
190
170
157
154
146
158
163
159
161
155
158
157
159
162
173
177
174
176
177
179
178
187
190
184
205
205
215
211
210
199
166
156
154
158
159
165
165
166
173
169
148
146
170
175
185
188
191
172
165
182
188
199
193
185
177
180
182
174
169
165
163
166
165
158
148
143
147
147
151
153
151
141
136
139
146
151
150
154
160
163
171
185
183
183
185
181
182
181
177
175
180
181
190
173
166
151
149
149
152
148
153
155
152
155
154
157
161
167
165
165
161
166
171
181
194
196
210
203
220
210
214
203
163
158
160
161
175
169
162
164
173
161
152
139
159
173
182
194
179
168
161
180
190
190
196
184
171
179
175
176
165
160
155
152
151
147
143
137
137
134
138
146
145
145
152
149
152
150
154
157
161
167
178
176
176
176
175
174
172
175
173
174
176
179
185
182
176
155
147
153
150
152
149
147
143
148
149
154
155
156
159
161
170
177
181
192
197
198
209
206
223
208
213
188
166
167
151
160
169
177
157
170
172
156
157
137
150
173
177
190
177
168
164
174
190
192
195
178
174
173
166
176
172
168
165
163
165
163
160
147
140
142
147
150
151
151
148
156
150
153
156
156
167
179
176
166
166
166
168
167
166
172
167
171
174
173
178
183
184
171
158
150
152
154
157
155
155
153
155
154
154
156
162
167
173
181
187
194
197
203
204
217
218
202
208
179
169
168
147
156
170
180
158
165
167
161
158
135
155
177
179
184
182
172
164
176
192
196
200
198
178
170
181
179
181
180
176
168
164
157
154
154
142
147
159
153
153
157
146
151
156
156
157
163
174
173
164
163
165
164
167
165
168
168
168
165
180
177
174
175
174
180
159
152
148
146
159
154
158
158
161
162
165
162
168
172
174
181
186
193
199
199
209
220
210
203
205
184
170
162
145
152
174
176
160
173
167
166
157
147
164
181
185
186
185
183
169
176
191
205
203
208
192
171
181
193
189
186
177
168
160
154
150
152
148
152
161
159
158
147
146
158
158
163
164
173
174
165
165
163
170
169
170
169
166
168
172
170
178
187
173
172
175
177
168
151
149
139
139
147
152
157
162
163
168
164
167
172
177
181
187
193
191
200
216
215
205
211
205
185
174
161
147
149
178
178
164
175
174
175
160
159
169
178
181
191
188
196
185
176
189
205
211
205
204
191
179
191
190
188
183
170
166
161
164
161
162
165
169
167
159
152
153
159
166
176
178
176
167
163
161
161
165
173
171
168
162
164
172
176
177
185
182
174
181
182
174
166
153
140
141
141
143
157
161
166
166
167
169
173
182
184
189
193
196
206
209
201
211
212
197
190
173
163
152
150
176
188
171
178
178
177
164
157
180
170
180
187
201
195
189
185
190
207
205
202
204
203
198
192
185
186
185
180
176
172
173
171
168
171
170
168
161
162
168
177
184
184
184
171
164
158
156
161
165
170
171
163
158
160
172
176
179
181
183
180
175
181
175
173
170
155
153
147
148
156
160
162
165
165
171
178
184
188
190
195
196
203
209
212
215
210
194
191
165
162
159
154
176
189
181
178
176
178
169
154
173
169
181
183
192
193
184
185
197
207
204
201
201
201
203
206
204
197
195
193
190
186
183
180
179
177
175
174
174
182
184
187
184
179
176
154
151
150
162
171
171
164
162
159
156
159
168
173
171
177
178
176
182
177
171
165
172
169
179
171
166
166
166
166
170
174
178
184
188
193
191
202
207
211
213
210
215
204
196
176
159
165
158
164
180
191
180
172
174
174
177
162
166
167
185
192
192
199
192
186
196
205
207
205
200
200
204
205
208
205
203
199
198
196
193
188
185
183
183
183
189
190
188
181
181
183
171
158
152
150
162
172
175
165
152
149
147
153
163
160
163
169
168
167
168
177
164
162
162
160
169
173
176
182
186
188
187
191
194
195
197
202
205
210
208
211
211
210
217
206
186
169
154
160
158
173
193
197
180
171
171
173
179
170
170
177
179
200
205
203
202
196
191
202
206
206
206
207
207
206
208
208
207
205
205
200
192
186
182
182
183
185
193
193
188
187
185
186
178
174
169
169
170
172
174
170
154
146
149
153
158
156
174
180
166
160
162
166
169
164
163
168
167
170
172
175
183
189
188
190
192
192
199
204
213
214
206
208
208
212
222
206
182
171
148
153
166
180
201
197
177
170
169
169
170
173
174
189
171
189
205
201
203
201
188
197
204
208
207
206
205
207
205
206
204
200
198
195
194
189
184
186
189
192
195
196
191
195
195
190
186
186
181
176
175
181
178
176
168
157
154
151
155
163
176
180
176
173
171
176
176
173
175
172
174
177
178
175
176
182
185
186
192
195
201
202
206
210
205
203
211
215
214
202
183
176
154
155
176
188
207
190
171
172
169
168
163
169
176
190
173
173
195
200
197
206
191
197
203
209
212
208
207
207
205
205
202
197
199
201
196
190
189
192
196
197
198
201
193
199
200
191
197
200
192
184
187
191
193
184
181
171
161
157
161
168
179
185
195
194
191
191
186
188
180
176
175
177
184
186
186
190
193
195
194
197
200
202
205
207
207
209
208
213
209
196
181
175
157
161
184
197
221
183
170
169
171
172
162
168
175
187
181
176
194
200
195
210
197
204
202
208
214
210
210
209
209
206
200
205
203
200
196
192
196
197
202
201
202
203
197
201
201
197
201
206
205
200
202
199
194
190
188
185
178
174
173
175
181
180
187
192
200
198
196
193
186
186
179
177
183
187
185
187
191
193
195
196
198
200
203
203
204
211
208
209
201
192
178
173
158
174
188
209
219
176
170
172
179
181
175
171
177
179
188
186
198
206
199
217
203
205
203
207
214
210
211
213
210
208
207
207
201
198
196
196
199
198
201
201
202
203
202
201
201
205
202
204
208
208
209
206
202
194
196
196
191
191
185
183
186
185
182
190
196
195
193
191
190
191
186
179
183
185
187
188
190
191
191
196
197
200
202
202
206
212
206
205
204
196
182
184
174
184
204
215
210
178
171
174
182
185
182
181
183
178
185
195
193
205
206
214
207
202
206
202
213
207
209
209
208
209
213
208
200
201
198
197
199
197
199
199
200
205
204
201
202
203
201
201
208
210
210
201
199
191
198
201
196
193
190
186
182
186
177
186
189
184
187
188
188
193
194
187
179
184
187
184
189
190
191
195
196
197
200
202
206
210
201
204
210
200
193
191
190
201
210
216
205
177
173
175
186
184
184
186
188
189
187
193
197
205
216
215
215
206
203
204
206
206
204
208
208
212
216
210
205
202
199
199
196
198
195
191
192
200
197
202
208
201
205
201
204
204
205
197
188
190
191
198
192
192
191
191
189
183
181
187
186
184
187
188
188
189
197
189
181
179
186
185
185
187
190
191
196
199
200
203
204
208
200
203
207
197
206
199
197
206
209
219
197
178
176
173
191
188
183
186
187
194
193
197
199
202
215
214
217
205
198
204
201
202
204
207
209
211
216
210
202
202
200
196
193
194
187
184
183
189
188
203
209
206
203
199
197
193
194
189
183
182
184
188
187
182
180
187
187
185
188
188
184
183
187
188
185
185
188
189
180
181
179
186
187
186
189
191
195
200
200
203
205
207
196
202
210
201
210
202
202
209
211
217
192
174
178
172
192
195
185
187
184
193
191
196
203
209
216
217
215
209
196
197
199
199
203
205
210
209
214
206
203
199
199
196
192
190
181
181
179
179
179
193
195
197
200
196
192
186
186
188
177
173
178
176
180
173
174
178
181
179
187
186
184
181
180
180
177
182
183
183
182
187
180
180
189
187
186
191
193
197
197
201
206
205
196
202
214
202
212
200
204
207
212
204
187
176
178
170
197
192
192
182
179
186
192
190
194
203
214
221
214
214
201
193
196
196
203
203
207
204
206
203
203
193
197
193
190
190
181
180
178
175
177
181
186
186
197
188
188
187
178
178
167
164
172
166
168
169
171
172
174
177
178
182
182
182
170
177
175
178
178
179
179
180
184
175
183
189
189
188
192
197
197
196
207
205
197
202
210
199
209
201
201
208
207
193
185
178
178
170
198
186
196
187
177
176
189
185
183
205
209
219
218
219
199
190
194
194
202
203
203
197
203
201
197
191
194
190
191
187
181
175
174
177
180
176
184
184
192
182
179
176
168
166
163
167
165
165
159
162
166
163
168
172
170
177
177
176
170
173
173
169
174
172
171
175
180
179
174
189
191
190
191
198
196
194
204
205
199
201
203
195
211
201
201
204
197
188
184
180
179
173
189
187
194
188
178
177
183
182
174
198
211
216
218
214
197
195
188
191
201
201
196
194
203
200
190
190
190
190
185
185
180
174
175
184
183
184
190
184
179
180
168
167
163
159
161
165
167
164
163
164
163
162
160
160
163
165
164
168
172
167
171
165
160
166
156
165
178
179
172
187
191
190
194
197
196
195
198
203
199
203
202
200
212
197
202
204
185
189
184
181
179
177
184
188
188
192
177
176
188
178
167
180
204
212
217
207
199
193
188
190
197
197
196
196
202
200
188
193
192
187
183
183
178
171
180
185
186
190
189
173
165
167
160
153
155
155
163
159
157
160
160
158
157
153
149
150
148
153
153
154
160
161
161
156
152
150
149
154
171
177
174
185
192
191
194
196
193
195
199
200
204
205
209
205
204
196
196
185
183
190
182
180
179
178
188
184
185
185
175
176
188
173
160
162
194
208
209
204
199
192
186
183
191
192
193
198
198
195
191
194
193
187
185
179
178
168
180
182
184
185
184
169
165
162
159
156
160
162
173
168
154
154
157
154
153
147
138
145
140
143
151
151
153
151
144
143
143
142
145
152
162
176
174
181
188
189
197
194
195
196
201
196
213
217
215
204
194
190
187
180
181
185
180
179
180
179
192
187
184
181
169
171
173
171
158
159
180
197
200
201
197
189
185
179
186
189
191
196
200
193
187
186
189
189
179
181
184
178
187
190
193
202
197
188
184
172
173
173
171
176
186
182
171
166
166
162
162
164
164
168
165
171
173
180
174
169
144
148
147
147
151
156
159
172
175
181
186
190
194
193
196
199
203
203
216
222
216
197
187
181
184
177
187
183
178
179
180
177
190
193
188
180
172
168
164
167
161
156
172
187
190
199
193
190
180
175
181
188
188
193
200
193
188
183
179
180
175
185
190
188
193
204
206
212
215
207
196
193
188
192
185
191
204
203
190
189
189
184
185
180
183
193
190
197
200
195
194
192
172
170
161
159
159
159
158
164
171
177
184
188
190
194
194
201
205
207
223
215
206
193
183
179
180
179
182
178
180
180
182
178
194
191
187
185
177
167
163
162
167
159
165
185
182
189
185
181
168
169
176
186
183
192
195
192
186
173
178
180
178
188
196
193
187
203
217
226
228
221
210
205
197
205
193
189
191
200
187
190
190
187
182
176
177
191
197
197
198
196
199
202
189
185
180
174
174
163
156
160
164
171
184
187
186
195
196
200
204
212
224
213
198
184
179
179
184
175
181
172
181
182
181
182
190
192
188
189
185
165
161
164
167
163
154
178
183
184
179
177
156
166
175
183
186
188
192
189
184
171
172
177
182
196
200
197
193
195
212
221
232
233
219
213
197
203
197
186
187
192
184
178
177
176
169
169
168
176
184
188
197
195
200
204
201
201
193
185
175
165
162
159
156
166
180
183
186
189
199
200
205
214
228
205
197
181
175
175
181
178
176
175
177
182
180
184
184
190
191
190
185
174
160
168
169
162
155
170
180
180
179
173
157
160
174
183
188
188
191
188
186
169
171
174
186
194
201
200
195
200
205
213
216
222
224
224
212
206
211
202
207
196
185
179
175
179
171
173
176
187
205
206
210
211
215
213
203
197
187
189
181
168
165
161
157
166
178
179
187
191
198
203
205
223
216
197
189
178
171
173
180
178
174
175
177
181
181
184
188
184
189
189
184
177
170
180
172
165
158
164
177
179
177
170
157
156
167
177
185
185
191
184
187
176
172
178
187
192
196
197
199
202
207
216
209
208
208
212
217
212
207
204
207
205
202
204
204
205
206
202
201
207
208
202
205
208
208
200
195
190
178
179
174
177
169
165
162
166
173
175
186
192
197
200
206
223
204
194
186
173
171
174
178
179
173
176
175
180
184
186
188
188
187
186
181
180
185
180
178
174
167
162
175
178
176
170
157
153
161
171
177
178
187
181
185
176
169
176
178
184
187
186
193
199
205
211
207
205
203
202
204
203
198
199
203
194
201
203
200
195
195
193
192
189
197
195
192
196
197
194
192
185
178
170
163
174
167
164
165
167
174
179
185
192
196
196
212
220
195
190
178
171
171
178
179
175
174
176
174
177
187
183
190
185
180
181
178
185
193
179
182
178
173
168
170
176
179
170
158
153
155
168
174
170
179
175
179
174
171
173
174
177
180
179
186
190
199
199
203
202
196
197
195
193
187
186
190
189
193
188
184
182
182
186
186
191
190
191
187
192
194
187
190
181
173
167
160
166
166
160
162
172
173
183
186
190
196
199
214
207
190
183
172
167
169
176
174
177
174
173
176
177
185
184
191
182
179
175
177
189
191
181
179
174
167
172
167
168
181
178
161
155
145
162
172
163
169
174
172
167
170
169
168
173
176
171
177
176
183
184
189
190
188
186
182
178
173
171
174
177
173
180
178
179
172
176
174
179
177
172
172
179
180
178
176
170
163
160
155
160
163
163
160
165
175
181
185
190
199
203
211
199
185
175
170
168
171
171
173
174
173
172
176
177
180
180
186
180
178
178
182
189
187
178
169
172
165
171
165
163
178
179
159
152
143
156
170
168
163
171
170
162
170
170
162
167
168
169
166
170
168
172
180
182
181
180
176
171
167
163
168
167
158
163
160
159
156
160
163
165
163
164
167
174
174
168
165
159
159
158
156
159
161
159
163
169
173
181
184
196
204
205
204
193
181
170
168
168
174
170
169
175
175
176
174
172
178
183
182
179
178
181
183
188
185
174
168
169
169
170
167
163
171
177
161
150
144
148
170
173
165
165
168
166
172
175
168
165
167
167
167
164
162
165
171
182
182
179
178
173
165
161
162
160
152
150
149
150
150
151
157
157
162
161
166
166
162
162
161
160
162
163
157
160
160
162
164
174
175
179
189
204
202
204
206
190
178
169
169
171
172
168
170
173
174
177
174
168
177
183
178
181
182
182
185
182
179
174
171
168
169
174
168
167
172
166
158
154
150
146
167
173
170
163
166
167
169
172
167
167
167
165
173
166
167
165
170
176
181
179
182
180
175
169
168
168
162
152
153
154
153
152
160
160
160
156
163
160
163
162
160
162
165
165
160
165
162
164
170
176
180
179
197
206
201
212
205
192
177
167
169
170
175
170
167
172
173
177
174
165
174
181
181
180
185
184
186
180
178
178
172
165
168
173
169
172
173
150
153
158
152
147
155
175
170
164
161
166
167
170
165
166
166
161
168
171
173
167
170
174
177
180
182
185
182
181
181
177
176
168
165
165
167
164
164
170
159
159
166
163
166
165
167
170
167
165
165
166
168
165
172
174
181
181
200
200
203
212
207
198
185
173
167
169
174
176
167
169
171
175
175
166
171
176
185
185
186
185
184
179
175
180
171
165
165
172
175
178
171
142
149
158
154
147
149
167
172
167
163
162
163
169
168
169
166
158
164
166
166
169
169
172
177
179
181
183
184
183
186
178
175
172
167
165
170
169
169
173
168
166
174
171
168
166
167
168
169
170
168
169
167
168
171
179
177
189
198
202
190
200
198
194
188
184
172
166
174
179
170
166
171
174
173
169
172
168
188
186
186
183
181
180
176
178
169
167
163
172
178
181
155
142
149
161
154
149
150
154
168
165
164
162
158
165
167
168
166
162
163
166
163
160
165
169
175
175
179
179
179
182
181
174
166
167
162
166
165
169
170
169
172
171
169
169
168
166
168
169
168
173
176
166
170
171
173
181
177
189
198
196
188
178
192
189
190
188
172
172
178
175
174
169
165
174
171
172
170
163
191
188
183
181
180
178
182
179
169
168
164
171
172
160
153
142
154
165
159
146
152
158
161
166
165
164
158
155
161
163
161
163
163
167
164
160
163
169
172
174
175
175
176
181
177
176
167
171
161
166
165
169
168
165
172
161
161
164
165
168
167
169
169
171
176
174
172
169
177
181
176
194
202
184
183
183
173
189
194
183
178
174
174
180
177
175
166
173
170
167
170
167
187
186
183
182
177
180
181
176
168
165
171
168
151
152
151
145
166
165
163
150
158
160
157
159
164
159
155
153
155
159
162
158
156
161
162
159
160
163
169
169
176
169
169
174
171
172
168
168
160
161
154
158
161
155
163
152
154
158
160
160
163
165
168
167
178
174
173
169
176
175
176
199
190
182
182
187
172
175
199
183
186
174
177
176
178
180
177
172
166
163
172
167
187
185
183
181
178
180
179
173
169
173
169
160
145
149
150
147
176
168
156
159
161
162
151
153
161
160
160
152
151
155
159
151
153
155
158
154
151
155
156
158
166
163
162
166
162
158
155
156
150
151
145
148
146
151
152
147
150
154
158
156
163
167
170
168
176
174
176
173
177
175
181
187
184
172
183
177
178
183
178
190
182
180
184
178
176
180
184
179
166
164
168
167
185
182
182
178
178
178
178
173
178
183
160
158
147
152
142
151
188
165
159
165
160
164
156
152
158
159
162
155
150
151
154
150
150
147
153
148
152
147
149
148
151
156
148
153
150
145
142
144
148
149
144
147
147
150
148
151
149
157
158
159
166
170
166
177
171
174
173
174
181
176
173
180
174
165
173
184
169
191
172
186
185
179
189
175
178
185
190
189
175
170
171
169
185
182
182
180
180
180
184
185
190
173
153
152
149
154
138
152
187
161
168
169
163
164
164
157
161
157
163
159
150
152
151
151
147
147
149
142
149
141
143
143
147
143
139
146
142
139
140
138
144
145
145
144
145
146
149
152
157
159
164
161
174
167
166
177
176
171
174
176
180
174
165
171
163
159
171
192
171
179
172
180
189
182
186
179
178
185
191
190
180
178
177
171
185
184
180
182
184
181
188
200
190
163
142
143
155
156
138
157
183
158
181
174
161
167
166
162
158
158
159
162
154
149
155
153
144
140
142
137
141
140
136
135
143
138
134
141
137
137
135
138
141
144
140
142
141
148
149
149
163
160
167
164
173
168
170
172
181
171
170
181
174
166
160
161
155
156
166
197
176
173
164
167
187
186
186
184
174
182
191
189
177
183
184
179
187
186
184
188
188
183
197
201
181
156
137
140
157
153
142
159
175
171
182
173
159
169
170
163
163
160
161
163
161
154
155
158
146
143
139
134
137
138
134
132
136
138
134
140
135
133
137
136
141
139
138
142
142
145
148
147
167
163
164
166
167
164
172
170
175
172
175
175
165
160
151
157
153
157
160
187
173
169
164
165
178
187
189
186
174
178
188
188
181
185
187
185
192
191
190
190
184
184
198
194
168
151
133
146
156
148
148
155
182
175
179
169
162
168
170
164
176
166
163
173
165
159
157
158
155
146
145
139
144
136
134
131
127
134
132
134
135
132
138
135
137
140
140
143
144
142
149
150
165
162
161
163
165
160
162
172
169
174
176
167
155
147
148
161
154
157
165
174
178
158
167
165
174
188
192
182
181
180
185
182
184
185
190
184
196
193
194
187
183
191
200
181
171
148
131
151
154
151
144
165
187
179
180
169
166
166
168
166
171
170
173
170
169
164
162
160
158
150
149
145
149
141
137
129
132
134
133
133
137
138
137
141
141
142
145
145
144
143
150
151
156
164
160
162
165
158
160
166
166
179
166
158
150
149
150
164
153
161
170
176
168
159
159
171
174
188
193
183
182
180
185
183
182
186
190
185
200
198
195
187
187
195
192
176
168
146
135
154
151
149
144
177
191
185
186
171
167
170
165
169
168
173
178
170
175
171
167
164
166
159
154
155
150
145
139
137
135
139
139
138
142
145
139
143
144
147
150
152
146
150
155
152
156
165
157
161
157
160
158
163
171
169
156
154
144
152
162
161
150
161
169
179
157
153
159
170
172
191
190
190
189
188
182
184
190
193
188
189
198
194
192
181
188
198
187
177
167
144
142
152
153
154
144
178
193
188
192
177
169
171
168
171
172
170
174
178
176
174
170
171
170
169
163
160
157
151
148
144
140
149
142
144
145
147
151
147
150
150
152
157
152
153
163
155
159
164
158
153
155
158
161
165
166
156
157
150
145
157
172
157
149
163
169
175
162
148
157
168
170
181
191
189
189
188
181
185
193
204
194
196
196
195
188
179
195
198
194
178
161
148
146
151
160
160
138
175
194
192
193
181
173
168
171
176
172
165
170
175
180
176
180
175
173
173
172
172
164
158
158
153
150
153
150
150
148
149
151
155
159
153
159
160
157
160
161
154
163
161
155
151
157
162
166
160
155
150
159
148
155
165
175
153
152
164
165
168
164
152
156
161
175
180
192
188
191
185
179
184
188
195
197
191
197
195
194
186
203
199
193
173
160
159
146
153
164
157
135
176
193
191
191
190
175
168
171
178
176
167
168
170
177
182
185
175
177
175
174
175
176
171
166
165
158
159
159
159
157
156
159
163
158
156
163
160
163
160
160
158
160
155
155
155
162
163
161
151
153
150
164
154
158
170
167
149
160
166
161
164
159
160
155
154
175
183
193
187
192
187
178
188
184
195
195
194
203
196
191
192
201
201
181
166
158
159
148
160
164
153
142
166
190
195
189
187
182
170
179
177
176
173
174
167
176
181
185
176
180
174
176
175
182
179
175
176
168
171
167
168
167
167
164
164
159
158
163
163
165
162
161
157
159
158
160
160
161
155
158
149
153
159
169
160
163
175
148
155
162
163
154
160
163
164
162
153
166
188
196
182
190
183
180
186
183
194
197
195
201
188
192
200
206
204
172
162
159
157
159
163
158
158
149
155
186
196
188
181
181
175
182
183
182
177
177
171
177
174
183
181
182
175
175
174
178
181
176
178
177
181
177
177
177
173
169
165
165
166
164
162
169
164
161
158
160
157
160
156
160
152
152
154
160
167
173
162
166
164
141
158
165
157
152
156
165
170
167
158
157
182
205
184
186
183
182
183
184
190
195
195
195
187
197
206
203
196
165
163
175
167
162
160
155
156
152
149
174
199
186
182
177
177
188
183
190
182
183
176
177
177
177
186
185
182
175
171
178
177
173
175
178
180
178
178
175
172
168
166
167
167
162
162
160
161
155
152
159
152
160
154
152
157
157
160
165
169
175
163
170
143
146
161
161
158
150
153
164
170
169
165
158
173
203
199
177
184
177
179
185
190
189
192
