P2
# Face with average contibution
92 112
255
194
194
199
195
204
203
206
207
207
205
195
198
204
214
218
204
209
200
199
195
183
180
179
185
185
185
192
203
191
200
196
203
194
184
181
184
174
175
169
169
178
176
175
179
182
191
193
196
194
206
206
197
193
191
199
203
207
211
219
214
215
210
206
211
220
206
219
224
217
200
198
202
194
192
199
205
203
203
202
204
207
200
192
188
192
192
196
193
195
196
196
195
192
201
197
201
203
207
204
208
205
198
193
205
206
207
216
216
216
201
192
190
186
180
177
169
173
189
187
194
187
181
186
181
192
185
179
183
177
181
178
168
179
174
166
173
174
177
181
186
188
194
194
193
193
185
184
194
198
193
195
196
197
206
206
207
215
206
208
225
224
209
200
201
204
197
196
201
199
200
210
199
201
203
194
189
191
193
187
191
195
192
195
196
198
201
200
205
205
207
202
203
200
197
198
211
217
209
209
212
215
194
187
171
177
189
186
172
171
178
176
174
171
175
180
177
178
183
182
185
176
194
193
164
170
174
170
176
172
179
180
183
184
177
173
185
189
179
174
184
189
183
184
181
191
198
187
201
199
211
211
218
221
213
214
212
208
205
208
204
195
199
201
202
196
200
192
195
194
191
188
189
191
192
198
193
199
199
202
206
204
203
199
201
202
204
206
213
210
208
206
211
212
195
176
176
185
191
188
180
168
161
153
158
165
164
173
172
174
178
177
189
183
182
185
175
166
162
172
173
172
173
173
187
174
166
167
180
180
185
180
173
181
169
173
178
187
191
187
187
187
200
222
217
218
218
214
216
219
204
215
209
197
191
196
199
201
189
197
191
196
193
186
189
189
193
189
195
197
199
205
201
207
201
196
199
205
201
205
214
213
213
203
207
195
186
178
178
183
185
178
171
173
164
149
144
154
155
157
166
175
167
182
181
180
171
176
169
155
160
175
180
172
166
162
174
170
165
175
177
183
180
173
176
172
171
177
187
186
202
201
194
183
195
206
213
217
225
224
218
213
207
218
215
213
192
192
193
195
191
193
195
196
194
192
193
189
188
191
193
201
199
204
204
201
196
197
201
207
209
224
223
216
211
198
185
178
175
172
170
176
180
171
166
169
160
150
145
153
153
153
153
153
158
161
168
166
165
164
162
156
153
168
169
167
167
166
175
171
162
172
175
178
179
178
166
167
170
180
188
193
194
200
197
195
196
201
209
219
227
226
222
218
205
211
215
218
205
196
187
191
192
188
188
193
194
190
195
190
188
193
190
206
203
199
205
196
194
198
211
210
222
231
220
207
191
192
183
169
167
171
176
175
174
167
165
163
165
168
165
164
158
157
158
160
163
156
152
161
166
166
155
157
158
172
175
163
154
160
171
170
165
175
180
178
175
168
163
163
178
193
188
195
195
196
199
201
195
202
203
218
213
219
224
230
222
210
215
212
208
200
194
191
195
189
190
193
194
193
195
193
187
188
188
204
198
201
204
195
193
197
208
224
226
225
202
194
185
178
175
175
177
178
182
174
172
167
154
155
160
172
170
165
165
162
167
166
163
162
165
173
166
162
148
150
154
172
176
167
163
164
177
172
173
186
198
186
177
168
166
166
181
187
199
202
206
199
200
192
203
204
201
212
213
216
227
224
232
220
215
218
201
196
206
196
185
189
194
197
195
194
193
189
186
185
190
199
198
203
196
195
192
201
212
218
220
208
195
188
177
177
177
177
180
181
177
164
166
166
166
163
164
169
157
163
170
158
165
168
173
167
177
170
163
166
159
161
164
178
177
174
170
175
184
171
167
171
191
188
181
175
180
173
177
184
193
201
202
199
202
205
211
212
203
197
215
218
232
226
228
223
221
220
201
195
199
201
188
185
186
188
189
191
189
191
189
188
189
201
199
196
199
195
202
213
220
221
208
204
197
189
188
185
177
179
177
178
161
150
150
158
160
166
162
167
167
163
159
173
173
167
172
166
170
171
171
180
172
167
171
185
183
185
188
191
178
173
169
184
183
192
194
188
184
178
179
172
186
197
190
198
204
211
209
211
210
202
206
219
218
232
225
220
218
219
208
190
196
190
195
186
180
186
187
190
197
196
193
190
190
202
201
195
198
205
209
221
218
206
203
196
189
182
189
193
187
187
182
169
161
154
150
150
160
172
168
171
168
162
167
176
181
171
175
181
182
188
189
189
186
183
190
186
187
194
191
193
186
179
181
185
193
186
190
186
173
174
177
166
179
188
182
189
205
208
214
209
206
206
209
207
212
221
224
227
225
218
212
193
188
192
191
196
180
184
193
186
187
192
200
193
190
203
196
198
204
209
213
215
207
202
205
193
180
182
182
188
187
181
184
183
170
168
177
167
175
182
188
182
172
170
176
187
180
186
187
182
185
190
192
196
193
205
201
202
203
206
198
197
191
185
194
194
197
190
186
180
176
175
168
176
187
186
186
189
198
199
209
203
208
211
211
214
213
204
213
221
214
216
212
201
200
195
186
201
188
176
192
181
178
187
194
195
192
202
197
197
205
207
212
198
199
200
201
186
187
188
190
189
178
177
172
164
162
170
188
180
175
186
174
178
180
179
182
191
193
191
195
190
195
196
192
193
195
199
205
209
207
204
202
205
192
196
206
200
196
188
175
177
187
178
180
188
189
183
185
191
192
196
202
196
201
206
207
209
213
209
209
200
203
211
208
201
191
203
194
199
206
188
174
183
180
176
180
189
191
193
194
201
209
208
198
193
197
200
200
196
200
206
213
193
188
189
185
173
176
179
179
179
186
186
176
182
168
180
188
191
192
190
197
194
185
193
185
189
194
190
206
206
209
205
202
208
201
205
210
203
189
172
164
171
181
178
179
182
189
181
178
188
189
191
200
192
196
200
196
204
202
211
212
213
207
201
207
208
192
195
201
200
201
201
184
177
178
182
175
183
182
192
193
207
217
197
182
189
197
207
208
209
206
205
213
199
200
187
186
189
194
191
188
181
172
173
171
171
176
177
179
185
181
187
185
188
183
186
184
186
189
192
203
211
208
213
211
216
209
208
211
203
194
178
176
179
178
184
190
181
188
182
180
187
190
199
195
199
195
191
194
191
208
204
218
211
207
199
192
207
191
185
190
196
199
200
199
184
169
178
176
179
188
194
202
216
196
185
183
186
193
204
204
205
209
209
217
212
201
187
186
188
190
196
188
185
176
180
167
164
183
183
179
182
181
185
186
182
179
186
178
186
199
199
203
211
215
215
220
221
209
206
214
208
198
194
189
184
178
187
180
177
181
180
180
182
194
198
206
210
202
191
191
200
202
203
209
205
209
201
187
193
186
180
187
194
204
202
202
193
176
167
168
178
187
202
204
201
192
185
193
193
194
199
192
195
197
207
195
198
185
183
186
188
189
181
182
180
172
174
167
174
180
181
172
171
172
182
179
181
186
186
190
198
201
207
200
210
215
215
218
212
212
212
210
208
206
200
194
186
183
181
182
178
188
188
186
185
194
196
211
207
210
207
191
195
205
204
198
209
203
204
190
191
189
192
187
190
199
211
199
203
189
173
167
166
184
200
198
191
195
197
203
201
204
195
198
207
210
197
189
180
184
179
183
184
180
175
172
173
170
165
166
170
168
164
161
164
168
173
171
177
187
187
190
197
196
201
202
209
216
207
206
204
199
192
200
202
198
197
193
193
187
183
177
171
186
178
178
175
182
181
193
196
207
205
195
189
200
202
201
191
205
195
189
190
191
194
190
194
189
203
202
200
205
190
171
167
170
197
191
186
197
197
204
198
199
204
222
221
210
198
191
189
188
185
183
174
168
174
175
170
160
159
151
154
152
152
156
162
173
169
167
181
183
187
185
184
186
189
199
206
208
206
203
201
197
196
200
195
203
212
195
196
200
189
182
175
182
179
181
173
177
181
184
187
199
208
196
203
199
202
211
205
185
198
188
191
191
191
187
189
199
201
197
200
200
195
185
176
167
184
177
192
199
192
194
195
198
220
213
213
211
200
198
203
191
184
177
172
173
181
182
158
150
156
148
151
152
151
156
160
163
159
169
179
183
177
178
180
182
180
185
194
195
196
204
199
202
201
196
196
202
215
201
197
200
202
195
188
191
179
184
182
178
175
186
181
187
204
208
204
205
203
220
206
192
190
189
189
185
188
181
190
197
201
198
205
204
194
188
188
171
181
182
206
198
189
196
207
212
217
213
204
190
193
196
198
196
183
176
178
184
188
178
158
158
154
154
155
157
154
160
160
155
158
165
172
173
171
182
183
183
186
185
187
195
193
195
203
205
203
196
199
205
204
195
201
205
203
200
189
189
187
185
191
185
183
189
179
175
188
198
192
205
208
214
213
202
194
191
180
188
186
185
186
190
186
190
203
200
202
184
186
180
188
196
203
201
186
191
204
219
205
198
199
196
200
192
192
189
189
170
186
189
184
176
168
161
160
159
155
158
155
159
159
157
159
170
178
177
176
178
181
179
183
181
180
188
188
194
200
205
201
197
202
194
198
201
204
211
215
208
202
199
195
201
197
195
194
184
180
181
176
183
193
206
207
219
214
206
210
192
178
176
186
179
176
194
175
185
195
202
197
187
188
182
196
203
185
188
180
196
213
214
194
194
195
202
198
192
185
185
184
179
184
188
184
174
175
172
160
153
155
160
160
167
162
168
177
175
179
177
172
176
180
176
180
182
183
187
194
199
201
201
203
200
198
189
199
195
202
210
215
208
208
209
202
196
196
201
195
194
180
183
180
177
195
196
202
217
208
205
205
192
181
175
179
169
175
174
192
182
191
194
201
189
193
189
198
196
189
180
183
201
217
204
187
188
187
199
192
186
189
183
180
180
181
183
185
177
177
172
164
157
167
175
177
174
177
185
178
181
176
182
175
181
177
177
182
187
183
194
196
195
195
197
207
204
200
194
201
198
198
203
208
208
206
213
203
198
194
195
192
191
192
183
184
183
184
190
196
205
204
202
190
197
183
176
180
173
168
164
181
189
190
190
202
201
194
194
199
190
189
187
192
215
226
198
192
186
186
201
191
194
192
189
182
182
184
184
180
179
173
170
171
177
173
183
187
186
190
188
181
180
180
183
181
181
184
185
188
189
189
193
193
198
205
204
206
202
209
203
200
201
203
197
199
194
201
206
202
197
188
188
190
188
193
192
184
187
184
180
189
200
195
188
195
183
188
182
178
175
179
176
170
181
184
189
200
204
195
196
200
197
201
181
201
216
209
188
193
195
198
203
204
198
195
190
183
182
179
180
177
176
177
179
183
182
185
193
198
191
189
185
188
185
183
186
193
190
189
190
195
195
196
198
201
204
212
210
210
207
208
207
203
199
201
199
197
193
196
196
199
196
190
184
185
185
185
188
193
191
186
177
177
197
186
186
197
195
187
191
180
182
184
186
183
180
175
183
193
196
195
200
196
197
201
192
209
216
207
187
198
197
208
207
203
196
200
191
180
177
178
179
184
182
181
180
196
187
192
199
199
200
185
192
188
187
188
190
197
191
191
195
192
192
197
198
200
205
211
211
207
206
202
200
197
198
194
194
191
194
193
192
193
188
185
190
183
183
183
190
190
190
189
180
172
179
193
189
191
194
186
193
190
184
192
186
187
185
185
177
183
189
193
201
192
192
208
199
206
212
200
184
196
201
207
202
207
210
196
183
178
179
181
184
191
185
188
186
186
195
191
196
202
195
194
195
190
185
188
186
193
194
187
192
190
186
195
199
201
204
206
208
207
202
195
195
196
193
187
183
189
187
187
195
189
184
189
187
188
187
188
193
192
190
189
183
175
170
187
186
195
194
183
179
185
184
193
196
191
193
182
184
186
183
193
198
191
190
215
202
204
200
188
181
184
202
203
201
213
212
188
183
186
187
187
189
191
194
191
189
193
190
193
197
208
202
194
197
193
190
191
189
190
200
193
193
195
188
195
198
198
200
200
203
200
192
195
191
193
184
180
178
181
179
188
193
186
187
190
192
191
199
195
203
199
187
185
179
180
175
180
182
190
203
188
175
175
178
188
195
194
193
186
190
189
180
189
190
190
201
217
202
206
190
178
188
185
201
201
213
218
211
193
192
188
193
187
189
190
193
195
190
192
188
198
196
200
202
196
196
193
193
194
193
191
192
194
192
190
190
193
193
199
197
194
194
193
192
191
184
183
179
179
177
176
181
190
189
187
193
199
197
199
198
201
212
212
193
190
185
179
175
183
182
180
197
202
177
179
173
188
196
183
187
186
183
185
190
184
193
186
216
217
193
202
173
174
183
191
201
220
223
219
214
193
191
196
191
193
190
187
190
193
194
193
197
193
189
196
197
201
193
189
190
193
196
189
188
194
193
187
187
191
186
192
194
192
188
191
191
188
184
182
182
183
182
180
180
187
186
189
196
199
203
201
202
206
210
218
202
198
197
186
186
181
185
184
187
201
188
184
186
178
192
186
174
176
182
184
186
191
185
200
206
213
196
190
164
169
182
201
215
222
223
223
209
193
194
204
194
190
188
183
185
188
190
191
186
182
186
187
193
193
191
190
184
189
190
191
188
188
188
190
185
191
187
189
190
191
185
192
194
190
188
188
190
186
188
190
185
193
189
198
204
201
210
205
207
208
213
216
213
204
204
192
190
186
188
188
183
196
192
192
199
188
192
183
181
181
176
175
188
193
186
204
205
206
199
179
165
168
181
202
212
219
221
222
202
194
199
198
188
183
182
186
183
184
187
184
178
180
184
185
186
187
189
187
189
187
185
185
191
184
186
190
181
183
184
188
192
191
193
192
192
189
182
188
197
194
191
197
200
198
204
203
205
203
211
211
212
210
213
220
210
210
214
191
197
192
194
193
181
189
198
191
197
197
198
195
182
181
185
169
177
191
188
211
205
200
185
175
172
171
184
202
214
218
219
221
200
193
190
188
181
181
182
187
184
186
178
181
174
175
177
184
185
182
184
182
183
188
187
185
189
186
184
187
188
181
182
186
188
187
189
193
190
187
180
188
201
195
199
200
202
203
203
200
205
203
210
213
213
209
212
222
212
213
220
198
191
199
188
194
180
178
198
196
196
193
192
206
195
186
187
182
185
178
186
215
202
189
172
183
167
176
193
203
212
215
222
213
208
195
188
189
182
181
182
180
177
170
170
172
173
176
177
182
192
191
186
185
184
188
190
186
189
186
183
188
188
182
179
184
191
187
189
194
189
185
182
192
194
197
197
204
202
205
201
199
198
203
206
209
209
200
202
215
217
212
215
210
200
198
192
189
190
178
183
191
194
201
188
197
206
197
185
190
190
187
188
219
191
180
174
187
172
179
198
207
203
218
215
211
207
193
188
190
183
180
182
177
180
168
167
167
171
170
172
174
182
183
185
178
181
181
183
182
179
183
179
179
182
177
175
177
186
182
178
191
187
179
184
193
192
197
197
203
201
207
206
204
206
208
208
210
205
199
201
209
211
214
213
207
202
205
197
191
182
190
183
188
190
198
199
190
208
198
189
188
195
186
194
212
198
180
176
187
172
176
201
207
208
210
208
210
203
188
184
187
187
183
189
181
177
176
170
167
168
168
169
170
170
175
175
176
179
176
179
179
175
179
179
177
178
177
173
177
178
173
174
180
186
181
187
186
187
191
191
199
195
201
201
201
205
215
211
206
202
201
204
214
215
213
213
214
197
200
200
193
184
179
185
190
183
199
207
191
192
205
189
192
191
188
188
211
208
183
181
183
167
184
208
206
210
212
212
214
199
179
187
197
194
193
201
186
183
183
179
174
174
169
173
173
165
169
165
171
172
171
170
172
172
177
182
175
176
178
174
171
171
169
177
181
183
183
185
188
193
202
203
203
199
203
202
200
205
207
209
209
207
205
203
213
217
212
213
217
208
204
207
189
180
175
175
182
186
189
213
195
177
194
193
185
191
187
198
216
209
188
179
182
175
195
214
205
205
210
209
207
190
179
195
199
207
207
213
196
184
183
184
185
187
188
194
191
184
186
185
187
183
180
167
169
169
166
172
167
168
168
172
166
173
175
182
192
189
191
197
203
212
216
219
217
210
208
200
196
201
197
204
202
204
204
205
207
215
216
212
214
215
212
217
197
180
172
176
180
184
193
206
200
179
196
195
191
178
191
196
221
205
182
177
176
184
204
213
213
199
199
203
195
184
184
200
201
204
213
211
198
188
193
197
195
209
200
200
192
180
179
177
167
161
158
158
168
171
169
171
166
168
178
174
182
190
194
197
208
213
213
220
226
227
222
217
219
204
199
197
196
194
190
199
193
189
194
189
192
196
205
216
216
219
218
229
209
183
175
168
180
187
189
200
208
193
194
199
194
178
188
199
226
207
183
170
159
188
206
211
215
196
207
198
198
193
190
196
205
201
203
203
204
194
201
202
195
200
191
186
194
184
190
193
184
185
179
187
184
185
188
178
179
170
182
173
178
187
194
195
209
215
215
221
215
211
208
213
207
199
200
198
193
187
181
186
186
182
182
186
182
192
187
198
202
201
210
214
208
190
174
173
170
187
194
196
217
200
187
196
205
173
181
200
223
197
191
164
172
193
199
216
216
204
201
201
208
199
205
206
205
202
202
198
203
199
197
195
200
201
201
195
201
200
196
200
187
195
187
192
189
187
198
185
180
174
187
176
182
194
197
196
214
206
213
218
212
207
207
207
197
193
194
178
173
169
167
176
171
170
167
166
168
174
170
186
196
191
198
207
191
185
175
164
164
181
188
203
208
196
186
191
190
182
178
205
207
192
192
174
195
198
195
224
222
203
213
212
216
213
212
211
216
204
197
185
190
195
194
201
211
202
195
191
195
195
196
194
189
190
183
189
190
185
186
180
179
165
183
176
189
200
190
196
200
195
198
210
212
205
203
191
186
178
164
151
154
147
156
166
164
172
170
164
158
157
165
171
185
193
189
207
196
179
179
169
176
179
172
208
208
197
185
196
189
178
196
203
187
197
185
189
211
203
198
225
232
213
221
227
219
222
211
215
207
203
201
184
194
193
193
201
186
189
175
176
185
184
177
183
182
177
179
173
172
176
173
167
174
155
173
171
182
204
200
196
193
193
200
209
207
197
186
179
177
168
158
138
149
157
161
159
161
174
169
167
161
160
161
174
175
179
183
185
205
182
169
166
173
182
181
196
215
202
183
186
189
180
195
209
194
198
185
197
209
210
205
222
235
225
213
214
215
217
218
203
190
204
208
197
197
199
191
185
171
162
157
166
169
177
165
181
172
165
162
165
167
179
172
166
173
181
164
168
186
196
206
205
195
189
198
189
191
187
184
178
190
185
172
164
156
171
150
146
152
163
170
162
169
171
168
168
186
184
195
192
203
186
174
159
167
173
179
186
202
218
187
176
180
187
191
211
203
201
194
196
203
219
206
209
218
214
193
188
203
214
206
206
190
213
213
203
196
194
195
190
196
174
162
178
160
169
180
186
183
167
162
164
169
180
177
170
164
180
152
157
190
199
214
195
182
193
203
180
194
194
179
191
212
193
179
153
175
182
171
173
168
173
186
167
178
199
200
198
201
205
210
205
212
203
181
160
158
173
183
182
196
211
194
174
179
181
183
210
207
207
193
190
196
223
203
188
185
197
177
181
193
213
194
201
188
211
210
195
197
208
203
193
199
192
161
156
146
170
181
187
183
186
185
177
182
193
192
193
177
185
168
186
206
213
213
192
189
197
206
175
196
193
204
216
227
185
176
147
173
198
192
191
190
189
195
177
187
209
210
213
213
209
217
213
212
218
204
172
157
173
190
185
195
198
192
176
185
173
179
209
197
209
187
200
197
221
208
178
183
180
177
193
194
201
191
186
173
190
197
184
190
201
196
185
190
192
171
127
151
174
192
196
195
194
206
201
207
204
205
205
194
190
193
202
207
205
196
186
198
188
203
189
191
187
217
230
219
195
183
188
182
176
199
210
199
203
188
180
194
193
194
200
194
211
210
208
209
225
215
162
156
175
191
190
191
194
187
177
173
170
172
201
183
208
211
203
199
223
207
192
187
178
177
196
206
188
187
182
179
188
198
181
185
186
208
201
186
179
166
131
133
175
164
189
202
200
205
216
221
205
208
204
198
182
191
188
194
192
185
179
192
178
193
185
176
174
194
227
201
205
201
206
180
183
200
206
203
190
193
185
189
193
190
181
172
196
214
211
209
214
211
167
163
174
188
179
186
193
195
175
176
162
169
190
192
208
214
213
207
219
218
200
188
185
184
188
199
189
194
184
190
201
214
176
180
202
204
216
198
161
145
138
151
171
173
176
183
194
219
223
215
210
215
212
208
190
187
185
175
175
174
168
174
174
179
176
174
165
186
217
219
212
222
202
181
185
200
190
203
192
196
192
195
203
200
191
176
191
230
211
213
212
201
165
184
172
180
182
182
186
200
173
184
176
168
188
199
226
194
197
199
213
228
201
190
196
199
175
198
205
202
189
196
213
210
181
179
186
210
196
185
148
157
141
166
178
183
186
179
188
226
235
222
211
215
211
202
179
176
182
165
163
162
157
160
165
171
169
168
165
172
205
219
222
216
198
182
176
175
169
193
201
195
187
200
206
213
205
191
204
225
211
213
213
198
182
185
163
183
189
180
180
200
178
192
195
174
193
186
227
226
186
196
197
226
207
182
200
201
211
208
208
212
197
211
231
193
180
192
206
210
185
176
167
155
162
174
173
196
196
192
201
212
213
209
208
199
199
185
165
167
173
167
161
147
142
154
150
163
173
168
175
180
190
201
207
205
216
185
183
177
181
207
200
203
199
207
200
199
181
185
188
218
221
218
211
198
191
181
169
182
196
181
194
209
190
197
196
188
198
182
229
255
213
209
207
226
208
180
199
196
224
216
215
215
196
214
239
181
170
177
202
213
205
199
190
175
173
180
168
182
181
183
199
199
182
174
173
164
179
170
153
161
169
174
171
148
153
149
154
166
177
173
183
182
185
201
207
207
217
195
197
201
194
201
204
188
194
197
213
181
164
169
176
215
214
217
216
208
199
181
176
198
206
211
208
216
197
190
194
196
213
187
227
244
205
207
215
226
207
171
188
193
206
211
213
220
209
213
235
190
172
172
187
205
205
199
180
165
159
170
158
164
169
179
199
193
182
168
155
154
172
160
143
163
170
175
177
184
173
166
154
171
184
177
185
185
184
205
212
204
208
191
207
209
207
188
211
184
191
194
201
181
163
154
166
206
214
219
217
200
212
189
186
209
228
217
200
206
185
176
183
193
228
184
217
228
185
185
203
212
214
176
174
188
184
201
199
204
202
210
222
200
179
187
190
195
205
208
186
171
169
173
171
175
179
194
198
193
176
170
146
147
170
145
135
162
168
172
183
186
198
180
168
179
201
195
187
201
196
207
214
208
203
189
192
194
191
183
190
194
191
182
179
177
181
167
178
215
223
212
214
198
209
191
196
214
228
216
197
180
189
175
181
183
236
191
221
221
193
196
181
211
206
189
169
186
171
195
178
200
170
191
206
187
179
185
184
186
190
197
192
176
173
175
174
163
186
191
196
201
185
179
164
180
174
155
152
155
168
163
174
183
188
179
161
166
192
195
189
198
196
198
206
201
198
194
190
190
198
196
200
193
183
176
176
168
179
181
186
213
217
210
214
203
194
190
205
231
220
197
192
170
184
188
194
178
222
182
217
214
190
208
168
199
198
182
172
183
171
184
180
202
151
178
193
166
170
180
182
186
193
204
204
198
188
185
177
177
190
199
201
198
183
174
165
186
173
165
157
167
165
170
166
165
166
170
159
149
173
185
184
186
189
191
194
197
191
179
171
170
184
191
187
187
183
171
175
188
189
194
195
213
215
210
222
193
193
200
208
230
223
198
191
162
183
190
192
182
214
171
214
208
194
212
179
191
204
174
168
183
163
171
182
201
165
154
188
171
172
175
177
181
190
201
204
201
195
190
188
195
193
195
200
188
183
167
180
170
177
162
154
162
160
168
159
155
162
167
148
137
154
164
184
191
184
182
187
191
182
177
173
170
175
185
182
185
175
155
165
179
188
186
187
198
220
205
219
203
208
204
216
227
224
208
197
166
175
190
188
186
213
172
209
212
197
215
197
203
197
175
174
187
166
164
180
180
185
148
184
177
175
174
175
185
183
190
196
182
181
186
184
186
181
177
179
180
168
163
172
164
170
155
149
156
166
167
157
158
160
158
150
144
154
163
165
178
176
170
168
170
170
167
171
178
175
174
174
171
165
154
164
173
174
172
179
192
207
225
225
222
211
222
213
218
216
202
189
159
169
187
194
192
213
182
196
205
196
208
195
201
189
187
185
185
174
167
181
160
199
155
173
184
171
175
171
182
183
172
175
178
178
179
169
167
174
176
177
180
175
191
174
183
167
163
156
155
159
161
150
156
160
152
149
147
155
163
167
166
167
161
156
156
171
166
164
163
165
161
163
161
155
157
164
174
176
177
182
199
198
238
223
223
217
227
203
205
204
200
179
151
167
184
197
196
218
188
192
198
196
202
189
204
190
190
193
176
190
171
186
167
208
176
170
173
171
172
175
184
187
184
174
164
172
169
170
171
189
192
184
170
188
185
188
186
178
167
162
156
148
150
152
153
158
157
147
145
157
159
161
154
156
174
166
168
173
178
174
171
164
164
169
166
167
172
174
175
180
181
187
192
207
230
227
217
218
223
195
184
190
200
178
161
160
181
194
196
230
201
181
182
196
201
196
211
185
188
195
172
183
177
185
205
202
211
181
180
172
168
169
184
188
184
176
161
164
173
176
186
195
190
183
178
191
188
193
179
175
173
168
146
144
149
152
159
166
164
151
146
157
159
154
151
156
170
183
187
187
187
178
179
179
175
181
178
179
179
185
182
185
190
206
201
214
222
223
216
213
222
200
177
180
204
169
160
155
182
194
198
239
229
170
163
190
204
195
215
186
186
197
171
181
175
180
214
185
209
197
180
173
174
170
177
175
173
170
165
168
172
179
191
188
190
194
182
187
196
191
173
175
176
163
156
154
156
164
174
173
166
155
161
162
167
154
155
154
161
180
185
204
210
198
190
193
185
178
180
179
186
191
193
200
201
209
204
206
219
223
211
215
200
179
180
172
194
165
147
155
187
193
209
232
239
179
157
178
199
181
204
180
177
195
173
182
178
189
186
208
177
198
184
178
170
172
175
178
174
170
166
174
182
186
187
205
202
190
188
190
191
181
171
169
177
180
176
170
158
180
186
182
171
171
170
172
179
157
157
159
162
180
174
198
213
214
210
208
201
197
193
196
194
197
194
193
200
197
205
205
219
223
214
209
188
166
181
175
187
163
146
163
182
187
217
215
244
193
156
172
197
174
186
183
163
179
173
173
182
189
187
197
196
177
178
182
177
175
171
175
175
175
175
181
193
200
210
216
205
192
189
193
183
170
162
170
179
194
186
185
167
192
198
180
178
170
163
181
187
176
170
170
174
183
185
186
198
198
201
205
199
193
189
200
197
194
188
192
197
201
206
211
222
217
217
204
183
175
175
181
179
159
151
183
181
195
216
203
236
210
159
174
190
171
175
191
171
172
179
175
183
190
192
193
190
188
175
179
189
189
183
190
192
191
192
201
202
204
210
203
189
184
182
184
179
169
170
173
188
192
193
188
186
187
198
190
182
177
162
179
192
193
187
188
193
194
198
187
190
195
193
199
191
184
179
186
194
191
193
196
205
208
202
214
217
213
209
199
185
177
173
181
175
167
166
189
182
211
209
196
228
224
168
169
190
175
181
175
187
179
192
182
179
188
195
197
188
184
177
178
182
178
172
179
181
180
184
187
186
189
195
185
179
184
182
182
184
183
184
189
190
184
192
186
186
188
195
181
180
175
161
162
172
188
193
196
201
209
205
193
196
206
198
198
193
184
178
183
188
184
184
192
200
203
204
214
216
212
202
203
194
179
176
179
167
168
175
193
184
211
191
178
223
228
182
169
173
171
181
169
176
184
200
192
180
192
192
199
193
185
179
174
176
173
162
170
178
178
181
178
172
180
190
186
187
191
189
186
185
184
195
205
190
182
188
190
182
180
191
174
165
165
158
162
170
190
184
186
196
204
204
198
200
208
200
196
194
183
177
188
187
188
187
192
194
194
202
218
211
197
191
194
195
180
181
165
164
166
186
195
198
196
179
170
215
228
198
178
166
160
183
182
175
183
204
194
183
190
195
199
198
195
184
179
174
173
170
167
174
177
178
173
172
176
198
193
197
200
196
192
182
190
204
204
194
181
181
183
182
177
187
168
154
155
151
162
170
181
174
171
187
190
197
195
196
203
198
191
187
180
179
192
189
188
191
190
192
192
202
216
201
190
184
182
189
185
182
168
162
168
189
203
209
181
166
176
204
223
211
199
186
160
190
191
175
178
203
198
190
190
200
199
203
201
192
186
179
176
172
169
176
176
177
175
174
183
204
206
198
199
184
182
174
173
187
183
195
195
183
173
171
175
186
162
145
145
148
157
171
173
170
167
177
186
189
195
195
199
198
186
181
177
178
189
185
190
191
194
195
196
202
203
198
188
188
182
187
196
191
174
163
170
195
213
198
174
165
182
206
207
215
201
212
179
182
204
175
170
192
200
195
200
199
202
211
205
197
191
192
173
169
179
177
172
170
172
189
196
211
208
196
195
176
167
163
169
178
187
199
201
196
183
178
173
170
157
141
129
140
154
161
162
172
175
175
187
187
189
198
198
191
181
173
173
184
189
189
191
199
197
198
205
207
201
190
204
191
180
178
196
195
175
165
177
196
202
190
176
176
179
186
188
199
183
209
213
189
209
179
164
187
202
190
206
202
199
208
204
198
197
198
176
182
187
176
168
173
184
197
202
209
206
197
200
186
174
177
182
187
193
202
204
204
197
189
185
170
155
146
135
134
147
155
154
159
173
180
188
187
185
182
186
185
171
174
174
182
191
188
192
197
195
202
208
212
194
194
205
188
181
169
188
198
181
184
184
197
186
177
182
175
184
170
167
176
164
190
218
213
224
198
174
188
206
193
205
207
203
204
198
195
197
193
183
192
187
176
177
178
193
200
200
207
210
208
218
207
190
192
195
189
183
198
200
203
192
184
176
168
161
159
156
143
145
152
154
155
164
163
172
181
177
176
184
172
166
184
184
181
184
184
185
195
196
202
206
209
187
197
195
187
182
170
184
194
185
189
193
192
181
182
177
171
184
158
152
176
163
165
180
215
219
216
206
195
227
210
211
207
207
199
190
192
192
193
189
199
195
186
185
185
191
199
199
194
195
207
215
213
215
202
194
182
170
181
186
187
190
176
179
165
155
158
150
140
138
149
149
152
159
163
170
178
183
182
180
180
174
188
183
181
178
176
185
192
196
199
201
200
182
192
191
182
173
163
188
186
189
193
200
186
183
178
177
168
180
163
154
176
188
171
161
181
205
209
216
215
243
225
222
209
208
187
185
185
187
192
189
202
202
194
190
192
189
188
192
174
179
202
209
209
211
209
187
171
162
162
160
169
172
175
181
173
155
151
142
132
138
138
146
151
161
162
170
184
186
186
188
186
190
186
184
180
173
175
186
188
194
195
203
193
186
196
183
173
168
164
184
189
191
198
205
191
179
175
177
166
180
166
157
177
203
196
162
166
176
201
201
217
232
223
230
207
198
182
181
181
189
184
194
202
204
196
189
181
178
177
174
167
174
192
198
194
190
194
176
164
156
158
156
161
165
163
160
160
152
152
144
144
144
143
148
155
165
165
166
183
182
189
195
186
188
183
178
171
168
184
183
184
193
192
195
192
182
200
185
174
162
167
183
188
192
197
216
186
168
176
173
166
186
160
163
170
198
219
173
169
169
193
193
206
213
218
232
206
189
182
185
182
184
183
185
194
196
191
178
174
165
170
165
167
165
172
173
174
180
179
174
168
161
163
166
170
171
169
163
157
159
172
172
160
160
155
165
169
172
179
173
180
191
188
195
188
192
183
171
174
171
180
187
183
190
190
190
183
176
192
179
166
156
164
179
177
184
205
205
184
158
172
172
167
188
164
166
165
187
216
196
177
172
188
191
196
199
219
231
203
186
186
184
187
184
177
173
182
186
177
163
162
160
169
170
167
169
171
171
171
170
179
177
184
182
180
175
175
181
186
184
176
171
180
178
177
174
172
180
187
188
191
183
178
192
189
192
191
199
195
192
189
179
183
189
190
182
187
185
179
172
176
170
159
146
162
167
175
193
204
197
180
152
176
169
168
186
169
166
175
177
199
208
186
171
182
188
189
198
211
227
200
189
189
181
185
181
171
172
179
171
160
155
147
167
175
174
185
182
176
177
181
184
183
185
199
205
210
203
201
206
196
198
199
198
188
192
189
189
196
199
202
209
210
202
195
195
203
203
201
208
209
201
199
196
196
196
193
187
186
185
186
171
165
172
158
151
166
176
183
203
201
199
166
155
181
166
168
182
167
169
175
175
199
204
183
175
181
178
188
189
209
218
199
190
192
185
184
177
174
180
169
161
153
147
146
169
176
182
183
180
175
178
183
190
190
191
201
208
227
231
223
213
204
194
195
205
198
195
184
186
210
221
222
236
227
219
218
221
215
217
214
216
218
213
206
204
210
203
197
193
191
188
195
177
163
177
161
150
176
180
197
203
197
182
163
160
176
166
165
189
169
172
167
176
198
196
175
180
189
181
181
186
197
203
215
186
191
185
180
177
180
175
171
163
157
146
149
170
180
185
188
178
170
176
181
184
202
202
217
217
228
221
220
207
206
195
188
211
206
202
190
189
217
226
229
243
236
228
235
240
230
226
223
228
230
225
218
212
207
205
196
193
196
194
219
189
174
185
155
156
176
182
199
193
186
174
158
172
170
163
166
185
175
170
166
177
196
192
174
177
189
191
181
181
186
197
211
189
188
187
182
182
187
177
176
178
173
157
160
170
180
191
199
184
174
174
179
191
210
217
229
227
241
221
219
197
198
191
183
203
199
204
192
191
218
226
229
248
242
233
231
243
225
224
211
223
239
243
231
218
208
202
196
193
201
206
224
204
190
191
147
162
176
179
190
184
176
165
166
179
166
160
168
185
173
170
173
177
183
199
175
181
177
190
179
173
173
180
215
191
184
185
186
187
189
184
185
191
188
177
182
193
196
207
204
191
190
180
186
204
218
226
240
251
254
233
234
214
197
188
190
206
204
198
204
212
220
228
233
231
214
219
234
241
219
223
217
207
238
243
220
205
211
198
197
203
198
213
219
211
208
190
153
173
173
175
187
175
165
169
179
177
168
160
168
184
172
173
174
176
177
199
186
179
176
188
188
165
158
172
205
193
180
181
187
191
190
195
198
207
195
188
195
210
214
230
223
211
215
214
219
239
242
234
229
247
248
247
238
231
216
212
210
217
214
194
211
228
212
212
209
205
197
208
222
231
218
216
220
208
230
219
204
202
207
200
200
208
198
217
220
211
207
175
164
177
165
173
181
172
165
179
179
172
166
164
172
183
170
174
177
171
172
200
196
175
174
189
189
168
159
170
190
197
171
183
187
191
194
199
204
200
193
183
197
210
217
220
226
227
228
219
220
218
226
224
201
217
217
236
231
226
218
210
218
221
210
189
193
212
190
179
181
178
189
196
220
208
196
198
204
201
212
210
205
206
199
200
203
199
193
211
221
209
202
161
176
175
166
174
181
175
178
182
177
172
166
168
173
179
177
174
172
175
170
194
206
176
178
180
189
175
166
165
187
189
168
173
188
195
201
205
209
204
193
178
188
203
210
208
218
221
223
194
197
184
192
198
171
172
181
197
185
188
194
182
183
194
182
173
174
179
157
148
160
163
164
168
199
175
174
179
186
192
187
200
196
195
188
195
198
187
190
206
212
205
188
160
176
172
165
178
186
181
181
180
177
172
172
170
170
178
177
175
172
180
176
184
205
192
181
172
182
179
168
163
180
190
174
159
166
182
197
203
209
203
195
184
181
196
195
199
209
205
216
192
186
186
181
186
160
157
158
174
168
162
157
161
159
176
168
149
153
137
140
150
182
177
173
177
188
179
178
185
183
191
181
178
177
179
180
191
190
178
191
195
198
188
164
153
172
171
173
185
183
181
180
177
174
169
172
175
168
176
171
172
176
186
181
177
198
208
178
171
175
172
171
158
174
196
185
167
172
170
178
189
204
203
196
183
173
190
181
192
200
192
202
192
195
182
185
199
175
162
163
182
181
176
173
164
158
166
168
153
165
153
146
151
161
173
166
172
175
177
178
184
186
186
182
179
166
166
169
179
179
176
179
180
182
167
152
150
168
163
183
190
181
178
181
173
168
170
173
174
168
176
170
176
183
189
187
177
183
203
199
175
168
168
169
167
172
206
189
182
176
175
181
186
195
189
189
178
179
180
181
193
197
195
186
179
174
165
167
180
180
164
158
173
172
172
171
173
169
174
171
169
166
160
147
145
138
146
151
155
157
163
162
160
177
189
177
174
168
160
168
169
171
172
173
176
176
149
149
152
168
169
190
191
183
190
178
169
169
167
177
171
172
180
175
181
190
187
189
184
176
196
202
207
186
172
177
177
182
205
192
189
181
182
185
185
188
186
180
162
170
163
162
177
189
190
185
167
161
155
157
160
162
163
165
169
179
180
178
183
173
179
172
163
158
158
167
172
170
167
171
169
165
171
163
177
192
196
187
178
174
172
170
182
186
180
182
189
168
145
152
153
169
175
193
194
186
191
177
173
169
170
179
175
176
176
178
185
189
189
189
185
175
192
202
213
207
193
194
196
185
201
196
196
182
185
188
191
188
190
187
171
167
169
159
176
187
188
193
184
175
170
168
167
169
176
185
181
181
185
188
181
178
184
185
177
172
177
175
177
184
186
188
183
185
188
192
197
193
189
186
187
182
177
178
185
182
179
191
194
158
157
154
163
174
184
192
195
192
190
179
177
170
179
172
183
173
172
182
184
187
193
188
182
181
195
203
202
208
199
201
201
188
200
188
202
182
184
193
195
190
187
186
181
185
175
177
187
195
193
199
193
195
179
180
178
181
186
184
179
183
189
195
193
192
198
199
192
185
180
174
173
196
195
193
201
203
200
197
198
187
182
184
192
193
184
177
185
174
186
195
186
154
162
162
169
182
187
186
190
196
185
180
178
174
169
176
188
180
174
180
184
192
188
189
190
193
193
210
199
201
206
204
202
196
201
184
206
191
185
190
191
192
182
189
186
199
193
190
200
205
200
208
196
198
192
183
184
184
194
186
175
179
177
182
181
182
190
189
194
189
189
199
189
206
206
203
203
197
195
194
196
187
186
183
193
191
182
174
187
179
186
198
174
157
169
172
183
188
187
187
187
193
183
186
176
180
169
169
190
185
182
178
187
188
187
190
195
196
195
206
205
199
201
204
195
184
203
199
199
198
181
191
197
193
190
186
187
194
199
191
206
201
196
208
205
205
204
201
206
205
209
206
199
198
193
188
192
188
193
191
192
193
198
206
202
203
201
203
197
190
187
187
190
185
177
179
187
183
177
174
186
181
184
189
176
158
171
194
187
194
188
182
188
192
185
179
181
177
170
174
182
195
188
180
190
187
190
191
197
193
200
212
210
192
195
191
180
183
211
210
197
198
188
188
201
199
193
187
189
190
197
193
201
198
195
201
203
208
208
210
221
223
219
227
224
223
217
212
210
204
207
204
199
208
205
210
212
203
198
196
195
193
188
184
187
179
181
183
181
181
177
179
185
179
188
185
176
173
178
202
192
201
186
182
181
180
187
179
182
178
173
173
184
193
194
183
184
191
196
198
198
199
201
214
207
187
177
179
178
177
205
217
204
204
188
190
196
195
190
190
193
195
199
194
196
192
192
195
203
203
202
205
208
213
208
218
216
215
218
218
216
210
214
209
213
216
209
210
208
205
192
200
203
191
189
182
188
181
190
185
177
183
175
175
183
177
190
187
178
180
192
199
196
198
193
180
175
169
178
187
185
185
172
178
183
186
199
182
184
198
196
199
199
200
204
202
182
166
181
178
173
170
203
210
206
208
189
187
192
194
189
187
189
195
201
189
194
192
196
191
201
202
200
202
205
211
210
207
204
202
209
204
202
207
211
206
212
214
212
205
202
203
197
200
200
191
186
183
185
187
192
184
182
183
172
178
182
177
194
195
178
187
195
198
191
199
196
188
172
170
172
185
190
183
176
182
187
188
195
179
189
194
200
201
200
204
182
171
169
173
192
178
166
184
196
204
210
220
187
183
195
194
188
190
181
188
194
192
191
195
195
191
197
208
208
205
212
210
214
212
212
207
211
204
209
211
214
210
217
215
217
214
210
216
209
206
199
191
192
185
194
197
196
188
186
177
172
184
178
172
202
194
185
189
195
206
194
193
190
195
180
172
171
183
190
181
181
184
193
191
191
177
185
188
195
195
196
184
154
156
182
187
189
180
174
191
202
191
208
208
203
174
188
190
192
188
180
187
195
192
196
195
196
198
202
204
209
207
212
211
212
217
214
216
215
210
215
214
217
215
219
216
219
214
215
217
212
208
197
195
193
191
199
204
192
189
186
176
171
186
174
181
203
202
175
184
202
206
203
197
180
182
190
180
173
183
189
183
179
192
195
196
194
165
176
178
184
192
190
159
146
161
195
188
188
189
180
199
203
199
189
193
210
182
177
189
187
189
178
187
183
188
193
197
199
197
200
201
201
205
200
206
214
216
216
211
215
216
216
216
218
218
219
210
214
208
214
209
211
205
196
194
186
201
201
193
191
182
179
180
175
185
184
187
211
202
175
170
201
205
202
199
185
168
185
186
184
183
192
190
185
204
200
203
203
168
171
180
179
194
178
150
160
170
198
183
176
202
203
206
202
197
171
192
203
188
172
181
186
189
184
179
179
179
187
189
196
197
198
196
195
194
198
205
206
219
215
210
215
224
216
219
218
224
215
218
211
211
210
211
202
204
192
190
181
201
195
183
188
178
174
180
178
193
195
196
212
194
178
176
190
204
196
200
191
176
173
187
188
187
188
194
189
206
206
206
216
166
172
173
190
197
173
161
169
168
192
173
168
208
224
208
203
186
177
189
196
185
167
177
181
186
194
167
169
172
171
182
185
190
196
195
190
185
190
191
203
214
204
209
213
218
216
217
220
221
214
212
206
208
208
204
197
199
197
190
185
197
187
183
181
183
180
177
179
198
200
203
208
197
180
190
182
196
189
205
198
182
176
180
192
190
187
190
197
202
209
208
213
170
174
188
204
191
165
166
168
169
187
169
173
211
229
219
192
174
185
192
194
182
165
170
179
187
198
170
162
168
167
170
170
180
189
190
179
182
190
183
194
201
193
201
205
211
204
215
213
214
208
204
203
204
199
200
192
197
192
192
192
188
182
181
187
186
181
183
185
204
212
209
200
193
192
191
195
173
195
206
201
191
180
181
189
191
185
184
207
204
213
216
216
176
188
197
204
175
161
159
165
169
179
173
185
213
202
233
180
173
189
202
198
187
163
171
174
190
192
172
178
162
164
166
160
169
179
177
183
177
190
190
184
190
191
191
198
203
196
204
199
204
203
194
190
195
192
190
192
188
188
190
183
182
179
183
187
182
190
188
196
216
214
207
193
191
189
195
208
171
185
204
212
196
183
176
179
190
179
181
204
201
211
212
214
186
190
200
192
168
159
163
171
172
178
186
196
209
202
206
169
179
196
202
206
187
160
172
176
181
182
181
183
172
158
156
150
158
163
166
169
177
177
184
180
180
185
184
189
189
189
191
186
187
186
180
178
179
186
185
185
181
182
176
179
180
183
181
186
187
189
196
209
223
216
205
184
183
184
219
221
183
164
197
219
208
191
180
176
191
184
185
194
194
201
206
211
176
179
188
176
153
156
156
162
166
184
199
192
205
206
166
148
193
207
203
203
196
165
167
183
175
183
183
179
177
161
154
148
151
151
151
158
163
162
162
169
170
174
178
174
173
178
178
176
179
170
169
173
172
181
183
170
175
173
170
183
182
183
181
194
189
196
206
213
222
214
201
177
177
187
224
235
190
163
185
217
217
194
177
177
201
191
196
196
199
210
202
201
162
170
177
163
155
156
151
161
156
175
202
210
210
187
150
140
179
221
206
201
196
187
165
178
175
178
176
176
173
162
157
150
144
144
142
150
146
151
153
165
168
172
172
167
167
168
169
167
167
167
166
172
173
173
178
171
172
170
174
183
190
187
189
193
193
206
205
211
220
205
190
180
174
190
224
240
196
175
173
205
219
198
177
172
194
193
191
190
192
210
205
209
177
187
188
170
182
163
166
186
170
183
206
220
205
163
157
156
150
215
215
205
199
205
176
174
176
176
172
178
167
165
165
157
148
145
143
140
138
143
148
149
159
166
162
160
159
157
164
160
165
170
172
175
174
173
176
170
172
180
182
188
193
192
192
197
198
207
216
199
204
202
192
177
182
190
222
238
206
179
180
183
213
199
170
173
190
198
202
199
198
211
216
211
168
186
172
173
182
169
170
187
186
197
200
202
208
181
173
156
144
192
203
206
207
209
184
183
180
178
178
173
173
169
167
164
159
145
148
141
144
144
148
142
150
152
146
148
147
157
157
174
169
175
176
167
183
171
176
170
179
185
188
191
194
194
197
199
203
205
217
201
183
201
197
177
185
195
221
241
202
184
185
173
210
195
169
172
191
212
208
211
203
219
218
224
193
203
187
184
184
170
176
191
195
197
187
195
219
203
175
158
145
180
178
198
221
218
191
192
187
185
185
176
182
169
173
167
169
164
152
147
156
145
151
146
149
145
146
157
156
167
159
174
167
175
175
174
178
172
172
177
176
184
192
192
196
191
199
202
202
202
207
204
174
192
206
183
184
200
225
235
197
192
179
174
206
188
170
172
200
221
203
205
203
217
226
223
188
191
187
200
206
186
193
194
195
183
175
194
216
197
190
160
146
179
170
183
220
222
195
195
197
193
195
192
194
177
174
178
174
174
175
166
163
159
153
154
157
161
159
165
169
166
166
164
171
177
177
176
173
172
173
174
182
189
193
187
193
189
200
200
200
198
204
193
182
179
211
195
173
204
233
225
182
176
190
187
196
180
173
183
207
206
189
209
205
205
224
221
186
181
185
202
209
192
195
198
200
172
156
172
201
201
197
183
162
177
168
181
195
219
200
195
205
199
200
198
202
195
183
192
186
177
181
181
178
170
170
165
168
170
172
174
173
174
171
176
182
182
183
181
182
182
181
181
192
188
195
187
195
194
199
199
198
194
199
192
186
175
211
206
175
210
225
220
188
146
189
197
191
167
178
200
212
194
185
195
203
206
214
208
