P2
# Face with average contibution
92 112
255
192
191
188
188
188
188
186
183
186
185
189
189
186
182
186
186
187
180
194
197
196
196
194
198
200
195
194
199
197
199
202
201
194
189
189
194
195
197
191
193
192
197
197
192
190
179
181
183
176
173
180
178
176
180
187
192
186
181
189
194
198
195
192
184
189
185
183
180
175
173
185
193
197
193
200
193
194
196
194
197
200
198
197
199
200
199
201
200
197
200
200
198
190
190
186
188
190
184
185
183
185
188
187
184
181
186
190
188
187
180
203
194
196
201
201
202
193
194
193
204
206
209
200
204
195
191
190
189
190
193
186
189
190
189
197
199
194
190
182
184
184
184
180
183
177
179
182
185
188
184
184
190
196
192
189
188
184
187
187
185
181
176
173
183
190
190
198
191
192
196
198
195
198
196
198
195
201
199
200
200
199
197
199
199
189
191
187
185
185
185
187
186
192
191
195
185
182
190
190
187
187
191
203
201
201
198
198
200
203
206
209
210
208
204
205
200
198
194
192
193
191
188
187
188
189
192
195
202
199
199
195
194
193
196
190
191
191
192
186
187
183
188
184
184
183
187
187
184
188
188
190
183
186
184
179
173
189
194
193
190
194
191
199
192
197
196
197
196
199
202
200
200
199
198
199
200
191
190
187
182
184
183
184
187
195
198
196
183
185
192
187
186
190
200
202
199
200
196
197
198
202
205
207
204
199
199
196
196
198
191
186
187
187
190
193
193
193
196
196
204
201
206
204
201
196
197
196
190
196
198
191
193
188
183
184
183
184
183
187
186
190
186
187
181
188
178
182
181
188
198
189
187
191
195
191
197
193
196
197
199
198
197
199
198
198
197
199
198
191
187
186
184
189
185
183
186
194
197
193
191
191
192
190
186
200
207
198
196
199
195
194
200
192
198
196
195
195
198
195
188
194
191
190
187
190
187
193
190
193
199
201
201
202
200
201
201
195
200
198
192
200
202
197
199
197
191
186
187
192
188
193
191
190
182
189
182
184
182
186
183
182
195
198
186
190
193
190
193
200
194
199
195
197
195
193
198
199
199
199
198
188
186
188
188
190
188
184
189
198
207
198
194
194
196
203
201
208
210
199
193
193
194
198
195
191
183
188
191
190
193
189
190
185
195
188
191
190
188
190
184
189
195
191
198
205
199
198
192
197
199
203
197
205
200
203
200
195
193
191
201
196
196
194
190
191
184
185
193
188
184
189
183
182
182
189
188
191
189
192
195
196
197
195
195
194
195
192
197
201
197
199
197
183
190
186
188
189
186
194
201
211
208
190
198
191
197
204
205
206
195
195
195
195
192
190
187
185
180
188
191
190
190
189
191
184
193
188
184
187
190
195
196
200
196
193
193
199
199
201
199
195
199
196
194
204
197
202
203
196
190
193
200
199
194
190
191
187
185
182
188
194
184
185
187
183
183
186
186
193
194
194
193
193
193
197
194
190
193
191
192
197
197
198
197
185
189
186
187
189
193
207
204
210
199
191
198
190
199
204
200
194
183
192
191
190
184
183
184
188
192
189
186
193
191
188
187
183
184
181
183
185
187
195
204
201
198
197
200
205
198
201
201
198
194
194
193
193
191
197
199
191
194
191
192
197
196
193
197
193
191
185
183
180
191
183
188
186
184
188
191
189
191
191
195
188
191
189
193
191
190
188
185
191
196
196
197
187
189
186
187
193
203
209
204
200
196
198
198
193
200
193
181
179
183
188
190
182
179
179
188
196
191
190
194
192
190
191
185
188
187
183
184
185
182
180
194
193
196
196
198
201
194
198
196
193
194
195
196
193
185
192
191
193
198
193
198
194
188
194
191
201
194
193
189
186
184
187
185
188
190
180
187
195
185
182
186
194
191
188
189
191
189
185
185
190
192
195
199
187
184
186
196
200
204
201
204
206
197
190
193
189
189
181
179
171
178
181
177
176
187
191
198
190
185
185
184
188
193
185
184
189
189
189
181
187
186
183
193
194
196
196
196
195
200
199
197
192
196
188
194
196
193
190
196
197
199
195
194
197
193
193
189
197
193
195
194
191
190
180
184
192
193
193
180
191
187
180
181
188
195
191
188
188
188
184
188
189
190
195
198
187
194
189
196
200
196
201
204
205
192
188
195
189
178
181
176
166
169
171
168
180
190
191
188
185
184
182
179
188
189
183
184
189
193
192
191
193
194
195
194
192
195
200
199
200
206
194
194
195
195
199
196
195
194
193
197
197
197
198
194
195
196
193
196
193
192
189
192
191
189
184
186
187
198
197
184
186
187
180
179
182
187
194
191
184
187
191
182
190
188
191
193
197
199
198
195
192
198
201
197
196
191
185
188
178
181
173
170
171
175
181
175
178
182
186
181
181
182
183
188
192
191
192
191
194
200
199
199
197
201
204
200
198
197
206
203
202
207
197
195
200
199
200
202
196
195
197
190
191
197
198
197
199
195
195
196
196
196
191
190
191
194
194
195
189
194
205
196
190
189
182
176
178
183
183
191
182
183
187
180
180
185
187
189
199
205
196
188
188
196
199
197
191
185
184
179
178
177
166
166
174
175
179
187
185
182
174
176
177
183
186
187
187
193
200
198
198
199
201
200
200
199
199
205
202
197
202
203
206
204
197
198
199
204
198
202
195
194
195
192
192
196
201
199
195
199
193
195
194
197
195
191
191
194
192
196
193
189
200
205
197
189
182
172
174
178
184
182
183
175
187
187
182
182
185
187
201
202
196
190
183
192
193
198
177
173
175
170
170
166
168
175
172
173
184
181
183
180
181
186
187
191
196
193
190
198
202
198
196
198
199
200
201
204
198
208
205
203
207
203
206
204
200
204
203
202
205
203
196
202
195
199
194
199
201
199
191
195
193
197
200
194
196
196
196
190
194
199
193
187
198
208
202
192
189
167
174
176
184
184
181
171
176
186
186
184
181
185
196
201
197
190
183
191
189
184
170
166
163
169
173
166
173
174
173
186
183
181
184
185
188
188
192
198
199
202
201
199
201
202
196
197
200
202
200
203
206
210
211
209
212
209
206
204
206
205
201
199
199
199
201
198
200
190
194
196
194
198
189
188
185
193
197
200
193
199
199
196
194
199
195
187
194
199
211
197
196
171
167
180
179
179
177
172
171
178
186
182
181
178
195
198
192
193
193
185
182
166
165
167
172
171
168
176
176
167
176
189
186
182
189
194
190
195
197
199
195
200
201
201
202
199
198
200
202
201
204
204
205
209
211
211
210
212
209
210
208
207
199
201
199
202
199
193
187
185
182
181
181
187
180
179
176
182
187
191
186
193
195
195
191
195
197
192
182
192
207
208
195
183
163
176
175
171
177
168
172
176
174
180
176
179
194
193
199
194
194
182
166
160
159
169
177
174
178
179
174
174
182
190
182
184
194
202
196
196
192
193
195
197
203
194
197
201
199
201
201
197
202
209
205
210
211
210
210
211
214
209
206
206
199
199
195
196
195
189
183
186
182
177
181
178
177
177
176
176
182
181
188
188
189
190
190
189
202
195
186
191
199
196
204
193
176
162
173
172
175
169
172
176
173
178
181
178
187
194
201
190
179
176
160
166
165
168
181
175
176
178
175
183
188
189
191
197
202
202
195
192
197
193
198
202
204
198
204
201
200
203
205
204
200
206
207
205
211
212
208
205
210
209
198
203
199
200
198
190
189
177
175
185
180
178
175
178
182
176
175
177
179
183
181
187
185
183
184
188
194
198
192
189
194
189
196
200
189
169
164
172
173
166
172
177
172
174
181
181
182
194
187
180
171
170
166
168
166
172
177
174
182
175
182
184
193
197
198
201
203
198
192
193
203
198
203
206
206
201
203
204
202
208
206
208
203
206
208
202
208
205
201
205
205
205
196
196
193
196
187
178
183
175
176
180
179
182
181
184
187
183
178
178
179
183
176
186
189
184
179
181
188
198
197
190
193
196
186
198
192
179
163
167
174
164
168
177
172
174
177
178
179
185
177
176
168
170
168
166
169
182
177
178
183
181
189
192
199
203
204
207
201
201
198
196
207
209
209
204
202
206
202
199
204
205
206
206
212
207
206
205
207
198
198
199
202
200
196
195
195
190
183
176
180
175
178
184
179
180
181
185
181
185
180
174
181
184
172
179
186
182
184
179
181
190
201
194
192
195
193
186
192
182
169
164
173
165
164
171
177
175
178
178
179
177
177
170
172
166
166
172
183
179
178
175
180
187
196
200
203
206
210
204
199
202
203
198
204
207
208
208
207
205
202
203
201
206
206
206
204
204
203
206
205
204
198
196
197
193
193
188
184
188
180
178
180
179
178
180
182
180
185
188
190
189
189
180
174
175
176
174
178
180
180
181
180
181
193
195
188
192
194
180
190
186
170
166
171
172
163
164
180
172
181
182
174
176
178
162
168
164
167
178
183
172
181
182
189
201
207
204
206
209
198
197
194
199
200
198
200
202
205
205
203
202
204
201
199
204
208
207
200
201
201
200
206
203
197
195
195
192
190
184
184
181
184
178
179
184
180
180
183
184
188
188
185
190
188
189
183
170
171
174
179
181
181
176
182
184
187
192
192
186
193
178
184
188
170
163
167
171
167
160
175
175
173
183
168
181
168
158
175
167
169
177
182
181
186
189
199
204
207
205
203
199
194
192
190
195
198
197
197
200
199
198
194
200
202
202
201
200
202
200
201
201
201
199
203
202
194
198
196
192
185
182
184
185
181
176
180
185
183
185
182
182
187
186
182
185
189
185
190
179
168
172
181
178
179
176
182
186
187
195
196
190
193
186
181
183
178
165
162
165
171
162
162
177
174
177
173
181
163
168
177
158
166
181
182
184
194
197
197
203
204
202
192
189
189
186
185
187
189
195
198
197
193
191
195
190
195
196
196
197
194
194
201
200
196
197
196
193
192
195
194
190
182
184
183
181
175
181
175
179
183
184
178
180
179
179
178
181
182
186
191
183
183
168
178
179
173
176
178
184
185
192
195
193
192
188
186
179
183
169
160
166
165
163
162
169
174
178
177
175
171
170
166
163
176
181
181
188
199
197
198
199
199
194
186
186
184
180
180
186
187
188
192
196
190
188
189
188
186
188
188
189
189
191
190
194
195
196
193
195
191
196
190
190
184
182
178
179
172
176
178
171
176
174
173
176
173
176
175
179
177
182
188
183
184
180
177
177
174
171
172
182
188
187
194
192
196
191
187
180
179
170
158
171
165
164
160
172
164
174
173
175
172
168
172
171
186
180
184
196
193
197
195
201
192
185
186
183
178
177
175
182
183
186
185
190
192
183
186
183
183
180
184
183
181
185
182
185
189
191
191
193
192
191
187
181
179
178
173
173
169
168
172
169
165
166
168
170
172
177
174
175
179
181
183
189
188
190
183
175
178
171
171
185
186
184
185
192
195
192
184
184
176
166
152
170
173
167
163
171
169
160
174
175
171
165
172
181
189
180
191
191
191
197
201
205
184
178
183
180
180
177
172
178
178
182
181
187
186
185
179
181
181
176
175
178
180
183
182
182
186
188
182
188
191
185
181
176
175
173
169
173
171
167
166
166
164
162
168
169
173
176
173
177
181
186
186
191
195
196
192
180
180
176
177
187
192
185
178
185
190
196
188
188
170
165
150
164
171
168
162
169
172
156
180
180
169
166
179
184
185
185
189
189
197
202
207
192
176
179
178
178
178
179
172
178
178
181
180
182
185
182
184
176
182
175
177
175
176
176
182
182
182
183
180
183
186
183
178
175
172
175
172
174
173
168
167
166
169
168
170
171
176
179
176
181
181
186
191
196
196
205
202
185
184
185
183
186
194
188
182
184
186
198
190
182
176
158
160
156
158
161
166
165
172
160
176
184
166
164
186
184
188
191
189
194
205
206
201
181
172
178
179
179
176
181
176
179
181
183
185
184
188
184
191
184
181
182
176
175
179
175
175
181
179
177
175
182
181
177
170
173
172
173
173
175
172
167
173
173
176
175
178
180
180
184
183
180
183
191
194
196
198
207
210
194
189
189
189
195
195
187
181
182
185
189
203
180
175
161
166
162
156
149
169
165
173
163
176
180
174
165
185
187
191
196
194
199
211
208
194
181
174
178
180
178
179
178
181
186
186
189
192
192
192
190
191
191
188
185
182
179
180
179
178
180
177
172
174
178
175
171
168
172
171
170
176
173
175
178
180
181
184
183
183
183
185
189
190
187
188
193
198
199
202
211
213
205
192
191
194
194
194
193
183
180
183
188
194
190
174
166
165
171
158
153
163
166
169
170
172
185
181
181
187
181
190
201
195
205
212
209
194
176
175
177
181
176
181
186
187
193
195
199
199
203
196
194
193
193
196
191
191
186
185
187
186
181
179
176
176
176
172
169
170
170
171
169
179
177
180
181
182
183
188
187
186
185
186
192
190
187
188
195
194
198
198
209
213
211
202
189
195
194
195
193
185
176
180
185
190
189
180
166
160
172
162
155
160
168
167
170
185
190
193
187
184
182
190
198
197
205
210
204
191
176
178
181
182
178
189
189
195
199
197
204
208
206
204
203
203
203
202
204
199
193
190
194
191
186
183
181
179
178
175
174
174
171
174
175
180
182
181
183
181
187
188
186
185
185
184
187
186
184
185
189
192
196
198
205
211
209
208
196
192
195
196
195
185
178
177
176
185
188
176
164
155
165
166
157
156
168
159
170
191
193
197
189
179
181
188
189
201
212
212
206
187
183
183
182
186
186
190
189
196
198
198
205
212
212
209
212
210
208
208
212
203
196
194
192
190
194
181
179
180
179
177
175
174
172
175
176
181
184
184
183
184
184
184
181
181
179
179
179
181
185
185
185
189
191
192
202
208
205
207
200
192
195
197
193
186
181
182
182
185
188
176
161
164
159
168
154
157
167
161
160
198
189
191
191
182
182
185
190
204
208
212
207
191
183
190
189
192
188
191
184
189
185
188
198
204
201
207
214
211
208
210
208
204
196
193
189
185
189
184
176
183
181
178
178
178
175
181
180
183
184
186
181
183
186
182
182
177
172
171
175
177
178
178
180
183
187
187
191
203
202
203
201
191
198
197
200
188
186
182
185
190
191
173
159
162
171
162
148
159
163
163
160
200
186
186
193
195
185
190
196
201
200
206
201
190
187
183
187
182
181
179
184
184
183
190
192
195
191
192
199
194
182
188
193
182
178
182
169
172
176
177
177
178
175
171
175
171
170
168
171
176
178
181
182
180
188
183
181
176
173
169
172
173
172
169
172
173
180
183
182
192
197
199
201
191
192
203
197
192
184
187
189
191
188
177
154
159
174
161
151
161
160
165
166
196
184
187
195
196
190
197
192
196
202
201
199
191
185
179
181
185
182
190
193
189
190
191
190
189
188
182
180
171
165
162
177
174
174
179
173
175
180
182
183
184
173
176
179
178
178
176
182
187
187
180
188
179
189
176
176
177
176
170
170
167
165
165
168
170
172
176
178
185
191
192
196
192
188
201
203
198
189
186
194
200
194
182
160
156
168
168
152
157
158
173
166
179
186
181
193
197
203
196
189
197
204
200
196
188
180
189
192
187
181
189
183
179
181
177
173
172
175
171
168
161
157
156
163
171
168
177
180
177
173
173
179
179
174
184
186
176
185
182
188
187
186
183
184
183
183
182
184
184
180
173
168
168
165
166
170
174
178
178
176
178
183
190
188
190
179
186
195
195
188
189
196
214
204
189
164
160
170
162
152
161
152
176
172
182
192
175
193
212
212
188
189
198
205
195
198
192
186
190
178
180
190
183
175
170
179
182
176
185
198
192
191
176
169
165
174
181
181
177
184
172
170
174
171
176
177
181
183
182
185
187
187
185
184
189
189
189
185
186
194
187
187
184
181
181
176
178
183
188
193
192
192
186
185
187
191
184
178
175
185
184
181
191
199
204
206
197
176
161
167
165
153
158
158
181
178
184
196
177
191
219
215
185
185
193
197
193
203
194
175
185
178
195
199
188
184
183
191
198
203
206
214
212
210
200
194
190
190
202
203
198
198
182
174
175
180
180
183
187
181
181
181
186
180
181
185
190
190
187
187
189
205
202
202
195
186
189
190
193
202
205
206
206
200
197
199
191
194
185
179
172
174
172
180
186
197
204
205
190
177
182
162
160
148
154
164
181
177
192
198
192
184
219
223
186
196
190
200
207
192
189
180
183
189
201
201
201
203
204
207
217
221
228
221
218
208
211
192
189
197
193
196
189
199
200
189
186
180
175
176
192
189
179
188
187
183
188
190
196
196
190
196
186
189
200
197
191
190
193
210
190
212
212
206
203
195
203
201
200
197
197
182
177
177
182
173
172
190
208
209
191
171
180
176
166
141
153
170
182
179
207
201
190
194
221
228
199
198
192
215
201
186
189
177
181
197
200
203
205
202
209
221
223
231
231
232
224
210
218
201
193
213
197
196
191
193
209
196
188
179
172
165
183
191
183
194
190
185
191
196
201
196
196
192
190
189
188
185
186
183
194
187
179
189
206
202
192
191
203
206
206
204
195
194
177
182
191
176
180
179
198
210
193
168
180
181
180
150
142
171
178
187
209
189
190
202
229
213
211
198
201
211
201
187
187
173
182
194
199
204
206
207
215
223
231
246
253
238
227
220
222
212
199
212
202
200
192
181
200
199
196
181
173
170
168
191
184
195
177
173
184
205
203
206
201
194
193
191
186
189
186
186
191
174
173
178
201
200
191
183
199
207
199
199
193
195
180
181
192
176
187
186
197
207
190
166
177
191
185
161
147
169
169
189
209
183
180
195
220
208
215
215
211
203
202
195
188
178
193
195
204
209
202
207
213
228
240
255
251
232
220
212
208
211
207
202
201
198
188
189
198
204
201
202
189
177
186
197
190
195
182
175
189
192
190
198
202
192
195
194
189
193
190
194
200
191
179
180
190
196
190
184
195
203
207
197
194
197
180
180
191
172
178
185
201
198
194
183
182
190
185
172
161
173
155
186
215
179
188
185
186
213
210
209
209
188
188
181
185
181
193
196
199
204
206
203
209
232
231
239
219
213
207
193
204
201
200
205
198
202
201
211
220
219
212
211
201
196
189
200
192
187
192
192
195
200
194
199
211
196
190
190
189
185
188
198
206
189
187
187
185
186
192
192
200
202
202
190
190
194
197
183
192
179
172
180
197
185
196
196
176
188
183
172
162
174
160
180
216
179
189
190
178
215
200
197
206
175
179
174
179
175
183
187
184
198
203
208
225
227
229
216
199
200
198
204
207
196
205
197
199
208
204
218
219
207
192
199
194
198
194
206
199
194
194
197
203
204
207
194
214
201
193
201
201
194
199
206
204
191
183
198
192
190
192
197
196
200
197
194
186
179
189
185
194
186
178
181
196
182
184
189
179
178
189
175
159
165
171
182
218
186
190
190
193
214
192
201
203
185
167
160
171
176
178
173
176
189
202
215
217
213
204
190
192
189
191
213
210
204
208
197
196
206
200
213
200
188
185
195
195
180
181
195
199
199
201
203
193
198
199
190
197
192
184
196
193
186
195
205
219
202
182
197
181
177
175
170
193
177
164
194
192
177
184
169
179
183
182
188
192
181
183
179
190
190
184
194
157
168
172
194
212
200
195
192
199
206
193
205
190
187
159
160
165
180
182
167
169
183
190
189
185
187
186
183
192
195
193
207
213
207
195
189
206
211
209
214
198
185
182
185
195
173
179
194
203
205
204
207
188
196
199
187
183
180
191
186
192
184
201
200
212
208
194
185
173
168
178
176
200
174
152
181
196
189
197
179
173
182
182
189
189
180
183
173
190
189
183
199
168
171
171
194
203
204
203
197
198
197
184
204
197
197
173
178
167
168
181
176
176
183
178
165
166
180
181
180
195
203
197
191
209
212
205
196
204
218
220
207
189
184
183
177
184
171
171
193
199
201
199
201
189
195
197
188
173
177
194
184
185
184
182
193
188
185
196
192
177
178
179
183
193
196
185
182
181
177
191
201
181
192
189
183
193
192
198
175
182
187
189
201
185
178
174
189
205
206
207
189
185
181
179
208
202
195
187
178
159
165
184
181
172
168
170
160
169
181
186
190
184
202
191
192
198
203
208
196
209
198
203
190
166
168
173
176
182
171
176
182
202
196
179
195
183
187
195
189
169
181
188
188
174
173
185
183
171
173
187
192
184
180
171
165
177
191
200
192
179
166
173
203
199
207
204
191
204
194
211
179
191
201
205
207
197
181
182
195
213
210
215
187
180
185
178
210
200
188
181
171
147
166
175
175
160
164
185
166
169
177
185
197
183
183
168
184
184
174
202
190
183
183
183
170
154
153
166
159
162
167
176
168
191
195
175
195
183
189
192
192
168
179
186
188
186
178
190
180
172
166
177
182
190
168
167
167
164
169
194
194
190
171
183
195
207
218
219
211
216
182
217
189
197
211
213
210
200
184
190
198
224
204
215
193
192
185
180
210
197
193
182
170
162
174
174
173
164
176
180
166
162
168
178
186
180
171
183
174
186
165
186
191
165
183
167
157
151
162
156
163
156
172
179
165
168
176
167
181
179
182
186
186
167
154
171
173
172
175
178
179
171
166
172
182
199
176
182
180
166
163
180
193
182
177
191
192
205
209
217
223
229
177
222
200
203
217
211
212
198
188
192
190
227
196
212
195
201
196
178
204
201
200
188
174
160
168
177
178
180
197
184
156
155
164
177
181
171
164
160
160
165
151
167
167
163
163
171
158
162
158
158
160
158
171
180
169
169
179
180
179
181
181
177
173
166
150
161
154
160
161
172
170
171
177
190
199
208
196
189
182
171
175
177
200
195
189
191
185
203
210
213
224
229
186
217
216
208
223
216
216
208
199
192
177
219
194
207
197
195
195
185
201
209
201
188
172
146
149
177
178
184
199
185
159
157
167
179
176
164
152
154
162
160
158
162
157
155
159
168
169
164
161
156
146
154
150
168
164
159
170
192
181
176
172
166
164
165
155
147
156
158
160
165
175
179
178
189
191
203
203
199
190
184
183
192
200
199
206
198
189
197
217
207
210
218
198
207
217
203
214
223
208
210
203
195
171
216
195
212
197
188
191
189
200
216
201
181
172
159
157
175
180
179
195
191
175
170
175
188
187
186
164
171
176
170
178
175
175
168
160
166
161
155
152
150
157
161
165
171
161
151
166
173
183
175
163
160
157
168
157
157
162
172
173
177
187
191
188
198
197
206
210
208
210
204
201
208
205
202
213
206
192
200
223
217
205
210
205
204
216
219
220
205
199
207
209
187
179
210
202
211
208
185
196
201
198
219
212
184
170
173
160
175
176
179
182
185
181
178
178
187
192
188
184
190
193
191
196
193
202
176
172
177
169
154
144
144
178
170
177
173
157
160
167
161
168
177
165
161
164
169
169
160
163
174
178
177
190
191
192
195
199
207
208
212
209
212
210
212
207
203
207
206
201
206
228
209
202
201
217
216
226
232
222
201
199
208
210
178
183
206
201
210
220
190
185
208
199
204
222
187
175
177
163
165
165
174
174
183
180
183
178
184
184
185
187
193
194
190
192
206
192
182
179
177
169
158
136
149
175
164
169
168
150
159
162
158
159
171
171
166
166
169
173
159
169
165
190
188
188
187
188
189
193
197
197
204
203
202
201
202
197
201
198
205
212
219
232
215
196
218
214
213
229
235
212
199
201
205
207
176
181
212
207
216
216
192
181
200
213
203
211
205
168
169
166
153
145
167
169
173
175
177
186
186
186
179
178
180
184
179
187
193
178
175
176
173
167
154
147
165
168
158
167
164
155
165
159
162
156
171
172
177
166
169
171
158
165
169
171
185
183
187
183
184
182
190
185
187
190
190
192
189
191
196
193
196
211
226
236
216
198
229
212
207
227
218
201
197
200
198
207
172
181
224
213
216
209
192
183
187
203
214
202
200
182
166
168
165
148
160
172
178
178
180
190
196
193
189
181
175
176
175
177
174
171
175
172
173
165
159
175
168
171
167
173
166
172
172
161
166
166
174
173
171
176
172
176
163
152
172
167
164
172
176
178
181
183
190
194
193
196
198
196
193
195
196
196
196
200
217
222
215
217
232
214
206
221
189
202
191
199
196
202
169
186
231
219
205
213
193
184
178
186
194
212
190
177
185
182
174
165
164
182
180
183
183
193
202
202
199
194
194
194
185
185
183
182
188
178
182
178
184
181
170
171
174
172
171
178
179
173
177
175
172
170
179
188
178
184
185
158
173
177
175
176
168
174
178
181
185
194
196
199
203
196
190
191
191
189
189
197
219
226
223
225
235
211
208
204
184
192
189
202
203
190
178
195
232
223
208
209
194
180
173
181
188
199
193
178
175
207
193
176
172
182
185
187
183
187
192
197
198
198
193
194
189
185
193
197
201
203
195
197
189
185
186
176
177
170
178
182
190
188
192
185
182
184
191
201
190
190
187
184
190
181
191
197
191
187
188
188
190
194
193
192
193
192
191
191
191
201
202
206
227
225
226
233
232
209
204
212
185
189
191
200
194
190
182
206
236
229
216
200
186
176
180
187
193
183
196
183
170
191
206
191
191
194
190
200
196
198
200
208
205
205
196
209
203
204
206
204
211
217
219
190
189
199
199
183
184
184
181
190
198
204
208
202
193
198
202
204
200
193
192
195
201
198
190
202
207
196
191
193
194
193
192
194
194
193
194
199
200
207
205
211
223
224
233
239
232
210
202
205
194
196
196
198
202
184
187
215
245
228
220
196
175
171
179
187
201
184
193
192
184
190
201
194
190
202
203
191
185
186
195
205
205
211
206
206
213
208
189
206
214
214
220
199
194
207
200
191
198
200
195
185
191
207
209
200
200
200
213
205
208
191
186
198
198
207
195
199
208
201
190
201
202
197
190
197
200
202
204
202
206
206
210
212
229
229
239
244
229
212
190
199
203
205
201
202
213
186
193
218
247
225
217
199
167
166
173
185
198
190
195
188
184
199
201
198
201
195
199
198
199
194
210
223
224
225
225
215
215
204
188
207
219
217
206
205
199
199
202
206
205
213
198
184
189
203
204
194
198
202
198
204
199
199
183
193
187
187
203
200
205
206
214
210
207
209
200
201
206
213
217
212
214
220
215
219
230
233
241
235
200
203
192
193
212
212
206
203
214
194
202
218
248
220
216
207
176
160
172
192
195
195
204
191
181
198
202
203
205
209
192
197
202
202
205
221
220
220
220
215
207
192
189
205
202
205
209
206
201
196
209
213
209
211
193
183
186
201
200
197
198
207
199
195
191
181
184
180
181
175
190
196
196
201
214
211
212
204
200
204
210
215
219
217
211
218
213
219
222
235
229
219
194
202
189
202
216
219
205
204
205
194
204
213
239
223
217
211
185
159
174
193
199
197
208
203
179
198
202
202
206
216
212
204
204
204
203
204
206
206
204
202
194
190
196
199
198
203
203
201
203
201
209
207
203
198
190
183
191
203
200
203
200
202
200
198
193
174
174
188
183
182
181
188
195
202
203
206
206
195
196
200
203
208
212
209
209
207
209
207
216
236
219
212
198
200
201
204
206
231
207
209
198
189
201
208
232
221
214
215
187
166
170
191
195
203
199
208
201
201
203
203
205
212
213
214
214
216
212
207
201
202
200
200
201
198
208
213
210
214
212
204
197
199
198
196
191
192
189
185
198
202
205
206
199
192
195
204
188
184
182
181
191
187
187
186
191
205
205
206
206
201
200
204
205
208
209
208
206
203
198
206
226
232
220
201
198
202
213
213
208
223
210
201
196
191
202
206
237
220
211
215
192
169
174
183
193
203
200
209
208
205
209
208
204
211
208
206
207
211
211
210
206
213
212
208
213
214
218
224
217
212
212
193
193
194
192
193
191
195
191
184
203
200
211
211
209
198
193
188
183
183
190
188
193
199
182
186
208
205
201
208
210
210
203
204
208
209
211
210
208
198
205
215
222
222
208
194
202
207
216
217
207
224
202
193
192
188
188
199
240
233
201
221
192
172
172
183
186
207
205
206
215
205
206
208
212
213
208
210
211
213
213
211
205
205
201
201
208
207
209
220
212
207
203
195
198
199
190
197
205
211
211
196
206
201
207
202
200
189
185
182
188
193
206
207
207
191
185
199
211
199
194
199
200
202
196
194
197
196
198
197
203
206
213
220
213
208
201
197
207
212
219
212
202
220
195
192
189
180
191
197
231
236
208
207
199
178
176
184
177
198
207
206
220
207
206
204
207
204
206
208
210
207
206
200
197
193
194
196
201
203
207
215
208
203
197
202
204
195
192
196
198
199
206
210
213
209
205
197
194
185
182
183
182
196
216
215
210
197
194
202
204
197
199
198
197
198
195
186
189
189
192
198
200
206
208
214
203
200
200
191
210
215
225
207
197
212
187
190
178
174
199
191
214
235
225
201
206
185
176
182
184
181
194
198
220
209
200
204
204
206
207
205
207
205
199
193
195
193
188
196
199
201
206
209
213
204
196
206
213
199
190
191
184
189
200
214
217
207
207
205
202
197
192
193
197
196
209
215
212
202
198
203
189
186
188
193
195
196
202
194
191
186
191
194
193
199
209
206
198
201
193
191
212
219
229
209
202
202
196
188
165
178
200
187
215
215
236
211
198
191
172
182
187
178
174
193
216
205
197
202
204
206
204
204
202
198
193
194
193
187
187
191
192
201
201
210
218
209
203
213
221
206
194
190
187
190
199
206
208
208
204
205
216
208
212
205
202
190
198
206
211
204
198
194
187
182
180
187
185
187
192
190
188
183
187
191
190
195
205
202
193
203
192
198
207
222
224
207
204
193
196
169
161
193
197
186
210
204
219
208
193
194
169
175
187
182
169
196
212
197
198
202
201
205
199
199
199
186
195
191
188
183
188
191
190
198
203
211
215
212
210
216
217
221
210
201
201
199
199
196
197
197
194
206
213
209
218
213
203
205
195
191
194
199
197
193
188
183
177
175
175
180
181
183
187
182
183
188
191
197
203
199
196
205
192
200
208
226
220
212
202
184
186
159
169
194
196
190
212
206
207
199
182
196
180
163
169
186
171
195
204
194
191
210
199
201
200
194
192
185
190
187
188
181
186
186
188
196
203
206
214
218
214
217
218
222
215
209
210
209
211
202
196
194
195
205
209
205
210
214
213
214
196
197
188
195
194
192
184
180
176
174
173
172
176
177
181
185
183
189
192
201
202
199
199
202
194
204
213
224
213
202
190
176
174
161
175
191
191
193
221
211
209
205
177
179
185
158
157
171
168
185
188
197
188
205
196
201
199
193
190
183
184
181
186
177
178
180
188
196
198
199
207
216
211
206
218
219
213
198
210
205
206
212
206
206
206
203
204
204
207
208
217
215
205
199
194
191
186
191
178
177
179
170
173
170
169
179
179
182
184
189
195
203
201
197
199
197
196
202
216
213
199
187
178
177
168
168
176
193
190
194
219
215
209
215
188
161
172
154
151
154
167
182
174
196
189
198
197
197
196
195
192
183
181
172
174
175
171
174
183
191
193
193
200
211
206
192
200
211
208
199
205
207
205
205
207
207
208
198
203
208
210
209
209
205
203
200
199
198
187
192
180
177
176
168
168
170
170
173
183
181
185
187
194
203
205
197
204
195
191
199
208
197
188
175
176
190
168
164
176
192
194
193
214
215
211
218
203
164
159
143
145
134
152
173
169
191
188
191
203
199
195
194
194
181
176
170
172
170
165
174
174
178
177
182
189
201
194
187
187
195
201
197
199
204
205
205
202
203
205
198
198
205
206
201
197
188
199
199
201
197
192
193
190
177
169
165
160
169
170
171
179
184
185
191
195
204
204
197
209
197
189
198
198
185
182
172
185
189
166
163
177
192
197
194
214
215
210
213
212
179
158
138
138
128
138
169
171
190
199
192
204
200
197
194
189
181
177
176
169
165
167
170
162
157
152
158
171
176
173
172
177
181
192
191
192
201
208
213
208
202
199
198
201
199
200
195
196
192
192
194
199
194
192
195
193
180
165
161
159
164
172
171
176
183
186
191
198
203
203
196
198
193
186
190
185
177
168
166
182
176
163
167
174
197
197
196
213
215
212
212
211
190
162
144
137
133
133
165
176
193
200
196
200
197
195
193
190
186
185
180
168
161
169
163
150
142
141
150
158
156
166
165
168
168
175
182
191
201
208
217
208
200
194
199
201
202
194
198
193
193
189
195
199
201
199
200
197
183
167
159
158
159
169
172
173
182
186
193
194
207
203
197
190
188
183
173
165
164
152
167
175
171
164
167
179
195
197
196
216
213
220
210
209
196
173
160
149
138
134
159
176
189
198
199
197
196
192
194
191
183
188
183
172
157
165
152
138
131
139
142
151
154
164
165
164
165
179
184
186
192
198
203
193
192
191
193
193
193
190
192
187
183
181
182
194
199
203
199
196
182
174
168
156
155
160
173
171
180
187
189
190
204
207
191
182
187
182
168
161
162
151
169
175
169
167
168
188
197
194
192
216
222
219
219
207
197
181
166
168
153
139
151
183
185
191
194
196
193
189
194
192
188
189
185
175
167
167
145
133
127
132
144
148
155
168
166
171
175
180
185
189
192
187
189
175
181
185
185
180
175
174
178
180
175
171
174
180
189
192
185
191
181
175
168
160
158
156
171
175
179
185
190
183
203
204
190
180
183
185
162
161
163
157
175
172
168
169
175
196
196
195
190
212
223
222
227
217
203
194
179
181
171
154
151
184
191
191
193
194
195
190
194
189
189
195
190
179
170
171
149
139
136
136
149
156
164
170
176
183
197
191
196
206
199
191
187
167
170
174
176
164
164
162
170
168
163
167
172
164
173
173
170
187
175
173
166
161
164
164
171
174
178
188
187
185
196
207
190
183
179
185
164
167
177
169
173
175
167
174
182
202
195
196
192
206
213
227
226
229
217
208
189
187
181
168
161
185
198
192
192
192
194
192
190
191
191
195
188
183
170
175
157
146
145
152
157
169
188
187
186
201
218
211
209
205
196
189
178
173
169
180
188
180
173
176
181
187
177
186
194
181
179
179
169
199
188
181
177
168
172
170
173
175
178
189
180
187
190
206
193
186
180
190
176
176
183
177
173
175
173
178
187
199
197
197
191
203
210
218
223
228
223
217
189
186
183
172
166
174
202
194
188
193
188
192
183
188
195
193
183
181
174
170
153
145
154
157
160
170
186
196
195
198
205
208
211
204
199
200
191
194
195
204
216
211
213
208
206
207
196
203
210
207
219
207
202
219
203
201
196
180
175
176
178
174
183
184
180
183
192
202
191
193
184
194
187
188
179
173
177
178
179
179
196
196
197
195
193
203
207
211
215
225
222
221
196
186
181
176
172
166
199
195
192
188
188
193
183
185
191
180
176
177
175
167
154
141
154
152
158
170
177
195
198
205
206
199
208
202
204
207
202
205
203
207
207
206
225
220
208
206
199
203
201
214
222
218
215
227
219
203
192
178
179
180
183
178
181
182
183
184
198
198
195
194
179
202
191
188
182
177
184
181
179
184
200
198
198
194
194
207
204
209
212
217
223
217
204
183
183
179
170
171
183
191
188
180
180
195
184
182
180
176
171
176
174
161
155
156
160
158
160
170
184
193
204
209
214
210
210
206
198
195
196
201
198
197
197
206
215
210
199
202
206
204
206
211
222
214
217
220
218
202
195
181
174
181
179
180
182
179
184
196
202
195
195
185
181
197
191
192
178
183
183
184
180
192
198
197
196
196
195
213
207
207
208
214
212
214
202
184
180
184
171
174
177
186
184
174
173
190
184
173
165
168
166
172
166
164
157
165
171
168
168
169
193
196
204
207
212
222
221
209
204
205
206
203
194
199
191
195
200
197
202
203
205
213
216
221
224
212
219
208
203
203
186
178
174
175
184
182
181
179
189
203
205
195
193
183
186
193
196
192
181
184
183
184
183
197
197
197
196
196
194
212
212
209
210
208
213
204
181
181
180
179
176
173
173
187
183
178
172
186
181
168
161
163
163
172
165
164
163
170
176
176
172
173
190
191
194
194
198
209
214
210
211
214
214
211
211
217
213
208
212
202
211
212
210
209
209
212
211
209
198
198
191
195
172
177
171
175
180
183
182
180
190
208
202
192
196
184
190
190
198
192
184
187
186
180
193
197
197
199
196
193
192
209
212
213
209
213
217
185
181
182
184
174
177
173
172
181
191
182
184
188
188
167
159
158
159
171
168
161
161
161
162
164
158
164
170
162
167
167
175
184
181
185
182
183
187
194
195
210
208
205
207
200
203
199
196
196
199
206
205
196
187
187
193
184
171
177
172
173
178
177
183
182
197
209
200
188
197
187
191
191
198
187
185
190
184
185
200
195
195
198
198
190
191
205
209
208
206
209
198
182
185
197
190
174
175
176
174
173
196
188
188
185
194
177
168
165
168
174
171
162
156
154
154
152
148
153
159
151
137
134
146
149
151
161
155
155
159
162
156
176
176
176
178
179
193
193
199
200
199
195
190
191
190
192
193
185
175
178
175
175
177
176
178
186
203
205
196
186
200
189
187
192
191
178
186
181
178
191
195
190
192
191
193
189
197
195
201
202
209
195
183
191
192
192
203
184
178
176
178
180
191
195
192
181
196
187
180
177
181
184
174
175
164
155
155
157
152
156
153
154
147
141
147
147
145
147
150
145
149
156
154
164
174
181
182
181
190
188
188
188
191
188
187
194
195
202
192
185
181
180
182
178
182
179
181
194
209
203
195
182
202
191
186
196
184
182
187
178
177
192
191
187
188
181
188
189
193
198
200
202
197
181
179
194
200
193
198
200
184
186
189
186
190
194
196
184
192
188
183
184
183
189
180
191
181
169
173
163
164
170
161
163
162
160
162
158
162
160
158
163
161
175
172
174
185
181
187
186
191
191
189
185
189
187
195
194
197
196
191
188
183
183
182
180
180
182
190
199
212
201
189
186
196
187
186
192
180
186
185
176
188
191
188
188
181
183
190
193
190
198
199
199
187
177
179
192
197
195
200
205
189
187
189
189
191
194
194
186
187
189
184
186
181
188
189
188
190
181
185
174
178
180
180
174
173
176
174
171
175
177
180
187
182
190
185
188
194
191
195
194
194
195
196
193
195
197
199
203
198
197
194
189
183
184
182
182
186
179
201
205
209
199
185
188
196
177
186
187
183
185
180
181
197
188
186
185
183
184
193
193
189
200
196
184
186
184
182
190
190
198
200
203
193
184
191
183
194
188
196
183
178
192
186
184
184
185
192
190
194
186
188
181
183
192
184
184
184
184
178
187
187
190
198
200
204
204
199
203
203
202
203
200
200
198
203
196
202
203
203
206
204
198
196
191
180
187
187
185
184
184
206
207
201
201
181
197
198
184
172
184
184
180
183
178
194
189
187
186
182
186
193
193
186
198
184
181
186
182
183
189
184
198
200
202
193
185
185
190
186
185
197
189
180
179
193
183
186
181
189
190
187
190
195
187
187
194
199
196
191
191
189
200
199
203
207
207
209
209
201
208
206
209
206
208
204
210
205
205
205
210
210
208
205
201
200
188
184
182
185
187
178
188
205
205
197
198
183
201
191
197
172
179
186
177
195
179
174
192
189
187
184
190
195
189
186
180
178
183
184
179
180
190
183
195
205
200
200
190
190
184
184
181
201
197
184
173
194
183
186
175
182
181
179
179
186
186
184
195
202
195
198
200
196
206
202
211
211
209
214
213
207
208
212
212
211
211
210
209
207
211
210
210
208
201
201
200
193
190
181
182
185
189
181
192
208
199
196
198
179
186
193
192
181
175
179
187
201
186
172
180
191
187
186
189
192
188
196
166
179
182
181
180
178
178
183
192
204
215
210
188
183
182
183
182
201
205
188
174
182
195
187
180
181
175
175
172
178
173
174
188
194
189
189
195
191
197
192
204
201
200
203
205
198
205
212
215
211
211
211
205
202
207
201
199
198
192
190
192
190
188
179
185
186
189
184
193
204
199
195
198
175
186
185
192
189
173
172
196
199
192
186
166
182
194
186
188
186
193
201
169
179
179
181
181
181
172
180
196
219
225
211
185
181
189
184
179
203
205
193
183
189
197
193
187
182
173
174
172
178
167
172
178
182
182
185
187
188
186
191
200
192
196
196
199
194
201
204
202
201
207
199
202
196
199
191
192
192
188
190
188
188
187
177
192
188
187
185
201
202
196
203
199
178
191
184
196
197
179
178
192
191
197
193
174
168
190
186
186
192
195
198
176
178
179
181
183
180
172
189
206
230
216
198
191
181
182
185
188
204
204
200
196
197
190
196
191
183
179
178
173
175
175
173
174
173
182
184
181
182
180
185
187
182
185
191
189
185
191
195
192
191
194
191
196
189
196
188
189
195
191
190
188
187
185
180
191
189
185
186
196
206
195
201
191
191
190
182
207
188
193
190
187
183
188
194
181
171
173
186
192
194
195
198
177
178
178
182
190
182
180
199
218
218
200
189
195
188
174
184
193
208
203
219
200
193
186
196
198
186
187
182
177
180
179
177
173
173
176
178
175
178
176
181
179
179
174
180
181
180
181
183
185
178
187
184
187
184
186
185
184
187
189
183
185
189
190
181
188
194
181
185
204
200
195
198
191
194
197
191
209
187
190
204
192
177
179
189
188
175
172
176
196
194
192
198
181
181
183
191
200
182
191
196
216
209
189
185
198
182
175
190
197
205
222
230
200
192
183
196
201
195
193
185
185
189
186
185
181
173
178
179
173
177
176
181
181
175
170
174
179
174
178
180
181
172
180
184
179
184
181
181
178
184
187
179
186
188
184
189
184
187
190
185
204
199
197
199
197
192
212
192
201
198
192
199
203
180
173
190
183
171
160
164
180
189
186
190
180
179
186
196
198
185
198
203
219
210
190
174
191
172
176
202
195
205
233
230
201
187
183
184
207
200
196
191
185
194
189
190
187
175
186
185
181
176
182
180
179
175
163
171
178
172
173
178
170
167
175
176
176
184
178
177
178
182
190
181
192
185
182
186
180
190
194
192
201
198
203
201
195
200
211
210
202
189
204
191
200
187
172
183
181
170
158
167
171
186
186
185
178
179
191
188
196
196
208
199
209
200
185
180
174
167
177
205
197
207
236
222
206
190
186
185
205
201
200
194
193
197
192
191
188
179
189
181
183
178
181
178
180
176
161
171
175
170
168
177
162
165
172
171
171
181
177
173
180
180
191
183
185
189
183
182
188
194
195
197
202
206
202
205
194
199
199
228
205
188
206
191
190
189
178
178
183
175
156
164
174
168
180
187
170
176
194
193
202
202
214
199
203
196
183
172
170
161
173
204
206
208
228
224
207
198
185
190
204
200
206
197
198
193
195
192
192
186
186
181
184
185
183
180
183
177
167
170
173
167
174
173
167
163
173
171
167
175
174
171
185
188
190
184
182
186
180
180
196
196
196
195
206
214
206
206
195
197
193
219
214
199
203
198
181
190
181
173
186
183
165
159
167
165
164
174
168
179
191
195
210
213
220
199
196
189
178
169
169
161
165
206
201
208
234
219
208
200
189
190
211
196
199
208
202
193
192
196
198
189
188
182
189
186
189
183
181
180
176
174
176
172
179
172
164
166
170
171
170
176
180
180
191
189
186
184
182
182
182
188
194
199
198
199
216
219
204
204
201
197
190
204
216
203
206
196
180
191
183
177
183
185
174
166
166
170
159
169
176
179
194
208
212
226
211
199
200
181
171
170
172
164
169
186
197
220
231
222
206
201
191
191
207
204
203
207
206
200
191
198
197
192
187
187
191
184
187
182
177
177
175
174
175
177
179
174
169
175
169
175
175
182
189
188
189
191
186
187
185
181
187
190
198
203
195
203
225
216
204
217
209
196
184
205
212
204
198
193
186
189
185
180
179
181
182
170
168
171
162
165
190
196
202
217
222
227
215
203
203
177
163
171
169
164
162
171
204
220
234
226
205
200
192
196
198
211
210
202
206
202
200
198
197
200
195
197
194
184
181
180
174
177
176
174
177
183
179
178
177
179
182
186
189
191
197
192
189
192
187
190
182
189
191
193
206
201
190
208
220
209
210
218
202
207
188
207
223
214
189
184
192
189
195
187
177
183
187
178
171
167
167
161
196
198
203
214
227
225
222
208
202
185
158
167
168
151
155
184
213
216
229
234
205
199
193
199
200
206
206
205
206
200
202
201
202
200
201
200
198
191
183
178
174
180
179
178
180
182
182
182
184
185
188
194
194
199
200
194
193
191
196
191
189
196
199
199
205
197
199
208
214
211
219
217
201
210
196
219
233
219
193
176
188
182
199
190
180
184
189
183
171
165
183
172
192
199
199
216
220
224
223
207
193
185
155
165
156
144
168
192
224
225
222
228
205
201
194
192
196
204
202
203
204
201
204
200
205
204
202
204
201
197
195
189
184
185
184
187
186
185
188
193
191
186
195
199
198
203
197
198
194
196
195
197
199
204
204
197
201
193
202
200
212
214
224
217
203
214
197
227
241
230
193
176
171
182
198
198
181
183
189
192
181
169
172
181
198
201
204
206
218
224
223
208
184
186
160
162
139
151
169
197
231
225
226
214
203
207
200
190
198
199
202
198
202
197
204
197
198
204
205
199
197
198
196
194
194
193
192
192
192
188
197
199
196
195
201
199
199
204
198
196
200
199
201
205
206
207
205
199
198
197
200
206
196
223
221
213
212
212
202
228
240
230
200
183
168
172
201
203
184
184
187
189
187
170
174
178
192
202
199
203
218
226
223
206
186
182
174
138
134
153
176
201
234
227
226
211
202
203
204
196
195
199
202
194
201
191
205
200
197
206
208
200
202
202
202
204
202
205
202
199
201
197
204
203
203
200
200
207
205
205
203
197
202
212
212
205
206
204
205
199
200
196
197
210
195
226
209
218
212
216
206
225
238
228
208
190
179
171
198
201
187
183
186
188
194
174
174
182
203
207
193
210
209
227
220
205
188
179
158
133
144
165
179
191
232
230
220
219
209
196
196
195
197
200
201
195
197
192
201
202
205
209
213
204
206
205
205
215
209
212
210
214
209
208
211
214
212
207
205
213
211
202
203
204
208
208
209
203
204
202
201
202
197
191
198
209
214
212
204
226
217
220
206
228
230
224
220
183
179
184
194
202
195
187
192
188
190
181
174
185
208
202
204
209
211
222
221
200
160
163
155
151
154
161
181
185
226
232
218
221
219
199
190
188
197
199
203
196
196
195
195
205
202
202
207
202
208
207
209
212
210
211
217
212
211
212
214
211
213
207
203
207
205
203
206
204
209
202
209
204
201
200
200
194
196
188
201
215
221
191
209
227
222
222
207
235
226
212
219
183
179
188
191
206
205
193
197
199
188
185
177
189
