P2
# Face with average contibution
92 112
255
204
206
206
206
212
210
211
211
209
208
205
207
210
212
211
209
206
210
209
208
209
208
209
204
204
206
209
207
201
209
200
200
204
204
210
205
212
218
216
215
216
213
218
217
213
201
204
207
215
209
206
207
214
205
211
211
211
216
215
213
210
208
204
209
205
207
210
203
211
211
210
211
214
210
213
205
206
207
207
206
204
205
208
204
203
202
204
205
207
207
206
206
208
205
210
206
211
207
212
210
209
207
209
210
212
212
215
213
212
218
208
213
210
206
206
203
207
212
211
212
209
204
205
201
198
201
201
206
206
210
206
216
211
208
213
216
216
201
196
202
211
214
212
211
213
211
211
211
211
217
217
212
208
208
204
208
220
216
211
206
213
213
204
204
207
209
214
210
204
205
206
207
206
208
211
206
205
205
209
206
207
209
205
204
206
203
206
207
210
209
213
209
208
206
208
213
215
218
213
212
216
215
205
209
209
209
209
211
215
211
211
205
206
196
194
202
202
200
199
208
211
214
202
215
218
210
209
211
212
205
207
206
206
217
214
213
218
217
209
209
216
215
216
206
208
206
208
213
218
215
205
209
216
218
214
205
205
206
205
208
209
204
206
209
202
210
209
211
207
206
207
208
205
208
205
208
208
203
210
211
211
212
211
208
208
208
206
209
208
209
210
211
208
210
205
209
214
217
217
217
218
205
204
195
197
203
194
195
208
206
204
198
211
219
198
206
218
211
198
203
210
206
205
204
209
219
217
216
215
219
220
209
207
213
218
208
204
201
207
212
217
214
214
216
216
215
218
210
204
214
208
204
211
202
204
209
202
202
209
209
208
209
207
209
203
209
205
207
209
206
208
213
211
208
208
210
209
208
209
203
202
206
207
211
212
215
210
206
208
217
222
218
211
204
203
204
206
199
203
200
204
200
205
204
206
211
206
200
213
210
194
198
205
206
206
202
210
210
215
222
215
218
221
214
206
201
209
220
214
194
200
199
206
210
222
219
213
211
205
199
204
206
210
208
211
211
203
209
210
203
206
208
209
210
210
210
204
207
206
206
212
208
207
207
210
209
205
209
212
213
216
208
207
206
213
222
220
222
215
215
218
221
213
211
209
204
205
209
208
209
204
202
208
200
200
202
200
197
206
202
207
206
191
192
208
210
206
202
201
204
205
218
211
211
216
207
211
200
202
209
215
206
206
197
187
202
215
216
211
205
204
200
200
204
197
207
215
215
210
210
216
207
212
204
209
208
212
209
204
207
205
205
214
210
210
207
208
205
208
216
214
212
213
206
203
206
220
226
218
217
213
223
213
211
205
209
212
208
210
208
210
215
206
199
198
197
195
192
193
197
202
199
200
205
189
197
205
214
201
197
192
199
207
215
204
208
219
207
209
205
199
207
210
204
210
213
195
194
204
214
205
204
204
206
201
199
197
205
216
223
218
217
214
209
210
205
208
208
207
211
206
205
201
205
210
212
210
209
204
211
212
212
211
213
206
198
199
210
212
217
219
220
220
214
216
216
209
202
205
214
212
213
212
210
211
203
198
197
190
185
189
187
201
200
197
206
196
203
205
205
201
197
195
205
212
216
204
205
212
211
215
213
202
210
214
203
210
208
213
198
207
209
204
205
210
209
205
198
198
203
213
212
220
215
210
214
212
207
203
207
206
210
206
205
204
205
207
209
211
210
213
212
209
212
212
209
200
201
203
204
213
220
221
223
218
216
223
220
205
202
205
211
218
219
220
211
201
202
196
192
195
187
191
182
192
201
205
213
203
200
196
192
190
192
202
209
220
214
200
204
205
213
214
221
201
220
216
212
209
207
215
203
204
218
209
213
214
205
198
192
199
203
209
205
210
215
220
210
207
212
199
203
203
208
206
206
207
204
204
208
214
213
214
212
211
212
214
203
201
206
209
213
224
231
221
216
218
220
221
220
214
211
211
210
219
214
212
208
204
192
199
193
190
189
186
189
189
205
203
215
207
209
194
191
183
193
205
217
217
214
200
203
197
213
220
222
206
215
225
213
207
209
209
208
198
209
213
223
216
205
198
192
199
199
203
200
202
205
211
216
211
203
205
203
207
205
208
209
206
205
204
213
214
216
217
213
211
203
209
200
206
220
230
230
228
222
210
206
203
205
212
223
228
219
216
219
215
211
213
212
208
193
195
200
182
192
186
189
191
197
206
208
208
200
196
204
194
203
205
215
218
205
200
204
194
212
222
222
210
214
225
217
207
206
210
216
202
201
216
217
214
202
204
197
196
194
193
194
195
197
204
209
219
215
207
208
206
208
207
209
207
205
206
214
213
220
214
213
207
209
210
198
212
229
233
232
219
209
203
199
203
205
210
211
220
221
221
226
219
211
212
207
209
194
192
196
186
189
191
187
194
199
212
210
210
200
204
209
197
200
203
206
204
200
200
205
203
206
216
214
212
213
224
218
210
213
211
223
215
207
210
219
221
207
209
208
201
201
199
200
197
194
204
207
208
217
212
207
204
210
206
207
207
204
210
215
214
218
216
211
208
204
212
201
220
234
226
218
206
201
200
201
212
219
216
212
214
225
216
213
214
211
207
206
202
203
194
198
198
193
197
191
185
198
203
205
209
204
207
204
206
204
205
213
213
209
213
207
204
208
206
204
202
207
208
216
211
213
216
219
220
221
214
219
221
218
214
215
212
204
204
205
195
194
194
205
204
207
211
215
194
206
207
205
206
206
213
213
208
221
211
207
203
207
211
206
222
225
221
214
211
199
194
198
212
216
218
205
209
214
211
210
211
207
206
203
200
203
202
201
204
207
197
187
190
200
202
201
205
209
207
198
208
214
213
212
213
210
215
218
210
202
207
205
205
202
195
198
199
205
212
212
215
222
219
216
217
219
215
212
214
213
207
213
213
197
196
197
203
208
210
210
205
208
209
211
207
205
213
206
208
213
202
199
209
208
210
208
217
219
215
213
210
198
194
205
209
201
207
205
195
198
200
202
208
203
205
202
204
202
202
201
205
205
197
186
195
196
203
206
211
206
211
207
210
217
217
216
218
214
214
220
215
201
199
205
207
212
205
198
193
195
201
206
214
214
215
219
223
215
210
213
210
214
223
213
221
207
192
188
189
202
213
207
203
210
210
214
212
209
212
207
206
206
198
208
212
210
208
207
214
220
208
210
211
206
203
211
203
198
201
194
195
199
194
186
189
190
197
193
203
209
210
206
200
206
209
198
208
210
217
204
212
209
209
208
215
214
212
213
215
221
214
217
217
214
193
198
201
209
213
212
208
197
198
201
215
210
218
223
231
221
213
214
217
211
221
226
215
210
195
187
181
194
210
207
210
212
213
215
215
216
213
204
202
195
202
203
204
204
214
214
212
210
202
206
207
208
207
207
200
201
195
186
189
194
191
191
184
187
191
196
195
203
207
209
204
207
220
210
213
214
214
210
208
212
216
210
214
214
215
215
214
216
219
223
221
221
205
196
201
200
212
215
211
213
209
207
205
215
213
218
226
225
217
211
210
212
224
219
215
212
198
187
184
188
195
200
210
215
210
215
216
217
205
200
197
198
209
199
199
204
215
215
208
205
210
203
207
209
197
201
203
199
186
179
188
190
197
187
186
187
189
194
197
199
207
206
206
217
222
222
217
218
218
216
210
212
212
210
206
204
214
216
217
215
217
219
219
223
218
198
207
207
209
215
214
212
208
208
204
207
210
218
221
220
219
203
202
202
213
227
222
213
204
197
192
194
195
199
203
216
209
214
213
215
211
200
200
199
202
200
202
202
209
214
213
203
198
191
197
197
203
204
196
195
184
178
190
197
198
191
186
188
189
198
201
207
209
212
214
224
225
223
224
228
222
216
214
214
215
209
206
208
210
217
222
220
218
223
222
217
222
213
211
224
214
211
213
212
213
210
211
210
208
213
218
223
215
205
203
204
206
223
229
217
208
206
204
197
196
200
202
211
214
216
209
213
203
196
199
194
205
198
200
211
210
217
208
193
197
188
193
197
201
198
196
197
188
187
201
204
193
193
194
194
197
202
201
206
210
211
220
222
223
224
225
222
221
214
206
211
208
203
202
207
208
219
221
223
223
227
224
224
224
227
221
226
222
216
210
218
215
216
211
214
213
208
219
220
218
210
210
203
196
209
224
217
209
208
213
205
192
198
203
209
215
216
207
212
197
195
199
196
203
199
208
213
214
209
191
189
195
193
195
202
201
202
207
201
196
200
201
190
181
189
197
200
204
202
204
210
213
217
222
223
224
224
225
222
217
217
217
212
208
211
201
198
209
218
223
221
221
227
229
228
231
225
222
220
220
218
218
214
215
215
212
211
214
205
203
202
206
206
200
197
190
191
207
215
210
202
206
213
198
191
210
208
209
211
207
214
193
197
202
208
198
206
210
212
211
197
191
192
198
198
196
193
203
206
209
205
202
192
194
190
182
189
195
201
209
207
209
208
214
219
223
222
220
221
219
220
218
217
215
210
206
202
203
198
203
214
220
226
226
227
229
228
228
223
219
220
219
218
222
222
220
219
213
211
210
203
198
204
202
203
204
200
193
183
197
204
207
201
202
209
212
196
199
206
208
205
208
211
198
197
200
203
201
204
203
211
207
196
188
191
203
200
191
193
203
205
205
206
196
188
191
194
192
196
204
205
206
207
205
208
212
218
214
218
215
215
214
211
212
210
211
205
201
195
198
199
200
206
213
218
226
224
223
222
227
222
222
222
217
218
220
219
220
217
214
209
210
200
201
196
203
192
195
193
194
187
191
198
200
203
204
208
218
204
192
206
198
204
209
211
202
200
196
198
202
200
208
211
206
198
192
199
201
196
192
199
203
205
206
197
196
191
191
197
198
200
202
204
206
205
199
200
206
212
212
214
216
211
212
211
205
205
208
201
199
195
194
191
193
198
208
219
219
226
220
221
223
221
219
220
216
216
217
219
214
212
219
211
205
205
202
197
196
193
192
190
198
189
187
193
194
204
204
211
211
208
194
199
198
202
204
212
204
198
195
195
195
204
211
213
210
199
196
198
192
194
198
202
198
208
202
192
192
194
198
195
196
197
197
202
199
196
193
196
203
202
207
206
208
210
213
208
204
204
201
202
193
195
196
193
194
198
203
213
217
221
221
216
219
219
218
216
209
213
216
214
211
211
215
212
209
205
205
194
193
190
189
193
197
192
195
197
202
197
209
202
207
211
199
200
199
198
201
206
197
196
196
184
190
208
211
213
211
204
194
201
205
203
206
202
201
201
196
192
197
200
197
197
196
193
198
197
191
195
197
200
202
200
202
202
204
204
208
206
205
205
201
205
200
196
199
194
198
204
201
204
209
215
214
212
211
210
217
213
210
207
208
205
210
211
214
215
210
209
206
199
192
193
193
198
200
192
194
201
198
198
202
201
197
210
194
197
201
198
198
201
197
186
195
186
198
208
210
219
219
200
196
201
205
208
204
204
202
192
196
197
197
197
191
189
193
197
197
194
193
202
204
204
202
200
198
197
201
201
201
199
200
203
200
201
201
194
198
196
200
200
198
198
201
210
211
208
209
210
205
209
209
207
207
202
208
208
214
214
215
210
209
202
193
194
194
204
201
197
191
194
201
200
201
204
203
206
201
190
200
199
197
195
196
183
195
188
200
203
213
220
213
199
194
201
210
205
201
202
200
192
197
197
195
195
193
187
195
200
198
200
203
205
207
203
201
203
198
199
195
200
198
198
200
204
202
200
201
197
196
196
197
197
193
195
200
203
202
208
205
204
202
211
207
208
205
204
204
207
208
214
213
211
209
206
200
190
195
201
203
203
201
194
204
200
203
205
217
204
204
197
192
196
195
191
191
183
187
197
199
207
215
218
204
195
199
199
212
206
207
203
201
200
199
198
198
194
191
191
200
201
197
202
208
206
207
210
207
209
206
202
206
204
201
202
203
203
201
202
202
201
195
195
194
193
197
201
197
200
198
203
202
202
202
205
207
203
203
207
207
205
208
211
211
210
211
207
202
190
198
204
204
210
203
204
210
210
206
212
212
214
201
196
194
190
191
191
186
193
194
203
196
209
219
211
198
197
208
209
207
205
207
206
205
200
200
201
201
193
197
201
201
201
201
202
209
209
210
214
212
212
212
210
207
206
204
202
201
204
203
205
203
206
199
197
194
194
197
199
198
201
201
197
199
202
203
204
208
203
204
210
206
207
207
211
208
205
209
208
203
197
194
197
203
215
204
198
211
213
211
210
215
215
199
190
190
189
191
189
190
202
201
198
196
210
215
213
196
203
207
213
207
199
206
207
206
205
203
207
203
201
206
207
203
203
205
205
207
210
212
214
216
212
208
208
209
206
205
204
203
205
204
203
203
203
201
200
196
193
196
196
202
201
201
196
195
200
199
199
203
203
204
202
199
201
201
204
206
204
206
204
204
200
195
199
194
217
212
200
209
211
217
213
217
217
205
189
187
185
191
186
197
206
211
198
195
210
217
208
203
205
209
208
203
205
201
209
210
211
206
203
201
205
206
203
201
206
208
205
211
211
210
214
220
209
209
207
208
208
204
206
203
204
205
204
205
204
205
202
198
196
197
199
200
203
199
195
192
200
196
197
202
204
199
197
197
196
202
203
206
207
210
206
206
199
194
199
192
206
212
207
214
217
215
210
216
211
210
193
189
190
189
188
199
211
210
198
195
206
211
211
205
207
206
209
207
206
203
203
206
203
204
201
201
199
198
201
204
206
209
210
212
216
215
216
219
211
208
212
209
211
205
205
202
202
205
206
209
204
206
202
198
199
197
199
201
204
199
196
191
194
200
195
196
205
198
193
197
198
199
201
205
206
208
210
212
206
193
197
195
195
211
207
212
223
216
209
209
211
215
207
192
190
191
189
205
208
207
200
200
205
210
208
206
203
205
205
212
207
202
199
194
197
201
201
207
207
201
204
207
206
208
212
211
213
214
216
218
215
210
214
215
213
209
208
206
201
206
206
206
203
203
200
196
197
194
197
199
202
200
196
193
190
196
200
199
194
196
198
193
197
199
199
203
202
207
212
216
215
202
193
196
194
198
211
212
218
223
212
216
209
218
221
210
189
185
188
206
205
211
206
199
202
214
211
204
200
205
208
208
208
202
195
196
197
204
207
209
207
205
202
206
209
211
210
212
217
216
220
220
219
216
216
221
216
213
212
209
209
208
208
210
203
206
199
194
198
195
199
197
199
201
197
194
192
193
194
197
194
192
196
198
201
198
203
202
203
210
216
221
221
213
205
198
200
195
200
219
210
226
218
218
215
212
220
218
201
179
184
202
210
216
205
197
202
204
211
205
197
199
206
204
205
200
200
194
200
208
210
208
203
202
200
203
208
211
210
212
214
218
217
218
219
219
217
218
217
212
213
211
210
208
205
205
202
203
199
191
193
197
193
195
194
196
196
193
193
190
193
191
196
198
191
197
200
202
202
206
211
215
220
225
224
225
215
209
204
201
193
207
219
224
228
210
215
208
201
204
206
180
178
208
217
223
200
194
198
209
214
204
192
200
205
202
201
196
199
199
204
211
215
211
205
200
201
203
209
205
202
207
207
210
211
213
213
213
213
213
216
212
214
210
207
208
203
203
200
201
199
195
195
197
197
196
195
195
194
192
192
189
193
191
196
196
199
201
204
204
206
211
214
218
220
228
229
230
221
216
208
205
196
199
207
226
234
208
206
216
199
193
209
188
173
218
218
220
199
190
193
216
206
202
191
198
201
196
201
199
200
203
204
215
219
215
209
199
204
197
194
196
194
202
206
207
208
210
209
211
211
216
215
211
215
212
210
206
204
201
200
199
199
198
198
196
196
198
198
199
196
194
190
189
194
194
192
197
198
202
208
209
209
212
216
218
221
224
229
226
222
219
216
203
197
199
212
215
235
219
193
213
200
194
199
196
179
224
219
219
201
189
195
205
203
200
191
196
198
196
199
203
205
207
212
218
223
212
204
204
202
195
200
201
198
203
203
207
203
205
204
205
204
210
213
212
212
210
207
205
205
200
201
199
202
200
197
196
197
201
202
200
188
188
189
189
194
196
197
197
199
197
201
205
202
206
212
214
216
220
224
223
221
219
219
206
192
198
213
218
231
208
194
210
197
193
193
195
189
226
229
225
210
193
191
207
198
198
191
196
199
199
207
207
214
210
215
220
223
213
208
209
208
201
203
207
206
209
208
209
206
208
211
211
208
203
208
209
209
208
204
201
203
195
197
200
201
199
197
198
199
200
199
198
196
198
195
192
191
197
200
197
203
201
202
204
204
203
205
207
211
215
216
221
219
219
221
213
196
202
212
224
215
208
193
208
203
194
192
193
194
221
232
239
213
205
191
204
199
201
189
195
200
202
208
217
211
214
214
217
217
217
215
217
220
214
214
218
217
216
211
207
207
203
205
205
206
200
203
207
209
209
210
204
201
202
202
206
204
203
201
201
200
201
201
201
199
198
198
192
194
194
200
203
207
207
203
201
205
200
203
202
212
219
217
221
224
223
228
216
209
212
224
225
222
207
199
205
202
191
193
195
201
217
236
239
225
209
197
201
201
205
197
199
202
205
215
212
213
215
214
215
217
218
222
227
221
221
215
217
216
218
213
206
204
199
196
200
203
208
207
208
211
209
212
212
206
207
206
209
212
209
204
203
199
195
202
199
194
197
195
195
197
197
204
204
206
203
204
199
201
202
202
200
207
214
214
215
222
222
232
217
213
231
233
231
226
217
204
199
196
198
194
201
209
218
234
240
230
215
204
200
198
204
207
206
202
210
211
206
209
211
205
202
204
207
220
219
221
218
208
218
228
216
218
217
218
215
209
211
210
206
202
207
211
206
209
213
212
209
207
211
214
208
205
206
201
197
201
202
201
202
200
199
203
204
203
201
197
193
193
195
196
200
190
194
205
202
193
206
218
212
228
225
213
221
235
236
237
225
213
189
190
199
200
203
212
220
228
235
235
227
213
207
201
203
211
212
208
214
211
209
212
219
215
212
209
209
213
213
223
217
214
217
228
218
222
219
215
221
208
214
211
205
201
205
203
202
203
208
212
211
206
204
205
209
206
206
208
214
203
201
205
198
196
194
199
191
185
175
174
176
184
189
185
185
181
193
205
207
203
204
218
202
221
222
218
223
228
230
231
225
222
187
182
201
202
209
211
223
231
223
235
229
218
209
205
203
215
212
210
221
219
211
215
219
218
213
210
212
214
221
227
222
218
222
227
225
222
231
217
219
211
211
200
191
195
189
206
199
185
195
196
193
197
196
203
215
216
210
219
220
215
212
212
212
216
209
205
192
186
180
179
173
187
203
200
189
178
190
204
208
218
224
224
205
211
216
221
222
231
225
221
211
213
193
180
202
213
212
214
224
238
232
224
229
223
210
205
204
212
216
226
221
212
219
223
224
224
219
219
220
215
216
218
213
209
214
215
225
220
216
210
206
208
203
195
196
198
190
195
210
192
200
200
191
186
188
204
215
202
203
214
207
208
212
211
207
217
216
216
198
188
183
187
186
196
206
210
210
203
201
217
223
226
234
232
216
207
209
224
224
232
233
231
195
202
191
179
212
218
218
215
222
233
233
228
233
226
213
206
211
214
221
226
223
214
224
225
235
233
229
232
224
214
205
203
203
191
191
192
215
209
193
188
202
212
205
202
205
206
206
200
214
204
213
204
204
196
202
213
207
202
203
214
202
207
203
202
204
215
217
208
196
191
184
196
198
209
219
225
222
213
222
217
227
230
237
235
227
208
213
231
233
227
242
236
203
198
190
182
216
219
225
214
211
226
225
229
242
225
213
206
215
214
211
215
219
214
221
230
235
228
228
224
218
210
200
206
201
204
196
197
218
206
192
182
192
216
221
216
218
217
219
211
221
206
214
206
213
205
218
221
206
211
212
216
214
210
205
201
203
209
207
196
190
190
193
196
203
208
223
221
216
217
217
215
230
227
230
237
237
215
210
239
243
225
242
249
210
199
187
182
214
224
232
217
213
220
218
223
235
227
219
207
215
214
208
209
215
216
223
233
233
220
223
225
229
220
213
215
211
217
206
217
233
216
222
207
207
218
226
233
228
225
220
218
227
218
220
222
223
212
216
222
207
214
211
215
219
204
203
209
201
206
214
201
198
192
202
211
214
212
221
223
224
229
224
224
234
230
221
225
233
216
198
232
236
236
237
247
209
184
179
177
202
224
231
215
230
215
214
219
235
231
219
194
219
226
216
218
222
223
226
231
233
217
223
231
237
229
216
220
218
221
189
218
242
214
222
216
213
216
220
238
239
236
222
226
241
224
215
228
218
217
222
220
203
211
210
204
219
210
218
215
214
209
208
202
193
182
185
207
215
222
220
226
236
239
231
229
240
239
224
228
239
219
196
211
219
250
240
228
189
174
180
178
197
216
225
209
232
223
208
214
229
233
222
200
228
228
218
214
223
221
220
220
230
213
221
244
248
236
212
217
206
211
192
209
218
196
192
205
223
213
215
229
238
234
222
230
234
216
214
225
217
212
220
225
210
212
208
202
213
214
216
214
210
214
213
212
201
190
184
199
212
231
213
211
227
238
229
225
232
229
221
222
230
226
205
211
214
249
232
209
178
180
182
185
192
212
210
205
221
223
213
194
207
210
221
198
226
220
205
203
214
223
221
216
225
217
224
235
238
221
190
204
214
207
211
207
204
188
193
196
202
219
207
211
220
227
222
234
227
205
211
216
210
204
208
218
205
200
205
202
198
213
213
207
211
207
211
205
201
207
208
203
203
207
201
208
212
220
223
215
214
210
204
214
224
223
200
203
212
255
214
189
191
194
203
204
199
218
194
205
224
207
213
198
186
179
201
189
218
216
205
196
217
221
215
216
223
216
232
237
219
203
195
187
200
213
205
198
199
188
192
202
199
209
196
204
202
205
216
228
213
200
209
209
216
207
202
211
206
190
199
195
191
206
214
204
213
222
213
221
196
208
225
210
208
217
198
202
211
208
217
214
208
199
193
204
225
214
201
177
209
246
196
191
210
214
211
207
204
220
198
206
216
205
221
224
189
171
169
173
211
208
199
190
208
218
212
212
218
210
227
240
238
218
196
192
188
198
193
192
204
196
197
201
202
207
198
199
202
197
218
211
199
197
208
218
225
214
210
212
213
190
191
197
190
199
204
207
208
218
223
226
205
213
213
213
208
226
214
202
204
206
210
209
208
198
197
200
229
208
199
193
215
224
191
196
220
211
210
196
199
205
206
203
214
210
214
231
219
174
158
159
186
201
194
194
203
216
203
204
205
207
219
227
231
224
211
198
203
193
189
194
205
202
200
200
204
201
198
198
207
206
221
196
192
194
207
221
222
215
215
216
227
203
186
196
194
193
211
209
203
208
221
216
210
205
202
213
210
211
213
211
207
211
212
215
211
205
206
210
231
203
192
198
220
218
198
198
222
207
211
209
192
197
205
202
212
210
212
231
223
204
161
163
186
194
194
199
195
198
191
199
198
197
205
205
205
203
198
199
197
195
193
195
199
192
191
201
204
205
203
199
206
228
220
197
193
197
199
214
218
211
218
220
221
205
187
186
185
193
207
210
211
206
210
210
205
204
199
198
198
201
197
203
203
209
205
210
213
207
206
207
232
207
199
203
213
227
205
202
218
215
217
215
200
210
207
203
206
203
216
229
221
193
183
171
186
197
189
200
193
187
188
199
192
188
192
191
189
186
189
197
194
196
195
191
199
202
202
208
206
203
205
203
211
222
201
186
191
198
203
212
214
206
211
216
231
209
187
192
179
182
199
202
210
220
205
208
203
194
191
194
197
200
194
207
212
205
205
207
217
218
204
196
220
206
195
196
210
228
210
197
225
222
215
208
202
215
212
204
209
198
209
215
214
175
178
193
190
202
190
194
195
189
185
196
190
189
194
194
193
184
193
203
203
206
202
205
216
216
212
211
219
218
223
202
226
224
186
197
195
193
200
211
218
217
211
222
229
217
183
182
179
181
199
198
204
217
211
211
204
205
184
197
194
211
189
203
216
199
194
215
218
215
209
196
210
212
197
192
215
228
217
206
232
234
215
210
208
215
216
204
203
188
208
210
211
181
173
193
205
209
207
193
193
187
187
195
186
192
202
200
195
191
196
209
213
214
211
213
223
216
222
212
218
219
236
231
217
211
188
185
193
209
209
208
216
214
214
215
219
211
195
188
183
178
181
195
201
212
207
213
218
214
186
200
209
218
223
218
218
199
195
215
233
227
215
205
206
203
195
195
223
224
224
230
244
240
216
203
206
214
219
202
203
193
205
213
222
198
182
191
203
223
210
203
205
187
195
196
198
201
205
202
202
199
211
221
222
229
226
229
232
231
226
207
217
224
233
232
216
218
187
183
200
217
211
220
217
207
212
215
216
206
198
203
192
186
182
194
198
211
202
207
209
215
200
195
221
226
226
221
216
207
203
210
221
230
215
211
202
195
193
201
225
210
221
238
238
243
226
204
206
212
223
200
203
193
205
215
229
207
193
194
204
225
223
215
210
204
205
201
207
199
209
208
198
195
207
217
220
227
213
220
229
219
218
205
208
228
232
214
212
203
191
196
214
221
213
217
221
215
206
212
216
211
204
211
203
194
195
200
199
210
222
214
216
214
212
209
211
216
218
213
206
206
210
209
217
222
218
212
200
198
184
216
220
189
209
224
223
235
240
211
202
210
225
203
207
201
201
212
229
221
210
198
215
218
228
224
213
217
218
217
217
215
210
209
195
192
201
211
215
219
211
209
229
224
204
208
212
215
209
207
200
194
200
204
212
213
210
206
219
218
217
210
218
216
212
207
218
204
210
208
214
202
225
226
217
210
210
214
218
213
205
212
215
217
216
217
215
214
213
212
201
199
185
222
218
193
204
212
206
231
239
213
202
215
220
201
198
205
192
208
229
218
214
204
217
230
221
220
208
217
209
223
219
221
213
209
204
194
202
210
210
211
214
210
220
222
206
206
219
213
211
211
201
201
210
213
205
207
204
204
212
215
210
207
216
216
213
210
209
223
220
219
209
208
227
227
221
220
218
217
218
213
205
208
213
223
220
214
207
210
213
211
196
199
199
217
208
189
219
214
202
237
234
216
201
221
215
199
184
207
193
197
226
214
205
207
212
231
227
195
207
221
212
210
226
221
214
217
208
195
200
210
213
216
216
219
214
205
211
225
217
218
219
211
205
207
214
211
201
205
199
200
207
200
201
202
213
211
208
207
201
215
226
220
210
215
228
233
219
218
222
218
214
201
193
201
204
213
217
212
210
211
214
203
198
203
211
215
203
183
226
214
207
233
231
212
204
221
210
204
185
185
207
196
209
211
195
203
204
213
215
195
190
215
219
217
219
224
220
214
211
202
203
207
210
212
213
215
213
214
220
218
212
206
209
205
199
207
215
209
202
198
201
196
200
198
201
203
215
211
212
201
203
199
217
230
216
214
228
230
222
213
221
224
216
204
198
205
205
210
213
210
209
211
209
200
200
213
213
214
203
192
229
211
214
228
216
211
207
226
203
200
182
180
204
202
196
207
199
208
210
211
207
194
202
217
222
219
226
226
221
215
207
200
198
202
202
204
206
207
214
212
209
210
211
210
211
205
204
215
213
214
203
199
197
196
200
205
207
214
219
219
223
205
203
203
199
215
226
217
231
228
222
208
208
215
217
216
209
212
211
213
212
215
211
206
198
191
210
208
215
208
198
205
216
202
211
220
212
211
216
220
203
206
179
183
195
206
194
197
187
213
211
214
213
197
200
221
230
226
219
220
216
210
204
200
197
200
200
207
208
205
203
205
210
211
213
216
210
211
212
215
212
206
198
202
201
204
207
214
213
218
216
220
224
210
205
200
202
199
210
227
236
235
225
217
215
214
215
213
211
211
212
214
213
213
209
196
190
203
205
206
213
204
191
199
219
203
206
214
216
217
218
214
203
212
178
182
204
204
200
181
189
196
198
216
217
202
201
214
226
228
230
228
222
216
210
210
210
215
213
210
208
211
211
218
218
215
217
210
209
205
211
208
204
198
197
199
206
210
208
215
217
215
209
210
216
210
199
196
191
191
202
212
233
247
237
215
216
219
216
215
212
211
211
213
209
205
204
201
203
199
204
211
211
195
185
200
215
203
206
218
212
225
214
208
210
214
196
177
210
202
208
183
180
206
196
207
214
201
206
210
226
226
222
218
221
217
212
211
212
216
216
214
215
215
219
224
217
218
215
209
202
200
202
202
206
202
204
207
211
212
208
213
215
211
208
210
213
206
200
197
189
194
203
215
221
232
236
227
225
217
211
212
210
207
211
209
212
218
220
205
201
203
211
218
202
187
193
203
212
203
209
214
213
221
213
210
214
210
218
175
207
201
206
202
172
198
206
202
207
200
205
213
222
225
219
221
215
217
208
211
213
217
217
217
218
217
219
221
214
217
214
209
204
206
204
212
215
214
208
208
213
210
210
212
212
210
215
208
207
205
197
207
197
201
204
212
222
227
232
225
218
216
214
211
213
217
220
220
219
213
212
203
199
201
208
215
201
189
199
201
213
207
202
217
216
219
218
212
212
209
214
196
199
202
200
203
192
189
195
193
196
196
196
210
220
219
218
216
212
211
209
209
215
217
216
215
220
217
222
223
215
216
215
219
213
219
217
219
221
222
213
212
209
208
211
213
213
216
219
206
206
206
194
201
201
203
200
207
214
227
231
229
220
210
204
201
210
215
218
220
217
212
211
207
204
202
211
217
205
196
198
205
217
209
200
211
213
226
223
211
211
211
205
194
208
194
191
207
200
191
192
179
186
195
191
204
219
215
214
213
210
211
212
210
215
214
215
217
217
222
221
218
212
210
221
219
210
215
216
216
213
212
212
209
205
207
209
209
206
211
217
211
209
203
188
188
196
199
201
201
206
218
223
225
215
201
198
202
208
216
212
214
215
211
208
210
202
203
212
224
202
197
200
208
218
202
204
211
224
226
223
212
213
210
206
190
201
206
189
194
207
193
193
177
182
195
194
204
216
213
212
207
210
214
213
210
213
217
213
216
218
217
218
213
209
206
223
225
211
212
214
210
208
209
204
202
199
196
204
203
196
197
208
211
207
204
195
190
196
198
196
197
201
209
218
222
209
198
205
204
211
212
210
210
213
213
208
209
205
201
214
226
198
198
205
212
201
193
215
223
224
228
217
211
215
208
211
200
189
194
201
189
196
194
191
177
173
187
194
197
209
205
204
205
209
216
214
210
212
214
213
213
212
211
207
208
204
207
223
231
225
222
217
212
208
206
201
197
193
196
202
198
191
194
204
211
216
225
205
196
194
192
196
197
192
201
214
226
217
211
210
205
212
211
207
212
211
211
207
206
204
205
216
224
201
202
210
205
192
209
223
220
224
225
214
215
213
205
208
205
187
194
200
199
199
210
188
184
172
183
196
197
210
206
200
204
209
212
213
212
211
212
209
206
207
206
205
204
205
208
215
222
231
224
219
217
207
198
194
200
198
196
200
196
198
197
205
211
217
220
209
203
199
195
202
199
197
203
213
219
221
213
208
207
210
204
203
206
210
208
204
203
204
206
218
217
206
216
216
208
198
214
216
214
226
223
212
217
211
206
208
204
193
194
200
207
204
224
214
202
183
183
200
198
213
205
199
201
207
207
205
211
209
210
203
204
205
204
206
204
205
204
206
213
217
218
214
211
202
200
206
206
206
210
205
202
207
210
198
210
217
220
216
207
205
200
209
208
205
213
221
220
214
208
203
199
201
201
201
203
206
205
204
203
204
205
219
213
206
224
212
199
205
221
207
219
227
220
214
214
211
209
210
205
196
193
199
213
207
214
225
216
204
179
198
196
215
208
200
200
201
204
200
204
203
203
201
207
208
205
204
204
205
194
197
203
204
207
212
209
205
210
209
209
204
216
211
204
208
213
208
213
220
221
223
216
214
209
211
217
214
221
226
221
215
206
195
195
199
202
200
201
203
202
202
203
203
211
215
206
201
220
205
193
205
210
207
227
225
219
214
209
210
210
207
209
201
191
195
212
204
209
220
220
217
188
201
195
209
210
198
204
200
200
198
197
195
195
203
207
205
204
206
205
200
201
207
211
209
209
210
214
210
209
213
208
211
219
216
211
214
220
228
235
240
241
237
221
219
218
213
218
218
235
243
226
217
206
194
190
195
199
201
197
203
201
202
201
204
207
206
192
197
220
199
192
202
207
217
228
225
220
215
208
209
212
208
210
203
196
195
204
202
207
210
214
214
195
197
194
202
214
199
206
202
202
205
198
190
198
204
206
202
203
213
209
209
211
214
214
215
210
207
213
212
208
205
205
204
204
211
217
216
216
217
218
228
235
238
222
213
216
215
217
219
233
228
224
210
199
198
193
191
195
198
195
202
201
201
201
207
205
200
186
207
217
193
192
198
213
223
229
223
217
213
210
209
208
211
207
207
202
196
202
207
206
207
204
210
201
184
196
200
213
204
206
205
205
204
197
194
201
205
205
201
208
212
215
215
219
217
214
213
210
206
213
213
208
199
204
199
196
194
214
214
209
203
201
205
216
219
210
214
209
218
217
212
216
212
209
200
200
195
193
194
194
195
196
200
202
199
200
212
204
195
188
214
213
190
194
200
213
226
224
223
214
211
211
209
207
210
208
209
206
200
207
207
207
210
204
205
209
183
196
198
210
208
203
207
207
205
201
198
198
203
204
204
214
216
221
219
221
217
216
211
204
199
205
205
199
195
198
195
191
184
195
210
199
200
200
198
202
205
207
215
212
212
214
199
204
203
205
202
200
195
195
197
197
195
197
202
202
198
200
219
206
194
195
221
206
192
195
203
215
221
225
222
211
212
211
211
209
207
204
209
206
208
217
219
206
208
210
207
210
187
195
199
209
209
206
205
205
207
201
200
194
200
208
208
212
217
214
214
218
212
211
207
197
194
192
190
191
187
193
195
198
192
193
203
190
188
197
196
201
199
201
202
193
203
198
189
194
208
203
211
205
199
202
203
197
198
205
202
203
198
204
216
205
194
206
217
203
196
201
195
214
220
224
215
208
211
217
210
211
205
205
202
206
210
217
228
206
210
214
214
208
196
186
199
199
211
204
202
206
205
202
199
197
199
202
207
208
207
207
209
211
203
203
206
199
193
190
191
186
187
192
195
201
196
192
198
176
173
180
187
197
193
188
190
192
202
193
191
195
209
202
211
210
204
205
204
199
200
211
206
204
200
204
205
201
194
214
210
206
203
202
199
214
220
219
212
210
211
214
210
212
205
206
198
204
210
211
223
210
208
211
213
209
204
181
191
196
205
204
203
206
209
205
208
206
205
205
200
193
198
193
195
200
195
199
200
198
200
193
202
192
186
188
201
204
201
191
201
181
181
182
186
200
198
194
194
203
215
205
199
209
217
212
212
213
203
213
210
203
202
215
208
203
203
201
201
193
193
213
204
203
205
201
205
218
219
216
212
210
212
214
209
208
206
203
201
197
206
209
220
215
207
212
215
210
207
188
183
192
204
200
199
203
204
211
211
211
207
210
205
201
198
193
192
191
193
199
195
201
202
198
208
210
198
185
207
208
198
199
203
188
189
201
204
215
213
205
203
208
211
218
208
215
219
212
210
213
208
214
216
208
209
211
207
200
201
200
197
192
196
215
202
204
204
205
206
219
215
215
211
209
213
212
213
210
211
204
203
195
203
204
214
220
208
212
216
210
208
201
186
192
203
198
197
197
200
213
210
210
208
216
211
210
212
206
200
193
195
204
189
199
201
193
200
200
201
196
203
200
199
196
207
193
205
207
210
215
210
208
196
200
197
210
199
202
209
206
206
205
206
211
213
211
212
210
205
197
200
198
192
190
199
208
201
204
205
204
208
216
214
218
206
210
212
210
212
209
210
209
205
197
198
201
207
220
213
211
217
212
208
211
191
196
203
195
185
197
194
209
211
207
210
217
219
215
217
220
216
205
200
209
198
192
198
194
205
201
204
202
206
195
200
206
210
208
199
202
197
210
210
209
199
200
201
206
200
204
207
208
211
207
207
209
207
207
207
206
201
198
200
196
190
189
198
204
204
201
202
203
208
215
218
212
208
213
210
212
208
209
212
208
207
198
197
201
208
212
218
204
213
216
207
210
205
197
204
198
187
201
193
201
211
209
213
213
221
217
213
217
220
217
213
218
211
203
212
212
231
238
237
229
225
220
230
236
231
229
213
225
212
218
218
214
204
205
207
213
208
206
202
210
208
208
209
216
213
202
203
202
196
203
198
194
191
186
193
201
203
202
202
205
211
215
215
209
211
209
213
212
208
210
215
208
212
205
201
203
207
210
210
207
208
211
208
207
215
200
202
202
187
200
204
202
209
211
213
209
215
217
214
211
213
206
208
208
202
192
196
194
204
218
221
221
220
222
230
235
231
227
218
216
215
217
216
214
215
215
221
223
217
215
215
218
210
212
214
209
208
201
193
190
195
199
198
195
190
186
193
202
204
203
204
210
216
214
215
210
213
215
211
212
211
213
218
212
207
210
204
208
207
214
209
205
205
208
206
211
205
212
205
201
193
193
209
207
205
213
213
207
210
211
211
206
204
202
197
205
208
207
204
210
203
210
217
222
222
220
220
233
236
230
223
214
215
232
222
221
222
232
241
244
245
239
239
226
218
209
206
197
199
193
189
190
199
204
205
198
193
189
196
201
201
205
203
213
217
214
214
213
214
216
211
213
214
217
221
207
213
211
210
207
211
216
215
202
202
207
200
205
203
223
211
201
198
195
205
214
209
212
219
217
210
214
216
213
211
214
206
206
205
209
209
207
205
200
199
205
210
211
212
216
221
227
230
236
239
240
240
243
237
241
237
229
226
224
221
213
206
202
200
195
193
191
189
197
202
201
205
197
197
198
193
203
201
204
208
213
216
212
214
217
214
214
214
214
214
214
220
211
216
214
210
207
215
213
218
202
202
207
199
200
202
227
224
210
196
197
199
209
211
210
219
223
219
216
220
219
217
216
211
202
196
202
203
197
196
196
200
206
205
210
212
211
206
212
216
222
224
221
227
226
214
212
211
208
211
208
209
213
204
199
197
195
197
193
195
203
205
203
206
196
203
196
199
206
202
203
209
214
213
214
212
217
212
214
215
217
213
211
225
215
214
213
213
210
211
214
216
208
198
208
198
194
203
226
237
216
195
199
197
204
212
211
217
220
227
225
225
225
221
222
216
207
202
200
201
198
194
199
206
213
220
220
216
218
218
216
211
206
207
201
200
206
194
194
199
200
203
206
209
210
201
197
193
196
192
193
202
208
207
204
203
202
210
189
196
211
203
207
214
217
214
213
211
216
211
212
214
218
212
211
226
218
213
213
212
213
211
217
214
210
200
202
203
198
201
224
236
224
198
193
201
199
210
214
213
216
222
227
225
228
225
228
226
216
214
210
209
205
204
204
208
212
216
223
226
220
217
216
214
207
199
197
196
200
195
196
199
205
207
209
207
206
200
194
191
193
187
198
206
207
204
208
203
201
205
191
193
209
209
212
218
214
215
214
213
213
212
214
216
221
212
210
232
219
213
208
215
219
214
212
216
209
204
191
205
205
197
224
231
229
205
196
196
200
206
217
211
212
219
222
217
220
222
230
231
222
226
218
215
216
213
214
215
214
211
217
220
221
221
214
217
212
211
207
207
209
208
209
208
206
207
208
202
201
195
190
192
188
192
202
202
207
204
207
212
188
196
192
195
207
215
216
219
214
217
214
218
212
217
214
217
215
215
216
232
222
213
208
211
220
220
211
213
206
206
193
198
206
203
223
228
232
204
199
195
199
200
213
212
208
210
219
214
212
213
224
230
221
222
217
211
213
211
215
211
212
208
210
213
213
217
216
216
215
217
216
215
214
214
207
204
203
200
203
198
197
194
189
185
192
195
200
206
206
207
206
223
201
181
175
181
203
217
225
216
216
214
217
217
213
215
215
215
215
219
219
233
221
211
209
211
220
226
215
205
205
216
204
192
198
208
224
239
230
204
205
195
194
199
206
213
210
210
213
213
213
210
213
218
217
217
212
205
201
206
210
210
210
210
210
211
208
210
214
215
210
216
213
213
209
203
201
199
197
195
197
196
192
192
191
185
191
197
205
203
204
206
203
226
230
177
172
175
181
201
219
219
219
218
218
215
214
216
211
216
218
219
219
227
219
211
209
213
221
231
210
198
209
226
206
191
192
214
235
239
232
202
204
192
192
194
201
209
212
211
211
215
210
208
208
216
219
215
216
208
202
198
198
197
202
205
206
205
204
206
207
209
209
214
213
209
206
201
199
201
200
199
197
194
191
191
192
189
190
202
206
205
209
196
200
242
249
187
171
177
192
184
195
208
223
220
220
214
212
217
210
215
218
218
218
227
222
212
211
214
228
224
196
202
213
230
203
192
196
224
237
239
235
207
196
193
193
195
199
205
211
210
215
214
214
210
208
216
220
213
215
211
209
200
200
195
197
200
206
204
206
209
210
210
212
210
211
204
205
201
202
204
199
200
197
193
192
192
189
189
197
205
208
210
210
192
207
251
249
204
176
173
191
191
186
199
204
215
224
214
213
216
213
216
218
215
220
232
228
218
217
222
223
206
194
210
215
230
199
192
205
229
240
239
239
211
195
194
195
194
196
204
207
211
212
218
214
213
211
215
219
212
211
207
208
203
201
200
204
204
204
207
207
209
210
211
209
204
203
202
202
203
203
204
195
195
196
194
194
193
190
197
202
210
212
214
206
194
205
254
250
216
184
183
194
188
185
195
202
199
210
204
201
211
209
211
216
218
218
233
229
218
219
227
206
196
206
212
216
221
205
192
204
235
231
246
242
212
198
200
197
196
202
202
204
205
208
215
215
216
213
221
224
216
219
212
214
209
207
208
206
204
204
205
204
204
202
204
199
202
198
197
202
203
204
197
193
187
196
195
196
197
199
202
203
212
218
207
201
201
209
245
243
224
183
185
198
190
191
193
191
201
206
204
197
199
198
204
203
203
207
233
230
217
226
218
196
199
209
215
219
215
200
198
199
234
225
249
250
204
198
203
207
199
199
204
196
203
203
213
217
215
218
220
226
221
222
217
218
216
212
212
210
210
208
210
203
205
206
206
200
202
197
201
203
197
201
190
191
192
198
192
202
202
207
204
213
221
215
205
201
208
223
227
228
215
183
179
195
191
196
198
190
192
205
203
203
203
195
203
199
194
192
235
230
221
227
213
197
196
213
219
220
209
176
203
211
232
226
248
245
207
196
203
209
211
202
202
197
202
203
208
217
217
219
219
222
225
227
220
223
222
221
215
215
216
217
215
208
206
209
205
204
209
201
201
199
197
198
193
194
196
200
203
206
207
212
213
223
217
208
205
210
215
234
211
212
209
175
182
192
190
201
198
193
192
201
203
201
206
199
199
203
194
193
236
231
223
228
201
193
194
212
224
223
178
173
204
222
230
231
245
236
217
199
198
206
212
210
198
194
202
196
207
216
218
218
217
219
220
226
219
223
222
224
223
223
221
223
223
216
210
211
208
210
207
206
200
197
202
203
197
201
201
205
205
214
216
219
226
219
204
208
208
219
218
235
204
192
216
176
174
192
189
199
200
194
195
204
206
202
207
208
195
201
194
202
238
238
232
220
199
191
194
216
223
208
147
175
196
224
241
222
241
233
212
207
194
203
214
210
202
192
194
195
202
208
211
216
220
212
212
215
216
221
219
222
219
221
223
223
221
213
212
213
209
205
204
205
197
202
201
202
204
201
208
204
207
219
225
228
226
210
201
205
208
223
223
223
197
187
215
186
166
186
187
203
200
200
198
200
207
198
203
216
208
203
203
201
241
241
234
214
206
199
198
219
206
189
131
171
200
231
239
222
241
227
209
208
203
199
213
210
204
196
193
189
198
204
203
206
214
216
210
208
209
211
213
215
215
214
213
217
213
208
208
209
207
197
196
197
199
202
203
200
205
202
210
210
218
222
229
228
214
203
198
202
210
224
224
214
194
187
203
191
171
178
180
209
202
206
205
205
198
197
198
209
210
202
207
205
240
236
232
215
209
202
194
202
218
189
127
152
207
224
237
234
243
219
208
206
205
201
212
206
202
196
196
191
194
195
200
201
206
211
210
209
204
203
206
207
209
207
207
209
208
205
200
200
196
192
196
198
199
208
200
204
200
209
210
221
222
226
223
219
205
200
195
203
210
228
220
206
190
184
199
186
170
178
184
201
209
209
209
213
202
205
206
208
222
204
205
204
237
231
223
207
200
190
177
195
203
192
131
146
193
221
244
239
243
212
207
205
204
207
213
205
200
196
194
191
192
195
195
199
201
198
202
201
202
203
201
199
197
197
198
197
197
194
192
188
187
197
196
198
196
206
198
206
203
211
220
226
225
224
214
214
198
198
195
202
209
228
212
211
191
184
192
181
171
176
179
207
210
213
211
210
205
209
210
206
215
209
207
203
241
232
218
214
186
170
173
195
193
195
142
145
171
235
253
237
241
211
208
202
204
203
216
211
202
199
190
190
186
189
191
197
198
199
199
196
193
196
198
195
191
190
190
189
185
186
187
184
190
195
194
196
195
201
205
205
210
215
225
225
221
213
209
206
199
197
195
201
208
228
210
209
195
183
174
171
174
176
180
202
219
212
214
208
206
208
208
205
216
213
203
208
220
199
195
195
181
171
177
198
191
197
145
141
158
232
254
237
234
214
207
203
204
204
211
212
204
200
191
185
180
183
186
189
192
200
199
196
192
190
195
188
193
195
194
190
189
185
189
191
197
197
199
198
203
208
209
213
218
220
222
221
215
211
203
197
194
192
195
202
218
215
206
210
188
181
164
165
177
177
189
197
211
220
208
206
198
212
205
205
215
218
207
206
212
193
197
187
181
174
183
193
190
194
143
136
157
215
250
239
233
220
200
209
204
206
212
211
205
202
194
188
181
176
182
182
185
192
194
197
195
195
196
195
197
194
196
200
197
197
205
206
206
208
205
209
206
209
210
216
215
213
220
215
208
207
197
193
190
189
193
210
230
203
211
210
182
181
164
160
185
191
189
203
203
223
205
204
200
204
207
205
216
218
208
210
201
195
199
190
177
176
185
190
189
190
149
144
157
200
252
239
226
228
206
204
215
204
214
215
205
201
192
192
187
177
173
180
179
185
189
196
192
196
199
197
200
196
199
201
202
204
209
208
208
209
204
209
210
209
211
217
214
214
213
210
206
194
196
191
185
187
198
227
221
200
216
208
169
179
164
161
188
197
197
204
207
218
213
196
199
204
206
200
213
221
205
212
