P2
# Face with average contibution
92 112
255
193
192
192
188
188
190
190
190
190
190
191
193
196
199
199
198
196
194
188
189
191
194
194
191
189
189
188
191
187
190
192
189
193
193
197
196
194
199
200
195
193
197
194
192
190
196
189
178
179
180
173
172
176
179
180
178
175
178
182
184
182
182
187
186
188
185
186
191
187
190
187
192
197
194
194
193
196
192
194
191
196
195
195
191
191
187
190
189
188
187
189
187
192
191
189
190
190
191
190
189
190
191
190
193
194
195
195
192
187
190
186
190
193
190
194
191
190
190
197
192
191
192
193
191
187
189
197
192
197
193
197
195
194
202
192
187
186
179
179
180
181
183
181
176
173
177
173
179
175
176
181
173
178
180
185
185
183
185
185
189
190
185
188
189
195
193
193
193
192
196
195
195
194
196
194
193
192
190
189
188
188
188
187
187
192
191
192
192
189
190
189
189
191
191
192
193
195
195
193
189
188
188
189
189
190
189
190
186
189
188
189
185
183
186
195
189
187
192
195
192
193
188
193
191
191
197
189
186
180
175
180
175
177
179
176
179
176
171
171
177
176
181
182
177
177
176
182
183
182
183
186
189
186
186
186
188
193
195
195
193
195
195
197
194
196
196
194
192
191
189
190
189
188
188
187
188
191
190
192
187
186
189
188
192
193
191
192
196
195
194
194
190
192
187
188
186
186
184
180
185
184
186
186
184
185
187
191
187
184
190
188
189
186
186
193
191
192
193
188
178
173
177
180
178
175
171
173
172
169
169
167
169
174
178
177
177
178
175
174
180
182
183
179
186
184
188
183
183
190
196
196
192
193
197
197
194
194
197
194
192
191
191
189
189
191
187
188
186
191
189
189
187
188
189
190
192
192
191
194
194
196
193
189
188
188
187
185
185
183
181
180
186
191
191
191
184
189
182
183
189
182
183
188
188
187
193
194
194
190
185
183
183
181
184
182
181
178
180
178
176
177
177
176
177
175
180
175
173
175
177
172
179
178
179
177
178
180
186
185
186
187
191
192
191
192
193
199
191
191
197
192
190
191
192
187
188
191
188
188
185
190
187
187
190
189
189
192
190
189
189
193
189
197
190
185
185
186
188
181
183
184
186
187
193
195
189
188
181
185
182
179
183
185
188
192
193
192
193
190
190
188
182
189
187
184
189
187
187
184
183
177
182
188
184
179
179
180
177
175
174
173
171
171
173
177
172
175
177
174
180
183
185
188
188
191
187
187
193
194
192
190
196
193
191
189
189
187
188
189
187
187
187
188
185
186
188
189
188
190
185
188
187
194
190
190
186
188
181
184
185
181
186
189
191
190
190
188
186
189
187
179
179
179
183
191
188
188
190
189
187
188
186
183
184
192
191
186
187
190
190
180
185
189
187
189
191
184
182
179
184
182
174
174
176
169
172
176
173
172
177
179
178
183
180
185
184
184
183
185
187
189
188
189
190
190
190
191
189
187
187
187
187
188
186
188
187
187
188
188
187
187
185
185
187
194
187
187
186
188
178
181
187
183
190
185
185
188
190
188
180
185
181
176
177
184
186
191
190
190
189
193
189
187
184
183
186
188
182
182
185
186
185
185
192
192
185
185
188
184
186
182
177
180
177
170
174
171
170
174
175
170
174
178
176
181
179
183
184
186
184
185
185
184
183
188
189
184
186
190
189
186
185
185
184
185
186
188
188
187
190
187
187
186
184
184
188
189
187
190
185
184
184
187
181
186
182
182
184
185
186
185
180
178
179
177
183
184
184
190
194
196
196
200
193
191
187
190
186
185
185
183
186
184
189
189
187
188
189
189
190
188
186
183
179
178
178
172
172
173
175
174
176
175
172
174
175
179
178
183
184
187
191
190
186
185
180
178
185
184
181
183
183
184
184
186
182
186
185
189
188
188
186
183
186
186
187
190
191
189
192
185
188
186
187
187
181
186
180
179
182
187
183
183
181
177
184
187
184
188
191
193
195
199
195
194
186
187
184
185
183
187
194
190
188
188
194
190
189
193
198
195
198
191
189
180
181
179
179
176
175
176
179
176
174
176
178
174
175
177
174
176
181
185
187
186
188
182
184
177
178
181
185
185
182
184
185
186
187
186
187
187
186
184
181
184
184
187
190
188
191
187
190
185
190
183
183
185
178
184
184
177
183
181
175
172
180
178
182
180
180
194
196
193
193
198
184
188
176
178
179
179
181
177
180
176
179
194
196
186
188
195
195
200
197
198
191
186
185
179
183
182
177
176
178
175
172
176
180
179
177
173
175
179
177
179
184
187
185
184
185
180
183
177
179
184
185
184
184
185
186
186
185
185
184
181
180
185
186
185
180
184
186
191
189
187
186
182
176
178
182
188
180
178
174
175
172
168
171
169
175
181
186
199
204
198
197
189
185
184
176
179
189
189
184
178
189
190
187
194
188
185
187
192
193
200
200
201
195
191
185
183
190
186
181
174
172
173
176
175
177
178
176
172
171
175
181
174
179
181
184
182
185
177
180
180
172
182
184
182
182
181
180
185
183
183
180
180
177
186
182
185
181
185
188
185
187
188
180
178
174
176
187
186
171
177
169
169
173
166
172
168
179
189
192
196
202
201
196
196
194
191
184
184
182
188
194
186
191
190
192
195
188
188
196
190
195
199
200
202
196
195
191
187
189
189
180
182
183
177
177
173
171
175
173
171
170
165
169
174
175
177
180
180
181
176
177
180
175
177
179
180
179
178
178
180
182
181
179
178
178
185
179
180
186
188
183
184
181
180
177
177
180
183
181
174
171
174
169
172
170
172
171
173
184
190
191
193
197
194
194
195
190
189
183
184
187
193
200
186
194
190
192
198
195
199
198
200
195
204
201
209
203
205
194
195
196
199
195
193
186
186
178
176
176
172
171
169
171
172
169
175
174
175
173
176
180
181
173
179
177
175
176
179
180
180
178
178
179
180
178
177
176
181
177
183
184
181
180
182
180
180
181
182
185
189
178
172
167
167
174
172
174
173
173
179
181
183
184
185
189
189
187
186
189
186
187
187
187
198
198
195
198
193
193
195
197
199
197
197
198
203
202
206
205
205
199
200
204
208
209
207
198
195
190
181
180
176
173
175
171
173
173
175
172
169
170
173
174
180
178
175
177
179
176
179
178
181
180
179
180
180
180
176
174
179
179
180
186
182
184
187
181
181
184
184
192
182
177
169
173
164
178
176
173
183
174
182
185
183
181
186
185
189
185
182
185
182
189
196
197
198
201
203
197
201
195
199
197
204
199
199
196
201
202
203
211
208
208
206
208
218
213
209
207
201
197
192
186
180
181
179
175
173
169
178
177
173
162
166
167
172
177
176
173
179
180
177
181
175
178
181
177
177
178
174
172
179
181
183
186
181
181
184
180
182
187
192
185
179
177
171
173
175
175
172
172
178
177
182
188
178
182
177
176
183
180
182
183
186
187
194
198
194
204
203
196
201
197
200
197
206
206
206
208
204
204
207
203
203
209
209
210
215
212
214
207
207
205
202
193
186
182
185
178
169
163
174
179
170
173
163
167
167
172
172
170
172
176
178
183
180
179
180
176
176
176
177
171
174
181
186
185
178
180
179
178
184
190
196
180
175
177
178
172
181
175
172
172
176
181
181
182
174
183
172
178
189
180
179
184
194
183
194
196
192
200
200
201
195
193
201
196
202
203
203
206
204
202
203
203
201
209
214
212
215
214
218
213
210
208
208
196
191
181
179
180
173
173
168
173
167
166
171
166
169
166
166
172
169
168
173
180
183
180
178
177
175
174
173
170
173
185
187
181
177
173
181
178
189
189
187
182
176
174
181
182
174
176
173
181
179
186
176
180
177
177
175
178
193
183
187
193
189
189
187
199
189
202
205
204
203
193
195
195
197
191
198
204
200
201
195
200
197
203
211
213
217
220
215
214
215
210
210
203
192
186
184
182
185
182
177
169
170
167
177
168
168
170
165
171
175
167
166
178
181
183
181
178
170
169
168
171
177
183
182
173
173
176
184
184
192
192
181
183
181
171
179
182
183
174
182
186
182
181
174
180
176
174
177
185
187
189
191
193
192
189
188
192
190
196
207
203
197
198
197
195
187
189
191
198
197
199
194
192
197
198
202
208
211
218
220
220
217
212
207
207
194
196
188
186
186
181
183
173
170
171
170
167
168
171
167
170
173
170
160
170
178
182
178
178
169
167
167
176
179
178
169
173
179
178
181
186
191
191
185
181
185
175
180
183
186
181
184
192
184
180
180
182
179
181
180
184
187
187
193
192
193
190
191
193
193
198
202
201
196
195
197
197
196
180
190
188
191
191
188
188
185
192
197
200
204
208
214
218
221
217
208
207
204
197
193
185
197
189
181
182
171
169
165
165
168
166
169
168
172
171
159
165
174
176
175
180
168
167
168
176
176
177
171
176
179
178
186
185
187
190
187
187
180
178
182
189
183
187
186
186
189
186
184
182
186
183
184
186
194
190
193
187
194
194
194
195
196
194
197
194
194
191
190
196
192
187
181
183
183
185
182
185
175
183
189
190
189
198
206
210
215
223
222
214
211
206
200
189
196
200
191
186
178
173
161
161
163
163
165
168
165
167
162
159
166
171
174
178
169
166
172
172
174
174
176
173
177
179
185
187
188
187
189
186
184
182
184
187
182
191
193
192
192
189
187
187
192
191
185
190
190
194
192
188
190
195
195
194
195
193
191
194
192
186
189
191
185
182
179
181
176
178
177
177
175
177
179
182
180
186
192
203
206
215
224
219
213
208
210
204
198
202
195
188
182
177
166
161
163
166
162
166
164
165
162
158
164
167
173
173
169
170
169
176
168
173
174
174
174
178
185
187
190
188
182
182
183
183
186
185
190
192
195
194
197
196
193
190
188
193
191
189
192
194
191
192
192
188
187
184
190
190
183
183
184
182
183
182
181
178
176
174
179
175
172
169
173
174
176
177
180
182
184
186
198
208
213
220
225
210
208
209
197
207
200
192
189
182
171
163
162
164
161
165
163
162
164
157
158
160
169
172
169
167
172
171
170
177
178
177
175
185
186
179
183
185
181
177
179
181
186
187
193
194
195
197
200
201
197
194
193
192
195
192
192
194
193
192
190
187
184
186
186
179
177
176
178
178
178
177
179
178
174
175
173
179
177
170
171
173
175
176
181
180
183
184
188
198
209
216
223
219
210
210
205
199
202
193
191
184
176
169
157
159
162
166
168
162
163
155
153
162
166
171
167
170
172
174
172
177
180
176
178
184
181
176
177
180
184
176
173
181
191
195
198
199
200
200
200
202
197
197
199
195
190
190
189
191
193
188
185
185
180
179
179
173
173
171
174
174
176
175
176
175
173
171
172
173
176
175
176
173
173
175
177
180
182
183
183
184
197
206
218
230
218
217
210
209
202
199
192
188
174
174
162
157
159
161
169
162
163
160
151
160
162
169
171
165
171
169
171
165
178
175
176
179
176
180
179
178
188
185
182
186
190
193
198
203
201
203
202
198
197
193
192
194
190
189
185
185
185
186
184
181
177
176
176
173
171
170
173
174
173
176
175
175
172
171
170
171
170
174
175
175
174
173
174
177
177
179
179
180
181
195
207
225
222
222
212
214
208
203
196
194
179
167
163
156
161
165
168
163
162
159
154
154
158
170
174
168
171
172
168
174
175
177
179
181
178
184
184
184
185
184
185
192
194
202
201
202
203
202
197
193
193
189
188
187
182
184
179
182
180
184
179
178
176
178
177
173
174
174
172
173
174
176
174
173
173
170
171
168
168
171
168
171
170
171
171
173
174
176
175
173
178
179
195
213
217
223
214
213
214
206
195
194
184
172
170
164
167
165
171
161
161
158
156
155
159
168
170
170
165
174
173
167
176
176
188
191
185
181
180
186
185
184
187
195
202
205
204
201
198
192
191
186
184
183
183
179
180
177
176
177
177
180
175
174
175
176
174
171
172
172
172
171
173
174
173
171
174
170
169
170
167
168
170
169
169
169
171
171
172
175
174
173
175
177
178
199
213
216
220
213
210
215
199
190
185
173
170
171
166
163
170
170
157
156
151
157
157
163
172
168
165
170
177
164
166
177
192
190
182
180
180
183
188
190
194
198
203
202
200
193
189
182
183
178
179
176
177
176
176
172
170
171
173
175
173
172
176
174
172
170
169
170
173
170
170
169
169
170
170
171
169
169
168
167
168
169
168
169
171
170
172
173
172
173
172
173
173
180
209
210
210
209
204
213
204
184
187
176
168
165
161
159
160
170
163
151
153
153
156
159
174
168
166
167
175
169
168
181
188
184
177
179
182
189
196
196
198
194
197
197
195
183
177
178
173
174
177
178
174
171
168
169
164
168
172
173
172
171
173
174
170
167
168
168
169
169
167
167
165
168
168
169
171
170
168
166
167
170
167
172
173
170
171
172
173
171
173
170
169
168
192
210
206
210
199
209
208
187
176
176
170
164
166
162
167
168
174
154
152
152
152
159
178
174
166
164
171
168
178
181
186
187
186
190
191
196
198
198
193
189
193
196
188
176
176
176
172
174
175
174
169
163
166
166
164
168
170
169
169
168
170
170
170
165
167
168
166
167
166
164
163
164
166
168
170
168
170
168
167
169
170
168
173
173
171
173
174
171
170
170
171
163
174
198
205
211
204
204
208
195
181
177
179
175
166
171
173
176
178
163
151
153
151
156
181
180
175
171
172
178
180
188
188
189
193
195
197
198
196
197
190
187
189
193
180
177
176
174
173
172
171
170
164
162
166
166
166
167
166
166
168
166
169
169
167
164
165
165
164
163
163
161
160
162
163
165
169
173
175
174
172
171
173
172
172
174
174
173
174
173
172
171
169
168
168
184
200
205
208
205
202
204
187
178
178
176
159
164
169
182
181
172
155
152
149
152
177
183
177
170
173
181
190
196
200
201
201
198
191
197
195
197
186
186
189
193
180
178
175
175
174
172
170
166
164
163
164
165
165
166
166
166
169
165
165
166
164
163
163
160
160
159
158
161
158
162
164
164
170
170
175
177
174
173
176
178
176
176
177
176
175
175
174
174
173
168
168
176
191
196
200
202
202
197
195
183
175
167
162
159
162
182
182
175
162
149
152
153
173
179
173
168
174
183
186
199
202
201
204
194
186
186
193
192
180
184
184
185
175
175
173
174
171
167
169
169
172
167
167
170
167
168
169
166
166
165
164
164
162
161
163
162
158
161
162
163
162
164
166
166
167
170
172
175
174
173
174
178
181
179
178
177
179
177
177
176
177
175
170
173
186
199
185
198
201
197
195
189
177
166
162
169
170
178
181
178
167
155
145
156
168
173
162
162
174
185
188
197
196
205
203
190
185
187
199
188
177
180
183
178
168
170
171
167
167
167
168
163
163
164
167
168
169
169
169
164
163
162
163
163
160
158
160
159
159
160
162
160
160
163
165
168
168
169
172
177
179
179
177
178
181
183
181
180
179
179
180
178
178
176
175
173
182
198
190
189
200
201
196
190
176
171
167
169
170
185
184
180
167
161
143
157
170
173
159
164
185
187
185
190
191
201
200
187
190
199
195
186
176
178
181
169
164
169
172
170
176
174
171
167
164
162
165
164
166
166
164
160
161
162
162
161
162
159
158
157
161
163
161
164
165
167
169
168
170
168
171
174
175
177
176
177
178
180
182
183
182
178
180
180
179
177
177
176
180
196
201
180
197
201
204
193
184
167
173
173
166
173
191
177
172
161
150
158
176
162
161
173
179
183
192
192
190
196
195
190
196
202
195
183
174
174
174
167
167
169
173
176
170
168
165
167
166
164
166
165
165
167
167
163
169
167
165
162
164
167
163
164
166
166
166
167
170
168
170
168
168
172
172
171
173
173
175
175
173
175
176
177
178
179
179
177
179
180
180
179
177
193
203
190
188
206
196
201
198
177
177
178
177
171
188
181
171
162
153
152
179
168
171
172
186
185
195
201
194
201
193
196
197
198
196
180
171
172
174
166
166
169
173
168
163
162
161
169
165
164
166
167
170
168
172
169
171
170
169
164
165
169
170
169
170
170
167
169
170
167
170
169
170
172
174
167
171
171
171
174
174
173
177
172
174
175
176
174
175
178
178
181
176
190
206
200
185
204
199
204
196
190
185
184
174
179
183
186
167
160
154
157
182
172
171
175
178
187
197
200
200
202
199
199
200
199
194
178
171
173
172
161
168
167
166
165
162
162
164
172
172
172
174
176
181
181
180
176
173
173
170
169
170
169
173
169
170
168
167
166
166
164
166
165
166
168
170
170
169
168
171
172
174
171
177
174
173
175
176
176
178
179
177
179
175
183
200
202
181
195
204
201
202
198
183
181
176
180
187
181
171
158
155
161
176
171
174
166
178
189
197
196
200
207
200
200
200
201
192
176
169
174
170
165
174
166
165
167
167
170
177
182
177
179
182
178
183
180
179
176
170
174
174
174
175
173
174
168
169
169
166
166
166
166
170
169
170
172
167
166
174
168
168
169
171
168
169
173
174
176
182
180
181
177
176
172
170
173
193
192
174
190
197
194
206
205
192
173
181
178
184
185
169
159
163
161
167
168
167
165
177
195
203
199
200
195
199
199
196
202
183
172
168
173
170
169
178
171
167
173
173
175
181
182
177
176
178
179
181
178
175
175
170
171
170
170
171
172
172
162
165
163
166
166
167
173
173
175
180
174
171
166
174
172
170
174
172
171
174
172
175
183
181
176
170
168
170
165
165
170
188
187
174
181
198
196
205
207
200
180
184
176
181
183
173
159
166
170
158
172
171
173
190
200
203
201
198
186
194
197
198
193
182
170
171
175
170
172
182
179
184
187
183
188
183
186
182
180
179
177
175
173
170
168
170
168
167
166
167
167
164
163
162
164
171
171
174
181
182
182
186
184
177
178
179
181
181
187
183
187
185
180
177
177
176
168
163
167
170
163
164
173
192
187
176
187
193
208
206
211
204
187
186
186
179
176
173
165
165
176
156
173
175
182
194
200
192
201
195
175
183
187
195
194
180
166
174
175
166
170
178
178
180
182
189
191
195
193
195
191
192
192
188
196
190
178
176
179
183
180
174
175
169
171
170
174
176
176
180
187
188
190
191
196
190
188
186
189
189
196
197
191
185
186
183
178
176
163
164
170
168
160
164
168
182
194
193
193
195
217
206
210
202
194
187
193
188
170
171
167
169
177
163
170
175
192
196
197
190
193
189
171
184
198
193
196
171
170
181
177
174
178
187
190
188
187
196
195
195
197
197
201
193
198
199
195
195
183
183
186
198
186
175
182
177
171
174
174
176
178
183
188
191
199
197
203
205
208
204
204
207
208
208
204
197
196
197
196
182
173
173
181
180
170
167
167
173
193
201
213
212
216
208
207
202
195
184
194
192
177
169
171
172
181
173
173
176
186
182
188
185
187
183
172
199
202
192
198
177
165
185
172
178
188
191
191
185
188
197
196
201
205
208
214
210
214
215
208
204
194
195
196
202
194
182
176
182
179
176
184
181
186
193
191
199
205
204
211
223
228
227
232
235
231
223
226
220
212
207
205
186
181
177
182
188
185
180
178
168
194
201
211
226
215
211
205
210
196
184
191
192
180
173
175
181
180
175
180
172
189
175
184
185
195
185
176
196
198
198
196
178
172
173
171
180
184
186
184
189
193
199
199
209
219
223
226
220
216
215
217
214
209
208
199
199
197
194
178
173
172
166
176
172
183
186
189
196
214
209
226
235
241
241
251
248
244
235
235
232
226
221
217
202
196
185
178
186
186
183
184
171
194
205
206
211
214
215
207
212
204
189
192
191
179
179
183
182
182
174
180
173
193
186
187
196
196
183
178
187
188
200
201
177
172
175
182
180
181
183
188
196
198
203
211
217
223
234
236
231
226
224
226
219
222
216
202
203
192
194
197
175
168
168
181
183
193
188
195
194
212
213
225
235
244
247
255
254
250
239
236
226
225
225
222
213
205
197
186
189
185
187
180
172
186
210
201
212
212
210
217
211
206
195
202
197
184
182
189
187
175
179
184
186
196
190
197
201
184
181
177
175
185
206
206
181
174
172
185
181
182
189
200
208
209
213
221
223
231
242
239
233
235
235
237
224
236
220
205
201
195
186
205
184
176
173
183
186
199
194
201
211
221
225
226
240
243
246
248
247
241
232
227
219
221
218
214
218
208
200
195
184
181
182
177
168
178
214
205
214
214
208
208
196
210
196
203
210
198
187
193
189
174
191
196
190
202
194
198
194
188
182
179
165
178
200
205
184
173
174
181
179
185
194
206
209
211
216
224
221
231
244
231
231
231
239
232
230
236
231
215
203
189
183
201
186
170
179
188
184
201
194
205
211
232
228
236
243
248
252
251
247
239
226
224
218
213
213
209
212
209
202
200
190
182
179
172
161
166
202
203
210
214
206
196
189
202
212
202
209
205
197
197
188
178
202
204
191
205
193
190
192
194
186
183
168
179
194
203
185
175
180
184
185
191
198
195
206
217
219
224
233
237
236
225
237
237
245
233
238
232
228
227
210
196
188
197
184
173
179
177
177
197
195
201
207
233
235
235
239
247
245
242
241
237
226
221
218
211
214
209
211
204
197
191
182
181
175
164
151
156
168
195
197
209
207
209
197
208
214
213
209
203
203
203
194
178
207
211
199
199
198
186
187
201
192
188
180
169
197
194
175
180
182
187
189
199
203
204
211
226
226
227
233
238
235
225
232
231
229
235
234
224
225
221
212
201
190
189
178
170
174
171
171
188
191
195
202
218
235
232
237
239
236
230
232
231
218
217
222
224
217
213
215
208
199
191
176
167
163
152
143
148
154
170
188
199
199
213
206
214
209
208
213
208
205
201
201
184
204
213
209
201
203
185
190
202
190
187
187
170
195
194
165
186
183
179
186
195
195
198
208
221
222
217
228
231
228
235
234
238
224
236
242
228
219
206
200
183
178
174
167
167
161
164
164
178
180
195
209
209
233
225
231
226
226
231
231
232
223
217
218
210
213
206
217
208
203
201
184
167
160
152
147
150
155
155
180
191
202
210
216
210
211
207
209
221
218
206
196
184
205
212
208
205
207
195
191
201
192
190
188
180
190
193
158
187
180
177
185
192
187
189
206
213
214
204
213
216
214
230
222
229
223
229
241
230
227
212
195
173
172
169
163
164
152
159
159
165
168
195
209
210
223
230
230
226
220
227
224
224
214
198
203
191
195
199
193
192
187
189
190
174
167
155
150
157
162
158
176
198
210
201
217
207
210
209
212
224
218
200
191
195
207
211
204
204
203
207
195
201
194
193
190
182
183
186
154
174
172
171
179
195
193
195
206
207
202
198
206
210
206
217
213
220
225
226
233
221
221
222
201
172
169
169
161
157
151
157
157
161
156
190
200
198
205
223
217
225
219
216
205
214
213
202
201
190
193
189
188
182
179
177
176
176
168
159
152
151
164
159
169
198
218
204
215
212
210
217
218
226
213
196
194
198
212
213
208
214
208
198
204
202
196
195
192
185
178
178
150
174
171
173
179
193
198
201
201
195
189
187
199
201
202
201
200
209
214
215
217
212
212
220
210
176
168
166
159
146
150
156
160
159
156
170
188
180
194
198
224
224
221
217
212
211
215
206
205
206
198
189
178
170
167
161
159
162
156
153
147
144
156
156
163
188
219
205
214
213
216
219
228
228
221
199
198
201
212
214
215
214
219
200
200
203
201
190
189
192
189
170
147
170
172
164
174
186
191
195
188
183
184
183
191
191
193
183
192
197
202
206
208
203
202
208
197
175
155
155
151
144
148
153
155
153
160
160
175
175
179
182
196
214
211
213
211
204
208
201
193
201
188
186
173
173
165
164
161
162
162
154
148
145
151
158
158
196
208
201
204
215
220
218
230
228
221
201
198
195
207
219
223
220
225
209
209
206
206
193
192
201
193
162
141
158
172
159
166
175
176
176
179
171
174
175
187
185
187
189
194
196
202
203
196
197
193
197
193
162
150
150
139
139
146
151
152
155
162
161
165
169
175
178
175
192
203
199
206
198
196
196
186
187
181
176
166
165
164
160
162
163
163
159
151
150
154
160
155
195
196
199
196
218
221
216
232
232
215
207
198
187
215
221
224
221
229
215
221
214
206
201
194
205
196
161
143
147
169
157
161
166
169
173
176
171
179
181
189
189
191
195
195
194
195
191
184
180
180
191
176
156
152
144
134
141
146
148
151
155
160
162
161
160
168
171
168
177
186
194
187
179
183
184
179
179
173
167
160
157
160
159
159
163
163
165
159
159
159
157
151
191
185
189
186
192
214
210
228
229
217
203
196
187
213
222
226
216
221
216
219
212
199
196
200
203
194
165
147
143
162
155
155
160
166
171
174
175
183
185
189
189
188
188
185
182
178
176
173
175
175
176
165
163
155
144
138
140
144
146
151
157
158
163
158
157
162
165
171
163
168
181
183
170
167
165
170
166
167
166
162
159
161
160
159
161
163
167
161
163
164
160
155
181
179
181
179
181
196
198
226
224
217
197
193
191
208
222
220
214
218
214
219
211
198
192
203
205
195
164
145
147
156
161
154
157
161
163
164
170
176
181
186
187
179
173
176
171
166
168
168
178
167
160
165
165
156
149
145
142
141
146
152
159
158
164
157
159
162
158
166
163
158
173
176
177
168
167
166
161
162
166
167
162
161
160
159
159
161
164
163
163
165
165
169
173
177
175
170
182
191
191
222
221
220
192
190
197
204
211
222
218
217
211
223
216
199
198
201
207
201
174
144
153
151
165
159
161
167
166
166
168
171
173
178
175
163
161
176
169
169
173
167
158
166
163
167
164
159
146
147
146
141
149
154
158
162
161
159
155
165
163
165
164
156
166
169
166
171
174
168
158
155
157
161
158
158
158
160
162
160
160
164
163
167
176
175
173
180
169
163
180
193
193
218
226
216
191
189
203
201
205
214
218
212
209
220
220
202
206
206
204
207
180
149
156
149
160
165
161
169
169
168
166
168
171
170
164
163
167
176
178
172
163
162
167
170
168
172
164
158
149
148
150
151
153
155
156
160
162
161
162
164
170
170
168
168
163
166
160
161
164
168
160
152
152
156
156
158
158
157
161
161
163
166
168
175
178
178
173
205
177
164
177
190
188
216
227
211
191
194
202
201
207
210
210
220
225
227
220
204
195
195
203
209
173
159
159
158
153
167
160
168
170
169
170
171
176
175
170
173
185
183
182
172
168
174
175
172
176
170
163
160
152
152
151
158
157
156
157
159
163
163
169
169
174
178
174
177
169
173
165
162
164
163
161
157
154
156
154
154
155
157
161
165
167
168
174
174
183
184
175
217
194
173
181
187
174
213
224
210
191
198
195
198
206
216
206
226
233
239
223
201
185
190
193
195
167
158
161
162
164
165
166
173
175
176
177
181
189
189
184
180
184
182
181
183
187
189
182
179
177
170
166
161
159
162
160
165
164
162
161
167
167
175
174
176
172
182
183
178
174
176
177
168
168
169
164
164
165
165
163
162
159
161
164
166
168
171
172
177
189
186
175
206
189
179
187
180
179
199
218
209
191
199
189
199
199
218
208
221
233
237
226
210
190
205
181
179
170
162
163
164
163
164
168
169
179
180
178
180
184
185
187
186
187
190
190
190
187
188
185
177
175
174
167
164
167
176
177
179
180
177
175
179
179
188
186
181
180
185
192
189
181
181
189
180
175
171
169
168
166
166
166
165
164
168
166
166
170
171
174
181
187
188
175
188
182
181
193
179
177
190
213
204
192
199
189
199
195
215
211
214
236
233
216
216
188
195
178
173
177
167
167
165
164
165
170
172
174
178
184
186
189
191
193
194
191
194
194
188
187
190
190
175
175
178
175
176
177
192
195
196
197
197
195
197
196
207
207
198
190
190
200
199
192
186
192
189
181
174
175
172
170
170
168
169
167
167
164
164
168
174
180
180
187
191
174
171
179
178
192
187
177
177
200
201
200
197
192
202
192
210
218
205
230
228
208
210
187
182
172
172
182
169
167
169
168
170
173
175
175
177
181
179
180
184
188
189
186
187
187
191
187
191
186
182
185
189
185
185
188
198
210
214
212
205
215
222
220
229
233
213
205
202
210
205
191
194
201
194
187
181
177
179
178
176
174
174
170
168
164
165
174
180
180
184
189
193
176
166
174
179
191
188
179
169
200
203
205
194
193
203
194
205
219
209
219
229
202
205
186
174
173
173
181
173
166
170
168
173
174
175
175
176
179
181
182
181
184
185
184
185
192
194
190
205
192
197
210
212
214
210
214
206
212
225
225
210
225
231
236
237
238
226
216
210
206
200
191
195
202
204
194
191
185
182
180
181
180
176
177
176
176
176
179
181
182
183
188
196
176
165
169
178
189
183
176
170
202
202
204
197
193
202
195
202
214
217
214
228
197
201
176
179
173
174
177
176
168
171
172
172
176
177
179
177
180
182
183
182
180
182
183
189
196
199
203
223
199
208
222
228
226
231
224
211
203
222
231
213
213
219
229
233
228
221
215
205
194
191
186
189
193
199
198
193
187
187
188
190
192
186
183
183
185
183
187
189
188
188
190
190
173
173
172
176
173
174
175
165
207
192
199
199
190
201
194
197
205
216
213
224
203
198
166
191
167
171
175
179
172
172
175
174
176
182
181
181
182
185
185
185
183
182
184
191
199
204
216
232
217
209
229
232
231
227
216
210
211
228
242
225
215
212
218
222
217
212
210
198
192
188
187
183
189
195
196
193
189
185
184
187
191
186
186
187
188
189
188
191
191
186
188
190
172
179
177
170
165
177
178
168
206
184
200
194
192
198
191
193
200
206
218
211
202
199
168
193
160
169
188
185
174
175
176
173
176
179
182
183
185
184
185
186
187
188
187
192
199
208
225
231
231
220
224
231
228
221
216
219
229
233
244
235
224
217
214
211
203
200
197
187
188
186
187
187
190
193
191
191
184
186
185
191
194
190
189
190
192
193
191
197
192
189
187
187
176
177
175
171
165
174
173
171
197
186
200
191
191
199
188
189
195
197
214
210
194
198
171
185
154
173
194
194
174
177
178
176
176
176
181
182
183
184
188
188
190
191
190
194
200
211
222
228
229
228
225
227
224
218
223
229
240
240
238
237
228
223
215
206
200
199
194
192
196
182
183
188
192
193
194
190
184
189
188
189
192
196
194
195
197
197
196
198
194
189
189
185
177
176
177
171
166
164
160
177
194
188
199
189
196
200
196
186
192
187
205
206
195
194
175
172
154
183
192
200
174
176
175
175
177
180
183
183
185
186
191
188
193
190
190
192
197
209
214
215
223
225
227
227
225
225
225
232
238
234
229
230
227
225
218
210
203
202
200
198
196
187
184
186
188
195
196
197
193
190
190
190
188
197
201
198
200
200
200
197
194
192
192
185
178
178
172
167
160
161
160
191
190
195
191
192
199
198
200
189
188
185
194
204
187
183
185
158
153
188
194
200
177
173
175
174
176
181
182
183
186
191
191
191
193
189
191
192
191
201
202
204
208
219
227
229
234
229
229
231
230
229
224
218
219
224
223
218
209
205
202
198
196
189
188
184
185
191
203
205
206
195
189
193
187
192
199
201
199
199
202
198
194
194
189
184
174
171
168
167
162
162
154
200
186
196
189
197
196
196
199
193
188
183
193
204
187
174
179
156
153
188
192
196
182
170
173
173
177
182
183
185
189
192
191
190
188
188
190
189
190
193
193
193
200
210
219
223
228
227
225
229
224
221
218
212
215
213
214
205
200
194
196
203
197
195
193
189
186
191
202
208
208
201
188
191
198
191
196
201
202
197
202
198
195
193
186
183
175
168
175
170
163
160
165
199
191
192
190
198
196
193
193
196
188
182
191
200
194
173
175
167
143
181
181
168
186
171
172
175
176
182
184
186
186
190
185
185
187
191
192
191
193
189
188
188
193
205
210
217
221
224
221
222
219
211
211
211
207
208
204
200
193
190
190
202
198
195
198
192
189
193
205
208
209
207
197
187
207
197
193
197
200
198
199
197
192
188
182
175
184
172
186
176
170
179
185
192
196
189
194
197
192
190
191
197
189
184
186
197
196
182
166
178
144
159
163
162
180
175
172
177
179
179
182
183
183
184
181
182
189
191
192
196
194
192
187
187
191
197
208
211
215
216
218
221
217
213
213
208
207
210
205
204
206
200
196
198
196
191
194
191
191
191
207
210
208
204
202
198
200
206
193
196
195
198
194
197
188
184
177
168
192
192
202
193
190
198
190
194
193
190
195
197
189
190
192
192
191
185
185
196
192
194
174
177
150
150
158
163
160
175
171
178
175
177
184
181
180
181
182
181
188
191
198
199
199
191
187
190
193
193
195
198
208
218
222
226
222
222
223
213
209
211
210
209
210
210
208
205
203
196
194
189
191
193
210
213
211
207
202
207
199
210
194
193
191
194
194
193
184
179
173
164
193
205
209
198
198
197
187
199
191
193
196
198
189
192
193
192
191
185
183
194
193
194
190
179
174
144
156
166
160
169
174
174
174
177
183
181
182
181
187
182
188
193
200
200
206
195
191
195
191
192
193
201
208
213
219
226
230
231
229
225
215
216
216
216
218
213
207
208
207
204
202
200
201
201
211
219
214
209
207
205
210
207
194
191
190
191
191
190
181
176
171
160
202
208
210
198
200
199
197
198
193
193
197
196
187
189
194
196
191
186
184
193
194
192
191
185
185
156
151
157
159
163
174
175
175
178
179
180
182
186
191
186
193
200
202
208
216
204
196
196
194
202
203
206
207
212
221
230
237
236
235
237
227
223
220
218
219
218
208
210
210
207
207
206
216
217
216
218
216
213
210
205
211
205
194
189
191
188
190
188
179
172
168
161
210
207
213
203
204
207
201
199
193
196
197
195
181
186
193
196
193
188
184
192
198
190
191
189
190
173
151
154
158
160
174
176
178
180
179
180
183
185
193
192
201
207
207
209
220
211
196
198
205
211
209
208
211
217
222
227
235
232
231
229
220
215
206
204
202
197
189
188
184
189
188
196
207
213
208
209
211
209
210
203
205
202
190
187
192
188
189
186
178
173
169
166
216
214
216
214
212
205
204
195
194
195
198
192
182
188
188
194
194
193
184
188
197
192
191
189
191
185
152
156
161
162
173
177
179
180
177
179
182
186
197
200
205
212
209
214
221
221
209
207
207
210
209
204
202
205
205
203
207
205
203
207
195
188
182
177
177
175
176
171
171
171
168
169
171
182
188
190
194
204
203
200
200
198
187
185
188
183
188
187
179
176
168
176
221
217
214
214
214
208
206
191
195
196
196
191
184
190
187
192
194
194
186
185
194
194
191
192
188
198
163
161
172
178
184
176
179
184
174
169
176
181
191
205
211
215
217
226
232
234
231
223
203
197
190
189
189
196
199
197
200
196
196
203
200
193
184
180
177
179
180
181
178
171
172
169
168
170
181
185
190
197
195
194
195
189
185
181
181
183
186
188
178
174
169
186
219
222
219
217
215
210
200
193
195
195
196
193
185
189
187
190
195
191
188
183
191
194
189
194
193
193
193
177
184
199
199
174
177
183
173
164
169
176
181
197
207
213
218
239
245
245
232
210
194
195
194
192
193
203
206
201
202
204
203
205
209
202
197
198
196
196
196
188
188
180
180
179
176
172
172
181
184
190
191
188
192
191
183
180
177
179
187
183
177
175
171
196
224
222
218
215
212
207
196
193
195
196
193
190
185
190
187
190
195
192
189
181
189
195
191
193
194
191
194
195
198
201
212
172
174
174
170
162
165
166
172
186
195
198
207
229
246
243
214
207
200
197
204
201
199
200
209
205
204
204
207
209
218
213
215
212
206
203
199
189
184
179
174
181
177
172
169
171
174
177
184
189
189
186
182
179
174
178
184
179
175
172
177
208
227
223
216
213
209
203
196
195
196
196
195
188
184
190
189
190
192
192
190
179
183
192
193
192
195
193
190
196
201
201
218
178
168
170
165
161
161
161
163
176
185
190
193
209
231
228
203
203
205
196
201
200
202
198
205
206
203
206
208
211
217
219
214
210
200
200
202
194
181
178
174
176
176
170
173
169
170
167
176
182
185
182
182
177
172
178
181
177
174
176
188
220
227
218
213
213
208
201
192
195
195
194
196
188
183
189
189
190
190
193
190
179
180
191
195
190
195
195
191
196
202
203
218
200
166
166
166
162
157
160
162
173
180
182
182
189
207
196
189
191
189
183
185
183
181
182
188
191
190
195
195
199
205
212
210
212
203
200
196
190
180
180
179
174
173
170
171
169
167
169
171
180
178
173
173
175
171
182
179
175
175
184
197
228
222
214
213
213
205
199
195
193
196
193
193
187
184
185
186
188
186
191
187
182
180
186
193
193
193
197
198
193
204
204
211
216
168
165
169
162
160
161
164
173
175
180
183
184
189
179
178
185
179
174
178
180
177
177
182
188
188
188
193
198
203
210
209
207
205
199
191
183
179
176
176
172
172
170
168
167
166
164
171
175
178
172
169
173
177
183
181
176
180
187
207
223
217
208
211
207
199
196
191
193
192
191
190
184
183
178
183
183
186
186
183
185
183
185
189
190
192
195
198
196
206
204
206
224
175
165
172
169
162
164
169
174
178
179
181
186
181
178
174
177
174
171
170
176
175
181
184
185
189
193
197
204
205
205
203
201
197
203
192
189
184
179
173
175
176
167
170
171
170
163
168
173
177
176
177
183
183
189
186
181
187
193
221
222
214
210
207
202
195
193
189
190
188
186
186
179
182
179
183
184
182
182
185
188
187
184
189
187
186
190
196
200
202
203
200
209
190
161
172
174
169
162
173
176
181
182
180
184
181
179
177
174
178
176
172
177
176
180
186
186
190
190
196
198
195
194
192
188
187
193
186
184
180
180
173
172
174
168
162
164
170
165
168
176
183
181
180
190
188
191
187
189
189
203
224
217
210
210
204
197
195
189
189
189
186
189
183
183
181
179
182
181
184
182
185
188
187
186
189
190
186
190
193
202
199
199
198
201
209
168
171
176
174
165
165
175
178
177
180
184
184
183
183
184
183
180
179
181
184
181
181
177
179
182
184
185
184
181
182
177
178
178
172
173
171
172
169
168
164
165
160
164
170
170
169
181
182
188
188
192
192
191
197
191
194
214
219
216
208
207
202
195
192
188
189
187
189
187
183
182
182
179
182
181
183
185
188
188
191
189
191
190
184
188
193
198
194
194
199
203
218
176
165
173
176
170
163
171
172
176
179
178
183
182
190
189
189
183
182
185
186
182
183
181
183
181
184
182
184
181
181
180
176
176
170
170
167
167
169
167
162
167
167
167
173
176
174
187
185
188
196
195
196
198
203
192
198
218
216
211
210
201
199
194
188
189
189
188
188
187
185
179
182
177
180
181
185
188
189
190
194
190
190
190
185
187
190
188
191
193
208
204
211
197
162
172
169
174
165
165
172
175
173
176
177
177
184
190
191
187
189
188
191
187
187
190
191
188
190
192
193
189
187
186
182
174
177
169
167
167
168
169
164
169
168
170
173
178
182
185
193
193
204
198
198
208
203
191
206
210
213
212
205
198
195
190
186
188
187
189
189
188
184
178
180
175
180
185
188
187
190
192
195
191
192
187
184
187
184
184
188
194
211
204
205
212
166
169
168
173
176
166
168
174
175
175
176
174
179
185
186
186
191
190
194
189
191
192
191
189
193
192
191
188
183
183
181
173
173
170
168
170
169
172
171
173
171
172
175
180
184
186
192
202
199
201
205
210
201
195
211
207
212
212
200
194
187
185
186
186
190
186
190
187
183
176
182
174
181
186
186
190
189
190
192
193
194
183
180
182
181
180
189
193
210
206
209
209
187
166
166
171
173
173
169
173
171
176
178
174
179
181
184
184
190
191
191
189
191
194
192
190
196
190
188
186
183
180
174
175
171
170
173
171
170
173
175
174
178
174
180
184
187
191
191
201
202
204
211
211
197
195
214
207
210
207
200
192
181
178
188
185
189
185
191
185
182
177
179
176
182
187
187
189
191
189
190
189
186
174
177
181
181
180
190
191
207
211
211
208
178
167
168
167
170
169
174
171
169
174
177
173
180
185
186
188
193
192
189
186
193
192
193
192
191
191
188
189
188
181
176
175
173
171
177
174
172
176
176
176
180
178
183
184
192
194
193
202
210
208
213
210
192
188
211
209
211
204
201
190
178
180
184
187
187
187
188
185
182
177
177
180
182
186
188
189
189
185
180
173
178
177
179
185
181
177
187
191
204
206
216
188
166
183
169
166
171
168
170
172
171
173
174
176
178
180
184
189
191
192
191
191
192
194
192
193
193
195
191
191
188
182
182
180
179
174
179
177
177
179
182
179
182
181
189
188
196
193
195
207
213
212
212
207
179
185
211
212
209
205
200
192
183
182
183
186
185
187
188
186
181
176
178
178
180
183
186
187
184
175
172
171
177
182
181
180
180
180
180
193
196
216
189
182
179
194
176
164
169
166
169
167
170
171
175
177
174
180
181
185
182
185
189
192
194
196
197
198
194
196
189
192
191
183
186
181
179
176
180
181
182
183
183
188
187
191
197
199
198
199
201
210
211
211
210
193
176
188
217
207
208
206
199
193
189
184
188
184
186
186
188
186
180
179
177
170
173
174
178
181
177
172
170
177
183
178
180
176
181
179
178
187
204
197
170
191
189
203
178
167
171
170
169
166
170
172
170
173
175
177
176
181
180
182
186
187
192
193
194
193
191
191
188
193
192
190
190
188
185
184
185
188
189
190
194
195
196
203
201
201
201
202
209
214
213
212
196
189
183
175
216
211
206
205
201
192
193
185
188
185
188
190
190
188
185
182
179
170
171
174
178
178
176
177
177
183
187
177
175
173
178
178
174
187
206
168
177
193
196
205
186
159
172
173
168
168
165
172
171
169
171
175
179
178
181
184
184
190
186
193
192
191
191
191
190
195
192
195
198
196
194
196
194
194
195
198
204
200
208
210
202
202
206
206
210
217
214
205
187
181
182
158
187
217
205
197
204
193
194
187
188
187
188
193
191
188
183
182
181
169
169
175
178
182
180
183
178
187
187
177
168
172
180
175
173
188
195
158
186
197
198
208
192
162
167
175
174
168
163
166
169
169
170
174
178
182
182
180
183
191
187
195
193
192
195
196
196
204
200
201
203
203
202
207
203
203
205
207
213
214
211
209
204
205
210
210
206
215
207
190
185
173
166
157
159
209
202
199
205
195
192
190
187
184
187
191
193
188
181
181
181
169
171
178
188
182
184
180
182
187
188
178
166
170
171
175
169
189
179
156
191
198
196
207
203
165
170
161
174
173
167
165
167
168
171
175
180
181
182
181
185
189
191
195
196
198
201
201
200
206
210
205
210
212
209
209
212
210
212
215
217
218
211
210
204
209
212
210
210
205
198
185
183
170
170
156
151
190
203
200
200
198
189
190
186
182
185
186
193
191
183
181
182
171
176
187
184
180
179
177
183
186
184
175
170
170
164
167
166
190
166
156
194
193
196
207
212
170
170
170
167
173
176
170
166
171
169
177
181
180
185
185
187
190
189
196
199
203
206
203
204
209
215
210
212
216
215
212
220
217
217
223
221
221
215
208
206
212
214
209
202
202
192
185
180
164
174
162
150
162
206
202
195
200
189
191
185
180
181
183
183
190
182
178
181
174
178
184
179
178
176
178
184
189
179
173
171
167
160
157
170
189
154
158
191
191
201
209
216
186
174
176
176
169
172
179
173
172
172
173
179
182
187
188
189
191
192
199
200
205
207
206
207
211
213
215
213
218
222
217
225
223
222
224
222
221
214
211
205
214
208
202
198
196
190
181
180
168
180
157
154
149
197
205
193
194
190
187
185
181
180
181
178
183
178
176
178
171
172
179
175
174
176
178
184
187
179
173
170
163
162
158
173
169
155
161
185
187
205
209
211
204
181
177
181
178
175
177
179
180
176
175
178
183
188
189
190
192
193
199
203
205
208
210
208
211
211
214
213
219
223
220
224
224
221
221
216
213
213
210
203
209
203
196
193
193
189
173
177
176
183
161
156
143
179
202
194
187
185
184
183
183
180
179
178
177
172
171
171
163
168
171
174
169
177
176
187
189
176
171
170
162
166
159
171
147
154
157
180
191
203
207
208
207
199
180
183
185
180
175
178
181
178
187
184
188
190
187
192
192
193
197
202
202
207
207
209
210
211
212
214
218
221
217
219
219
219
216
211
208
206
203
199
203
196
192
189
191
183
170
176
196
171
162
160
146
167
195
191
184
182
184
182
186
180
180
181
179
169
163
164
164
167
172
170
170
178
182
190
185
176
172
170
170
163
151
168
135
150
158
175
199
203
200
207
204
207
196
185
186
184
180
183
182
182
188
189
190
196
191
196
195
196
198
201
202
206
205
208
211
212
212
214
215
216
214
216
218
213
207
203
200
197
197
193
194
191
185
187
184
178
168
183
206
158
166
160
155
162
190
187
187
179
179
178
186
180
180
179
180
169
166
166
159
169
173
173
174
179
180
188
181
184
174
172
172
165
156
148
127
148
160
168
196
206
201
205
201
207
207
198
189
185
181
185
185
183
184
186
188
191
196
197
199
199
203
201
204
204
205
206
208
212
211
211
210
213
212
211
211
201
195
190
195
192
193
187
186
191
185
189
183
176
167
196
184
156
168
158
157
157
198
177
185
178
174
176
182
180
179
181
182
170
166
167
164
174
178
173
176
183
180
183
180
186
173
178
171
163
137
130
129
143
160
162
180
204
198
207
200
204
212
209
200
192
184
189
187
186
185
187
185
186
192
195
196
195
200
200
202
203
205
207
208
209
211
210
210
208
209
203
197
194
188
190
189
189
184
186
185
186
182
187
179
174
185
192
172
161
168
157
158
150
184
177
184
177
175
172
175
179
175
181
179
171
168
168
172
176
182
173
184
185
180
179
182
183
179
187
157
138
138
133
130
138
159
153
175
190
197
206
198
203
205
209
211
205
194
194
188
188
188
188
186
186
184
190
192
188
194
196
195
204
205
209
209
208
209
207
205
201
198
193
190
189
185
186
183
183
184
186
188
186
179
188
182
183
193
179
169
165
165
155
163
144
163
188
180
178
177
174
173
178
173
181
178
170
166
170
172
173
175
172
181
184
187
177
183
188
187
175
131
138
138
137
132
135
156
148
168
184
193
203
197
200
200
205
208
214
206
202
196
194
187
188
188
188
187
189
186
184
189
195
195
205
204
208
205
206
201
204
199
195
189
191
185
189
185
181
183
182
183
186
190
188
180
187
189
190
182
172
168
170
167
152
161
148
155
184
185
175
179
179
174
174
173
177
179
168
165
165
