P2
# Face with average contibution
92 112
255
187
176
174
177
174
173
167
167
171
170
176
175
169
169
171
173
177
170
177
184
177
189
188
187
193
192
187
186
187
179
179
178
178
174
184
188
183
193
193
192
189
200
194
197
197
193
180
191
183
184
180
181
188
198
193
190
189
199
199
199
201
199
198
197
202
193
193
195
193
189
186
181
174
179
180
179
178
180
169
178
179
177
180
188
185
190
186
188
185
185
187
186
179
177
171
175
172
170
166
168
169
176
177
172
173
178
179
188
185
172
191
191
197
208
197
204
196
196
188
185
188
180
183
181
176
180
182
181
188
195
173
190
191
197
201
197
194
191
185
190
186
185
182
185
174
183
181
187
190
196
189
196
195
196
200
199
204
199
197
193
195
191
191
186
175
179
182
182
181
180
175
180
174
174
175
187
184
189
186
191
182
188
189
185
180
171
178
167
168
165
169
173
173
184
183
178
177
189
192
191
191
189
203
207
209
200
193
199
194
202
199
196
195
187
191
185
184
192
182
180
190
193
171
188
196
191
195
184
189
192
182
181
192
194
191
181
180
180
189
187
191
191
197
182
187
194
205
202
209
205
194
196
195
200
199
193
186
183
175
180
185
187
180
173
180
174
173
183
178
185
189
184
191
185
188
190
178
176
170
168
163
159
168
173
177
185
173
175
184
193
198
193
195
207
208
221
203
199
187
195
203
201
199
193
200
187
183
178
184
194
193
183
187
196
181
183
191
184
181
183
192
197
182
178
186
190
198
183
185
190
186
188
188
180
184
182
185
188
198
211
215
209
207
199
209
200
201
201
207
195
191
176
183
189
182
180
175
181
171
178
179
176
187
187
192
185
191
186
172
175
169
171
166
167
167
168
176
174
175
182
189
187
197
203
210
219
208
204
201
200
198
195
196
183
190
196
189
191
183
191
187
200
198
197
189
195
195
194
198
194
183
181
194
199
194
186
184
187
194
194
189
199
202
200
195
192
191
186
189
192
192
203
209
212
210
204
206
208
204
202
199
202
194
187
175
184
189
184
176
178
172
176
176
176
176
185
190
187
187
187
167
171
172
173
169
169
168
172
175
178
185
191
195
200
217
214
216
222
208
202
200
200
198
191
185
185
194
198
197
198
191
193
197
197
205
206
202
206
212
208
211
205
194
199
205
206
203
195
188
191
200
198
198
200
220
215
212
192
207
202
204
192
196
198
203
209
213
215
213
206
212
213
212
205
193
189
183
183
182
188
182
179
174
173
174
175
172
178
190
187
187
187
170
167
179
170
166
169
178
176
187
184
186
199
197
220
221
216
217
207
199
199
205
204
193
184
192
186
200
198
198
195
188
187
191
202
212
214
212
218
214
222
219
216
200
202
201
208
202
197
196
205
212
203
201
203
221
218
221
207
210
216
211
198
193
199
194
200
211
224
214
214
208
208
211
207
200
194
193
190
189
191
178
180
175
173
172
174
174
175
180
189
188
189
172
170
170
166
173
174
183
183
184
187
193
208
213
216
218
212
212
206
200
210
204
195
180
186
193
190
203
192
187
184
190
191
188
196
207
209
210
207
215
215
215
216
196
195
192
191
186
187
202
204
209
203
188
195
210
212
207
206
199
211
212
201
198
204
196
192
188
206
203
212
210
209
206
207
209
203
202
188
191
188
185
179
176
174
170
170
173
173
179
187
190
186
178
172
168
165
176
182
187
182
186
192
211
217
213
208
205
198
204
198
205
198
199
184
179
187
190
185
182
178
175
179
183
181
184
189
186
187
192
193
192
203
208
211
197
200
186
188
172
185
188
190
190
194
187
190
192
199
196
192
188
200
201
196
197
202
201
187
181
182
194
210
209
209
208
203
211
211
205
196
194
190
194
178
188
171
175
168
171
177
173
185
187
187
174
170
169
175
180
190
183
187
190
203
217
208
208
211
207
200
197
185
193
178
168
178
185
180
177
180
164
164
177
176
170
165
177
173
179
185
184
190
184
199
202
204
190
189
180
187
175
176
182
178
181
187
183
195
179
188
199
194
179
184
184
186
193
195
198
193
176
175
183
182
195
204
201
202
201
208
209
201
192
194
193
184
187
179
174
172
172
174
175
175
186
184
176
174
172
184
181
189
188
186
194
207
213
219
223
210
199
204
190
177
163
157
162
177
177
174
171
169
165
167
174
177
181
172
177
188
184
191
184
184
189
187
186
194
196
183
183
186
184
183
182
185
184
180
179
186
186
186
200
195
187
176
185
181
189
186
187
189
177
174
177
170
163
186
195
201
201
200
216
215
202
200
196
184
186
193
177
167
174
170
173
176
180
185
187
181
192
193
189
190
190
179
194
193
208
210
201
193
192
191
175
170
161
156
162
162
170
173
169
171
172
172
177
180
188
185
178
188
189
191
189
180
183
179
189
190
197
193
193
197
188
190
178
182
180
173
178
180
189
179
185
189
191
184
183
188
184
180
182
180
174
174
176
178
164
166
179
191
201
211
214
223
202
209
191
190
187
188
179
180
177
172
173
175
178
188
187
182
187
190
191
189
193
194
192
192
199
192
181
189
183
168
154
158
170
176
167
165
169
171
168
168
169
172
177
185
183
193
182
187
196
191
184
180
183
182
193
200
199
198
199
195
194
193
196
196
185
181
175
190
183
182
177
182
180
178
177
185
179
177
177
170
169
169
174
180
175
157
170
170
184
201
211
219
202
195
189
186
185
186
172
179
177
178
181
177
182
188
179
185
178
192
200
195
194
191
187
186
185
174
174
175
160
139
144
150
156
163
164
170
170
179
173
180
177
182
176
184
192
190
186
192
192
190
181
180
186
201
200
204
197
201
199
199
197
200
197
201
198
187
184
180
182
177
181
178
175
173
164
173
179
176
177
178
173
171
169
183
182
171
164
163
167
182
204
215
200
188
191
191
185
190
184
173
174
178
179
181
175
183
184
189
189
193
204
199
185
191
192
174
174
165
180
174
143
134
136
151
151
162
168
170
171
177
164
180
188
186
193
187
199
194
192
189
190
194
193
190
193
201
207
200
194
202
200
192
195
200
194
193
194
191
197
183
178
176
175
177
166
173
175
168
166
176
175
179
175
184
176
183
179
167
164
163
165
171
180
204
210
192
185
195
188
187
189
179
171
178
177
185
173
173
185
188
198
203
200
192
192
199
183
174
170
173
169
153
136
138
143
155
154
168
169
173
174
171
172
182
191
191
192
189
194
191
189
194
189
198
198
187
189
194
197
201
196
195
200
190
196
195
193
196
201
191
192
182
180
176
174
164
163
166
169
168
176
168
169
175
173
180
175
176
184
165
165
167
162
158
175
181
207
209
187
188
185
176
184
181
177
178
170
179
176
173
190
184
206
205
194
189
193
191
181
166
171
186
166
152
163
145
151
158
162
170
169
166
168
163
182
185
189
192
188
184
188
191
193
195
194
188
190
185
184
189
193
198
197
196
198
195
192
194
195
197
200
203
194
189
185
181
167
168
166
165
170
173
169
170
168
175
178
179
182
171
177
172
174
167
166
163
161
165
178
211
201
190
185
179
185
188
177
180
168
178
178
178
199
192
203
204
185
186
191
182
169
162
181
170
147
152
160
152
155
162
169
165
169
160
165
175
192
190
193
198
198
202
200
192
193
201
192
182
189
177
184
187
190
197
193
195
193
188
187
193
191
199
193
203
192
189
184
183
173
165
171
167
173
168
172
174
172
177
177
176
178
182
178
181
172
178
173
170
154
156
165
190
202
192
189
184
184
180
187
181
167
172
174
167
188
194
206
195
189
200
184
174
168
183
182
153
141
147
162
166
165
165
172
171
168
169
176
198
202
202
203
208
206
203
200
196
196
200
195
185
193
185
183
189
186
198
196
196
194
180
185
187
189
185
184
187
190
187
188
191
186
177
169
182
182
172
176
178
182
181
175
182
183
182
181
180
171
173
175
176
173
157
156
167
187
191
186
185
187
181
185
187
174
167
171
174
186
196
210
195
193
201
182
174
180
200
171
156
151
156
166
172
175
174
176
178
181
182
201
206
210
215
212
216
203
201
202
206
204
199
197
189
197
188
188
188
195
195
207
199
194
196
193
192
188
180
184
187
194
190
191
194
195
188
179
181
174
178
170
175
185
189
176
178
180
179
184
184
178
169
173
176
174
165
162
158
175
180
185
178
191
186
187
192
181
167
167
174
197
198
200
196
200
192
175
179
194
189
163
146
156
163
168
170
186
181
186
191
197
207
219
215
219
218
218
221
211
208
202
207
207
196
193
192
192
190
192
194
197
201
205
205
201
196
197
196
193
181
182
190
197
194
196
199
192
192
191
193
184
178
181
171
171
179
180
168
178
184
184
187
179
167
165
168
169
164
156
163
166
180
177
176
178
186
192
186
185
169
166
174
201
195
194
191
201
186
173
186
190
172
157
155
174
176
177
179
181
186
197
207
208
217
226
219
219
222
220
217
212
211
209
208
202
195
195
190
187
190
196
198
198
204
200
198
202
196
191
193
195
184
190
187
197
197
198
199
192
199
201
197
180
186
179
174
176
173
177
173
173
182
184
185
185
176
164
164
162
162
151
154
165
180
182
171
178
175
190
183
189
163
161
172
200
204
200
196
193
187
180
184
177
170
154
163
182
183
183
181
185
202
211
210
221
221
227
226
229
226
220
213
207
205
207
206
190
191
190
183
188
191
197
199
203
202
201
203
199
197
191
192
191
190
195
188
191
192
200
205
201
206
203
197
186
179
177
180
179
179
176
176
180
173
177
182
182
178
173
171
168
161
162
155
167
165
185
179
179
171
181
176
189
176
158
163
202
214
208
197
189
198
181
186
179
170
153
173
180
180
177
184
200
206
213
218
225
224
232
230
236
223
213
204
196
199
196
190
185
183
180
179
180
182
188
191
191
197
190
198
197
193
190
190
194
194
196
199
197
197
197
205
205
205
200
191
185
184
180
175
180
173
187
172
185
179
170
183
180
181
172
181
178
163
164
158
180
162
179
191
175
175
176
179
177
194
169
161
213
217
205
189
189
193
180
183
175
166
163
177
178
173
181
197
208
216
222
226
229
235
234
224
220
220
204
201
197
189
182
181
176
175
174
173
173
180
186
196
194
192
193
198
199
195
193
192
193
195
202
200
193
201
199
196
199
196
195
186
183
179
175
178
179
174
180
183
178
183
180
178
179
175
179
178
181
171
162
164
173
167
174
197
177
175
179
181
182
193
180
172
217
211
202
184
195
183
184
184
175
160
162
174
181
170
195
209
212
219
224
232
229
228
222
219
213
210
205
196
198
188
176
175
181
174
168
167
170
175
179
186
190
191
194
197
198
193
192
193
191
194
200
200
195
192
196
190
191
189
185
185
184
177
178
175
177
177
174
180
180
185
186
189
177
179
175
176
178
171
159
156
179
168
171
189
178
179
177
193
183
187
193
166
207
208
202
189
197
172
179
181
178
161
161
180
177
181
211
213
220
219
224
227
224
217
216
212
210
202
199
192
183
177
174
175
174
172
168
175
178
178
175
179
188
183
193
191
195
192
188
191
189
193
199
200
196
193
185
185
184
182
180
180
182
179
177
179
174
185
177
176
182
183
189
190
186
183
181
178
174
176
170
160
171
172
162
187
187
185
182
192
188
182
197
177
212
212
202
198
188
169
173
176
174
163
164
179
179
199
217
218
220
221
223
225
218
219
211
209
201
198
194
189
181
170
175
177
176
175
176
176
180
182
179
182
181
176
186
191
192
192
192
192
190
192
193
198
191
186
184
183
178
178
181
175
177
179
179
177
183
182
185
182
181
185
193
197
197
181
190
189
186
173
166
178
171
171
165
183
203
185
176
192
198
191
196
182
216
219
206
196
173
158
170
183
172
174
172
176
180
207
217
224
220
219
217
220
213
215
209
207
200
193
193
179
180
179
178
177
173
177
174
172
174
179
175
176
174
171
176
183
185
183
186
188
186
187
188
188
190
185
185
177
176
176
174
172
173
175
178
180
184
183
186
190
180
177
199
198
203
191
189
190
199
178
167
174
175
170
169
181
204
190
184
190
199
199
196
183
221
219
212
193
167
149
170
184
169
171
172
182
191
216
221
223
217
212
210
210
207
212
206
203
197
186
185
181
181
189
186
176
174
173
172
169
170
169
173
169
169
170
169
175
177
175
178
178
182
182
184
187
185
180
173
163
169
172
170
170
170
172
172
178
181
184
181
191
190
177
191
208
205
195
189
193
200
188
174
174
173
169
166
182
210
195
181
190
205
194
199
194
227
214
208
188
159
151
170
182
171
164
176
186
199
224
217
223
220
202
206
203
200
200
198
196
187
186
180
181
181
183
181
171
167
169
170
173
172
167
171
169
168
167
169
169
171
171
169
170
176
181
184
186
181
172
166
158
162
165
171
169
173
170
176
177
181
183
182
189
194
182
189
206
218
206
191
194
204
193
186
176
177
165
162
180
210
209
177
189
202
193
197
205
234
209
208
181
157
157
163
176
164
167
178
187
218
225
222
224
214
202
201
195
194
188
184
179
178
178
174
174
172
164
165
169
159
157
159
169
173
169
168
170
174
169
173
164
166
167
161
166
172
179
184
181
183
170
168
168
164
169
168
174
181
184
185
187
181
189
185
188
198
193
195
203
215
221
204
196
206
201
198
186
173
171
169
177
200
215
182
183
202
189
191
207
228
211
201
184
148
156
162
174
169
166
183
198
230
231
225
217
208
198
192
186
186
174
170
174
173
173
166
162
161
154
156
169
164
160
160
162
167
170
165
173
179
178
173
168
164
166
158
165
170
177
188
184
180
180
176
172
178
180
182
185
189
198
205
195
194
195
191
197
208
202
202
204
212
227
226
206
207
202
201
189
170
165
163
184
195
206
182
179
201
186
188
208
221
212
200
180
140
158
166
176
171
174
187
207
239
232
222
213
202
192
190
189
175
167
170
172
175
172
173
166
165
166
165
172
174
170
168
162
161
171
172
175
187
185
178
178
171
165
159
165
171
180
195
184
186
191
190
186
190
199
202
200
200
209
215
207
215
212
209
213
224
215
214
218
208
219
236
227
219
205
201
191
176
162
154
179
193
202
186
167
183
187
193
207
221
213
207
159
145
153
175
176
167
166
181
207
239
232
211
207
202
195
195
185
167
171
169
176
171
167
174
172
178
180
175
167
179
178
177
180
174
181
177
185
192
196
193
186
177
174
160
165
175
184
196
192
192
200
201
201
201
211
214
211
215
218
220
218
224
222
219
220
230
231
226
230
219
216
220
235
236
224
200
190
182
156
159
170
185
190
187
169
173
184
199
212
223
224
199
152
148
160
180
170
159
166
182
214
238
224
217
208
205
198
189
176
183
180
184
182
174
174
180
174
194
195
188
176
181
184
187
187
184
183
175
190
190
203
196
187
181
171
166
163
181
186
194
188
198
195
208
207
206
207
211
212
214
212
211
215
218
208
220
221
231
229
229
232
228
222
220
222
232
239
217
193
177
165
149
166
177
175
190
163
173
178
200
227
226
234
198
156
136
176
179
163
162
171
182
215
232
225
209
198
197
199
182
185
188
186
180
182
179
182
188
193
199
202
198
194
191
193
192
191
194
182
182
185
194
206
197
187
172
169
163
171
172
189
190
190
190
199
213
218
208
204
211
212
213
211
206
205
199
200
200
209
220
228
221
222
226
214
221
220
228
232
233
205
179
159
150
146
171
174
186
166
172
173
202
227
230
223
188
147
143
170
177
170
163
175
183
223
222
215
217
216
212
204
186
180
175
184
185
185
196
208
204
203
211
194
197
186
191
187
177
182
186
182
184
188
191
186
191
173
164
159
160
168
172
180
187
184
188
197
209
208
198
206
219
215
224
211
207
202
198
194
190
192
197
214
214
211
214
206
209
219
231
232
231
219
200
165
137
130
161
186
178
162
168
181
196
228
219
213
190
138
148
167
176
178
166
177
181
208
220
224
228
215
210
189
181
175
183
183
186
192
203
206
206
195
204
204
203
197
187
187
180
176
174
176
176
179
189
179
169
168
162
159
163
165
173
178
183
182
186
195
195
213
219
218
225
242
233
215
229
199
206
205
194
190
187
199
206
209
208
198
198
210
224
236
236
224
202
184
144
132
146
186
175
163
168
183
204
223
214
200
186
150
155
169
183
177
178
174
169
212
229
228
224
217
194
178
173
181
194
191
197
209
205
197
194
195
194
205
207
201
188
191
189
185
182
186
185
183
178
174
165
164
167
167
165
168
175
183
186
187
188
193
198
204
210
222
235
244
241
207
252
197
199
199
196
202
180
202
201
208
205
199
199
204
218
228
232
229
212
184
153
139
138
176
186
166
159
191
208
216
199
196
190
160
161
172
184
190
182
166
178
214
223
214
207
210
183
167
172
187
206
207
207
202
190
181
189
199
187
186
221
176
188
179
195
184
175
187
188
185
187
165
163
164
168
161
171
171
171
184
196
194
196
191
193
195
226
225
224
229
217
213
219
198
192
191
200
196
182
187
196
205
207
195
191
201
205
214
221
219
203
193
163
149
132
176
183
176
162
190
213
211
188
191
204
168
168
186
186
185
172
168
195
213
213
197
196
195
169
159
172
184
211
206
181
193
178
197
220
232
202
208
236
201
199
190
204
192
178
176
190
183
192
178
165
171
183
177
191
185
181
180
193
199
200
181
197
214
228
225
221
215
191
210
206
206
195
202
215
203
184
168
191
202
221
219
206
204
202
209
215
208
184
187
167
162
127
168
201
183
168
189
217
204
185
190
212
182
175
202
186
164
167
167
194
205
195
184
173
161
143
145
158
181
188
172
170
180
187
225
236
240
231
217
220
210
195
209
205
194
188
181
177
183
197
182
179
161
175
172
170
178
173
179
188
199
196
190
198
195
197
198
192
193
189
204
226
225
214
227
240
240
200
198
189
197
223
235
225
216
210
204
212
208
200
183
161
160
137
155
196
188
166
195
223
204
189
203
200
198
200
199
192
173
162
172
194
212
183
176
162
159
147
153
177
188
183
174
189
177
215
225
231
236
238
222
212
194
177
191
196
193
189
182
174
182
191
185
183
167
175
182
187
183
181
191
193
193
181
190
191
187
183
190
187
197
193
186
212
226
219
230
245
253
231
216
215
207
216
228
235
222
217
205
194
206
204
201
180
161
147
146
189
194
172
196
214
203
170
199
208
194
215
190
195
183
163
173
190
210
194
180
156
170
151
164
184
188
192
181
185
175
212
224
227
221
227
217
211
199
168
181
176
182
185
190
176
171
177
178
169
170
191
184
189
190
187
191
200
180
166
177
199
195
185
186
187
195
200
179
175
214
206
212
216
227
237
217
212
220
226
220
224
220
216
205
192
182
201
196
196
166
162
151
177
199
177
196
214
198
170
188
202
215
224
193
190
172
173
186
186
202
191
181
153
155
159
170
190
199
188
181
186
191
208
224
222
218
212
192
186
202
185
196
185
179
180
178
187
167
168
180
172
178
196
183
188
191
186
183
191
167
166
168
180
195
190
194
183
188
206
190
184
201
201
191
208
201
207
219
220
201
216
231
222
208
210
204
187
177
185
185
190
165
176
160
181
201
184
199
206
196
177
184
211
204
231
204
190
175
170
189
182
211
188
179
169
158
157
177
192
192
190
189
178
184
189
196
179
196
195
184
192
199
200
203
195
178
185
175
183
164
163
171
168
188
206
209
205
202
201
197
198
163
166
160
180
187
188
182
179
175
192
198
202
183
177
169
191
177
194
213
220
204
207
225
224
218
203
196
180
172
168
184
191
161
172
164
178
199
204
201
195
203
189
187
221
211
208
198
191
176
169
184
198
219
182
172
163
154
163
182
186
186
183
199
190
186
202
202
176
178
183
186
187
204
198
198
196
182
188
179
182
168
168
158
165
194
212
209
201
202
202
201
196
178
158
163
188
187
181
185
186
192
179
199
198
204
198
188
192
191
200
206
202
197
205
217
223
219
214
199
181
172
168
183
196
165
161
165
172
200
211
207
189
206
193
195
226
229
205
204
185
195
177
185
202
215
180
171
151
150
168
178
180
171
170
187
220
209
193
211
192
181
176
190
167
192
197
188
185
179
186
178
184
176
175
158
172
200
206
208
193
200
196
200
194
184
154
162
166
191
161
182
182
189
177
190
198
210
217
216
218
211
214
216
213
214
210
212
215
212
222
211
198
181
183
174
208
166
163
167
184
200
208
204
189
196
174
196
220
242
216
197
188
196
176
183
197
211
181
178
168
167
192
183
184
156
160
202
216
234
214
209
208
194
192
186
191
199
195
184
197
186
176
176
180
183
174
147
168
199
204
198
186
194
187
197
197
188
159
145
163
184
167
175
184
174
178
176
186
202
217
203
201
202
197
204
208
207
197
202
204
202
214
216
205
193
187
166
209
172
160
165
206
213
215
206
192
193
172
184
208
255
231
210
213
200
181
188
200
200
184
187
187
179
202
185
192
171
162
184
202
200
195
189
189
184
185
186
200
204
175
175
198
193
186
186
180
181
169
148
164
196
200
208
186
190
190
192
194
184
167
145
152
173
168
172
159
157
169
169
174
190
196
194
174
186
186
183
197
200
193
201
198
197
198
208
203
195
191
156
205
172
159
171
204
225
226
214
196
204
183
183
179
252
243
228
239
213
179
192
195
196
178
186
182
178
198
188
186
193
186
183
185
164
155
156
149
162
165
168
184
183
181
172
198
202
194
187
183
178
160
149
177
193
190
201
184
178
192
190
203
191
175
152
153
153
152
152
151
148
172
185
173
192
191
184
179
171
183
175
188
205
196
199
200
207
198
209
212
192
187
167
198
176
171
163
205
220
223
211
212
206
184
182
170
221
231
223
243
210
173
192
182
195
167
176
167
165
188
189
176
180
184
185
179
168
160
157
161
171
171
180
182
180
184
195
210
212
207
206
198
192
181
178
195
198
187
191
175
181
184
189
194
193
179
169
160
162
159
160
169
163
179
196
180
182
174
167
174
178
179
180
174
192
198
203
210
217
214
212
220
204
183
183
187
186
169
154
200
210
221
210
220
205
181
186
193
220
228
219
226
198
168
194
182
186
172
171
161
165
178
187
178
178
182
178
169
168
168
160
173
184
190
192
189
194
201
210
209
212
210
211
204
195
185
182
190
192
182
188
186
185
186
189
186
185
181
180
165
166
174
184
179
177
189
199
189
186
172
165
172
181
186
179
172
187
186
195
209
209
205
221
222
202
172
195
183
180
162
144
195
211
210
216
211
202
185
174
188
211
237
230
212
183
161
189
183
183
180
157
150
162
177
186
184
185
184
189
180
181
185
182
179
183
191
198
200
200
207
217
215
206
198
214
203
194
174
178
186
183
181
181
203
195
194
196
192
185
185
182
181
173
180
186
190
180
180
184
179
180
178
176
177
177
179
177
168
172
175
185
199
204
193
215
209
194
162
191
180
172
172
142
200
203
212
207
195
186
160
150
160
171
215
233
210
176
166
170
176
182
181
159
144
159
177
183
190
194
195
200
189
178
178
173
172
178
186
193
202
207
216
218
208
198
188
191
190
179
167
185
187
193
190
186
204
202
197
199
185
189
184
188
192
187
174
178
185
182
183
185
184
173
168
174
165
167
165
168
169
167
173
178
197
203
195
201
197
173
172
195
180
181
170
154
207
193
202
194
188
186
150
152
163
180
199
222
213
192
179
181
164
188
182
162
137
140
176
177
179
183
182
182
169
165
160
160
172
174
181
191
201
199
212
215
208
197
188
172
179
153
156
192
196
193
200
184
199
203
206
193
187
193
183
182
185
184
176
167
179
185
184
184
177
179
167
176
159
179
180
169
165
175
173
172
173
197
198
198
189
183
185
193
189
188
176
171
189
184
193
184
195
197
151
161
179
204
196
225
224
211
192
189
171
175
188
168
151
153
156
174
179
178
169
162
157
155
161
160
172
178
185
194
192
196
218
219
209
186
189
185
166
165
168
189
192
202
194
188
200
204
212
195
193
183
184
175
191
176
183
176
162
173
187
197
190
196
178
185
165
171
187
173
172
194
184
179
181
191
193
184
184
199
188
191
194
193
194
169
191
173
185
189
221
186
150
172
196
208
198
213
211
203
219
188
175
181
170
169
157
171
157
169
168
163
160
158
157
161
172
172
182
190
189
196
203
211
222
208
201
198
186
181
159
164
174
192
206
204
192
187
198
203
208
196
187
181
178
179
192
182
180
182
164
163
178
183
184
203
190
179
181
171
188
173
169
189
187
176
172
184
195
194
193
199
191
192
189
209
191
173
195
169
189
208
224
173
163
176
199
204
174
200
193
191
218
204
161
184
186
159
158
173
164
159
167
164
156
152
152
161
172
176
177
182
186
191
202
204
207
198
192
189
182
174
168
171
183
204
217
221
205
186
189
205
207
213
190
183
180
192
200
189
176
176
169
177
174
180
191
190
192
176
173
176
172
166
185
186
190
189
185
192
200
197
201
206
192
187
191
198
200
172
193
183
194
213
215
158
177
166
198
187
179
194
191
195
203
225
168
175
192
172
156
174
178
170
169
174
168
162
164
175
182
190
184
199
200
195
208
208
196
189
175
187
170
158
179
181
180
212
233
232
214
184
186
209
219
219
197
186
188
213
216
193
182
173
179
179
177
172
181
191
191
185
184
180
177
179
185
188
192
193
193
204
206
198
202
206
184
171
181
203
201
164
188
187
196
216
197
148
192
173
192
177
185
209
195
198
202
224
191
178
189
187
173
180
182
173
175
172
160
155
164
175
180
187
185
187
189
192
198
204
183
165
154
161
151
162
191
189
185
184
223
247
217
184
186
207
230
228
199
181
192
216
228
186
178
170
174
180
181
165
170
189
192
191
179
181
179
188
187
190
194
192
192
198
207
196
196
198
184
154
184
217
191
150
198
181
199
221
176
158
188
183
199
179
191
203
197
203
200
223
199
185
192
186
185
193
193
188
186
177
165
155
162
165
171
171
170
167
179
187
188
188
171
163
152
147
149
167
198
193
193
190
220
245
220
179
180
206
224
234
216
196
187
207
208
178
166
165
174
173
178
164
173
182
190
188
175
178
185
183
188
185
190
186
189
192
203
201
197
198
198
165
192
221
175
162
211
174
197
220
168
161
187
171
205
187
178
184
186
202
206
220
203
176
192
201
183
183
196
192
195
188
176
168
167
168
170
172
170
167
172
179
173
183
176
159
150
145
156
178
193
192
187
192
226
220
199
171
180
198
211
218
218
210
192
192
192
177
167
164
174
177
182
162
163
174
178
181
170
170
181
179
182
180
187
186
192
193
203
208
196
193
196
173
194
205
184
175
212
168
195
214
159
156
197
154
202
188
167
169
171
194
209
215
199
168
187
206
190
189
189
195
200
199
186
174
164
163
170
171
170
170
166
172
168
170
156
146
139
148
162
176
182
181
185
190
201
189
175
162
177
196
204
205
207
205
193
186
185
180
187
174
184
189
194
168
158
170
172
177
179
182
188
191
190
188
194
194
193
193
210
209
199
195
195
173
199
203
185
187
209
171
181
195
160
173
204
165
189
191
162
173
170
188
207
206
198
167
177
206
194
188
195
199
201
198
189
186
177
171
175
176
175
175
171
169
171
158
140
137
135
147
158
168
169
160
166
168
183
175
164
165
181
195
199
199
201
200
187
179
181
185
191
195
190
181
192
172
162
165
174
178
187
187
189
190
195
191
192
196
191
206
207
210
205
204
197
186
197
209
177
203
205
178
174
176
169
189
202
176
189
186
157
183
187
189
206
202
197
178
169
204
197
185
191
196
195
197
191
185
184
177
173
172
174
166
170
171
177
162
149
143
148
146
150
155
147
150
148
147
169
167
168
170
180
198
204
204
205
188
183
181
179
192
198
194
185
186
185
182
170
168
177
182
189
193
195
197
195
193
191
193
199
208
206
209
204
209
200
185
209
208
168
209
196
185
173
178
179
192
204
181
189
179
164
188
204
200
213
198
199
189
167
205
200
189
189
190
194
201
194
186
185
180
172
174
172
172
172
171
172
164
160
145
150
152
153
159
147
149
144
149
154
153
167
174
183
200
212
199
208
195
203
201
183
186
196
193
190
187
184
181
172
171
177
183
182
192
192
196
192
189
196
199
202
213
201
195
194
201
189
189
221
211
172
214
203
180
170
190
182
185
195
187
182
167
167
187
202
215
207
186
194
199
163
198
204
192
191
189
199
202
198
187
183
182
179
173
171
173
170
171
184
172
162
160
169
172
182
184
173
162
156
156
158
153
158
167
184
205
194
192
200
203
200
191
173
175
178
184
187
201
191
189
178
171
178
184
184
189
187
193
198
190
196
196
196
212
199
189
184
190
192
194
226
219
188
231
205
188
185
178
182
186
184
197
175
161
162
186
198
208
217
181
175
204
169
187
204
196
194
192
201
202
197
190
179
180
183
179
165
163
164
173
187
173
169
172
180
178
182
177
165
150
158
161
157
156
164
163
170
203
177
183
190
189
194
180
165
170
173
178
178
198
195
197
185
179
188
185
181
178
179
182
186
190
197
189
190
199
191
180
196
185
190
195
231
216
198
229
195
201
192
172
189
181
180
197
175
154
160
181
202
198
211
190
172
198
165
189
198
192
190
193
199
197
193
189
177
185
184
176
165
166
163
176
188
181
177
178
184
177
173
167
161
152
143
146
157
159
158
157
173
196
177
161
177
181
193
192
169
170
175
178
174
181
186
195
194
191
196
197
187
182
180
182
184
191
192
194
196
194
188
190
193
183
188
198
220
208
204
214
207
202
177
172
190
184
186
194
186
152
156
176
192
202
204
196
183
196
169
188
200
189
188
197
197
195
188
176
185
181
174
170
166
165
171
178
189
189
185
184
188
177
170
169
168
165
148
141
152
157
155
161
181
195
177
163
167
178
188
188
176
175
175
171
174
183
189
191
200
198
199
198
190
184
182
181
183
187
193
192
194
191
188
195
199
184
189
199
212
207
198
200
210
184
163
182
187
190
177
181
201
164
155
182
185
190
184
190
198
187
180
187
198
180
191
189
196
191
180
176
183
175
169
167
166
172
178
186
192
195
191
201
189
176
177
177
175
167
168
162
174
173
170
177
196
202
187
167
165
158
169
175
169
169
176
178
174
180
184
193
197
200
186
190
193
183
187
184
177
185
190
188
189
185
193
190
204
190
187
192
209
199
191
199
198
165
172
181
180
195
170
167
191
192
167
187
199
200
183
186
197
184
186
174
189
184
185
191
188
187
186
179
176
172
174
168
164
176
181
186
188
190
191
198
196
189
190
178
180
173
167
165
173
187
182
181
197
204
184
178
167
150
171
172
168
171
172
178
180
179
180
184
188
182
179
175
183
187
191
186
179
183
188
191
191
184
187
191
198
188
186
184
202
191
185
194
182
162
181
183
182
195
177
166
188
200
165
191
194
212
199
201
193
188
190
165
182
180
183
184
186
186
190
172
177
175
171
173
171
175
176
182
180
186
187
198
192
197
196
182
184
175
171
154
165
182
185
180
178
189
184
176
169
165
172
177
168
167
172
177
183
178
174
179
181
179
172
169
172
185
185
190
185
182
190
190
189
187
189
191
191
192
188
181
200
186
176
175
175
163
184
187
183
194
189
180
182
209
161
188
185
199
202
209
201
192
190
164
180
179
182
179
187
187
189
181
177
172
178
176
169
168
171
168
176
173
182
186
185
188
198
184
193
183
171
161
169
178
177
172
164
173
195
190
185
190
186
179
176
170
167
176
179
174
168
172
181
179
174
176
176
180
186
184
185
184
183
189
185
187
189
202
198
197
184
185
196
171
165
170
169
173
192
185
187
189
192
185
183
200
174
164
183
191
189
203
204
194
194
171
174
182
184
184
193
180
194
186
181
180
177
172
168
167
168
165
164
163
170
173
178
176
194
185
194
183
175
170
179
180
166
176
173
179
197
205
203
205
203
191
180
178
172
182
173
178
171
174
178
176
180
177
178
175
177
184
178
185
181
183
184
187
196
204
200
195
188
187
191
170
170
171
172
190
198
187
191
191
191
182
183
197
184
154
164
183
183
196
208
203
196
177
168
183
187
193
198
188
195
183
193
195
173
165
170
170
169
171
164
155
159
170
174
170
187
188
193
186
186
178
185
185
188
193
189
200
205
223
217
217
217
208
198
188
186
189
183
183
181
184
183
180
182
184
189
186
180
186
176
181
180
180
184
180
197
201
193
190
202
203
190
169
174
170
177
204
197
190
192
188
193
181
189
189
193
168
159
165
183
192
205
203
197
177
169
180
184
189
194
197
193
197
210
190
173
163
171
178
172
175
167
154
159
170
170
170
172
178
188
202
189
187
194
196
216
220
220
226
219
233
230
229
238
231
223
209
195
194
200
191
182
187
182
184
177
183
197
198
188
187
181
180
177
177
185
186
190
200
188
187
203
205
187
176
179
179
190
207
197
188
192
185
192
190
183
193
195
172
187
175
181
197
206
206
198
180
172
184
183
191
191
194
195
206
205
189
165
171
173
174
174
169
168
161
166
173
170
161
160
175
191
209
189
187
210
208
227
235
240
237
228
231
235
234
251
249
231
214
203
210
208
203
198
188
189
186
189
192
198
209
200
193
185
185
178
180
191
187
189
198
180
185
197
201
205
202
191
187
198
209
200
191
190
183
194
187
187
187
197
180
212
200
194
191
198
203
199
176
162
184
176
183
189
194
198
204
201
184
173
171
164
168
170
164
173
168
175
178
172
164
163
169
178
195
180
176
202
204
207
208
218
214
209
205
217
215
226
235
223
204
201
214
201
197
187
185
190
191
198
195
197
207
202
191
185
183
183
183
202
185
193
191
174
175
192
199
227
205
200
197
205
210
195
193
191
178
191
190
188
184
196
189
205
213
220
205
196
188
192
173
159
172
168
177
183
197
203
198
208
193
185
170
167
160
158
170
175
173
176
179
188
187
181
172
169
183
172
164
184
183
185
187
184
185
178
182
182
185
196
213
219
199
197
209
201
186
170
193
189
189
192
187
188
198
198
185
183
180
184
186
201
197
199
186
166
184
184
204
226
203
204
203
209
208
191
194
191
176
191
191
188
181
191
190
195
206
226
223
201
188
184
178
153
170
169
169
183
199
197
196
209
193
180
172
174
171
172
183
187
180
175
178
187
192
180
179
164
173
166
162
170
176
178
177
167
174
168
166
170
168
182
198
194
183
176
198
191
178
172
198
191
178
190
186
186
182
195
179
177
178
182
196
201
204
205
188
166
191
188
205
223
203
204
211
209
203
193
198
193
176
190
193
180
185
185
196
189
200
221
233
210
191
181
181
157
164
166
168
179
196
191
198
202
189
182
176
176
184
187
199
208
191
178
183
194
192
174
184
173
177
184
189
176
186
183
185
170
180
174
162
158
140
155
172
174
173
154
180
191
180
177
196
187
170
190
173
176
183
188
176
170
178
184
202
198
197
198
180
169
195
187
210
218
208
210
205
210
195
193
199
195
187
191
190
185
186
181
191
184
194
215
236
219
197
189
189
174
159
171
169
171
189
190
191
194
185
184
184
196
199
193
204
210
205
197
180
193
183
191
193
180
188
203
217
191
205
201
203
189
200
189
166
158
129
151
156
164
165
149
150
186
177
173
192
185
168
180
174
167
181
176
171
174
171
189
201
196
192
194
165
181
186
195
214
206
206
208
207
203
193
192
199
193
186
192
191
187
188
171
187
173
201
211
224
227
206
190
187
187
166
170
167
161
174
184
182
184
185
173
172
196
204
205
209
210
203
211
180
194
182
198
206
182
187
201
211
198
208
202
206
189
196
187
164
157
147
159
163
164
158
162
153
190
183
182
193
195
189
194
183
176
176
173
167
179
174
192
194
198
198
183
171
184
186
198
214
204
205
211
204
196
193
200
197
193
183
191
196
188
183
176
171
183
213
205
213
230
216
197
186
192
172
179
176
154
167
182
179
182
181
171
164
175
198
201
197
206
202
213
196
203
198
205
209
173
187
196
204
201
198
194
195
183
195
196
178
178
164
168
173
180
168
169
174
193
190
192
197
193
194
198
200
187
182
176
170
173
176
193
190
193
194
183
175
187
190
208
210
209
203
208
204
192
191
197
198
187
182
191
193
190
188
175
170
196
206
203
204
229
227
203
186
187
181
178
187
159
165
179
184
181
169
163
162
167
191
189
186
193
190
197
199
206
202
211
226
196
194
199
217
210
202
199
191
195
210
230
214
214
202
194
192
205
199
192
194
203
202
206
199
203
194
197
202
189
193
180
177
179
184
191
193
194
191
184
184
182
196
214
206
208
205
209
196
188
190
198
196
185
182
188
189
182
179
171
186
197
200
202
197
216
232
211
193
190
184
189
180
177
175
185
186
192
179
166
169
171
185
191
189
196
191
195
199
204
200
215
233
231
224
230
243
235
223
219
211
227
236
241
237
234
233
223
218
217
219
215
219
219
217
211
209
209
203
192
195
188
186
182
191
194
196
191
190
198
185
181
174
183
192
208
203
195
204
194
190
186
187
189
193
182
181
178
177
175
170
178
196
186
195
197
185
206
230
216
188
202
184
196
179
178
165
186
195
200
197
182
170
184
191
195
194
201
195
199
198
193
189
203
201
219
229
232
240
238
235
236
234
230
239
227
215
206
221
207
214
217
216
220
224
221
222
197
208
198
187
169
173
181
182
180
189
196
186
186
185
196
170
178
177
176
195
208
202
194
195
188
183
184
178
184
181
179
177
171
176
177
183
193
201
187
187
191
185
192
229
221
209
212
177
183
178
163
156
179
204
196
204
193
183
201
207
202
211
200
196
197
197
186
185
194
193
198
215
211
208
213
210
211
199
196
201
194
195
190
205
202
202
212
203
202
210
199
194
178
190
180
180
171
176
176
179
176
186
191
181
182
180
181
165
170
177
171
194
206
201
195
185
187
183
180
182
178
181
178
174
166
176
185
193
201
200
180
184
192
183
190
223
227
221
217
165
169
174
164
171
178
203
201
198
194
192
200
205
204
208
212
204
198
195
202
185
188
198
194
197
196
189
188
183
179
176
167
167
161
156
156
165
163
176
185
184
185
189
181
186
194
190
191
183
181
171
172
169
177
184
182
179
171
169
175
159
174
178
164
194
207
197
193
180
188
179
180
176
180
180
179
176
168
185
194
194
204
196
182
191
200
194
189
215
225
232
216
159
156
177
188
185
178
193
209
197
194
195
195
196
197
204
207
207
214
196
199
196
184
184
193
185
187
182
180
171
165
172
167
158
161
154
161
156
165
173
172
178
185
183
195
194
198
198
191
187
178
172
175
167
176
179
179
178
161
168
166
161
175
179
164
190
200
192
198
185
183
177
181
180
181
184
171
178
172
196
199
200
204
203
188
201
210
199
187
207
216
226
216
156
146
185
189
197
182
177
205
203
190
189
188
189
194
202
207
205
216
210
212
206
199
191
193
194
195
190
188
191
192
179
181
175
179
178
183
178
175
183
185
191
200
200
212
207
201
201
187
180
178
177
175
173
169
178
177
170
154
168
162
170
171
179
168
191
193
183
198
209
174
181
178
181
183
180
173
174
187
205
201
201
202
202
192
201
210
204
189
201
215
216
205
156
143
193
186
200
196
172
192
203
195
185
180
185
187
192
199
200
208
216
213
214
214
208
208
201
211
200
200
192
202
191
188
187
186
194
195
198
194
199
208
210
214
209
213
205
200
190
184
179
178
182
167
167
171
175
179
170
159
162
156
170
162
169
174
186
191
170
189
208
191
180
175
179
180
177
175
174
203
196
203
202
198
203
199
198
204
208
208
199
193
209
191
157
144
191
184
203
202
176
182
193
192
183
175
185
182
187
189
192
198
208
203
198
206
205
201
195
205
196
195
197
199
197
191
194
193
204
197
203
210
203
218
214
215
210
206
196
192
187
183
180
190
175
169
168
171
178
175
168
169
165
147
165
165
159
172
179
184
174
185
196
204
187
172
179
178
177
176
173
199
199
199
198
199
203
208
194
204
214
207
195
185
210
191
152
145
186
179
194
216
187
174
188
194
187
180
177
180
178
186
190
194
194
194
188
193
196
196
188
198
196
198
204
199
206
194
194
195
204
192
211
209
210
215
208
208
209
201
188
185
188
183
182
184
176
176
161
174
176
174
160
166
166
140
158
167
162
166
157
192
182
183
187
202
202
177
171
180
176
170
179
188
198
198
199
197
201
204
191
204
206
210
199
198
200
188
148
147
172
180
192
206
200
186
183
189
190
178
178
180
185
182
185
183
187
190
192
197
195
191
186
200
192
202
203
202
209
207
194
200
195
195
205
203
204
199
199
193
197
189
177
183
183
185
175
185
178
177
162
172
172
169
162
166
164
149
168
161
162
161
155
184
189
186
187
199
202
195
170
176
176
168
175
187
189
196
196
188
192
198
206
200
199
213
216
209
195
175
152
142
163
174
178
200
202
200
186
181
190
186
181
178
181
185
177
175
189
192
188
201
195
192
190
204
197
203
203
211
207
205
204
208
202
202
196
192
198
189
190
186
188
187
179
180
187
183
173
180
175
181
164
172
170
163
158
166
162
159
179
157
158
156
166
189
178
195
190
188
201
198
188
174
168
168
168
179
180
186
185
173
183
218
214
190
202
217
231
215
187
173
156
141
162
165
164
190
207
207
196
185
191
195
189
185
185
192
183
179
189
193
187
201
199
195
195
202
204
202
210
207
207
207
201
206
200
198
196
192
189
191
183
180
185
177
181
190
188
173
180
171
172
172
167
169
163
157
164
165
166
174
187
157
162
150
157
204
185
189
184
176
187
195
188
180
167
165
169
176
178
186
175
166
200
233
224
200
213
216
214
216
197
168
159
143
169
142
167
187
200
215
205
195
197
197
199
189
185
189
186
188
186
196
185
201
197
198
204
202
210
206
216
204
206
210
196
195
198
183
192
189
185
188
186
181
181
183
183
190
179
167
175
174
172
169
163
169
160
156
168
171
182
187
183
165
166
147
151
198
203
186
180
174
174
192
178
194
163
158
159
177
179
187
169
184
222
234
223
192
216
213
201
185
200
185
153
155
165
154
170
173
187
210
208
190
205
195
199
191
184
192
189
191
192
196
194
195
198
199
201
210
208
208
214
206
207
204
197
195
197
179
190
186
187
188
184
189
182
179
185
188
173
160
169
179
170
171
160
169
163
153
170
192
196
193
193
177
168
134
146
195
203
191
169
168
169
187
188
185
177
160
160
185
179
187
177
201
222
233
213
191
220
209
195
160
193
193
158
152
180
174
150
158
184
201
209
196
215
193
200
195
191
188
195
193
196
199
193
201
207
198
200
207
210
210
218
208
215
208
199
200
198
186
193
193
188
182
174
188
174
178
176
174
160
165
166
173
176
168
160
167
164
159
182
202
199
194
193
189
171
145
135
187
204
197
171
163
168
183
190
189
175
166
170
183
194
186
180
210
224
234
203
197
222
210
179
161
166
199
172
180
184
164
145
156
172
192
203
209
217
200
206
190
198
194
189
195
194
197
197
207
203
202
198
201
208
210
215
216
213
207
199
196
197
197
191
197
182
177
167
181
177
174
173
173
157
167
179
170
179
171
161
176
159
176
201
200
211
199
186
204
168
153
149
178
200
195
178
150
155
166
189
189
171
171
169
191
198
180
198
216
228
229
204
204
215
208
178
162
163
179
219
198
173
154
150
158
171
188
198
208
209
218
202
193
192
196
192
198
191
197
198
210
204
201
194
205
202
207
210
209
208
199
194
192
195
194
190
189
181
183
177
177
177
169
172
177
171
170
182
173
176
165
170
172
169
197
210
206
226
190
178
191
193
161
157
172
199
196
179
167
152
155
173
177
158
162
170
187
189
176
198
215
223
219
192
185
206
217
174
157
163
210
234
193
175
157
151
155
172
186
194
203
207
222
202
193
192
191
189
198
194
196
200
204
201
198
194
199
198
200
203
203
205
195
191
191
193
197
189
182
187
190
178
172
175
168
177
182
180
172
182
174
169
167
172
172
185
211
214
215
233
199
172
153
182
198
158
168
205
194
186
186
164
164
172
179
163
150
166
176
177
172
198
217
220
212
168
161
196
220
177
150
198
236
204
188
176
165
156
155
175
178
194
198
207
208
213
194
184
187
194
193
191
201
201
201
200
203
198
200
198
194
193
194
200
194
188
189
192
189
190
186
188
194
174
176
177
176
183
185
178
179
184
172
169
173
167
178
206
220
217
223
226
205
175
155
166
208
188
159
208
187
187
182
158
158
161
177
163
148
155
185
180
196
216
228
231
209
173
181
189
216
186
170
233
222
189
179
183
171
157
159
176
178
181
194
202
201
204
205
190
184
188
191
192
199
197
199
195
208
196
201
199
196
184
185
184
181
188
190
187
193
196
188
187
190
178
182
185
187
182
186
187
181
183
173
169
175
158
188
220
226
220
225
219
195
155
168
185
200
203
167
201
178
189
180
166
166
172
184
172
162
155
175
168
186
196
205
208
196
183
195
184
209
182
209
236
200
181
174
179
181
150
156
177
176
180
180
197
194
197
205
198
199
188
191
191
204
193
196
192
205
202
197
195
192
193
192
183
179
191
186
191
203
191
195
193
183
185
186
191
188
187
189
186
186
178
169
161
181
183
188
231
222
227
218
213
174
148
170
190
204
195
174
209
176
188
189
165
181
174
187
180
174
164
176
181
193
187
196
209
191
177
196
173
193
213
197
237
203
167
172
182
184
137
162
172
175
176
178
182
186
187
197
197
199
194
199
190
196
195
197
190
196
201
200
194
193
195
201
199
192
195
192
198
202
198
201
197
187
188
194
191
197
190
191
183
189
176
169
173
197
203
192
228
235
224
211
199
160
154
170
187
200
205
177
215
195
184
197
181
181
166
180
184
179
173
183
188
196
203
213
216
205
181
190
169
223
232
195
217
212
165
170
185
183
127
165
175
172
176
175
180
183
183
190
185
197
196
203
189
186
188
194
193
195
195
190
198
192
195
200
199
197
201
203
207
204
196
202
197
195
196
196
194
198
194
191
186
190
178
187
189
209
210
210
216
232
220
202
180
155
153
170
192
192
204
180
218
232
196
204
196
186
171
171
176
181
180
189
179
199
199
208
222
208
203
219
202
231
238
201
215
202
182
169
189
176
129
153
178
182
173
175
179
184
185
189
186
185
194
195
191
182
178
185
184
189
188
189
186
193
195
189
193
197
198
199
198
203
201
204
203
201
198
203
195
203
187
188
192
197
192
196
197
220
220
218
201
223
220
184
165
150
153
174
195
183
194
182
218
239
248
198
188
196
186
178
173
178
173
