P2
# Face with average contibution
92 112
255
186
185
178
182
184
183
181
180
180
184
184
183
187
187
184
184
183
185
183
183
181
179
173
178
175
173
171
172
167
170
174
173
173
171
172
175
167
171
169
170
175
171
171
179
178
181
181
183
183
189
189
188
188
189
188
189
189
185
184
188
185
184
182
185
190
191
196
195
195
193
195
197
189
181
186
182
186
189
187
190
189
193
192
193
190
191
194
194
193
196
195
194
185
182
181
183
180
179
180
182
183
183
184
185
183
184
186
190
183
183
180
180
181
178
171
173
170
167
167
166
171
169
173
172
174
171
172
178
173
171
172
169
168
171
171
176
177
185
182
181
185
185
182
186
193
189
187
188
190
181
181
181
181
184
181
187
183
190
188
196
195
196
193
198
191
188
185
181
181
189
189
190
190
190
194
191
195
193
196
194
195
196
195
195
183
179
178
179
179
181
179
185
183
184
179
185
185
185
185
184
184
182
181
183
180
180
174
170
168
166
170
170
171
173
175
169
173
173
170
174
173
173
179
168
166
171
174
176
178
186
185
181
185
186
182
180
188
186
179
187
190
185
179
176
177
181
179
185
182
186
185
186
195
196
195
193
191
189
189
183
182
187
188
192
188
191
191
192
188
193
197
197
193
194
196
197
182
178
179
178
179
181
181
184
183
181
181
187
185
183
181
183
187
185
181
183
177
181
179
177
173
176
172
173
173
175
175
175
172
170
172
175
170
171
178
176
169
174
179
181
181
188
189
184
187
190
191
191
187
182
180
182
188
186
186
179
177
177
181
181
182
189
187
182
188
191
196
185
192
190
187
186
184
185
188
193
188
189
191
193
189
189
195
194
195
195
195
196
183
179
178
180
179
181
181
184
180
183
182
188
183
185
184
186
189
187
183
180
178
181
176
180
181
182
176
174
180
176
174
172
170
168
173
174
175
171
179
178
174
176
182
187
187
188
192
192
191
192
192
195
191
190
184
183
188
189
188
186
179
177
182
182
182
184
184
187
186
187
190
187
186
192
189
184
188
186
182
190
189
189
191
190
191
189
192
195
192
196
194
195
182
180
178
180
180
178
180
179
177
183
187
186
181
185
188
186
185
180
178
178
182
180
180
183
186
184
180
181
177
169
167
167
171
167
169
175
175
174
182
184
174
179
185
189
189
191
192
196
197
193
198
200
200
196
196
194
192
194
197
195
193
187
188
188
185
185
183
184
187
189
187
185
185
186
185
182
189
190
187
189
191
190
193
186
187
189
190
191
192
193
193
193
181
181
181
182
178
177
176
181
184
181
184
185
186
183
187
184
183
178
183
185
186
185
186
184
184
183
186
177
171
167
167
172
171
173
173
178
181
181
183
179
180
181
187
194
186
189
192
195
201
200
205
207
208
205
200
202
200
199
202
201
200
197
200
198
195
192
182
184
186
188
190
187
187
182
181
181
187
191
191
186
184
188
193
186
185
189
191
187
192
193
195
192
181
183
179
181
180
175
179
184
181
181
187
190
192
183
184
181
184
190
193
193
192
190
186
186
182
179
180
176
175
177
176
181
181
183
183
185
186
190
188
188
187
188
195
194
191
187
193
199
200
204
206
206
211
209
203
204
205
202
198
203
203
201
202
207
199
201
193
185
185
187
194
190
186
184
181
175
182
188
188
189
184
183
188
187
182
187
190
187
189
194
191
192
180
181
179
181
179
181
182
177
178
182
192
189
187
183
180
186
193
192
195
195
194
193
192
191
188
187
184
177
178
183
184
184
187
187
188
193
193
197
197
195
190
193
195
197
197
195
199
202
204
205
205
208
209
205
207
204
210
203
200
204
198
198
200
205
204
203
202
190
188
185
190
190
189
184
180
176
175
178
181
184
190
183
183
187
186
185
188
190
185
191
190
192
178
178
180
180
182
186
181
174
181
187
187
191
189
187
187
197
193
197
195
191
193
191
194
190
192
191
186
180
181
190
190
189
189
192
194
197
201
201
204
203
199
198
201
199
201
201
205
207
207
206
207
203
201
204
208
209
210
204
202
207
201
193
197
201
204
203
205
193
193
187
187
187
187
183
181
177
174
175
179
180
183
188
185
186
187
186
185
187
186
186
188
189
180
179
180
182
190
183
178
182
185
191
188
186
185
188
191
195
192
198
199
199
200
197
193
194
193
189
187
193
194
191
189
194
191
195
193
197
202
208
209
208
206
206
207
205
209
209
208
206
208
206
206
205
200
200
203
209
210
203
202
204
203
194
197
202
201
204
202
196
193
191
185
187
186
181
182
180
177
173
179
178
179
184
184
181
182
186
185
183
188
183
188
186
181
181
181
183
189
180
182
189
191
192
190
185
188
190
192
191
194
195
203
203
204
202
199
198
197
195
197
196
197
197
196
196
193
197
197
199
201
205
207
207
209
212
210
210
211
208
206
206
207
208
206
207
202
198
197
201
206
205
199
201
203
193
196
201
201
199
204
199
198
192
188
187
188
184
183
181
174
175
177
178
177
181
182
183
180
185
186
184
186
189
186
188
182
184
183
184
188
182
189
187
192
188
187
196
197
194
194
192
195
197
194
197
195
197
200
201
199
202
205
207
201
200
206
201
197
200
200
202
201
202
203
207
208
210
213
210
208
205
207
203
207
204
207
204
202
199
196
199
201
201
201
200
201
198
195
199
202
200
203
200
196
195
191
185
185
187
181
180
176
176
173
179
179
180
179
184
184
178
183
188
186
189
189
187
185
185
187
187
190
186
192
188
188
188
190
198
198
198
201
202
201
205
203
198
194
198
200
200
202
208
213
207
208
210
208
205
202
200
204
202
202
200
207
206
205
208
208
205
199
200
199
199
203
204
200
200
198
194
194
194
195
196
196
200
202
196
197
196
200
200
201
199
193
193
194
186
180
177
183
179
175
176
172
172
178
178
180
178
187
182
176
184
186
187
190
187
182
186
188
184
192
187
190
193
189
190
195
195
196
202
206
203
207
208
201
198
201
202
202
204
205
218
218
213
213
214
209
208
205
203
202
202
198
201
204
203
202
202
201
198
195
197
193
192
196
200
199
201
194
190
188
189
191
189
189
195
195
193
193
193
196
197
196
194
189
189
192
189
183
180
177
175
173
171
174
165
173
176
179
177
177
185
179
180
185
183
186
188
180
187
182
186
190
188
186
193
185
187
195
198
198
202
206
209
208
204
197
199
199
202
203
206
210
217
217
213
215
211
204
202
199
199
200
198
195
199
197
198
196
196
195
195
192
191
193
191
193
195
196
193
192
188
186
184
186
181
182
185
188
183
184
189
188
192
194
191
188
182
186
187
181
179
177
169
172
170
169
167
163
172
178
175
172
180
181
183
182
184
182
185
182
186
181
189
187
186
188
187
188
195
194
194
192
194
201
200
199
200
200
199
201
206
206
208
212
217
215
213
209
205
201
199
197
196
195
192
192
192
192
194
190
189
194
192
189
189
190
191
193
192
189
186
186
186
184
185
183
178
178
184
184
175
177
181
181
184
187
186
185
180
181
186
179
179
175
168
165
166
167
166
164
169
176
179
174
179
181
181
183
182
182
180
180
180
181
184
192
191
193
190
198
197
192
191
192
194
199
188
193
196
197
198
203
205
204
209
215
213
210
212
208
203
199
195
191
189
191
188
190
191
189
191
185
185
188
188
187
186
188
189
188
188
186
184
186
186
184
184
185
180
178
180
178
170
167
172
175
178
180
184
183
176
178
182
181
176
177
170
161
162
165
163
166
165
171
174
174
178
181
179
180
181
180
180
177
178
183
186
193
193
193
195
198
185
189
190
190
194
187
184
189
195
199
201
205
205
203
209
210
208
208
205
201
198
193
188
186
185
185
184
186
186
185
181
182
180
182
183
181
183
182
181
180
181
179
179
183
179
180
180
177
172
172
170
169
161
162
167
168
175
174
180
181
175
172
173
178
173
171
170
162
158
165
162
166
166
165
170
172
176
179
179
182
183
179
180
180
180
180
188
189
190
191
190
185
180
183
186
186
189
183
186
194
197
197
202
207
201
207
206
203
201
201
197
195
193
189
186
185
184
183
183
181
183
182
177
180
179
179
179
177
179
177
179
179
179
174
177
176
174
174
172
170
167
164
166
162
159
161
168
165
171
173
177
178
175
168
167
169
168
166
167
162
155
160
161
161
168
167
165
170
175
177
179
181
182
179
179
182
178
182
194
184
185
192
192
188
183
183
185
184
186
187
187
194
192
199
201
203
203
202
200
198
194
195
191
189
187
186
183
180
180
178
178
178
176
176
174
175
173
174
173
176
174
174
174
175
177
173
175
173
168
169
168
168
166
161
161
156
159
159
159
168
169
168
174
178
172
169
164
162
164
164
163
164
157
154
163
159
163
170
163
164
172
179
177
180
181
181
180
179
179
184
192
181
186
196
188
180
182
180
183
186
190
190
190
192
195
203
203
201
203
199
195
193
190
191
189
186
182
182
180
179
175
176
178
177
176
174
175
174
173
171
172
175
174
173
172
173
174
173
172
168
169
167
168
168
165
163
161
160
155
156
155
163
165
167
169
176
172
169
168
163
161
163
160
157
157
153
158
156
157
172
165
161
166
178
179
181
183
182
185
176
182
178
182
184
188
190
183
179
182
183
188
191
191
191
189
194
201
204
202
201
201
193
189
191
187
187
186
183
181
180
179
177
176
176
178
178
174
175
174
173
173
171
171
172
172
171
169
172
172
169
169
166
165
162
163
165
161
163
162
160
157
154
156
160
158
164
166
172
171
164
165
163
159
159
159
153
151
149
148
151
149
160
162
163
164
172
178
175
184
183
186
175
178
175
181
184
184
184
184
180
181
188
193
193
189
189
193
197
202
200
199
196
196
192
187
188
187
185
183
182
181
178
178
176
175
176
176
175
175
174
175
173
171
172
171
172
172
172
170
170
170
167
166
165
163
162
162
162
161
165
165
163
160
157
154
155
154
154
167
170
169
164
162
163
157
154
157
151
149
144
143
148
143
155
156
162
168
167
177
177
182
182
187
171
171
179
182
181
190
191
186
178
184
191
192
188
185
190
198
201
198
197
195
192
190
189
185
184
182
185
180
179
179
177
176
176
175
176
177
174
173
171
171
171
172
170
173
171
171
171
170
167
167
166
165
163
161
165
163
162
165
165
167
167
163
158
154
154
152
150
160
167
167
163
161
159
156
149
153
150
149
141
144
144
145
150
154
156
170
168
174
181
182
183
184
169
177
179
182
187
190
188
178
175
190
189
183
182
182
196
199
200
196
193
189
187
186
183
182
180
181
180
177
176
176
176
174
174
173
175
175
172
174
173
172
171
172
172
171
170
169
170
169
168
169
167
167
164
164
166
165
164
166
164
165
166
164
159
156
151
154
150
154
164
163
161
158
159
158
145
150
149
148
143
139
142
143
146
152
152
164
167
170
181
185
185
181
174
175
184
183
191
188
182
176
183
189
184
185
183
186
199
195
193
190
187
184
181
181
179
179
176
177
177
176
175
173
176
175
174
175
175
176
173
176
175
174
175
174
174
173
170
170
170
169
168
168
167
168
168
165
166
165
166
166
165
164
164
163
161
157
154
153
150
155
159
161
157
154
156
159
149
147
149
144
143
138
141
142
147
149
150
163
169
169
177
181
186
181
174
175
188
185
191
185
180
177
186
184
185
187
184
187
194
191
185
184
182
182
177
177
177
175
176
174
176
175
173
175
174
176
175
174
173
175
173
173
175
175
175
175
175
174
171
171
171
173
169
167
168
168
166
162
163
163
163
166
166
163
164
162
160
158
155
155
149
154
159
159
154
151
152
154
155
145
149
145
138
137
139
140
148
150
143
161
169
171
178
182
185
182
176
174
187
183
191
186
183
172
184
182
183
190
178
187
188
185
182
182
180
181
176
173
176
175
174
173
174
174
173
173
175
175
173
175
173
173
173
171
174
175
174
174
176
175
173
172
172
173
170
169
169
168
165
162
161
157
156
158
160
160
161
161
158
160
154
156
150
148
153
155
150
151
152
150
153
151
146
147
138
134
138
139
147
149
145
152
165
171
180
184
181
183
176
178
183
184
190
184
180
169
188
183
183
185
179
186
187
182
180
184
180
178
176
176
174
173
172
171
173
172
172
171
171
174
173
173
174
173
174
170
175
176
175
175
176
176
175
176
172
174
172
168
170
165
163
162
155
152
150
152
154
154
156
155
158
157
155
153
149
146
151
151
144
148
153
151
149
153
146
143
141
134
137
137
139
140
144
148
163
170
177
182
181
180
174
183
182
182
192
179
174
176
185
185
183
178
181
185
183
183
181
182
181
178
178
176
174
172
169
168
172
172
169
172
169
172
173
172
168
171
172
170
175
177
175
174
177
176
176
175
173
174
171
169
168
163
160
158
149
149
147
150
150
150
152
151
153
152
152
151
148
148
151
148
142
144
150
151
150
152
151
143
143
134
134
136
140
134
138
144
159
165
178
181
178
182
174
186
183
181
187
178
177
177
184
184
177
177
177
184
184
184
183
180
182
179
179
176
172
170
166
166
170
167
167
165
167
167
166
168
165
165
168
169
175
178
175
173
176
177
175
175
174
172
170
168
167
161
156
153
148
151
151
152
152
150
154
153
152
152
150
152
148
145
149
149
145
143
148
148
153
148
153
146
144
139
133
138
143
136
134
138
152
163
179
176
177
181
175
191
184
176
183
178
176
184
184
182
176
175
176
184
187
186
182
180
181
179
178
172
171
169
165
165
167
165
164
159
162
160
160
161
162
162
165
167
173
176
176
173
176
177
175
174
173
170
169
167
166
163
158
159
157
157
157
156
154
153
156
155
156
153
151
151
149
144
147
150
146
145
146
148
152
151
152
153
147
141
134
135
140
142
136
135
151
167
176
171
177
179
183
191
180
169
185
178
177
188
185
182
178
175
179
186
188
187
182
181
182
180
175
171
170
170
168
165
169
163
158
156
156
155
157
159
160
162
165
168
170
176
177
177
175
174
174
172
169
170
169
170
168
166
162
161
157
159
158
158
156
154
159
158
158
156
155
152
149
147
147
149
146
146
149
150
152
154
152
153
151
146
138
132
134
141
144
139
149
167
179
176
173
180
185
182
171
170
182
180
181
185
186
180
178
173
181
183
187
184
181
180
178
172
168
166
168
170
164
166
168
167
164
159
160
162
158
160
161
159
165
166
174
175
179
182
180
179
180
178
176
174
176
178
176
167
162
158
153
156
156
160
158
154
155
155
153
154
154
152
149
149
148
147
147
147
151
155
156
160
157
156
154
153
143
135
135
137
145
145
150
159
176
179
175
185
180
172
168
170
175
184
181
182
180
182
179
174
179
179
185
180
180
180
171
165
165
162
164
164
161
161
158
159
157
156
156
158
158
160
161
163
165
167
170
173
179
180
181
178
180
178
175
173
173
177
174
171
165
163
156
159
162
162
159
156
153
149
149
147
146
147
147
147
146
151
151
151
154
156
161
162
164
161
159
155
153
139
136
136
145
149
153
158
168
179
183
182
169
163
163
168
177
182
177
176
176
179
178
174
182
178
184
183
183
175
164
162
162
161
164
167
167
167
164
162
158
158
160
160
159
163
161
164
171
177
175
181
183
182
181
177
179
181
176
176
176
177
174
170
165
162
158
157
155
153
149
149
150
150
149
148
142
141
142
146
147
154
155
158
158
158
159
163
163
162
164
154
157
146
137
139
145
152
153
155
165
177
182
175
163
161
165
168
173
181
170
171
174
176
173
173
182
183
181
181
180
167
165
164
168
169
173
174
174
175
176
174
169
168
169
173
169
173
173
170
181
184
183
183
189
188
183
183
180
179
176
176
176
175
171
168
166
170
167
158
159
156
154
153
155
152
153
152
151
151
149
147
150
158
158
160
160
157
158
158
159
158
160
155
157
152
138
137
148
153
151
156
161
172
181
178
161
168
166
167
170
178
168
172
170
176
170
174
180
175
176
182
172
165
167
165
172
176
177
174
176
174
174
175
169
172
170
177
179
179
179
172
180
181
180
179
183
185
184
180
177
176
171
174
174
171
173
171
171
174
172
166
165
157
160
164
161
158
163
155
162
167
165
158
153
155
161
164
162
160
160
157
154
152
151
153
153
154
136
129
145
155
154
160
164
170
179
179
166
174
170
161
170
172
168
168
170
172
174
171
177
172
173
177
167
166
167
167
174
174
176
174
171
175
174
184
179
180
177
182
187
187
188
178
179
180
181
184
183
183
183
177
174
172
172
174
173
170
172
169
165
166
163
160
153
155
162
166
173
159
178
159
165
172
171
172
158
161
161
169
167
171
165
163
160
154
153
149
153
160
141
127
142
160
158
165
166
171
178
176
164
178
168
165
171
177
171
161
172
175
172
173
176
169
173
174
168
166
168
174
181
178
178
170
170
173
180
193
179
181
192
175
186
186
193
185
174
186
186
184
190
181
180
169
170
171
170
170
171
169
168
168
164
159
151
151
158
157
155
160
169
162
161
157
167
169
181
177
163
160
164
170
177
174
174
169
170
164
158
156
155
166
152
133
146
159
164
167
175
173
175
172
168
170
169
162
169
183
173
163
174
175
174
180
176
167
174
177
168
162
172
179
184
178
166
164
163
178
186
190
175
174
192
182
189
192
199
199
190
192
197
193
199
187
187
169
174
174
171
166
167
171
168
168
168
150
148
153
162
158
158
168
172
168
168
166
176
178
192
195
181
172
182
184
191
184
186
182
178
176
164
160
159
171
163
151
147
162
162
167
179
180
168
172
166
165
166
159
173
181
174
173
177
175
172
185
176
169
177
180
175
170
182
185
187
181
181
181
173
191
180
180
186
186
187
191
195
201
209
204
197
196
195
191
193
192
188
178
183
179
175
167
170
167
162
158
159
151
146
149
149
151
157
169
174
180
180
175
178
179
186
197
190
181
182
192
194
191
192
192
185
185
170
161
162
170
171
165
152
157
160
169
184
184
166
172
166
164
163
156
171
182
180
177
176
167
164
175
179
176
179
176
173
173
171
174
179
167
174
162
172
178
178
179
187
191
193
193
205
201
210
198
189
190
187
186
187
188
185
186
187
182
183
175
171
165
162
158
157
160
154
151
153
153
155
167
174
171
171
172
173
175
183
187
185
188
185
194
197
199
192
193
184
187
174
160
160
164
166
171
171
151
158
169
187
186
168
176
163
163
157
159
165
182
180
173
177
161
161
183
176
174
173
179
174
174
170
171
179
163
169
153
172
176
173
184
189
183
199
195
193
201
204
192
192
205
202
203
200
204
192
200
196
189
185
174
173
165
160
155
153
153
158
155
152
148
158
165
173
168
165
176
173
177
183
182
181
185
189
194
185
191
193
190
178
185
175
165
162
160
164
159
176
161
157
168
184
189
175
181
160
146
147
155
161
176
179
172
182
159
170
171
166
174
173
169
171
168
172
171
173
171
163
158
167
171
172
180
189
185
187
194
194
205
204
190
196
200
202
203
209
203
194
200
202
192
192
181
179
172
165
160
158
151
154
166
154
148
158
161
170
173
165
180
174
179
185
185
186
180
177
193
193
188
190
194
182
177
175
173
167
161
162
163
173
169
163
158
184
190
182
190
153
142
138
150
158
172
171
175
177
165
163
170
170
174
174
170
165
170
173
178
180
170
161
157
161
169
185
181
195
197
192
192
205
203
199
192
207
205
203
198
210
208
191
186
188
184
183
170
175
172
177
168
170
164
166
170
164
164
172
175
179
174
173
180
178
180
185
190
196
181
183
188
195
193
190
195
192
181
183
185
176
166
164
165
176
173
167
161
185
191
185
194
154
146
147
148
146
163
170
176
178
172
168
177
170
172
171
171
165
171
175
182
178
166
170
174
170
182
200
193
201
207
207
202
204
206
193
193
215
215
213
213
207
213
199
185
189
190
182
174
174
176
180
169
173
166
170
186
165
170
176
182
183
180
176
179
183
185
190
198
203
206
204
205
204
196
192
202
201
196
189
190
182
167
167
167
177
177
164
170
182
194
185
197
150
158
160
146
143
147
168
167
183
170
171
181
176
179
175
172
169
171
176
182
178
170
169
181
191
179
192
199
199
206
210
204
202
204
190
200
216
219
224
221
215
215
211
191
190
192
186
178
184
179
176
170
173
174
167
169
174
182
175
183
181
187
187
183
187
193
199
198
201
209
206
205
203
192
191
210
210
211
196
188
182
164
167
162
173
180
170
175
191
188
189
195
147
165
165
150
142
153
170
180
173
167
166
179
182
192
193
179
178
175
191
183
179
171
176
177
184
179
189
200
199
207
209
208
208
204
197
204
207
216
223
216
214
219
223
200
195
195
193
192
191
183
180
172
168
184
167
169
178
185
180
187
189
189
192
192
193
196
198
204
203
210
209
210
206
194
193
201
206
209
201
187
183
161
162
162
169
182
175
175
192
192
186
193
152
156
156
145
143
140
159
184
173
162
164
173
185
197
197
182
181
179
190
186
185
183
184
178
181
186
191
199
208
217
217
215
209
204
210
208
210
213
217
216
211
223
222
207
197
187
188
190
183
186
185
183
177
186
180
181
179
187
188
192
192
189
194
196
198
200
203
211
212
211
217
218
212
207
201
203
202
206
205
187
181
169
164
163
168
177
178
179
193
208
182
190
153
143
148
142
142
131
143
170
172
163
168
182
187
201
198
185
188
190
190
187
195
199
205
191
190
189
188
195
206
212
213
219
213
217
218
218
215
219
222
222
217
228
214
210
202
194
186
190
188
193
190
192
201
200
194
197
194
203
198
192
195
202
207
208
210
208
208
206
217
213
222
226
222
210
205
211
203
206
206
189
184
165
167
166
167
179
176
183
189
214
184
182
149
143
152
149
151
136
144
161
168
159
172
188
185
199
201
182
190
196
192
192
192
199
208
199
194
190
193
200
203
211
216
219
215
224
223
223
224
228
230
228
230
234
219
212
200
198
179
192
194
199
199
192
202
209
201
199
203
207
201
198
199
212
216
216
215
212
213
217
218
222
217
225
225
214
205
210
206
203
203
189
187
172
167
163
169
174
180
184
190
213
180
184
153
151
162
156
150
146
145
158
172
159
171
190
188
201
210
188
193
198
195
195
194
197
197
197
193
183
195
200
204
214
217
212
216
223
223
222
223
229
225
228
234
225
210
201
197
193
190
187
190
194
199
190
202
203
202
201
210
208
200
203
205
214
218
217
214
202
209
218
221
223
215
222
222
218
216
211
201
204
199
189
189
175
167
166
168
177
179
185
193
213
179
192
158
159
165
165
150
150
147
158
173
163
172
185
195
200
207
192
198
202
202
198
200
199
202
200
199
191
196
204
211
218
217
216
222
224
225
221
221
226
227
232
233
220
202
194
195
191
200
196
185
193
202
198
201
201
200
206
217
217
212
212
212
219
222
221
219
212
209
213
217
215
214
217
214
213
215
211
196
198
192
184
178
171
159
169
167
182
183
188
195
212
178
196
159
162
159
165
150
151
152
154
172
164
173
186
196
200
206
187
196
203
203
200
202
198
199
201
201
200
203
207
211
216
209
226
223
225
227
224
225
221
231
235
238
214
197
197
200
198
197
197
189
188
203
196
204
206
195
204
212
220
216
215
216
221
224
222
220
216
211
211
212
217
212
214
211
211
211
207
196
192
182
172
170
167
154
169
172
181
183
183
201
204
175
199
156
157
154
161
159
154
155
153
171
161
177
186
197
203
210
187
198
199
203
201
203
205
202
203
202
204
206
205
206
206
212
221
218
220
223
220
224
222
230
235
227
213
204
202
202
199
197
196
193
189
197
191
204
212
202
200
208
217
219
213
212
216
220
218
212
208
211
204
205
206
213
208
207
209
209
204
193
187
176
168
166
163
154
170
172
173
194
179
202
196
179
199
148
155
164
163
166
166
164
164
174
166
174
188
196
202
211
193
193
200
204
206
211
211
208
203
201
202
202
200
200
208
215
213
211
211
211
212
212
220
231
221
212
203
199
195
196
193
197
193
191
188
198
197
203
213
209
203
208
214
217
214
208
211
217
217
214
212
213
209
202
204
208
209
207
207
206
203
192
180
173
169
166
160
158
170
169
176
199
181
193
188
183
196
145
157
172
159
160
167
168
172
181
176
169
185
194
201
204
201
194
200
205
209
208
207
209
198
196
198
194
200
210
213
218
208
205
204
209
205
207
215
216
213
201
195
190
189
186
186
187
188
188
187
192
190
200
206
206
197
205
212
211
214
206
206
215
211
212
210
208
203
201
203
203
202
200
201
202
197
193
184
173
166
167
155
160
163
171
182
193
186
191
184
185
196
142
160
173
158
139
161
172
178
181
180
171
178
191
205
202
203
195
202
206
207
208
207
203
196
191
194
200
206
212
211
208
205
203
200
207
205
215
208
215
206
199
194
188
180
174
179
175
178
182
183
189
187
197
199
210
197
197
202
204
209
207
202
203
209
207
209
210
202
202
202
200
199
199
200
201
193
190
182
172
164
162
155
158
167
166
186
181
183
177
186
188
203
138
163
170
160
141
156
174
178
181
173
173
181
191
202
203
203
199
202
203
205
206
203
202
201
202
199
199
206
209
209
204
201
197
199
202
206
203
206
205
197
191
190
184
173
169
168
168
169
173
181
180
181
196
191
199
195
196
199
201
204
209
209
207
208
209
207
207
205
202
199
199
199
198
199
195
188
184
177
169
161
156
155
163
165
164
183
176
181
175
181
193
207
143
162
164
163
151
163
177
179
181
175
164
182
197
200
203
201
207
202
207
207
207
200
201
200
202
198
196
198
201
201
200
198
198
204
201
195
199
201
194
185
184
178
177
172
168
168
170
171
175
181
173
174
192
193
191
198
194
197
195
198
200
202
209
210
211
208
201
203
201
199
197
197
195
196
191
186
180
173
168
159
155
157
163
164
171
169
176
176
181
182
191
209
152
160
161
168
158
173
181
178
182
175
167
170
192
207
203
197
201
202
203
206
203
197
197
198
199
199
199
201
200
204
206
201
203
199
192
196
196
196
187
184
180
170
182
173
168
168
169
172
175
180
181
179
188
194
195
195
202
195
197
196
198
202
206
209
214
209
203
200
200
200
200
199
195
194
197
186
178
171
166
156
154
162
167
165
172
164
171
176
185
182
194
209
164
161
163
172
165
179
187
178
181
179
175
166
180
194
202
207
199
202
201
200
193
192
191
195
198
197
201
204
210
214
212
202
196
194
192
190
191
195
189
185
175
178
185
168
166
169
166
171
173
179
188
191
194
196
197
192
206
203
198
197
198
202
204
206
208
211
205
201
201
197
200
199
191
189
191
184
175
168
165
150
153
163
163
165
168
169
171
180
177
175
192
201
166
158
173
175
169
180
194
179
184
180
173
165
176
189
193
198
207
207
203
202
199
192
191
195
201
202
210
210
215
212
210
204
201
196
193
193
195
194
188
185
184
186
187
165
164
168
169
171
175
177
189
194
199
195
193
193
198
207
201
195
201
204
199
203
203
203
202
203
199
192
193
195
187
183
182
180
170
163
163
151
151
158
163
172
165
167
173
182
172
180
189
199
168
161
167
177
164
177
194
179
181
177
172
166
172
187
190
194
199
200
198
201
205
205
203
201
201
204
206
212
214
214
212
208
202
199
193
195
193
190
188
185
187
185
187
166
168
168
172
174
177
178
185
193
194
194
191
191
197
202
204
197
197
205
198
200
201
200
197
195
194
191
189
192
187
183
180
179
169
163
164
154
149
153
168
161
170
165
173
179
171
189
191
207
168
159
164
178
164
173
192
175
180
174
172
167
168
183
189
192
199
198
198
203
205
203
202
195
196
200
202
208
209
208
205
199
191
192
188
189
190
192
188
191
189
183
191
170
176
173
176
183
185
185
184
181
187
190
190
194
200
204
198
200
210
202
194
196
201
199
195
195
190
189
187
187
183
180
177
173
167
165
169
157
149
162
158
156
171
164
176
176
181
194
188
198
163
158
166
172
163
172
187
177
176
175
175
177
169
179
189
191
195
196
200
203
203
198
196
195
190
190
195
199
201
200
198
189
192
189
183
186
189
196
192
190
184
184
189
180
172
177
176
179
180
181
181
178
179
188
189
196
201
203
201
205
201
201
196
194
197
198
192
193
189
185
186
182
182
177
176
170
165
168
166
153
156
162
159
160
170
165
179
180
189
198
187
189
159
156
167
179
161
170
175
172
175
178
176
174
172
176
186
191
194
197
196
200
198
192
189
191
188
182
188
193
195
193
190
186
190
186
188
191
191
197
196
191
186
184
179
180
169
168
173
171
169
172
174
178
173
182
190
194
195
202
198
205
197
191
196
196
199
199
191
190
190
187
186
182
181
179
176
167
164
166
172
155
158
160
161
168
174
181
185
187
200
193
186
187
157
159
161
190
163
171
173
162
166
178
171
175
170
177
188
191
196
194
198
198
199
193
189
188
186
183
186
185
187
189
184
186
186
188
189
187
188
190
188
183
186
179
173
172
171
166
169
172
163
165
171
180
185
185
196
195
194
198
198
198
191
189
194
193
195
199
200
200
200
197
190
187
184
186
179
172
173
170
166
156
161
161
162
172
178
187
181
197
202
188
184
190
157
159
156
193
169
176
177
161
163
176
173
169
168
180
187
191
194
194
197
198
200
195
192
192
188
183
186
183
183
180
179
179
182
186
186
181
182
186
183
184
184
178
168
169
165
157
169
178
166
162
173
184
195
193
188
193
189
190
196
196
186
184
190
195
197
199
196
200
202
199
194
188
187
183
174
175
173
167
166
157
160
159
166
173
178
183
182
198
192
189
189
189
159
156
155
177
179
178
181
163
165
175
178
170
164
179
186
190
193
194
198
196
197
193
195
195
186
183
183
187
185
181
176
178
178
180
184
176
178
180
178
183
181
170
167
161
159
155
172
181
177
177
179
189
197
193
186
191
186
187
190
193
191
184
191
194
200
202
202
203
204
200
194
191
187
183
178
177
176
170
167
156
160
160
165
173
176
180
184
191
182
187
188
189
157
159
160
163
183
184
189
165
168
173
176
173
165
176
187
187
189
192
199
193
192
190
192
195
186
182
182
186
183
181
179
178
173
170
177
178
176
176
176
175
173
165
160
158
162
168
177
185
181
179
181
182
188
186
185
187
188
188
187
192
190
188
193
192
192
200
202
199
203
200
197
192
188
183
178
179
175
170
165
153
159
163
169
169
181
183
186
182
182
185
186
187
156
163
165
160
184
189
188
170
176
176
176
172
168
171
186
184
188
189
196
194
194
190
191
190
184
182
178
180
176
181
177
176
171
164
166
172
170
167
166
164
162
164
159
156
165
172
181
187
183
182
183
179
181
181
183
189
184
188
189
189
188
188
189
188
187
195
201
196
198
197
196
191
189
184
177
178
174
173
162
155
162
164
170
175
186
187
185
180
181
185
181
185
154
159
169
162
175
192
188
174
179
182
179
177
175
171
181
185
187
190
195
196
192
189
192
187
183
179
176
177
176
178
178
173
164
165
169
166
166
163
166
172
169
170
176
175
175
177
186
193
189
186
186
183
177
175
176
185
185
189
196
188
185
184
181
183
182
190
196
194
195
193
195
189
187
187
178
176
173
173
162
155
160
163
169
182
190
186
181
179
179
185
181
188
153
155
168
166
167
188
191
175
179
179
180
182
179
172
181
184
184
188
194
193
191
189
193
192
183
178
174
175
178
174
175
169
165
167
168
164
172
173
176
177
178
173
180
182
182
183
187
189
198
189
186
183
177
171
172
182
182
186
196
190
184
184
181
178
180
190
192
192
192
191
192
190
188
184
181
180
173
175
163
156
164
161
167
181
180
183
185
175
181
186
183
195
155
157
161
170
170
177
195
180
185
181
177
178
179
174
176
181
182
183
192
190
191
193
197
196
188
179
177
173
178
181
180
177
169
173
172
176
184
178
182
177
181
179
182
193
188
189
191
189
192
193
192
188
188
183
180
184
188
183
192
194
189
186
185
183
180
187
189
187
187
192
191
190
190
183
181
185
179
175
165
158
169
164
169
178
177
185
180
176
182
186
183
196
154
160
158
167
170
172
189
182
186
182
176
175
179
176
171
176
184
183
191
190
190
197
195
194
191
183
180
178
185
184
185
176
171
175
180
186
191
183
179
187
191
190
193
201
203
206
200
201
196
197
194
195
197
194
191
190
190
187
188
194
191
194
191
183
179
181
184
187
186
189
194
187
191
182
181
181
181
176
164
160
172
165
171
177
176
186
176
178
182
187
184
186
158
158
163
163
166
167
178
169
186
182
175
170
175
175
167
174
181
180
190
187
189
198
195
195
193
187
184
187
191
190
185
180
180
173
178
180
183
178
180
193
197
198
205
208
215
213
209
207
200
202
199
197
205
200
200
196
189
190
188
189
192
196
196
188
180
180
183
189
187
190
193
189
190
183
181
183
183
176
164
164
171
166
171
174
178
186
175
177
184
186
186
179
161
164
162
163
168
167
166
165
179
180
171
168
170
170
167
173
179
182
188
189
189
199
198
197
196
192
189
195
192
194
188
186
180
171
173
170
172
182
188
191
198
211
219
215
222
215
215
209
200
201
204
206
209
206
201
194
186
197
195
196
194
198
197
193
189
181
184
191
192
193
195
189
192
185
180
184
180
176
166
170
170
164
170
174
176
181
179
179
185
187
186
179
159
164
164
166
172
168
161
170
171
173
164
161
160
164
162
171
177
183
189
192
191
194
200
196
199
192
190
196
193
194
190
188
180
174
169
171
173
182
199
201
203
212
230
218
221
217
216
210
200
202
200
202
206
200
202
196
193
199
196
199
202
203
199
197
192
191
187
194
192
194
194
193
193
189
180
183
180
171
168
172
167
161
171
169
177
178
180
183
187
184
184
179
159
157
164
169
178
171
168
173
170
167
156
150
152
153
159
167
174
180
188
192
195
195
203
195
195
193
187
193
190
189
188
186
182
183
179
186
194
195
204
212
212
213
219
210
209
210
212
211
204
199
197
196
200
200
207
206
199
200
194
199
211
210
208
199
194
197
194
197
195
194
200
196
195
192
179
176
179
165
166
170
163
158
168
167
175
181
182
186
185
183
182
177
157
152
160
169
172
175
170
177
169
170
157
146
143
147
153
166
170
179
187
194
193
192
200
195
194
194
189
185
185
185
182
181
182
186
185
186
193
194
195
205
208
208
209
201
197
200
209
210
204
204
205
200
203
205
211
206
203
213
210
209
216
210
217
207
196
195
199
200
196
198
202
197
195
192
182
176
172
161
163
166
160
157
167
168
175
183
186
193
184
182
181
176
154
155
156
162
167
176
176
177
174
171
163
144
141
144
147
164
167
178
187
194
189
188
191
185
185
182
190
187
182
179
177
175
180
187
183
184
183
181
179
182
189
192
195
194
189
188
198
198
197
198
203
199
204
205
206
205
214
219
216
214
225
216
214
208
196
193
199
201
199
197
204
195
196
189
183
173
169
160
165
164
157
158
169
173
178
184
191
192
187
184
181
175
157
155
156
155
161
173
179
173
174
172
173
150
142
143
147
157
169
177
186
189
188
187
182
178
177
172
179
189
192
185
184
180
182
187
186
188
184
184
182
180
183
185
179
181
183
185
184
189
192
194
194
193
203
206
204
205
210
219
215
214
223
218
208
207
202
198
198
200
200
198
201
194
190
186
182
172
167
159
167
161
153
163
169
178
182
186
192
190
189
185
181
176
165
158
155
153
156
167
174
170
176
172
175
158
146
145
147
153
172
177
185
187
189
186
181
179
174
173
176
183
185
183
187
189
181
188
189
196
188
190
191
188
188
192
193
192
193
192
192
188
192
192
194
195
200
209
211
208
213
215
217
213
215
214
210
212
209
201
193
191
199
199
199
191
186
182
175
173
162
163
165
157
154
164
173
182
185
187
193
190
193
187
177
172
162
164
158
155
159
164
166
160
169
177
172
163
149
146
148
151
170
176
184
188
191
189
187
183
180
179
178
181
185
182
185
193
190
189
187
198
187
191
194
195
196
200
206
203
202
200
203
200
203
204
202
202
203
206
208
205
211
213
213
212
211
214
208
211
205
204
192
190
194
198
199
189
182
181
171
164
161
164
163
156
154
167
178
183
184
191
192
188
196
190
171
172
161
162
161
159
161
162
156
158
160
169
164
163
152
148
148
152
164
177
180
182
190
190
187
187
187
181
179
180
183
184
185
192
196
193
192
198
188
190
193
198
201
205
206
208
205
201
206
202
202
204
203
202
202
200
201
201
205
211
208
210
208
209
206
206
200
199
193
193
197
197
196
186
182
181
169
160
162
163
157
153
160
174
182
185
186
193
194
187
197
192
171
172
163
163
166
164
162
156
151
158
160
164
163
153
156
146
147
156
161
170
178
179
187
184
188
187
182
184
185
180
180
186
186
193
195
198
200
201
197
193
196
199
202
204
206
209
212
207
209
204
204
202
205
208
209
207
208
211
208
208
205
202
203
203
204
203
197
192
193
189
196
194
188
182
180
174
167
161
160
156
155
151
166
177
187
187
190
191
190
189
192
191
172
174
167
161
164
166
159
151
156
159
160
169
167
151
156
152
148
153
160
164
172
180
185
182
184
186
183
180
187
181
179
184
188
191
193
200
199
200
200
199
205
203
204
204
204
201
201
201
204
204
203
204
210
207
207
204
203
201
197
195
196
198
199
201
204
201
193
189
191
187
185
183
176
173
177
168
167
161
158
155
151
155
171
182
189
190
195
192
189
188
189
191
174
175
172
164
170
167
154
151
158
166
169
174
170
153
159
160
148
154
163
163
171
173
181
181
182
184
183
180
181
183
179
181
185
190
189
194
195
196
200
200
203
200
201
205
201
199
198
202
201
202
203
202
203
199
200
198
203
198
198
199
199
200
206
205
203
197
189
185
184
185
180
173
171
166
172
165
169
162
152
154
154
162
178
186
192
196
198
195
189
186
189
199
175
174
177
167
171
164
155
153
160
168
172
177
167
153
159
161
155
161
163
161
168
167
173
179
179
184
187
184
181
180
182
183
185
186
187
189
191
195
198
201
198
195
198
200
197
197
197
200
200
201
201
202
199
198
203
201
202
203
203
203
204
202
205
199
194
189
184
182
179
181
178
170
168
166
167
167
164
155
155
155
157
171
181
191
194
200
199
197
191
183
192
204
181
171
179
169
165
160
160
158
164
167
169
175
168
149
155
158
164
169
162
161
162
165
170
177
181
179
188
187
188
184
184
185
188
186
185
186
188
194
199
201
194
200
201
195
194
198
195
204
198
201
200
197
196
197
200
197
200
204
199
200
198
196
196
191
189
186
181
178
180
182
176
166
169
167
168
169
159
151
154
165
162
177
187
192
196
201
202
196
194
182
193
206
185
172
177
170
160
157
160
162
165
162
167
174
166
147
151
166
169
167
162
158
162
167
165
173
181
179
184
193
191
192
188
188
194
191
186
185
189
195
200
205
202
207
207
203
199
199
196
205
201
201
198
195
194
199
200
203
199
201
197
195
194
195
193
186
186
185
183
178
179
181
175
166
167
166
170
165
157
154
157
168
176
185
194
198
198
196
201
201
193
184
196
203
189
183
174
165
157
158
161
166
166
163
170
173
162
149
154
169
164
163
162
158
159
170
169
169
178
180
183
188
193
195
191
192
194
192
192
193
192
199
199
208
209
213
211
209
212
209
209
212
213
212
206
205
204
207
206
209
200
201
199
193
198
193
189
185
184
182
179
177
176
177
170
165
166
169
170
160
158
157
164
165
193
197
201
205
200
197
199
205
197
187
197
200
191
194
171
165
158
159
162
168
167
164
169
172
162
153
165
160
159
166
161
157
158
170
177
169
173
178
183
186
191
195
197
193
193
192
194
203
203
205
208
212
215
215
214
217
218
219
217
215
215
213
211
212
209
206
207
205
199
199
199
193
195
190
186
184
180
181
179
178
175
175
167
164
170
167
167
161
160
163
166
176
195
209
206
207
205
202
198
202
204
189
196
198
193
202
172
165
159
162
162
169
166
165
170
175
160
159
166
158
158
161
159
156
153
168
183
176
170
176
180
188
190
192
192
192
194
191
193
202
208
204
208
213
214
210
213
216
214
217
212
212
209
208
211
211
201
206
204
201
198
198
199
191
188
186
184
185
174
178
177
175
175
170
166
166
167
168
167
161
163
169
173
190
203
212
215
211
208
203
200
198
203
191
198
204
195
199
171
164
162
161
163
168
167
167
170
175
163
161
166
161
151
155
155
158
154
162
182
183
172
172
178
184
189
191
189
193
193
193
190
200
204
201
207
212
212
208
212
213
214
212
210
209
206
202
206
204
197
203
200
200
196
196
190
187
184
183
184
184
175
170
178
174
174
168
167
164
166
170
171
166
166
176
186
198
209
217
220
218
212
206
203
200
196
193
207
207
193
200
171
166
161
162
166
169
170
169
169
173
166
160
164
159
150
146
152
158
157
156
177
182
178
173
173
186
186
189
190
191
191
188
185
195
196
197
203
202
206
205
211
212
212
209
206
207
203
199
198
202
199
198
199
198
194
193
185
185
185
181
181
176
170
167
171
168
173
172
167
162
165
174
174
170
173
192
197
201
213
225
221
221
211
213
210
203
194
190
215
209
193
201
171
171
160
164
168
169
173
170
174
177
167
160
162
157
150
144
150
155
161
156
173
178
181
174
174
181
186
190
190
190
192
188
187
192
195
195
199
197
198
200
203
206
209
209
201
203
201
200
198
202
199
196
199
196
193
187
183
183
180
177
178
170
164
167
164
164
170
174
167
162
168
179
179
173
188
206
202
205
220
225
225
224
209
215
216
212
199
196
221
213
202
206
172
171
162
165
169
172
176
174
176
176
166
162
160
156
147
148
151
153
158
160
170
175
181
177
174
179
180
189
187
188
186
185
186
191
192
190
194
195
191
194
198
205
205
209
203
202
200
200
203
206
197
198
198
190
192
186
183
181
173
172
169
161
162
164
163
165
173
173
170
166
175
180
183
191
201
212
201
210
222
225
227
227
215
214
219
214
200
200
221
212
202
211
171
172
161
167
178
176
180
179
179
177
167
160
164
154
146
153
158
144
167
169
169
176
177
183
174
179
181
187
184
184
186
182
186
184
190
190
189
193
191
192
196
201
200
202
198
201
198
195
201
201
189
195
192
189
184
182
182
177
172
166
166
163
157
161
169
171
171
176
172
175
179
189
200
206
204
213
207
212
225
225
226
227
222
215
216
216
204
205
220
202
197
210
175
174
165
176
183
179
184
180
177
173
170
161
166
149
144
159
162
155
168
161
168
173
178
185
181
186
180
182
183
181
185
182
181
183
188
187
189
189
185
194
193
195
198
197
193
196
192
190
192
194
185
187
185
183
176
177
181
175
169
161
165
161
159
161
172
173
177
182
175
183
190
202
207
211
208
208
214
217
226
222
226
227
227
219
211
210
202
213
220
206
198
212
179
178
172
179
182
174
179
176
177
171
167
164
162
151
142
159
175
165
158
155
169
172
184
190
190
194
184
179
181
178
182
179
179
182
183
181
186
186
185
187
191
192
192
192
191
193
188
186
188
189
182
179
180
177
173
171
174
167
166
163
165
160
160
165
175
178
184
184
183
190
199
208
208
211
208
206
231
222
227
220
225
231
226
227
212
209
203
217
215
205
196
208
185
180
170
179
180
173
182
173
177
169
164
166
158
148
145
170
181
158
160
153
166
173
189
193
196
193
195
174
178
179
179
174
181
180
183
181
185
182
182
180
188
186
187
188
189
188
182
186
181
181
183
174
175
170
172
169
166
166
164
164
166
159
165
166
180
186
187
189
192
198
206
212
207
214
206
204
232
244
227
223
227
232
228
230
215
205
212
220
218
206
198
204
183
177
174
185
179
177
180
175
176
164
164
170
151
147
161
183
170
158
159
158
159
176
192
196
195
198
196
181
170
176
177
171
179
176
180
179
180
181
176
176
180
179
180
182
184
183
176
182
176
175
178
174
168
167
170
165
162
168
166
166
165
166
169
168
185
189
189
195
197
210
213
211
209
211
204
206
223
245
243
228
225
235
231
230
221
204
218
221
217
206
203
205
185
182
179
186
180
181
178
178
175
165
170
166
150
158
175
178
164
158
155
159
162
177
193
194
194
198
196
189
175
167
174
176
172
168
172
177
178
178
178
176
175
174
176
178
177
176
174
175
172
172
172
172
169
165
169
165
164
172
168
167
169
170
175
174
187
197
192
201
210
219
216
209
211
210
201
212
228
237
247
247
221
232
235
229
221
209
227
226
222
212
207
209
185
179
180
182
188
178
182
180
169
168
172
157
154
173
169
171
164
161
155
158
165
183
188
194
194
197
197
194
184
169
173
177
172
170
167
170
173
175
177
179
174
173
174
174
174
172
170
170
168
167
167
168
168
164
166
167
170
175
171
173
176
177
180
181
193
203
196
219
222
220
213
209
210
207
205
212
230
236
240
251
233
231
233
228
221
215
229
222
222
213
212
213
185
182
186
190
192
183
187
181
165
172
164
156
164
171
162
166
163
161
161
155
161
190
188
188
194
196
198
196
188
175
176
178
173
171
170
167
168
169
176
177
174
175
173
172
170
170
168
168
165
163
165
167
168
166
170
177
179
174
174
179
182
186
187
191
204
206
209
226
229
215
209
209
208
205
211
212
234
238
241
242
240
239
235
225
220
223
222
224
225
212
211
219
191
184
191
189
193
187
188
174
168
167
154
175
166
163
162
161
163
164
168
158
164
188
189
188
188
197
201
194
194
180
178
184
178
172
169
168
169
170
172
174
170
172
171
175
171
169
166
167
167
168
173
174
173
176
180
178
177
179
182
186
189
193
196
203
210
213
219
223
229
215
207
207
206
206
216
214
235
236
245
241
243
244
244
222
221
225
216
228
227
211
209
218
192
186
193
186
199
189
184
167
161
159
172
184
164
163
162
159
161
167
174
167
169
183
186
189
190
192
193
196
200
186
184
187
183
177
169
170
170
173
175
175
172
170
173
175
173
169
174
175
174
179
184
185
186
183
181
182
184
190
192
194
197
200
204
211
219
215
218
221
223
218
205
203
204
208
219
216
230
239
247
246
245
240
255
227
229
225
212
228
229
212
210
212
190
195
192
194
201
184
177
165
168
169
182
187
166
168
165
167
164
174
183
169
171
183
183
189
190
190
192
192
195
195
189
193
189
187
177
176
176
176
176
179
179
173
182
180
174
177
180
182
182
188
189
193
186
185
186
186
192
194
198
201
201
206
208
216
219
216
212
220
219
216
202
200
205
211
220
225
229
239
246
246
250
246
247
247
228
226
218
225
229
216
216
210
