P2
# Face with average contibution
92 112
255
175
183
179
181
180
184
185
187
190
186
185
182
191
190
186
181
196
207
207
210
207
201
208
198
192
184
185
177
166
165
173
177
173
171
165
172
168
173
167
159
168
157
157
161
157
167
153
154
153
161
162
166
173
174
166
174
172
171
172
187
181
181
175
185
182
187
182
176
180
180
182
182
185
176
180
186
182
187
187
182
182
185
178
177
175
175
175
178
181
177
180
177
178
181
180
181
185
184
185
190
187
183
179
183
190
191
188
192
203
210
205
200
199
198
191
182
170
171
165
168
173
167
169
169
177
170
168
174
171
168
177
164
165
167
161
175
167
177
166
162
164
157
166
170
184
176
170
171
178
173
173
181
184
180
178
184
184
186
192
181
186
183
183
183
186
185
184
179
178
184
189
184
180
188
184
180
177
175
176
178
176
177
180
178
181
180
182
183
189
184
185
183
184
183
180
185
192
191
194
205
206
200
190
186
193
187
183
169
169
161
161
166
172
175
181
172
177
176
177
181
172
175
189
172
167
177
172
183
181
182
180
176
176
173
171
179
182
172
168
178
181
170
175
184
186
184
176
182
180
189
190
189
192
181
178
179
183
182
187
184
181
182
186
192
186
184
188
183
183
176
175
179
177
177
178
179
178
181
183
186
185
185
184
186
181
178
180
190
193
196
201
206
200
194
186
187
188
183
178
164
164
163
167
167
174
177
184
176
177
179
183
187
180
185
193
187
177
179
182
186
181
183
186
183
181
178
181
182
178
173
174
178
182
185
180
177
179
176
179
179
179
187
186
191
192
188
184
188
177
177
187
189
187
178
183
188
186
188
186
184
180
182
178
177
178
175
180
179
176
183
185
186
184
184
184
185
179
174
186
195
199
208
203
203
193
195
184
182
165
165
164
170
176
177
174
174
186
178
189
188
184
182
190
189
189
186
197
192
184
184
192
192
186
183
183
185
183
183
182
182
185
183
177
180
184
181
181
179
180
180
188
188
186
185
193
185
190
195
195
196
192
185
179
188
188
180
180
184
185
192
184
183
180
182
178
178
177
178
178
180
179
184
184
184
181
181
186
183
180
182
200
202
205
208
198
194
188
184
172
159
156
157
160
167
174
183
194
188
185
188
193
188
193
195
189
191
192
190
196
198
188
195
197
197
188
183
186
189
187
184
184
181
188
194
183
187
181
182
186
178
178
181
187
193
197
192
188
185
195
204
201
200
199
194
188
185
186
188
184
184
182
190
187
186
182
181
181
181
176
177
179
180
185
180
184
183
179
182
185
183
183
196
208
207
197
198
186
187
178
168
166
167
166
168
165
172
172
187
193
188
185
184
190
186
195
193
193
194
195
192
199
193
193
196
195
194
193
185
198
194
187
184
184
193
190
191
189
192
184
178
186
184
181
181
186
189
185
194
187
185
196
200
201
203
203
199
191
186
186
191
193
180
183
187
190
185
189
181
181
182
178
175
179
178
182
178
179
184
179
181
182
188
195
200
200
195
193
191
179
174
165
167
176
172
182
179
167
176
172
180
180
180
184
186
187
191
200
195
191
199
202
201
195
188
189
190
198
201
194
187
200
203
194
189
189
193
201
191
183
189
189
180
180
181
181
179
186
185
181
186
188
192
191
191
199
204
199
198
198
196
184
192
197
191
184
184
185
183
191
187
180
181
183
177
177
180
180
183
184
184
184
180
191
194
199
197
189
192
188
185
178
162
162
171
175
179
183
172
172
177
173
171
171
173
183
190
187
184
192
190
193
194
190
187
192
184
188
182
186
189
186
186
195
195
188
187
190
188
193
189
187
184
184
180
187
187
181
180
181
184
179
190
184
190
188
185
198
201
201
200
197
202
196
197
190
195
192
186
187
180
187
186
181
180
184
182
178
178
179
182
188
183
183
188
197
196
199
195
188
190
187
175
166
161
171
175
178
187
183
173
174
173
171
166
173
170
179
178
185
187
185
187
185
180
183
181
192
182
182
173
182
178
186
181
187
192
187
188
185
186
189
181
185
191
177
181
187
191
192
181
183
187
183
181
189
183
185
193
193
196
202
206
202
207
202
199
190
196
198
197
189
184
187
180
181
185
185
184
180
180
182
184
191
186
188
195
198
202
202
195
183
181
165
160
162
168
177
175
178
180
182
167
173
181
176
172
162
169
175
168
172
180
178
180
179
177
174
177
176
173
174
170
175
178
182
180
183
185
187
186
188
194
187
182
184
189
182
179
184
192
196
193
188
191
184
186
181
184
182
189
197
198
202
206
206
205
198
204
193
198
196
197
204
189
187
188
177
183
184
183
182
178
181
182
191
195
195
189
200
208
205
198
181
163
156
157
176
178
175
175
180
180
178
172
170
181
183
169
168
171
170
169
168
169
171
166
170
169
163
174
174
174
181
178
178
183
182
180
182
179
190
191
195
199
195
190
185
182
185
188
184
188
191
194
199
195
190
195
187
186
180
190
189
195
199
200
208
204
203
201
201
203
195
190
195
202
189
186
182
183
180
182
184
180
185
188
189
196
198
198
200
203
200
189
167
163
164
172
180
177
170
178
179
178
171
171
168
169
169
162
170
178
170
167
171
164
169
167
166
167
166
169
169
179
175
175
177
185
186
189
187
187
184
195
193
195
191
185
191
188
185
189
191
193
188
190
197
192
196
197
198
197
194
190
185
187
188
199
194
206
209
202
201
199
205
192
197
198
197
189
185
182
175
177
183
185
188
191
192
198
203
198
198
197
200
180
164
172
178
188
188
171
178
191
185
173
166
166
166
165
167
168
171
172
175
165
168
167
171
170
170
166
177
172
175
176
175
180
185
186
186
190
187
193
198
193
189
186
187
186
186
191
185
181
190
191
191
193
191
191
192
192
199
209
207
201
194
188
191
197
194
198
208
201
207
201
204
202
202
192
198
191
185
181
181
172
180
182
189
198
195
199
195
194
196
201
199
173
175
173
182
182
178
178
182
183
179
174
170
166
167
163
167
167
179
181
174
175
170
172
174
171
172
177
180
177
191
183
185
191
197
189
193
198
199
195
202
198
191
186
191
191
192
195
187
186
189
190
188
196
192
187
193
196
198
205
206
209
209
207
196
193
197
202
201
199
208
188
193
205
204
197
193
195
185
183
187
170
176
183
195
198
202
191
193
199
200
200
184
173
175
175
183
180
179
182
177
175
167
163
162
171
166
166
171
175
179
177
173
176
174
181
178
178
182
178
183
186
196
195
197
195
201
196
199
208
211
201
201
202
192
191
193
193
192
193
189
185
179
188
189
190
185
191
190
196
199
194
202
212
209
215
204
200
197
204
201
194
204
192
183
200
199
197
200
198
190
175
183
182
173
178
199
201
199
196
200
197
198
189
166
173
170
178
178
173
174
171
163
167
159
161
161
174
170
164
172
174
177
172
178
180
183
181
175
184
192
187
188
201
207
208
199
202
204
199
204
204
209
201
204
206
192
190
188
180
188
187
186
183
185
190
185
180
185
188
192
190
197
196
199
207
210
206
202
204
205
201
204
200
199
200
193
184
196
197
201
200
194
186
178
184
186
174
205
196
193
202
205
198
193
175
168
170
180
184
177
173
184
167
163
161
156
154
163
171
161
167
170
171
167
167
171
173
175
182
186
185
189
195
194
203
220
217
207
210
209
206
207
206
198
195
199
194
193
186
187
181
183
184
181
188
182
186
193
180
180
181
184
193
192
193
196
192
192
194
200
203
203
193
203
201
198
200
200
190
178
194
206
197
194
192
190
184
185
186
203
193
199
208
204
194
179
173
173
177
186
175
179
182
176
171
169
161
159
155
160
166
164
169
168
164
166
164
169
174
177
181
188
192
192
205
201
206
217
212
208
206
205
210
201
207
197
198
196
192
194
187
186
189
184
181
179
185
190
180
189
185
179
180
180
189
190
187
192
191
190
194
194
203
204
196
193
196
200
194
201
196
182
186
200
203
194
189
197
190
181
182
196
193
202
204
203
192
177
175
177
183
178
182
182
177
181
179
174
163
168
154
170
167
169
175
171
172
173
166
174
175
173
173
185
193
193
204
207
207
211
208
208
197
196
196
196
192
196
194
192
195
192
182
187
187
179
181
181
177
182
186
186
188
184
181
180
185
188
184
191
188
194
193
194
199
204
193
186
183
196
190
200
200
187
189
198
198
192
187
189
197
191
174
194
198
198
194
202
191
179
176
179
187
178
184
177
174
177
178
168
162
162
165
170
172
172
178
176
175
174
177
176
174
175
181
185
190
199
200
207
207
205
207
200
189
191
191
187
197
190
191
185
190
189
179
181
182
182
176
182
176
175
181
184
190
195
190
187
183
185
191
193
192
196
196
196
199
201
198
192
186
187
194
197
201
197
187
195
201
190
195
191
195
194
185
200
201
198
198
195
179
173
180
186
191
187
186
172
170
169
172
168
167
172
175
172
177
178
184
182
175
175
174
173
173
179
186
186
197
198
204
201
199
198
198
189
182
185
187
182
186
187
184
184
189
182
182
186
185
183
178
183
178
177
183
193
197
199
205
202
190
191
196
198
196
200
202
202
200
202
209
206
193
182
192
191
196
193
184
190
200
194
191
190
193
184
195
198
200
198
191
183
173
180
191
191
187
193
181
167
173
168
170
170
175
176
178
179
186
185
183
179
174
172
170
176
183
182
187
198
195
198
201
196
194
197
192
188
184
186
184
187
183
186
184
185
185
179
187
185
185
180
180
178
172
176
189
189
191
199
199
206
203
196
198
197
197
203
200
208
204
204
214
205
196
187
175
190
194
191
185
183
194
204
192
189
185
188
193
201
200
193
183
177
179
184
192
195
187
190
176
173
176
171
170
171
179
182
179
185
183
176
176
176
177
174
178
186
189
184
193
197
196
202
203
199
200
204
198
191
189
188
186
183
185
178
179
180
178
180
182
184
183
180
177
176
175
175
183
186
182
189
196
204
211
202
199
195
197
199
202
202
201
207
211
206
198
190
177
186
182
190
193
186
191
201
195
191
182
181
198
201
199
185
184
184
183
181
193
198
193
178
173
182
177
172
174
180
185
184
183
181
178
176
174
182
182
180
184
189
194
194
196
198
200
203
202
200
203
199
201
190
189
188
181
178
180
178
177
178
178
182
182
183
181
174
172
180
173
171
175
176
177
180
187
194
204
205
196
191
196
199
197
194
202
199
210
200
198
193
179
186
191
182
190
191
193
191
197
194
184
178
194
204
192
190
194
186
182
183
190
194
190
181
181
181
178
174
180
189
183
183
181
179
178
180
180
178
187
188
186
194
193
198
201
201
205
206
201
202
205
200
196
189
191
191
187
186
181
179
183
179
179
180
180
179
177
176
174
175
177
174
175
170
174
175
174
187
195
204
202
195
198
202
195
194
201
193
201
201
195
199
189
188
196
187
194
195
195
194
196
194
182
176
189
197
195
195
200
185
180
185
194
193
195
189
185
177
169
178
182
188
181
180
180
181
184
185
184
185
187
183
190
198
203
203
200
201
203
203
202
203
202
203
200
192
191
191
186
187
187
182
183
178
173
173
177
173
174
171
170
169
171
175
170
172
166
166
174
182
184
196
204
205
202
205
197
195
197
194
195
209
202
194
189
194
188
187
188
199
198
192
193
200
185
172
178
194
190
202
199
182
186
190
196
199
201
185
187
170
168
183
187
183
184
186
186
185
188
191
188
186
189
183
196
198
202
203
202
200
201
203
200
202
203
205
198
195
191
192
189
191
190
188
185
182
174
169
176
172
173
164
163
167
167
168
167
167
163
164
168
172
177
186
201
208
205
203
201
193
188
195
191
197
208
195
186
187
183
190
184
194
195
192
191
192
192
174
177
182
189
204
194
189
184
189
205
208
195
185
181
159
178
188
184
187
191
191
195
194
195
191
185
188
187
189
195
200
201
204
206
204
205
201
201
201
204
210
204
198
200
199
200
198
193
194
189
181
175
177
175
174
167
162
159
157
158
161
165
161
160
163
160
164
169
176
186
198
201
206
203
199
191
192
194
193
196
196
190
185
177
188
176
195
196
179
187
188
191
177
181
180
187
201
193
195
191
203
208
210
192
183
167
158
188
189
186
198
195
200
203
198
192
190
188
189
188
192
194
195
202
202
203
206
207
203
199
200
201
210
207
206
205
203
209
204
198
194
195
186
178
179
168
167
166
158
149
153
154
155
150
152
154
161
157
161
161
164
172
182
190
195
202
203
197
192
196
198
193
199
192
190
188
188
171
185
204
186
182
180
191
185
175
176
189
190
193
199
205
209
200
212
188
167
160
163
189
193
192
206
206
209
212
203
195
194
194
194
195
201
199
199
203
208
208
203
203
202
198
200
200
208
209
204
209
210
216
209
202
203
200
192
184
177
173
171
164
157
151
151
152
147
142
147
154
151
151
154
153
153
171
179
179
190
193
196
196
195
189
192
185
193
190
196
196
200
178
178
195
193
177
183
189
185
174
171
185
187
191
200
213
204
205
206
177
157
158
174
190
199
201
215
212
214
215
212
201
198
192
195
202
201
205
197
201
204
204
196
197
198
198
199
204
207
212
208
209
216
218
216
207
206
206
201
190
184
180
173
162
151
154
153
151
144
146
151
155
151
150
149
150
157
164
178
176
182
188
187
188
191
194
195
189
197
198
193
200
204
193
180
186
197
175
188
182
187
171
174
182
187
201
204
210
210
205
192
175
163
169
194
197
208
211
216
209
208
213
208
201
196
198
199
201
199
198
196
195
197
198
194
196
198
196
201
206
212
214
216
208
214
220
221
207
210
207
203
193
185
181
174
167
157
156
154
154
149
150
157
152
157
152
151
152
159
166
175
179
176
178
182
181
190
190
194
196
195
195
199
202
196
187
183
177
189
192
191
184
186
172
176
184
189
207
207
209
217
205
191
178
181
183
201
205
215
218
216
217
214
216
202
200
203
203
201
203
200
196
197
197
196
198
199
200
198
201
200
210
214
216
221
213
211
212
216
209
202
200
200
192
184
185
180
169
163
160
159
161
160
162
164
166
165
167
165
164
166
169
174
177
177
180
175
182
187
200
187
193
198
197
197
204
207
189
178
176
186
199
198
179
180
171
180
183
188
215
202
220
222
203
188
175
179
181
197
194
205
206
215
222
223
213
204
210
215
212
206
202
201
203
205
218
214
207
215
209
203
213
208
210
216
216
222
217
212
214
212
214
208
200
198
196
188
188
188
171
168
163
164
171
174
170
170
175
170
174
175
174
175
178
176
175
179
184
174
168
182
200
198
187
195
198
204
209
210
190
178
177
188
189
196
181
166
169
183
192
185
210
207
220
217
192
179
187
188
193
197
196
203
208
220
224
225
212
207
205
208
203
204
200
200
199
222
230
232
223
227
226
221
219
218
208
209
213
207
214
210
210
206
204
205
190
191
192
194
188
185
176
176
172
169
174
177
176
169
176
168
170
175
170
180
177
178
178
178
178
172
167
170
185
197
190
184
188
200
212
216
185
174
178
190
186
192
179
159
168
189
189
179
202
202
221
208
189
185
202
194
196
194
195
209
223
227
234
221
214
208
212
211
214
215
212
216
222
234
237
240
234
231
234
233
223
225
219
216
207
203
212
204
194
202
194
193
189
190
194
195
192
185
182
180
176
169
166
172
173
175
179
171
171
165
165
169
168
172
178
174
178
176
170
174
178
201
195
190
177
188
204
214
193
178
179
188
185
188
177
158
164
183
190
175
180
207
220
195
192
191
201
199
195
190
192
237
233
239
226
223
210
203
207
212
212
210
220
225
236
244
241
240
227
219
224
224
220
229
226
212
205
205
203
196
190
185
183
184
184
188
191
191
186
185
189
175
166
175
178
180
183
187
176
169
166
160
159
157
157
160
167
164
169
167
168
169
167
192
209
194
191
180
195
202
191
181
186
187
190
190
173
161
153
184
187
181
171
208
206
192
193
189
208
197
189
203
211
241
241
229
217
221
199
200
202
206
201
196
189
196
201
208
220
222
217
199
197
204
214
216
215
206
198
197
187
182
184
176
178
177
184
186
185
190
191
192
191
182
185
188
188
189
201
196
179
187
162
169
168
170
164
160
167
166
171
164
160
162
163
170
196
203
197
182
188
187
196
175
180
191
193
188
175
164
152
186
189
188
164
210
175
196
194
198
204
197
207
222
223
238
235
219
210
212
199
207
203
203
194
185
180
176
190
188
210
209
206
211
209
203
205
204
200
192
189
187
181
168
170
173
167
172
179
180
185
191
195
199
194
198
200
194
199
209
212
216
195
213
182
178
187
189
189
173
179
176
173
170
155
155
147
149
165
197
194
187
187
179
195
182
178
187
192
192
173
162
157
188
179
186
168
192
159
201
196
209
202
208
230
223
217
229
223
210
203
202
204
206
196
191
191
188
187
191
199
181
202
210
190
218
206
204
195
197
206
193
192
191
185
176
164
171
164
167
178
178
187
192
194
202
198
199
198
205
213
219
226
216
222
223
209
188
201
211
202
188
186
187
190
186
177
166
157
149
154
182
180
185
185
175
194
180
167
175
197
192
171
160
168
181
175
181
173
176
170
195
189
203
204
222
234
216
209
219
218
207
199
195
194
202
180
164
199
196
207
211
215
190
196
199
180
202
190
186
183
181
186
183
183
186
171
179
156
163
166
176
179
179
177
182
182
199
191
196
198
202
202
206
215
205
224
229
220
201
215
218
209
190
177
183
184
187
186
172
166
156
150
164
180
186
184
182
187
185
156
162
188
180
169
170
169
170
183
196
184
173
177
184
175
199
200
226
224
202
198
207
218
205
193
186
184
197
168
176
187
187
205
204
214
210
205
197
188
185
189
181
172
168
180
169
167
171
167
151
141
144
158
161
179
175
176
189
187
193
198
199
202
195
194
204
207
208
223
231
222
224
217
218
210
186
181
176
187
181
187
190
171
156
158
149
172
165
177
182
179
190
168
161
176
177
165
178
164
154
204
191
191
181
185
183
179
199
191
230
217
204
196
212
215
208
187
182
179
168
161
175
163
193
207
199
209
206
209
203
198
189
188
194
173
170
184
178
182
180
176
147
155
161
161
164
182
178
187
187
183
191
206
211
203
197
197
204
207
210
193
199
211
213
199
207
198
182
175
174
185
190
206
205
197
178
174
167
173
169
177
181
170
170
191
179
169
180
167
174
158
148
211
193
185
181
178
184
182
209
192
233
217
210
196
222
214
210
185
181
181
165
173
177
185
212
201
196
203
202
198
197
194
193
187
194
184
181
196
198
186
180
183
152
158
168
165
161
176
188
179
184
198
205
211
209
202
198
197
191
201
201
174
182
196
192
202
182
175
180
183
186
202
194
199
206
203
199
199
183
180
173
188
174
177
179
180
191
176
180
180
170
156
171
210
208
181
172
178
182
170
207
210
226
220
211
197
222
205
196
177
181
187
172
181
184
200
195
193
205
196
194
191
195
183
180
185
189
177
186
184
198
185
176
176
170
165
158
169
154
164
175
173
179
206
204
200
204
188
198
194
189
207
208
210
197
199
190
190
175
175
181
182
192
187
186
183
189
195
193
187
195
184
184
184
170
181
196
184
178
188
189
191
176
155
179
199
216
198
168
187
186
190
202
202
216
219
220
200
209
201
201
180
190
189
177
184
187
196
192
187
196
205
201
201
202
201
185
183
189
183
194
181
184
182
179
159
160
166
161
166
151
170
153
171
172
211
204
181
198
190
204
205
206
218
223
223
223
208
190
181
178
171
181
189
187
175
168
167
183
187
192
182
176
181
205
188
169
186
190
186
177
189
189
204
180
165
174
174
203
198
181
191
200
193
207
198
209
205
218
215
204
204
213
192
195
191
201
206
204
200
201
194
198
215
209
206
198
199
189
192
185
191
193
175
185
174
180
174
148
172
145
163
165
172
160
176
180
200
208
192
196
191
210
215
216
223
217
228
230
218
203
195
173
174
177
172
184
175
166
164
174
185
194
188
183
167
210
213
183
182
184
184
195
184
200
207
194
177
177
155
186
201
187
207
206
204
199
207
216
194
199
219
219
214
205
188
191
200
207
198
193
179
171
192
196
205
209
198
204
185
184
190
179
200
178
168
181
177
179
199
184
186
161
174
154
186
156
176
191
197
206
210
203
203
205
204
211
214
204
206
208
204
201
190
169
172
167
175
194
194
191
177
171
175
187
194
186
171
199
201
180
173
189
200
209
201
196
217
202
183
191
177
169
204
182
209
214
210
197
211
231
206
197
215
206
217
192
178
183
192
182
169
169
157
160
176
187
191
187
177
186
175
169
170
169
191
183
176
173
169
176
191
187
177
177
176
143
187
160
167
181
194
190
213
201
197
205
199
213
213
203
197
198
202
209
190
182
178
180
175
194
197
205
198
171
177
190
194
182
172
183
184
161
167
196
203
220
213
203
229
212
182
188
196
157
184
179
193
212
212
196
211
220
222
200
203
197
204
182
170
168
172
157
141
148
156
160
165
170
166
157
156
166
163
164
163
175
172
175
187
170
169
179
185
181
166
174
171
149
178
161
161
167
188
183
192
196
187
192
187
203
205
199
200
201
208
222
199
211
194
192
204
200
201
208
208
182
185
192
183
187
177
187
180
161
166
190
210
212
213
194
213
218
200
179
186
162
180
179
174
207
207
200
208
208
208
198
189
191
207
189
170
166
169
157
153
162
175
171
169
156
152
156
157
169
172
159
165
177
161
183
174
166
169
162
177
180
162
177
173
163
169
153
156
164
183
194
191
205
192
186
187
195
208
184
186
209
208
215
212
213
208
190
208
204
201
212
218
193
192
200
190
191
178
190
178
169
183
187
209
225
207
199
199
215
205
187
180
170
197
197
173
210
204
188
202
209
203
188
177
182
215
184
166
159
154
152
145
166
174
173
156
154
154
164
165
170
172
151
176
163
169
177
161
163
157
150
165
172
170
176
182
168
156
149
166
166
181
211
198
200
190
182
179
189
204
185
192
198
199
201
203
209
198
192
191
221
217
218
219
203
199
188
198
200
174
199
185
176
178
185
198
229
213
198
194
210
193
193
181
159
186
201
192
201
211
175
193
201
205
186
180
178
200
178
167
175
172
162
154
173
177
177
165
163
161
167
178
165
160
156
172
176
176
170
159
163
156
158
179
196
206
195
201
168
151
144
159
163
177
211
204
205
201
191
178
187
202
183
196
199
199
206
209
206
200
186
189
220
216
219
214
198
198
185
205
200
172
210
190
172
179
183
205
205
198
195
177
205
196
201
175
142
167
167
208
189
205
177
188
199
206
188
180
185
201
180
168
177
180
176
165
180
180
180
169
177
175
168
172
169
174
189
186
198
174
176
162
167
171
189
207
217
213
200
206
175
165
147
165
173
185
193
206
198
206
199
190
188
206
199
216
215
212
210
215
214
214
205
198
207
214
217
212
203
193
201
215
177
173
209
184
165
184
187
196
203
186
201
172
204
190
207
169
132
158
152
186
193
175
196
184
195
204
190
178
173
207
180
166
172
169
168
161
162
169
173
175
186
184
177
175
168
194
200
194
189
175
175
178
171
183
192
205
211
196
195
184
185
165
162
162
178
182
183
190
202
197
194
191
201
208
204
210
213
213
214
215
215
211
208
205
200
210
207
208
199
203
218
215
169
181
203
175
153
177
185
198
210
190
210
173
197
196
200
170
133
162
161
177
177
185
185
183
181
199
191
180
156
208
179
159
163
162
168
164
171
173
178
183
179
180
169
166
181
194
194
192
186
174
185
180
179
198
192
200
200
190
185
179
181
163
173
160
175
176
174
184
183
202
188
183
198
207
206
199
206
208
210
198
208
200
198
203
205
204
207
206
202
209
212
213
184
177
197
168
145
171
178
225
198
198
214
182
194
194
201
169
155
174
180
190
190
193
193
188
183
188
189
175
151
176
180
157
162
165
164
166
174
174
184
187
184
178
172
179
191
179
190
192
174
180
189
177
195
196
197
203
198
198
184
182
177
167
179
161
170
172
179
180
186
193
195
178
179
189
191
190
193
198
206
195
208
200
191
198
196
198
192
189
185
193
201
211
190
184
194
159
153
171
185
228
208
215
219
190
190
188
196
168
178
175
190
204
204
191
200
185
190
193
178
174
165
149
194
164
164
164
161
160
174
173
179
185
180
184
183
189
184
178
187
184
179
174
170
174
192
190
192
190
198
199
190
181
179
174
172
171
168
169
186
177
180
174
187
181
169
169
180
181
189
184
184
186
192
191
186
193
197
182
172
175
176
194
204
201
186
203
187
156
156
165
181
213
211
217
224
186
189
184
195
167
190
174
167
193
207
183
202
188
172
185
189
166
175
146
183
181
160
164
164
164
169
168
166
180
192
198
192
184
182
191
187
183
183
174
184
192
197
197
193
192
200
198
196
180
177
168
174
174
160
176
190
190
195
179
170
173
179
169
175
177
176
182
179
182
188
184
185
188
190
180
174
179
185
199
201
198
188
200
181
153
156
162
183
201
196
216
215
188
183
185
186
163
195
169
162
177
205
186
200
194
162
177
182
171
175
163
168
192
182
169
169
172
177
182
186
191
194
207
187
196
188
186
187
176
169
173
190
191
197
189
185
189
200
200
199
192
178
172
175
177
162
178
186
191
198
191
177
182
176
190
184
183
179
186
186
188
184
183
180
180
182
176
176
182
185
190
197
190
203
185
175
148
144
170
189
198
206
194
215
198
173
191
164
167
193
175
162
177
193
181
196
200
155
169
183
176
179
169
151
178
173
179
184
187
189
193
199
203
206
210
196
196
193
189
190
181
164
175
185
191
189
174
167
167
195
205
202
197
181
174
189
179
172
166
183
192
197
190
187
191
183
193
196
199
179
181
194
193
194
186
178
181
181
182
184
188
184
185
187
193
195
173
161
164
152
170
190
225
205
189
209
202
169
195
157
162
196
180
168
186
186
178
183
196
160
165
181
176
170
170
158
159
169
170
177
179
187
198
202
211
215
206
193
188
188
180
183
175
169
182
186
187
185
172
164
167
199
202
201
193
171
170
183
189
179
179
178
192
204
197
198
202
201
201
201
205
198
187
179
186
192
187
184
183
182
179
182
184
183
184
185
195
186
170
154
168
168
174
206
242
211
192
205
198
174
191
159
161
181
191
178
186
182
181
174
183
169
168
180
170
173
169
176
167
166
174
188
184
188
197
202
209
211
200
190
187
188
183
177
174
175
173
185
188
178
183
177
186
199
193
202
184
162
165
169
181
177
181
176
193
205
200
213
212
211
213
207
213
209
201
196
186
190
196
196
190
188
184
187
187
183
191
185
204
186
163
159
165
175
186
210
228
206
204
199
192
173
184
160
159
186
172
182
191
180
182
170
173
162
167
177
174
180
181
180
183
179
171
189
196
197
202
206
213
209
202
190
191
187
185
179
176
174
171
186
181
187
196
190
194
197
194
192
168
155
153
160
165
174
172
178
193
188
191
201
210
201
214
212
217
213
211
204
199
198
196
193
191
186
190
192
190
187
185
196
203
194
171
163
174
174
189
197
226
208
199
204
191
173
177
178
146
187
169
172
195
191
185
169
170
163
169
174
180
185
190
188
188
182
184
190
192
199
199
197
204
199
200
192
192
196
187
182
183
181
180
183
183
191
194
187
181
180
178
174
153
142
146
160
157
174
177
178
177
185
176
187
197
189
207
212
208
219
213
206
199
194
202
196
191
187
182
179
180
176
192
199
204
198
172
163
170
169
186
193
219
211
194
200
196
172
176
179
146
181
176
169
194
203
184
164
172
176
171
172
180
185
189
195
190
184
188
188
190
195
202
207
207
205
212
214
208
209
205
179
180
174
176
176
187
187
181
172
166
167
177
175
153
144
135
143
146
165
178
174
170
178
187
183
177
180
196
193
188
211
209
205
198
194
196
194
194
189
186
175
173
178
192
198
197
190
166
159
166
170
180
204
225
207
197
211
196
172
182
182
158
166
178
165
178
198
190
170
169
195
183
178
178
187
190
192
193
187
192
190
189
191
193
198
196
198
202
200
192
186
180
174
171
168
181
179
181
186
173
166
175
177
196
189
166
151
141
147
157
175
174
174
177
189
202
198
196
191
174
176
178
195
201
195
190
188
186
179
179
178
179
179
177
176
177
197
197
185
171
166
176
177
188
208
241
207
203
205
198
173
179
181
166
157
178
169
169
191
182
166
171
194
188
180
179
185
193
191
193
188
191
187
186
186
190
195
191
184
180
180
175
171
168
166
159
171
185
185
176
175
177
172
176
183
202
192
186
165
155
162
172
180
174
176
188
200
212
207
212
205
188
194
189
194
196
190
182
176
179
176
177
180
182
182
173
173
174
185
193
178
173
176
177
186
199
225
246
215
204
209
189
178
174
175
174
159
172
186
164
192
180
161
167
177
191
182
176
187
187
196
191
193
188
186
184
186
192
183
174
172
169
172
170
165
171
165
167
182
191
189
193
186
192
185
177
193
201
194
179
175
174
174
185
190
180
173
192
202
206
204
209
207
199
204
197
203
198
192
186
179
179
181
182
178
176
181
177
173
174
178
186
170
178
184
180
195
201
241
242
230
203
196
181
186
166
172
176
164
166
195
184
180
185
174
175
172
185
178
175
184
186
190
193
188
185
185
184
190
175
171
164
169
164
169
167
162
167
174
184
192
195
193
207
208
205
194
201
207
211
203
187
179
192
185
199
193
184
172
183
184
192
199
203
212
211
211
203
207
200
196
191
184
183
185
186
179
181
182
179
179
178
175
181
177
181
189
186
194
216
254
241
228
201
180
185
180
164
177
178
171
175
188
200
183
189
180
179
174
187
172
164
179
186
187
188
179
178
178
184
176
166
166
168
164
166
168
166
166
165
179
186
188
193
196
194
190
191
190
208
215
216
209
205
195
201
198
205
189
185
183
181
181
187
194
197
207
205
208
201
203
203
204
200
201
191
187
184
183
183
185
182
183
179
173
184
183
186
197
192
195
230
251
229
212
180
178
193
173
174
187
187
181
182
173
193
185
190
190
177
184
191
177
163
172
184
186
182
181
167
174
179
162
160
165
166
160
164
166
166
170
165
179
181
178
185
184
182
179
182
180
199
206
210
204
212
208
204
197
196
186
187
193
176
185
185
184
180
190
195
198
203
199
206
210
210
204
198
189
186
190
184
188
188
183
179
176
186
188
188
200
196
199
230
232
213
189
175
190
184
171
187
193
197
189
169
157
178
188
191
208
196
203
204
190
162
169
178
181
177
179
171
174
177
167
163
162
165
157
161
162
165
169
172
170
173
170
164
162
172
175
172
178
177
193
201
192
195
185
185
177
179
185
186
188
181
188
192
192
177
184
174
194
202
195
207
210
213
202
199
191
183
189
184
185
185
184
177
181
190
187
188
202
198
199
215
198
202
179
187
186
178
177
196
188
196
188
173
142
172
178
183
205
201
222
210
201
176
165
177
181
177
175
172
172
177
166
165
162
158
158
162
162
164
166
160
157
157
158
160
149
164
170
172
182
179
176
183
178
176
168
160
160
171
173
178
178
181
193
190
187
185
189
176
187
194
192
201
210
208
207
196
192
186
186
183
183
185
183
176
184
194
186
192
198
191
193
190
180
186
181
185
186
170
188
191
185
189
191
177
137
170
181
172
189
190
209
210
205
186
169
173
179
176
172
177
171
174
169
169
163
163
160
166
168
162
156
146
143
147
157
163
151
163
166
168
179
181
179
176
173
169
164
156
144
154
171
166
167
171
185
178
177
182
194
188
187
187
190
192
198
207
202
193
189
188
186
184
182
184
185
178
180
194
185
193
198
185
176
172
170
178
185
183
183
172
194
191
187
189
185
184
146
154
181
182
183
186
192
208
203
186
167
171
178
175
174
178
169
170
171
171
165
169
171
169
173
163
146
133
135
147
166
170
162
162
162
166
175
176
165
161
155
144
150
145
142
145
162
162
157
161
166
169
170
167
181
187
185
188
188
190
192
198
200
199
193
187
185
181
182
183
186
185
184
190
186
189
192
189
161
166
166
173
177
188
176
182
190
189
184
189
186
186
157
153
172
186
177
184
183
203
200
190
168
169
181
179
181
180
173
174
170
167
174
173
176
173
170
159
149
143
141
162
172
181
175
170
155
153
159
161
153
148
145
136
132
130
128
137
147
157
163
153
158
156
164
160
165
174
178
182
190
194
198
193
193
192
195
191
185
182
182
182
190
187
187
189
181
181
177
186
152
162
168
172
175
187
181
191
187
193
182
186
193
180
164
152
171
166
180
184
182
192
195
190
164
169
179
179
183
183
182
175
171
172
177
178
178
176
174
175
168
162
164
183
182
180
182
174
158
149
146
147
151
146
146
138
140
130
127
137
147
163
163
162
157
155
159
158
158
164
175
177
189
194
198
199
185
184
187
189
184
182
185
183
185
183
189
184
184
176
173
182
152
165
167
177
183
186
190
191
188
192
182
179
193
179
171
147
172
168
168
196
183
180
195
188
170
169
178
183
188
185
184
177
185
182
189
189
185
187
184
189
192
185
188
195
187
179
176
163
156
146
147
143
148
148
163
156
152
148
148
154
165
171
167
176
174
174
170
166
173
178
186
190
196
190
196
200
184
183
180
181
176
179
178
184
181
178
188
184
186
184
179
180
164
171
177
185
192
194
187
188
192
188
185
185
181
186
176
150
160
170
161
185
182
172
189
184
172
163
174
187
190
192
183
182
194
191
197
200
203
206
205
206
214
200
195
195
181
182
175
163
170
157
153
150
161
173
187
183
174
177
187
189
192
198
192
194
190
188
193
182
188
194
197
201
201
194
195
200
189
182
181
178
175
174
168
184
185
186
191
182
190
194
188
189
185
186
187
190
202
201
181
189
192
193
196
186
177
185
177
141
149
166
166
180
182
171
173
178
174
161
169
189
192
193
191
187
195
187
188
197
204
219
214
215
212
198
200
197
200
201
199
184
193
174
179
176
182
194
202
202
200
191
202
209
210
215
206
198
190
198
205
195
194
214
194
190
193
191
193
199
194
179
184
183
177
177
167
181
186
193
198
182
191
200
198
202
207
194
189
198
210
189
188
191
190
197
196
188
187
188
177
148
148
163
167
177
185
178
178
182
175
165
170
195
198
198
200
192
187
174
178
183
189
193
206
205
213
198
197
208
214
210
220
206
202
199
195
199
189
191
196
200
189
184
197
209
213
225
218
202
192
203
215
192
197
211
194
189
191
192
183
193
200
191
185
184
186
176
174
181
187
199
199
186
193
199
209
203
207
196
199
211
202
189
185
187
187
194
193
190
193
191
181
161
147
161
164
177
180
176
179
189
176
181
176
195
200
203
197
191
179
155
168
172
169
170
183
178
186
185
184
196
207
214
221
208
203
195
192
194
203
193
184
194
193
184
194
212
211
231
223
216
205
215
225
201
199
205
201
191
201
201
193
196
203
192
192
185
189
170
181
186
191
197
194
195
200
197
212
214
211
212
205
205
198
189
188
185
187
183
192
194
194
193
192
168
150
157
167
177
178
179
180
179
181
186
183
190
203
201
193
177
171
163
164
160
154
167
175
177
172
167
171
182
193
212
213
211
209
201
191
188
212
202
192
193
204
187
190
214
222
240
234
228
223
226
230
220
197
211
213
204
215
210
200
198
195
193
197
189
185
169
181
192
189
192
190
197
199
198
213
217
213
209
206
203
190
187
191
185
189
183
188
189
194
194
199
182
149
159
170
172
180
173
177
176
188
183
187
190
206
190
184
168
160
166
164
160
152
168
171
174
167
164
164
188
185
188
184
196
207
210
204
194
212
206
214
211
216
204
214
230
232
239
245
230
236
228
226
235
207
215
209
202
202
197
193
190
192
184
194
185
183
177
184
192
187
186
186
196
199
205
213
219
210
209
206
202
188
191
188
187
187
186
187
185
189
191
201
194
155
171
176
174
181
171
178
182
193
191
196
189
202
187
171
161
158
161
164
163
152
165
167
176
170
168
169
189
194
178
169
171
193
194
202
206
203
202
208
215
226
230
235
236
227
237
233
226
215
216
224
217
205
204
195
197
192
188
186
188
193
190
188
182
184
183
188
191
192
186
188
199
197
211
219
216
207
207
209
195
191
192
192
185
189
188
189
188
187
195
197
204
171
167
172
172
179
171
176
185
194
192
202
196
201
185
169
158
153
162
165
167
151
164
167
172
169
173
187
193
191
180
171
164
179
186
181
188
182
192
202
207
212
216
206
209
200
216
208
199
193
194
199
192
187
191
189
190
192
196
192
197
200
195
191
185
185
190
196
197
194
192
185
200
201
211
223
212
206
205
205
190
193
195
192
189
192
189
185
176
176
177
180
198
189
170
167
169
177
174
179
180
194
193
209
201
195
184
170
161
163
165
168
180
165
175
172
179
176
184
208
206
203
198
183
169
172
180
175
174
168
171
181
181
174
175
177
174
172
190
197
192
180
173
173
175
173
178
187
190
190
192
195
201
201
200
194
185
188
192
195
197
200
196
186
195
197
208
207
199
196
196
182
179
183
187
184
185
186
184
165
167
162
159
172
181
194
174
166
160
168
174
174
183
190
188
205
204
189
184
166
171
169
173
174
183
174
181
185
183
188
199
213
221
224
225
219
209
200
192
183
178
177
173
169
175
173
180
176
178
181
181
198
188
180
173
170
171
172
187
196
194
195
209
202
202
206
205
192
193
204
201
205
198
210
197
195
194
199
212
196
188
196
187
169
170
170
176
171
171
171
167
166
170
166
167
178
181
190
179
168
167
156
163
170
178
187
182
202
205
185
183
170
169
185
183
175
190
182
180
189
190
199
213
220
230
238
243
236
236
228
223
215
211
206
203
198
204
197
195
190
188
191
180
194
189
188
180
177
177
188
200
208
199
212
213
206
199
208
205
196
200
208
203
202
204
213
196
186
192
204
210
194
185
194
179
169
169
170
172
170
172
174
174
167
168
169
181
181
178
185
189
173
168
151
156
166
174
184
188
195
193
186
180
172
165
180
188
183
191
183
188
191
195
206
210
209
224
234
246
247
242
242
236
235
234
230
230
221
224
220
215
218
217
204
207
208
208
200
200
194
195
205
206
207
211
212
214
207
200
197
200
198
203
212
201
196
213
209
188
184
193
205
197
191
188
186
174
171
174
175
169
171
169
177
174
159
166
178
183
183
182
183
193
173
167
154
153
166
174
193
195
184
187
174
182
175
174
174
187
184
183
183
186
200
193
205
210
198
218
222
229
247
244
234
237
235
229
227
225
219
223
218
215
209
207
202
204
204
201
205
207
203
207
208
206
206
205
207
207
209
199
194
192
195
206
209
203
201
221
216
190
182
205
198
187
188
184
189
180
176
176
171
170
164
168
175
175
155
175
179
180
185
189
184
191
174
170
157
155
167
183
198
180
170
178
175
185
175
175
177
176
182
178
180
183
192
190
199
206
192
207
210
224
234
236
229
234
229
223
212
208
203
206
203
204
198
189
189
198
197
200
205
207
202
204
201
202
197
199
204
208
203
198
194
190
201
212
202
206
209
223
216
193
183
207
192
181
191
177
185
194
181
180
168
166
162
168
174
178
165
170
177
178
185
188
184
191
177
161
158
150
165
198
195
168
163
173
180
182
174
173
178
165
177
180
182
177
187
180
196
192
192
199
209
217
216
226
222
225
217
215
211
199
193
193
196
196
192
188
186
195
190
192
197
198
197
195
201
198
195
199
200
197
194
190
189
184
200
205
211
209
213
226
212
186
190
199
184
185
188
183
189
195
193
176
172
162
164
166
171
175
176
171
175
179
181
184
186
188
177
159
149
154
185
206
190
161
158
168
177
181
180
170
174
169
178
176
184
176
188
178
189
182
190
190
205
207
200
213
209
208
202
201
201
188
182
185
189
180
183
189
187
187
185
185
190
193
190
192
201
200
197
198
198
189
194
189
185
183
198
212
213
209
218
213
212
184
181
189
176
190
182
198
198
191
196
180
167
162
166
163
163
171
174
171
177
181
178
182
184
189
170
162
163
179
190
195
188
163
154
158
169
175
183
179
161
173
176
169
181
177
182
180
182
178
185
183
194
194
192
200
198
192
191
192
185
179
174
182
175
169
178
179
179
180
180
180
185
185
194
195
197
196
197
196
194
186
187
187
185
183
204
216
206
213
221
202
203
199
171
164
176
180
186
191
202
195
194
186
172
162
165
160
154
167
173
171
178
181
175
185
190
200
156
164
175
182
171
193
197
162
155
149
163
166
193
179
166
172
170
170
175
179
183
189
183
178
181
178
190
188
190
197
192
182
184
182
183
170
171
173
171
167
174
179
181
182
183
182
184
188
197
204
200
197
205
194
197
190
185
186
183
190
206
206
208
218
207
201
192
189
167
157
166
175
188
192
200
199
193
188
183
163
163
161
154
163
176
183
183
180
182
197
204
181
153
150
176
170
170
187
203
173
159
148
157
163
193
185
173
171
167
174
174
175
186
190
188
181
186
182
186
191
193
187
192
176
179
180
179
170
171
173
172
170
169
183
176
179
184
182
184
190
193
203
204
201
199
197
197
192
184
181
191
195
196
208
206
219
196
201
187
167
156
166
163
155
179
197
201
196
202
182
181
173
159
159
157
160
191
195
198
194
194
212
187
175
158
151
148
168
173
186
202
181
167
139
153
163
183
187
182
174
167
177
175
180
187
189
196
188
196
191
193
196
193
194
193
182
178
179
181
180
176
181
183
178
175
184
173
179
185
179
185
180
186
194
195
200
199
204
195
193
188
183
187
191
201
210
216
207
193
205
178
157
143
168
158
152
168
196
206
201
205
196
185
180
174
161
167
162
195
197
196
193
201
198
186
177
172
147
144
145
170
204
204
181
178
136
155
169
184
183
186
185
169
166
172
181
182
188
197
191
196
200
190
199
200
197
187
185
183
183
188
188
183
189
190
178
186
185
178
183
184
178
185
177
181
191
193
204
198
201
196
190
186
179
179
194
198
204
222
196
196
206
166
161
144
154
158
155
169
188
203
201
203
200
188
184
187
168
169
170
199
199
196
201
206
180
198
182
178
137
143
158
163
209
208
190
168
138
174
177
185
191
183
194
175
171
172
182
181
190
196
195
196
199
194
202
208
198
193
185
181
188
189
187
180
188
189
176
190
185
177
180
186
182
186
177
182
187
199
201
199
197
195
186
186
174
184
192
203
203
209
194
199
195
160
152
159
152
155
156
173
178
193
209
195
201
191
186
183
180
178
177
201
200
201
209
202
178
199
179
170
135
139
157
195
200
204
199
164
156
185
176
178
189
187
190
182
169
175
175
178
187
195
197
190
195
201
206
206
194
195
189
186
192
194
181
176
191
183
178
185
184
174
174
186
186
182
184
195
196
194
194
206
191
185
186
182
177
187
189
208
202
189
193
202
184
166
152
167
151
153
161
170
181
186
206
193
194
195
187
189
182
183
187
207
207
208
212
191
177
195
177
162
140
140
172
209
201
201
191
179
168
182
178
174
188
190
192
187
182
182
170
181
182
190
201
189
192
202
204
201
193
191
191
202
188
198
183
183
185
184
180
189
186
177
183
192
190
191
194
208
197
197
197
207
192
185
184
182
180
193
191
204
188
188
198
200
174
176
162
179
143
147
163
174
179
187
202
204
193
196
192
190
181
185
184
214
211
211
206
187
178
192
166
155
152
145
188
203
208
191
189
199
162
179
178
175
186
186
192
191
194
190
169
178
184
194
199
195
194
198
200
193
194
196
193
195
187
191
189
189
189
184
191
187
193
188
191
198
199
199
202
207
200
202
193
197
192
189
182
186
185
193
196
185
187
190
200
195
169
182
168
181
162
141
171
173
187
187
198
202
194
195
202
203
188
190
186
219
217
217
209
191
184
187
169
166
163
151
193
209
211
197
198
181
168
180
173
178
183
180
186
191
197
189
184
175
190
191
198
196
193
195
197
190
197
199
201
190
183
188
192
192
191
193
186
187
198
192
195
202
205
206
204
208
202
200
191
194
196
187
181
189
189
197
188
177
193
191
198
192
171
176
180
168
167
148
179
174
196
194
203
201
192
193
203
199
196
191
200
223
225
223
202
193
191
185
178
179
166
156
192
216
219
195
205
181
158
182
170
174
184
180
180
190
188
193
192
184
191
187
194
194
195
199
190
195
196
200
193
193
189
197
194
199
194
192
183
188
188
199
203
206
207
205
205
205
202
200
193
195
196
189
185
187
191
199
174
186
189
194
195
194
168
177
178
168
157
148
188
184
195
198
206
203
207
198
207
207
206
196
205
216
217
210
189
194
189
182
178
177
176
165
196
221
222
191
207
197
168
162
176
172
182
178
184
185
182
188
189
194
191
191
189
185
190
198
189
199
197
188
193
192
190
199
196
199
198
189
188
189
195
197
205
208
201
201
198
203
199
203
195
199
196
196
187
188
194
185
172
178
186
190
188
195
169
183
169
166
153
144
176
209
201
203
203
203
214
199
195
203
199
203
198
221
220
208
210
211
214
192
170
176
185
181
200
228
217
186
206
200
182
167
156
170
179
174
185
184
181
184
183
189
186
190
186
183
181
179
186
196
190
179
188
186
185
194
188
193
187
188
187
198
195
196
204
198
197
197
203
202
201
197
195
198
194
193
190
191
186
186
178
180
186
187
179
195
162
191
170
156
154
157
166
208
222
208
201
202
209
200
194
200
197
203
204
221
214
207
218
224
211
202
182
187
204
189
210
244
204
190
198
206
193
184
159
157
173
170
179
187
186
182
188
180
187
179
187
183
173
171
179
181
189
178
183
182
178
183
181
177
174
177
188
198
190
190
194
188
196
198
198
198
199
197
195
197
193
194
189
184
186
185
184
176
182
178
180
188
165
195
166
151
158
178
172
192
229
224
194
204
201
204
208
200
199
203
202
206
202
204
214
221
211
199
192
198
232
209
215
237
212
187
191
198
205
187
170
160
166
162
170
180
183
187
188
184
187
174
183
175
176
173
176
177
176
178
177
176
176
182
174
173
180
182
186
188
186
183
186
189
195
198
198
197
192
191
195
191
193
190
179
186
187
182
177
177
178
175
181
176
174
203
160
159
162
193
181
193
220
238
201
196
193
196
206
208
208
207
196
198
210
215
231
236
211
207
199
218
255
205
206
223
220
190
179
188
209
190
174
172
171
157
164
166
175
179
189
190
189
181
177
176
184
178
183
176
175
177
174
177
182
179
177
184
185
187
183
183
184
183
185
188
193
198
193
192
191
189
193
186
191
185
184
184
188
169
173
181
168
180
180
179
180
211
150
164
174
195
193
206
213
241
219
195
202
196
197
203
206
208
202
