P2
# Face with average contibution
92 112
255
192
190
192
195
194
195
194
193
197
199
195
198
203
207
208
209
200
212
207
200
207
211
210
198
199
199
195
195
216
214
219
214
205
202
200
200
204
188
181
185
180
191
199
183
190
177
177
179
171
172
184
185
181
184
178
181
183
172
176
191
188
199
194
180
176
183
181
181
184
186
179
182
188
194
193
194
201
192
199
199
194
195
189
194
195
196
198
200
194
198
197
196
191
196
194
192
196
193
195
196
196
196
194
200
198
203
200
199
208
210
211
206
200
203
207
202
198
199
202
199
199
204
196
204
201
195
201
197
196
194
184
183
180
189
190
180
180
174
168
172
174
168
179
179
175
180
182
166
161
167
164
179
193
188
197
191
171
170
170
177
178
188
180
190
188
188
192
193
204
197
197
197
197
194
189
191
191
193
192
193
196
193
196
195
191
194
191
195
196
192
193
196
193
190
188
196
204
201
199
196
208
207
206
204
193
194
195
203
200
209
208
198
200
198
199
193
198
198
196
195
189
188
185
185
174
174
185
168
169
169
167
172
168
173
175
172
171
184
176
173
159
156
156
160
173
177
190
184
185
169
169
172
173
184
185
188
190
187
191
195
200
203
192
202
196
192
192
192
194
194
190
190
194
195
195
193
194
193
191
199
204
200
198
192
186
189
191
204
207
205
204
198
200
198
201
202
183
181
180
187
204
205
215
200
209
196
193
202
195
184
189
192
175
184
181
183
179
167
172
169
173
176
170
163
167
167
163
159
162
167
165
163
164
172
170
163
154
164
174
173
174
178
164
178
185
190
193
189
201
193
192
191
196
204
201
200
203
200
197
197
195
192
190
190
191
193
192
194
191
192
197
199
197
200
201
192
195
193
195
205
202
195
198
199
186
188
197
185
183
179
184
183
185
193
198
208
213
207
201
200
192
194
184
184
181
178
171
183
196
174
171
173
182
176
169
171
168
162
152
158
161
162
160
164
168
170
171
169
158
159
165
178
170
162
169
171
173
184
194
200
205
207
194
199
188
199
210
206
202
193
199
201
196
197
192
189
189
190
194
192
193
196
198
199
196
193
196
193
193
199
203
203
200
190
191
196
188
194
201
192
192
188
173
183
187
186
184
200
206
198
203
200
191
204
200
183
187
184
175
178
194
190
181
172
185
190
176
173
175
175
171
164
167
161
167
164
164
161
164
158
163
165
156
173
171
160
163
171
166
168
180
198
209
211
208
204
203
191
205
215
202
191
196
198
201
197
193
191
193
190
194
195
194
196
198
199
195
195
191
200
199
201
203
196
197
192
183
178
184
190
196
197
199
193
181
187
182
185
194
199
200
195
202
199
196
202
202
193
181
186
177
170
180
184
182
178
174
184
182
171
174
177
179
170
172
165
163
162
155
152
164
152
160
150
161
163
168
163
150
163
174
169
170
178
192
203
205
199
207
212
194
208
212
203
201
201
202
197
199
196
192
194
190
193
194
196
197
201
194
196
203
204
201
198
205
198
191
185
191
172
178
175
192
193
191
193
189
194
192
194
201
194
194
196
197
195
204
194
196
194
196
180
180
174
192
194
178
178
181
180
181
174
173
177
171
169
169
169
168
166
160
157
141
162
169
155
167
161
163
174
166
160
175
168
177
169
174
187
193
193
196
208
209
206
213
199
205
204
202
203
200
197
190
192
189
191
197
192
199
199
199
206
201
201
195
197
198
187
183
178
162
168
170
176
191
190
191
192
189
200
207
195
187
187
186
181
194
187
198
193
179
188
188
192
187
188
205
194
182
179
185
179
179
177
173
177
173
171
166
161
168
168
172
170
150
158
169
162
168
166
162
174
173
176
166
170
172
166
174
171
171
180
189
191
204
205
209
205
207
207
205
204
210
196
193
193
193
194
197
201
199
202
205
205
190
191
197
188
192
185
178
170
163
176
189
200
207
207
200
202
191
213
215
195
190
182
184
177
187
196
198
195
187
180
185
187
197
196
184
183
183
180
180
188
194
176
178
186
178
179
174
169
177
162
169
175
159
161
169
165
168
165
161
163
176
172
171
186
180
176
171
174
162
174
176
191
196
204
207
197
209
212
209
206
206
203
198
196
192
194
199
200
203
214
203
198
189
196
186
186
199
192
175
172
173
174
189
198
211
210
200
203
194
200
204
196
192
191
187
187
201
205
204
206
191
182
186
182
186
185
185
189
181
187
190
197
190
194
189
180
179
173
176
172
183
176
171
168
172
165
172
162
170
183
162
158
167
175
178
186
188
188
176
170
170
163
181
187
195
204
205
194
207
213
216
202
204
201
200
197
193
194
201
203
207
205
195
195
191
187
185
194
192
196
189
191
177
172
190
198
206
200
190
195
191
189
192
182
182
184
181
178
188
196
200
200
192
190
193
181
183
185
186
182
179
189
191
200
198
200
194
181
176
179
179
174
184
183
185
180
178
177
174
156
169
172
173
163
162
168
177
182
185
196
190
172
179
182
183
182
190
202
204
200
204
203
209
215
203
204
200
197
198
196
204
208
210
201
200
190
192
192
199
192
186
196
194
182
177
178
198
210
202
193
189
194
191
202
199
192
193
182
181
191
192
191
196
195
198
197
192
186
198
212
208
184
182
185
191
190
193
202
202
189
188
168
173
174
172
179
184
175
182
176
178
175
171
165
166
154
157
164
171
183
184
186
195
192
181
189
187
179
190
188
202
205
210
207
208
211
217
207
204
196
198
189
206
209
208
196
192
187
195
201
200
180
175
182
173
178
168
182
186
188
185
193
190
188
193
196
202
199
195
181
180
198
206
202
206
201
195
200
190
180
195
210
210
209
203
198
189
193
195
210
212
203
198
193
187
175
179
175
171
179
177
183
183
170
184
170
176
155
155
175
173
182
185
182
190
199
194
195
196
180
190
179
187
208
205
211
215
214
223
216
207
194
198
196
208
203
201
190
185
191
194
195
193
168
169
176
172
166
173
177
180
178
176
179
187
189
183
196
201
193
179
171
181
185
190
187
190
185
185
189
186
183
198
199
203
194
202
209
198
202
191
205
202
194
203
199
200
198
201
179
182
190
184
186
182
175
182
179
180
169
169
171
181
194
188
171
177
210
204
205
206
205
181
184
182
188
208
201
206
210
226
224
205
199
201
199
198
200
187
192
189
192
191
182
184
171
177
176
170
159
170
165
172
172
173
175
183
191
189
189
181
170
170
171
186
180
182
181
169
183
183
192
184
196
194
197
198
196
204
199
206
191
189
199
204
206
215
202
200
205
212
204
200
190
191
186
182
171
175
174
175
174
183
175
181
186
200
179
187
195
197
208
214
207
189
185
185
191
197
202
208
204
216
231
214
204
211
207
194
196
187
192
192
189
178
172
178
178
182
170
170
169
164
162
171
170
168
175
193
193
185
186
173
168
173
181
180
178
179
177
174
188
186
187
190
198
199
201
202
194
200
195
209
200
194
196
203
210
209
212
211
212
216
211
204
193
196
189
191
180
172
176
181
180
177
173
185
180
183
189
191
194
192
199
211
214
202
188
190
196
197
203
207
209
204
211
223
206
201
208
195
196
190
185
176
179
173
168
173
178
170
162
168
164
157
167
174
179
175
186
192
193
196
184
177
176
185
195
188
186
180
185
192
191
184
182
191
199
206
202
197
191
192
206
205
198
197
204
204
203
198
209
221
227
224
217
215
204
202
197
197
191
186
177
180
177
174
174
180
187
183
193
195
191
197
191
206
202
207
201
189
198
191
195
209
205
210
208
210
216
203
191
196
201
184
179
172
175
178
177
168
165
161
164
167
167
172
172
174
186
185
188
196
198
194
184
186
186
193
197
191
196
189
190
188
191
195
196
199
205
208
202
202
197
197
212
206
197
194
203
205
200
203
208
212
225
213
212
210
210
203
206
199
188
182
181
181
183
175
177
172
193
196
204
198
197
202
200
208
205
213
203
193
196
195
199
209
206
207
214
206
210
214
199
196
195
180
173
176
180
177
188
171
167
156
160
165
167
175
178
183
189
190
196
194
195
190
189
181
189
192
189
190
191
193
198
199
195
194
196
197
205
208
202
206
206
215
220
211
202
199
195
187
198
206
208
211
207
208
216
215
207
196
204
202
190
187
202
180
186
176
175
178
182
201
210
202
203
209
208
204
210
212
224
198
184
206
209
213
206
208
208
205
209
215
211
193
186
168
169
170
181
192
186
170
157
162
170
170
174
182
183
198
191
202
194
198
190
192
189
185
192
192
197
195
193
198
206
196
193
201
201
204
205
207
206
209
204
219
218
207
206
201
194
188
190
201
202
205
202
204
205
207
204
198
201
186
202
216
199
199
199
189
185
184
180
199
203
199
202
213
213
203
211
212
221
216
186
198
215
214
210
213
206
205
205
219
223
182
175
158
171
167
194
199
172
166
169
168
175
167
178
184
191
203
198
202
201
202
194
193
197
192
201
204
204
206
202
205
202
200
200
207
208
212
216
213
211
202
209
213
223
211
210
199
187
187
189
195
201
196
200
200
200
203
202
199
202
205
206
214
213
201
201
202
192
192
190
187
207
205
200
207
212
212
198
209
215
217
194
187
200
221
205
220
213
206
206
219
217
176
172
161
178
193
195
190
177
181
179
175
179
175
183
184
194
206
196
204
209
204
196
191
199
201
203
208
207
210
209
205
200
206
210
216
222
221
208
213
209
203
199
206
211
214
210
202
192
184
192
192
198
200
198
196
198
200
190
196
205
201
204
211
212
199
203
203
197
195
193
196
208
211
200
205
219
212
209
209
213
221
197
184
203
206
200
211
220
207
212
215
208
185
174
178
202
196
193
185
193
191
184
184
186
176
180
194
204
205
205
204
202
208
201
199
198
200
208
208
205
208
197
194
202
206
206
206
217
208
200
210
207
195
199
204
200
203
211
198
197
195
191
192
190
190
197
194
194
188
187
186
197
197
196
198
199
187
197
196
209
194
194
200
209
216
201
199
215
213
223
208
212
211
199
188
195
200
200
205
216
209
213
214
197
191
181
191
198
190
193
190
199
189
191
187
180
180
191
202
201
207
206
198
202
204
197
193
197
197
198
203
198
195
193
194
190
196
193
195
197
197
192
200
192
185
190
191
197
192
196
196
191
192
193
188
188
186
181
193
184
189
193
187
189
198
196
200
193
184
192
194
195
194
182
202
208
206
208
202
215
216
229
211
202
202
192
190
190
198
200
203
215
212
210
206
196
189
187
184
190
201
202
203
191
199
200
191
179
183
200
195
200
211
198
197
200
201
191
190
195
194
191
187
181
183
183
180
178
181
181
187
186
185
185
186
182
174
186
182
189
190
179
191
184
186
188
185
183
183
182
187
182
183
196
189
187
197
200
200
191
188
190
187
188
195
190
201
203
201
200
204
196
200
207
210
199
201
192
194
196
200
219
206
211
215
216
203
199
198
185
182
191
206
197
199
188
188
197
191
189
189
199
198
201
200
198
191
198
199
186
179
186
188
182
176
169
169
171
174
169
173
174
173
181
179
181
184
186
181
184
186
185
183
180
180
180
179
181
177
177
182
179
182
171
174
180
189
190
194
194
188
191
194
183
180
186
188
197
196
199
194
194
193
200
192
200
203
205
204
195
184
200
199
219
222
207
213
211
215
196
184
179
191
192
194
193
189
189
182
186
184
187
199
201
202
203
198
195
184
190
197
184
184
177
178
168
155
159
165
168
171
177
175
171
172
174
175
183
187
189
186
182
187
184
182
177
178
172
173
175
175
170
175
172
175
173
175
168
174
179
186
179
194
191
190
192
181
195
190
196
195
196
191
187
182
191
197
195
204
204
203
198
183
184
202
214
220
210
218
211
219
192
189
179
196
196
185
188
196
192
186
183
185
192
202
209
207
206
193
190
183
181
192
188
181
169
163
151
144
154
162
162
167
169
171
169
168
168
173
175
185
190
185
186
188
182
185
180
172
170
171
170
177
174
178
171
167
165
166
158
170
173
175
178
189
198
194
197
193
191
188
198
193
192
189
181
182
191
200
195
197
202
203
188
190
185
201
209
220
217
217
215
223
201
179
187
197
199
185
188
197
198
182
185
189
191
202
207
203
201
185
181
174
167
175
184
173
157
147
140
151
154
162
164
163
165
164
164
165
164
170
171
182
186
184
186
183
181
180
178
169
168
171
174
182
173
170
173
165
160
157
158
165
166
172
184
193
201
196
194
201
190
195
195
189
193
177
175
176
190
195
186
192
201
203
199
182
198
198
205
212
216
207
219
217
214
179
198
192
201
186
193
199
191
183
184
187
193
203
209
205
192
175
175
168
155
161
171
165
152
154
151
165
162
166
174
171
171
168
164
164
163
163
167
177
178
175
174
179
177
177
179
174
171
167
176
172
169
166
169
168
162
151
160
161
160
168
179
186
192
187
186
195
190
195
198
192
193
173
159
166
184
185
184
180
195
208
202
191
198
210
207
216
208
206
206
218
213
182
195
195
194
192
196
195
188
180
184
184
193
211
204
187
178
179
176
167
163
161
166
165
163
165
165
169
168
172
181
183
179
182
177
174
170
170
176
180
180
176
168
175
176
176
176
177
177
170
171
174
166
163
167
164
165
158
160
167
161
178
180
181
181
178
185
186
191
192
201
202
190
180
158
157
173
180
186
177
193
210
208
193
198
212
213
225
214
203
199
218
219
185
194
191
191
206
190
190
191
172
173
188
197
204
189
173
176
179
175
172
167
167
175
177
171
172
171
175
177
181
187
188
185
186
183
181
179
183
190
183
188
189
168
172
179
188
182
182
186
177
174
170
166
162
180
171
167
165
172
179
178
187
188
190
185
187
187
192
190
193
195
200
193
182
168
154
168
175
183
181
186
204
198
197
193
196
195
221
221
207
196
209
227
191
194
195
188
204
193
192
184
173
172
192
205
193
182
181
180
179
176
173
168
181
187
184
183
184
186
190
188
186
184
183
186
189
185
186
192
198
198
191
192
197
187
180
184
195
187
181
185
185
181
172
173
171
179
178
175
172
179
187
189
190
183
190
187
184
183
188
188
188
190
195
196
191
176
165
167
168
181
181
193
195
200
201
194
193
185
197
215
206
194
202
227
193
195
194
185
196
193
192
180
187
181
207
203
189
186
185
178
181
176
171
175
185
178
181
182
187
192
198
198
196
196
198
200
197
195
194
201
209
207
197
199
202
197
192
194
201
198
198
191
193
188
186
186
185
183
182
176
178
181
183
180
177
179
182
187
181
183
184
185
185
188
193
193
196
182
178
167
171
176
184
181
192
197
200
197
192
187
188
207
199
191
197
222
194
191
196
188
197
192
194
192
191
194
206
204
190
187
184
177
179
176
172
182
189
184
181
183
180
184
190
191
189
188
188
198
194
190
188
200
201
205
207
203
204
199
195
193
195
200
198
198
190
195
195
191
188
190
184
183
181
182
182
177
175
188
184
184
182
187
185
185
187
189
192
194
199
190
183
173
174
175
187
185
182
195
201
200
189
187
192
188
204
184
185
213
188
195
201
186
202
194
193
194
196
199
200
203
189
188
180
173
175
175
178
186
189
185
190
186
177
178
181
177
178
176
179
186
181
181
179
189
196
203
208
213
211
205
199
195
198
196
198
198
198
196
194
195
192
187
179
176
177
178
174
173
170
180
181
186
186
194
191
198
195
192
193
195
194
195
188
172
167
180
187
191
194
188
195
206
196
189
187
189
194
188
185
189
184
188
210
193
201
191
194
200
203
200
197
200
193
184
173
170
172
175
184
190
195
185
185
181
175
170
174
176
172
176
178
185
182
180
185
181
192
194
201
207
207
206
198
198
198
197
199
198
203
200
191
191
191
189
184
178
178
174
171
173
166
174
178
186
184
192
198
205
201
199
193
197
193
190
193
175
161
173
188
187
199
196
193
207
200
193
181
187
188
193
179
189
177
185
205
191
200
188
198
197
198
196
202
201
189
178
168
167
169
179
186
191
183
177
172
171
170
178
179
184
178
179
180
181
181
183
188
176
183
187
184
191
192
196
195
196
192
198
198
201
202
199
195
192
196
194
192
182
175
179
171
163
168
180
169
180
178
184
190
196
200
198
195
192
195
194
188
181
174
165
181
193
190
192
195
204
211
198
186
196
191
193
172
185
169
186
198
190
200
198
204
190
191
200
205
200
177
170
164
162
170
175
177
179
172
169
168
166
174
183
183
189
185
178
179
177
182
182
180
176
177
180
178
182
184
188
191
193
191
194
194
202
200
196
196
196
196
202
197
192
187
181
172
166
169
181
157
175
175
175
180
180
187
192
190
191
197
193
192
191
179
184
179
188
185
184
182
209
209
208
194
208
200
190
177
161
162
186
190
188
202
200
194
177
189
208
201
189
172
166
160
155
172
170
168
171
167
165
172
176
181
189
185
186
188
181
174
181
177
180
171
178
172
178
182
185
182
185
189
186
191
191
195
199
204
199
193
194
192
195
201
198
188
189
183
176
182
177
173
171
177
175
169
175
182
192
198
197
195
195
190
194
187
197
190
198
184
190
184
195
213
216
204
203
201
186
178
153
161
179
169
188
199
201
186
176
200
215
195
185
170
167
155
156
170
175
175
174
167
174
185
184
197
188
185
183
191
184
177
186
182
183
175
182
184
187
187
191
183
181
194
185
188
189
186
188
194
195
187
186
180
188
191
195
184
186
190
179
186
174
173
173
181
171
170
172
184
197
197
205
204
193
195
192
179
188
194
194
180
191
196
198
210
216
202
201
208
180
183
152
174
172
158
181
208
196
187
181
201
211
205
190
179
173
162
163
174
174
176
176
172
189
189
195
203
188
190
187
180
181
183
186
194
186
189
189
188
186
182
183
174
179
182
187
189
187
181
179
185
183
178
176
171
176
186
183
187
190
190
184
192
178
171
173
178
177
172
179
189
194
199
203
214
201
186
202
185
189
189
196
180
180
193
200
212
217
193
194
207
187
172
151
165
166
163
185
200
197
183
170
201
211
213
203
187
181
175
178
174
179
181
189
185
194
198
210
200
195
196
189
184
182
186
181
184
179
187
187
181
177
172
169
160
167
174
178
184
176
171
173
172
174
173
173
172
163
173
181
184
182
186
185
183
182
187
182
188
187
187
199
188
193
203
209
216
213
195
198
181
192
186
195
184
189
188
196
207
216
189
191
199
185
172
149
165
167
170
194
197
194
180
164
208
215
210
197
194
194
194
180
180
185
183
191
189
186
198
197
183
194
204
192
193
194
193
183
185
191
190
182
182
183
173
179
171
165
170
176
175
173
174
171
170
170
175
173
168
173
173
181
182
173
182
194
191
184
195
189
195
186
187
208
201
196
197
202
214
215
207
207
177
183
188
187
184
203
203
191
204
215
194
187
192
185
170
161
166
170
160
204
192
192
180
184
215
219
213
205
202
205
198
200
193
198
187
185
183
174
185
184
182
191
194
198
198
194
188
182
187
185
181
164
179
177
163
166
170
172
169
172
175
166
175
175
170
170
172
172
172
185
180
178
174
178
181
192
188
185
192
182
194
184
189
199
205
203
205
209
210
215
207
210
195
179
184
194
183
211
209
189
198
201
198
186
182
176
166
157
165
172
160
191
190
186
185
184
226
222
217
217
220
216
210
205
204
199
187
188
184
171
178
186
176
193
207
202
206
194
191
191
198
200
185
168
186
178
170
173
178
183
188
186
195
190
193
193
187
188
191
178
187
189
188
185
178
178
183
190
190
187
188
184
188
188
203
210
208
206
209
219
215
217
206
213
206
180
188
199
191
201
215
189
196
191
191
178
168
169
158
150
164
176
153
184
190
189
180
183
232
220
209
215
217
217
214
206
199
191
184
199
190
182
191
186
190
198
208
205
207
196
202
202
206
212
190
176
194
191
190
190
190
179
192
187
203
198
202
200
200
201
205
200
202
199
198
187
170
175
172
171
178
182
182
188
192
198
212
209
205
216
208
215
212
203
203
210
213
186
181
203
191
202
207
185
193
189
190
176
161
156
150
149
170
179
173
185
199
199
170
189
232
214
199
206
214
209
210
206
200
191
188
199
187
189
196
201
210
202
206
210
203
199
209
214
218
208
182
172
190
199
199
197
198
184
194
189
205
202
207
201
205
205
199
200
203
201
192
186
179
169
165
168
163
166
169
175
181
188
190
188
198
207
215
215
206
199
191
201
209
204
169
198
203
205
210
185
191
195
193
172
176
159
137
139
174
185
173
202
201
198
177
184
233
213
204
216
228
232
226
227
216
210
212
210
198
174
175
181
178
179
178
188
181
189
205
215
217
202
186
180
181
191
202
204
205
196
203
205
202
206
217
211
214
210
203
196
200
191
190
186
178
172
173
173
159
161
164
159
171
161
176
173
175
186
214
215
205
195
192
201
211
219
187
197
195
213
209
202
194
194
189
163
172
176
127
140
187
204
171
202
206
202
189
191
227
206
198
210
222
221
228
226
223
217
234
213
191
166
154
150
151
165
187
174
186
185
198
210
205
211
194
193
190
191
196
197
205
200
208
211
206
201
227
221
218
208
193
179
179
175
175
167
164
164
166
166
152
134
129
129
159
157
172
173
174
173
200
214
205
194
184
200
202
215
206
196
200
200
212
208
199
193
181
156
171
175
142
145
190
214
187
193
203
213
201
199
210
189
184
195
202
217
221
221
227
224
236
233
223
208
220
204
197
196
175
179
168
179
194
212
205
214
209
198
200
199
195
203
202
199
209
204
207
203
213
212
212
206
199
198
191
196
181
173
187
175
175
184
156
152
162
158
179
175
184
172
173
175
182
199
209
189
180
185
197
209
200
198
200
202
209
205
201
189
171
153
168
162
162
145
185
200
184
180
195
207
212
197
201
186
182
185
185
188
198
184
206
206
205
200
199
191
235
232
232
181
185
189
179
171
185
187
180
200
204
199
200
206
196
208
202
200
207
195
193
195
195
206
208
212
206
192
206
205
182
153
181
197
190
195
173
201
189
181
198
204
183
186
186
173
172
180
202
189
180
176
194
207
195
188
193
207
192
199
191
172
156
146
166
172
178
169
181
184
183
155
172
189
205
190
190
187
190
179
183
192
200
182
202
208
210
207
191
182
216
221
240
187
177
175
178
169
177
163
165
197
190
194
206
207
208
202
200
191
192
190
181
192
192
183
190
179
171
166
189
201
196
176
199
205
207
197
177
215
203
206
204
218
198
199
195
179
166
171
185
183
189
179
193
198
181
176
178
208
193
182
176
163
147
152
157
192
179
182
172
171
173
141
142
178
193
179
184
183
188
187
193
203
212
204
218
222
224
213
206
197
230
244
241
212
202
204
196
181
188
199
206
204
208
201
216
220
220
212
197
188
182
177
185
199
196
190
190
189
171
174
178
181
193
189
202
203
197
208
190
216
207
209
201
212
219
212
196
186
174
175
176
186
191
190
194
189
173
167
167
196
191
170
161
159
141
148
163
202
179
187
177
171
172
147
163
175
175
170
172
189
191
192
193
197
203
203
216
224
215
212
203
192
195
202
205
212
191
206
201
195
165
201
198
199
209
206
223
231
231
217
194
190
178
182
204
218
203
196
197
187
185
194
189
186
175
187
199
210
210
200
202
205
219
229
223
227
213
199
193
191
182
179
178
191
197
198
202
184
163
165
165
201
193
174
160
156
140
141
170
197
185
178
181
184
182
161
166
177
175
180
182
186
201
192
191
191
197
194
204
210
206
200
197
196
190
188
205
204
201
194
189
182
157
170
207
208
203
195
218
234
231
211
200
181
184
192
200
210
202
196
203
190
176
203
199
190
183
177
194
199
197
191
201
193
179
215
210
216
200
205
212
206
200
189
184
183
181
180
198
175
157
164
175
211
200
181
175
179
167
142
171
190
188
180
179
199
187
175
173
174
184
217
196
175
192
189
186
187
184
187
192
201
200
197
197
198
193
172
190
205
200
196
199
182
154
155
189
199
191
198
212
224
222
213
187
167
182
188
201
205
204
202
204
194
181
197
204
194
195
180
187
206
202
196
213
202
190
194
200
200
194
197
215
215
211
210
177
168
156
158
177
176
158
167
169
210
205
185
206
212
199
173
174
191
195
182
180
200
189
186
173
165
162
171
168
158
178
178
180
174
174
176
182
186
177
169
169
165
171
153
161
182
167
175
180
157
159
152
162
177
173
175
173
183
200
184
177
173
169
190
201
200
193
190
196
202
189
181
191
176
175
180
191
192
183
197
213
221
209
207
196
193
187
190
213
210
200
196
163
166
163
161
175
178
157
159
172
188
199
179
213
213
197
184
185
196
198
183
179
198
181
188
170
161
134
128
163
151
169
173
171
174
174
172
164
164
157
164
171
168
169
154
144
159
160
175
181
158
141
154
154
162
178
181
192
212
205
195
190
188
170
189
198
203
198
195
203
186
181
184
195
184
175
174
181
172
182
196
205
200
192
193
191
179
188
194
190
194
196
181
175
180
185
177
179
189
167
149
175
185
187
201
215
198
157
174
189
202
205
189
200
189
164
185
159
156
134
128
161
159
165
176
179
173
176
167
163
159
161
168
167
166
162
162
164
182
175
177
182
174
158
155
146
159
168
179
191
200
190
184
196
204
177
178
198
195
196
201
202
195
189
196
195
188
184
193
196
193
189
205
201
199
190
182
189
186
184
182
172
173
189
181
194
199
197
184
179
197
169
162
173
181
195
222
230
202
173
165
185
207
208
192
216
189
156
173
164
154
139
133
166
161
164
173
178
178
178
177
180
171
175
171
159
163
169
172
168
183
177
179
181
174
164
158
155
162
160
179
189
184
181
178
199
217
185
174
199
199
200
213
210
198
194
200
199
184
185
190
205
190
188
193
190
185
186
193
190
190
180
175
177
188
190
196
200
202
200
189
184
196
178
170
175
191
225
244
231
217
188
166
185
216
208
189
220
195
153
171
166
154
142
147
174
163
162
171
175
175
173
181
177
171
178
179
165
156
161
167
171
169
172
172
177
173
166
151
164
156
152
178
184
183
179
185
197
213
186
170
189
195
207
212
212
200
189
198
203
198
191
199
186
184
186
181
182
184
181
188
189
190
178
181
189
202
195
205
206
202
200
189
186
199
185
170
177
200
234
241
205
209
195
172
187
228
209
190
215
184
144
183
161
151
141
167
178
169
166
170
177
179
176
176
182
181
176
181
167
161
162
172
177
177
178
180
190
177
165
167
162
138
152
172
180
190
191
189
192
205
179
167
176
197
205
212
223
211
202
196
201
199
197
200
195
190
198
191
191
190
184
182
184
182
175
183
194
204
193
210
203
200
201
193
187
199
200
153
185
192
216
219
206
201
193
184
186
233
207
186
206
191
137
183
174
153
137
180
186
171
175
179
170
180
180
179
174
180
179
182
163
158
166
168
175
180
178
182
184
179
161
160
155
136
157
178
187
193
193
189
187
197
184
177
159
203
219
213
229
218
208
202
200
197
197
202
197
190
194
194
205
204
196
196
194
184
181
192
197
199
186
202
198
198
199
191
184
199
205
161
180
186
207
208
208
191
190
195
201
232
197
185
206
199
157
184
178
170
147
173
184
184
183
182
179
180
183
181
178
178
176
180
183
176
180
183
185
184
181
183
182
170
148
153
150
151
172
187
194
195
191
186
187
195
185
180
178
184
214
217
226
221
210
199
196
199
195
203
201
195
195
190
201
209
202
204
208
197
195
196
199
201
194
197
198
196
199
192
189
202
204
166
185
180
174
205
210
198
187
203
214
224
195
178
209
205
155
189
173
175
174
169
192
190
186
184
187
178
183
182
174
174
174
174
183
188
183
189
193
196
187
185
174
167
160
165
162
171
178
193
200
201
189
186
191
195
196
186
188
192
207
222
219
224
209
197
199
203
194
199
198
200
204
194
203
209
199
200
212
204
196
200
200
206
202
202
202
199
198
196
192
199
206
184
196
188
163
187
208
195
193
212
213
210
180
179
211
214
158
185
178
169
189
186
199
200
195
175
187
176
180
178
182
176
178
179
182
190
192
197
204
202
196
189
176
171
172
165
175
176
188
198
204
207
195
195
198
193
195
188
187
206
200
211
211
213
209
196
192
199
188
182
187
199
200
206
209
201
200
201
205
205
195
203
197
194
201
198
199
197
201
193
193
201
207
192
203
206
172
186
201
187
196
214
217
190
177
178
213
223
186
183
177
174
187
187
195
201
200
176
182
178
178
185
183
177
178
182
183
192
195
197
204
206
202
195
178
166
167
173
186
185
193
200
203
207
196
192
196
197
196
198
196
194
204
200
201
207
214
209
196
196
185
180
179
189
190
199
200
198
199
201
202
200
193
201
192
194
199
197
198
199
193
194
202
204
200
200
212
211
189
187
180
174
206
217
204
176
178
182
197
222
199
192
177
178
201
186
195
197
189
180
186
178
186
182
185
179
178
180
180
186
199
197
200
200
197
191
176
165
166
180
183
195
204
216
214
203
193
194
198
201
201
196
205
199
207
200
193
193
212
222
204
199
194
188
181
186
189
198
198
195
199
195
196
188
186
185
187
197
199
194
196
194
192
190
200
203
197
205
213
209
210
187
158
172
224
203
197
171
181
180
198
195
206
197
179
170
202
192
196
204
198
188
194
182
184
181
181
177
178
173
177
181
191
192
192
189
184
176
186
169
169
177
186
203
217
229
223
203
195
199
207
206
200
193
206
203
210
205
198
171
197
221
205
192
190
193
183
184
190
193
192
189
191
188
186
184
185
181
195
198
201
191
197
197
193
189
194
196
199
199
210
210
222
182
145
177
221
189
189
174
184
179
188
185
177
199
197
162
179
198
196
210
207
193
197
189
178
169
166
169
172
168
172
181
182
185
176
173
170
176
176
161
164
174
185
196
222
235
227
217
202
195
209
203
200
203
207
198
205
205
202
183
170
205
206
192
189
187
183
179
180
183
181
178
173
169
166
166
175
183
189
194
200
191
195
195
192
192
187
188
196
199
211
217
221
167
152
188
199
186
190
173
185
180
180
178
168
173
208
187
181
179
198
207
207
194
193
191
177
166
161
166
163
167
163
163
164
168
162
168
173
173
158
148
159
161
171
185
204
214
222
218
208
197
194
189
195
200
190
187
196
200
193
190
176
166
184
180
166
166
163
161
162
162
165
166
161
162
172
177
177
181
186
193
197
192
190
191
192
194
187
190
189
196
218
229
204
165
172
188
181
191
181
179
189
173
184
174
169
171
199
200
196
190
188
199
201
182
183
191
179
159
161
169
176
178
166
166
162
171
165
168
167
162
140
150
148
151
167
185
197
196
207
213
208
202
190
195
184
181
180
179
192
191
183
179
182
171
184
190
164
156
164
163
161
165
163
168
167
172
177
180
181
181
187
194
195
195
191
190
194
199
195
197
196
195
212
205
182
168
175
175
183
188
182
187
185
172
184
179
172
168
199
188
190
191
189
202
194
182
178
188
177
165
165
174
183
181
166
172
165
167
166
161
160
150
142
149
151
153
167
180
191
192
185
204
215
202
206
197
188
182
182
177
189
184
172
171
176
177
184
189
172
170
176
172
168
175
171
172
173
171
174
182
182
181
187
193
194
196
194
190
195
194
193
202
191
198
180
179
175
170
172
179
182
188
174
189
181
173
186
185
174
167
189
191
177
180
165
180
192
188
173
185
176
175
176
178
180
185
172
167
176
174
164
163
163
156
157
149
160
162
166
168
174
184
193
199
222
220
202
198
187
182
180
183
191
191
189
188
188
199
195
195
181
178
183
176
168
174
172
172
173
174
174
180
182
185
188
195
186
195
186
192
193
189
190
197
187
191
185
187
184
174
177
179
186
176
177
192
177
180
196
184
187
172
173
191
176
178
163
171
180
195
169
177
182
183
187
181
179
180
173
172
176
178
176
172
170
166
167
165
172
167
164
165
165
161
179
198
206
208
204
206
192
185
182
180
190
194
204
213
214
214
204
201
191
184
184
192
176
175
175
175
174
171
173
180
182
183
191
189
189
191
187
190
189
182
182
195
183
190
202
189
190
181
182
181
188
176
182
187
178
179
199
188
184
177
179
180
178
178
164
170
176
191
169
164
186
184
185
179
181
179
180
180
179
185
189
189
176
171
175
174
165
159
154
155
159
154
160
184
200
202
198
198
199
199
193
177
185
203
217
218
211
208
202
199
191
191
184
191
186
185
183
182
180
182
181
179
185
187
186
184
190
187
184
190
188
186
184
192
184
195
200
192
194
187
187
186
176
181
183
181
180
182
195
188
179
186
184
176
181
197
169
165
175
179
178
168
188
187
188
185
183
188
189
186
188
195
196
194
186
184
184
184
169
161
154
151
152
148
149
163
176
178
174
191
199
197
187
184
191
199
202
198
197
199
197
194
193
190
188
190
189
185
187
189
184
188
186
184
183
183
182
180
187
181
185
191
183
183
185
187
180
187
194
191
192
185
190
180
170
184
178
181
181
185
202
190
181
190
185
184
183
205
187
164
174
170
185
179
188
189
185
185
186
188
187
185
193
196
191
188
181
184
184
180
173
170
159
151
157
151
147
160
166
164
167
176
187
189
181
185
188
184
185
179
188
190
188
185
183
177
182
188
183
183
181
186
185
192
188
190
186
179
182
180
187
182
186
186
172
171
186
181
169
189
178
186
184
186
188
165
174
182
181
184
180
194
197
189
189
190
186
200
184
189
191
173
172
167
194
186
189
194
188
179
184
183
187
195
189
195
187
179
170
179
181
182
175
191
185
182
181
171
177
191
184
182
176
183
182
185
177
179
185
172
169
170
178
184
182
180
183
172
178
183
177
181
185
190
195
192
186
188
191
184
180
182
183
181
185
178
159
170
176
177
159
175
174
182
175
179
174
160
173
178
187
185
188
190
191
189
190
179
192
215
201
179
180
181
171
173
196
198
191
193
189
179
181
181
189
188
191
200
188
190
172
172
180
183
189
209
205
205
204
200
199
204
193
189
178
185
188
181
173
176
187
183
174
170
173
183
181
183
185
173
189
182
175
172
190
187
197
198
193
191
194
187
183
178
183
182
182
175
156
165
173
173
152
165
168
176
160
169
168
163
170
183
186
186
194
192
192
191
181
181
190
213
208
182
180
180
178
175
187
207
198
186
185
180
174
182
184
186
192
208
188
190
188
196
192
195
198
217
221
219
222
223
217
212
204
194
181
179
186
181
172
173
189
185
185
183
176
190
179
183
186
186
190
188
183
182
189
190
193
197
197
190
187
180
185
183
183
184
181
177
164
173
179
171
155
158
165
163
150
168
169
167
174
186
186
191
192
197
194
189
177
175
192
198
210
191
177
189
182
186
180
205
200
184
180
179
174
173
180
190
198
209
197
187
194
197
201
203
206
211
227
227
226
224
226
226
214
194
187
175
177
178
179
180
189
185
184
189
186
189
177
173
185
178
182
185
175
187
197
197
196
191
189
189
182
183
180
186
185
186
191
190
182
192
187
170
163
158
159
153
152
167
169
166
177
184
184
190
196
200
192
188
182
177
179
189
206
198
183
185
189
186
183
201
207
187
184
182
169
171
177
189
199
204
190
185
190
185
190
203
203
201
211
216
208
205
207
215
207
200
199
198
186
185
197
210
220
218
200
196
191
196
177
172
171
166
165
177
174
185
195
191
197
190
182
189
187
182
178
188
182
193
199
199
199
200
189
170
157
163
163
154
159
170
167
171
176
184
183
190
200
204
199
189
184
177
168
176
200
203
176
188
192
188
191
192
217
199
196
192
166
172
172
190
197
190
189
185
185
177
185
191
186
181
192
197
196
192
199
210
218
212
199
202
196
198
206
209
218
226
217
199
191
193
176
171
176
165
169
179
178
183
184
185
185
189
184
185
194
187
181
181
184
194
205
204
207
207
189
164
162
165
168
160
160
166
170
172
177
181
180
185
200
207
197
197
190
179
163
166
192
193
182
177
201
196
188
191
214
207
196
199
185
179
176
195
198
189
180
176
168
174
171
175
176
170
171
172
179
177
199
213
224
223
210
207
203
202
207
202
208
216
210
201
181
179
179
167
176
174
181
183
187
183
179
184
183
187
182
188
187
187
182
183
187
199
205
205
212
205
194
161
171
171
167
161
167
165
171
179
174
179
184
182
202
202
192
202
190
179
167
163
182
188
183
180
192
201
190
193
203
205
194
191
191
193
195
200
211
194
186
167
162
159
167
171
174
172
171
163
164
165
179
199
211
198
195
200
193
191
191
187
189
194
191
179
161
162
159
151
160
170
175
181
182
183
181
181
184
184
182
181
183
179
181
182
187
199
208
206
216
211
185
163
173
173
162
163
168
164
173
180
177
177
185
186
200
200
194
199
195
184
175
167
169
189
186
180
186
204
195
191
189
201
193
189
193
195
202
204
206
205
198
182
192
182
187
187
196
193
194
192
192
196
201
205
211
206
198
197
193
186
187
189
184
179
181
174
175
177
176
172
170
171
176
180
180
180
184
181
189
178
178
180
182
176
179
187
195
206
207
204
217
208
181
169
175
172
161
165
166
166
179
182
182
179
184
189
201
207
198
193
192
192
179
176
169
185
186
184
178
198
194
190
184
188
188
196
194
201
207
203
203
203
202
199
212
212
216
215
221
203
208
208
216
219
226
227
226
217
211
213
207
199
206
205
197
198
197
195
196
202
198
201
192
192
190
189
183
184
177
178
181
173
182
180
176
178
185
191
202
214
204
198
221
208
178
172
175
169
163
167
164
171
180
184
181
184
184
187
209
210
188
189
199
193
179
181
175
177
184
174
183
192
197
187
186
177
184
190
201
202
209
200
200
203
202
208
212
220
208
192
195
186
184
186
187
190
198
203
206
199
199
204
196
194
195
193
194
190
184
187
183
193
190
192
194
194
192
190
187
181
174
174
174
174
182
179
172
178
184
196
202
220
192
195
220
205
185
176
176
160
167
163
164
173
180
180
184
181
184
186
209
208
187
193
206
186
182
183
177
168
187
173
182
194
192
184
185
187
176
187
200
199
201
203
199
202
207
206
206
206
194
171
170
167
174
170
169
167
168
177
180
180
187
190
184
183
178
174
173
172
172
169
175
180
184
184
184
187
191
181
183
180
183
180
179
185
183
180
174
178
189
196
207
204
189
198
214
206
191
180
165
166
168
167
165
181
176
182
183
184
182
191
202
206
195
206
190
184
187
182
172
169
185
178
177
184
184
183
194
193
174
181
191
196
206
206
202
201
209
207
205
208
189
174
169
166
168
172
166
165
164
165
166
166
174
190
188
189
182
185
178
179
182
179
181
188
188
193
184
177
196
189
186
185
185
187
190
184
180
183
172
184
194
203
205
194
179
204
212
198
189
192
168
171
168
169
166
179
178
180
183
189
188
190
201
204
204
204
185
183
183
179
172
172
183
181
176
183
172
187
194
180
171
180
186
193
206
210
200
205
211
207
204
210
199
186
183
183
181
182
184
174
172
175
171
172
172
182
185
189
186
195
192
190
184
187
192
184
183
185
181
180
187
189
187
189
187
193
188
182
179
180
179
189
199
204
201
186
180
204
210
197
182
197
186
176
168
172
168
172
177
179
183
186
188
196
200
196
203
197
185
182
179
186
173
170
180
184
186
167
164
192
185
165
162
174
191
181
200
209
204
204
202
203
197
201
198
192
188
190
187
184
191
187
182
183
185
182
176
182
183
188
195
198
198
197
197
200
196
185
179
188
183
187
188
185
182
185
190
189
188
178
179
179
185
196
201
201
192
182
180
215
200
195
177
179
198
187
173
181
175
167
178
182
182
185
188
197
202
201
199
194
182
177
176
186
180
171
177
187
184
157
175
205
170
146
162
180
184
182
189
200
205
202
198
197
194
195
192
196
187
191
187
187
192
194
194
197
201
201
198
195
193
200
202
205
202
208
201
195
195
188
185
187
186
186
186
179
184
187
190
189
184
180
184
183
189
198
202
197
193
175
185
218
201
179
184
168
194
194
186
189
183
176
171
177
184
186
187
198
208
205
201
190
181
171
178
182
192
168
186
188
183
180
204
186
166
142
149
180
195
182
176
195
201
199
195
194
191
196
192
195
190
193
182
187
185
183
189
196
203
209
211
203
208
212
215
211
210
211
197
194
197
195
194
189
190
186
185
184
184
191
192
186
181
184
192
190
189
198
203
196
191
180
200
213
202
180
171
173
180
198
198
193
184
186
174
177
175
185
183
200
211
210
189
186
177
172
177
182
199
182
195
181
199
193
205
174
167
140
144
173
199
191
171
183
196
198
190
189
188
190
189
191
195
188
188
188
182
182
182
189
195
202
198
199
201
206
206
205
200
208
193
199
194
197
192
186
193
189
190
188
183
191
187
184
181
189
191
190
188
198
200
200
187
193
203
214
195
183
180
166
168
198
206
199
189
191
180
175
174
184
183
198
211
210
189
186
183
179
179
194
204
192
174
196
215
196
212
166
165
151
143
162
193
204
183
170
185
193
190
183
182
180
187
192
192
186
192
185
183
178
178
179
185
184
186
188
192
193
192
195
193
194
192
195
187
192
186
184
190
190
189
190
185
187
186
184
181
190
188
192
181
194
203
193
198
203
202
212
193
177
184
166
160
195
203
206
194
198
188
181
178
180
187
194
208
209
202
194
194
188
195
194
202
183
178
214
213
209
196
170
169
150
161
164
186
197
197
182
176
189
193
185
183
182
184
187
185
182
186
184
178
174
170
172
170
170
171
179
179
185
181
185
182
186
183
184
181
181
179
182
184
190
185
188
184
187
181
190
188
187
191
187
187
194
203
200
199
210
209
204
194
182
173
165
161
191
204
198
197
193
198
191
187
184
191
204
209
215
201
193
195
197
195
192
197
164
185
199
208
217
179
187
179
151
166
170
184
179
196
202
186
184
189
191
186
182
182
188
188
189
189
183
182
179
173
173
171
170
170
168
168
170
174
168
169
173
173
175
177
168
173
181
181
185
181
181
184
181
184
188
188
191
187
190
184
198
198
210
198
218
211
208
190
191
169
164
164
183
202
195
195
196
201
200
185
190
190
204
212
206
199
193
197
202
186
174
170
183
198
192
214
208
182
204
172
158
168
173
171
175
190
201
207
192
189
192
190
190
191
192
197
194
191
185
180
178
181
175
173
173
176
170
168
172
173
168
167
170
170
174
177
172
174
178
178
181
181
183
183
188
187
190
191
190
187
183
185
196
205
208
210
220
212
204
188
199
173
163
165
176
193
195
191
194
194
204
192
189
188
202
204
209
203
199
187
193
180
170
165
195
192
195
216
197
199
211
171
160
177
165
167
181
195
203
207
206
196
190
193
194
197
191
196
195
192
190
185
184
187
185
179
179
180
182
175
180
177
168
173
172
171
174
176
176
174
180
177
179
178
186
185
191
182
191
195
194
183
181
184
197
206
210
223
228
209
201
196
183
193
160
169
170
191
199
181
192
192
195
196
189
191
201
209
205
205
189
191
182
172
161
168
196
184
194
214
196
216
213
171
164
167
163
177
174
191
208
208
205
210
194
188
194
199
196
202
202
196
195
194
190
193
191
187
184
176
186
180
186
178
173
180
179
177
174
179
183
178
180
182
184
188
187
185
194
182
193
194
189
182
185
187
193
205
219
228
230
208
190
221
171
183
171
166
177
192
203
189
188
187
188
191
194
187
203
212
207
184
184
183
170
161
149
179
194
182
195
210
209
216
214
171
172
153
174
177
184
183
201
215
205
209
201
194
196
194
198
198
204
206
201
203
195
196
199
192
190
187
185
187
186
183
183
185
188
182
178
187
188
185
182
188
189
187
188
187
195
188
193
186
186
183
189
185
195
209
219
223
216
200
180
232
208
164
168
171
173
190
210
197
191
189
184
192
193
193
208
214
206
174
175
182
164
155
144
181
190
177
199
216
219
216
208
159
187
157
167
184
188
189
189
208
215
210
205
201
204
199
200
202
201
208
217
212
212
204
201
203
194
194
189
193
190
191
192
194
192
191
188
193
191
197
190
192
190
188
188
192
193
186
193
185
192
187
190
187
194
212
219
229
211
202
160
220
237
160
157
173
182
184
211
196
189
197
188
193
194
195
209
216
217
175
173
182
168
142
153
183
189
177
192
237
220
215
196
158
190
175
172
184
195
193
193
200
213
216
213
206
203
204
202
198
200
213
216
217
221
221
214
207
202
199
194
198
198
199
204
205
206
201
198
201
196
200
192
194
187
198
192
196
188
186
186
189
196
192
185
186
206
213
225
222
205
204
163
206
236
172
147
177
188
177
214
196
182
191
178
199
198
204
215
213
210
170
165
192
157
146
166
192
192
188
197
252
221
209
182
164
192
180
179
184
190
195
193
201
209
212
219
212
206
204
206
201
200
208
217
222
220
223
221
219
215
209
206
206
200
205
206
207
203
201
204
196
198
196
194
198
198
192
189
191
186
187
190
192
195
190
189
192
214
224
228
221
201
200
165
200
239
180
128
177
201
170
210
199
185
188
184
190
196
196
212
220
211
166
177
202
160
161
186
198
189
202
221
255
227
198
185
179
184
187
186
182
192
193
192
198
210
207
209
218
214
206
206
208
208
209
210
217
219
218
220
223
221
216
215
213
210
208
203
202
201
195
201
195
198
197
199
199
198
191
185
191
187
197
191
189
189
187
192
195
218
230
229
216
206
199
164
201
230
196
133
162
202
186
189
207
190
196
191
191
200
198
209
216
213
176
198
209
168
164
196
197
208
223
218
246
228
189
196
179
178
186
189
183
196
195
196
190
203
205
208
207
210
206
203
203
207
209
211
211
206
209
212
216
218
213
216
209
208
204
199
200
202
198
199
199
198
201
193
191
190
190
186
189
197
192
190
188
186
189
191
201
231
240
228
205
211
202
162
200
227
191
152
179
186
189
182
207
195
193
199
189
205
202
212
220
212
181
203
198
172
193
220
201
206
239
206
229
225
190
194
189
176
187
184
190
206
197
191
191
199
200
203
201
204
206
202
201
200
202
204
211
206
202
203
214
212
207
213
205
210
203
203
204
208
198
196
197
198
190
190
189
193
186
191
190
193
193
188
190
192
191
196
212
241
235
223
201
213
202
163
199
218
190
161
196
208
192
170
199
205
197
199
192
202
201
220
222
208
190
203
210
193
204
222
186
204
246
195
220
237
196
187
199
180
192
179
192
210
204
194
195
195
203
201
197
201
203
198
199
200
194
198
204
203
213
205
212
205
206
203
207
207
203
208
206
204
196
197
188
189
188
191
192
191
190
192
189
193
193
190
192
193
199
206
215
241
232
214
206
214
185
171
196
213
186
174
189
222
214
174
188
186
204
196
196
188
214
213
219
216
