P2
# Face with average contibution
92 112
255
183
185
188
187
189
186
186
190
193
189
188
193
191
193
192
184
199
215
219
218
219
209
208
210
207
202
199
191
192
187
184
187
195
196
192
194
191
200
200
192
198
193
191
197
196
202
203
213
214
212
207
199
211
216
211
212
213
215
206
209
209
212
208
203
204
204
197
191
190
185
183
183
178
179
187
185
186
185
188
190
186
185
188
182
182
184
183
180
181
178
178
181
184
189
187
187
188
188
188
190
188
189
180
193
194
192
194
205
213
226
208
215
216
202
205
200
194
194
191
187
187
179
177
180
194
195
191
195
196
197
197
201
199
200
201
201
201
199
203
202
210
215
204
206
214
214
216
212
207
208
207
200
199
204
207
202
201
200
205
197
204
193
188
178
178
177
175
181
180
183
188
185
186
188
186
190
184
183
184
181
181
178
182
179
185
188
186
188
187
189
190
183
185
184
184
197
193
196
202
217
222
219
200
207
211
208
207
193
188
180
177
172
181
182
178
176
179
190
190
197
200
198
205
205
201
204
205
202
207
209
210
211
204
209
202
207
210
205
213
212
206
205
206
200
194
194
205
209
194
192
196
204
201
203
199
192
182
174
176
175
174
175
183
186
191
189
191
191
194
187
182
182
181
180
181
178
189
186
187
195
190
188
186
186
183
184
187
193
199
202
207
215
217
204
192
198
205
210
205
199
184
184
182
178
174
181
178
180
179
189
189
196
200
207
207
205
211
204
202
198
208
206
211
213
205
211
210
216
206
197
205
214
207
206
197
197
201
194
203
208
198
196
195
202
207
196
198
199
197
185
177
183
174
173
184
185
191
191
190
188
193
193
185
182
181
182
183
181
187
190
193
187
192
189
185
179
184
181
192
204
214
212
217
217
210
206
194
191
199
200
190
195
203
195
189
172
175
178
182
186
192
186
192
193
196
195
200
193
196
199
196
200
201
200
202
212
213
210
209
215
217
207
197
206
206
203
203
199
200
195
202
200
203
197
190
203
210
201
200
199
200
197
191
189
180
174
183
190
187
192
191
188
192
192
189
180
185
184
183
184
190
190
193
187
192
190
188
184
192
199
214
218
215
211
210
209
205
196
197
190
190
182
187
199
200
195
186
183
186
185
181
186
196
192
193
203
201
194
194
199
194
187
184
196
199
193
198
204
204
213
205
205
196
208
203
189
198
201
202
197
202
193
196
205
202
208
199
196
200
209
209
197
197
199
193
196
191
184
188
192
189
192
193
194
193
191
191
187
183
184
181
184
188
188
190
192
191
192
194
199
208
214
225
213
208
208
199
204
198
201
201
195
192
188
194
191
191
195
197
190
190
193
184
182
190
192
189
192
191
191
189
182
184
187
183
194
199
194
203
203
199
206
201
204
198
198
202
190
183
182
186
193
191
195
193
200
200
201
204
200
197
196
203
205
194
189
190
185
193
198
194
191
192
190
190
194
197
191
189
192
185
185
182
185
190
184
188
192
191
196
203
213
214
215
219
215
202
194
192
199
204
199
199
203
198
195
195
186
188
183
187
193
196
194
189
192
198
199
190
183
186
192
187
184
181
185
188
196
192
191
196
202
199
204
213
204
206
201
202
192
189
179
174
182
194
190
194
199
198
203
198
201
209
190
190
199
199
194
189
192
188
195
203
206
194
191
191
192
196
196
188
190
192
185
186
183
191
185
188
186
197
207
212
223
218
209
206
205
187
179
185
193
197
199
206
203
203
209
202
201
199
189
186
193
199
202
194
191
195
196
192
188
190
186
188
186
187
183
189
191
198
186
195
198
201
201
213
211
214
202
204
204
193
185
186
177
182
191
192
200
200
197
202
206
210
206
186
188
194
209
198
200
197
192
197
209
217
197
193
194
198
197
191
190
197
186
186
182
190
188
185
196
202
213
224
219
214
210
196
196
187
190
186
194
195
199
208
207
207
203
204
203
197
187
188
191
188
200
208
202
202
192
195
191
192
200
196
189
191
187
188
185
186
183
194
200
203
209
208
210
221
214
209
207
199
191
191
187
190
190
190
191
189
192
201
209
209
211
198
187
192
193
205
197
195
195
200
199
214
213
199
197
197
197
194
190
191
192
186
188
187
194
194
198
208
212
213
211
205
198
180
180
179
182
182
197
205
208
213
216
201
203
199
196
193
192
190
188
196
198
204
198
199
196
193
195
190
202
206
190
195
194
193
185
181
188
196
205
207
205
209
205
218
218
217
210
208
197
196
189
196
198
188
190
188
194
191
206
211
220
205
202
194
196
200
193
200
199
202
195
205
208
222
205
196
198
197
194
189
189
189
186
190
203
196
201
208
205
203
209
200
191
182
173
178
172
184
194
206
204
206
189
193
198
195
195
193
191
192
188
194
202
200
189
194
202
197
186
183
193
197
194
189
194
195
187
182
198
198
204
206
204
207
203
213
217
214
207
212
209
200
196
193
195
189
184
183
193
193
193
197
208
212
206
200
190
193
203
191
199
198
197
193
205
217
213
203
200
196
197
189
187
189
184
199
203
200
200
211
201
207
198
187
183
180
181
180
181
196
192
192
187
176
173
184
191
192
199
191
194
197
199
204
205
201
197
191
195
194
191
190
185
192
192
185
188
192
193
187
199
204
204
201
212
216
214
210
215
219
212
206
208
211
199
198
199
200
192
192
193
195
195
191
197
202
211
211
205
193
188
196
192
197
191
192
199
210
214
216
200
202
199
192
192
190
188
200
195
207
209
206
202
199
183
179
181
173
182
185
191
192
199
185
184
180
182
191
192
192
194
205
202
200
208
209
207
196
200
191
186
189
196
192
191
196
199
187
191
191
200
191
196
202
206
203
210
213
200
201
206
211
202
206
199
207
201
202
206
204
195
196
192
194
198
202
192
201
207
206
206
204
187
187
189
189
186
196
199
204
208
219
204
204
201
189
193
187
190
195
190
205
221
197
195
189
179
186
174
174
170
181
189
190
189
178
181
189
193
197
194
194
191
199
204
207
208
204
198
199
196
199
196
192
196
190
192
190
193
196
193
188
199
195
200
194
197
210
211
208
205
208
202
203
198
194
186
198
188
190
208
204
198
195
197
187
188
198
197
196
202
203
204
209
199
184
187
190
184
180
192
201
201
217
215
204
202
196
189
190
188
195
205
198
214
198
190
178
181
180
170
168
168
184
183
183
177
179
190
186
190
192
196
199
199
205
207
211
199
199
194
203
203
197
197
193
201
196
190
197
192
192
190
190
195
196
195
198
193
206
203
198
206
209
198
193
189
179
179
189
184
182
197
200
200
198
195
195
191
192
190
197
196
196
211
213
206
188
186
185
185
178
181
187
199
210
215
207
198
195
186
193
190
200
210
204
205
193
192
182
178
177
166
166
169
171
167
165
172
180
189
196
193
198
198
199
209
216
217
209
202
201
202
204
205
200
195
199
195
198
198
196
189
196
191
192
192
195
186
196
196
202
202
196
204
200
188
189
189
179
178
190
185
189
192
195
191
199
189
193
183
186
195
190
195
211
214
202
211
207
195
178
184
179
183
178
191
202
213
214
201
197
190
194
193
203
205
204
202
200
190
177
176
171
169
161
173
172
163
169
176
180
184
193
200
207
197
203
218
216
215
208
207
206
204
200
198
195
194
196
190
198
195
202
196
197
202
189
190
193
185
188
193
195
198
191
193
189
191
190
189
183
183
180
184
190
199
188
185
190
194
186
191
187
197
204
198
205
205
201
212
217
190
185
182
181
186
181
180
200
206
215
209
203
194
192
194
205
208
202
203
196
179
175
176
172
152
159
168
166
168
174
183
178
190
202
209
208
203
213
218
214
216
207
206
200
206
207
199
194
192
195
188
194
193
196
198
195
204
195
193
195
186
189
194
189
191
193
190
181
187
183
184
188
181
179
178
185
198
192
185
195
201
185
188
180
196
201
195
192
199
197
212
220
201
184
185
192
193
176
176
189
193
207
218
204
204
198
195
205
208
200
201
180
168
171
170
150
147
165
169
171
177
182
181
183
202
206
212
206
211
215
223
222
218
214
208
205
201
202
201
196
193
197
192
195
200
203
196
196
201
198
191
190
186
185
187
185
186
183
181
180
192
180
175
181
184
179
181
184
190
192
186
193
200
191
190
186
191
194
188
186
190
202
208
209
206
181
192
194
199
186
179
180
188
209
223
209
205
210
203
201
201
201
194
173
171
166
160
158
166
171
167
176
184
181
181
191
210
212
210
211
219
227
229
227
217
219
213
203
205
203
204
199
193
197
202
200
198
198
197
193
196
199
190
188
190
187
184
185
182
179
182
186
191
183
182
176
177
178
176
171
173
178
184
184
188
185
188
198
189
196
188
183
183
192
201
210
209
191
187
194
193
192
189
182
188
201
218
219
211
215
208
196
203
198
187
171
176
175
163
163
172
175
174
185
185
184
195
200
216
216
218
218
222
231
234
226
220
217
214
209
206
207
208
204
200
201
198
200
201
199
199
195
196
195
190
193
189
195
189
184
183
175
183
189
190
188
188
185
179
181
178
181
177
177
182
178
184
185
187
196
183
191
187
196
187
185
201
199
215
192
188
182
194
195
183
177
191
192
213
223
215
213
210
198
199
192
172
171
178
179
169
163
173
177
174
188
186
190
206
209
211
217
218
221
228
231
232
232
230
221
218
211
206
205
203
201
204
202
195
196
202
198
201
197
197
193
194
193
193
192
190
186
181
180
181
192
187
191
189
187
186
184
181
181
182
178
176
171
178
188
182
186
185
187
184
184
189
186
191
197
207
197
191
179
189
197
185
171
177
195
195
218
216
212
217
194
187
182
172
176
181
178
169
176
180
177
182
194
191
203
213
213
210
220
222
221
233
234
229
230
235
222
216
211
205
206
201
202
204
200
199
199
196
203
207
204
202
196
199
199
200
193
183
185
187
184
185
189
190
192
196
193
190
182
183
181
182
185
179
169
168
184
182
185
183
191
188
175
182
192
196
201
200
197
190
189
174
193
192
175
168
182
195
200
218
210
217
194
186
176
180
186
188
177
174
179
175
184
188
196
205
210
209
205
210
219
216
216
225
227
226
223
227
221
209
205
204
201
200
199
198
196
194
200
198
203
208
204
203
197
200
201
202
193
186
185
190
189
184
188
185
189
189
196
189
183
180
176
178
185
184
172
170
173
178
183
186
190
192
182
176
185
198
194
206
196
189
190
182
177
195
180
165
179
193
195
211
216
208
201
193
184
192
197
184
172
173
175
169
188
196
202
211
211
204
203
213
216
212
213
215
219
219
216
219
214
204
201
202
202
196
198
196
195
192
196
198
203
201
201
206
201
200
202
201
195
195
196
196
192
189
190
187
190
190
192
192
186
183
180
181
183
182
177
173
173
174
182
181
186
188
179
180
183
190
194
203
197
188
185
181
179
184
181
155
179
193
192
206
222
206
208
192
194
200
200
185
188
182
185
181
196
193
205
203
199
199
202
210
210
211
208
209
208
213
212
212
214
209
201
201
204
198
196
196
198
195
194
196
196
199
200
205
202
199
197
196
199
198
196
199
192
190
192
194
194
193
195
194
190
189
189
188
187
189
188
181
180
182
178
179
185
185
183
181
176
184
195
197
205
186
187
180
181
174
180
152
168
194
204
203
221
206
206
193
200
207
196
190
187
188
192
197
200
199
202
183
186
188
196
204
203
211
204
211
202
210
214
208
214
211
205
202
202
204
203
200
206
201
201
198
197
200
202
205
205
200
199
200
198
199
196
196
193
194
194
194
195
195
196
198
191
197
194
189
194
193
195
190
187
183
181
177
184
184
183
183
177
185
195
197
201
190
182
180
177
176
175
158
168
190
204
214
221
212
203
194
201
195
193
186
187
192
197
196
201
196
182
175
181
191
196
205
202
208
197
202
202
210
211
210
211
207
209
201
210
213
210
214
214
210
213
209
208
206
207
209
211
203
200
204
199
200
196
195
194
195
193
188
195
196
196
194
198
201
196
195
194
197
198
198
196
190
184
182
181
183
179
181
175
189
195
205
203
193
175
184
176
176
173
166
170
190
199
208
220
219
202
190
197
187
187
176
187
196
194
199
199
187
187
176
184
189
193
205
197
200
204
206
205
206
206
208
210
205
215
212
214
214
218
217
214
211
214
214
210
208
206
210
209
203
199
203
198
200
198
195
194
194
193
188
193
199
198
194
200
201
198
199
199
197
201
200
205
203
193
186
185
182
182
179
174
178
191
197
204
204
179
175
171
171
167
167
172
198
207
204
221
224
197
193
190
188
180
178
185
194
195
202
192
188
186
176
187
191
190
197
197
192
206
206
204
202
201
205
209
212
214
214
213
213
215
218
214
211
211
213
211
207
208
206
206
202
200
201
198
196
195
195
193
196
193
192
200
201
202
195
200
200
201
203
204
202
200
203
207
204
203
196
189
188
181
178
177
179
191
201
196
209
194
177
162
163
163
168
171
194
206
213
220
216
205
191
183
183
187
177
188
194
192
195
196
190
181
176
188
193
184
191
192
195
207
207
206
207
208
213
212
219
215
217
215
218
220
221
219
217
210
213
211
207
204
206
204
201
203
202
197
198
195
196
195
194
193
197
206
201
205
202
206
204
205
200
206
204
204
202
206
207
203
200
195
196
191
180
178
178
192
204
197
202
195
188
158
162
163
163
165
191
197
202
219
211
201
195
178
184
194
181
187
191
194
198
197
186
180
177
193
195
189
192
193
201
213
217
212
215
218
219
217
222
220
219
221
224
226
223
226
225
219
214
214
208
206
203
202
199
203
200
199
200
195
199
193
197
196
201
206
208
206
206
208
210
207
207
206
204
205
202
203
207
201
196
199
200
203
193
187
176
186
202
197
203
194
191
170
165
161
148
161
185
200
203
203
211
193
200
179
191
203
186
183
192
200
200
198
186
177
181
195
195
198
201
202
206
227
225
223
221
221
221
218
222
220
220
225
224
225
223
228
229
227
219
215
211
205
201
199
200
203
197
199
201
193
197
193
196
197
198
203
206
209
209
208
209
208
207
206
208
206
203
201
206
201
198
200
201
209
211
194
179
187
200
204
205
194
182
174
161
162
151
152
179
205
214
193
203
198
198
192
201
206
195
189
194
199
202
200
184
181
189
195
199
199
204
201
206
223
220
217
213
217
219
218
229
219
212
222
227
221
219
225
215
216
216
209
211
205
195
198
199
204
200
203
204
197
197
196
195
198
199
201
204
207
202
204
205
204
205
204
202
203
205
204
203
201
200
198
201
206
219
206
187
190
200
207
210
193
183
173
160
160
153
165
175
194
208
199
200
200
205
205
210
206
205
195
198
197
203
192
183
185
185
197
196
200
202
206
214
224
220
211
210
216
216
213
218
201
199
198
214
212
208
210
201
203
212
209
204
209
191
197
196
197
200
197
204
195
198
196
206
201
210
203
207
208
208
207
208
207
208
205
201
198
206
199
199
196
197
199
197
205
214
219
202
194
202
213
210
198
185
174
156
158
156
168
182
195
204
196
191
211
209
217
214
209
202
194
199
196
203
190
188
185
193
203
207
204
202
203
212
213
210
211
211
216
211
203
196
189
183
183
187
198
195
192
191
194
201
205
208
206
195
195
193
197
201
199
202
200
204
204
205
204
204
201
199
200
204
197
200
198
198
197
196
201
200
199
197
194
188
196
192
195
204
210
207
183
199
205
208
202
191
174
154
150
151
166
186
198
212
191
197
208
211
223
214
201
201
191
195
200
198
192
188
195
206
199
201
196
198
203
213
212
209
209
213
200
187
181
176
170
171
171
183
190
193
193
189
196
192
198
200
199
203
195
198
198
205
203
206
206
206
204
204
200
200
206
203
189
183
179
182
178
186
187
194
196
194
199
205
201
195
198
198
198
205
213
213
188
180
196
197
196
187
190
165
145
152
160
187
196
213
198
200
205
207
232
217
209
207
188
200
198
203
196
203
196
193
198
205
195
209
203
213
206
206
206
207
200
194
186
189
174
167
167
173
193
192
196
187
189
189
191
190
188
193
200
194
196
202
205
204
205
198
195
198
197
194
201
176
170
169
179
171
172
181
180
188
187
182
187
193
197
188
191
189
196
208
215
216
207
183
184
200
188
187
185
174
162
161
159
188
196
208
188
202
196
204
221
220
217
214
193
199
194
209
215
196
195
196
210
208
201
211
199
196
196
197
196
191
191
189
191
192
183
168
173
181
192
197
200
196
185
184
184
185
189
181
197
192
192
195
194
196
196
191
186
187
188
190
197
189
191
182
176
165
168
182
164
183
181
179
184
183
194
187
185
180
180
190
206
206
207
200
193
203
184
188
175
182
174
165
167
189
199
205
196
194
190
191
216
225
215
227
201
199
188
222
209
191
196
204
217
203
211
208
193
188
186
188
187
189
192
194
199
199
202
186
185
208
201
202
195
198
195
189
193
196
197
196
195
196
200
208
200
198
205
200
194
188
193
204
204
199
194
186
178
175
185
175
171
181
189
192
188
186
204
199
200
192
186
189
191
202
209
215
199
210
187
187
177
185
183
165
168
189
204
199
208
186
203
183
203
222
208
219
211
202
201
210
200
190
194
216
212
207
207
201
198
192
190
198
202
201
209
196
186
184
192
187
182
198
201
198
187
194
196
200
195
203
199
200
188
190
192
198
186
189
194
214
205
207
199
206
199
193
188
187
183
177
184
163
158
157
174
167
173
176
188
199
195
196
190
181
188
190
198
212
203
195
209
190
184
190
179
169
161
191
207
208
202
185
203
193
197
206
209
205
220
224
210
204
199
199
204
214
217
201
200
208
209
209
199
196
200
199
194
188
191
182
197
195
192
190
192
191
191
187
187
195
190
193
196
193
187
201
189
196
200
187
194
206
198
198
195
191
186
191
195
185
177
172
172
163
151
163
177
175
171
180
187
189
198
188
189
175
166
177
188
200
200
175
196
186
192
210
186
170
168
190
216
205
190
194
194
197
202
196
200
202
226
227
206
199
194
186
204
202
193
191
198
205
208
210
204
211
214
216
205
198
200
192
192
200
199
192
182
173
176
176
171
167
163
171
172
168
174
188
162
164
172
169
172
176
177
182
176
165
181
192
193
190
191
196
196
205
212
210
203
201
194
209
211
201
205
199
185
183
179
175
165
195
197
175
181
183
187
208
177
190
179
181
212
204
193
196
195
203
201
210
192
203
223
216
210
202
205
187
196
199
179
202
198
205
207
210
216
217
212
207
194
195
194
204
195
192
199
197
193
191
194
192
191
186
174
185
198
175
184
197
150
161
164
171
166
170
174
184
178
174
181
189
181
176
189
192
193
210
221
208
219
201
213
229
228
220
216
204
192
192
189
197
187
177
198
181
189
194
199
208
161
178
189
185
202
202
195
202
203
217
199
226
191
196
224
230
212
200
213
197
209
196
186
196
199
201
204
195
209
214
208
199
202
194
191
213
196
188
183
186
188
176
184
191
195
187
173
188
190
211
212
198
169
166
175
185
190
190
192
185
193
199
198
185
176
192
200
207
199
217
221
213
224
216
234
234
228
214
195
210
194
190
193
205
210
201
198
200
181
210
209
197
149
166
187
186
201
195
195
206
208
220
202
229
204
192
219
244
232
214
213
206
201
184
194
185
191
191
189
191
192
186
193
199
204
204
192
207
191
181
185
199
187
172
181
180
194
197
200
181
171
205
217
187
188
190
190
194
206
211
200
201
207
211
201
200
189
205
208
209
198
218
212
214
212
217
228
213
210
196
188
210
208
200
187
207
216
201
203
216
193
213
223
194
163
174
193
199
198
203
202
190
213
228
209
225
213
197
219
239
228
227
207
199
189
169
186
181
203
193
192
193
179
170
179
185
186
178
171
186
167
169
173
193
190
171
167
158
194
196
198
203
172
189
206
179
207
200
197
197
207
209
210
213
222
232
217
196
203
217
221
208
209
226
217
207
216
211
216
208
197
198
192
192
199
198
194
191
208
204
188
234
215
201
207
209
174
186
204
203
207
219
202
191
206
223
215
226
218
214
215
235
214
219
202
200
187
164
175
185
210
199
187
182
160
170
174
175
168
171
176
172
162
159
158
181
183
170
155
150
177
194
198
208
194
181
201
189
213
218
212
207
198
201
187
216
229
235
242
204
209
204
209
202
213
215
213
211
210
214
186
189
186
181
193
180
188
198
195
188
196
197
188
220
212
212
211
206
176
186
209
215
205
231
194
190
198
220
218
221
207
210
208
223
218
205
193
204
183
164
151
205
216
200
188
182
168
172
174
174
176
180
199
174
158
170
171
182
183
165
157
156
157
188
213
214
193
195
211
215
202
206
206
204
202
201
185
187
220
219
232
206
199
195
197
198
211
219
220
224
215
215
198
188
187
183
195
178
186
189
175
184
171
185
185
214
191
212
217
220
167
181
210
214
214
224
200
187
177
210
215
191
189
204
192
213
215
196
191
200
196
179
162
212
217
197
215
201
183
198
188
185
197
195
198
198
180
194
197
188
188
178
169
163
159
174
209
203
193
197
212
213
200
200
202
194
202
192
197
178
204
222
228
209
206
188
193
195
218
219
222
212
199
197
189
182
183
190
188
189
190
186
172
184
159
178
188
192
194
204
210
228
181
173
214
210
210
212
208
187
162
199
209
181
169
184
174
201
212
188
192
168
180
196
181
207
214
202
237
228
212
200
201
197
188
193
191
194
204
225
220
213
205
184
177
177
186
187
204
183
193
197
217
211
205
202
203
194
201
202
204
208
205
240
229
222
211
184
190
217
222
201
202
191
181
180
177
166
172
189
184
185
195
194
179
183
169
179
204
179
196
212
205
219
202
195
213
214
219
209
207
177
168
204
224
197
186
187
168
184
202
183
189
155
171
191
199
197
215
201
231
237
236
222
209
212
210
204
204
211
222
226
209
186
193
180
170
180
193
196
201
179
194
191
215
200
204
209
201
180
200
216
219
234
221
245
236
233
219
186
195
198
225
210
189
195
177
168
158
165
164
169
188
187
202
206
193
188
169
179
215
228
202
228
215
223
208
215
219
203
219
224
216
180
180
223
238
201
207
203
183
172
198
184
179
157
171
205
205
193
211
207
229
240
241
236
219
218
211
214
229
224
223
214
216
185
182
192
177
193
195
201
189
182
192
217
226
212
224
219
192
167
186
217
222
236
242
238
246
233
233
192
182
191
209
195
190
179
168
140
139
158
170
161
180
183
195
202
187
178
160
162
202
217
198
242
224
220
226
223
207
181
224
225
220
185
189
238
242
207
210
211
192
185
189
194
175
166
182
218
192
204
205
214
233
232
228
228
226
213
206
208
214
212
223
210
200
185
175
192
196
209
202
208
204
187
208
236
218
213
216
215
179
169
173
206
222
225
244
232
255
246
231
208
197
200
209
214
205
187
177
155
153
168
182
175
171
175
185
190
192
180
170
183
214
210
201
244
215
211
238
222
198
175
227
224
211
194
196
244
234
212
201
211
175
199
181
212
181
176
179
215
179
203
205
199
218
219
215
221
221
210
204
194
206
214
223
222
196
190
175
183
197
208
197
193
184
178
171
199
191
191
190
187
169
168
171
197
205
210
227
247
227
253
229
201
198
204
208
207
203
193
185
172
167
174
175
180
182
188
184
180
187
191
190
179
212
220
193
238
209
212
241
221
192
198
239
221
205
200
205
230
205
199
188
201
161
178
176
201
200
181
172
186
169
196
196
190
205
205
205
205
199
195
192
184
198
212
214
208
201
187
175
180
195
197
187
182
159
149
149
158
169
178
170
171
161
170
167
189
188
206
222
238
235
228
227
217
207
196
191
185
187
185
172
165
161
177
163
171
183
197
202
192
175
179
194
187
209
220
197
226
215
218
249
200
195
217
240
226
201
196
200
213
183
186
178
177
154
148
170
198
197
192
187
187
169
200
196
196
210
212
206
203
203
201
202
200
207
210
196
196
191
182
172
174
185
181
182
162
153
135
144
156
170
177
167
172
163
164
171
185
190
201
216
226
245
244
205
220
220
188
172
177
180
188
173
168
158
163
164
169
179
197
207
197
187
179
196
199
210
218
202
215
216
217
227
200
180
230
245
222
194
196
189
204
176
182
173
170
167
150
168
202
187
184
202
186
178
198
186
207
217
219
215
208
212
210
211
211
213
212
202
197
186
181
179
182
192
183
180
158
144
134
144
166
175
169
165
168
166
161
162
190
196
205
223
223
233
246
221
199
218
216
191
189
197
203
199
188
173
168
171
174
185
201
206
205
194
194
187
204
221
210
202
211
233
214
231
200
182
239
245
223
190
202
182
192
174
188
182
170
174
160
169
186
193
173
190
197
198
192
204
205
218
222
220
214
219
228
224
224
214
218
216
208
199
191
185
175
169
176
157
154
142
139
154
167
169
157
153
151
157
153
153
182
198
196
218
221
220
229
225
193
193
222
212
200
212
213
210
202
189
173
177
181
190
196
195
195
186
204
179
202
213
198
191
206
233
220
224
188
194
236
224
218
195
201
185
187
178
192
183
178
167
167
162
176
189
175
187
185
200
194
217
206
210
221
211
202
213
224
222
220
196
209
217
199
195
186
175
172
167
186
154
153
156
151
167
178
158
145
136
141
142
147
148
176
199
196
210
221
213
216
205
195
198
205
225
216
212
220
220
214
205
198
199
195
193
196
200
200
196
195
187
203
200
196
196
200
236
208
205
185
211
226
209
208
205
204
186
194
194
203
193
188
178
176
159
169
190
177
186
197
191
208
213
218
226
214
201
188
203
215
212
217
188
186
202
194
188
192
179
168
168
165
152
149
168
175
176
165
150
145
135
139
139
143
148
173
191
202
195
218
206
206
202
177
189
209
208
202
195
218
222
217
196
206
204
208
198
194
198
199
194
190
197
198
205
198
207
211
223
206
190
198
212
214
198
202
214
197
177
201
202
223
203
186
179
186
162
164
188
179
181
197
185
210
204
199
210
220
214
200
206
218
217
212
207
202
216
207
203
195
181
181
176
157
141
164
175
176
165
163
139
141
146
145
147
140
151
171
176
190
201
194
202
208
196
179
188
202
203
207
195
204
216
221
205
202
207
212
204
196
193
196
201
201
194
207
197
189
217
222
224
215
214
207
216
211
196
202
214
199
165
197
206
230
202
167
170
178
163
161
171
179
179
194
191
189
223
206
187
225
226
208
207
217
218
215
213
218
222
215
202
189
188
184
172
148
148
167
166
165
162
154
128
127
147
150
149
151
159
159
166
170
195
184
173
198
191
184
188
207
200
201
200
195
194
186
184
190
197
196
202
205
191
198
197
196
206
207
185
183
231
233
231
224
216
196
213
212
200
215
211
207
171
188
210
221
201
158
160
160
158
159
160
155
183
189
194
196
203
211
211
206
208
217
219
218
223
220
214
213
212
200
185
188
183
170
161
164
159
168
170
162
158
144
135
137
154
158
160
162
168
161
171
173
186
186
174
184
200
192
195
204
213
217
216
208
201
185
174
177
187
189
192
199
187
185
189
200
205
192
192
194
236
231
238
221
209
189
213
200
210
228
204
200
181
189
208
225
200
159
160
155
154
151
164
152
163
193
202
202
202
205
207
213
210
206
208
214
219
214
205
199
191
187
182
176
174
170
170
173
170
178
179
169
159
150
148
163
173
169
165
173
170
173
174
179
192
196
190
192
187
192
202
198
204
226
229
223
222
211
203
197
197
187
182
185
184
180
191
197
196
200
197
201
229
223
234
216
209
197
214
202
209
223
199
192
186
196
197
228
213
169
166
174
154
160
165
152
163
183
197
193
203
205
207
216
218
220
218
218
216
213
203
196
190
190
196
189
187
183
173
184
181
188
182
173
170
181
177
184
183
176
166
170
171
174
179
190
206
214
199
199
203
183
204
198
203
225
220
222
227
225
219
220
212
200
195
194
198
203
199
184
198
199
191
195
208
216
226
214
200
203
206
217
217
216
203
200
180
193
197
205
221
179
164
187
172
160
159
168
167
185
195
189
188
188
202
207
217
216
217
217
217
220
213
208
199
197
198
184
181
174
175
182
185
191
178
172
184
194
194
199
190
184
174
173
173
176
181
194
200
203
194
183
187
197
196
187
194
208
209
211
210
211
213
219
214
208
212
208
204
194
185
198
202
201
196
205
199
216
221
208
204
202
195
218
231
199
204
211
182
177
210
202
209
189
151
181
174
158
153
174
171
176
194
191
197
192
200
206
208
214
216
211
212
216
217
213
207
204
198
181
174
173
182
189
185
186
178
183
193
196
192
194
203
194
182
185
182
185
189
209
216
205
199
198
205
199
203
196
185
191
190
203
207
207
210
217
212
212
205
195
188
190
188
199
210
200
209
209
201
214
216
201
210
194
188
218
220
194
211
209
190
177
202
212
202
194
155
176
174
165
161
167
178
179
191
190
192
191
196
202
206
207
206
206
216
220
218
209
206
205
194
181
174
177
188
186
183
184
182
187
200
206
205
199
217
212
204
194
199
192
201
223
237
221
225
223
227
218
212
210
192
197
195
195
193
193
189
197
198
202
198
193
190
194
193
202
217
196
216
214
209
212
206
194
213
187
194
214
221
188
209
214
187
184
193
213
206
194
178
183
184
161
157
167
176
195
188
189
191
190
193
198
202
205
201
212
215
214
210
207
205
198
193
182
176
176
186
185
181
185
182
195
203
218
212
204
206
202
204
203
208
200
208
229
239
229
227
230
235
232
222
224
203
196
200
200
204
203
200
202
206
206
206
200
198
200
199
210
216
197
219
220
218
215
202
196
208
183
194
215
220
181
208
214
188
182
189
209
204
190
200
191
193
169
155
157
173
200
193
184
189
186
191
198
199
204
204
211
209
211
211
208
204
198
195
191
176
176
184
187
180
177
179
191
207
212
207
209
202
195
199
203
210
206
208
226
236
227
229
228
234
230
223
224
209
202
205
216
220
217
203
206
210
212
209
207
206
208
205
215
210
199
222
224
220
218
194
203
210
179
200
219
221
184
210
211
185
181
179
209
204
183
205
204
203
175
168
149
173
199
198
180
187
187
191
195
201
205
212
209
207
213
216
211
203
202
203
198
181
174
177
182
170
174
177
183
195
191
194
198
199
188
182
194
204
208
214
230
233
226
220
217
228
217
215
227
216
213
217
213
216
217
205
202
210
209
209
208
207
210
209
208
210
204
225
222
219
211
196
217
203
189
200
228
203
196
212
214
175
171
169
205
210
187
182
212
217
188
186
149
177
198
204
178
184
191
192
195
202
207
219
215
210
219
222
216
210
211
210
200
193
180
175
166
169
174
187
200
201
188
191
187
192
175
174
181
195
202
210
226
225
217
215
217
219
212
204
211
213
213
221
210
205
206
207
206
205
204
208
207
206
206
204
206
210
207
221
220
225
208
202
213
190
196
201
220
192
201
215
213
181
165
166
186
213
196
178
210
210
202
194
160
189
198
197
181
185
190
191
195
202
207
217
217
217
219
225
222
223
217
204
202
197
182
174
169
174
181
190
203
203
198
174
179
171
166
171
169
181
196
195
209
212
211
214
214
215
203
202
203
196
199
216
216
203
203
202
208
207
197
205
206
203
207
203
207
209
209
221
215
231
212
191
195
184
196
208
214
180
208
212
213
188
167
165
180
203
201
184
217
212
208
198
190
201
202
196
180
180
194
192
196
199
208
212
214
218
223
228
224
224
217
205
205
195
184
186
178
179
180
195
191
192
194
171
172
161
159
164
167
176
194
192
202
203
216
207
206
205
197
204
206
194
199
206
209
207
199
204
202
203
196
198
205
198
203
206
205
206
214
221
219
226
210
181
186
190
206
211
199
178
207
209
206
182
172
166
179
193
208
195
210
222
211
203
204
197
205
199
183
180
192
191
197
199
208
212
210
214
229
227
222
226
219
210
202
196
193
199
191
186
181
191
192
190
181
171
163
163
152
156
170
174
176
192
197
202
212
207
204
201
197
205
202
197
198
199
201
195
200
204
196
198
197
195
199
198
198
204
208
213
217
220
226
221
196
187
190
202
211
211
185
183
201
210
202
181
186
165
172
188
214
209
214
219
220
210
210
195
198
199
187
182
188
191
196
200
203
210
205
210
224
221
223
218
210
215
216
211
203
203
197
193
193
193
191
184
181
172
164
160
165
165
166
173
184
195
194
202
209
199
204
204
203
204
206
195
193
198
197
188
195
204
206
199
204
196
188
194
196
204
208
206
217
213
230
218
203
189
203
214
216
201
182
184
200
210
207
181
187
172
169
181
203
212
221
201
225
218
213
202
197
202
194
187
188
195
196
201
197
199
202
209
212
212
214
206
211
220
220
210
204
206
198
203
203
196
182
184
187
175
172
164
169
170
160
173
181
187
185
188
196
199
200
211
210
203
206
198
197
191
196
186
193
207
209
201
209
203
189
187
202
201
203
206
213
214
229
219
200
188
218
218
214
189
185
194
202
204
208
182
179
179
170
180
193
204
215
207
212
225
220
211
202
205
198
190
189
193
200
198
202
188
199
202
199
199
191
199
206
206
205
205
208
206
208
211
206
198
187
191
192
181
181
171
177
173
170
184
184
184
186
188
194
198
203
211
207
204
202
191
181
176
191
192
189
196
207
201
207
193
198
186
197
200
206
212
211
217
226
211
194
199
217
213
201
193
181
203
202
200
211
185
181
175
177
184
189
196
204
210
215
226
230
219
207
213
202
197
190
199
198
199
196
185
188
194
186
183
184
194
208
203
205
204
213
210
206
207
205
199
192
197
201
186
197
195
193
191
194
203
196
196
198
201
208
200
211
213
199
204
199
188
182
170
193
198
196
199
204
205
209
197
192
193
204
202
210
214
210
213
221
208
194
204
198
193
196
190
185
208
200
202
208
193
185
176
176
185
191
202
199
207
221
222
233
230
217
205
211
203
194
201
202
192
196
193
193
193
200
174
183
198
200
199
203
202
203
204
195
188
188
185
184
195
203
190
210
209
201
204
203
206
192
197
204
199
200
193
197
203
200
203
200
182
187
183
196
206
199
199
202
199
210
202
192
195
208
207
216
213
201
218
219
214
197
185
187
188
194
182
187
208
204
204
211
191
189
183
183
180
187
214
196
206
219
230
222
229
218
198
206
205
196
195
206
196
199
193
202
199
201
186
191
196
197
194
197
196
189
195
196
189
188
182
186
181
189
175
188
196
190
194
180
188
175
183
197
186
180
188
194
206
201
198
198
183
179
179
182
195
204
197
196
193
204
204
200
197
201
203
217
209
197
210
233
219
197
186
191
184
192
177
193
208
202
200
207
185
191
190
183
178
184
215
200
201
213
229
224
229
214
189
192
196
193
191
204
204
198
203
212
207
207
210
203
201
195
194
194
190
192
187
190
202
213
204
196
187
179
169
168
175
176
174
168
177
171
179
195
181
182
196
188
197
196
193
198
191
188
192
195
193
201
197
199
192
202
206
201
199
196
202
210
205
191
215
230
208
196
194
186
185
181
180
203
204
203
200
203
190
190
192
184
177
190
207
211
192
209
223
225
228
223
198
190
191
191
186
205
205
202
209
218
211
214
223
217
206
193
189
188
183
174
171
175
202
221
212
211
205
205
193
185
187
180
177
183
178
168
171
189
161
159
177
170
182
183
192
206
210
213
213
215
195
189
195
197
199
197
200
197
195
189
209
207
199
203
214
218
201
199
191
188
179
180
193
201
202
200
202
201
185
190
189
185
182
195
204
207
195
209
215
215
226
230
202
195
192
189
183
202
201
205
205
212
210
211
219
210
204
194
188
182
178
160
166
167
187
204
207
218
220
227
225
218
221
201
189
199
187
175
175
178
162
165
186
182
194
200
214
215
209
205
201
197
181
180
186
185
189
189
188
191
190
188
209
201
196
208
213
209
202
190
193
183
175
186
208
203
200
203
207
201
192
184
187
188
189
198
196
194
201
208
212
211
216
232
213
202
199
192
174
193
198
195
202
201
200
199
210
193
182
177
178
178
173
163
171
159
166
181
190
196
201
212
213
220
221
227
223
222
215
198
199
197
186
186
198
190
192
203
204
201
191
185
181
181
175
181
185
177
181
184
180
181
182
189
206
199
189
206
214
200
198
190
189
185
178
194
212
206
197
203
207
204
192
183
186
189
195
189
177
181
201
210
212
205
215
229
226
208
207
195
188
200
193
191
193
198
200
190
202
198
180
174
176
168
169
162
171
158
161
168
173
166
161
175
183
197
200
198
199
202
206
198
184
182
174
171
184
182
177
180
183
187
183
181
179
185
182
186
186
178
177
178
186
192
180
189
206
195
187
206
209
201
198
189
184
181
181
205
208
207
199
203
208
203
190
185
191
194
199
174
163
179
187
215
207
205
209
231
233
216
209
204
204
199
203
194
195
197
204
194
200
202
192
189
191
185
186
189
186
185
184
185
197
195
188
194
188
194
189
189
187
193
191
194
191
192
182
185
185
185
190
181
185
185
184
180
184
190
192
190
186
177
176
189
195
200
184
194
203
191
189
202
208
204
203
189
185
178
195
208
206
208
203
201
208
203
187
190
197
200
186
162
155
184
185
204
205
197
204
220
232
221
213
214
208
196
203
202
195
199
202
201
204
197
194
195
192
188
189
195
195
193
200
197
205
207
201
203
200
199
197
198
198
193
189
186
187
193
193
195
194
189
196
191
193
189
183
177
185
188
194
177
177
179
182
186
192
199
185
194
203
191
190
203
198
211
198
190
181
184
203
212
205
215
208
205
208
203
189
193
196
192
173
160
161
182
193
199
200
179
187
210
229
216
207
208
209
195
203
209
199
196
206
205
214
208
194
199
190
190
195
201
202
196
204
212
210
210
205
199
199
202
197
201
193
192
195
189
185
194
191
196
194
197
205
202
194
188
183
180
184
179
187
185
177
178
181
188
194
197
188
192
196
194
196
205
204
209
195
187
176
197
208
206
211
217
207
203
204
204
189
197
190
175
169
163
172
184
197
196
203
185
180
205
226
210
206
210
213
206
214
208
206
190
207
202
214
210
205
195
188
190
199
199
199
196
203
210
208
212
207
205
201
202
196
192
186
187
188
191
184
185
187
185
195
197
203
198
195
189
193
192
185
179
183
191
180
178
185
194
200
197
193
189
191
192
214
211
213
199
190
181
185
206
205
207
212
212
209
196
205
206
187
193
177
169
162
170
188
187
202
202
203
192
183
194
230
215
207
220
227
220
220
214
207
191
197
197
208
214
206
198
188
185
198
191
192
193
199
201
197
207
205
204
211
209
196
195
190
193
195
196
194
193
197
192
203
205
197
195
196
196
198
195
186
182
176
184
176
181
196
198
198
193
192
189
191
205
226
214
218
194
187
183
182
205
208
206
210
218
204
195
204
206
190
178
175
172
171
182
200
191
205
205
205
196
178
196
226
204
202
231
229
220
230
222
209
206
200
197
195
208
203
201
190
185
199
186
187
188
194
196
199
200
205
206
212
213
204
206
202
215
216
215
211
212
217
209
214
213
213
205
204
194
199
196
191
179
178
175
175
184
193
198
190
198
187
191
193
216
232
217
218
190
180
196
189
187
210
210
208
214
206
191
202
206
186
177
178
177
178
192
199
196
210
210
207
198
181
200
223
198
198
232
232
226
231
234
217
218
207
194
189
192
188
190
180
184
190
185
189
190
191
195
200
203
208
214
209
210
210
209
209
216
216
211
213
218
222
222
217
215
212
201
197
193
194
195
187
178
174
174
179
188
188
196
189
194
184
194
193
225
234
215
214
190
186
193
195
184
192
211
208
215
202
192
198
200
175
178
178
180
187
199
202
194
216
211
199
204
202
201
205
196
193
220
238
234
232
235
226
224
217
200
188
192
186
181
168
180
178
188
189
189
191
190
199
206
204
201
206
206
209
204
204
216
210
206
207
204
211
212
204
195
196
192
189
190
190
187
186
179
162
181
179
186
191
193
199
190
182
196
211
216
222
211
201
192
200
196
193
195
174
202
211
213
203
192
192
195
173
181
180
182
193
203
201
199
215
206
194
227
222
190
196
197
195
210
231
240
225
240
239
233
222
216
189
189
184
186
176
173
170
182
181
181
182
178
195
203
193
195
199
201
205
192
192
206
197
196
193
188
187
187
180
183
187
187
185
182
182
177
174
176
171
185
188
187
189
193
201
191
181
194
224
217
204
186
197
202
203
192
188
204
181
183
211
221
201
192
194
187
180
181
182
182
199
203
210
199
198
200
198
233
223
195
194
189
199
204
211
235
221
234
245
235
231
225
209
193
190
191
186
182
180
185
190
187
184
177
186
189
183
190
194
192
187
185
181
192
180
187
180
179
171
173
175
176
176
177
171
173
175
170
167
174
177
183
195
188
191
199
200
195
188
203
226
218
188
165
192
210
211
192
186
208
191
186
198
217
203
196
194
188
184
184
182
186
203
212
206
186
183
210
198
220
232
206
201
186
200
196
211
204
212
234
238
239
242
229
217
210
194
199
195
191
187
190
190
193
194
191
189
185
183
192
189
187
184
182
186
192
189
187
177
173
170
172
173
171
168
169
165
170
170
173
176
182
183
188
198
196
193
202
208
204
200
207
213
195
179
168
187
211
216
193
190
213
197
188
200
209
207
197
199
191
185
187
188
197
213
215
188
174
188
212
193
219
230
216
203
195
199
190
192
196
191
226
237
238
243
231
228
218
204
203
199
200
194
199
195
202
201
201
201
199
198
203
198
196
198
196
199
197
200
196
187
178
175
176
182
174
171
167
170
175
174
179
184
185
195
199
204
195
199
207
212
224
202
199
196
178
161
178
192
210
215
193
191
209
206
195
203
208
200
211
208
199
182
185
188
204
221
200
181
175
197
202
200
219
233
221
212
201
204
180
176
192
179
207
229
235
241
238
236
225
214
208
202
206
205
198
202
206
197
203
208
208
212
216
210
207
217
208
209
210
208
198
201
188
182
187
180
178
173
171
173
181
179
183
190
191
204
206
202
201
198
208
214
232
205
195
178
177
152
163
202
210
214
194
189
207
208
202
203
203
188
214
216
210
184
187
192
210
228
190
185
174
203
191
206
222
235
224
216
208
203
185
172
182
172
197
213
226
232
241
236
232
225
212
203
207
209
203
202
205
192
205
203
207
211
208
210
219
221
218
214
218
213
207
207
195
190
186
181
181
172
172
174
177
176
189
194
202
201
208
198
206
205
206
214
231
211
188
176
184
152
154
196
204
215
195
187
205
211
208
208
194
186
193
206
209
189
189
206
223
214
187
175
184
195
191
209
231
223
225
225
215
209
173
166
184
159
191
204
208
217
229
235
237
237
215
206
204
207
206
202
202
191
204
201
206
212
209
208
221
226
222
219
220
217
215
211
193
192
183
183
183
174
169
172
169
176
188
198
205
200
198
206
218
205
209
211
219
210
181
174
187
164
162
186
197
203
206
190
192
207
210
207
188
190
195
198
205
195
200
216
226
201
182
169
193
183
191
213
236
213
224
226
223
203
166
178
178
166
183
200
205
202
220
226
237
242
228
209
199
199
198
203
196
193
202
207
200
198
207
209
220
221
216
215
220
214
212
206
190
188
180
180
182
176
169
169
173
180
199
200
204
200
206
216
217
209
205
211
219
204
192
180
185
165
172
182
195
197
205
192
190
201
206
207
182
186
201
194
198
202
204
208
214
194
172
175
192
185
187
227
229
208
224
220
221
201
170
175
179
164
184
196
194
200
202
207
237
238
231
214
203
193
195
199
192
191
198
197
194
190
195
205
211
208
196
206
211
202
203
193
189
187
179
177
179
173
170
171
179
190
205
205
204
206
222
213
213
209
201
213
228
210
205
189
190
168
170
184
188
191
202
188
190
199
206
206
185
185
198
192
189
188
191
195
202
181
169
179
184
176
190
233
216
206
224
206
222
208
178
173
171
159
170
194
198
196
193
202
219
236
224
214
213
199
197
197
198
186
184
187
182
179
178
186
191
186
188
190
196
197
189
186
181
184
173
170
176
172
169
180
185
195
200
209
212
214
221
204
213
209
194
222
236
213
212
207
194
169
182
175
191
185
199
178
174
201
203
198
187
192
195
198
180
185
191
193
202
179
171
177
176
167
190
225
220
217
210
204
218
210
188
171
165
154
154
184
195
195
195
200
199
210
222
218
213
209
196
190
194
182
175
184
176
173
175
172
173
176
178
179
180
186
177
176
174
176
178
171
174
172
175
187
191
199
201
208
218
213
207
200
214
205
192
224
237
213
205
220
210
181
183
178
183
187
188
185
170
194
196
192
193
186
189
195
181
186
196
206
201
192
174
186
181
177
195
221
240
222
194
203
217
207
192
182
167
154
148
179
186
191
195
197
194
195
207
214
210
207
198
189
193
180
176
183
168
171
173
166
170
165
162
171
170
175
174
172
173
175
178
174
173
170
188
195
199
205
212
210
213
204
203
208
209
207
198
233
231
224
192
229
223
191
187
188
174
177
182
186
171
192
184
190
199
192
187
195
195
187
199
203
197
194
175
185
172
187
193
221
249
220
194
200
216
207
192
181
170
158
139
175
186
187
190
195
197
198
205
201
209
207
196
197
192
187
182
184
168
170
178
164
169
163
164
163
165
164
168
168
170
177
175
173
176
184
194
199
207
209
208
202
206
203
204
206
200
201
215
244
233
217
202
236
233
192
189
190
173
178
169
184
177
188
190
187
199
193
193
187
197
188
205
207
195
195
180
175
171
187
197
223
241
214
193
194
215
206
202
177
174
152
134
170
179
182
180
192
192
200
209
198
197
201
202
196
188
187
188
179
173
176
178
173
170
170
173
166
172
167
171
168
172
180
179
180
195
196
201
200
215
205
203
197
206
207
208
204
199
204
232
241
223
211
217
239
244
195
180
186
183
181
159
180
184
184
192
187
199
194
182
181
193
187
198
207
191
199
187
167
177
196
207
199
231
220
198
199
212
202
204
182
161
150
134
169
174
177
176
190
190
207
206
204
198
202
200
203
200
182
182
181
178
181
186
183
176
183
181
186
180
181
184
186
184
189
193
197
199
202
205
204
211
208
208
207
206
194
201
206
199
212
240
233
215
215
227
241
251
205
174
186
186
183
156
180
186
184
189
184
195
197
186
174
181
189
197
190
184
196
189
175
191
201
203
190
220
222
209
191
207
202
201
188
163
146
131
165
169
167
179
179
192
201
205
203
208
212
199
202
201
190
184
182
181
185
190
190
183
188
188
190
191
189
199
197
198
201
199
203
207
204
207
212
218
212
209
205
196
195
195
207
205
224
243
218
223
226
230
242
248
194
187
186
188
179
157
176
181
189
191
179
184
196
185
178
173
