P2
# Face with average contibution
92 112
255
193
193
190
194
192
189
189
190
188
187
188
191
191
187
198
190
196
210
200
206
213
211
207
207
209
206
209
187
195
195
190
189
192
196
190
194
199
183
191
192
191
188
178
179
176
188
184
186
190
193
182
175
182
186
180
178
176
184
181
179
178
182
180
184
185
190
190
188
183
189
194
189
190
194
192
189
192
194
193
191
189
192
192
188
185
186
184
189
193
189
188
190
193
190
191
192
188
189
187
186
191
187
191
187
183
182
193
193
200
216
188
207
210
201
204
206
203
198
196
184
187
190
184
192
199
194
190
192
197
189
189
185
196
194
188
188
184
184
193
191
187
197
190
181
182
188
181
179
183
185
186
179
176
181
175
180
183
185
188
179
180
188
189
189
191
193
192
198
193
191
191
195
190
189
192
193
188
184
190
187
194
191
187
189
190
188
188
191
191
186
192
188
188
191
190
192
187
190
200
193
199
206
188
205
209
204
199
209
204
199
203
196
191
186
192
196
200
191
193
198
195
197
198
194
193
194
193
195
189
181
188
190
185
186
194
194
194
199
197
188
184
186
187
177
181
179
178
176
180
179
187
184
175
178
184
188
187
193
186
201
200
195
193
198
192
191
196
190
187
188
187
192
191
191
189
190
193
189
191
191
193
192
192
189
194
190
190
193
196
199
202
199
206
209
211
204
207
207
208
203
201
204
206
206
208
195
198
196
201
202
195
194
199
199
199
192
185
184
191
193
189
182
186
188
185
184
186
194
193
196
193
196
189
192
187
185
180
179
181
179
181
182
178
180
177
178
176
179
188
188
188
195
200
193
199
197
195
191
198
189
192
192
187
189
187
192
192
190
193
195
192
192
191
191
190
194
199
193
195
198
210
204
209
208
209
214
204
198
198
209
200
201
201
205
211
209
211
207
197
199
201
199
200
191
194
200
198
185
185
183
188
192
189
185
185
187
183
177
188
189
191
192
198
198
199
198
193
190
180
179
185
184
191
184
178
177
172
170
175
170
180
182
187
194
192
192
196
195
192
192
197
188
194
191
191
190
187
190
193
193
199
193
189
188
190
194
192
193
202
202
203
213
213
208
212
215
215
207
195
196
201
206
203
203
198
207
212
203
210
205
201
199
201
200
197
192
191
192
191
184
186
192
191
196
189
190
192
188
191
188
195
191
196
190
192
198
193
200
197
193
189
189
183
183
192
189
182
171
167
167
173
171
174
180
184
191
187
192
195
194
196
190
201
190
195
188
195
193
186
194
191
190
193
195
194
189
191
197
192
192
200
201
209
208
213
214
211
210
209
197
191
200
202
210
199
197
197
200
200
196
197
203
199
194
196
198
198
196
192
196
196
193
191
192
198
198
197
195
194
202
198
200
197
191
187
191
188
189
189
191
193
196
191
193
188
188
185
181
188
175
170
169
172
177
174
176
181
188
182
191
197
193
194
194
194
194
194
192
192
193
191
192
194
193
195
196
191
194
190
194
198
195
199
205
206
209
214
215
205
197
197
195
196
197
198
199
188
191
189
195
196
196
197
197
195
199
198
198
201
198
197
198
201
196
196
202
205
205
205
199
200
200
200
196
196
197
186
182
186
182
186
178
183
185
189
192
196
181
194
177
177
177
179
179
170
173
181
175
190
188
173
192
199
196
196
194
195
193
191
196
192
196
194
193
196
192
196
193
191
192
185
190
196
201
207
204
203
212
211
209
197
189
187
200
193
194
199
188
179
180
185
200
199
200
201
198
196
201
200
200
199
199
194
194
197
201
200
204
202
199
193
191
190
194
191
188
192
192
190
185
177
183
182
180
181
186
188
188
186
186
188
187
183
177
172
182
168
174
178
186
185
190
186
187
195
198
197
200
197
199
191
200
199
196
198
194
195
190
189
194
188
191
185
189
205
206
202
206
202
204
199
201
188
183
184
188
184
193
191
177
174
182
190
196
199
205
209
199
196
195
200
200
198
192
199
196
202
200
200
200
198
196
187
187
185
181
175
180
182
187
193
189
184
180
182
188
181
180
190
194
191
194
186
189
185
191
188
179
170
171
172
185
191
183
192
198
190
193
196
198
197
199
196
196
198
198
196
194
196
193
185
185
193
192
191
203
199
206
200
202
194
195
194
189
184
184
182
179
171
166
164
163
172
181
185
188
197
198
204
202
197
192
199
198
198
201
197
199
194
194
193
192
201
194
194
184
177
173
172
175
177
183
185
193
185
177
177
182
185
174
185
198
194
194
192
182
191
189
194
182
177
176
173
178
181
189
193
202
194
191
195
192
196
201
201
198
193
201
198
195
196
200
181
186
193
194
209
206
203
202
195
191
184
189
180
180
184
182
183
179
168
163
167
167
177
187
184
189
194
196
198
203
200
196
201
199
200
206
202
202
194
189
193
192
193
189
189
186
176
181
177
178
179
183
180
183
177
174
177
182
187
177
183
198
199
191
189
186
183
192
191
191
187
176
172
171
170
180
192
201
198
190
197
191
197
195
208
201
196
204
201
202
198
194
185
183
196
203
209
204
202
193
188
186
180
178
174
176
185
178
176
168
161
168
167
176
180
181
190
183
185
197
197
203
203
198
198
207
205
199
202
203
196
199
197
189
195
187
193
193
181
185
181
181
179
178
171
171
171
180
178
181
182
184
183
192
199
192
182
184
180
182
189
189
186
187
177
173
172
174
182
190
191
192
196
192
191
195
200
197
194
202
204
204
205
196
190
182
196
203
212
204
195
191
193
190
183
196
182
190
190
179
175
167
169
175
170
178
184
186
192
188
185
189
195
202
207
206
205
206
208
200
202
202
196
198
192
196
199
193
198
198
191
188
189
188
184
181
171
172
172
181
173
182
176
182
178
182
191
192
184
181
180
180
180
186
180
191
186
178
172
174
178
182
185
181
191
194
190
198
197
199
195
199
202
206
200
203
190
175
194
200
208
201
190
200
204
190
192
195
187
194
183
178
162
166
178
184
186
184
191
189
193
185
188
193
196
194
201
209
208
203
209
205
208
200
202
200
198
199
205
201
197
197
201
197
194
193
186
180
176
176
180
178
175
186
177
182
179
183
180
183
189
179
180
184
179
186
183
186
190
185
173
182
178
182
183
174
181
187
195
198
198
200
196
195
199
205
203
195
188
177
196
197
198
196
201
201
205
190
190
185
188
191
188
167
170
181
185
188
194
189
188
186
185
187
189
192
195
202
201
203
206
206
207
208
209
204
199
201
203
202
205
201
198
199
200
196
195
198
190
190
186
183
185
182
180
182
179
176
177
186
183
181
186
185
181
180
182
180
181
186
190
188
189
184
177
187
181
179
171
177
192
200
197
204
200
192
197
201
203
197
188
190
191
199
199
204
204
200
195
192
187
190
197
183
177
167
183
189
187
187
188
191
185
189
185
192
189
188
200
198
202
200
201
209
211
208
206
209
201
201
201
202
205
202
203
201
198
195
187
187
189
189
188
190
188
181
180
179
183
177
176
193
188
181
182
190
180
184
188
188
187
180
184
189
195
197
174
179
184
179
177
167
184
196
201
199
204
193
195
199
199
198
189
189
189
200
201
210
204
194
185
192
190
201
195
177
179
187
190
185
184
187
185
189
186
196
194
195
192
190
202
197
202
199
199
207
207
207
201
206
201
194
197
203
205
201
199
201
192
189
187
184
189
186
186
186
191
186
183
175
179
178
179
187
195
186
189
188
184
181
188
190
185
179
181
191
197
198
195
179
180
180
175
168
171
195
198
197
201
194
195
198
195
192
196
186
198
203
200
208
195
190
191
193
203
197
183
186
200
196
198
190
186
178
185
188
195
202
197
197
198
194
201
199
195
200
193
203
206
203
201
203
203
196
194
192
196
197
195
192
190
192
188
190
186
185
185
194
193
191
186
181
182
184
187
188
188
190
190
187
183
182
183
188
191
190
181
186
193
202
202
200
177
177
180
169
161
183
200
195
200
194
197
205
200
197
201
195
209
198
201
197
189
185
199
195
198
191
185
201
207
199
200
190
191
179
191
201
197
211
199
204
206
200
197
197
196
191
194
199
201
201
196
198
196
192
190
181
188
192
192
192
188
192
191
188
195
186
185
189
192
194
192
187
187
186
191
192
190
188
189
188
186
182
190
188
195
194
183
183
191
196
197
214
184
182
178
176
159
169
198
200
195
199
199
200
202
199
196
207
205
195
201
198
191
195
200
196
195
181
198
204
205
199
199
192
196
194
197
205
201
203
199
204
205
203
198
194
192
189
194
198
196
190
192
200
193
188
187
178
186
189
190
190
192
192
186
197
193
188
188
191
194
194
194
195
195
194
205
198
202
195
184
184
190
181
183
191
193
202
195
192
192
189
199
216
204
183
184
176
171
161
186
203
191
199
197
195
206
197
198
208
201
193
206
192
189
194
194
198
191
184
213
205
200
195
196
192
197
198
198
201
200
202
198
200
200
198
195
191
193
191
192
198
190
191
188
190
189
186
179
180
180
190
185
190
191
189
190
193
192
191
190
192
199
200
201
202
203
207
207
209
208
206
191
182
184
186
184
190
195
198
198
198
186
193
194
214
214
194
180
181
173
161
172
198
194
199
197
192
200
199
203
196
204
202
196
186
190
197
202
200
189
196
212
210
196
196
193
195
197
197
203
196
199
196
194
194
194
193
189
191
192
195
193
190
186
191
187
190
187
182
179
175
182
185
186
189
189
188
192
193
192
190
196
195
202
202
205
206
205
209
211
211
216
207
199
198
184
186
188
184
195
195
202
200
194
190
192
206
212
211
179
182
181
162
162
195
197
194
201
192
190
200
197
193
210
193
187
189
196
196
206
195
191
200
206
208
202
194
190
192
198
195
198
194
193
195
195
189
191
190
189
184
186
195
185
187
184
182
184
183
178
173
172
173
181
183
184
187
185
186
189
191
194
195
195
199
197
201
201
202
202
204
208
212
212
210
205
202
197
186
188
186
192
195
200
202
194
188
196
199
205
213
187
184
188
167
150
182
200
198
196
191
187
196
189
199
199
187
192
193
193
201
210
194
192
211
212
206
195
196
190
191
199
194
193
194
196
192
188
194
187
187
187
187
185
187
183
179
178
178
178
177
172
174
176
179
186
187
184
188
189
190
192
194
193
196
199
196
196
196
199
198
200
199
201
205
205
206
204
200
201
189
183
182
193
194
196
206
197
191
198
200
206
204
203
188
192
175
151
163
192
202
193
185
188
190
202
191
196
175
188
188
194
203
207
185
206
220
212
205
193
194
192
194
196
192
193
192
191
191
183
186
187
186
190
184
182
183
179
180
177
175
176
174
172
177
181
185
186
189
188
186
189
189
189
189
190
194
195
197
191
188
193
194
197
194
199
198
203
198
202
205
200
194
185
178
190
199
197
205
199
195
195
200
204
203
201
191
186
183
160
151
178
191
192
184
185
190
199
187
192
171
192
194
199
195
200
187
216
220
203
199
191
184
188
195
192
189
191
188
192
183
181
180
180
184
185
182
182
182
177
177
176
173
175
176
176
179
178
180
183
184
187
186
188
189
185
187
189
190
188
191
185
185
191
192
193
193
194
194
195
197
200
200
205
193
189
181
191
199
196
202
201
197
191
195
200
206
209
194
188
181
169
156
170
173
193
183
190
190
189
187
189
178
189
194
206
190
195
191
213
212
194
202
193
192
185
195
190
185
189
189
184
180
179
181
176
185
183
180
184
177
174
176
174
173
174
179
176
177
177
177
177
179
187
185
186
186
185
185
185
186
185
183
178
183
183
189
186
189
190
191
193
194
198
196
201
200
191
184
195
193
196
197
194
195
191
193
202
201
207
202
190
185
165
163
175
171
190
191
186
202
179
190
192
177
183
188
210
192
199
195
211
202
198
199
192
191
186
188
189
187
190
189
183
183
181
179
178
181
184
181
178
179
176
176
176
176
173
179
175
177
178
170
172
174
184
182
183
184
184
185
183
183
183
181
177
181
180
181
184
182
185
186
190
193
195
194
198
202
194
182
194
193
192
202
192
194
198
191
196
203
197
210
187
187
165
169
179
175
184
184
186
201
184
186
197
169
178
184
217
202
194
200
211
200
196
194
187
187
185
185
186
189
183
185
185
188
184
181
181
178
181
181
181
180
180
181
181
178
177
177
177
176
174
173
168
173
181
184
182
180
182
182
184
181
184
178
177
179
178
180
176
181
178
180
187
191
190
191
197
203
197
183
189
195
187
195
191
187
196
195
198
199
198
202
194
184
169
173
176
176
189
173
188
192
192
182
190
168
175
186
208
198
195
202
210
202
196
189
185
186
187
188
188
190
182
185
185
188
185
187
186
184
183
183
187
183
181
184
181
180
179
177
178
179
176
173
171
171
179
185
180
181
177
180
183
178
179
172
176
176
176
178
177
178
179
179
184
188
189
191
195
199
198
188
186
184
190
192
192
182
193
193
196
201
201
203
193
173
171
177
180
180
189
173
181
183
192
173
183
171
179
195
190
193
198
209
203
199
194
185
187
188
192
195
194
191
188
187
186
187
186
188
191
195
190
196
189
184
185
182
182
181
183
180
181
180
176
171
172
167
174
185
181
184
178
181
179
178
175
174
174
171
176
175
171
173
182
181
184
186
188
189
195
197
196
189
188
178
177
189
190
185
182
196
187
194
204
204
200
175
171
171
177
189
180
174
176
179
187
173
177
186
181
194
186
190
196
214
200
198
189
188
191
190
196
194
194
195
191
187
186
189
186
189
197
198
198
205
194
191
192
189
185
184
184
184
186
179
177
169
167
165
175
179
181
189
176
179
175
175
171
174
171
173
170
172
172
171
180
179
178
186
186
193
194
196
198
187
186
176
164
175
184
184
183
189
190
186
202
204
202
193
164
168
169
191
171
167
168
178
175
180
186
192
179
188
187
185
191
212
200
194
194
191
194
193
196
199
197
200
193
195
190
185
186
191
199
204
197
199
198
197
193
191
191
188
188
184
183
186
177
169
168
163
171
174
179
187
174
177
174
172
168
173
174
174
174
174
174
173
178
178
177
182
183
186
192
192
195
188
184
182
164
165
172
188
181
188
182
189
202
200
202
188
175
170
172
190
177
163
154
181
179
179
192
186
179
191
199
184
189
200
197
192
193
189
189
193
202
202
205
187
188
192
183
181
183
189
190
193
190
206
204
194
198
197
193
196
195
195
183
186
182
177
175
164
172
175
179
182
172
177
173
172
169
173
175
177
179
174
175
178
183
184
181
182
190
190
195
198
199
194
190
193
174
166
168
182
179
183
183
185
194
203
204
182
177
166
179
178
191
172
151
169
179
181
185
189
181
191
199
190
180
196
202
188
192
187
190
196
198
199
196
189
184
181
179
183
189
185
190
187
199
211
212
191
190
190
186
187
185
189
177
177
176
180
175
166
173
176
178
180
174
172
176
173
171
168
179
181
179
179
175
175
189
188
191
185
189
193
196
198
205
201
202
198
184
171
170
174
177
172
185
188
196
198
199
185
173
168
177
178
189
179
147
157
166
154
164
194
175
186
199
190
182
201
202
184
185
179
180
189
196
205
205
204
195
188
190
201
208
199
199
197
209
206
208
199
193
191
183
185
179
177
177
171
166
173
170
169
170
176
182
177
177
181
181
187
178
179
186
187
185
188
189
191
193
194
191
189
193
198
203
201
212
212
212
214
200
188
172
175
174
176
177
189
194
198
199
185
182
169
183
185
183
188
147
159
152
160
162
175
172
190
197
186
182
205
201
185
172
169
183
202
214
210
216
205
204
204
199
204
183
163
160
154
180
189
195
191
193
198
181
180
186
175
169
172
166
162
169
172
175
185
182
179
183
187
188
191
185
182
213
207
184
174
181
187
187
190
197
193
199
205
208
214
222
226
228
230
227
212
200
184
181
171
180
188
198
196
189
180
171
176
189
191
187
186
156
152
157
162
163
160
166
175
207
192
181
203
192
168
177
181
193
212
220
218
213
212
212
213
206
203
198
183
192
177
202
200
202
208
197
197
187
178
180
181
182
174
167
167
170
180
187
187
189
187
189
192
189
191
192
195
196
168
162
157
194
191
189
191
194
187
188
189
193
198
207
210
213
221
220
216
216
201
198
187
166
175
194
201
195
187
160
165
194
192
189
177
162
150
158
172
150
143
174
172
189
206
200
195
181
175
191
182
212
227
221
209
207
203
201
197
201
199
195
189
190
188
195
200
210
202
187
183
179
177
180
179
179
189
188
175
174
182
194
194
191
192
194
194
189
193
193
187
195
187
185
186
188
186
182
178
194
186
183
183
189
188
193
197
200
203
210
207
209
197
194
201
194
159
181
200
195
191
171
158
184
197
185
172
163
151
157
151
146
143
171
175
191
210
208
181
188
184
184
199
223
224
206
199
191
198
197
199
197
195
194
195
199
201
204
200
230
221
204
195
196
192
190
188
188
192
201
195
175
195
199
196
191
197
189
197
194
189
179
203
196
190
194
182
183
192
180
196
205
205
187
192
194
190
192
196
198
203
210
212
205
202
206
187
198
187
176
198
194
192
168
157
174
190
193
176
164
159
172
150
137
147
170
185
189
199
187
178
183
182
185
210
204
213
179
178
193
195
198
196
184
187
184
188
192
194
190
187
206
203
191
193
194
197
199
204
204
207
210
217
175
199
195
192
211
220
215
203
198
202
184
211
198
187
193
190
192
193
167
188
188
188
167
182
181
175
176
182
187
201
210
212
210
209
207
197
192
171
202
191
190
203
159
151
173
185
188
173
174
162
162
184
129
148
164
190
187
174
166
170
163
161
194
195
198
192
189
203
195
199
206
200
198
197
194
206
192
197
207
208
208
203
201
202
197
194
190
196
198
205
217
210
214
217
196
191
221
230
218
219
224
223
214
208
199
201
200
188
178
173
161
177
195
194
170
185
194
175
172
171
187
186
192
182
195
207
198
191
184
161
195
176
188
242
158
151
167
183
177
169
190
168
155
177
132
161
173
194
200
179
164
162
158
149
205
193
177
166
172
175
169
173
172
168
180
185
203
210
211
226
208
218
219
217
223
200
206
192
194
196
189
195
216
206
236
226
202
192
207
199
198
200
203
225
215
208
207
201
194
187
182
184
188
189
201
205
180
198
194
181
177
171
185
194
197
194
190
205
208
195
180
165
173
182
188
246
165
156
165
178
187
176
184
167
155
169
127
169
177
190
217
194
172
162
176
192
197
185
174
184
168
174
176
179
180
207
209
218
215
191
190
211
201
204
219
219
215
192
196
199
189
195
204
197
217
225
255
215
201
196
195
199
198
195
197
229
222
220
225
216
206
202
186
180
190
196
209
188
184
220
204
189
192
192
191
197
202
204
200
197
191
212
190
168
163
192
200
249
163
162
169
169
179
184
179
171
136
166
140
165
178
194
225
192
160
146
219
216
196
192
200
193
174
184
198
211
226
230
213
210
220
176
177
213
204
202
206
225
211
181
187
196
185
194
203
211
212
222
243
205
205
223
224
222
225
223
224
231
234
231
232
220
225
218
204
194
200
221
216
193
197
225
205
209
202
217
220
202
206
208
219
214
195
198
214
184
175
204
231
216
134
144
181
174
182
187
189
168
138
140
161
171
196
209
226
219
181
159
219
210
194
199
209
182
173
201
232
234
215
200
184
199
238
200
158
181
178
200
197
216
203
176
181
183
178
180
198
195
197
219
204
159
184
212
208
207
209
213
213
221
215
228
210
221
227
222
210
182
186
223
215
206
209
213
192
202
191
204
236
202
199
202
211
207
206
211
227
210
183
209
227
206
136
144
187
188
183
189
192
165
148
135
166
174
207
220
231
216
184
184
197
199
198
165
197
183
168
207
225
196
174
180
169
187
201
174
161
169
179
180
177
189
182
177
182
184
171
165
182
186
183
235
178
155
192
207
207
209
203
197
184
208
186
201
203
203
210
196
192
181
171
184
200
186
186
190
175
187
186
192
215
202
207
214
210
197
195
206
223
199
170
212
211
205
165
139
177
184
198
185
192
166
158
133
164
178
195
198
236
172
175
181
190
205
190
155
195
176
169
209
205
170
164
174
186
173
155
166
158
163
172
168
168
177
164
171
181
191
177
169
174
181
184
241
167
175
201
208
208
213
201
191
188
204
192
172
221
198
180
183
178
166
157
164
178
174
167
161
164
167
160
173
176
173
193
213
216
203
188
198
207
190
161
199
188
220
177
154
170
191
188
193
190
172
157
149
156
186
183
210
228
185
164
175
181
196
183
159
190
177
167
211
187
170
171
181
179
174
158
160
154
146
156
145
165
167
163
168
180
187
179
188
173
174
186
212
162
181
218
222
210
221
210
197
188
198
199
177
204
202
206
197
194
174
172
177
182
176
170
162
170
173
171
170
165
161
170
185
195
201
180
177
190
189
184
194
177
206
198
176
175
189
184
209
191
172
148
166
164
193
189
197
192
187
158
164
183
178
195
181
189
164
166
205
181
176
172
178
177
162
160
157
164
158
158
157
166
169
174
173
192
192
186
194
177
179
195
192
166
200
224
221
208
208
202
193
187
195
201
202
172
205
212
199
194
189
188
182
176
167
163
161
154
164
160
163
161
158
168
177
197
190
202
178
176
180
183
213
180
206
209
173
190
182
181
212
200
173
153
169
168
190
195
199
184
191
161
172
181
173
207
182
191
169
177
205
190
178
175
165
171
177
171
166
167
170
166
166
176
176
174
180
203
211
206
198
182
186
210
181
181
217
234
231
217
211
206
185
174
176
199
199
160
190
185
188
195
208
216
209
199
202
194
181
178
166
168
166
159
174
172
182
189
193
201
190
178
179
164
203
187
219
198
171
182
175
183
199
201
176
159
158
159
185
198
188
181
206
165
172
177
163
217
187
176
187
186
206
188
174
166
163
173
183
180
174
176
177
176
170
176
180
180
196
210
206
206
200
190
211
208
175
204
223
229
226
212
207
197
188
178
166
192
195
178
156
176
184
189
190
192
202
199
206
212
203
206
190
189
185
176
174
176
186
194
194
197
203
185
184
170
199
183
209
194
169
175
182
177
193
189
190
161
158
159
202
208
183
177
212
172
180
176
166
207
200
165
199
204
209
200
184
175
171
182
183
187
185
179
181
181
180
176
185
189
192
202
191
189
193
203
218
192
191
215
222
212
215
207
206
192
175
174
160
182
200
198
163
160
179
188
188
177
191
195
199
204
202
204
189
183
185
186
180
178
190
193
197
196
211
200
173
189
185
190
200
193
170
184
189
187
194
182
204
157
169
158
215
223
195
174
209
183
184
181
170
197
227
177
201
215
210
204
204
194
195
196
200
202
199
197
193
185
185
188
196
203
197
194
183
182
176
214
205
187
208
217
215
210
211
208
208
186
167
174
172
170
193
191
192
154
175
184
189
183
190
193
194
196
199
195
191
181
181
179
177
174
176
186
199
199
217
203
180
197
177
194
212
184
175
191
180
187
192
196
212
150
165
171
211
220
207
180
190
201
172
173
171
193
233
218
194
228
214
205
211
204
199
198
206
206
205
198
196
186
186
189
200
206
198
185
179
173
185
184
196
194
223
220
215
215
212
210
206
193
171
187
180
186
183
199
180
185
167
189
182
177
185
188
189
188
189
188
192
187
185
182
177
178
175
180
200
201
216
204
184
197
173
191
215
191
167
188
163
175
178
207
212
145
162
171
199
224
215
195
189
218
183
157
166
200
206
252
200
226
215
212
211
211
208
208
215
204
203
201
194
189
179
186
185
192
186
179
174
188
188
176
193
195
217
215
218
216
216
215
209
199
176
187
171
197
196
199
198
184
186
173
177
171
170
180
186
194
187
186
198
190
187
186
183
179
182
178
198
193
209
212
189
190
175
192
215
187
184
175
172
182
174
206
197
137
148
179
187
230
229
212
205
228
197
159
158
193
207
226
220
240
219
212
211
208
211
207
206
204
203
207
206
195
188
181
169
175
181
180
179
195
176
189
178
195
209
207
210
210
207
205
208
197
178
185
186
197
207
195
209
189
181
182
177
175
173
175
177
189
193
187
195
186
182
185
188
182
179
183
192
196
214
205
184
191
175
203
208
197
182
182
187
160
188
191
190
141
144
186
178
215
229
203
200
202
203
169
169
181
208
223
223
202
225
228
225
218
212
203
193
187
194
195
197
188
176
172
163
171
189
192
172
162
187
156
187
202
204
198
198
206
203
194
206
197
174
176
186
187
203
199
202
193
183
178
174
190
194
193
192
194
195
191
188
188
185
187
195
195
194
190
200
193
194
192
197
187
176
199
206
187
188
182
180
166
193
185
189
139
151
183
170
204
221
198
192
196
197
172
170
188
191
216
222
211
196
218
225
229
228
220
210
199
207
212
208
199
187
183
170
174
175
168
163
193
166
181
208
203
204
196
194
198
202
197
195
188
175
169
184
193
188
209
198
193
198
195
190
172
184
187
192
194
195
192
183
183
181
181
177
177
175
176
190
195
198
198
204
190
191
197
194
194
205
157
163
173
185
184
192
134
148
174
163
200
219
205
192
207
184
181
168
183
195
208
217
215
205
192
218
219
215
207
195
188
186
188
186
173
170
168
165
170
176
171
188
170
178
200
201
198
201
196
191
191
196
199
194
177
180
177
183
191
184
205
200
187
204
206
202
181
158
170
177
182
183
187
176
178
185
187
181
185
187
185
195
204
203
212
204
200
202
191
202
209
214
152
138
181
198
183
192
141
152
174
167
197
209
216
198
201
196
164
177
189
191
205
203
192
199
188
182
182
185
186
183
183
183
181
175
170
166
163
160
169
175
171
169
173
201
204
200
194
185
195
187
191
197
195
189
183
185
185
181
182
185
184
204
186
193
216
214
201
168
153
162
168
173
180
180
182
190
194
191
192
192
188
198
209
205
211
202
201
187
193
198
226
220
164
138
178
196
185
186
152
156
178
156
199
213
206
197
189
192
172
159
184
211
210
199
197
196
198
196
195
187
181
175
173
174
173
165
160
160
165
173
181
170
167
166
186
212
199
193
188
177
184
186
191
200
197
192
188
194
190
183
186
183
168
172
186
181
202
217
212
179
175
172
170
172
175
171
179
181
183
178
181
179
180
191
205
206
211
218
185
169
183
195
239
207
165
159
179
183
178
188
165
180
183
161
204
229
223
188
188
200
187
159
165
200
223
216
196
194
200
198
196
196
194
187
182
186
183
174
171
181
183
179
180
172
178
168
199
207
189
185
180
172
174
170
184
197
197
198
190
196
191
192
199
183
164
166
181
177
190
214
215
180
188
188
184
182
181
177
180
183
184
175
178
177
183
189
199
204
211
221
168
167
168
199
231
212
170
171
201
185
192
198
159
195
200
173
211
227
244
187
192
203
189
170
174
203
204
202
208
208
203
203
210
209
206
201
207
213
205
199
188
187
183
189
191
187
191
177
198
197
185
181
170
152
152
159
183
201
197
197
189
186
192
201
204
196
182
169
169
180
192
216
206
179
190
193
193
191
194
189
190
192
188
184
181
183
181
192
198
202
205
209
166
171
172
194
215
213
174
181
208
201
199
196
157
192
216
176
210
225
235
194
196
194
184
176
179
204
197
196
195
199
201
205
209
214
216
209
207
204
200
197
196
197
209
207
198
192
195
188
189
193
195
189
176
164
161
170
190
191
186
195
189
179
194
201
206
214
209
186
180
177
199
219
190
178
188
190
190
194
193
195
194
195
189
195
195
187
175
191
196
196
199
203
170
158
184
177
210
210
174
184
207
210
199
183
162
176
207
187
196
221
223
196
184
184
180
185
182
204
197
201
196
198
201
204
204
211
215
215
206
202
206
203
204
203
209
205
191
187
186
198
190
188
189
175
162
179
184
193
190
187
180
187
189
175
187
202
203
209
214
205
188
169
192
209
191
185
192
192
190
189
188
192
188
189
189
195
192
194
190
185
188
191
196
194
173
170
175
167
207
206
176
178
216
219
210
199
171
150
194
194
203
216
224
189
170
185
181
187
182
204
199
196
192
193
195
200
204
205
207
203
190
190
189
197
198
194
195
189
188
182
174
183
197
182
166
151
148
165
182
199
197
182
191
181
165
157
164
177
170
176
204
204
196
184
192
188
174
196
204
196
193
190
183
187
185
185
191
191
193
194
194
207
182
183
190
188
186
172
175
166
195
199
179
188
224
223
208
212
178
155
174
194
202
213
222
181
165
184
194
189
174
197
202
192
188
187
201
195
198
201
203
189
180
180
188
195
189
187
186
183
184
174
167
177
184
174
157
152
150
159
179
187
192
190
191
171
158
159
163
176
169
170
203
193
201
187
182
181
183
184
196
209
202
196
184
183
185
188
193
190
190
189
190
202
176
168
201
181
180
173
179
171
191
196
187
201
221
228
199
208
191
166
159
176
207
208
216
170
167
177
184
186
174
191
197
189
186
185
200
194
197
200
191
171
189
191
188
181
181
187
184
182
180
174
164
178
180
171
151
141
151
163
182
191
181
186
195
189
168
168
166
172
184
175
208
198
192
184
174
177
176
181
189
201
202
203
198
195
201
201
199
194
198
198
196
193
189
180
184
164
174
169
185
178
197
197
193
207
208
217
208
202
198
175
158
160
205
203
205
172
161
178
165
188
175
184
198
187
189
189
195
198
194
196
177
189
195
190
179
177
185
181
176
173
178
178
169
179
194
176
160
153
162
177
189
201
187
166
185
188
166
158
163
162
184
176
189
201
186
178
169
184
172
179
184
193
201
203
193
191
193
193
198
194
192
188
181
174
179
181
164
158
169
172
185
174
198
192
202
205
210
213
199
203
200
186
162
160
195
211
200
162
155
177
156
184
175
165
190
187
186
185
194
190
191
179
184
192
182
178
179
182
182
171
166
175
170
184
181
179
203
184
182
180
184
180
192
197
187
167
179
166
174
170
159
173
182
172
193
198
188
185
170
180
170
180
180
177
186
200
199
196
190
191
189
191
185
182
175
168
174
178
157
154
167
178
183
170
194
190
198
207
220
208
200
207
191
183
171
161
179
208
197
164
151
173
167
180
169
164
173
186
183
180
190
184
185
174
190
176
170
182
186
179
164
160
168
169
175
187
193
204
205
201
201
193
213
196
207
196
192
182
179
166
184
179
175
176
181
168
200
196
192
190
184
190
173
171
177
173
183
192
197
192
188
190
185
190
178
181
177
163
170
171
159
155
171
192
175
173
183
187
202
213
218
205
201
216
179
178
169
163
161
202
198
173
151
176
173
185
175
165
161
181
180
181
183
183
182
177
188
176
172
181
181
173
155
164
172
175
186
183
191
213
202
213
205
216
218
208
209
203
203
188
190
181
186
181
181
186
181
190
202
211
195
203
196
196
188
180
182
178
192
183
196
191
183
184
179
188
177
188
178
163
165
162
158
154
173
196
176
184
174
198
208
208
216
205
203
217
182
175
166
165
159
194
192
171
154
160
172
179
176
171
153
176
181
182
186
185
184
179
182
176
174
185
181
168
169
180
172
181
193
187
194
209
214
204
213
214
206
208
206
215
210
199
194
183
189
197
202
203
196
190
199
214
205
198
205
211
198
188
193
191
192
191
187
196
180
180
172
175
179
180
172
167
161
157
153
158
174
189
179
194
190
213
207
208
213
203
208
215
185
166
167
176
157
189
196
168
154
143
156
175
168
163
156
170
183
184
185
189
194
184
184
179
184
184
190
172
180
185
179
186
200
198
209
195
212
201
215
201
206
201
197
210
207
200
188
185
191
195
199
193
194
200
194
202
201
194
212
212
204
205
200
197
195
190
192
196
181
175
168
176
176
179
169
163
167
156
151
160
180
194
180
195
188
208
204
214
210
193
214
204
174
174
168
182
172
180
206
172
164
150
148
180
172
174
160
172
182
177
185
187
198
191
187
184
178
187
186
182
193
189
183
195
205
210
221
205
212
203
205
197
203
196
194
191
196
188
178
188
190
188
194
193
196
200
200
198
190
192
212
204
208
208
202
208
193
197
190
191
187
172
175
178
171
176
172
160
168
163
155
160
181
191
172
195
189
191
204
216
203
198
217
201
176
180
170
178
178
185
210
178
177
154
153
183
184
191
173
173
185
179
189
185
196
197
193
172
183
193
190
188
202
196
189
197
199
208
211
207
208
195
198
202
208
193
197
186
195
191
191
195
193
196
197
194
197
188
190
194
189
187
204
205
211
207
204
209
195
198
188
185
192
176
173
182
183
182
173
167
177
167
171
160
178
182
165
187
185
187
211
210
202
202
220
199
174
187
162
179
184
193
205
180
179
170
159
181
185
202
173
177
182
182
186
184
192
195
181
172
194
200
197
197
202
200
201
202
204
203
205
199
199
194
197
194
209
200
197
192
194
197
187
185
190
190
185
178
186
181
179
180
186
184
197
206
212
213
209
200
209
199
190
186
196
182
176
190
185
186
173
175
176
162
166
166
171
176
170
195
185
184
208
216
203
203
212
203
178
173
171
176
190
182
199
193
175
179
170
172
195
205
175
170
183
182
185
185
194
198
175
183
198
200
194
196
198
200
205
204
197
197
198
211
208
200
198
191
207
207
202
198
197
195
186
182
192
199
187
182
191
191
189
192
194
190
199
206
214
211
203
200
204
198
190
185
189
188
178
195
191
184
177
181
177
161
161
158
166
178
182
185
188
199
206
219
211
202
207
203
182
169
173
168
184
173
187
200
178
185
177
170
194
199
194
178
180
186
190
193
197
196
180
190
193
202
187
188
190
203
204
193
188
187
192
205
204
197
200
198
205
212
204
206
211
203
195
194
190
199
191
187
197
206
203
201
205
205
205
209
200
205
192
193
190
190
184
183
188
190
180
195
195
184
186
176
178
165
161
152
171
178
189
179
191
202
215
217
201
205
203
204
183
178
175
167
181
177
180
207
185
188
181
171
189
195
196
185
189
194
195
201
192
196
197
196
197
207
183
181
186
185
170
155
149
155
165
167
172
174
169
173
184
194
200
209
220
212
209
196
197
201
202
200
207
211
199
190
188
191
197
199
188
192
193
184
181
176
183
187
184
189
193
187
192
190
183
183
180
165
168
166
172
190
183
188
189
211
218
210
202
205
199
202
184
186
177
173
181
177
178
207
193
183
187
187
194
206
196
201
196
200
204
207
194
195
193
200
207
212
187
190
174
164
151
142
130
144
159
161
166
165
155
172
177
175
183
191
197
205
198
190
193
197
193
187
198
197
185
178
161
175
180
189
182
189
195
191
177
186
188
190
191
191
195
182
184
197
184
187
186
173
177
168
180
187
181
190
201
213
218
199
206
206
202
194
184
182
185
178
177
177
175
198
204
183
188
197
192
205
212
211
201
207
209
207
203
185
184
187
196
201
204
203
184
174
169
162
151
158
169
173
179
178
170
181
188
183
183
184
182
196
181
186
199
190
189
181
188
189
172
180
168
164
170
179
181
179
188
198
185
201
206
188
194
195
195
180
181
208
192
188
186
175
183
169
185
191
190
184
205
217
215
199
204
209
198
189
183
182
185
176
176
186
180
183
206
182
188
194
190
197
209
216
200
200
222
210
198
189
186
191
191
193
199
192
210
193
188
186
174
186
197
206
198
194
178
186
182
185
193
193
187
207
197
195
204
197
189
178
179
179
173
173
169
161
173
178
183
191
187
187
194
206
202
194
198
194
197
188
191
204
202
186
182
183
185
178
183
198
188
199
210
216
214
198
201
205
199
188
181
184
179
179
175
198
180
181
201
197
184
194
202
196
201
214
209
204
230
213
195
195
186
193
197
200
199
187
194
189
187
188
170
194
212
212
205
189
192
191
184
176
183
195
195
215
210
203
207
199
188
179
182
176
175
176
173
171
180
182
190
200
197
190
201
208
199
202
205
198
199
193
201
206
200
191
181
193
185
185
192
195
188
203
210
217
208
200
203
203
201
193
183
180
179
184
180
192
193
213
198
200
188
194
197
192
205
206
218
203
232
221
209
191
184
191
189
197
202
183
186
177
179
171
167
187
198
208
185
179
198
198
189
191
195
197
206
210
204
195
205
202
200
188
183
175
176
180
182
187
188
193
196
207
206
210
207
216
211
204
207
201
200
205
206
205
197
199
186
208
186
189
189
193
194
205
214
215
207
205
197
203
199
193
186
179
175
185
178
183
208
227
194
201
196
193
195
200
209
212
214
198
213
229
220
200
192
186
200
185
203
174
161
169
174
153
163
173
175
183
168
163
180
181
185
195
200
194
200
199
191
197
196
203
197
202
188
180
179
183
186
199
196
199
199
208
211
211
213
216
219
215
211
201
207
214
211
206
205
194
200
207
194
194
194
180
197
210
212
203
203
207
194
204
196
196
187
174
176
178
167
200
205
221
193
191
206
197
195
206
213
217
210
201
200
221
213
204
202
191
210
185
204
173
158
164
169
164
164
170
172
176
162
162
163
174
176
180
179
193
187
185
185
196
186
190
193
203
189
186
191
195
198
203
203
199
202
213
204
212
213
211
215
208
213
205
206
217
215
214
200
191
207
198
188
193
194
177
196
203
204
200
201
197
196
200
197
192
183
170
180
163
180
197
189
202
205
186
198
197
204
206
204
210
210
203
198
210
201
207
203
198
205
202
208
183
167
182
176
178
185
178
178
175
165
164
169
174
175
184
181
186
186
181
191
184
191
180
191
185
189
185
193
184
192
194
193
196
203
205
209
210
208
208
211
204
210
214
199
212
211
210
194
199
207
193
192
195
188
193
197
199
189
205
196
195
192
194
194
186
184
177
172
175
197
194
179
191
201
188
190
193
202
203
204
209
207
206
195
204
192
206
208
196
211
186
212
195
174
188
189
190
200
192
188
182
179
167
174
171
165
178
174
182
180
185
196
189
197
179
185
188
184
188
183
182
185
192
188
190
193
200
209
201
202
209
211
207
214
210
212
208
211
192
203
208
204
192
195
195
186
202
196
189
191
196
199
196
194
187
193
187
189
175
169
194
200
189
180
189
196
188
177
186
196
213
207
204
197
212
194
196
194
200
212
193
203
185
207
189
187
197
193
202
207
200
196
185
184
175
170
168
167
164
170
177
166
173
178
185
179
182
182
188
189
183
183
176
181
186
183
184
193
192
199
194
203
208
210
212
217
214
213
215
213
189
202
215
198
189
195
190
182
200
199
181
191
194
197
198
193
182
192
188
185
176
186
198
194
185
178
193
192
191
181
178
194
210
206
206
193
212
201
192
192
194
207
206
198
185
196
193
187
206
190
193
226
202
198
197
185
172
172
168
168
154
161
163
160
164
167
177
174
172
175
182
176
179
184
179
176
178
177
186
191
195
191
202
200
199
212
212
219
222
209
219
208
195
203
212
191
186
197
185
192
193
208
192
192
192
192
201
190
176
184
192
183
187
194
201
191
182
174
195
184
194
180
169
199
212
206
213
203
207
201
193
188
188
201
211
206
201
187
192
191
199
184
192
228
204
204
194
192
186
178
168
177
163
171
163
168
173
171
171
172
172
174
177
179
174
180
178
183
175
181
178
190
193
191
200
204
207
208
213
214
222
213
226
208
199
215
195
185
182
193
187
195
188
206
222
194
192
191
198
190
170
179
191
194
200
196
198
193
179
174
183
187
197
174
172
197
207
212
213
217
210
192
200
181
188
200
206
200
210
190
197
191
193
182
203
216
217
202
196
197
195
188
178
188
184
175
174
183
181
186
174
170
177
181
180
187
184
173
180
187
183
183
184
184
189
191
205
205
207
208
212
213
219
215
229
212
201
210
189
185
182
188
195
187
182
209
230
204
189
187
194
187
169
171
181
213
201
198
201
194
177
182
173
190
201
177
167
185
199
218
218
218
219
207
194
191
183
200
199
197
204
194
198
188
191
189
198
198
216
206
201
196
183
187
183
180
179
178
176
185
180
183
185
179
179
186
175
181
181
177
180
194
183
184
190
186
184
203
212
196
216
194
207
211
213
221
224
220
205
202
187
188
180
193
197
184
186
212
212
218
198
184
195
186
170
166
168
210
203
199
200
191
179
182
178
186
200
182
159
177
201
210
226
213
222
220
193
197
192
198
190
193
200
194
197
181
187
191
186
194
212
211
202
210
188
200
190
187
184
187
176
176
177
183
187
186
184
171
171
168
185
173
190
191
187
183
193
188
188
203
218
195
213
193
209
198
220
220
215
210
212
200
184
183
181
198
189
178
197
204
205
214
210
191
194
185
166
168
163
208
209
201
200
185
182
186
180
183
197
178
165
179
200
204
221
211
230
222
201
212
205
183
187
197
186
195
194
184
180
184
186
186
205
205
199
213
199
202
196
198
197
192
184
178
178
182
182
182
171
162
172
166
186
179
186
183
185
186
186
189
188
204
216
196
202
195
207
217
226
226
211
204
208
200
184
174
188
197
184
175
195
205
202
206
213
210
199
176
170
168
164
210
210
198
200
185
182
181
185
176
194
175
170
179
202
198
212
213
233
217
213
219
199
180
190
199
185
195
191
177
179
181
188
179
196
195
198
207
200
190
199
197
191
188
187
179
177
176
168
182
163
169
174
174
185
186
187
186
181
183
194
195
183
201
209
203
188
194
202
226
221
226
214
209
200
205
177
183
194
198
183
187
184
210
198
196
204
220
212
173
170
169
163
212
211
200
194
185
181
194
186
178
186
167
174
173
198
196
207
208
222
218
223
214
199
187
188
199
188
192
183
181
175
183
186
179
193
185
199
198
193
193
196
198
185
185
181
178
174
175
174
177
167
182
175
180
194
192
193
198
180
189
203
195
186
202
191
212
189
197
205
217
220
216
225
201
196
208
170
187
206
198
182
184
186
211
194
186
201
214
214
182
168
175
166
214
214
201
194
182
187
193
185
157
187
171
181
170
197
193
203
197
191
227
220
211
195
191
185
199
177
184
188
183
182
180
180
182
186
177
195
183
189
196
195
196
188
177
178
186
172
180
177
179
175
177
177
185
195
186
200
191
190
184
210
198
190
203
189
201
199
203
204
216
225
216
222
206
187
193
176
184
207
204
182
182
181
209
191
187
192
210
209
192
174
172
169
212
215
193
189
179
190
189
168
169
191
181
192
167
190
189
193
183
187
236
230
202
195
194
186
198
194
180
181
185
196
168
173
187
187
183
198
179
187
198
198
196
182
175
180
188
176
184
182
183
181
177
187
187
200
189
206
183
193
189
204
193
189
192
191
190
204
200
193
219
230
220
211
208
179
188
180
182
203
193
191
187
180
202
191
184
187
210
203
186
189
181
167
215
211
188
182
180
193
180
168
185
191
180
196
163
179
197
185
170
202
223
221
200
196
187
178
197
191
184
176
176
186
180
164
187
180
182
193
176
199
190
197
188
183
174
183
185
184
180
184
181
187
185
183
196
194
195
208
186
193
195
197
188
197
188
187
193
195
189
207
227
220
212
213
203
175
186
193
194
190
182
185
193
180
195
192
183
186
207
199
187
188
187
178
213
205
188
177
191
185
180
172
185
189
180
191
174
188
177
177
169
212
226
209
209
193
182
173
200
195
191
189
173
181
181
166
179
179
178
186
187
205
201
190
188
187
170
184
185
187
177
182
178
192
191
175
199
197
191
210
190
187
194
185
189
188
181
177
190
185
182
217
232
209
214
215
191
178
191
195
212
187
174
183
192
184
192
196
185
190
198
193
196
184
190
180
212
202
186
175
193
176
176
184
195
177
175
196
187
196
167
160
171
215
221
203
213
199
172
170
194
191
196
209
185
181
178
165
179
181
183
184
197
201
190
186
185
185
180
180
181
179
177
179
186
193
188
186
199
200
188
205
193
179
188
184
183
173
172
166
190
186
193
214
224
199
213
205
181
166
199
204
207
181
188
176
182
178
187
192
193
189
189
191
200
186
187
189
196
188
171
177
188
172
176
192
188
167
183
196
198
194
166
154
174
214
210
198
207
196
175
178
174
195
209
205
207
177
183
183
179
190
190
191
193
183
183
179
186
183
182
179
175
170
180
179
191
186
199
183
198
187
184
191
187
173
181
178
167
160
170
160
187
191
194
225
211
202
205
195
179
162
199
208
205
174
191
184
175
166
178
182
180
181
174
182
196
190
177
189
196
184
171
187
186
176
184
189
189
164
204
201
193
202
167
152
177
206
204
190
200
181
178
189
174
190
201
205
205
197
195
179
182
189
175
194
177
175
182
183
186
181
179
174
171
167
171
182
187
189
188
177
182
187
173
182
175
171
171
161
160
159
164
164
185
201
202
215
210
190
199
196
158
171
201
196
207
183
180
202
185
166
175
185
177
179
167
173
185
181
176
178
198
181
174
196
178
182
184
189
183
173
215
192
197
208
179
154
183
201
193
190
189
183
170
193
191
184
190
211
205
209
200
189
183
192
189
194
177
170
185
175
177
174
172
171
174
175
177
179
184
177
179
177
174
180
170
182
167
164
159
158
162
158
162
171
189
203
207
195
198
187
197
188
155
171
198
181
208
192
175
204
196
161
173
189
180
176
170
170
184
179
182
172
203
182
183
195
167
176
194
187
184
186
208
192
203
201
176
173
180
198
193
173
182
179
173
180
199
186
186
203
205
210
205
202
193
199
203
193
180
188
192
169
170
183
167
177
178
184
184
172
176
177
166
171
170
172
169
170
159
156
158
160
158
164
164
186
197
200
190
197
178
190
203
173
166
165
193
180
203
201
170
195
199
172
164
182
184
173
169
167
171
181
177
166
199
175
184
185
165
182
192
184
185
185
207
194
209
183
190
190
175
195
187
174
169
164
171
176
174
178
197
191
204
209
212
208
204
215
202
205
189
197
188
182
177
187
179
176
184
185
177
170
173
175
172
166
167
168
168
167
155
163
160
167
157
177
166
197
201
187
204
195
169
186
204
177
170
168
188
186
199
213
186
183
183
190
167
179
176
166
180
163
165
177
177
166
195
179
182
169
171
187
181
176
185
187
206
199
210
186
193
188
173
188
176
171
171
161
159
162
168
166
184
187
204
207
211
210
221
213
199
206
190
194
191
182
187
192
179
175
180
177
173
166
169
175
179
175
168
173
160
161
162
166
165
171
162
179
172
195
192
191
204
182
173
174
201
175
174
171
183
191
208
219
202
181
179
185
179
172
173
178
182
170
164
175
170
170
193
183
173
173
177
179
181
173
183
190
194
195
208
184
188
187
162
175
174
166
171
165
154
153
160
162
169
173
187
200
210
213
216
209
200
203
190
194
187
191
193
188
183
186
176
172
175
169
169
182
177
169
173
166
160
173
165
166
170
174
168
166
173
188
191
190
198
182
173
170
193
166
177
176
182
199
218
211
204
177
186
171
187
163
167
193
184
172
171
172
173
179
