P2
# Face with average contibution
92 112
255
191
190
191
195
201
193
196
194
193
193
194
197
198
185
187
181
190
188
194
195
191
178
182
182
182
182
182
180
172
168
171
169
163
159
159
159
154
160
164
160
157
162
160
160
171
169
172
167
167
173
176
173
169
160
170
169
163
165
172
175
169
172
177
177
179
180
176
174
182
180
191
188
184
176
194
187
187
195
198
196
195
198
192
193
194
195
195
197
200
199
198
200
192
193
195
195
193
192
192
192
193
191
194
196
191
179
185
183
188
190
186
189
189
185
186
183
177
178
178
174
168
165
161
164
163
164
162
159
158
161
165
161
161
166
167
172
173
169
174
172
176
179
182
178
172
167
172
177
176
171
170
168
171
171
179
176
176
177
178
175
176
182
179
183
181
186
196
190
181
186
196
198
194
195
196
193
195
194
198
198
197
200
198
200
192
188
189
191
191
194
194
196
192
191
190
187
181
179
185
183
186
182
181
181
186
184
180
177
171
173
169
168
165
167
164
163
164
174
172
167
169
171
176
172
168
177
174
180
180
178
182
181
183
186
181
177
179
173
176
181
186
179
175
177
177
177
180
185
175
174
179
179
178
178
174
178
180
182
191
194
187
182
185
203
192
191
195
194
196
194
197
198
198
199
201
197
190
191
194
195
196
194
196
192
190
190
192
186
176
177
180
182
183
179
186
179
184
175
172
174
171
171
165
162
162
170
176
180
180
187
187
185
180
182
186
183
181
183
185
187
192
185
190
187
189
185
182
184
182
181
180
184
190
184
183
182
187
187
185
188
181
184
181
178
182
176
175
171
174
173
178
193
193
180
177
200
193
188
197
194
195
199
196
198
194
198
198
199
195
195
194
200
196
192
191
192
194
192
192
184
176
178
181
179
180
184
181
180
176
172
174
172
170
166
160
162
172
184
190
195
195
196
194
192
190
191
186
190
187
191
193
193
199
190
192
195
188
195
186
190
193
192
186
187
190
189
192
183
186
191
193
192
190
192
195
191
190
183
183
177
174
168
179
192
190
181
173
195
191
195
196
193
194
200
198
200
192
199
198
199
199
199
196
195
197
193
190
190
191
191
190
178
184
185
183
181
186
183
176
174
167
167
164
165
162
163
167
177
188
195
196
197
196
195
196
199
192
195
185
187
187
192
194
193
195
194
193
191
193
194
188
187
191
196
189
189
188
191
190
192
187
195
194
201
203
198
202
210
206
208
193
183
181
177
178
184
187
185
179
196
193
189
198
192
197
193
198
199
192
199
198
199
202
199
195
194
194
190
190
190
189
189
183
178
182
183
181
183
180
175
171
167
166
166
162
158
163
168
186
193
195
193
196
195
193
190
191
194
188
189
183
184
183
185
191
188
188
186
187
188
190
186
183
183
189
193
188
188
190
190
194
192
191
198
197
198
203
199
204
211
215
219
218
200
180
179
179
176
180
186
183
187
192
193
201
194
196
193
193
197
198
197
200
197
200
199
196
195
191
188
188
188
190
188
185
182
185
184
184
178
173
173
163
164
158
159
159
165
174
180
190
194
193
192
194
190
189
190
189
188
184
186
180
181
178
178
186
182
185
183
183
184
184
180
178
179
189
193
190
192
191
194
197
193
192
195
194
195
198
204
205
206
217
219
223
216
205
184
178
179
177
187
189
189
190
190
197
193
195
199
195
192
204
199
199
199
197
197
195
194
188
185
188
187
186
184
185
184
180
181
181
176
169
169
160
158
155
154
164
180
185
184
185
188
188
188
189
186
186
186
184
184
181
184
179
173
178
177
179
179
183
185
186
184
182
179
176
181
188
190
193
192
192
192
200
194
192
193
194
195
194
201
210
203
211
217
222
220
220
212
190
178
177
178
187
192
185
190
194
201
200
203
193
192
201
202
198
198
192
194
194
189
186
183
184
185
185
185
183
182
188
187
182
176
168
167
158
159
152
155
183
191
191
187
187
189
184
181
185
188
182
181
182
183
183
183
178
171
174
171
173
175
183
184
189
184
181
178
180
186
188
188
193
190
189
188
194
193
190
192
195
194
195
195
207
206
210
210
217
222
219
214
209
183
176
177
183
189
191
185
190
197
200
197
196
189
198
199
199
199
190
195
194
190
187
182
181
175
182
184
184
184
184
182
180
173
172
163
163
163
162
184
193
190
191
192
189
187
182
180
182
183
180
179
182
176
178
173
171
170
170
168
169
172
174
177
185
184
179
179
182
187
189
188
192
190
192
188
187
194
189
193
189
192
196
194
201
209
210
213
216
216
221
216
213
209
179
177
176
178
187
181
185
189
200
201
194
196
202
200
198
201
187
192
195
193
187
183
179
174
182
189
180
180
178
181
180
174
173
168
159
166
189
196
193
190
193
191
187
183
178
178
177
179
178
171
175
170
171
171
167
169
168
168
170
174
174
175
177
179
175
180
182
185
192
194
194
196
193
191
194
193
192
191
191
191
192
194
198
206
207
208
217
212
215
218
215
213
203
175
170
174
176
182
184
188
195
196
198
197
205
204
200
201
189
191
193
195
183
184
179
176
181
188
181
178
185
183
181
176
173
164
168
186
203
200
197
198
193
194
183
177
177
172
171
171
175
169
170
167
167
164
169
167
168
169
169
172
172
172
171
175
174
176
182
184
191
197
195
197
193
196
198
197
194
191
190
192
192
193
198
200
203
201
210
213
204
207
214
214
213
202
169
167
168
182
183
188
191
196
195
203
203
208
203
202
191
196
192
192
187
182
182
181
179
193
185
179
186
183
174
172
169
168
187
200
205
205
202
197
195
186
176
176
175
172
169
169
169
171
167
166
165
167
171
169
171
172
168
169
170
171
169
173
174
176
183
184
188
192
195
197
196
197
199
197
198
196
194
193
192
196
199
200
200
197
201
207
210
210
212
213
212
213
196
171
171
175
181
190
189
198
198
199
203
201
210
203
196
194
189
187
187
184
184
185
193
195
183
188
187
172
174
168
168
187
206
210
206
200
200
198
191
179
174
173
171
168
168
170
169
172
169
168
165
174
169
170
172
169
169
174
175
171
165
172
175
175
176
183
185
188
189
196
198
195
193
192
197
193
198
195
195
196
195
198
199
197
199
205
211
214
210
209
209
209
220
185
172
171
176
182
193
193
200
202
203
198
203
205
198
191
194
190
184
189
192
189
195
192
191
185
178
174
173
163
178
202
210
210
203
200
205
199
187
180
180
179
173
172
171
171
172
173
172
167
166
177
170
168
168
170
169
173
176
172
171
172
175
176
176
176
182
183
182
189
198
195
194
192
191
188
192
196
197
193
193
194
198
200
203
204
210
208
212
209
204
206
214
212
177
169
178
177
183
195
197
197
211
201
192
207
200
196
200
196
187
194
197
195
194
188
189
182
178
177
168
173
192
207
208
205
204
203
204
195
183
183
181
177
176
173
177
175
178
174
173
169
167
171
169
167
169
170
171
172
172
171
170
173
177
179
179
178
181
179
179
183
190
195
192
193
190
187
187
191
194
196
194
195
195
198
201
203
201
203
211
213
204
207
209
217
200
168
173
181
179
191
197
195
203
211
203
203
197
196
200
199
191
198
197
196
190
185
186
178
178
171
168
186
208
207
209
207
205
206
202
187
179
184
181
177
177
180
174
177
177
177
173
167
170
169
169
167
170
173
172
172
171
170
172
174
174
177
176
177
178
177
180
183
184
194
192
191
192
185
188
190
191
192
196
194
192
195
195
200
200
204
206
214
207
205
206
210
213
182
164
176
180
185
196
198
200
208
212
212
201
198
207
201
191
197
197
192
187
186
185
177
176
171
179
201
206
207
209
206
205
204
194
183
182
184
178
176
175
179
176
174
178
178
175
171
172
171
167
170
170
177
176
175
173
171
176
176
176
173
176
176
177
175
177
182
182
189
193
188
189
192
191
191
193
192
193
193
194
194
197
197
203
204
205
208
208
207
206
206
212
202
167
172
180
178
189
196
204
206
208
211
202
203
207
200
194
197
197
195
191
189
185
183
177
180
189
202
204
207
206
207
200
196
186
185
185
181
176
175
176
174
177
178
178
178
177
176
172
170
170
174
171
179
183
180
177
178
180
178
175
172
176
175
177
175
177
180
183
186
191
189
188
191
191
193
190
193
190
191
193
198
196
198
204
203
202
206
207
210
206
207
207
215
184
170
178
177
188
191
196
205
216
204
202
206
204
193
199
202
195
199
196
189
188
180
178
182
189
197
205
209
204
199
194
192
190
193
191
187
180
179
178
180
178
178
179
176
177
178
174
174
177
173
177
179
184
182
180
181
184
182
179
171
175
176
176
176
177
180
179
184
189
188
186
188
190
194
193
193
193
191
192
195
197
194
202
200
204
206
205
208
211
204
207
216
201
174
174
178
184
193
193
198
217
210
201
211
202
196
205
204
196
199
194
189
187
177
181
178
191
195
203
204
196
193
194
192
194
197
193
192
185
183
183
180
180
183
180
179
180
178
181
181
182
180
180
182
184
183
181
182
185
183
178
175
176
175
175
177
177
181
176
182
183
185
182
189
189
192
194
193
195
194
194
195
198
196
201
200
205
204
206
208
210
207
209
212
215
179
177
179
188
191
200
196
208
215
212
209
206
203
204
201
197
197
192
186
191
182
177
176
190
199
201
196
193
194
192
192
199
198
193
192
188
188
186
186
185
183
181
185
184
181
183
184
185
187
186
185
186
184
186
186
188
183
182
178
179
176
175
177
180
179
180
182
179
183
183
186
188
191
193
193
195
197
195
196
199
201
200
204
204
203
203
206
211
212
206
214
218
187
180
182
189
193
192
207
204
214
210
208
210
202
202
203
203
201
191
186
189
183
181
178
190
197
193
193
194
194
193
196
201
199
197
198
195
192
191
191
190
185
186
186
187
187
186
184
188
189
190
189
186
185
186
185
185
185
187
183
182
177
180
179
181
181
181
180
181
181
187
185
190
189
193
196
197
199
201
197
198
199
199
203
205
201
203
207
206
214
206
209
217
197
178
190
189
199
194
201
212
207
209
210
209
200
201
200
208
199
190
188
188
184
181
185
191
187
191
193
197
197
196
200
202
202
198
198
199
196
197
195
193
191
191
191
191
190
189
188
189
190
190
188
186
184
187
185
185
186
185
183
184
180
183
182
182
182
181
178
183
183
186
189
192
191
193
198
201
202
203
199
198
197
197
196
204
200
200
203
203
210
204
206
213
209
178
195
191
205
195
196
206
205
212
210
207
193
196
203
201
197
188
184
191
190
185
187
182
185
192
195
199
199
203
201
203
203
204
200
197
199
201
199
197
196
194
193
194
189
192
189
187
189
188
187
186
184
184
186
185
187
186
182
182
184
182
182
184
182
183
183
181
185
188
189
195
194
196
195
201
201
202
205
199
199
195
195
199
201
201
203
200
207
209
206
209
214
178
197
199
201
196
195
207
203
214
209
198
193
197
204
200
186
186
187
197
193
188
180
182
191
195
197
198
201
203
203
205
206
209
202
202
202
203
201
197
197
196
196
196
196
193
190
188
191
190
188
185
187
186
186
188
187
187
186
186
187
184
186
184
184
184
184
185
186
187
189
192
194
196
196
199
202
202
203
201
201
195
195
193
201
201
203
201
202
201
207
208
208
181
192
204
196
200
196
208
211
211
209
197
194
198
207
200
186
187
187
193
192
189
178
185
198
201
202
202
203
208
206
207
208
206
204
204
202
202
201
197
199
197
197
198
198
194
194
191
194
193
188
186
185
185
187
186
186
188
188
189
187
189
190
187
184
186
185
186
187
188
188
191
196
194
196
199
200
204
204
201
200
197
197
192
199
200
199
202
199
197
204
209
203
183
189
200
194
197
201
209
210
208
206
199
196
203
204
195
191
187
184
189
186
186
178
188
201
204
204
204
204
207
209
207
206
202
204
206
202
201
201
198
199
198
197
195
197
194
196
194
193
194
191
187
185
186
187
187
185
190
190
187
190
191
191
190
190
191
190
191
191
190
191
192
195
195
196
197
201
201
207
201
200
198
196
196
199
198
198
202
198
197
202
204
196
182
191
194
189
196
200
212
215
205
205
197
198
199
197
193
194
180
182
184
186
187
181
195
203
205
205
205
203
206
207
204
203
202
205
205
203
200
198
198
196
197
197
195
199
196
195
193
194
193
191
190
188
188
188
189
185
189
192
191
192
193
192
194
198
197
196
199
198
195
197
198
198
197
198
199
203
201
210
210
200
200
199
199
200
199
200
199
197
198
201
205
187
180
186
194
191
196
202
211
214
207
200
197
193
193
190
194
189
181
181
182
187
183
183
199
204
204
203
203
199
203
202
200
203
206
206
203
203
201
198
197
196
195
198
197
198
197
198
194
195
194
193
192
187
189
190
188
188
189
193
192
194
196
199
202
202
203
200
202
202
200
199
201
202
201
201
203
201
201
203
214
211
201
199
202
203
200
201
192
194
197
203
206
188
174
182
191
197
196
199
210
211
208
203
196
189
193
191
188
189
182
180
183
186
183
180
201
203
202
201
200
200
200
199
202
205
208
203
201
199
200
199
199
197
198
199
202
198
199
195
194
193
193
191
192
188
188
193
191
190
192
194
196
195
199
202
205
203
204
202
202
203
202
201
204
201
202
203
203
202
200
199
203
214
209
200
204
207
204
201
193
194
197
203
207
185
172
174
192
200
196
202
208
208
210
203
201
195
191
190
186
189
182
178
184
184
177
178
201
205
203
198
200
201
200
205
206
209
203
196
198
197
199
202
201
197
197
199
200
200
200
194
191
195
193
192
190
191
190
194
194
195
195
198
197
196
198
199
199
199
201
201
198
202
201
200
198
200
197
199
197
199
200
198
196
207
212
204
202
210
209
205
196
199
203
200
205
180
172
177
189
199
199
210
209
211
208
202
208
196
190
190
186
187
180
175
182
186
171
177
200
204
202
201
197
202
205
207
210
206
197
192
197
197
196
202
200
196
196
196
194
200
198
196
196
196
198
196
195
196
194
197
198
196
195
196
194
194
195
198
196
195
197
198
193
192
189
189
188
192
189
187
190
194
192
195
197
199
208
211
210
212
212
209
206
202
207
204
207
178
168
185
184
194
205
212
209
215
205
203
213
195
186
194
181
181
178
178
181
184
173
177
202
208
205
205
205
210
211
212
205
193
192
191
194
192
187
194
190
185
182
183
179
183
187
190
194
200
200
198
199
196
199
196
194
194
192
192
190
193
196
197
194
190
188
187
181
180
168
170
168
170
171
169
176
181
179
182
187
192
200
214
215
214
214
212
210
207
209
208
202
179
173
188
185
187
212
208
208
207
206
210
212
199
189
189
182
177
181
175
177
181
173
179
205
211
206
201
211
215
208
202
192
195
199
197
199
199
195
192
191
183
177
182
174
177
182
187
181
188
195
198
196
196
198
197
193
194
195
191
190
189
196
195
191
182
176
174
167
166
160
157
156
157
153
158
158
162
167
169
176
179
192
203
216
217
212
215
215
209
208
208
203
176
181
195
191
186
207
213
204
201
210
216
214
203
194
186
182
176
176
172
175
183
176
181
203
209
205
208
219
213
202
195
192
200
202
195
193
192
196
192
191
189
189
193
192
184
188
190
187
182
186
192
194
200
197
195
195
194
192
191
187
191
190
191
188
181
174
171
169
160
160
155
155
152
151
154
151
151
157
161
170
172
176
188
209
212
212
209
214
204
204
204
198
173
182
194
191
191
197
214
203
203
218
217
214
209
193
183
186
174
174
170
176
182
175
174
207
210
210
216
219
203
195
191
192
198
196
189
191
191
199
201
202
203
207
203
201
197
195
195
191
183
185
182
188
196
197
195
195
193
191
191
188
192
191
186
189
184
171
163
161
159
159
161
160
161
163
161
162
165
162
161
163
167
169
175
193
200
205
205
207
204
203
199
184
163
179
191
193
193
201
209
207
197
220
215
214
210
190
181
182
173
173
170
175
177
176
181
206
206
210
213
208
194
185
188
193
201
201
201
203
200
215
212
210
212
209
202
204
198
196
200
197
197
187
182
185
191
197
195
197
191
192
190
189
192
190
183
181
170
161
161
163
155
159
170
168
182
179
173
176
175
172
168
163
161
166
172
182
188
190
206
205
201
202
199
170
158
170
187
194
196
206
211
211
202
218
220
222
215
194
183
177
172
170
173
170
174
179
177
202
203
209
209
201
197
192
192
198
203
210
209
209
203
208
204
204
201
194
190
193
194
196
197
198
200
195
190
185
193
200
201
199
196
195
194
189
190
185
179
169
164
164
161
160
156
158
177
167
191
189
186
185
181
190
179
182
174
172
177
179
189
186
194
213
205
204
199
164
154
165
184
190
192
211
212
213
211
217
230
232
222
203
184
173
172
172
166
171
171
177
177
199
200
206
205
194
192
192
198
204
212
212
208
200
192
202
195
189
200
182
185
182
189
195
191
196
196
191
194
189
198
203
204
205
203
194
193
190
186
177
174
167
168
162
157
159
163
164
176
183
191
191
189
178
179
189
195
195
197
192
193
195
205
201
195
216
222
224
207
164
153
165
181
189
198
213
210
219
217
221
240
235
229
209
191
177
169
169
171
170
167
176
175
192
197
202
203
192
191
192
199
209
205
203
190
179
176
194
194
186
196
180
183
179
184
198
207
209
209
202
205
199
210
211
212
216
214
207
199
195
190
174
179
172
168
162
163
166
166
165
167
172
181
184
185
175
177
196
208
201
214
210
201
211
215
210
209
213
213
229
222
178
162
174
183
192
203
216
209
217
217
228
242
238
239
213
204
183
161
163
171
165
160
168
165
187
190
196
197
186
189
192
203
202
195
192
174
183
186
184
192
194
193
199
199
203
199
194
198
208
210
207
211
217
213
220
220
221
221
213
204
200
201
189
176
173
171
169
165
164
165
164
162
169
170
169
174
178
172
190
183
186
200
208
186
205
233
218
219
222
206
217
203
185
186
185
187
187
200
211
213
218
217
231
228
247
254
219
224
203
169
162
172
163
163
166
160
182
191
197
199
194
195
200
210
198
200
186
178
184
189
182
178
182
172
183
163
189
205
206
203
190
194
200
207
224
216
222
223
227
219
215
206
204
209
201
174
168
167
162
157
159
167
164
163
162
161
156
168
176
175
180
179
187
187
193
189
204
233
216
222
220
206
211
192
175
192
197
184
180
200
215
208
220
209
230
220
250
242
232
228
220
196
170
171
165
158
166
158
181
192
193
198
200
198
201
208
203
206
183
179
186
193
200
167
227
182
184
192
195
216
193
190
178
172
186
196
210
201
213
219
221
218
216
209
210
205
201
173
168
167
171
168
161
157
163
176
158
163
144
168
173
162
159
159
181
197
179
182
196
216
189
215
204
201
209
188
170
183
194
182
178
204
219
208
216
207
216
218
255
232
243
223
225
203
175
169
161
161
164
162
185
196
196
196
201
203
207
208
200
195
183
181
198
201
211
162
192
180
169
184
198
218
203
183
176
170
187
191
193
190
198
210
214
211
214
205
207
198
196
175
171
178
174
169
161
148
182
191
149
175
151
156
172
160
166
154
159
182
190
174
200
215
197
193
197
198
214
188
174
176
180
178
176
194
221
214
219
212
212
211
253
230
247
230
220
207
187
175
162
158
156
171
191
196
191
190
205
205
205
199
193
194
196
191
196
190
205
169
159
170
171
178
199
212
195
178
177
176
189
206
203
194
204
213
220
217
221
213
213
204
197
190
178
182
177
169
164
154
176
194
157
161
159
155
159
154
171
176
163
160
185
172
185
205
197
199
201
208
220
185
179
179
180
179
177
188
227
218
222
216
215
207
247
227
241
225
222
209
200
194
168
154
151
168
187
189
182
193
206
204
201
199
192
191
185
185
184
192
192
186
171
171
182
180
198
204
183
180
175
180
200
207
201
202
214
217
224
224
225
221
219
214
195
202
180
184
175
171
170
171
182
189
177
158
161
158
160
169
181
189
172
166
169
181
182
195
201
199
211
211
215
183
179
183
182
179
173
190
224
232
228
211
214
207
241
227
230
222
226
213
206
197
176
155
150
172
180
179
179
199
206
206
207
209
199
190
188
189
194
194
197
197
186
190
194
187
192
193
188
186
182
182
200
210
196
205
219
211
223
219
223
219
220
213
200
197
182
183
181
177
172
176
182
185
177
170
172
176
175
180
179
183
193
184
187
186
190
189
195
194
205
203
205
174
170
189
181
174
180
199
215
226
232
206
208
199
235
228
232
219
221
208
210
200
172
152
152
182
186
172
179
199
206
200
206
212
205
195
196
198
204
208
209
214
200
196
190
197
193
190
190
187
184
194
207
207
194
211
215
213
217
211
212
214
215
209
207
192
195
184
183
180
179
174
172
177
174
176
177
175
172
172
173
174
189
183
194
194
191
189
188
188
194
197
202
168
159
189
186
169
198
194
215
226
230
204
199
194
223
225
230
225
229
215
216
201
173
143
156
190
187
173
179
201
197
196
202
203
208
206
201
200
205
204
207
207
202
199
190
201
191
193
197
203
193
195
208
197
192
208
208
203
214
207
209
212
206
203
202
191
192
193
180
185
180
181
171
173
177
180
186
179
188
184
183
177
193
193
198
200
199
190
189
190
186
202
206
167
162
183
189
175
210
197
209
240
226
207
192
187
221
228
232
223
223
213
210
207
176
138
162
188
179
169
180
195
189
185
194
194
200
203
205
207
212
211
209
204
205
201
203
207
199
195
192
196
194
201
201
188
195
201
200
198
205
204
205
207
207
203
199
200
193
195
189
188
182
177
173
174
175
176
179
178
186
185
180
178
192
197
197
198
202
199
193
196
188
195
203
170
168
179
190
195
226
196
202
247
224
213
191
188
221
237
236
238
223
209
197
199
173
140
168
184
171
168
178
189
185
182
186
192
194
199
200
207
208
207
203
203
204
206
208
206
200
189
189
193
190
206
198
184
197
197
192
188
197
200
204
201
203
205
202
198
201
186
193
182
184
180
178
176
174
169
169
166
171
172
173
183
192
202
203
196
200
200
199
197
194
195
202
170
166
186
203
216
230
193
200
249
216
215
194
183
203
228
230
240
240
211
193
192
170
141
171
185
166
166
177
185
183
183
185
188
191
195
195
200
200
197
196
199
197
202
201
194
190
188
192
194
195
197
187
178
189
189
182
182
188
197
201
202
202
206
203
196
201
189
184
186
172
173
176
166
162
159
163
162
170
171
172
185
192
202
202
199
200
197
199
194
191
197
206
176
163
201
214
220
227
187
200
243
208
215
197
185
188
210
218
233
240
221
200
193
173
142
170
185
163
164
178
185
185
185
189
191
193
193
195
195
194
189
185
189
192
193
188
187
183
183
185
192
192
186
173
174
183
182
175
176
185
187
197
200
202
201
200
201
196
190
183
181
174
164
167
162
152
153
156
158
164
167
174
180
186
195
198
197
192
189
188
182
186
190
210
179
165
216
220
215
221
192
199
233
198
209
194
186
174
203
211
225
226
221
205
199
171
142
167
186
169
162
180
183
185
187
188
193
192
186
187
183
183
181
179
180
186
177
177
179
176
178
179
187
185
174
169
173
179
171
168
176
175
181
188
194
193
196
193
192
201
190
184
175
177
174
170
170
160
161
162
162
163
163
171
170
177
183
186
187
186
179
177
179
183
183
210
185
167
206
217
214
223
191
202
214
200
205
194
191
174
184
205
217
213
205
206
205
171
145
172
181
177
164
180
184
183
186
184
185
181
179
181
181
182
179
175
173
170
172
176
177
174
179
177
182
179
164
165
175
173
167
176
174
171
177
185
195
191
195
191
187
191
194
179
176
179
182
175
181
177
174
164
163
160
168
167
173
173
186
186
182
184
179
173
180
179
186
205
189
166
192
210
216
224
192
200
202
208
205
192
193
167
162
198
209
199
182
191
212
175
148
170
177
173
169
183
182
180
180
175
175
174
171
174
178
184
186
180
176
174
178
177
173
172
182
171
170
166
164
166
178
171
173
179
177
175
179
185
194
185
190
192
192
194
194
182
179
183
182
179
177
182
184
173
164
164
165
167
172
181
181
187
184
183
185
183
180
176
186
201
193
165
191
207
215
218
192
194
200
212
208
189
189
162
158
183
211
201
179
176
209
180
154
166
176
168
177
174
182
178
177
173
171
172
177
177
180
184
181
177
175
174
178
174
175
168
172
169
167
170
170
173
170
173
186
185
183
181
183
182
192
192
197
196
198
201
197
186
181
182
180
179
177
180
184
175
170
156
166
168
178
184
186
184
184
184
181
183
176
178
188
196
193
166
180
196
209
211
189
190
202
214
206
178
187
159
169
182
216
202
182
175
197
185
160
170
168
167
181
175
177
175
174
174
172
176
182
184
181
179
172
174
173
174
178
172
168
169
167
164
164
171
176
175
168
180
185
192
187
184
187
191
189
196
206
200
203
196
198
185
179
183
179
171
177
180
184
175
168
160
163
169
177
179
182
180
177
175
174
179
177
179
190
191
181
172
178
192
205
213
194
188
202
214
203
163
185
158
177
184
213
205
195
184
189
179
166
166
179
169
180
179
180
173
178
174
174
176
177
176
176
178
170
171
171
172
176
175
170
165
171
166
169
177
181
179
181
187
186
193
193
186
191
198
195
203
215
210
208
202
201
187
179
178
182
175
167
169
174
173
169
169
169
174
178
175
175
179
181
173
175
180
182
183
188
185
168
169
172
187
201
209
189
183
212
212
203
152
167
166
175
180
197
204
200
198
184
187
166
166
181
179
185
181
181
178
174
172
172
176
176
175
174
173
174
168
169
181
174
171
173
169
170
173
177
180
189
193
198
191
191
195
194
191
195
198
200
208
218
220
207
204
194
188
183
176
177
179
166
167
166
163
166
171
169
170
172
172
171
172
180
179
176
177
185
182
190
174
182
160
173
187
197
204
173
184
213
210
201
160
151
159
171
173
177
202
199
196
194
191
175
168
175
184
186
184
184
184
181
181
182
180
177
174
173
170
173
173
167
172
175
172
173
173
169
176
178
181
193
200
202
186
192
189
195
198
196
199
199
202
207
214
210
190
189
186
182
171
168
174
166
162
162
164
159
162
166
165
165
167
167
171
173
177
175
181
181
184
185
170
184
163
176
181
201
189
170
186
210
207
201
159
144
151
162
166
167
200
207
196
194
199
189
176
175
180
183
184
185
188
180
186
189
189
180
179
177
175
172
173
171
173
178
176
172
171
175
182
182
190
191
197
197
185
187
189
194
201
199
198
199
193
194
201
195
187
179
182
174
169
165
169
164
164
164
169
169
164
165
165
166
165
166
166
173
178
179
182
183
183
180
167
183
177
177
190
203
173
172
191
208
205
198
163
149
139
160
160
175
202
209
197
197
209
194
174
178
181
185
183
183
186
186
190
184
187
182
180
178
175
171
173
177
177
175
177
180
184
186
187
186
188
188
187
184
182
185
190
198
200
199
196
195
189
191
193
182
179
178
179
172
167
168
165
164
171
166
171
175
172
172
168
170
166
172
171
174
177
181
183
186
181
171
169
182
193
195
209
194
161
173
198
205
203
197
161
163
134
158
155
174
198
207
206
202
224
193
175
181
181
182
187
187
186
185
190
193
188
184
185
184
181
178
182
181
177
180
180
182
185
181
181
182
183
187
178
174
169
170
185
202
203
198
191
191
191
191
187
172
162
172
176
176
164
162
162
163
175
175
175
176
172
171
168
168
168
179
181
176
175
179
189
186
185
164
159
193
197
204
213
175
163
177
197
204
203
199
164
169
135
146
160
163
189
203
210
203
219
203
178
182
184
182
185
185
182
182
186
187
188
186
187
188
187
183
180
182
180
180
184
184
185
179
179
185
184
179
174
175
174
183
191
197
194
193
185
180
185
191
181
160
159
166
179
183
180
166
157
164
174
176
179
180
175
172
174
170
174
183
188
180
175
183
186
187
186
162
154
199
201
207
216
168
164
175
197
198
198
201
162
168
148
139
159
151
176
195
200
206
207
217
199
179
182
180
187
185
185
184
187
187
190
188
185
186
184
182
180
179
179
179
183
185
187
180
183
192
192
183
187
186
186
194
199
199
193
192
183
185
188
195
187
166
177
184
196
200
191
171
160
165
176
184
180
181
177
173
178
176
181
191
189
185
182
187
187
185
182
159
157
205
199
207
217
181
157
178
197
194
204
200
159
166
158
137
151
150
158
175
194
201
203
215
215
182
181
180
181
185
184
186
190
189
189
188
186
187
187
187
183
185
185
184
185
191
191
185
190
198
204
207
201
202
200
194
196
190
190
189
188
187
189
198
193
190
196
196
199
198
189
175
160
162
171
180
183
182
173
169
178
179
185
189
190
184
182
189
193
184
178
145
187
206
196
204
207
194
147
178
192
196
202
204
159
165
164
138
149
150
163
164
171
178
197
196
214
186
178
181
184
185
184
187
190
191
188
188
191
188
189
190
186
189
189
187
185
192
192
189
194
203
214
222
213
204
198
192
192
190
189
189
197
190
190
197
202
203
208
206
203
202
196
189
168
159
166
174
184
184
181
177
184
187
189
187
189
183
185
184
187
180
175
148
199
206
197
198
201
192
148
175
185
202
202
203
162
166
170
137
141
143
162
173
169
163
184
178
201
196
178
181
182
184
184
185
192
188
188
193
195
192
188
189
190
190
191
187
187
189
193
192
195
200
207
209
211
197
194
192
191
188
195
188
201
195
188
190
194
191
189
192
195
206
206
201
181
162
161
168
180
187
186
185
190
192
192
189
186
185
186
185
186
178
174
153
199
198
194
193
194
175
155
172
193
203
202
204
165
170
174
146
144
139
150
170
173
166
182
174
190
203
183
181
177
180
184
185
191
186
191
196
193
192
190
190
191
190
188
187
187
190
195
197
195
197
200
192
198
194
190
199
198
191
192
196
200
195
191
191
190
187
186
184
186
199
199
196
188
167
158
170
178
189
187
193
191
193
192
188
186
185
187
187
182
179
166
163
182
184
186
181
172
158
160
180
202
204
202
206
163
177
174
160
144
149
144
158
166
172
175
173
181
200
189
181
177
180
184
185
188
189
196
196
194
193
195
189
189
189
190
186
189
193
196
198
195
196
190
190
193
187
190
192
204
199
190
193
188
191
202
199
195
192
191
181
180
190
193
190
186
168
159
165
175
188
193
193
190
192
188
187
184
186
182
185
182
176
165
156
165
163
165
157
149
156
160
191
203
204
202
204
164
177
177
170
149
155
151
158
160
163
156
160
161
196
191
185
181
188
187
184
185
190
196
197
196
193
194
187
190
187
185
179
188
191
195
198
194
193
189
190
192
195
196
198
207
206
200
198
199
204
213
207
203
205
199
188
190
191
185
187
174
167
163
158
173
182
192
194
189
192
184
183
185
183
181
179
185
177
163
154
154
154
146
148
150
153
169
193
204
204
204
200
169
175
179
170
162
150
154
157
157
167
152
155
159
187
190
183
181
187
185
183
185
189
194
194
192
192
190
185
189
182
179
182
189
187
192
193
192
194
196
194
198
207
209
208
206
205
206
209
209
206
205
201
196
195
192
197
202
203
189
186
169
166
163
157
166
174
189
192
186
186
182
177
184
181
180
179
183
176
160
148
146
153
148
150
149
158
175
193
208
205
204
200
179
176
179
172
167
153
150
155
152
164
155
152
161
174
191
181
180
187
181
184
188
186
189
189
188
189
187
180
180
173
175
177
185
185
189
186
195
198
200
200
204
204
206
200
193
192
195
202
209
198
187
183
185
181
176
184
194
198
194
189
179
168
161
160
162
170
182
191
180
182
180
174
183
181
181
181
182
173
156
147
142
150
154
156
153
166
177
199
211
203
201
203
186
182
183
175
169
166
150
151
148
159
157
145
158
159
184
184
182
187
184
190
186
181
184
184
183
186
180
177
172
168
171
173
179
181
185
184
193
202
200
199
199
199
203
196
194
187
183
189
195
186
176
176
178
178
173
174
178
180
181
183
177
175
162
171
166
175
179
188
181
176
177
176
181
181
178
182
180
168
150
150
139
148
156
158
158
170
180
207
212
204
201
204
188
188
185
174
173
172
159
152
149
153
159
141
146
143
177
184
185
185
185
189
183
176
183
182
178
179
176
173
170
168
174
175
180
185
185
185
186
193
196
194
194
195
196
191
187
178
177
172
173
164
161
162
165
168
168
169
170
172
166
159
157
169
161
174
173
182
184
183
183
178
177
178
179
179
175
183
176
160
148
149
143
149
163
160
160
174
188
207
211
204
203
203
185
187
186
179
177
172
167
166
152
153
160
145
141
145
170
179
185
188
186
186
180
179
181
174
177
173
172
172
172
165
167
175
178
178
176
177
173
184
188
184
186
184
183
179
165
165
167
161
162
159
157
151
149
155
162
166
170
165
159
143
143
157
168
168
178
188
191
187
185
182
177
179
176
171
176
179
168
155
146
149
147
154
165
162
163
176
197
210
206
203
203
204
186
180
183
182
173
173
170
169
160
154
160
154
140
146
161
178
179
183
187
184
182
185
179
173
175
177
176
176
172
169
169
181
182
172
166
168
163
186
191
185
188
184
180
179
160
164
162
166
169
167
166
159
150
160
172
177
184
179
169
152
149
159
171
169
180
192
197
189
191
185
177
180
177
174
176
179
164
149
147
147
152
158
166
163
170
183
199
209
208
204
202
202
189
176
180
178
169
176
170
167
171
169
168
161
147
153
154
179
177
185
183
185
182
185
182
179
177
185
183
181
179
174
172
185
188
174
164
160
167
188
190
195
196
200
191
194
180
188
183
182
176
182
181
179
174
190
195
210
210
197
184
175
173
170
177
180
186
195
199
194
193
189
184
182
184
177
179
176
163
149
147
158
157
163
168
169
178
188
200
208
204
204
204
202
190
184
180
174
166
174
168
164
171
172
178
171
162
159
148
182
178
183
185
184
179
184
177
179
177
178
184
186
187
181
176
187
189
185
180
170
177
188
184
202
194
203
205
204
194
200
197
190
184
191
190
191
193
199
194
192
201
192
189
188
183
180
178
186
195
195
199
196
187
185
187
180
186
184
179
174
156
150
152
161
161
173
176
172
183
189
203
207
204
203
204
206
191
192
180
178
166
170
167
164
172
171
176
174
164
154
155
173
181
179
182
181
183
183
179
183
175
171
183
188
187
188
184
187
194
196
202
192
190
191
183
190
184
190
203
196
189
195
187
185
181
177
179
187
189
192
186
177
179
186
184
186
186
190
179
180
191
201
194
194
190
186
187
187
189
185
180
166
154
153
155
161
161
176
176
174
182
188
206
201
204
204
207
203
192
192
181
180
169
164
167
167
171
172
173
175
167
154
159
168
191
180
181
180
181
182
185
189
185
181
185
184
183
191
188
190
192
198
211
196
193
183
182
180
178
177
186
182
173
185
179
178
176
172
172
178
176
178
184
190
196
194
195
193
190
193
197
193
193
211
207
201
191
191
187
192
192
188
184
167
157
153
157
159
166
173
172
177
183
194
204
201
205
204
208
203
191
192
186
182
176
163
166
168
168
174
171
176
169
164
161
163
192
184
179
180
182
183
185
187
185
189
192
186
185
188
189
192
195
192
199
196
191
185
175
175
171
177
176
170
164
172
173
168
170
170
171
176
177
181
190
199
199
188
194
194
190
202
209
202
195
207
208
205
193
190
183
193
193
193
183
170
163
158
154
161
168
173
171
179
187
200
202
201
202
205
207
204
187
189
189
182
179
168
166
171
169
173
172
175
172
168
162
164
189
189
177
176
180
184
186
185
185
188
195
184
187
187
189
188
200
190
189
189
190
190
181
182
182
182
182
182
181
183
182
181
183
189
188
192
199
201
206
197
192
188
195
193
189
200
207
202
196
198
202
203
189
186
185
188
189
190
182
169
170
160
153
159
169
175
168
181
188
201
203
201
204
208
205
206
192
185
190
183
177
173
168
180
173
170
173
175
170
167
165
164
183
194
174
171
176
188
186
186
185
180
192
186
186
184
183
188
199
194
190
187
191
192
187
184
183
186
184
185
188
193
198
202
207
209
213
209
210
208
205
197
191
190
194
192
190
201
207
202
199
194
197
200
188
183
184
183
184
182
175
171
169
155
160
161
169
173
173
183
192
204
202
200
205
206
205
206
192
188
187
180
175
174
178
179
176
173
176
174
169
168
165
167
178
197
189
174
174
182
188
185
184
184
189
192
188
183
181
184
193
198
196
188
192
198
196
191
186
198
194
197
191
193
196
201
208
206
206
200
195
193
191
190
189
183
180
187
190
203
203
201
197
189
191
198
189
185
185
185
182
177
165
177
161
153
163
165
170
169
177
185
196
200
202
202
203
207
206
205
197
191
188
181
178
180
184
176
175
178
176
178
169
171
165
168
179
194
206
183
178
184
183
186
187
183
189
185
185
183
179
177
185
191
191
187
187
193
198
188
185
191
194
202
194
191
192
195
199
195
191
183
178
176
179
176
176
171
170
178
186
190
196
194
190
182
188
187
185
184
185
182
184
173
162
175
152
156
165
167
172
169
181
188
201
204
200
205
205
208
205
206
199
192
192
180
185
184
184
177
173
180
176
183
174
171
169
170
182
192
213
194
180
187
185
188
190
183
188
182
181
178
177
175
182
183
185
184
181
182
187
184
180
178
178
185
182
178
178
180
186
186
183
176
182
178
174
167
165
166
169
172
180
183
185
186
184
176
184
183
178
176
178
174
180
172
164
171
144
160
163
170
173
173
184
192
201
208
204
205
208
211
208
204
200
190
188
186
186
188
180
175
171
173
177
182
180
173
174
169
179
190
210
205
181
189
188
187
193
187
189
191
178
180
170
174
184
186
188
187
182
183
184
185
186
182
178
177
179
171
174
171
172
174
167
169
168
166
162
163
163
173
178
177
182
183
182
185
186
182
184
181
173
173
176
173
178
169
170
163
150
161
164
172
173
178
188
195
202
206
205
206
206
210
208
206
201
192
186
190
188
186
183
176
167
171
176
185
182
182
175
165
173
196
212
216
195
189
190
184
189
187
189
190
182
177
172
176
189
193
194
189
187
190
186
185
175
178
177
169
165
159
160
164
160
160
160
161
158
158
163
164
171
178
180
182
184
182
180
187
188
181
182
179
173
174
172
177
176
168
174
161
152
161
165
172
176
183
189
197
204
205
205
205
206
208
207
209
202
190
192
195
188
184
184
177
172
173
175
188
184
185
176
168
172
200
224
224
209
194
190
186
185
182
190
190
185
181
170
177
192
195
196
196
186
187
190
190
179
177
172
167
159
150
153
159
162
159
159
162
164
169
170
172
177
179
183
182
182
182
183
182
189
182
181
179
170
179
174
178
173
166
177
165
156
157
168
173
182
186
197
201
203
205
205
205
205
207
204
208
201
194
196
199
192
186
184
185
173
168
175
186
188
179
175
170
169
200
225
223
221
202
191
189
189
188
184
187
187
184
168
177
186
192
197
193
191
188
188
189
189
188
183
174
169
159
159
167
167
166
171
171
174
181
181
182
183
180
181
182
188
191
185
183
182
181
174
176
169
178
178
177
176
169
185
161
161
159
165
178
184
187
203
208
200
200
204
202
205
206
204
207
206
202
199
200
196
187
185
185
174
167
172
181
180
177
172
182
183
198
221
227
225
211
194
191
185
191
186
186
188
188
178
176
180
189
192
195
196
190
190
189
192
194
190
183
177
176
172
179
179
182
184
186
189
191
188
187
187
188
184
187
190
191
183
179
175
177
174
176
174
172
178
172
171
177
190
161
161
165
167
180
185
188
206
211
205
198
203
199
204
207
208
204
214
205
200
199
196
187
188
184
178
168
168
173
171
181
174
194
190
199
219
228
223
220
202
192
187
191
190
190
187
193
187
182
177
183
192
193
195
187
192
191
196
192
195
190
190
188
184
190
193
188
188
189
195
194
188
187
193
196
188
194
192
191
183
174
171
176
176
173
176
172
176
171
174
178
196
170
164
168
172
176
186
196
206
206
207
205
199
201
205
208
206
200
215
208
203
198
197
188
189
188
175
162
164
168
165
182
188
195
174
199
223
232
220
217
216
196
188
193
189
191
191
192
186
187
182
186
190
196
197
192
195
198
197
193
194
195
196
192
194
198
196
194
195
192
195
194
192
193
194
198
193
194
189
187
182
172
175
173
172
177
178
178
170
176
181
181
192
176
174
173
183
178
186
203
201
207
208
208
200
201
204
205
205
208
216
214
201
201
196
189
190
188
172
156
168
165
162
187
187
187
172
198
224
238
216
213
221
206
196
192
191
190
190
190
187
185
191
185
194
198
195
194
198
203
198
199
197
202
198
200
201
204
198
198
199
197
195
194
193
193
190
194
193
193
184
186
176
174
177
170
173
183
180
182
166
175
186
177
185
168
183
189
184
190
200
201
199
208
207
211
208
200
204
204
207
205
216
212
204
200
197
189
187
184
168
164
168
160
175
184
178
184
172
194
234
238
220
215
224
218
203
189
190
194
188
191
190
187
187
185
191
201
199
201
199
205
205
204
204
205
205
206
206
204
204
196
198
198
192
192
189
193
190
189
192
188
184
182
176
172
176
174
173
182
183
178
162
183
187
182
176
165
197
203
192
191
206
206
207
202
205
209
211
207
203
204
205
205
215
212
203
198
197
191
183
178
170
164
166
165
184
177
175
181
172
200
236
235
228
223
226
227
213
197
190
194
194
196
191
191
190
188
190
199
200
201
200
207
208
207
206
209
211
207
205
205
205
201
202
200
190
195
192
196
195
188
194
188
186
182
178
172
173
178
180
180
180
174
170
184
185
180
171
152
201
221
209
198
201
204
220
207
207
212
210
209
206
205
199
205
215
212
203
198
198
191
181
181
170
167
160
172
187
172
173
180
176
209
227
228
231
226
228
228
221
211
197
191
196
195
193
196
193
183
191
201
196
201
206
208
214
210
207
207
210
208
209
211
206
201
204
196
195
197
193
195
193
191
197
189
190
186
177
173
173
184
181
178
178
171
180
185
180
174
164
160
189
222
223
204
203
202
213
210
205
214
213
212
213
209
207
205
214
213
201
199
199
192
179
177
171
165
155
177
191
174
175
174
184
208
212
220
232
225
231
227
232
223
209
195
198
201
195
194
193
186
189
196
197
199
208
212
214
212
205
209
215
210
213
215
206
201
204
196
194
195
197
196
195
198
196
189
188
187
177
178
177
184
182
175
174
175
186
178
164
180
159
170
197
215
230
215
197
204
208
213
206
212
209
218
212
217
214
215
215
214
199
200
200
189
175
179
172
163
153
189
189
177
174
185
193
184
207
219
231
226
230
232
233
231
219
209
200
201
198
192
199
190
192
190
197
202
209
212
211
212
205
210
215
210
211
211
204
201
205
195
195
196
198
197
193
195
195
192
190
188
178
180
185
179
179
177
171
180
185
168
162
180
159
171
225
204
213
224
205
203
208
212
210
208
212
217
214
214
216
215
215
212
197
202
199
188
176
178
167
162
161
193
191
171
172
205
185
165
207
213
231
224
228
236
229
229
222
220
208
205
201
196
201
196
192
187
196
203
206
212
213
211
211
212
213
210
208
205
202
199
201
199
194
200
196
200
192
192
192
190
185
182
181
184
183
179
174
173
174
184
179
161
161
177
163
171
225
219
202
224
207
205
207
205
212
210
211
217
217
211
217
214
213
208
199
201
198
183
178
176
167
165
169
194
192
171
174
202
185
160
196
212
220
224
228
234
231
227
225
230
216
208
197
207
205
200
200
190
194
198
205
211
210
210
209
210
213
208
209
200
204
198
198
200
199
204
199
200
194
192
188
189
178
180
186
184
178
175
173
177
182
182
172
157
166
178
152
181
220
221
198
220
206
205
208
202
210
213
211
213
215
212
214
217
212
207
197
199
193
178
176
168
173
174
174
188
187
167
168
188
191
163
184
209
212
215
226
233
230
229
229
232
231
217
206
206
206
205
204
205
194
193
199
204
209
208
212
207
206
207
204
200
205
198
199
202
209
204
201
197
196
186
185
183
179
181
182
179
173
173
177
184
187
178
163
158
176
175
145
185
215
235
204
212
207
209
207
205
212
214
212
210
212
216
212
215
215
206
195
197
190
174
176
170
175
173
171
193
188
152
164
185
186
174
168
205
209
212
216
228
226
230
228
227
236
231
221
211
210
209
205
208
204
202
197
198
203
204
204
204
199
202
205
200
201
200
201
205
207
204
199
195
193
183
180
181
177
182
171
176
172
178
185
192
181
176
161
162
184
163
140
193
202
239
227
210
210
207
200
204
219
225
214
211
203
213
209
211
218
202
196
201
190
179
181
175
174
176
177
188
186
148
177
185
180
178
169
191
204
212
212
215
221
228
228
226
226
236
230
224
222
213
211
206
204
205
209
201
197
202
199
200
200
195
197
199
197
199
202
202
199
196
193
193
183
180
181
179
174
174
176
179
182
188
194
186
179
173
161
169
182
143
145
184
203
224
232
221
200
206
193
206
216
228
218
215
213
215
218
210
213
199
196
197
193
184
178
176
173
185
175
180
181
160
173
168
180
166
182
177
197
209
207
210
210
220
225
225
223
226
230
231
226
224
224
209
204
207
207
205
203
206
198
199
197
199
197
198
198
199
198
194
199
193
190
186
178
182
177
173
172
180
182
188
187
192
191
183
182
168
161
174
166
134
152
177
214
216
227
233
200
196
196
210
214
222
223
214
211
218
219
210
214
208
205
201
190
183
175
172
172
185
179
166
175
180
165
166
186
166
173
183
182
200
205
206
209
212
217
221
222
220
224
227
225
230
230
223
214
208
206
199
200
202
203
200
202
206
203
201
202
199
199
196
196
187
183
181
176
179
174
174
180
187
191
192
194
191
192
183
171
167
165
169
145
141
157
178
211
216
219
236
221
190
198
205
217
218
221
214
211
218
221
215
220
204
202
199
186
184
175
169
176
179
168
153
175
192
172
160
182
164
155
180
182
179
202
204
203
210
213
214
220
215
219
220
222
224
230
226
222
218
215
204
206
205
199
198
201
200
201
199
198
198
196
194
187
182
183
179
178
179
180
184
190
193
196
198
190
188
191
173
165
165
164
156
127
150
163
183
202
219
212
232
227
199
186
210
214
221
218
210
205
214
222
217
218
205
196
190
185
181
165
172
177
172
177
163
179
202
173
156
181
169
148
171
185
173
187
201
203
206
208
212
211
212
212
214
217
214
221
220
224
222
219
215
218
212
204
205
198
197
194
192
193
193
193
187
189
187
183
184
183
186
189
192
195
195
196
189
186
184
179
164
167
164
156
133
135
157
163
193
211
217
211
224
223
210
184
198
212
227
220
212
208
216
225
219
