P2
# Face with average contibution
92 112
255
202
202
204
206
206
202
207
205
202
203
202
208
208
218
211
209
209
194
187
191
189
189
191
196
198
208
202
207
202
202
198
194
200
199
197
190
192
192
189
192
179
181
177
169
179
174
170
178
176
179
171
179
177
180
179
182
183
191
193
191
191
192
196
202
205
196
197
203
206
209
207
203
199
201
208
198
199
199
199
200
194
196
196
194
192
192
193
193
197
193
193
191
203
203
206
204
203
204
202
205
202
203
198
205
213
213
205
202
197
186
197
190
193
199
201
202
203
201
189
195
194
196
197
191
200
197
199
191
197
199
191
198
191
199
190
181
176
170
173
176
178
182
176
172
172
180
174
168
179
180
191
188
183
190
189
194
209
210
201
207
208
208
206
205
196
199
206
206
198
200
198
199
195
194
197
194
194
189
193
192
193
196
189
193
201
205
206
205
200
205
205
204
202
201
200
206
209
201
192
191
197
183
192
192
197
201
201
201
194
189
188
199
200
194
197
198
201
198
193
192
188
193
187
198
203
197
198
199
189
180
172
178
177
177
181
174
170
179
180
175
179
170
176
179
183
187
190
190
200
212
202
209
215
213
211
201
201
198
201
203
203
203
200
204
196
195
194
196
198
192
192
192
194
195
192
192
203
206
207
206
206
205
205
204
202
201
201
209
197
191
189
194
196
200
201
208
198
200
194
194
191
190
192
187
197
190
194
199
196
194
188
187
189
196
191
190
200
198
198
205
194
192
183
183
183
182
176
179
177
183
181
183
172
171
171
169
180
186
189
186
200
195
200
203
212
217
218
208
210
202
206
203
204
204
199
202
195
194
197
200
196
197
192
192
192
195
194
191
208
207
208
206
206
203
204
204
203
199
194
196
183
185
181
196
201
207
207
209
204
200
202
200
197
196
197
188
185
183
184
189
191
191
191
189
191
194
187
186
193
191
191
191
194
191
194
188
182
185
177
181
183
185
182
177
169
164
174
179
176
176
182
191
193
192
186
198
207
214
211
208
213
210
200
206
205
201
197
202
201
193
199
197
194
197
198
191
193
190
197
193
212
209
208
207
206
209
202
203
207
197
188
184
185
192
198
204
202
211
207
207
210
214
202
192
198
201
201
195
192
189
189
184
190
190
194
187
184
190
190
183
185
194
193
191
192
194
199
199
193
185
179
180
182
184
188
180
169
162
169
184
183
172
176
182
191
191
193
186
194
198
205
202
203
213
198
200
207
196
196
201
200
197
196
197
194
196
197
197
194
193
194
196
210
207
209
205
207
207
207
205
199
191
184
188
193
199
207
202
208
195
198
203
211
213
204
199
198
193
191
187
185
191
194
187
188
183
181
179
175
178
185
183
183
196
198
199
198
197
192
196
198
192
187
186
187
180
178
184
181
180
170
179
180
174
185
188
184
190
194
188
189
185
191
199
196
201
200
195
205
203
193
194
197
194
196
196
197
197
196
198
194
194
194
194
208
207
208
204
210
207
209
198
190
184
191
192
194
195
196
194
192
190
189
197
211
206
193
198
203
196
197
198
197
197
190
183
183
186
182
182
180
179
193
190
194
203
206
204
204
201
201
198
194
198
191
195
191
189
181
184
182
182
177
188
185
177
175
187
181
183
191
198
189
181
183
190
194
193
201
196
201
196
199
195
192
191
196
193
198
198
196
195
200
196
194
197
208
209
207
207
209
206
199
190
185
182
193
189
186
190
189
183
184
189
191
196
201
201
203
201
203
204
201
209
202
190
187
185
184
181
187
188
192
194
200
214
215
217
215
221
215
209
206
204
206
205
204
198
194
187
189
191
191
188
184
187
189
184
182
184
190
183
183
196
195
196
184
177
187
188
188
199
203
194
193
201
198
188
196
193
197
199
199
199
200
197
196
195
210
206
209
205
202
196
187
184
184
184
187
184
176
183
182
182
192
189
196
204
196
208
207
204
202
202
209
207
202
193
186
173
185
186
192
196
200
202
206
220
218
218
218
213
207
206
199
203
196
203
204
202
196
188
187
188
192
193
191
187
187
193
190
195
197
194
182
190
194
205
195
171
171
181
181
186
194
195
186
203
199
194
195
198
191
193
196
204
196
197
196
198
210
209
207
199
199
192
190
182
185
182
185
183
187
186
190
198
197
198
193
202
210
214
217
200
196
204
200
200
195
191
187
185
196
203
199
196
200
200
198
209
209
205
201
194
192
194
191
188
190
193
189
193
188
192
188
183
185
192
190
184
192
195
190
194
198
196
187
193
192
196
201
189
171
169
176
179
180
188
188
199
199
192
194
199
196
189
195
200
198
193
196
196
215
204
208
198
197
194
187
182
184
182
183
188
187
192
187
200
198
203
206
221
217
214
215
210
211
207
202
200
200
197
202
201
198
206
200
209
195
195
196
196
207
199
193
186
180
186
178
176
176
179
184
177
188
190
186
178
180
188
189
179
184
193
196
191
191
195
183
190
195
197
199
196
195
177
171
172
183
176
184
189
193
192
189
197
196
197
199
198
201
196
197
196
213
204
199
197
194
189
188
185
187
175
177
189
181
180
182
198
203
217
229
228
224
221
214
215
210
209
200
200
201
205
203
204
201
201
205
200
192
189
197
193
194
196
188
186
179
175
174
173
172
173
171
174
171
187
187
172
175
178
178
179
185
187
190
182
184
184
188
180
188
191
194
193
197
196
175
164
171
176
177
175
184
188
190
191
191
195
199
200
208
197
200
197
208
206
194
191
193
189
184
190
181
173
180
179
177
179
187
196
211
222
224
224
220
215
216
210
207
212
204
201
195
196
205
205
204
205
201
198
190
182
188
190
188
189
180
181
180
177
167
167
167
164
167
171
171
171
179
177
176
174
174
172
172
186
186
180
181
185
183
178
185
185
187
190
192
197
192
174
165
168
178
178
174
187
182
187
191
188
190
192
197
206
196
198
208
207
191
185
195
189
187
183
176
177
183
181
181
194
198
208
219
225
218
218
217
210
213
210
210
213
203
193
197
197
200
202
200
190
190
189
190
180
182
184
181
176
173
173
170
168
162
161
161
160
156
162
176
172
177
180
179
178
177
181
183
190
186
186
181
186
191
186
179
184
187
187
185
192
198
185
176
166
171
171
170
183
183
186
195
186
190
191
189
200
201
192
206
197
192
190
199
191
186
178
178
181
185
183
188
196
204
215
223
221
215
218
223
218
217
218
207
202
203
191
194
194
193
195
196
191
191
187
184
177
178
181
171
172
172
164
168
161
159
160
159
160
158
159
168
171
186
186
190
189
186
186
192
198
204
192
190
190
191
189
184
186
185
187
193
183
193
199
183
182
165
165
159
177
177
175
190
188
181
197
188
196
192
195
202
187
201
200
197
190
185
186
185
185
187
190
204
214
219
223
220
224
219
221
220
217
216
215
205
193
192
192
191
190
189
192
189
195
197
185
179
175
171
180
173
172
174
163
163
163
157
159
160
166
169
166
172
176
195
192
189
197
192
189
190
200
199
200
199
196
194
193
191
189
197
185
185
186
189
200
192
183
172
159
168
167
177
178
187
188
184
190
195
189
194
196
193
194
203
200
198
192
189
198
200
187
188
195
218
226
220
220
222
224
221
218
212
209
212
205
204
194
192
190
188
186
187
185
189
191
188
179
178
173
175
179
177
177
171
170
166
157
156
160
163
167
169
179
179
189
196
200
196
201
197
192
202
201
203
201
209
204
195
190
194
189
189
185
183
191
194
186
191
185
185
167
162
162
167
179
182
189
195
185
188
194
192
200
193
194
205
199
199
197
198
205
199
190
192
210
227
222
221
222
221
224
219
212
209
206
206
201
200
197
193
192
189
187
182
183
182
186
181
179
179
177
176
180
174
183
171
171
161
164
162
165
168
167
176
188
189
193
193
200
200
201
204
200
207
202
209
205
208
209
200
194
194
192
192
193
184
188
190
191
196
185
192
188
164
159
163
169
181
182
192
190
179
190
187
199
198
197
203
202
198
202
204
209
202
195
198
218
225
219
219
221
219
218
220
207
203
204
209
202
195
196
196
198
192
186
184
185
190
188
186
182
180
183
182
180
184
183
182
177
171
172
174
177
175
172
188
193
196
201
195
205
205
204
202
206
211
209
206
210
207
209
206
193
199
194
197
197
196
190
186
190
197
191
198
189
179
164
162
161
174
180
190
185
182
189
180
190
204
200
203
206
201
201
205
204
201
194
205
214
219
218
222
219
218
212
215
204
201
208
209
202
193
191
193
197
198
190
188
198
195
192
191
189
190
188
187
185
183
180
178
173
175
176
181
183
183
186
190
191
198
201
202
201
206
204
207
205
211
213
214
213
210
208
210
199
199
204
203
198
195
194
183
186
193
195
191
194
189
176
163
164
165
176
187
186
188
186
182
185
211
202
203
205
199
207
204
198
195
196
208
217
217
220
218
213
214
209
205
200
202
206
202
198
195
196
196
196
198
192
197
202
200
200
194
195
194
192
193
191
187
183
174
180
181
177
176
186
192
192
192
190
198
202
204
200
202
208
210
207
214
215
218
219
217
209
210
203
200
207
206
203
195
196
186
185
187
195
189
197
197
181
168
166
169
172
189
184
191
186
181
184
217
208
208
206
210
210
197
191
199
203
213
221
220
218
213
212
214
209
202
199
205
201
201
199
200
201
202
197
201
199
200
201
197
198
195
193
193
195
194
192
189
185
183
184
184
182
181
189
192
194
194
192
197
197
203
206
199
203
205
211
213
217
219
220
218
215
207
206
200
202
205
205
204
197
199
191
187
198
198
192
209
194
174
168
167
178
194
184
193
190
191
173
222
210
207
217
211
203
193
189
198
205
218
219
212
210
211
213
209
204
199
196
206
199
202
207
208
205
198
197
198
203
197
196
196
194
193
193
193
188
186
185
188
188
185
181
183
179
186
188
190
194
194
192
194
197
197
208
198
197
196
200
211
211
217
221
218
216
211
204
201
203
205
201
198
198
200
199
190
192
197
197
210
202
184
170
168
179
192
186
192
200
194
179
233
208
212
213
203
192
191
184
193
215
225
213
212
206
209
209
205
203
197
201
205
207
205
202
205
199
197
198
199
200
199
201
198
197
194
192
189
188
186
188
185
182
180
181
177
180
186
184
182
189
197
190
190
193
192
192
201
192
192
191
197
201
204
211
214
214
216
210
201
202
208
205
192
193
202
202
195
192
194
196
212
209
197
174
177
172
185
187
191
196
194
192
223
207
207
204
197
188
188
178
201
224
219
211
207
213
211
204
204
202
198
203
206
207
202
203
199
199
200
200
203
199
196
200
200
198
195
189
187
189
186
186
184
184
185
181
179
181
186
183
179
177
188
187
182
181
191
187
189
191
190
187
191
192
196
201
208
210
216
211
205
207
212
208
198
193
198
201
200
204
192
198
214
211
205
186
175
177
172
191
187
193
193
190
212
207
201
203
188
178
168
181
214
225
211
210
205
214
206
201
204
199
197
201
204
204
202
200
200
197
197
198
197
196
197
201
195
194
194
189
192
188
184
184
183
180
186
183
180
183
185
181
178
175
177
181
179
176
177
180
178
182
183
182
187
183
189
198
206
207
215
218
209
206
212
206
207
202
200
205
207
207
197
194
205
212
208
193
178
189
169
190
179
185
197
193
212
205
202
198
185
172
164
201
216
214
211
210
214
210
206
207
202
202
200
205
203
204
203
202
200
195
191
198
194
195
196
198
193
198
196
193
194
194
190
185
182
183
184
187
183
182
186
182
181
174
167
174
177
172
172
173
174
174
171
171
177
179
182
191
200
203
211
219
214
210
212
208
209
207
203
209
209
212
202
196
200
212
218
207
180
188
177
176
183
182
196
189
210
196
202
205
190
172
185
205
207
215
213
212
214
206
206
207
200
199
197
204
206
205
200
200
196
193
192
192
195
194
197
195
195
197
195
191
192
194
192
188
184
188
186
189
183
185
185
183
178
174
166
169
173
171
170
174
170
168
171
170
171
171
179
185
193
196
206
209
208
211
219
216
213
208
213
211
211
211
206
199
202
200
220
213
192
179
175
179
174
187
195
192
198
191
200
206
196
178
195
197
208
213
221
216
209
203
200
199
200
191
199
203
201
198
194
194
191
187
189
189
194
198
196
191
192
194
194
191
192
192
191
187
188
187
187
188
185
186
187
184
178
175
168
161
168
172
175
173
172
168
171
173
174
172
180
184
189
195
200
203
201
217
221
225
218
210
212
218
222
216
209
198
200
197
220
209
203
184
175
174
171
184
193
196
192
192
194
208
196
178
189
197
205
215
220
213
202
195
192
200
202
193
202
203
195
192
190
189
189
189
192
193
194
198
197
194
193
190
193
194
191
190
189
187
185
185
188
188
185
185
189
183
183
181
171
167
163
171
178
181
173
167
174
173
177
176
181
185
187
194
199
204
205
212
224
230
224
217
214
217
215
220
218
201
199
200
211
214
203
191
180
170
171
180
190
198
188
194
196
206
192
184
193
197
203
216
212
205
202
191
197
200
207
203
204
204
193
188
186
186
191
192
192
193
191
193
195
196
194
189
190
192
191
189
186
188
188
184
191
190
186
187
187
187
187
181
182
172
168
173
180
185
183
170
178
181
181
179
183
187
187
196
197
200
204
207
216
226
220
220
213
227
214
217
224
213
201
194
209
217
198
195
184
172
171
180
184
199
193
195
200
207
193
181
194
198
204
210
212
208
199
197
197
203
203
201
202
197
187
186
184
192
193
191
188
191
190
186
190
191
189
186
183
187
185
190
184
185
191
185
189
194
189
188
189
189
192
185
187
179
177
178
184
183
188
185
172
186
186
181
180
186
186
188
193
196
195
199
204
214
214
215
213
224
226
220
226
215
202
200
203
216
193
201
185
171
177
180
185
194
202
195
202
207
196
184
201
205
205
212
215
209
202
201
203
203
200
196
193
192
184
179
185
190
193
190
189
188
190
182
180
184
184
181
179
180
183
187
188
184
192
188
187
196
194
191
190
190
196
192
193
188
188
182
176
181
185
188
179
170
174
177
172
174
177
179
182
190
187
191
195
198
206
209
204
217
226
228
231
218
201
208
213
216
200
193
188
177
175
175
188
192
205
200
201
213
195
190
203
201
207
206
206
203
200
197
197
197
196
189
183
192
180
179
186
187
189
184
189
187
194
193
191
189
188
187
183
187
187
187
192
189
190
186
190
195
196
199
201
198
202
200
200
194
194
186
174
176
172
179
177
167
158
164
165
164
164
166
169
171
178
177
182
191
193
194
196
206
226
220
225
223
204
199
211
217
214
190
179
177
184
175
183
194
205
205
203
217
194
197
200
198
208
211
209
206
204
197
198
197
196
181
181
185
177
179
182
182
182
181
181
178
188
192
193
192
190
191
188
189
188
186
188
190
183
184
186
189
194
200
200
197
204
201
203
199
199
192
180
172
165
168
173
175
171
167
167
169
169
170
172
170
171
173
176
183
189
188
186
199
221
216
217
222
210
195
202
221
207
188
173
173
183
180
179
194
200
210
201
212
206
201
198
192
212
215
206
210
197
196
195
191
187
183
189
183
185
192
191
190
190
189
188
192
188
186
191
189
188
188
188
188
188
193
191
191
185
186
188
190
198
202
203
206
207
207
210
210
202
197
184
178
170
169
167
174
176
174
170
173
174
176
183
183
178
182
180
183
193
184
186
188
210
215
209
213
205
200
197
213
213
189
178
169
180
169
184
193
196
210
202
211
216
200
189
202
217
215
211
214
195
189
195
186
181
188
191
193
187
195
197
195
203
214
211
220
217
207
205
201
197
192
195
189
195
196
193
193
191
192
195
199
205
207
207
211
213
211
217
214
205
202
182
173
179
180
180
178
179
178
175
177
174
178
180
184
184
186
181
176
184
187
180
176
192
212
208
211
200
200
196
203
212
201
182
176
179
170
187
187
194
214
215
204
208
193
186
209
215
222
221
208
195
195
191
176
179
192
199
195
195
198
199
196
199
208
203
206
211
216
212
211
195
190
199
197
194
191
184
188
195
197
203
213
214
215
217
221
215
215
220
216
211
205
197
203
196
197
183
170
172
179
182
189
193
194
196
197
195
195
189
181
182
184
179
171
172
193
199
209
200
195
190
211
201
210
187
181
177
176
187
187
204
223
225
196
199
176
196
208
220
231
220
213
201
191
179
174
188
196
204
196
199
195
201
197
203
202
202
209
215
217
217
217
211
209
206
208
200
193
189
182
187
205
211
216
218
218
216
218
214
214
220
221
217
214
204
204
198
188
181
183
180
193
193
204
206
204
206
203
207
199
197
191
184
192
181
174
170
176
187
196
196
192
194
201
206
207
191
187
190
176
185
189
216
220
220
193
181
168
198
208
228
232
227
226
200
181
173
183
196
202
204
193
192
188
190
199
202
205
204
204
209
212
198
206
198
198
187
183
185
180
180
184
189
202
220
218
223
217
220
220
219
219
227
223
231
211
205
203
189
191
189
188
187
192
198
208
200
198
192
194
198
206
206
196
195
201
195
186
177
184
187
177
191
195
193
201
198
207
188
198
190
185
192
185
208
207
214
199
176
174
193
208
221
228
230
221
194
169
187
190
198
202
196
185
186
180
181
204
206
202
190
185
183
184
175
186
187
184
174
173
175
181
172
171
186
203
228
221
226
224
222
219
219
216
219
221
226
211
203
199
190
190
185
180
176
185
191
201
191
195
187
182
193
200
199
204
198
196
198
190
188
187
190
189
172
201
201
196
202
198
187
195
189
186
192
180
197
200
221
206
178
177
182
204
223
228
233
211
182
176
192
195
200
200
190
179
189
189
191
194
183
166
154
148
149
154
155
164
164
164
164
165
174
183
177
175
180
204
212
202
211
217
205
210
212
216
217
219
219
217
206
199
196
190
187
183
177
185
189
190
185
182
186
181
195
196
190
202
212
202
198
190
180
189
183
191
171
188
208
194
203
191
190
196
183
188
191
181
195
215
223
203
178
176
179
201
229
228
238
213
179
184
190
187
198
188
174
178
178
180
168
172
146
137
132
135
143
140
151
161
168
162
170
163
164
188
179
189
196
215
205
210
213
224
220
220
221
224
221
208
206
204
193
192
193
185
180
175
190
180
177
182
181
176
183
179
191
192
178
193
207
214
206
204
187
184
185
191
176
190
207
185
204
193
192
194
189
191
183
179
193
223
228
196
181
170
170
200
228
233
226
202
179
175
183
178
197
174
175
182
172
159
159
161
143
137
127
127
142
141
152
167
169
179
177
177
176
200
200
189
199
220
203
212
232
235
223
217
213
215
219
207
201
193
188
187
182
178
186
181
181
171
145
163
178
182
170
173
178
194
192
187
194
200
193
191
172
194
185
196
183
189
199
181
210
191
192
194
193
186
185
183
207
213
220
197
185
165
162
184
226
246
213
185
170
162
177
180
193
173
170
174
165
159
174
188
175
169
158
155
161
162
176
184
191
202
207
193
205
212
225
224
214
227
222
237
238
245
227
215
217
217
223
218
202
190
186
197
186
200
207
202
195
184
172
183
172
175
164
163
175
195
205
185
186
195
191
192
177
175
185
190
195
184
189
184
224
204
189
198
190
194
184
183
207
210
215
194
179
169
164
185
205
233
208
190
168
152
172
184
188
181
177
177
182
200
221
229
208
207
208
200
204
193
184
173
189
194
198
203
210
196
202
226
218
217
200
219
213
220
204
198
199
202
201
199
178
168
189
178
186
202
208
210
202
197
191
195
192
181
176
163
187
201
212
188
181
184
191
196
185
178
176
188
198
188
184
189
203
199
179
188
188
201
179
193
211
202
213
194
166
168
166
184
206
223
214
194
171
173
185
177
189
185
185
196
207
222
230
222
214
223
211
194
196
201
194
183
180
169
167
184
198
190
207
211
220
219
205
221
198
213
204
198
184
194
182
183
164
161
169
165
180
191
204
202
193
202
182
185
186
181
171
171
183
186
194
195
196
178
190
209
199
189
187
193
206
204
200
185
178
191
179
187
189
195
187
181
212
203
213
187
161
161
163
184
209
221
224
190
164
184
185
186
189
196
200
211
198
213
215
210
202
203
192
176
171
177
146
152
162
182
176
195
207
199
220
225
218
223
222
232
199
216
207
209
184
192
190
186
162
166
162
179
174
181
188
184
178
198
190
188
181
174
200
199
192
203
186
199
202
179
178
219
220
193
200
199
206
190
208
177
179
194
189
184
190
194
191
171
204
215
204
183
148
153
166
196
207
224
232
194
161
172
178
181
192
201
176
189
183
204
213
200
182
172
193
166
165
168
137
137
153
163
183
197
212
212
204
211
206
218
224
222
215
218
194
202
182
183
188
194
161
160
162
166
168
171
177
172
184
223
218
194
187
185
201
198
191
203
177
197
199
193
180
202
221
193
191
199
205
187
199
160
183
200
196
198
197
204
193
169
205
212
196
190
153
155
167
205
215
213
222
203
157
170
184
186
194
193
165
169
168
186
207
182
170
147
149
152
137
156
160
147
163
138
178
199
209
211
202
208
199
228
225
219
226
219
191
191
182
182
181
192
179
167
168
159
168
177
161
158
173
200
207
199
192
200
194
194
190
197
181
184
200
204
185
203
204
184
181
182
194
205
200
159
183
199
191
207
205
205
195
185
209
206
192
200
172
164
182
213
215
206
208
196
165
168
182
202
198
175
169
186
182
187
183
180
162
155
146
152
154
164
167
168
155
148
184
194
207
202
208
210
208
239
221
217
213
195
180
175
168
172
171
171
177
164
174
165
165
186
169
167
181
192
195
192
197
199
202
200
193
189
188
188
195
208
191
206
208
187
182
180
185
198
206
174
186
194
190
203
212
206
199
203
198
196
182
185
180
155
184
211
211
214
202
201
177
182
179
217
191
164
162
179
190
181
181
186
184
181
177
178
176
182
186
190
179
197
203
208
220
218
227
210
234
255
228
227
217
199
171
174
171
180
167
170
174
171
164
171
169
169
174
174
182
195
182
191
190
195
214
202
194
186
188
200
203
208
202
210
210
188
182
179
188
197
217
186
200
201
187
216
207
204
202
201
196
195
194
188
184
155
166
199
196
215
198
201
184
179
174
210
194
165
173
187
186
178
193
193
203
205
205
201
199
202
189
193
208
215
227
219
215
221
221
211
238
235
225
230
224
209
192
183
181
193
177
169
173
176
167
178
173
187
182
177
183
193
189
186
190
190
207
199
187
191
195
203
204
209
207
212
202
196
182
174
187
198
215
196
192
201
191
226
206
202
207
204
196
200
207
213
192
166
157
184
192
205
195
200
189
164
179
207
193
175
180
201
195
194
201
207
215
216
205
199
189
195
194
190
220
218
226
202
195
208
192
210
220
214
216
223
211
205
208
201
185
196
198
181
177
184
171
176
191
199
199
187
184
192
192
191
190
198
198
192
189
190
186
196
197
197
200
204
211
195
177
177
175
199
207
201
191
198
195
207
208
208
216
216
207
206
213
219
205
182
173
174
201
204
196
200
190
168
176
223
198
182
190
212
212
210
212
210
215
215
201
197
179
185
185
209
216
212
211
192
188
186
175
204
211
203
211
206
197
198
199
195
192
187
196
188
192
181
188
173
179
203
205
198
196
204
202
193
194
201
196
189
186
182
185
192
191
196
198
204
213
190
173
165
179
185
199
185
183
201
201
194
223
214
219
212
213
205
203
204
194
184
180
190
204
212
199
198
193
180
161
209
198
177
185
199
198
202
198
197
200
202
199
193
180
181
193
207
208
208
204
195
186
172
176
199
199
195
205
200
184
194
196
186
189
177
178
186
196
185
182
172
172
184
203
200
203
205
206
208
205
210
201
209
202
189
188
190
192
192
189
198
207
192
177
167
184
174
191
183
183
217
190
197
230
223
212
192
207
207
186
185
175
167
176
198
209
223
203
201
192
175
167
189
184
179
183
188
188
189
187
189
196
197
197
197
191
193
197
197
213
211
200
179
184
175
189
192
195
190
192
189
181
193
192
184
186
176
176
181
190
183
166
164
193
179
177
187
195
203
205
209
205
215
202
210
217
199
196
207
201
193
187
184
187
183
176
183
177
169
188
190
191
215
196
211
234
222
202
189
206
202
175
178
165
149
165
186
197
226
223
203
192
170
175
181
205
174
175
177
176
182
185
190
195
193
192
198
198
193
194
198
211
194
188
182
180
180
181
183
190
191
182
174
176
182
185
176
182
180
180
184
186
180
148
154
176
198
177
177
184
193
189
201
197
198
201
198
204
195
189
195
193
182
177
180
188
192
174
192
169
169
182
194
189
204
195
220
238
211
201
186
209
187
177
178
166
148
159
168
196
221
222
201
195
167
177
175
199
180
176
173
174
174
176
179
177
180
185
190
187
181
185
191
195
187
189
189
183
186
178
187
189
178
162
167
161
166
174
171
176
180
172
179
188
180
163
144
153
185
188
189
185
183
186
188
194
191
192
194
193
191
197
198
200
197
189
199
195
192
175
193
167
172
182
202
194
195
192
230
233
202
198
191
220
180
187
179
167
157
161
168
198
216
228
206
189
166
167
177
193
190
188
178
182
184
188
192
193
194
194
204
195
190
198
198
192
183
180
190
180
174
183
186
179
168
153
157
151
157
165
174
172
176
173
179
179
178
165
154
148
173
190
200
197
191
188
192
196
192
195
194
193
193
197
201
201
201
194
199
201
186
189
179
166
175
180
218
199
189
192
239
231
195
187
197
223
183
189
180
168
152
149
172
194
219
220
212
189
175
165
170
185
199
183
193
189
189
192
199
195
199
201
203
193
198
202
201
192
181
166
167
176
178
190
191
177
167
158
146
148
160
168
167
173
172
182
180
182
180
170
175
164
164
179
189
206
202
193
199
206
201
192
194
194
198
197
201
200
192
193
195
196
185
182
166
177
178
192
214
201
193
193
241
236
198
184
217
220
189
182
174
166
158
144
174
188
212
216
209
194
179
171
177
177
199
196
183
188
186
186
194
190
194
196
189
190
197
201
192
181
169
159
174
180
187
191
188
180
170
157
146
158
171
166
164
174
178
172
182
182
180
189
193
187
170
175
183
196
201
206
198
201
200
194
194
198
201
198
197
192
189
191
200
195
181
173
175
182
173
200
210
204
205
192
234
239
209
196
224
215
189
178
167
168
171
151
171
186
199
211
210
195
177
181
176
187
178
205
192
194
191
189
194
194
198
196
189
193
195
191
183
174
172
174
179
186
186
178
179
183
170
157
153
171
174
164
163
176
182
175
179
183
179
196
203
200
184
184
184
199
204
200
200
201
200
189
186
190
195
195
200
198
198
193
203
190
183
179
187
176
176
203
209
207
210
193
223
236
227
212
223
214
189
178
162
158
180
160
172
181
194
206
205
197
180
178
181
183
185
191
195
209
202
198
199
202
211
206
199
195
187
178
179
175
180
177
178
181
180
170
173
179
169
169
167
174
175
166
168
181
181
196
189
186
187
192
197
199
200
198
191
201
209
197
211
209
204
206
205
200
207
199
202
201
205
200
198
197
182
183
182
171
182
201
215
204
214
191
227
239
221
232
209
213
197
172
154
157
179
159
176
184
194
206
204
194
187
182
183
183
184
187
191
190
197
193
193
193
199
194
192
183
185
185
172
168
171
167
173
182
178
169
169
161
160
168
172
183
183
179
179
187
186
202
203
193
184
190
189
186
201
200
206
208
205
181
197
205
204
212
213
208
207
203
202
200
199
200
201
185
172
178
185
180
182
199
217
211
212
196
224
240
226
234
191
211
203
177
157
157
167
160
164
182
185
197
208
201
192
184
181
187
188
194
194
190
188
191
193
195
192
193
187
184
189
192
183
173
182
180
174
176
176
171
170
162
163
176
177
190
195
199
195
205
203
205
208
199
197
195
201
196
192
188
214
229
223
198
203
204
200
204
203
203
205
201
193
195
189
193
196
185
173
180
182
183
186
203
224
218
217
197
213
236
238
218
187
202
221
175
170
164
159
165
163
172
178
190
200
206
198
186
183
187
188
196
195
194
190
192
187
189
192
192
191
187
190
193
187
186
185
187
184
173
173
184
188
190
193
193
191
196
198
198
199
214
209
214
222
212
222
221
219
215
204
199
216
215
223
216
214
218
215
213
207
205
207
205
202
201
196
192
191
190
173
178
185
184
191
213
224
211
221
202
200
234
240
208
186
188
208
184
165
172
155
159
167
174
176
188
198
204
201
195
186
192
199
199
197
196
195
197
197
205
203
197
190
188
189
193
189
188
188
201
196
186
188
195
202
203
202
197
198
194
198
198
202
207
209
214
215
206
217
221
219
210
206
207
216
217
219
216
215
224
226
219
222
216
217
219
212
208
207
203
192
184
179
178
187
184
192
215
216
204
215
203
194
223
233
206
190
170
199
194
170
182
157
154
162
179
173
183
197
205
198
203
193
196
201
200
204
201
201
203
207
209
200
194
191
189
190
196
190
187
191
198
195
192
198
201
213
216
202
188
187
178
180
190
196
199
206
204
209
207
206
208
205
205
210
208
211
223
227
223
216
222
223
221
220
221
218
217
218
217
212
205
195
183
184
182
185
189
192
218
210
206
206
203
195
212
229
201
185
160
187
194
180
186
170
149
151
169
173
177
191
198
192
203
200
199
201
204
205
206
204
207
199
204
196
194
194
193
200
205
189
190
191
189
182
180
191
202
200
202
198
194
183
173
168
176
182
201
200
201
212
226
224
220
209
197
201
211
211
228
225
218
219
224
226
221
225
225
218
217
216
216
209
202
197
182
188
185
187
191
193
209
211
212
200
196
194
214
225
190
189
168
181
182
191
183
185
149
149
159
172
170
183
192
192
203
205
202
198
203
207
205
213
207
201
201
203
198
194
200
210
210
198
198
199
197
194
186
190
197
194
183
188
188
178
178
181
171
184
191
194
208
224
237
236
227
225
209
198
206
214
228
227
220
225
218
215
219
220
224
221
212
210
212
203
203
198
185
192
188
185
193
202
202
208
196
194
185
198
224
222
186
189
176
188
181
198
188
199
161
156
163
176
178
183
192
190
202
210
206
191
194
202
202
215
203
204
205
209
203
203
211
217
218
210
207
210
213
206
194
193
191
192
182
184
186
195
190
188
183
188
179
185
201
210
226
227
215
216
214
212
202
204
217
221
221
224
213
211
212
217
220
219
213
206
207
203
201
198
193
186
191
190
191
203
199
193
186
176
179
211
230
213
182
203
180
190
188
210
202
206
184
168
172
178
185
179
190
193
198
211
202
191
187
194
204
216
211
210
210
212
209
216
217
215
220
217
210
216
212
206
200
197
194
187
187
190
205
211
201
187
187
195
187
187
191
192
214
215
211
209
206
209
204
204
215
220
220
216
207
211
207
208
216
213
210
206
208
197
200
195
195
189
191
187
198
205
191
179
176
171
188
218
232
203
187
206
187
185
194
203
202
203
189
178
180
179
189
175
188
197
197
205
198
189
185
188
203
217
211
213
213
216
215
218
214
214
219
215
215
221
212
210
195
193
183
181
189
189
203
207
204
190
182
190
187
187
188
192
203
211
213
207
206
211
201
208
217
224
218
210
207
205
208
203
205
209
210
206
205
199
198
195
200
191
190
194
201
201
187
166
173
180
200
222
228
189
195
202
196
190
194
196
194
203
194
184
187
177
179
176
189
192
201
201
198
187
184
194
201
213
210
210
221
220
218
219
216
214
216
209
211
214
213
209
194
191
179
182
186
183
189
191
189
182
176
182
193
196
200
208
205
208
219
216
213
216
209
213
217
220
215
210
208
210
207
203
194
206
209
206
201
200
197
194
198
196
196
198
196
198
184
165
186
189
196
220
216
183
200
198
203
192
191
188
180
205
196
193
190
182
175
184
193
189
199
197
205
190
187
195
199
209
212
215
226
220
219
217
217
217
211
206
209
207
207
204
193
191
189
182
182
178
178
186
179
171
179
178
195
200
203
212
206
210
212
217
220
221
215
224
218
224
219
213
214
206
202
201
189
197
205
204
201
197
198
194
194
198
199
195
195
200
186
182
197
188
193
218
198
190
199
195
202
195
190
191
167
197
199
202
191
185
176
189
200
190
197
196
204
193
193
197
201
208
213
223
220
214
213
214
217
216
206
206
212
201
199
200
195
196
193
185
179
176
173
190
178
173
175
183
196
198
191
193
197
207
205
205
213
219
218
228
228
226
219
214
214
200
201
201
197
195
200
199
197
191
193
192
191
196
192
194
196
206
188
198
193
189
184
215
192
194
198
198
204
194
197
184
167
178
202
202
198
179
179
185
206
191
193
197
201
197
195
198
199
210
216
217
206
209
209
211
216
209
205
206
201
194
195
201
195
190
192
188
179
170
170
179
169
167
175
177
183
183
180
182
195
201
196
192
197
211
212
222
219
220
214
217
212
206
198
195
199
197
201
197
193
191
188
191
188
194
194
188
201
212
184
192
186
184
195
208
195
195
195
205
203
205
194
185
168
161
196
201
194
183
175
183
203
193
195
196
201
198
199
196
198
212
215
208
202
206
210
212
211
206
200
203
199
191
196
193
189
183
182
178
176
168
166
171
162
164
179
174
174
172
171
185
184
193
183
182
186
205
200
208
207
216
217
205
211
212
197
193
201
197
199
193
190
195
192
190
193
192
191
194
211
208
181
183
176
186
198
206
194
193
195
201
201
205
200
194
175
158
191
197
189
183
183
185
197
199
192
194
201
199
198
197
199
211
219
206
209
204
206
218
213
203
198
203
191
187
189
186
183
181
178
171
172
172
176
170
163
158
174
165
177
175
174
184
183
182
184
172
176
196
187
193
195
203
208
202
205
213
205
196
198
195
196
190
189
194
201
193
192
191
187
205
211
211
189
181
186
189
202
203
194
197
199
200
196
198
200
198
184
163
184
192
180
179
195
196
194
205
197
198
201
200
202
198
206
213
214
206
204
188
202
210
209
208
207
212
200
201
203
203
204
197
193
188
185
187
192
192
182
173
180
169
185
193
189
191
185
180
187
171
176
181
165
163
179
187
192
198
204
217
211
199
198
190
192
188
182
189
200
198
193
190
185
204
211
215
202
183
188
193
205
199
193
197
199
201
194
192
193
196
186
168
175
184
180
180
191
199
205
207
199
199
211
201
203
198
205
213
215
202
193
184
194
195
210
216
218
219
214
214
210
196
200
203
204
204
204
198
197
197
183
175
191
174
172
176
183
193
177
173
174
168
169
172
157
145
156
179
193
196
219
216
207
190
195
189
185
189
177
180
198
195
191
189
187
204
216
207
197
181
191
198
199
195
190
197
199
201
196
190
189
191
187
174
172
177
181
177
186
193
204
217
204
209
214
213
207
199
203
209
203
195
186
186
194
200
211
220
221
225
226
220
210
191
185
190
186
176
179
186
179
179
163
155
177
177
170
166
175
187
182
173
176
178
173
177
174
158
159
178
189
189
212
202
193
195
197
190
185
189
181
183
188
194
187
185
194
203
219
201
184
191
196
191
200
185
192
193
199
199
193
192
188
189
187
175
165
176
182
176
181
189
201
215
207
210
215
219
210
202
205
198
201
195
186
187
193
208
209
220
217
220
223
209
204
177
177
180
172
172
177
174
160
168
164
152
167
178
169
165
173
186
193
188
188
187
179
180
185
169
170
176
180
180
197
197
192
201
195
196
184
186
183
189
188
191
191
186
188
201
207
182
182
184
186
194
190
189
190
194
199
198
200
196
191
188
187
170
154
179
180
177
179
181
190
209
209
207
211
215
208
210
205
196
204
196
186
180
189
208
212
214
213
213
208
200
201
172
170
179
161
163
168
174
152
161
157
162
169
178
175
163
170
174
187
186
176
177
173
167
183
172
180
191
196
198
198
194
201
197
192
196
186
178
179
190
192
189
194
188
176
193
193
177
177
181
185
190
190
187
185
193
202
196
201
201
193
188
185
176
151
176
174
178
183
180
188
200
211
204
209
210
201
200
196
197
201
193
185
176
173
191
198
200
201
206
206
200
207
176
174
179
163
162
157
167
160
162
161
160
156
163
152
141
146
151
154
157
179
175
172
169
185
192
200
202
203
206
210
205
204
202
198
196
181
177
182
186
191
188
191
179
173
194
181
172
183
184
184
190
191
190
182
194
200
198
201
200
199
191
187
181
167
160
173
181
176
183
188
200
203
206
211
213
201
187
189
194
191
190
176
180
165
185
194
198
197
199
205
213
212
197
187
203
187
182
180
190
179
168
179
172
177
182
193
181
184
180
185
189
204
199
192
189
192
203
206
201
207
210
212
209
203
207
207
199
184
180
188
184
180
190
190
175
177
187
176
173
186
184
190
190
190
191
184
187
202
198
194
198
193
183
182
185
177
162
163
177
179
179
193
199
195
206
220
209
201
186
182
192
186
183
172
181
176
187
201
202
201
199
204
217
218
211
202
207
213
200
200
206
202
186
205
202
217
217
226
221
217
218
218
211
207
217
208
208
210
213
211
202
216
215
212
204
202
208
207
198
188
185
191
182
180
194
187
175
175
174
161
168
174
180
180
184
183
185
185
179
199
200
183
183
182
180
179
185
189
170
160
166
171
180
184
193
198
202
223
211
197
182
181
189
187
176
172
171
174
180
200
193
195
202
207
211
209
206
208
207
205
196
192
190
198
200
208
219
228
225
219
213
208
211
211
207
210
218
213
212
211
207
197
208
210
206
196
197
198
204
192
188
183
179
185
179
187
191
176
180
182
162
161
165
171
175
172
176
176
181
172
173
193
194
184
184
184
183
183
188
190
180
165
170
166
175
177
190
200
190
209
213
191
178
178
185
190
183
171
174
173
175
189
187
190
196
199
198
200
199
200
198
193
186
178
176
179
185
191
196
208
210
203
208
203
202
200
203
214
209
203
204
195
192
189
202
201
202
196
197
200
197
190
184
182
178
180
192
196
186
170
173
183
164
166
164
172
170
171
171
172
180
175
167
194
197
186
182
188
194
186
187
187
183
167
180
169
175
180
181
200
187
204
203
193
191
178
182
190
190
172
181
173
179
183
187
190
188
195
193
197
189
189
190
181
181
177
170
168
167
172
173
172
177
175
178
171
171
176
184
194
195
195
190
191
193
196
203
205
205
195
195
198
192
183
183
176
175
180
204
199
183
170
171
179
169
165
168
167
171
169
171
171
183
173
164
192
193
189
186
190
196
193
188
185
181
175
187
174
175
175
175
197
200
193
203
194
203
183
183
191
191
184
180
180
176
184
183
196
199
189
195
194
185
173
179
172
167
170
172
166
162
154
161
164
166
171
167
165
168
185
186
187
191
193
195
197
199
199
205
206
198
198
200
199
190
181
181
176
175
191
207
203
174
163
176
179
168
163
164
174
174
167
169
173
182
175
166
185
191
187
195
196
192
197
189
190
186
180
189
174
171
171
179
189
205
197
204
198
204
189
184
189
189
189
176
183
178
183
184
198
199
193
201
196
190
179
181
178
169
164
166
161
166
164
166
170
181
182
184
187
190
194
202
196
199
197
205
208
213
208
211
203
197
197
199
198
185
180
180
177
179
196
213
194
172
162
173
177
170
161
164
176
179
168
168
176
181
178
167
176
182
194
198
193
195
193
191
187
191
179
188
179
165
168
173
193
210
199
204
200
200
195
184
188
185
189
185
180
177
175
180
193
194
196
197
201
197
196
193
189
185
179
170
170
171
169
177
170
185
184
187
195
199
197
202
201
199
202
212
212
214
207
211
205
196
200
201
193
182
180
177
181
186
204
205
197
171
159
176
181
166
155
163
175
178
176
169
177
182
177
165
168
180
197
195
194
193
192
188
187
189
178
187
180
162
175
172
201
211
199
207
200
198
191
190
189
186
192
186
183
176
176
172
181
184
194
190
196
200
197
200
194
189
188
186
180
177
180
184
181
189
192
197
201
201
205
201
204
205
199
209
208
205
203
212
199
194
207
190
196
180
179
182
183
184
211
203
183
180
156
176
186
172
152
162
170
177
179
175
172
185
168
164
172
179
199
196
194
195
185
186
187
190
186
182
184
174
180
188
201
208
207
205
196
195
186
189
185
184
191
184
181
185
187
178
183
191
192
190
194
199
197
202
195
198
197
199
190
193
190
194
192
194
189
198
201
201
209
198
209
201
203
208
205
197
200
209
206
191
202
188
191
186
188
187
185
182
212
205
174
174
175
177
180
171
160
165
171
171
175
180
170
179
169
164
176
173
196
197
192
191
186
186
185
207
199
185
185
186
195
191
199
216
201
201
194
194
185
178
194
186
187
185
183
189
192
182
188
194
198
195
196
197
195
202
201
205
206
201
203
203
198
199
199
199
190
200
200
202
209
198
209
199
203
204
201
203
201
204
200
197
196
192
187
186
185
189
182
179
201
205
176
165
189
197
172
169
167
168
177
173
175
172
176
178
165
165
174
173
197
199
197
191
185
186
203
219
199
175
193
198
201
184
205
213
196
199
192
190
186
171
188
190
185
182
185
188
195
187
194
196
205
201
198
198
196
199
207
203
203
202
201
198
201
202
204
205
198
206
202
210
203
200
199
200
204
208
204
203
204
209
199
196
195
198
187
184
185
181
177
178
195
207
174
180
185
191
187
177
161
166
173
180
178
170
177
181
158
163
175
170
203
202
198
196
184
197
218
222
195
182
194
203
208
188
204
207
192
199
190
192
186
170
177
187
185
184
187
191
192
193
193
197
209
206
206
198
202
207
206
207
203
201
196
198
200
206
206
200
202
206
202
212
203
199
192
201
200
214
211
200
208
206
199
198
191
194
190
191
178
176
174
176
202
210
189
176
195
186
193
186
163
166
163
179
176
168
178
182
157
165
176
171
206
201
197
190
181
214
231
221
203
197
192
189
209
197
204
202
185
204
194
186
185
177
167
177
179
183
187
184
187
191
193
201
201
206
209
202
205
208
210
202
204
200
201
202
199
200
203
198
199
202
205
211
205
202
201
200
206
213
220
204
207
205
198
201
191
193
190
177
171
174
178
178
221
217
195
177
197
199
189
192
166
165
169
174
172
170
175
175
158
160
167
166
204
202
195
190
201
230
239
225
196
206
193
183
184
207
208
201
185
198
195
177
191
178
177
171
173
176
185
187
185
186
193
190
197
201
209
199
208
203
210
209
204
202
203
202
200
196
197
203
200
204
211
203
208
199
209
201
214
214
216
205
204
204
203
196
194
188
187
167
169
177
174
188
228
240
209
167
208
203
192
200
178
171
167
167
172
173
181
168
156
164
167
158
202
203
202
201
217
232
245
216
200
209
197
176
170
199
214
200
185
191
184
193
185
187
178
171
163
168
176
185
189
187
189
192
193
201
201
199
210
196
206
205
202
197
200
202
198
198
200
205
207
207
209
208
202
207
207
203
211
207
210
207
206
200
199
192
191
187
177
164
175
177
186
196
237
235
238
178
204
203
194
194
191
166
175
170
170
173
184
166
160
167
170
166
208
215
204
208
225
231
246
211
210
211
197
173
172
181
217
196
183
185
183
193
187
192
177
169
162
156
168
188
186
186
190
192
189
196
195
197
204
195
199
204
196
189
191
197
194
196
204
199
203
203
205
207
203
209
208
203
206
204
206
207
203
198
196
185
185
182
173
169
182
185
192
198
241
242
234
208
204
190
198
198
186
168
169
173
164
169
177
165
162
166
173
164
218
213
200
217
227
237
242
209
208
206
198
167
172
184
199
190
181
190
188
192
188
193
178
173
166
161
164
179
183
180
189
196
185
191
187
192
195
190
200
203
192
187
187
188
187
193
190
190
192
194
194
200
204
204
209
204
199
204
205
204
202
190
185
181
180
168
175
175
187
182
197
213
241
244
233
210
220
180
189
205
195
169
164
177
172
171
166
162
164
163
164
159
215
214
209
219
224
236
230
197
202
203
204
172
172
189
189
174
181
190
192
194
190
192
169
174
177
168
167
173
183
182
181
190
185
189
186
185
186
192
196
199
190
185
189
181
191
195
187
188
188
191
189
199
198
200
202
199
194
204
196
191
191
186
174
174
169
168
183
176
190
185
204
221
241
248
231
209
215
199
179
205
201
178
166
173
190
178
166
166
173
170
170
163
221
221
215
214
220
234
221
183
184
203
205
180
176
187
186
165
174
189
198
199
193
187
171
176
177
169
173
172
182
187
169
185
177
182
189
187
191
191
191
194
188
190
185
187
186
195
192
191
186
190
191
194
199
193
200
193
196
196
193
183
180
181
174
166
169
174
184
182
191
201
212
229
246
248
230
211
211
210
192
195
199
187
160
166
187
174
159
160
178
172
166
167
232
225
224
218
232
236
220
195
200
203
198
195
188
183
184
165
163
189
194
203
197
178
170
178
176
173
176
173
180
180
177
178
176
174
185
178
191
193
190
189
191
193
189
188
186
192
188
193
192
194
195
192
193
191
192
188
193
189
182
181
176
180
172
169
179
179
181
183
196
218
216
236
251
251
223
201
212
214
212
198
190
189
159
168
184
167
156
164
170
174
171
164
215
213
207
211
219
217
211
204
208
205
196
201
192
182
182
160
163
175
193
203
196
180
171
176
176
174
179
174
180
179
178
174
175
176
178
175
182
184
190
194
195
193
193
193
190
193
185
193
195
197
196
192
189
185
185
185
188
179
180
177
179
177
181
177
182
181
184
195
207
221
220
236
251
243
216
199
210
217
215
216
193
175
162
168
181
162
163
169
170
178
172
176
221
213
205
208
206
217
214
205
213
205
196
194
169
189
190
162
163
173
179
199
198
178
178
177
177
181
179
179
180
177
181
176
175
177
180
182
181
174
183
190
196
189
190
198
192
192
190
194
193
189
189
186
183
177
175
177
177
173
180
176
184
179
190
184
186
190
189
208
212
214
234
233
248
232
216
206
211
218
221
220
212
166
161
174
178
168
164
162
160
179
171
171
209
202
207
218
221
218
232
209
216
204
183
184
169
182
205
169
161
170
171
183
197
181
177
177
181
184
177
183
178
185
185
181
176
182
186
180
188
177
181
190
189
182
189
191
186
184
189
193
190
183
181
180
180
176
175
173
177
181
183
186
188
183
192
190
193
195
196
215
216
212
237
237
237
219
218
211
213
217
226
224
225
175
157
182
172
170
162
159
161
165
171
169
208
198
211
214
216
226
247
223
217
189
183
175
177
181
201
180
161
165
169
182
181
184
179
182
180
179
183
181
180
187
191
184
184
180
192
181
195
186
192
192
183
184
190
188
184
188
187
188
184
177
183
181
180
180
181
180
188
189
189
185
189
189
193
192
199
193
200
224
209
226
237
241
221
199
215
202
218
228
225
231
223
190
159
178
175
168
160
157
164
165
163
157
