P2
# Face with average contibution
92 112
255
200
200
203
195
205
203
202
202
195
200
199
192
190
187
187
181
190
195
208
210
211
218
213
205
206
197
197
191
189
183
175
167
164
164
171
172
174
187
191
196
193
194
202
193
194
181
189
185
191
176
173
180
181
179
196
188
183
188
210
225
208
201
196
184
189
188
188
180
181
183
190
189
193
184
190
185
188
193
190
196
194
191
196
204
206
206
205
207
205
211
209
210
197
198
204
200
202
203
205
197
200
202
197
195
195
193
200
194
193
200
207
212
213
218
213
215
210
196
195
196
189
177
173
167
166
169
172
180
178
190
188
197
191
203
194
184
185
186
190
188
187
170
171
179
177
160
172
189
190
186
193
218
202
200
202
195
188
196
200
188
181
191
187
185
189
189
193
182
182
185
190
191
192
194
200
193
204
206
206
205
206
206
208
210
201
200
203
197
200
205
204
198
204
199
199
199
196
199
205
207
201
204
205
215
211
207
204
204
208
200
198
185
179
176
167
170
174
177
172
182
193
199
182
193
194
188
180
185
185
187
175
170
185
189
183
180
178
169
172
175
184
191
202
205
199
186
200
207
207
193
202
195
190
193
190
185
188
194
183
181
176
180
187
186
188
196
195
194
199
202
207
205
205
203
210
207
201
201
203
196
196
199
199
201
203
203
199
195
203
206
203
204
202
206
201
204
208
207
203
201
210
213
209
180
187
187
183
172
175
178
183
184
195
203
186
189
201
197
172
173
179
179
172
179
182
195
191
171
167
172
172
170
180
184
191
197
193
182
183
200
206
207
197
196
189
191
200
191
194
202
181
174
175
175
180
184
178
182
191
191
198
198
208
210
204
205
204
208
202
201
195
201
199
197
197
199
198
202
208
205
206
213
207
210
213
206
206
201
205
198
200
207
210
205
197
196
212
203
198
201
186
187
192
198
189
197
195
206
204
203
184
180
187
195
194
186
191
190
191
181
172
170
174
183
184
191
188
178
178
180
181
174
192
193
197
197
201
194
196
192
184
193
197
181
176
179
176
181
186
184
188
189
197
194
204
212
206
205
204
203
201
198
197
199
202
201
200
191
196
206
208
203
212
209
207
212
212
210
206
204
198
184
196
196
200
195
202
216
219
223
211
211
209
204
213
209
200
203
210
215
210
200
191
182
190
203
203
186
179
184
183
183
176
171
177
181
191
183
179
175
167
179
173
180
190
180
182
196
197
200
194
197
188
189
201
200
176
182
184
183
189
190
186
188
191
203
198
207
205
204
206
203
202
203
200
198
202
193
202
201
207
208
204
205
208
211
206
195
202
203
210
199
191
190
184
188
189
188
203
220
223
225
214
210
224
224
228
215
211
212
210
210
209
201
188
185
190
194
198
189
183
185
183
175
166
164
176
187
187
176
166
172
170
177
158
178
191
171
169
188
185
191
190
188
189
187
202
205
186
184
193
193
193
192
189
188
192
195
198
201
207
206
200
201
201
204
200
197
200
202
197
205
207
199
199
205
214
212
194
191
206
207
202
197
192
196
197
198
184
200
220
218
221
227
225
219
222
221
211
210
212
203
201
204
206
209
192
186
184
183
183
188
196
192
191
177
168
161
177
175
175
178
171
173
173
181
184
176
180
171
169
180
182
180
178
190
191
193
196
201
200
195
199
193
189
197
195
195
190
191
195
194
203
206
200
206
196
202
197
197
207
207
204
207
201
198
203
205
216
198
189
200
212
206
203
191
190
205
211
206
206
216
219
208
224
234
219
222
213
218
216
216
213
203
199
208
205
198
184
191
190
194
187
188
182
181
185
177
170
175
176
176
171
174
178
179
175
178
178
185
190
173
169
178
180
185
172
187
193
191
198
195
192
215
210
200
190
200
194
195
188
188
182
189
199
200
205
206
197
197
199
205
210
202
213
205
202
213
203
201
201
195
198
202
210
205
205
193
207
223
224
219
221
222
213
213
216
210
214
213
219
216
211
205
204
201
204
202
208
198
187
190
190
190
191
185
187
184
187
174
171
182
174
184
185
178
182
184
185
176
179
188
193
192
173
184
182
179
179
182
185
189
191
186
199
209
215
211
198
201
196
186
188
190
186
187
198
193
204
203
194
197
205
202
216
204
200
186
201
208
203
193
190
194
199
206
212
209
209
215
222
237
238
235
230
208
203
213
196
199
202
195
197
205
201
205
203
196
203
196
206
207
205
202
203
199
196
199
197
198
192
186
188
178
186
181
200
194
185
184
190
178
185
179
191
199
186
185
185
181
176
175
185
192
185
182
198
213
216
214
211
206
204
189
190
194
191
188
197
201
203
203
195
206
207
216
210
202
189
185
193
201
197
189
189
197
209
201
201
209
196
202
209
226
227
228
216
215
199
189
183
184
192
179
187
192
189
200
193
193
195
190
202
211
212
211
209
208
211
213
206
212
214
202
198
196
203
195
196
190
193
179
184
182
186
187
182
186
190
183
181
180
177
181
176
190
185
194
196
194
200
208
219
213
213
196
193
191
187
187
189
195
197
204
198
203
207
207
205
196
187
179
190
185
178
189
198
203
202
195
197
197
197
212
217
218
210
203
204
201
197
183
182
184
186
185
185
184
189
193
193
190
199
209
217
219
216
219
216
222
224
224
219
226
221
212
203
204
204
203
200
197
189
186
183
180
185
181
189
190
180
186
175
183
183
188
194
188
189
191
192
184
183
190
198
208
208
195
196
190
180
190
185
190
194
199
203
203
199
211
201
192
185
178
176
171
176
191
197
195
195
190
192
189
198
209
212
211
207
209
207
195
199
192
184
197
195
182
183
184
186
187
199
192
201
216
219
217
216
222
222
218
228
230
229
231
221
212
213
200
208
195
199
199
192
192
191
178
188
181
189
197
188
193
186
187
193
188
188
187
180
189
193
188
191
180
184
199
202
199
189
189
185
185
188
187
193
188
205
204
202
204
193
192
189
176
173
169
179
184
193
196
194
184
182
184
197
201
198
207
213
217
213
212
203
196
201
204
196
186
188
189
183
191
201
203
209
212
224
218
208
223
214
210
211
225
229
226
222
218
216
199
204
199
202
200
195
199
194
184
181
184
194
188
201
206
201
197
186
179
182
171
179
196
197
193
191
184
178
198
203
205
207
192
181
186
190
191
186
184
208
201
199
193
185
194
187
187
180
177
187
182
184
190
180
184
176
183
190
188
201
199
204
203
203
201
196
192
191
188
193
187
186
191
182
193
201
204
203
207
215
216
216
211
218
203
208
209
222
224
222
207
212
203
202
194
200
191
189
201
192
187
192
190
194
197
204
203
208
197
193
176
178
179
185
183
198
196
186
188
181
176
188
206
203
209
188
181
191
189
181
182
200
204
196
184
185
189
187
184
192
196
193
191
192
194
184
172
170
186
185
191
199
195
200
205
200
184
182
191
185
185
188
185
185
182
182
196
199
204
206
212
208
210
214
210
216
211
209
211
210
220
209
204
201
200
197
195
187
186
186
196
201
200
192
199
189
200
199
199
213
198
188
187
174
177
180
179
191
194
192
192
185
180
173
192
192
211
208
192
184
193
187
188
200
201
198
186
184
193
183
185
191
193
187
200
204
199
185
177
178
184
187
186
194
188
194
203
188
181
181
184
186
186
179
184
191
186
180
192
202
202
204
199
202
216
215
219
215
207
211
207
203
209
202
207
201
199
196
191
183
186
181
192
201
196
192
200
204
208
207
208
215
212
194
195
190
174
166
179
190
209
211
194
192
185
177
175
181
202
212
215
195
189
194
191
201
199
197
187
187
187
186
191
196
190
190
206
201
191
184
183
185
191
187
191
187
186
187
195
183
188
182
183
183
184
182
182
188
189
189
191
194
198
195
190
189
207
220
215
222
200
207
208
200
191
193
202
202
197
193
192
190
178
175
186
186
179
177
192
205
217
208
210
216
210
195
189
180
176
170
163
175
205
211
205
192
185
191
176
172
180
204
213
205
189
190
188
205
198
192
195
197
182
189
192
200
190
202
211
199
188
194
192
197
203
195
187
181
182
182
189
185
192
186
187
186
185
194
195
197
198
200
195
194
203
198
185
197
201
221
215
209
207
205
203
194
188
188
197
203
197
184
183
184
174
174
179
170
172
178
196
202
210
211
209
215
209
197
188
182
176
178
166
166
184
207
188
204
193
192
189
177
174
191
218
210
194
187
187
200
190
188
205
199
190
188
201
204
202
210
213
203
194
198
202
200
199
186
178
179
183
189
189
188
188
187
188
189
196
203
195
196
194
191
192
195
199
196
186
187
201
206
209
202
198
210
197
196
183
180
192
193
196
191
189
180
182
178
181
178
175
185
185
194
203
199
202
215
212
207
203
194
189
189
180
171
178
195
206
196
200
196
189
183
175
181
213
210
198
188
192
189
193
187
203
198
197
194
191
195
205
209
217
210
201
201
200
193
185
188
187
186
185
192
189
184
191
185
183
187
194
199
192
189
186
185
180
184
183
188
188
188
196
197
202
201
197
195
198
195
186
186
185
189
193
192
189
180
176
182
181
178
179
183
176
190
194
199
200
208
203
201
200
192
189
185
182
184
185
200
199
208
197
198
189
180
174
172
190
215
190
187
195
184
197
194
203
206
201
186
193
198
208
209
211
210
201
199
196
189
195
199
195
195
195
189
192
191
186
184
181
183
186
183
182
183
182
176
177
177
181
186
188
192
196
191
206
201
198
192
191
197
194
195
185
183
188
191
192
181
183
183
185
176
172
180
189
186
190
195
201
201
198
184
188
191
184
187
196
201
190
196
195
199
201
201
199
174
170
164
177
199
204
182
190
189
200
197
199
201
193
181
196
201
211
204
213
208
200
189
193
198
202
203
202
206
201
201
190
191
184
186
180
179
184
185
178
180
181
176
174
172
175
187
188
193
194
193
202
206
200
189
189
190
196
196
193
191
191
188
191
191
190
189
189
182
176
179
183
182
186
179
192
197
193
190
189
191
189
190
196
208
204
194
189
192
201
205
193
177
179
164
179
181
211
194
192
193
193
196
185
192
177
181
194
203
214
213
206
197
194
189
193
204
209
206
208
207
206
200
189
187
186
187
179
185
181
184
173
174
173
176
177
182
181
187
188
194
193
196
199
204
200
189
188
190
193
200
193
189
195
188
186
189
191
188
185
187
179
175
174
181
181
182
188
192
193
192
198
198
196
197
204
211
209
197
194
186
196
205
184
181
183
170
170
178
194
207
188
185
198
180
184
176
182
184
192
211
218
204
204
193
189
197
211
210
213
211
210
208
199
192
191
186
182
181
183
185
180
178
174
182
174
172
178
185
186
190
189
195
192
194
195
199
196
196
191
186
194
199
197
192
194
195
194
188
200
192
188
193
187
180
179
179
180
180
181
188
190
190
198
200
192
192
199
205
201
201
185
195
196
201
186
181
186
182
162
172
193
206
190
183
191
182
176
181
181
181
201
217
209
197
205
183
191
206
209
215
215
212
203
204
197
188
191
188
183
186
183
183
175
174
176
178
173
176
187
185
187
192
194
191
194
196
195
197
195
194
194
189
197
201
203
199
197
196
194
189
197
197
191
194
189
188
190
183
194
186
192
192
183
183
191
198
191
184
194
199
208
211
203
179
188
204
194
182
183
185
169
172
184
206
198
187
190
178
174
180
179
190
206
209
196
196
187
189
196
200
209
213
214
210
200
198
199
191
187
184
191
187
186
182
173
174
182
181
176
185
187
187
189
187
190
196
186
198
198
197
194
197
198
194
197
201
207
205
201
202
204
202
198
202
197
196
194
198
199
198
201
204
202
206
196
185
190
184
192
186
193
195
200
213
211
196
179
195
191
177
183
186
173
173
188
207
199
188
189
175
167
182
182
190
205
206
200
188
176
187
195
203
209
216
216
212
204
199
200
196
186
190
194
189
187
183
185
183
189
183
187
184
183
187
188
186
191
189
192
197
198
199
197
199
204
202
199
201
209
208
210
209
211
207
206
205
200
194
200
205
206
206
207
208
213
213
205
188
187
185
185
189
190
202
196
214
210
203
189
197
188
175
184
193
179
178
180
204
205
190
177
172
171
173
178
191
199
210
200
178
184
192
198
212
217
217
217
208
209
207
206
204
193
195
191
193
190
196
199
197
196
189
192
191
188
184
181
183
191
192
191
201
201
199
203
204
208
210
209
207
206
209
213
210
207
208
211
211
204
200
205
208
210
211
211
210
211
217
212
207
191
187
178
184
186
200
203
208
208
212
204
206
192
183
186
190
179
169
182
199
210
196
172
167
163
168
176
190
201
207
189
186
194
194
206
217
221
224
216
212
216
215
209
209
200
200
199
199
197
203
205
201
198
195
196
196
194
186
186
193
195
192
196
203
201
204
205
211
220
214
215
211
207
204
207
205
206
207
208
212
206
207
212
209
210
209
208
214
214
212
212
211
208
194
179
175
186
195
202
202
205
209
211
220
190
184
187
194
173
160
172
199
203
198
175
161
163
166
177
192
199
199
198
195
195
205
209
216
225
228
222
216
212
218
218
211
206
204
204
202
206
208
209
204
206
201
194
197
193
188
191
196
198
197
197
209
206
200
209
214
221
218
214
211
210
206
202
198
206
209
202
202
206
216
216
213
214
206
211
208
214
215
214
216
216
199
179
179
179
194
202
206
210
213
222
228
207
183
183
192
179
171
157
183
201
196
175
164
160
155
175
199
197
202
192
198
208
213
209
219
226
225
219
209
206
217
216
210
208
205
201
206
208
214
207
206
207
200
199
198
192
188
194
200
199
207
201
209
207
203
206
220
223
220
214
213
212
209
210
203
198
206
207
205
212
222
220
217
219
213
215
216
217
219
216
213
218
212
189
178
181
195
197
199
202
207
213
224
209
185
185
193
200
172
161
167
209
194
177
161
156
154
183
204
198
198
199
202
212
211
205
218
220
215
210
203
206
215
210
208
204
202
201
206
212
207
202
201
202
196
194
192
195
192
195
195
201
204
208
205
201
208
212
218
220
220
215
217
217
216
213
208
202
205
209
207
206
215
216
216
221
218
218
217
214
215
217
215
217
218
204
187
178
188
201
197
213
213
211
218
206
187
185
197
198
186
170
167
204
190
181
167
143
166
189
205
191
200
201
205
213
205
203
213
214
208
205
197
201
209
210
204
201
201
199
203
206
206
202
197
196
191
187
187
188
191
191
192
197
204
202
200
203
207
216
221
219
214
213
220
223
215
207
207
202
207
209
210
209
206
205
208
211
211
213
210
205
205
212
210
215
217
211
199
182
181
193
202
205
233
224
215
209
186
179
202
195
185
174
166
202
185
183
160
147
168
193
194
199
200
206
212
215
200
200
209
206
200
198
192
204
207
205
201
200
200
202
196
205
200
202
198
193
192
193
191
185
192
187
189
189
195
195
201
208
209
215
224
220
220
216
213
215
210
206
198
200
203
207
207
205
207
197
202
202
205
212
206
202
204
213
210
210
210
211
204
194
184
183
193
202
218
233
223
217
196
182
188
197
178
181
157
193
189
192
164
150
165
199
196
204
207
208
211
206
196
199
203
201
199
197
193
199
202
200
200
204
203
201
201
202
204
202
199
194
194
198
196
188
192
189
188
188
197
193
204
206
212
213
218
217
212
207
208
201
200
202
193
190
198
193
201
203
207
206
201
204
202
208
204
205
209
211
213
211
209
210
205
194
190
182
188
203
203
227
229
229
213
185
177
194
177
184
163
174
201
189
171
153
166
196
202
208
204
203
202
200
197
194
199
196
196
192
188
194
200
208
203
204
196
193
198
201
202
203
198
197
197
197
195
191
195
190
193
190
192
192
198
202
210
206
211
214
204
198
201
197
198
204
192
186
199
199
203
203
204
207
204
203
206
206
204
202
207
207
207
206
206
206
204
187
182
181
182
195
206
219
230
241
215
196
184
193
176
178
175
171
208
190
180
154
178
195
206
209
208
201
199
200
195
193
195
195
196
189
189
194
205
208
204
199
189
187
189
191
192
190
186
184
187
182
185
190
192
192
195
194
189
195
198
201
206
205
202
201
200
197
199
201
199
201
200
188
192
194
194
201
201
199
198
199
206
207
207
199
199
206
204
206
205
205
201
198
181
176
181
189
202
219
228
237
221
199
193
202
187
170
186
189
205
196
184
162
176
194
215
203
206
192
186
185
179
180
188
191
189
189
190
199
209
206
201
194
188
190
193
192
192
195
189
186
191
186
188
186
189
188
187
193
196
195
197
195
201
199
199
198
198
201
204
206
208
202
202
193
190
191
194
198
198
191
199
198
201
202
209
205
201
208
209
212
208
208
203
195
183
183
179
184
201
216
219
226
223
203
192
204
191
184
189
205
200
191
185
169
186
186
212
203
201
188
178
170
170
179
183
185
188
185
194
198
207
202
200
201
202
206
209
203
199
199
190
187
197
196
198
193
196
196
190
189
187
197
196
192
189
199
202
201
200
199
201
201
198
200
198
189
181
191
203
205
215
213
211
209
214
211
217
213
206
213
207
209
202
208
201
195
185
184
180
181
202
210
217
224
226
206
191
193
185
184
201
215
203
180
188
187
194
180
204
205
206
191
173
167
168
181
179
183
192
185
188
194
196
197
195
208
212
208
200
197
188
196
185
185
198
198
200
197
199
203
195
191
190
192
198
187
188
196
197
198
194
192
193
191
191
198
194
192
187
203
213
219
230
223
218
218
223
214
220
217
212
213
211
204
201
202
204
196
186
184
189
194
204
199
204
228
225
206
185
184
182
183
207
220
194
184
183
205
203
180
198
207
200
195
178
172
174
185
182
190
185
177
180
180
183
195
197
203
202
197
190
190
188
187
186
193
199
198
197
199
195
202
199
194
191
194
188
193
204
199
198
197
190
187
196
187
185
191
191
198
202
206
211
210
223
211
201
201
211
196
194
202
199
197
200
201
195
197
194
197
193
195
197
205
213
208
201
210
224
207
194
183
174
189
204
207
187
179
183
213
221
191
188
202
198
192
182
178
187
185
182
189
179
179
182
176
185
193
195
193
184
189
179
179
177
185
184
191
200
198
195
193
193
202
199
194
190
191
183
198
207
201
187
191
190
182
190
190
191
186
196
202
198
195
199
185
207
202
181
181
184
182
178
176
192
194
183
183
189
186
188
187
179
193
202
207
211
215
189
200
221
214
197
187
180
185
207
196
189
187
176
209
231
201
187
204
204
194
183
174
189
183
193
182
182
177
176
179
175
177
182
186
191
185
187
197
196
190
202
200
208
197
197
196
195
191
188
197
189
186
183
198
195
194
186
186
191
181
179
191
191
184
183
188
192
198
199
189
185
199
180
176
171
181
185
177
172
187
186
181
167
174
186
187
191
182
201
211
201
202
191
186
206
217
192
192
190
193
204
196
190
189
197
197
227
208
191
209
194
185
183
184
196
185
193
202
191
189
179
178
176
170
177
182
184
180
193
196
204
207
200
189
194
186
186
193
192
191
175
182
187
188
188
191
188
182
175
180
181
173
175
187
190
178
180
181
182
185
189
180
183
196
176
188
173
179
189
178
179
182
185
191
172
161
172
180
183
181
190
207
202
192
196
204
201
208
187
183
202
202
202
198
200
193
193
210
217
206
196
210
192
180
181
179
198
184
186
206
201
184
180
174
173
168
172
163
161
165
185
187
196
204
192
179
185
185
187
196
190
201
201
186
194
193
211
212
202
189
188
189
188
183
188
201
203
195
196
195
190
189
190
176
169
179
171
183
178
177
179
181
183
176
181
187
192
178
171
180
185
173
187
197
210
191
203
206
208
212
188
178
207
202
203
188
204
194
196
211
216
198
199
206
188
183
171
162
180
189
178
185
193
180
169
165
168
164
155
154
152
173
180
175
193
199
197
182
181
194
195
193
203
209
205
196
192
186
203
212
200
188
187
193
195
193
207
208
223
210
209
213
201
205
207
211
200
194
198
195
195
194
196
190
183
185
189
183
193
187
175
184
196
184
171
194
206
197
195
213
222
217
187
193
209
210
203
190
210
183
182
203
211
193
190
199
186
182
171
162
177
180
170
182
179
155
157
167
173
164
141
149
156
168
188
187
201
213
226
207
206
194
181
184
183
201
204
197
197
188
197
194
191
188
181
189
193
190
197
200
226
223
206
204
213
216
220
226
224
211
221
225
218
216
195
189
187
193
202
195
198
183
182
178
195
199
167
177
198
205
189
211
222
198
181
207
193
210
196
184
203
173
163
179
209
197
182
191
191
189
173
172
190
186
169
173
171
141
166
172
170
158
157
153
167
181
194
215
214
233
238
223
219
211
190
193
183
193
210
201
201
187
192
185
174
178
177
188
190
195
191
188
214
225
210
196
202
200
196
201
209
183
189
226
220
217
191
195
197
187
203
197
197
184
177
173
184
198
180
169
175
210
189
207
195
184
197
218
191
191
192
190
191
169
138
162
193
211
190
182
204
207
196
184
199
186
167
168
163
146
162
172
182
183
183
175
174
190
178
212
222
239
230
227
218
227
215
196
189
208
217
210
205
186
192
179
160
166
174
186
183
191
180
166
180
207
210
196
180
188
183
186
195
189
201
229
224
222
206
193
194
195
197
197
189
179
173
163
161
186
176
170
177
197
182
192
184
187
209
216
193
178
171
189
190
165
129
142
180
190
195
188
219
221
214
198
202
187
172
175
176
173
190
192
194
198
198
196
210
206
206
198
212
220
207
202
217
228
218
208
203
215
222
212
200
188
197
185
174
175
177
185
190
191
196
194
193
226
220
202
181
183
180
176
176
196
211
231
210
212
201
194
192
191
198
191
190
177
171
168
164
180
181
160
180
188
171
173
195
185
192
188
169
174
150
181
201
167
148
156
176
174
184
190
223
209
205
199
188
178
164
153
174
186
189
189
162
163
195
187
195
190
196
199
204
197
178
185
195
208
211
216
210
210
204
202
183
184
188
189
182
178
183
187
196
203
199
210
211
224
219
192
176
168
181
181
169
210
207
203
188
189
190
202
190
194
204
207
200
190
187
179
184
196
194
166
190
178
157
172
170
195
179
168
165
172
127
178
207
173
160
176
167
172
179
195
227
216
208
196
181
172
164
157
181
190
191
185
175
166
157
166
167
180
181
180
182
176
182
195
194
211
205
219
217
209
204
204
198
203
201
197
186
185
182
180
181
184
183
194
207
199
200
184
187
175
177
190
181
210
194
188
181
197
194
201
205
196
212
213
205
191
187
180
183
203
195
172
195
178
146
158
183
210
177
170
189
184
149
146
212
187
173
183
178
168
181
201
225
229
219
201
185
171
153
164
182
194
197
187
193
192
195
184
193
176
175
169
184
184
196
215
220
214
216
220
225
223
226
214
229
220
218
204
200
199
193
188
190
193
194
200
204
188
192
193
198
187
187
184
188
204
188
180
179
188
185
195
194
201
200
214
211
205
205
185
177
192
181
174
190
171
134
153
205
212
184
172
190
203
186
150
229
200
186
197
184
174
179
197
221
227
223
207
191
186
159
172
185
198
192
186
184
187
182
175
170
162
168
171
181
186
197
223
224
216
217
218
216
230
227
221
239
232
216
209
226
215
209
202
196
198
201
205
202
201
186
197
199
194
193
193
188
184
178
178
176
179
170
164
173
182
186
197
205
207
206
196
181
174
169
191
175
169
137
170
215
201
166
162
185
198
200
155
225
195
186
207
197
174
186
204
228
231
231
218
196
185
167
188
193
206
195
187
192
182
179
171
162
162
163
166
171
183
194
204
219
216
216
204
208
215
199
206
210
205
199
206
211
208
218
215
206
201
191
191
189
204
194
187
190
200
188
187
179
160
159
168
164
162
155
187
177
186
187
212
210
205
196
196
192
183
183
198
163
174
155
174
191
191
175
154
182
200
204
162
216
181
188
202
200
182
186
223
240
226
231
217
203
191
178
203
205
195
202
198
187
168
170
156
162
168
167
171
179
183
184
186
211
216
201
199
214
206
196
212
204
192
198
198
202
199
217
213
193
198
197
196
190
183
192
182
178
198
197
192
180
180
169
180
171
177
173
179
186
183
182
222
198
190
199
196
215
210
188
183
166
178
181
167
181
203
177
174
191
199
190
181
216
181
185
198
194
187
194
223
233
220
207
212
206
198
185
198
203
199
207
200
182
171
167
147
160
173
166
174
179
185
191
198
200
211
202
189
179
182
189
196
198
180
175
178
184
200
211
223
219
203
202
187
186
184
187
164
168
163
167
182
190
196
184
200
181
180
192
184
191
191
188
219
190
195
204
202
225
213
186
180
177
178
191
187
207
204
171
186
202
189
182
185
219
186
187
199
194
205
204
228
226
206
198
209
201
199
189
199
206
210
194
202
199
187
181
164
168
177
179
192
198
195
194
197
197
187
190
190
186
195
202
206
201
168
151
163
165
186
198
218
218
206
192
184
189
189
175
168
159
152
157
184
192
188
188
183
192
183
188
196
200
195
205
203
190
198
199
204
207
209
189
181
181
191
184
182
192
190
149
188
199
186
189
175
214
193
185
209
201
201
202
216
211
214
193
206
209
195
192
202
196
206
205
198
196
192
177
172
173
179
173
186
191
184
192
193
182
184
180
211
197
189
200
196
191
178
153
158
171
182
192
206
203
200
194
189
183
176
163
158
156
151
162
180
186
186
176
174
187
194
198
198
198
192
200
191
189
200
200
204
203
199
191
187
183
204
211
181
177
189
173
169
197
181
200
163
201
191
188
205
205
199
199
201
205
212
203
201
196
194
189
205
190
189
202
204
201
191
181
184
182
188
180
183
187
196
204
204
192
182
172
184
190
189
208
214
196
174
162
168
181
198
193
190
197
200
199
190
172
158
156
152
158
152
165
177
177
188
180
181
186
191
187
187
181
190
194
194
198
202
203
205
205
186
191
188
170
173
204
188
176
198
187
165
184
184
188
155
189
195
177
211
200
184
199
182
195
215
193
198
196
196
203
211
206
195
198
205
188
182
181
182
183
185
183
183
194
200
203
211
193
181
171
179
180
188
209
223
208
186
167
165
193
199
194
189
190
195
198
193
171
159
173
168
155
154
169
174
177
190
181
177
184
183
182
188
190
198
195
201
199
196
202
200
199
179
188
176
150
143
171
196
187
208
191
169
184
181
172
160
174
191
173
202
202
180
176
170
184
198
192
185
202
206
202
207
209
208
196
197
188
190
187
183
183
179
182
183
193
193
199
216
207
185
177
185
189
189
207
211
200
189
189
175
194
206
192
187
188
197
202
198
182
178
187
184
169
166
175
180
180
190
188
179
173
170
175
186
190
195
191
197
198
197
200
199
197
184
179
157
143
136
165
187
196
207
189
182
179
175
150
173
177
183
182
188
196
186
168
164
186
188
190
185
209
211
201
206
206
210
209
195
189
193
189
184
182
175
179
179
179
184
192
199
194
179
184
192
199
197
205
206
197
197
191
189
180
200
198
185
189
193
202
196
192
187
185
182
177
168
176
190
191
195
193
181
174
166
166
181
187
188
186
198
203
204
199
203
190
186
178
159
133
138
173
187
193
206
175
184
180
174
139
191
175
173
179
193
176
183
179
159
175
177
186
176
194
205
201
201
206
204
206
201
208
206
202
195
193
182
183
185
187
191
193
192
184
179
191
187
195
199
203
206
200
187
185
175
174
178
181
184
177
179
184
185
192
185
180
178
177
176
178
185
198
199
205
195
186
178
172
180
188
188
194
194
199
201
203
209
200
194
195
158
140
142
153
172
184
192
168
180
178
165
158
208
171
179
173
195
175
162
162
156
163
169
185
183
180
197
199
196
199
199
200
202
209
215
205
199
200
196
195
196
196
195
198
201
186
187
185
187
195
205
203
202
193
182
188
185
184
183
179
181
183
178
186
192
189
185
188
180
176
181
187
184
191
189
196
197
197
192
187
197
200
206
203
204
204
201
203
210
201
193
192
163
153
159
149
161
178
179
163
180
170
156
177
204
165
180
180
195
181
152
153
139
150
168
185
197
182
189
194
194
200
200
204
209
215
219
210
206
211
203
207
203
201
196
191
183
182
183
181
178
185
203
199
199
191
187
203
203
191
192
180
178
185
184
184
195
192
185
187
187
177
177
189
189
189
176
183
188
192
185
182
193
196
199
199
198
200
203
203
199
200
190
199
166
158
177
163
160
180
167
171
185
161
168
194
199
179
174
185
202
195
160
153
137
145
156
185
200
188
180
193
194
196
199
208
215
214
220
210
209
210
210
207
207
208
202
191
187
186
186
179
164
172
188
187
187
191
188
195
198
195
185
182
178
181
186
181
187
197
200
198
197
181
178
186
185
187
180
187
184
181
184
176
187
182
190
195
197
202
199
197
199
193
195
197
175
176
175
174
163
172
178
184
176
171
192
198
196
205
170
180
200
201
176
157
138
140
145
169
194
189
181
187
192
197
197
205
214
213
213
214
212
206
204
210
213
210
201
194
190
191
189
186
174
181
193
193
191
189
185
189
191
189
185
187
185
180
179
178
186
198
216
210
211
188
181
186
182
176
178
184
186
181
181
178
183
185
189
194
195
196
196
196
202
192
193
195
177
176
174
180
164
175
178
176
176
201
205
194
198
198
195
169
195
206
191
167
144
140
144
166
177
177
189
180
184
190
197
202
210
205
205
210
201
198
203
206
204
214
210
197
189
190
191
189
183
187
200
201
196
186
178
177
176
171
169
176
193
181
171
169
188
188
204
198
195
190
184
179
176
167
172
181
188
179
182
182
187
187
193
195
195
198
199
205
204
194
189
185
179
176
178
183
175
176
176
186
194
216
205
197
193
189
202
191
189
204
198
185
169
144
139
161
169
168
187
184
177
183
195
197
204
200
196
203
194
199
196
190
201
205
199
197
183
186
188
180
185
185
188
195
186
180
171
165
166
170
175
176
181
181
177
163
181
186
185
187
182
186
189
178
175
171
164
173
180
182
185
182
193
190
189
197
200
200
202
210
208
196
190
181
176
181
176
182
179
179
191
204
217
225
195
196
197
191
195
197
200
208
192
190
190
156
136
152
164
168
181
188
174
185
197
200
193
190
191
188
191
193
191
193
197
197
196
188
175
178
177
183
186
187
183
186
188
177
173
163
168
179
189
185
182
180
184
176
177
180
174
185
181
176
176
179
176
173
162
156
169
192
197
192
192
187
189
195
196
202
203
206
205
191
190
182
178
184
185
185
182
200
223
221
225
213
201
198
197
198
207
197
179
209
191
185
200
160
146
149
170
169
174
188
177
191
203
204
199
195
194
183
190
193
193
190
192
187
190
183
177
177
169
179
196
189
180
189
195
181
181
174
178
182
187
184
188
189
199
204
208
192
191
193
187
183
180
177
177
175
167
163
175
189
196
200
192
187
190
199
196
198
205
205
200
189
189
183
183
184
193
189
201
230
226
223
220
207
201
196
196
195
206
197
178
191
208
198
212
164
162
155
178
177
167
180
180
196
198
198
207
201
196
186
189
191
191
190
184
180
184
185
180
178
176
174
189
207
193
194
198
187
189
191
188
183
185
187
199
205
208
211
205
197
202
204
193
193
190
182
176
180
177
173
180
187
192
202
191
185
188
197
197
199
203
208
197
192
184
183
186
202
207
209
225
234
224
225
216
199
197
197
200
195
198
200
174
181
204
201
221
196
198
179
170
181
173
181
184
195
198
200
215
214
208
199
193
187
189
180
176
183
182
186
176
174
177
178
186
206
209
197
196
186
184
189
190
187
183
193
201
193
197
197
191
195
196
193
189
189
189
181
178
178
179
179
182
186
184
194
187
183
183
198
193
202
207
211
199
192
184
182
194
214
222
221
232
233
225
232
202
199
197
196
208
196
198
198
179
175
199
201
213
205
200
207
165
183
174
189
191
192
200
204
219
227
220
209
189
180
183
176
179
189
185
185
184
182
193
191
196
209
213
196
183
176
172
179
176
174
179
195
190
186
189
187
185
193
189
192
192
186
186
180
182
180
172
180
181
187
185
193
190
182
189
191
193
205
203
206
208
197
187
181
211
223
235
237
240
237
225
226
193
197
198
194
211
193
197
198
185
172
190
193
205
208
199
206
170
184
180
191
193
192
198
201
217
221
227
219
201
189
189
189
192
193
196
184
171
158
169
177
190
191
199
187
180
169
162
168
168
171
176
183
189
191
189
195
201
199
191
195
197
193
189
185
185
186
182
181
186
186
194
195
194
184
188
189
191
199
197
199
208
216
196
194
224
236
248
243
242
238
232
213
189
200
203
196
204
194
202
193
192
182
179
195
200
203
196
206
185
177
194
199
197
185
197
200
203
215
227
225
212
209
208
206
200
202
204
190
172
164
166
168
169
166
174
173
177
166
165
176
173
173
184
180
183
189
194
193
203
203
198
198
208
203
190
191
186
183
185
184
186
186
194
201
200
189
189
191
192
196
193
196
210
213
193
198
231
239
242
233
239
230
224
201
185
201
202
199
203
196
198
196
191
184
180
186
192
205
186
201
198
170
200
200
200
182
195
196
194
211
224
221
217
221
221
221
216
212
205
203
190
177
173
167
157
159
158
166
166
168
175
179
176
172
179
175
173
177
190
191
202
213
207
203
207
202
196
194
190
190
180
183
187
189
198
197
201
191
193
193
190
194
190
194
209
206
185
208
238
236
236
224
222
221
206
199
188
200
202
198
205
190
195
200
198
185
182
181
183
197
184
190
205
175
198
197
197
188
192
194
193
209
217
225
220
225
235
232
224
219
208
208
201
188
185
173
166
175
176
182
178
183
189
189
183
177
168
174
177
174
180
192
200
215
209
205
214
199
193
190
187
187
176
179
188
191
195
190
196
194
193
198
199
194
194
188
200
192
186
212
241
244
229
219
213
205
204
196
194
199
199
195
201
189
192
199
200
195
191
185
178
187
189
189
202
186
188
192
192
188
192
197
198
206
213
223
227
222
228
235
229
221
210
215
205
201
196
192
189
197
191
200
195
202
199
200
196
190
174
173
182
179
172
188
199
207
204
203
212
201
196
199
199
201
196
198
198
191
184
183
189
190
193
197
199
198
195
189
193
190
190
213
242
248
231
206
200
204
206
192
197
197
197
195
201
192
191
192
201
200
192
197
179
180
193
191
198
193
177
197
193
187
185
195
199
204
202
216
223
224
223
228
230
224
214
217
209
211
208
210
207
206
198
196
193
198
201
204
204
208
192
177
183
189
187
186
196
206
202
204
211
212
210
211
211
223
217
214
202
188
184
185
194
191
195
201
201
199
201
188
181
189
200
207
247
238
223
196
205
208
205
192
198
200
198
199
209
193
195
187
196
200
193
189
189
180
194
195
194
202
171
192
195
192
177
188
195
199
195
206
211
226
222
220
218
221
215
220
209
210
208
211
204
202
198
193
192
192
195
203
206
211
201
202
189
192
198
188
177
193
197
199
205
215
219
215
224
240
230
216
201
190
190
194
192
191
201
196
199
206
199
187
178
189
204
218
244
228
209
200
206
212
204
193
201
199
195
204
216
192
193
189
191
201
196
187
194
180
187
202
198
204
182
182
202
200
176
176
193
191
192
197
206
218
217
208
208
198
203
212
213
209
211
202
210
208
209
210
200
197
191
197
199
204
203
206
207
206
206
195
176
187
187
188
203
212
230
220
229
230
223
212
210
201
196
198
191
199
198
193
203
205
200
177
169
200
210
233
236
220
202
202
212
207
203
195
199
201
193
201
214
196
192
191
192
196
192
188
189
180
188
199
200
203
190
175
205
209
187
175
184
190
187
193
204
207
209
201
201
189
189
196
206
212
201
185
196
204
200
222
215
213
205
219
216
215
216
211
208
201
207
194
170
168
184
193
203
213
219
207
212
209
205
202
202
198
195
194
193
199
194
197
204
206
190
169
172
201
220
242
226
215
203
209
211
203
202
188
200
203
197
199
208
195
196
192
189
193
191
184
177
184
187
194
195
193
202
171
204
213
210
185
186
193
192
191
199
202
198
194
193
190
186
181
192
206
208
196
215
219
200
205
208
217
209
218
229
217
208
198
180
184
191
201
184
182
207
193
195
200
207
196
201
198
198
196
195
192
187
192
193
193
192
196
201
195
180
170
181
207
240
243
224
205
203
213
208
204
191
192
194
205
200
200
206
193
194
192
193
192
191
181
180
179
182
188
191
195
194
175
198
213
214
193
192
203
213
194
192
187
191
181
172
178
178
181
185
184
193
197
214
217
193
196
201
208
197
206
211
193
188
181
174
168
179
186
177
178
177
172
177
192
196
194
196
193
197
193
192
191
191
191
191
184
191
202
203
193
177
176
195
213
239
237
217
202
207
211
204
199
191
191
191
199
198
204
201
197
194
188
191
192
190
185
179
187
176
186
184
185
192
186
189
202
212
201
191
208
210
213
209
195
201
182
175
172
172
181
184
176
176
186
197
213
205
200
196
190
182
191
195
175
176
172
182
178
178
171
172
172
176
179
180
191
193
192
195
196
200
194
189
187
189
186
186
180
204
208
205
192
182
186
200
221
234
233
210
202
210
212
195
199
192
188
192
194
193
198
205
194
193
184
191
187
186
189
189
184
187
184
186
182
188
194
193
200
205
195
183
199
207
209
220
221
219
209
198
193
184
191
195
188
192
193
185
181
184
194
200
205
202
201
197
189
183
185
187
186
178
174
177
179
188
189
188
195
199
198
205
207
200
186
181
174
179
184
190
200
214
218
208
197
185
190
195
221
223
224
205
203
208
208
199
194
194
189
185
189
194
196
203
192
192
191
187
187
187
191
195
191
190
182
190
183
188
200
199
175
193
174
172
196
207
196
206
214
228
216
208
202
194
190
194
183
190
192
184
176
174
177
185
196
201
204
199
196
192
182
181
183
176
181
182
184
186
190
194
196
190
189
192
197
190
181
180
185
188
190
200
195
209
212
200
199
178
191
191
216
222
221
205
206
204
199
197
196
194
191
179
187
199
200
204
195
190
192
186
187
190
196
196
191
201
192
191
196
189
199
186
168
182
167
186
202
206
196
194
200
213
213
209
201
196
194
193
184
189
192
190
183
180
181
177
177
182
176
183
185
191
192
183
187
184
186
184
183
181
187
185
189
189
186
192
201
198
197
195
198
200
200
195
192
201
202
203
191
176
191
182
210
228
216
205
205
196
197
195
194
196
184
181
186
201
201
201
195
191
187
189
188
195
199
202
201
207
207
196
197
194
190
164
169
181
193
190
199
203
200
192
190
197
202
205
199
191
188
191
180
179
189
183
177
172
178
171
170
174
172
172
175
184
190
191
193
193
194
191
182
191
194
191
196
199
202
197
210
206
203
201
202
199
204
196
190
194
199
194
188
178
190
189
212
221
216
209
197
200
186
193
193
192
185
177
190
203
204
201
193
194
192
194
200
201
208
209
207
207
208
203
199
187
182
165
164
204
195
187
196
197
199
194
194
190
193
205
201
195
187
189
183
187
189
190
184
172
168
168
170
177
176
180
188
184
187
195
203
203
197
197
188
199
201
204
203
205
205
202
204
201
204
197
197
202
200
190
188
193
195
190
188
176
192
195
211
224
223
211
193
191
195
185
187
188
184
177
189
206
210
202
200
199
197
200
203
209
213
208
212
204
210
210
201
177
173
167
179
210
193
191
198
193
200
197
192
179
191
188
193
190
195
188
185
185
195
192
191
189
187
184
179
190
190
193
192
193
193
193
196
190
194
203
202
199
212
214
206
201
203
209
202
202
199
191
202
200
200
192
192
193
196
184
185
178
177
195
213
222
226
205
191
177
177
186
184
189
189
179
190
204
215
210
202
201
200
197
206
210
216
210
213
207
210
214
186
171
171
183
188
208
187
191
196
195
198
191
192
174
188
181
182
184
189
190
191
183
188
194
195
197
193
195
190
198
202
203
195
203
201
194
196
190
194
202
205
206
211
208
205
207
203
203
207
203
198
198
199
199
193
192
192
194
195
182
193
174
173
179
212
226
220
199
185
179
164
190
186
187
187
181
188
204
214
217
204
201
201
201
207
212
212
213
205
199
195
195
177
164
173
201
197
210
185
191
190
189
190
195
192
183
186
178
181
183
187
188
196
190
192
194
195
192
194
196
192
197
202
201
200
201
200
194
201
196
200
199
201
205
209
207
206
210
205
204
208
206
207
203
195
198
196
187
192
194
194
181
196
169
169
188
203
216
212
201
181
174
169
184
192
186
185
179
190
203
213
221
203
202
199
203
208
214
201
198
187
186
192
189
164
159
179
206
211
206
192
185
185
195
190
196
190
188
184
177
176
185
181
183
193
189
194
197
198
199
194
197
199
200
202
205
203
203
203
200
206
200
204
204
203
205
203
206
204
204
208
204
211
205
206
194
196
200
192
190
193
196
188
188
195
169
167
195
205
207
210
208
189
174
176
180
193
192
183
179
194
206
210
222
196
193
194
197
203
192
191
193
192
177
194
181
168
157
173
216
228
205
196
190
178
192
199
187
188
197
191
186
180
184
180
186
185
193
190
198
201
206
207
204
206
206
208
210
211
212
211
212
210
206
200
199
205
202
205
204
203
203
200
207
209
211
206
207
199
195
205
196
193
198
192
193
194
164
174
192
204
206
208
218
192
177
178
185
178
199
185
182
201
205
210
219
172
175
176
174
182
185
192
201
190
178
186
178
167
160
174
217
235
215
189
191
188
189
190
193
188
199
192
187
190
189
186
189
183
188
190
196
200
203
207
208
206
211
211
210
206
211
212
209
207
204
198
200
199
196
196
200
201
201
203
208
205
214
209
205
196
202
205
196
196
193
202
197
186
174
167
189
203
216
207
215
203
183
174
184
172
186
190
180
202
210
212
217
175
177
173
175
180
191
205
211
201
180
188
168
158
179
184
217
232
221
190
196
191
193
192
195
191
195
192
196
197
184
187
185
183
189
186
192
192
202
202
206
203
209
208
201
200
204
203
201
196
191
190
193
190
192
194
201
208
205
207
206
206
219
212
196
200
202
202
196
193
189
197
199
190
192
166
184
205
212
210
221
204
190
175
183
173
173
189
184
201
206
213
216
178
172
176
168
189
206
216
201
192
173
185
173
154
186
185
221
230
219
198
205
195
195
197
195
200
197
195
196
196
186
187
188
188
188
187
196
194
195
191
196
194
204
206
201
193
198
198
190
193
185
191
190
194
197
198
209
212
203
204
207
214
212
199
197
197
197
202
195
190
192
203
200
196
207
176
176
207
213
211
216
200
189
178
180
172
175
181
192
204
202
211
216
172
174
181
182
206
210
209
196
182
175
175
160
174
183
180
229
222
217
198
211
204
193
206
201
199
208
197
189
189
190
179
189
189
188
192
193
193
189
189
188
190
197
204
190
191
191
193
190
188
191
193
199
202
198
206
207
198
198
201
206
207
203
194
196
196
201
205
195
191
204
205
202
188
201
197
180
200
216
216
220
192
188
183
174
167
169
169
198
198
205
209
212
175
189
183
197
211
213
204
195
183
181
171
158
190
204
176
232
226
217
197
214
206
201
217
211
201
209
208
189
185
189
186
184
190
189
195
193
190
187
185
185
187
184
195
188
188
191
190
195
192
195
199
204
205
203
202
203
199
205
206
201
204
203
192
203
200
199
199
196
203
213
204
196
185
196
200
183
205
216
215
222
200
180
191
174
167
171
167
188
194
208
209
209
188
190
184
209
212
205
203
185
180
183
164
168
206
204
184
225
239
211
199
208
211
206
223
221
208
209
205
194
190
188
187
186
191
188
194
190
184
189
185
187
179
183
183
189
194
190
191
196
193
195
204
206
204
204
197
198
204
201
204
197
198
201
206
204
200
201
199
201
212
210
204
197
189
200
201
186
202
225
220
221
195
182
188
177
165
162
169
184
178
201
212
211
194
197
195
215
217
203
206
187
179
174
159
205
216
196
186
218
246
214
192
197
208
210
227
224
217
212
203
198
190
198
188
185
191
183
187
185
179
193
187
187
180
180
177
186
185
185
184
192
196
194
207
205
200
205
197
196
200
192
201
192
201
203
211
203
199
200
205
204
207
203
198
198
197
208
204
195
194
241
229
210
180
190
194
177
163
159
171
181
172
185
197
198
206
204
206
219
218
204
208
180
167
168
193
210
197
203
183
218
236
218
187
190
198
212
227
221
221
219
210
208
192
192
196
189
187
185
186
181
178
187
184
185
185
183
177
178
181
183
184
189
195
197
196
195
194
204
192
192
189
192
189
201
203
205
208
203
198
194
202
196
190
197
204
196
204
199
204
201
196
244
238
212
176
181
197
186
171
168
182
180
174
181
191
188
200
202
204
214
207
200
193
167
175
174
211
186
196
207
179
225
228
220
187
185
196
209
224
219
219
224
214
217
203
197
194
201
194
190
187
183
180
191
174
182
187
183
183
175
176
183
190
189
193
192
189
191
193
188
188
188
186
192
192
204
203
198
204
202
193
198
188
190
187
195
212
196
211
185
207
202
208
241
247
200
183
176
198
184
174
176
188
176
174
184
191
185
207
200
210
211
204
211
198
161
178
187
213
177
199
201
182
229
226
222
199
180
195
209
217
215
212
228
217
219
219
210
202
206
201
199
189
189
181
184
182
187
187
181
189
181
183
184
181
177
181
182
180
187
183
177
189
191
188
199
200
203
202
194
193
190
191
184
182
189
188
202
209
200
211
182
206
199
214
243
255
205
180
184
198
186
172
181
184
182
178
184
187
188
201
196
207
206
207
216
207
183
188
197
209
178
209
186
181
228
230
218
213
193
194
208
207
209
213
223
216
226
217
219
213
214
205
205
203
198
192
189
191
189
189
183
191
184
180
180
176
172
173
171
170
173
172
185
191
199
197
199
199
198
191
186
181
180
177
178
177
188
198
212
205
201
214
179
202
201
223
248
249
222
187
198
199
184
179
184
180
189
186
195
188
191
194
197
202
201
216
217
216
193
185
203
218
189
201
173
185
222
238
222
206
209
199
205
207
208
206
211
210
218
213
214
219
217
209
210
205
205
197
199
196
185
190
177
186
181
177
175
176
170
171
170
168
169
173
180
190
192
194
184
190
187
183
187
176
179
177
179
169
194
206
215
205
195
218
183
201
213
230
247
250
231
202
206
207
190
188
186
181
184
192
203
198
186
201
209
216
224
229
219
201
193
176
193
220
186
183
166
195
217
245
238
201
210
215
206
207
206
200
203
206
214
211
206
210
209
208
210
208
207
200
201
199
196
189
183
186
174
179
170
173
169
165
167
170
167
181
180
187
190
190
187
184
185
180
181
174
175
174
177
175
202
218
207
205
195
209
180
203
226
240
240
245
227
229
213
205
207
207
193
191
196
192
202
208
198
