P2
# Face with average contibution
92 112
255
185
191
189
189
187
188
188
187
187
186
187
193
194
202
205
204
200
205
206
204
200
194
198
194
200
199
201
217
210
217
215
216
213
219
203
190
186
186
190
188
193
198
195
194
200
199
197
198
198
187
176
185
189
195
185
196
180
183
175
180
182
192
185
183
181
192
191
190
190
190
188
191
194
191
192
190
185
191
189
189
192
190
192
188
184
183
187
184
184
180
185
182
188
192
190
190
188
187
189
189
186
189
189
191
195
202
193
192
198
198
203
193
199
191
199
201
205
206
207
221
211
211
203
200
204
203
191
183
191
188
174
181
181
192
188
186
186
190
188
190
191
191
185
175
177
183
188
183
181
176
175
165
170
174
183
180
177
186
187
186
190
193
191
189
190
187
190
192
190
191
193
192
195
191
189
190
188
184
186
185
185
184
184
184
189
190
192
192
188
188
189
189
188
188
189
190
197
195
199
195
194
194
195
195
200
201
210
210
209
212
213
211
212
205
188
182
184
182
177
173
174
178
166
172
178
181
177
182
182
174
181
179
177
178
182
179
169
177
181
183
182
179
177
171
163
160
179
175
172
174
182
188
188
186
190
192
186
184
191
192
199
197
197
195
197
192
192
192
190
189
185
187
185
186
184
184
190
190
194
190
191
194
189
193
186
187
188
200
200
200
199
195
197
192
194
196
199
210
218
208
212
217
211
206
206
195
180
177
170
178
176
170
166
174
168
170
171
174
173
174
171
168
173
180
178
180
181
183
171
167
172
173
169
179
172
178
175
166
169
174
179
172
171
182
188
187
186
192
187
183
193
194
194
197
201
196
195
197
193
193
193
192
186
185
188
184
187
183
190
193
189
193
189
195
195
193
190
187
192
202
200
203
198
196
197
195
198
200
201
210
206
205
198
200
195
190
191
179
182
172
172
172
175
176
175
180
174
174
173
174
176
175
171
171
172
178
179
176
183
184
180
174
168
167
170
170
169
176
178
179
183
170
177
178
171
177
194
191
187
189
192
188
186
194
195
194
204
197
194
193
193
196
193
188
186
184
191
183
189
186
191
191
190
192
192
194
194
195
193
191
194
194
197
197
195
200
194
201
215
209
204
207
197
195
193
189
190
181
175
178
176
170
177
175
174
177
186
179
179
177
179
179
177
176
173
183
178
181
184
187
183
183
180
186
184
166
175
182
180
182
181
182
188
180
185
183
181
175
177
193
192
196
193
197
192
195
194
201
201
203
194
194
194
199
193
192
188
185
189
187
187
187
193
191
190
191
192
195
195
185
193
196
200
197
196
189
196
195
198
208
213
209
205
207
189
182
190
192
189
185
181
184
184
178
178
177
181
190
191
191
190
184
180
184
190
182
180
178
188
195
190
193
189
193
192
178
189
175
176
174
187
180
192
190
190
184
189
179
185
181
177
183
195
193
190
193
187
188
196
203
200
204
198
195
193
195
201
194
189
189
189
188
189
187
190
194
194
193
193
195
193
191
194
189
198
200
194
188
193
197
202
212
213
215
209
202
194
186
185
182
181
190
184
180
181
178
175
180
183
192
193
194
196
192
187
187
197
189
188
185
190
191
189
192
193
189
189
187
193
184
180
186
174
185
197
201
197
201
189
182
190
191
189
183
187
188
192
199
200
190
191
204
198
204
201
198
194
193
199
192
190
191
189
185
186
186
190
194
192
194
192
194
196
195
189
187
193
199
190
182
188
195
207
215
217
208
196
188
191
188
178
182
176
180
181
176
177
179
180
182
186
193
190
195
199
189
191
186
188
192
192
192
188
191
195
194
200
194
186
186
188
184
188
187
180
186
205
206
206
207
200
192
192
201
200
196
186
186
191
203
197
203
191
196
206
199
202
197
200
198
196
197
193
189
191
188
188
188
193
195
191
194
195
196
192
195
192
193
195
201
201
200
197
205
210
218
213
200
187
183
180
185
179
182
186
182
190
186
190
188
191
191
193
195
194
197
199
190
185
187
185
188
193
200
193
192
191
201
194
194
200
196
186
187
192
200
188
196
203
211
209
212
212
199
194
204
208
209
202
190
181
188
196
197
196
197
201
205
207
201
206
207
197
199
193
195
190
191
188
190
194
193
193
196
200
198
194
190
191
187
193
200
198
199
207
201
202
204
194
188
181
174
174
177
181
181
188
190
192
196
189
187
199
197
200
196
195
199
201
199
203
194
200
189
188
188
181
191
187
191
193
190
199
200
196
192
204
207
204
202
206
219
211
214
221
210
202
205
208
210
215
208
195
188
184
190
189
200
202
207
205
206
206
213
207
198
199
195
191
189
191
188
193
193
190
194
198
195
191
185
191
189
196
201
201
195
193
198
196
194
188
183
176
168
180
174
174
177
179
183
190
187
190
193
191
195
198
196
196
203
204
201
202
202
206
196
186
177
184
191
185
188
182
196
198
200
199
195
205
201
218
213
213
223
222
212
214
214
216
208
208
203
216
212
208
195
189
185
189
197
199
202
200
202
209
208
212
210
198
200
194
190
189
187
192
194
196
196
200
194
189
184
190
187
204
204
200
201
200
195
202
193
183
170
166
173
181
180
185
186
187
185
191
188
195
193
191
190
192
190
192
199
215
215
204
197
205
195
190
188
190
197
186
188
189
196
198
195
200
203
198
206
212
213
215
228
229
218
214
213
215
210
216
199
207
213
208
206
194
183
185
182
201
199
195
200
207
206
207
211
210
199
201
189
191
189
195
201
195
193
198
192
187
186
187
192
203
206
202
206
207
207
198
187
179
179
176
179
182
186
182
185
180
179
189
199
199
189
194
180
188
192
194
198
198
202
205
203
210
200
187
188
198
201
194
200
195
197
199
191
197
204
198
218
217
210
210
221
222
226
216
213
211
212
215
201
199
208
205
212
202
190
185
189
194
205
207
203
203
209
205
209
217
207
198
198
190
197
194
206
194
189
190
191
188
187
189
187
193
192
202
205
217
204
203
182
180
185
183
176
178
180
179
176
165
171
190
192
188
192
189
190
197
199
195
192
191
195
202
198
197
200
201
199
197
204
205
194
207
201
193
193
198
197
203
214
205
204
204
215
207
216
220
215
212
213
212
212
202
206
203
206
212
196
191
190
188
199
197
206
206
202
211
210
212
215
199
203
198
193
195
199
196
185
189
187
192
193
191
192
192
202
203
204
209
202
201
186
185
182
186
172
173
177
166
167
167
181
190
190
182
186
194
191
197
192
191
187
184
189
193
201
196
198
199
200
208
208
205
199
210
195
193
192
195
197
201
209
204
198
202
210
209
213
213
215
216
220
216
220
211
205
208
202
199
206
192
196
186
189
194
199
202
195
209
212
212
218
205
200
205
196
199
194
190
185
188
192
195
201
189
193
193
195
196
183
189
184
181
179
183
186
183
180
179
172
167
181
189
189
194
186
183
190
193
196
197
190
191
192
186
195
199
195
201
201
203
193
200
204
207
205
199
191
195
198
194
200
203
206
201
196
193
207
205
202
210
211
222
220
221
220
222
209
203
202
201
202
193
186
188
186
189
194
194
193
199
210
210
219
209
202
202
197
196
195
192
189
187
196
199
192
191
193
199
187
183
179
178
176
178
177
185
189
177
181
186
188
185
194
198
197
195
188
187
193
196
197
202
192
190
194
190
190
197
203
194
196
198
196
211
205
203
198
195
195
197
203
199
206
208
205
202
194
199
201
212
207
211
213
214
225
218
224
214
203
207
205
207
193
195
188
185
187
183
191
189
193
191
198
210
214
214
209
199
195
194
192
193
192
186
188
197
198
192
197
193
185
182
180
170
176
176
179
182
182
191
194
192
197
196
198
197
192
194
194
197
199
197
196
190
187
188
190
189
194
203
202
194
188
186
189
203
197
196
198
196
193
207
202
193
202
204
201
199
199
195
195
205
206
209
212
214
210
218
224
227
207
206
202
202
196
194
198
191
190
177
186
189
187
192
192
201
214
213
214
203
198
194
195
191
190
187
188
194
200
200
197
187
183
183
183
177
172
176
182
185
188
195
201
207
202
197
195
196
190
192
191
199
197
194
188
191
194
188
190
194
201
204
208
205
196
183
184
191
191
205
192
195
199
204
195
201
198
196
196
199
196
199
199
198
200
204
206
210
204
209
226
221
218
197
206
194
194
193
183
192
189
179
180
188
191
190
189
191
209
207
212
207
201
195
193
192
191
193
192
192
191
201
200
188
192
186
180
174
180
182
184
186
199
198
206
209
197
195
192
194
195
200
195
194
193
197
195
191
189
186
192
202
200
208
213
211
202
198
192
196
200
194
196
191
214
201
204
204
202
195
199
206
199
194
198
194
200
200
202
208
209
208
222
229
220
208
194
202
187
190
178
175
191
183
180
187
196
193
192
187
199
209
207
208
211
194
193
192
197
198
196
199
195
199
199
194
190
189
175
183
180
185
187
193
204
207
207
205
198
199
195
196
198
194
189
191
193
199
203
198
192
199
204
208
210
213
215
216
208
207
201
206
202
196
198
205
209
200
206
211
206
197
207
209
208
207
206
206
204
196
204
201
209
213
216
230
223
212
192
201
183
186
182
172
185
188
178
182
203
186
191
193
195
201
204
208
209
188
196
193
195
199
197
202
204
201
194
189
180
174
172
176
180
184
193
198
204
203
203
198
197
197
194
190
193
191
192
198
202
205
202
202
194
202
203
209
213
213
216
217
214
214
206
207
215
203
210
211
210
212
207
214
209
203
213
212
211
214
214
215
207
200
202
203
204
202
214
222
229
219
206
193
189
177
180
178
175
186
180
189
194
190
190
193
189
202
204
211
201
188
190
196
203
200
200
201
206
200
196
190
181
171
174
179
183
189
194
204
203
203
198
195
199
200
199
197
195
196
190
194
201
201
199
201
198
200
197
206
204
211
211
218
219
215
213
210
216
218
215
214
217
214
212
209
211
210
210
212
209
216
219
221
216
206
204
205
204
195
213
218
221
220
216
191
187
176
179
172
168
183
175
192
187
191
186
195
190
192
206
207
199
188
192
199
205
199
204
199
209
205
195
185
183
177
178
180
192
195
200
205
205
210
205
201
197
194
196
197
195
195
195
195
191
192
194
198
198
195
193
193
198
203
210
212
212
210
209
209
213
212
212
209
213
215
215
212
213
215
213
215
208
212
218
223
219
219
208
208
200
196
200
214
220
212
222
203
183
182
176
175
165
176
180
178
189
195
185
186
192
188
203
213
201
189
196
203
196
198
200
199
214
199
199
189
181
183
189
193
200
208
207
204
205
210
202
194
194
197
196
195
192
193
193
190
189
186
189
185
186
186
186
189
192
195
200
201
203
201
205
202
199
207
205
206
207
210
216
214
217
218
215
215
216
213
217
219
218
215
215
211
201
195
196
204
213
224
213
213
189
190
185
173
162
164
179
166
175
192
180
181
192
189
194
203
199
205
198
192
199
190
199
209
209
201
197
186
182
187
193
195
201
212
205
206
203
208
194
194
191
192
198
191
189
184
179
178
181
181
188
189
188
187
191
194
189
195
193
199
196
198
196
195
197
202
200
202
202
207
211
215
214
220
217
212
215
214
219
213
212
216
206
211
202
193
193
199
206
218
216
209
206
188
192
177
169
159
182
169
167
189
196
183
192
189
187
205
197
207
197
195
200
192
200
200
199
199
192
183
186
191
198
200
210
212
208
201
199
200
194
194
187
187
186
180
178
177
180
179
182
179
185
182
184
186
190
193
191
194
197
192
193
193
191
193
197
198
197
199
198
202
204
209
212
213
213
210
210
211
214
210
208
207
203
204
200
191
190
200
196
211
219
204
206
193
189
190
174
159
167
184
169
173
201
188
197
184
191
205
197
208
197
197
203
191
200
192
197
195
187
182
190
196
201
203
211
206
204
199
193
201
196
190
183
181
176
169
176
176
172
173
172
174
175
175
176
183
185
191
191
193
194
192
194
193
192
190
196
195
195
198
195
196
202
202
206
209
206
206
202
208
206
204
204
200
197
199
192
191
189
195
199
199
215
210
197
195
187
192
176
166
162
180
183
167
187
189
194
179
183
204
193
201
196
188
201
187
204
194
191
191
187
187
193
195
198
202
211
205
201
194
189
190
193
177
176
172
171
171
171
166
160
162
169
167
172
173
173
182
184
187
190
193
192
191
195
194
189
187
188
188
192
193
194
194
201
200
203
202
201
201
200
202
197
198
199
197
198
192
185
185
185
183
197
193
206
213
201
199
192
190
177
172
159
174
184
176
173
185
188
182
179
192
200
194
192
183
196
184
192
185
187
193
189
195
200
202
205
196
206
205
189
186
185
182
177
168
169
173
167
163
160
156
158
162
167
173
171
173
175
184
182
184
188
189
188
189
198
191
187
183
183
184
183
186
192
198
199
197
195
198
195
195
197
196
193
195
193
198
193
191
182
180
185
178
178
189
201
209
205
201
195
193
186
172
171
166
177
172
168
172
187
186
183
181
198
194
194
181
191
184
182
189
184
192
195
193
195
194
196
192
198
199
187
187
181
174
168
162
168
165
156
153
152
154
157
163
163
168
171
171
174
179
181
184
185
186
185
185
195
188
182
181
177
178
173
175
187
192
196
194
196
194
193
192
190
190
191
189
191
194
189
190
183
177
179
176
169
174
196
207
208
201
194
194
185
177
177
170
174
169
166
168
170
191
190
179
193
195
187
187
193
179
174
191
186
191
192
192
191
192
188
189
189
192
183
180
178
164
160
162
158
154
152
149
147
152
156
154
160
165
165
166
172
174
179
178
182
180
184
185
188
186
182
175
167
169
167
171
176
186
189
195
196
193
189
193
185
182
185
186
185
188
184
190
184
176
176
176
163
163
176
199
203
205
194
200
188
179
182
174
171
172
178
170
174
175
195
181
192
201
191
191
182
171
177
186
189
193
192
190
192
191
191
184
183
177
178
175
173
157
155
154
156
152
151
146
143
146
145
148
153
159
163
162
167
168
174
174
173
178
179
183
185
177
177
173
168
172
171
172
175
182
185
190
190
189
185
187
189
186
182
187
185
185
187
187
184
178
175
173
169
157
162
185
199
199
196
191
188
183
184
170
172
175
173
176
178
169
196
185
192
202
194
175
176
166
173
184
190
196
184
183
194
187
186
175
172
177
174
175
169
157
156
156
156
152
150
147
145
150
149
153
153
159
164
162
171
171
175
177
170
175
180
181
183
179
175
176
173
180
179
177
175
184
188
190
187
190
190
188
189
189
190
186
184
186
188
189
187
184
179
174
175
166
149
177
189
190
194
190
187
177
180
165
172
166
170
170
179
174
192
184
187
203
193
168
174
170
170
177
177
189
185
183
190
185
175
167
169
176
176
174
165
157
158
157
152
148
149
144
137
150
152
155
155
159
161
161
171
172
170
177
172
171
174
173
177
177
169
174
167
176
180
180
181
193
191
193
196
198
198
198
195
196
205
200
200
196
194
200
193
182
181
181
175
171
154
160
183
190
192
192
186
181
166
168
167
163
163
163
179
171
179
187
195
197
188
172
171
166
170
170
178
188
186
189
186
179
168
168
172
177
178
172
164
164
164
158
154
149
153
150
148
151
157
158
161
161
165
170
173
180
181
179
177
176
175
169
175
181
172
177
174
185
186
190
193
204
204
201
201
204
202
201
200
202
205
209
212
206
196
198
199
188
182
180
179
175
165
160
175
197
191
188
184
183
161
167
174
165
165
154
176
175
170
195
199
201
195
174
171
172
172
160
188
190
180
183
183
173
170
173
174
183
174
176
170
170
168
163
153
158
168
168
173
171
175
174
170
170
171
181
182
187
194
186
184
184
185
179
183
185
178
184
187
194
199
197
194
205
204
191
189
204
207
207
212
211
209
206
207
200
196
194
193
190
182
177
170
173
162
156
162
190
191
194
177
180
166
163
176
167
162
157
168
180
170
196
195
204
196
173
174
172
167
166
189
187
174
181
182
178
176
173
175
177
171
179
166
169
164
155
150
155
160
161
166
171
175
186
179
178
180
190
191
194
194
188
188
188
191
187
194
191
191
193
200
203
205
207
202
209
206
203
212
215
217
205
208
206
211
198
201
198
200
202
200
202
198
191
181
175
164
153
160
172
181
194
183
177
171
165
170
167
167
164
165
172
170
192
203
210
193
186
170
174
158
179
184
188
174
182
194
188
186
170
178
181
177
181
168
166
166
155
151
153
163
160
161
164
162
155
150
153
152
151
165
183
189
191
194
200
205
199
211
212
210
216
215
213
209
209
210
209
209
194
198
194
191
196
196
197
198
194
192
189
194
194
190
192
192
190
186
185
173
155
156
159
159
179
179
178
169
173
173
165
173
164
165
172
164
187
212
218
210
184
177
179
155
180
184
194
172
183
204
189
181
169
182
187
186
182
172
167
160
159
153
151
157
148
145
141
159
153
161
178
175
170
183
194
212
210
208
209
209
209
202
200
195
197
196
202
198
194
209
201
185
181
191
196
188
187
186
182
184
188
188
176
187
192
194
196
193
194
194
178
176
173
158
162
154
172
164
173
173
165
165
169
178
166
171
173
166
182
223
225
212
194
193
188
162
170
177
188
171
185
199
182
171
171
183
196
196
185
177
166
161
161
168
168
172
171
169
172
175
170
174
187
181
175
180
182
190
202
203
194
186
202
188
186
184
186
184
193
183
185
186
191
180
179
182
185
168
164
171
170
185
190
185
181
191
184
191
197
191
186
193
178
174
164
172
163
140
158
175
155
183
166
146
166
175
172
172
170
172
190
220
232
196
198
204
196
166
160
174
180
173
186
190
165
166
162
193
202
190
185
174
173
170
167
168
165
162
167
163
165
170
166
174
178
178
174
173
183
191
183
191
191
184
175
168
176
182
179
183
194
190
190
189
189
194
193
189
181
180
181
182
174
187
188
178
184
182
177
184
196
204
192
197
185
186
174
173
171
138
140
172
151
172
178
132
161
166
169
173
167
173
193
208
228
202
192
203
199
164
163
176
182
167
183
188
148
149
176
205
204
198
191
175
174
174
168
173
160
151
156
149
153
161
165
172
172
179
177
177
182
196
193
191
197
198
180
182
197
197
196
205
205
197
199
186
188
210
211
188
189
202
195
191
199
189
174
173
175
168
171
168
180
196
192
197
199
196
185
168
196
155
140
167
159
172
185
141
147
162
162
176
165
178
193
209
222
214
193
198
195
166
163
175
181
168
178
175
148
154
200
205
211
198
184
174
177
175
178
172
164
161
164
141
145
162
160
171
176
188
186
181
193
203
211
186
183
215
180
184
211
210
211
218
208
194
202
196
203
210
198
183
194
194
175
180
196
186
180
192
181
175
161
163
163
180
188
195
208
193
180
154
186
185
155
162
160
174
176
150
151
158
164
172
174
178
200
207
231
215
208
190
191
182
164
172
180
192
177
165
149
181
195
198
203
187
185
178
180
179
176
161
147
168
167
133
141
162
169
173
180
191
195
184
200
202
205
192
170
175
148
154
193
217
212
189
171
197
192
204
198
194
189
176
198
160
159
168
192
177
188
191
183
182
162
163
167
168
183
174
190
183
164
145
167
179
172
154
168
165
169
169
170
164
162
178
189
194
212
206
238
216
216
200
183
191
177
173
179
189
184
170
166
191
183
207
204
195
187
176
181
178
169
154
136
143
174
127
141
149
181
180
190
191
188
189
196
186
181
198
177
168
157
194
209
219
211
205
183
198
189
207
195
187
184
169
194
156
164
187
220
187
194
194
185
179
166
174
176
175
173
182
182
183
171
151
156
190
185
153
174
177
167
171
179
155
156
183
191
209
217
215
229
215
214
206
185
186
185
178
189
185
190
172
194
207
194
218
206
196
186
176
190
174
162
157
145
152
170
135
132
147
177
173
178
187
177
186
177
173
179
178
184
178
174
202
182
206
202
206
210
202
200
199
199
197
179
169
203
172
167
207
239
207
232
222
201
194
180
174
176
172
170
180
162
179
181
166
158
199
211
131
158
196
185
178
171
159
161
186
204
212
225
211
217
203
201
209
194
185
189
197
184
191
192
178
202
209
219
229
189
187
190
188
203
183
158
161
165
150
162
160
148
169
205
190
176
171
168
186
170
171
180
176
183
192
193
192
178
195
194
203
204
197
209
188
190
199
194
203
214
190
191
209
227
237
249
228
207
208
195
184
180
181
189
192
169
171
188
168
159
199
221
141
158
182
177
183
169
166
172
199
211
215
219
211
204
204
195
207
199
181
189
192
176
188
204
186
194
197
213
212
166
188
183
199
203
183
175
167
170
165
174
189
173
185
200
193
179
173
166
183
177
164
180
177
190
201
205
191
186
189
178
179
199
185
191
194
178
188
193
200
193
189
195
208
222
226
237
220
207
202
202
192
187
173
180
181
156
152
183
160
155
179
203
164
177
161
169
173
170
169
182
202
213
219
223
209
195
195
175
190
192
180
192
189
165
192
196
190
194
183
199
206
167
213
183
182
203
185
186
178
182
198
215
201
208
209
191
182
181
176
179
183
184
191
192
191
213
213
204
190
195
188
185
187
200
194
183
196
187
183
209
202
201
193
208
212
222
224
230
218
209
197
200
190
183
178
173
177
146
149
177
160
157
156
176
186
193
164
170
172
172
173
176
193
203
202
217
223
191
172
165
174
180
168
190
180
151
201
195
228
213
166
189
211
180
234
179
151
169
183
182
190
199
213
216
205
208
194
191
192
189
185
189
191
200
200
199
210
216
221
209
194
206
197
201
201
202
220
209
206
202
186
222
220
222
206
216
232
230
215
212
206
191
187
186
179
164
162
163
174
162
178
182
171
169
164
167
177
192
164
175
190
184
177
179
194
210
197
213
224
190
169
175
189
185
171
187
173
146
201
188
235
212
164
189
233
195
236
175
154
165
190
182
193
198
200
193
193
192
192
192
202
195
198
196
196
209
213
202
226
222
222
204
208
210
214
214
214
210
221
232
209
216
191
219
234
224
218
223
227
229
216
194
187
179
156
168
144
146
151
169
172
176
194
206
181
164
184
180
186
197
173
184
200
190
192
194
202
220
197
201
214
192
177
197
194
193
175
187
182
148
190
202
224
208
170
192
234
204
226
174
149
158
184
195
198
198
198
185
189
193
203
190
198
203
188
196
183
191
205
200
245
228
217
213
227
225
227
212
208
210
206
233
223
221
206
212
225
209
205
204
204
213
206
205
195
191
170
161
144
142
151
176
180
181
189
203
180
167
196
188
185
209
186
192
203
198
199
201
211
227
196
189
199
205
181
202
189
190
179
180
191
162
181
223
223
214
173
214
228
220
221
189
160
172
186
185
188
192
196
189
194
194
204
194
180
196
190
189
175
182
182
192
246
229
220
217
220
220
219
205
197
196
197
210
226
206
207
193
200
201
198
202
190
196
187
188
187
179
174
169
161
153
156
170
173
175
181
192
170
164
203
182
187
206
190
199
198
195
189
203
205
227
193
189
183
210
179
193
174
188
179
180
192
178
180
236
220
224
181
217
230
221
228
199
184
192
195
190
191
197
197
190
192
183
190
181
177
178
174
168
158
165
152
193
219
214
197
206
188
199
201
199
189
190
189
196
219
205
193
198
187
178
184
185
182
184
184
171
167
165
164
168
168
164
148
155
167
160
161
188
177
162
193
174
188
202
181
190
200
201
181
195
209
218
181
190
179
208
177
184
172
170
170
184
181
172
193
235
229
217
197
216
233
221
230
207
204
201
192
184
185
187
184
183
184
177
174
167
169
160
153
147
149
145
143
185
198
181
177
178
168
179
183
183
187
190
190
193
199
213
203
192
204
181
174
185
185
185
183
176
177
170
173
163
187
172
165
161
174
178
171
184
177
164
195
184
179
197
178
188
201
202
201
181
210
207
181
182
183
206
192
174
172
168
166
182
166
173
194
239
228
205
206
211
218
225
224
209
205
192
180
176
175
182
184
185
185
176
169
158
161
158
151
155
142
135
165
171
194
173
173
158
163
169
164
171
182
189
186
197
197
197
207
189
192
212
182
174
172
180
180
183
192
183
186
162
167
175
159
165
190
192
189
199
183
177
196
191
181
198
184
193
206
205
198
170
200
205
180
174
195
206
191
173
166
181
182
185
171
190
193
239
232
195
211
205
220
242
221
197
188
182
170
170
172
172
168
175
176
171
164
153
153
162
149
147
153
150
167
183
181
171
160
152
151
160
157
172
189
196
196
201
198
200
200
212
190
205
206
179
162
170
175
180
189
187
182
170
160
167
155
166
185
193
188
200
179
188
198
193
199
202
190
188
211
208
188
162
192
196
176
182
201
210
188
178
164
191
193
201
186
187
194
220
232
196
212
187
234
222
231
194
183
170
164
159
160
160
156
158
158
152
154
150
140
144
144
146
144
160
164
180
169
162
151
154
151
151
156
170
179
199
208
204
193
191
199
199
205
190
192
189
166
163
169
187
178
192
177
173
173
168
170
180
189
193
194
196
163
202
183
192
200
201
198
195
214
213
186
171
199
195
178
181
203
212
189
174
167
196
195
199
195
172
193
212
241
193
198
186
244
202
226
213
180
174
168
168
168
169
169
167
168
161
152
151
142
139
138
140
184
163
154
170
160
159
168
164
157
154
164
165
173
195
205
202
197
190
193
193
197
204
191
181
182
170
172
176
177
177
182
186
185
185
183
180
182
185
192
184
174
189
180
198
186
199
211
206
217
215
184
172
203
203
179
185
202
205
187
174
166
192
192
186
184
168
186
214
242
191
181
207
215
208
213
207
199
197
189
181
178
179
175
167
165
153
155
154
152
141
138
152
158
158
163
165
164
167
165
173
172
166
175
178
173
190
198
207
205
199
195
194
189
197
217
196
179
174
190
185
179
185
185
185
189
186
178
175
177
182
197
192
184
179
187
190
182
194
211
210
212
209
194
164
200
206
186
186
201
212
178
169
161
170
189
184
164
165
178
210
242
194
169
224
192
221
210
205
192
190
185
178
176
176
176
170
159
158
161
160
155
140
157
161
159
177
161
164
166
169
177
183
180
179
177
180
181
188
203
215
220
214
197
204
202
188
216
222
202
188
195
195
184
174
183
182
186
183
180
188
194
197
193
185
183
191
187
182
186
184
204
204
216
207
209
157
195
208
190
193
204
209
175
155
147
157
184
182
160
161
180
213
239
209
189
193
220
186
222
201
192
191
192
184
177
179
182
179
163
160
166
169
167
177
179
178
188
179
165
164
170
179
198
207
206
186
180
180
186
190
221
237
239
234
216
215
215
195
209
222
195
192
206
210
209
206
198
197
194
190
187
189
187
187
183
185
198
195
187
181
199
180
203
200
210
212
208
158
198
210
199
198
206
213
179
147
128
155
174
174
169
153
185
215
227
234
206
198
207
207
196
196
194
196
198
189
185
184
185
183
173
174
179
182
182
188
197
184
186
188
166
174
185
199
220
211
208
184
169
184
186
198
220
228
247
243
241
220
211
201
198
209
197
186
192
197
199
206
207
205
197
189
183
181
177
185
185
188
199
199
186
191
208
194
207
193
203
197
210
174
194
213
186
207
212
219
182
151
133
134
168
168
171
158
171
207
225
229
220
206
202
202
203
189
198
214
214
208
204
203
203
200
192
191
190
190
189
188
182
174
172
176
165
173
189
207
211
201
185
175
173
185
188
199
216
216
236
243
233
228
205
184
193
197
193
195
181
197
195
197
193
194
195
187
182
176
175
177
181
195
204
198
194
196
217
210
209
192
208
197
199
192
182
199
177
211
201
214
191
145
138
135
163
163
157
152
164
200
228
230
226
204
200
200
195
194
199
205
204
205
204
202
205
201
199
200
194
184
179
172
168
167
164
167
169
165
187
200
187
178
166
173
186
197
200
199
207
207
213
211
216
220
210
187
184
187
193
187
170
190
192
195
195
194
192
184
181
177
181
184
189
195
200
200
199
197
209
214
201
197
206
202
207
198
172
193
180
214
208
208
209
139
135
133
152
169
157
154
161
203
225
232
234
209
203
198
193
199
199
202
197
196
195
193
192
196
188
180
167
155
154
156
157
156
163
162
170
170
185
182
167
165
168
174
190
200
204
200
204
198
196
196
203
220
225
205
202
186
183
180
166
176
184
187
195
193
191
183
179
177
185
185
190
192
186
211
209
207
214
216
204
199
207
202
214
199
170
179
189
209
219
202
219
146
145
138
130
174
165
159
169
198
226
229
233
217
204
210
200
204
204
201
203
198
199
195
187
178
170
168
160
153
153
157
155
153
164
167
168
170
176
169
170
178
190
176
189
212
200
198
194
197
192
191
203
207
222
209
203
190
183
186
171
168
175
183
190
196
192
192
188
182
184
185
191
195
193
211
220
212
227
216
206
212
208
203
205
201
170
176
195
208
219
193
221
153
156
154
132
162
169
164
185
201
219
232
228
222
204
213
203
203
206
204
205
202
197
182
171
169
166
167
165
155
160
162
160
155
176
179
178
172
172
163
167
185
187
176
181
209
200
197
191
199
195
183
195
195
203
198
192
192
182
195
181
178
178
183
186
192
187
186
186
181
185
187
193
196
204
213
221
214
231
211
214
221
225
211
199
201
169
167
209
214
208
190
214
161
146
176
159
162
171
162
194
192
211
230
216
222
209
211
207
207
206
203
205
206
181
172
170
173
171
163
160
162
168
167
166
168
188
197
189
180
178
167
179
179
182
186
192
202
194
186
194
196
199
185
186
187
192
192
193
197
188
194
192
190
187
189
195
201
196
195
200
192
193
197
201
203
210
218
220
217
225
198
214
226
232
222
200
197
168
170
227
213
205
196
202
181
145
172
185
174
175
167
190
180
206
225
195
218
213
213
212
207
205
200
208
196
176
177
178
174
166
165
170
167
170
173
163
171
179
187
191
174
175
170
176
172
170
178
178
181
184
177
186
197
193
193
199
193
191
193
199
202
196
200
206
203
207
204
203
204
201
206
206
204
200
203
210
208
218
218
218
222
219
203
204
232
231
222
207
185
161
187
237
209
207
201
198
196
160
163
178
195
188
179
188
179
202
211
191
206
219
212
215
206
202
202
210
185
182
181
183
171
170
176
175
169
176
172
161
170
170
172
176
174
174
165
168
169
170
167
173
169
176
177
182
191
194
204
209
198
193
198
203
204
201
203
208
209
208
203
202
202
207
211
212
214
209
213
213
214
216
215
224
223
222
204
211
238
228
219
199
172
157
207
234
211
215
202
194
206
178
171
173
197
181
183
186
180
206
181
190
195
222
214
209
209
204
203
202
189
187
184
182
178
182
184
175
179
187
171
171
174
165
174
174
183
177
177
175
169
171
168
165
169
170
173
176
183
186
202
201
194
188
199
201
202
195
202
209
205
203
191
196
197
209
214
218
219
210
215
210
213
218
216
227
222
224
204
221
234
218
206
196
162
164
218
222
216
222
194
191
199
196
176
173
193
165
174
174
197
219
171
192
185
219
214
210
206
204
201
198
186
193
188
186
183
189
188
178
193
190
176
177
178
178
178
178
179
173
182
182
175
168
169
168
169
169
171
174
186
184
196
203
191
186
191
201
197
193
198
209
208
203
195
186
195
195
214
218
220
217
213
215
215
214
218
225
226
222
205
221
233
208
202
188
155
169
222
218
219
217
192
190
188
201
187
159
187
161
167
163
193
201
167
197
192
208
211
206
200
203
194
196
190
194
191
190
190
197
192
194
204
198
186
188
195
196
185
182
173
181
182
188
197
187
193
186
186
181
178
193
204
202
206
208
203
194
196
201
202
195
200
206
212
206
199
187
189
189
200
214
217
216
211
216
218
218
214
221
229
214
204
217
216
199
203
175
151
183
220
215
218
207
193
190
183
194
199
149
171
167
167
175
187
187
170
194
207
198
215
204
197
200
196
199
198
193
198
198
197
203
199
211
214
210
204
208
215
212
198
196
184
185
199
204
213
214
207
206
208
196
204
216
219
220
220
222
215
208
206
200
200
202
198
203
213
201
198
185
184
194
197
203
211
210
210
215
220
225
221
221
236
200
204
224
200
180
182
156
153
190
216
217
215
204
193
188
185
196
200
147
157
170
173
176
178
191
175
204
211
195
213
202
195
203
200
202
193
197
204
208
204
204
205
212
216
221
216
217
219
215
204
206
202
208
213
217
210
212
203
210
214
219
225
225
215
216
217
218
216
214
213
204
197
205
203
196
200
193
192
177
178
186
197
196
205
204
206
209
218
224
225
228
231
195
197
212
179
163
162
151
165
190
220
214
217
204
194
186
189
195
199
156
156
161
178
177
169
191
181
205
211
202
205
211
198
200
203
203
192
202
203
203
207
198
203
207
213
213
213
217
211
206
206
204
213
213
213
214
213
202
197
196
204
214
209
206
205
212
216
212
207
205
206
204
201
197
191
178
182
179
177
173
174
178
191
197
201
198
207
205
211
219
223
228
231
188
196
202
164
154
158
156
182
192
222
215
214
208
193
191
188
192
203
172
149
159
176
181
172
167
186
202
205
209
204
213
202
199
203
199
201
197
203
198
200
201
198
199
202
200
208
208
203
202
204
211
210
208
213
206
218
191
178
181
187
198
184
185
190
193
200
203
198
195
196
195
190
184
170
165
170
166
169
176
176
174
188
190
199
196
200
202
204
216
219
225
224
186
198
188
157
158
159
172
179
202
216
216
213
207
193
195
186
192
204
179
149
151
172
183
171
161
183
198
205
204
204
220
208
198
198
197
205
195
199
194
195
195
189
186
189
185
188
196
194
199
204
209
202
206
210
198
201
174
154
158
159
173
158
167
171
175
180
190
186
187
181
184
177
173
158
150
163
161
165
177
179
178
189
189
201
198
195
205
201
218
211
217
213
186
187
183
161
167
173
178
176
219
211
214
212
202
197
192
189
187
200
190
146
151
165
182
170
161
173
189
209
203
203
216
214
196
191
199
199
192
193
191
190
185
176
177
177
178
183
191
193
210
218
215
209
211
204
187
193
156
147
152
138
168
145
153
165
175
194
197
199
213
202
189
179
176
171
159
180
172
172
181
183
182
192
197
201
201
196
203
201
209
206
203
205
177
180
177
181
177
176
174
195
219
211
213
211
201
194
190
190
186
196
195
146
156
152
173
163
162
165
178
208
198
207
212
215
196
194
198
197
187
184
187
181
169
169
171
172
175
176
188
194
212
225
212
214
223
219
205
217
192
185
185
170
194
186
185
195
205
229
219
219
221
217
199
194
195
209
192
198
194
184
179
193
193
193
198
203
206
199
191
194
198
197
196
200
173
182
180
185
179
173
185
208
208
213
209
207
203
191
192
194
187
194
201
158
155
150
165
165
157
153
178
208
205
207
216
219
202
195
200
198
185
190
186
174
155
162
164
162
177
181
182
196
223
222
207
206
223
227
215
227
227
231
228
226
217
218
226
227
217
216
211
205
199
209
201
190
208
221
203
199
191
190
190
196
198
197
201
204
206
204
185
186
186
187
197
202
182
191
189
184
185
182
201
211
207
207
208
204
201
192
193
195
191
194
200
174
145
152
164
164
152
152
158
195
203
201
211
223
205
199
195
200
195
200
192
174
170
155
163
158
175
184
202
217
241
212
202
216
213
223
223
241
237
251
246
249
238
230
230
215
195
197
196
199
201
202
207
190
200
205
200
201
197
198
195
194
195
202
203
197
201
197
187
180
180
186
199
206
188
198
191
192
189
200
211
207
208
207
207
205
199
191
194
193
192
196
198
195
145
152
159
166
146
147
154
179
190
192
206
226
209
203
191
202
204
211
202
184
185
175
174
163
175
189
217
204
220
212
209
225
222
228
224
238
235
245
244
247
229
220
217
208
205
211
209
210
202
206
209
184
196
193
194
195
196
196
186
192
187
194
193
192
195
190
183
176
174
184
199
209
205
207
197
198
206
206
212
209
207
202
206
207
199
191
191
193
193
196
195
202
164
155
156
164
148
148
147
172
192
189
198
231
214
201
195
198
205
210
212
189
191
189
193
181
176
190
211
196
207
218
211
217
217
216
212
219
223
223
222
227
220
214
225
219
216
220
219
203
200
205
197
189
187
181
182
184
186
189
191
191
189
187
186
184
179
180
174
171
170
187
196
215
217
212
200
199
206
204
208
213
210
201
204
208
204
188
196
193
194
197
197
198
196
161
154
159
154
151
144
166
194
186
196
213
210
206
201
198
211
205
213
201
196
202
209
199
204
208
205
200
211
227
206
220
210
202
192
200
213
208
209
214
209
204
213
213
216
213
208
197
198
198
189
185
179
179
185
185
198
195
200
199
195
189
181
183
179
179
171
169
175
188
198
212
218
210
204
200
205
207
208
208
212
203
198
208
200
186
190
191
192
189
196
197
199
196
158
165
162
156
157
161
194
187
191
199
211
202
203
197
207
206
212
206
209
206
208
212
219
219
209
204
214
224
209
210
213
198
186
197
200
198
202
195
190
208
207
211
217
215
213
212
210
202
195
188
184
189
200
192
200
205
202
194
189
183
188
190
177
181
171
172
184
193
202
213
211
199
203
199
203
204
209
205
214
203
195
205
203
180
188
188
187
188
194
201
200
201
188
181
170
164
165
182
194
191
185
180
200
189
205
194
198
208
210
207
212
221
214
223
221
216
218
209
208
213
210
217
216
215
208
204
197
201
208
199
205
212
219
224
232
232
228
221
217
217
209
207
205
208
196
189
195
194
192
187
183
185
185
187
177
177
170
177
185
196
202
214
205
195
198
206
203
200
204
208
206
201
193
199
198
181
191
183
187
192
189
204
203
204
197
193
198
191
192
190
199
179
173
163
180
187
200
198
199
201
216
204
202
213
212
219
214
207
207
210
209
199
200
198
201
203
206
204
206
212
215
212
226
229
234
236
228
235
223
225
216
212
207
206
199
198
183
188
189
192
192
188
183
189
186
188
179
174
177
173
194
194
201
213
201
195
197
200
201
201
205
205
206
202
188
200
198
180
185
187
189
194
194
200
206
207
205
190
207
210
203
192
201
177
164
168
181
198
200
194
206
201
210
201
203
200
198
214
208
203
208
208
213
197
192
191
189
189
196
193
196
206
208
212
219
218
220
220
215
212
204
193
195
191
191
191
191
186
187
187
196
196
190
189
189
190
192
191
181
175
183
176
192
193
209
210
193
194
198
199
204
201
201
205
208
203
186
195
201
177
180
190
194
194
199
203
212
215
212
196
203
210
203
214
197
176
173
180
186
196
196
199
206
206
203
198
203
210
201
210
213
196
215
212
209
212
201
194
192
190
201
197
201
206
209
208
213
201
201
203
203
196
183
179
181
180
188
188
186
190
191
196
197
193
195
192
193
194
190
191
181
182
188
191
189
192
215
201
193
190
197
202
200
205
202
199
209
199
185
193
199
173
186
195
197
205
211
208
217
224
210
202
206
203
208
223
203
179
189
184
187
186
201
203
202
209
202
199
202
212
204
209
203
196
205
210
211
210
206
202
202
200
209
203
214
218
214
215
217
212
212
216
211
201
200
193
194
190
199
199
197
192
196
195
194
190
196
194
188
194
188
185
182
194
191
193
189
198
210
200
189
188
192
200
203
201
203
199
205
198
185
186
194
183
192
199
205
207
213
214
215
226
208
208
202
197
207
215
210
189
202
186
189
183
196
205
202
205
207
204
194
210
202
209
196
194
193
202
207
207
206
199
208
204
205
209
207
210
214
210
214
213
207
215
215
204
201
203
201
198
201
203
198
188
195
195
190
190
190
191
186
190
185
190
186
201
188
178
182
196
203
197
186
186
185
196
206
202
200
202
206
196
186
185
188
186
192
201
207
209
213
212
214
225
208
200
199
208
206
201
208
200
217
185
194
181
190
205
202
205
203
213
199
205
198
206
195
197
186
194
204
207
213
209
210
206
208
210
206
200
205
206
201
197
199
201
203
194
193
199
198
195
195
194
188
190
193
190
184
192
184
188
190
182
188
189
191
207
174
169
166
194
199
193
184
180
193
191
210
205
196
202
204
197
185
182
181
184
194
203
207
210
212
209
216
214
205
198
207
214
206
192
206
214
218
194
194
184
194
196
205
208
197
209
205
203
200
203
200
202
189
192
197
199
209
204
203
198
201
199
196
193
192
189
183
186
189
190
181
183
182
186
182
188
195
187
187
188
191
187
178
184
181
188
196
190
194
196
195
197
165
163
165
179
191
188
182
185
189
192
208
205
202
198
206
197
184
180
178
188
195
207
207
212
215
212
207
194
196
201
209
212
199
192
207
213
214
207
194
206
196
192
203
206
201
203
199
203
208
203
201
201
187
191
189
186
201
198
192
192
186
185
184
179
182
180
178
173
178
180
175
176
174
178
176
182
188
183
183
181
181
181
179
184
186
189
197
189
194
200
193
178
167
150
161
180
180
189
189
192
189
200
202
208
200
204
206
192
186
182
177
189
196
205
206
210
217
211
197
179
185
206
212
212
192
199
198
217
204
211
227
214
197
183
199
202
208
202
197
201
205
200
194
199
184
186
187
179
185
199
184
185
183
179
171
174
177
176
176
167
174
169
166
175
169
170
174
177
184
183
180
175
183
182
183
187
191
194
205
190
197
197
189
168
167
144
149
177
182
189
196
196
189
200
207
206
205
208
213
189
183
184
178
190
195
205
209
209
219
194
189
179
193
201
214
208
195
194
198
216
209
215
245
219
197
187
196
198
203
201
202
200
198
194
189
197
188
189
184
179
181
187
182
177
176
176
174
172
177
174
171
165
175
167
173
177
171
174
176
175
186
185
183
182
194
189
193
185
195
202
210
194
197
190
189
175
162
158
141
175
180
188
198
201
196
191
207
202
206
212
217
192
191
190
181
192
194
205
206
217
209
185
174
187
181
212
222
193
188
191
198
220
218
230
227
222
194
187
195
204
199
196
203
199
201
193
191
187
186
184
183
178
179
175
179
173
172
179
171
166
169
167
167
168
170
173
177
176
176
184
181
181
192
189
182
189
200
196
193
192
197
206
210
188
186
194
189
171
149
159
160
173
178
185
198
202
200
197
204
200
204
213
210
193
189
193
178
194
196
204
211
213
191
177
182
188
177
220
230
188
184
194
201
225
226
234
220
223
185
193
194
205
197
196
201
200
200
200
189
183
181
179
178
185
170
165
175
170
174
174
168
165
170
171
170
172
176
177
172
184
179
189
184
191
191
194
195
193
201
202
198
201
196
205
206
184
178
184
187
158
137
143
179
189
172
179
192
203
199
201
206
200
203
216
204
190
190
192
179
194
197
200
205
204
180
176
182
175
180
230
221
189
181
190
213
225
230
232
216
226
182
183
195
204
190
205
197
197
201
196
195
181
179
176
178
186
165
167
168
176
175
178
166
166
170
176
173
178
190
182
182
189
190
190
188
199
196
197
199
202
197
205
202
201
201
202
193
187
177
184
182
159
134
143
174
198
172
183
185
199
199
201
206
194
201
213
199
194
193
191
189
191
194
199
201
194
171
176
182
169
182
231
209
183
192
191
216
223
238
225
218
235
185
174
173
197
190
206
198
200
194
201
205
190
180
176
175
179
164
167
172
178
167
177
172
171
179
184
182
191
195
194
204
195
199
200
194
201
202
197
199
208
205
209
204
200
197
206
185
179
179
177
175
156
147
157
170
205
173
187
188
193
192
207
210
203
207
207
193
194
193
196
187
187
185
192
195
187
170
183
184
162
183
218
193
179
192
204
207
229
244
226
213
231
195
161
157
177
198
200
202
204
196
202
206
199
189
182
176
175
167
175
176
178
177
174
178
185
193
198
197
199
204
208
210
208
208
207
199
206
206
201
204
207
212
209
207
198
196
194
185
171
173
168
174
158
146
161
166
193
177
183
186
189
191
206
212
206
206
203
200
200
194
198
190
193
196
201
210
193
182
191
182
162
179
203
192
183
194
209
215
228
247
228
211
231
198
155
153
166
186
191
204
204
209
205
200
200
194
183
183
178
182
182
189
178
177
180
182
189
199
206
201
207
214
204
212
210
213
210
208
205
204
204
205
207
210
205
203
199
190
190
178
170
166
169
181
160
148
156
165
199
175
184
185
180
194
202
212
207
209
197
202
203
194
196
192
200
204
204
212
192
190
193
182
175
192
196
178
186
201
204
227
234
242
236
216
226
199
152
154
163
168
187
197
210
214
208
205
200
196
199
186
193
189
185
191
188
181
188
189
193
202
205
209
207
208
204
207
210
210
212
207
213
203
208
202
202
212
205
201
192
187
186
171
165
167
187
184
158
159
150
163
188
174
183
179
178
194
202
207
198
209
198
209
218
205
203
197
185
193
196
198
190
182
180
161
179
187
193
178
181
206
209
226
248
243
236
228
218
194
151
156
161
155
178
188
205
216
216
211
206
202
203
192
195
198
177
191
194
192
199
196
193
201
200
202
207
204
203
206
213
208
211
211
212
201
205
201
208
212
207
195
183
179
171
167
164
171
195
178
152
176
147
162
179
173
176
181
189
201
207
206
202
197
187
192
207
198
195
195
196
203
208
207
194
183
177
163
178
178
199
187
167
204
215
232
251
254
240
237
220
196
144
156
156
157
164
176
194
205
213
209
207
209
197
204
201
197
182
198
194
192
206
198
200
200
199
200
206
203
206
212
211
212
215
210
205
203
205
203
208
202
197
187
178
170
168
167
177
182
190
165
166
168
141
155
181
173
167
183
191
195
218
209
206
190
187
188
195
193
182
192
184
190
194
196
205
188
173
164
179
182
204
183
168
195
223
238
246
253
255
243
222
205
141
153
159
162
159
168
175
194
202
205
201
206
204
205
203
200
192
202
200
198
204
201
201
195
204
205
206
203
207
208
207
207
206
202
204
208
205
201
195
192
192
181
170
174
169
166
184
192
174
168
179
158
133
146
179
172
175
175
190
196
217
207
198
184
188
194
194
189
178
188
181
190
192
189
192
189
162
165
190
187
192
181
180
207
213
234
241
245
253
249
224
216
148
147
159
161
161
162
161
181
188
191
192
196
208
202
207
197
196
196
198
194
204
199
200
200
207
212
209
201
202
202
201
201
203
203
205
205
192
194
189
186
184
176
170
173
165
169
190
194
168
175
185
147
130
142
156
178
183
170
186
201
213
203
186
188
194
191
192
195
177
176
177
195
195
192
194
187
165
159
190
194
188
194
204
204
207
216
228
233
247
249
237
228
161
150
153
153
157
165
162
167
175
179
182
190
204
203
206
201
201
195
192
193
197
189
204
202
201
203
201
196
194
200
199
201
210
205
201
200
185
189
185
178
181
172
165
172
160
175
190
186
169
181
173
139
133
150
149
160
183
171
187
205
207
185
184
196
189
184
199
184
184
184
