P2
# Face with average contibution
92 112
255
185
181
180
180
184
187
183
186
187
188
187
182
185
186
189
190
192
194
191
189
190
192
191
197
200
207
206
203
207
205
203
197
203
199
198
194
190
185
190
182
181
182
182
184
178
191
188
189
183
194
199
197
193
206
204
203
209
210
212
206
219
219
221
211
204
214
212
211
205
206
210
204
199
202
186
191
191
186
186
185
191
191
190
187
186
186
187
189
184
185
188
185
178
185
180
183
184
186
185
184
188
186
188
180
179
190
195
193
199
196
185
187
187
193
195
201
205
207
206
198
198
200
196
195
189
193
192
187
178
177
176
174
173
172
171
173
173
183
184
184
186
184
181
189
192
192
194
195
200
201
195
200
211
211
220
210
212
209
214
210
213
208
208
209
205
202
190
190
194
189
186
186
186
192
188
189
184
189
186
189
184
187
188
187
184
179
182
181
184
187
186
184
187
185
186
178
184
196
198
195
194
198
191
195
196
198
203
208
207
203
203
195
192
189
188
185
178
176
177
170
172
172
163
162
160
164
170
167
169
179
176
178
172
181
175
186
192
188
198
195
196
199
189
192
199
207
213
209
220
209
213
210
212
210
210
211
207
205
199
196
196
194
190
187
185
188
190
189
189
186
188
186
187
185
187
188
182
179
184
182
183
187
184
185
187
187
187
181
197
200
202
199
197
210
206
204
204
202
209
212
203
201
193
188
186
180
171
167
167
167
163
164
169
160
162
159
158
163
173
172
170
176
175
174
173
175
180
186
193
188
194
196
195
199
193
189
197
200
207
204
206
217
213
207
205
211
211
212
211
208
202
199
193
196
194
186
188
187
188
188
188
184
189
186
187
186
188
188
183
181
180
185
184
183
184
182
185
189
189
192
204
198
201
199
203
214
216
211
214
204
207
200
193
189
177
174
167
170
160
158
162
159
158
159
159
156
161
166
170
170
175
172
165
169
169
172
173
177
176
176
179
182
186
193
190
194
194
191
190
196
201
203
203
209
218
210
202
203
211
215
213
210
209
202
200
193
194
186
185
189
183
185
187
186
187
187
185
188
187
185
182
181
180
184
179
180
184
186
182
191
196
201
202
202
207
205
203
210
215
217
215
211
202
190
181
176
164
159
165
162
157
156
153
155
156
154
158
164
170
167
166
173
172
169
160
163
163
169
168
170
176
173
175
173
180
189
190
192
192
197
191
190
192
191
202
200
201
212
203
197
206
209
217
209
212
210
206
200
196
187
186
189
187
181
188
187
185
185
184
186
186
186
182
185
179
185
179
179
182
189
191
195
198
202
197
207
205
208
204
215
208
210
209
203
197
185
180
166
165
166
162
161
163
157
160
160
158
161
165
172
174
178
172
174
170
164
158
156
160
167
164
168
167
173
178
173
178
185
192
191
194
203
200
199
197
192
197
197
191
201
209
205
201
197
211
207
205
213
213
209
201
194
188
185
184
182
186
188
184
182
184
184
187
185
182
180
181
183
181
182
181
193
204
201
198
197
200
206
206
210
208
209
211
202
198
193
185
178
176
173
174
168
165
165
169
168
166
168
168
172
167
179
181
185
177
174
171
171
168
162
165
166
170
166
165
174
180
179
180
183
189
195
194
203
206
210
202
201
201
199
199
197
201
211
207
196
197
204
202
210
208
214
200
201
194
187
185
186
181
182
182
184
181
185
184
184
181
177
184
182
182
184
187
192
203
208
195
202
209
212
216
210
212
208
207
197
191
190
177
177
180
177
176
170
171
170
170
174
173
171
167
172
175
180
188
189
187
186
186
185
181
179
180
179
181
177
180
176
177
179
178
183
189
197
198
207
211
210
207
209
204
205
204
197
197
204
211
203
201
195
202
206
210
209
206
205
205
197
186
189
184
180
186
188
185
183
184
181
177
180
181
184
180
185
196
198
199
204
201
205
211
214
210
209
211
206
199
199
190
184
179
182
185
179
175
173
171
170
170
172
174
173
176
177
182
183
185
185
189
190
194
193
190
194
193
193
192
191
190
183
180
178
184
184
189
198
201
209
210
211
215
211
203
209
210
206
200
199
199
211
205
201
189
203
203
208
207
206
205
205
190
188
191
185
181
187
184
184
186
181
177
179
182
184
181
189
197
198
198
204
207
216
218
216
216
213
207
209
205
195
188
185
185
185
184
183
175
175
182
175
176
174
178
182
182
180
182
186
183
181
181
185
193
193
196
195
195
196
195
196
194
194
191
183
183
188
190
192
203
214
210
208
216
217
212
202
213
211
208
200
198
204
210
215
195
190
201
201
209
205
204
206
206
192
189
190
187
184
181
183
183
181
175
182
182
185
185
192
191
190
193
199
211
218
220
218
218
209
216
213
213
199
194
190
189
192
186
177
175
182
181
183
181
179
182
187
183
184
184
187
186
181
176
179
188
192
192
195
191
195
190
191
195
195
195
187
186
190
189
190
202
210
212
203
208
217
218
206
206
211
208
208
199
198
204
209
211
195
192
201
205
203
201
203
205
200
198
195
188
187
181
183
182
183
181
181
183
188
190
194
192
192
198
204
219
218
221
216
215
209
212
211
202
192
187
191
197
194
191
187
189
187
183
188
183
184
183
187
185
184
185
190
190
188
184
183
186
191
192
191
188
191
188
194
193
190
186
186
181
187
190
190
198
203
210
207
203
215
221
216
211
207
208
208
204
197
197
198
216
206
193
196
201
199
197
196
200
203
201
200
192
188
181
182
184
184
183
179
190
192
193
197
197
193
206
216
219
217
217
213
207
207
206
200
192
191
187
192
194
190
185
193
192
191
188
188
193
194
193
192
193
191
191
191
194
196
192
192
189
184
189
195
190
186
186
190
189
191
188
179
181
185
187
188
191
196
199
201
203
205
215
213
216
212
206
206
204
204
197
197
201
214
202
195
195
201
191
198
194
197
202
197
194
193
180
178
182
186
185
177
193
201
195
199
195
199
213
228
223
224
213
209
205
204
201
189
190
193
196
191
193
187
185
194
198
196
195
196
195
198
197
193
193
193
194
192
194
194
193
192
186
189
186
187
189
189
191
189
187
188
189
186
183
181
183
181
182
188
192
190
196
200
206
210
215
215
207
201
207
207
202
199
188
208
213
200
191
201
201
190
196
202
200
201
198
195
188
178
179
185
186
188
193
204
202
205
200
205
216
218
218
220
210
206
200
200
198
192
192
197
200
192
192
192
192
199
207
205
199
199
197
198
197
196
199
198
194
191
190
190
190
195
191
187
186
184
185
183
191
191
188
183
183
181
179
177
180
175
175
186
188
184
189
194
197
206
211
213
210
201
204
210
204
200
195
193
210
204
203
196
202
193
191
194
195
198
202
189
191
186
180
182
186
196
197
205
209
207
210
207
211
215
225
215
210
202
205
200
200
194
203
200
198
193
195
195
200
208
210
205
201
199
198
199
198
202
206
194
192
195
196
193
196
191
193
189
187
185
185
185
185
187
185
179
180
173
173
173
176
172
177
186
185
179
179
189
189
198
209
210
211
203
206
207
205
202
202
193
195
207
203
201
196
200
188
186
191
195
200
199
189
186
189
183
190
196
202
209
201
211
214
211
212
218
215
207
201
196
205
199
197
197
207
202
200
195
198
203
207
211
209
205
203
201
200
201
203
203
201
193
189
191
195
194
196
199
193
193
191
189
187
187
185
182
178
174
179
175
174
176
176
175
176
183
191
179
182
185
186
196
204
210
209
204
201
205
206
202
206
200
189
205
202
198
193
199
196
189
189
189
195
196
192
190
187
187
193
196
204
207
201
208
214
213
214
208
205
206
198
202
201
204
199
201
203
200
200
195
203
214
210
214
210
207
204
203
203
201
199
198
195
193
191
192
191
193
194
198
195
194
193
192
192
194
187
188
185
179
181
180
176
180
175
174
181
184
190
183
188
187
187
199
199
203
207
208
203
203
207
204
205
212
196
201
201
199
196
197
198
195
184
186
193
195
194
193
190
186
196
199
200
209
203
202
211
215
209
210
207
203
201
202
200
202
199
201
200
203
201
203
211
219
216
214
213
209
205
201
201
194
192
191
191
192
190
194
196
196
195
201
199
197
196
194
196
194
190
189
188
189
187
182
181
182
181
176
181
187
191
189
186
189
192
197
200
204
207
211
206
206
206
208
205
209
202
200
200
198
195
195
194
201
185
185
189
198
196
194
194
184
202
200
204
205
207
204
211
208
210
204
201
195
201
205
199
199
201
201
207
212
211
210
217
223
219
216
214
209
206
201
198
197
194
192
194
196
195
198
201
197
198
198
199
199
195
197
198
194
193
188
188
191
189
186
185
185
181
179
182
183
182
187
185
188
199
198
198
205
214
212
213
213
209
207
208
206
207
203
206
198
195
193
191
199
192
184
185
193
199
194
194
192
201
203
201
203
205
207
209
207
201
196
192
192
197
205
200
201
199
205
211
215
216
214
218
222
220
219
213
207
202
196
196
198
197
197
195
194
197
198
201
197
196
192
196
198
193
194
195
193
189
191
191
191
191
191
188
189
185
184
185
185
187
189
189
194
201
197
200
206
215
213
213
217
216
211
211
207
205
206
209
204
197
192
183
204
198
184
184
190
193
194
190
196
200
197
198
201
204
210
207
204
194
194
187
192
202
205
205
200
204
211
216
217
216
216
217
217
221
220
212
206
203
201
200
200
199
197
197
193
195
201
198
199
193
192
194
193
194
194
193
191
190
191
195
191
193
190
192
187
189
189
189
188
188
187
191
193
197
197
200
207
211
214
213
216
219
217
213
209
204
203
205
206
198
195
184
201
199
191
186
191
191
191
188
192
197
199
195
196
204
208
203
198
189
187
179
197
202
205
202
204
210
214
217
218
214
219
221
221
221
220
213
208
206
202
202
200
195
197
196
197
196
196
197
197
196
195
192
193
194
194
190
188
192
191
194
192
191
190
191
190
189
190
190
189
192
185
190
189
195
196
197
207
207
213
213
213
216
216
215
211
205
201
200
205
201
198
187
194
205
188
182
184
192
193
186
192
194
199
189
194
213
207
201
199
189
182
180
197
204
202
200
210
213
216
219
217
216
218
218
221
217
217
213
205
205
205
201
200
197
196
196
196
195
194
194
195
195
196
192
191
192
192
190
188
188
190
194
192
192
191
191
189
191
188
189
191
191
189
187
187
194
194
195
199
205
209
210
210
213
212
212
210
207
202
196
201
204
208
190
186
205
197
176
179
188
193
191
186
199
200
187
203
212
205
198
198
184
178
186
194
198
197
205
210
214
215
219
215
215
215
218
218
214
215
211
204
204
203
198
197
197
198
196
194
195
196
195
193
193
196
191
191
192
192
190
189
189
188
192
194
193
191
194
192
191
189
191
191
193
188
187
185
188
188
191
195
203
205
204
210
208
211
210
209
207
202
196
200
200
205
196
188
201
191
192
173
185
190
193
192
199
197
192
201
212
206
195
191
175
183
187
193
198
201
209
213
214
216
216
215
213
214
217
217
213
211
207
205
202
200
197
196
195
198
199
198
197
197
197
195
197
197
194
194
190
194
191
192
189
190
188
195
191
192
194
194
190
188
191
191
191
186
185
189
187
186
190
195
204
202
200
205
205
210
207
207
209
202
200
196
201
203
198
197
194
185
192
180
188
189
193
193
197
201
195
202
211
207
189
190
183
193
189
198
199
203
213
213
212
215
215
216
214
212
213
215
211
204
206
202
197
198
195
197
196
196
197
199
197
196
197
196
199
197
198
197
194
195
193
194
192
190
189
193
197
194
193
190
189
189
188
190
189
185
182
186
185
183
186
192
199
201
198
199
202
204
208
205
208
204
201
198
195
202
201
205
189
179
191
188
192
194
194
198
195
201
198
202
204
208
188
188
187
195
194
198
193
207
211
212
211
212
214
215
213
213
210
211
206
205
204
199
196
195
196
195
197
196
196
196
199
197
199
199
202
200
203
201
198
196
197
196
191
192
190
194
193
193
191
189
185
186
188
188
185
182
179
180
179
178
177
181
194
196
193
196
198
202
206
204
206
206
200
199
195
206
199
209
194
185
186
187
194
199
195
204
193
193
204
201
203
204
192
188
189
190
191
191
192
211
209
208
209
207
213
210
209
212
209
209
206
206
203
200
196
194
193
193
193
193
193
195
198
196
197
197
200
203
202
201
198
198
200
197
193
193
191
191
189
190
188
183
183
185
184
181
178
177
175
177
173
174
171
177
184
192
189
190
200
202
202
205
205
204
201
200
194
207
197
206
196
193
182
186
198
200
203
202
195
189
207
206
205
204
188
188
190
187
180
183
197
216
209
208
207
207
207
207
210
210
207
208
206
204
201
198
196
193
192
191
188
190
188
188
192
194
195
193
197
201
200
199
197
198
200
197
194
195
192
193
192
191
186
184
182
181
179
179
177
176
173
175
175
171
172
177
179
183
185
186
195
202
203
203
207
201
200
196
199
201
203
197
200
199
181
190
200
203
207
205
193
193
203
206
203
203
186
188
186
179
176
179
206
219
212
204
203
205
209
210
211
208
206
205
204
202
200
201
196
194
188
188
184
183
184
184
185
190
192
190
192
197
196
197
195
199
198
198
196
196
197
195
191
188
182
180
177
174
175
177
177
174
172
173
173
173
173
171
177
179
180
184
186
198
203
200
210
201
194
198
198
197
207
203
201
199
188
189
201
198
203
202
198
198
202
208
201
200
190
187
183
176
176
180
210
214
207
204
205
212
213
216
211
205
200
200
198
203
203
202
196
196
189
188
184
186
186
183
182
182
192
187
189
191
192
191
193
195
201
203
198
200
198
196
185
181
174
173
174
174
172
178
177
177
176
177
175
179
178
172
177
181
180
182
183
192
205
199
204
206
193
199
200
197
199
211
203
199
191
191
196
196
199
203
199
207
207
202
201
195
193
179
181
176
174
187
211
212
206
207
211
212
217
214
203
199
191
191
193
200
199
202
199
201
199
194
192
190
191
185
185
182
183
188
189
189
188
188
193
195
202
201
197
195
191
187
182
181
176
176
180
181
181
181
184
188
185
185
186
183
183
179
179
183
180
183
185
185
195
203
203
206
200
197
201
198
196
209
212
197
198
197
188
201
201
201
198
207
204
196
197
195
188
178
176
178
175
190
212
216
205
211
210
210
213
203
197
197
195
199
199
199
191
196
191
192
194
197
195
197
196
189
192
190
184
188
189
187
186
187
190
193
191
192
189
188
187
185
182
179
179
182
189
188
195
198
201
201
204
202
200
198
194
190
190
188
187
184
187
188
190
199
202
200
198
198
203
204
195
212
217
197
204
202
193
206
199
198
194
207
204
193
193
195
190
180
176
178
172
194
214
216
208
211
207
214
208
199
199
201
201
202
203
203
201
208
200
199
201
201
207
207
207
201
203
205
204
201
203
198
196
196
197
202
201
200
192
194
190
189
184
179
180
184
192
192
197
197
202
198
198
201
203
199
194
196
200
199
195
196
192
192
186
191
203
201
191
193
203
201
208
211
220
202
207
202
199
212
196
191
210
216
214
191
191
190
184
175
173
172
178
197
213
217
211
211
207
211
203
197
195
196
195
196
199
198
203
202
204
205
209
208
212
211
215
216
208
204
206
206
204
204
205
205
199
202
203
200
192
193
191
188
187
184
190
192
200
200
200
206
202
198
198
194
196
200
198
192
200
204
204
200
197
199
188
184
202
201
196
189
204
201
215
223
225
206
202
202
203
213
196
181
219
221
212
195
190
184
181
167
166
169
180
196
215
220
208
204
203
198
193
185
191
193
186
189
186
180
182
176
180
186
186
188
197
198
201
212
204
200
199
200
203
206
207
202
202
199
201
196
190
189
192
193
194
191
203
208
206
202
202
202
201
199
201
201
200
201
199
197
198
204
210
214
207
207
205
194
197
197
201
197
199
200
222
230
223
214
203
202
204
206
191
179
220
218
212
200
190
182
183
156
165
165
176
202
210
215
204
197
203
188
184
180
189
192
193
188
190
181
182
178
172
171
172
169
180
185
182
194
196
204
207
206
207
206
207
197
197
190
193
189
190
192
192
194
191
195
199
194
196
191
200
207
203
191
196
187
193
195
191
188
190
196
206
214
214
211
212
211
207
200
202
198
199
195
219
230
221
213
202
195
199
197
193
188
202
212
212
206
190
184
170
158
159
161
179
201
208
211
200
199
194
183
181
181
185
191
190
188
179
174
174
169
165
166
162
159
161
161
167
174
183
191
196
205
205
199
198
198
190
190
188
187
190
191
189
191
192
186
196
189
189
197
202
201
199
184
200
179
189
194
194
194
185
191
194
205
215
214
211
212
214
212
206
202
202
200
214
228
213
213
196
190
186
193
190
195
193
195
215
212
199
182
177
166
154
165
174
201
205
216
200
198
183
178
180
189
186
192
188
180
181
178
184
183
172
168
181
172
182
178
191
187
196
197
195
197
201
206
193
196
187
190
184
185
183
181
182
188
181
193
193
185
196
195
193
197
205
199
193
190
199
203
215
214
201
193
195
202
210
226
222
221
221
220
216
212
213
206
216
223
214
207
202
189
180
192
190
193
205
189
212
211
205
176
182
168
166
166
185
199
206
221
196
192
180
176
177
180
180
191
190
192
182
189
192
194
182
181
189
178
191
187
200
192
189
187
191
195
200
205
183
189
178
181
180
186
182
186
188
187
187
190
188
187
196
196
194
199
202
201
191
187
192
199
205
210
203
191
199
198
204
213
219
225
226
225
224
210
227
213
223
222
213
215
208
189
180
195
188
194
202
195
209
208
198
176
189
169
174
170
198
203
208
213
187
177
165
158
160
159
164
168
166
165
164
178
197
205
195
185
188
193
199
207
210
209
201
196
197
198
215
211
194
206
192
186
200
193
191
194
196
192
193
194
192
198
198
198
196
201
196
198
190
187
186
192
195
196
194
194
191
191
197
201
211
214
220
220
219
209
216
215
225
232
218
221
206
189
191
186
189
195
197
195
204
201
189
172
182
168
171
174
195
202
196
190
184
188
177
172
177
179
186
186
194
183
202
203
205
208
202
211
214
206
211
214
205
218
218
217
224
215
224
226
224
228
212
197
198
192
192
192
198
201
196
204
205
207
196
196
194
198
191
194
186
189
186
189
193
187
187
190
185
195
193
193
213
216
218
214
215
208
210
214
217
233
214
224
211
188
193
182
193
201
193
201
192
197
187
171
168
161
167
179
199
197
195
197
184
186
176
178
180
180
187
194
197
189
204
207
212
207
209
230
218
226
226
214
207
213
208
197
209
208
205
208
223
212
198
191
188
195
195
198
197
201
188
207
206
202
201
201
196
206
209
205
206
201
207
210
211
212
207
209
200
195
203
197
203
211
215
213
210
208
209
215
222
242
203
214
214
193
192
178
195
208
195
206
200
199
184
176
158
165
163
175
199
213
201
196
181
176
176
175
177
179
181
184
178
179
195
199
198
197
198
221
211
215
218
208
203
210
202
208
201
198
193
194
203
187
181
181
174
177
173
170
173
176
172
190
195
187
199
195
194
186
192
196
212
204
223
231
216
215
205
208
212
210
205
206
207
206
208
207
211
212
208
221
235
238
195
205
208
211
190
175
198
204
200
197
204
203
184
168
158
167
181
173
200
199
196
200
188
178
167
165
171
173
173
169
174
178
186
189
183
180
178
201
203
205
203
207
200
204
188
201
199
201
198
193
214
204
205
205
196
199
175
171
172
182
167
180
189
188
192
180
176
167
170
183
197
210
218
224
213
210
197
190
211
221
212
219
213
203
198
203
210
210
211
220
230
233
200
203
210
212
189
179
202
201
198
189
189
192
184
168
149
161
171
161
185
177
194
188
181
178
172
177
184
176
173
176
177
177
177
180
179
173
178
180
186
184
195
197
207
211
196
198
195
197
209
198
207
204
208
201
194
192
183
180
185
190
183
175
186
178
176
177
177
182
182
183
190
209
212
213
211
198
189
186
195
198
198
205
208
195
192
195
205
198
197
221
213
231
211
202
209
205
201
186
199
203
199
187
181
180
171
176
146
169
156
163
171
180
197
183
187
179
172
183
192
188
184
184
182
184
182
174
187
184
183
197
184
194
209
203
208
207
198
202
202
205
219
221
200
203
212
192
176
186
181
184
195
189
190
163
166
165
177
176
183
195
192
185
186
193
194
198
195
188
193
189
198
197
192
201
207
187
180
190
202
192
193
225
206
236
221
202
199
202
201
202
193
199
202
192
175
172
178
161
129
134
158
163
171
185
203
185
184
189
174
191
205
186
183
190
186
181
187
175
183
194
192
212
203
208
206
214
212
214
212
203
205
210
225
218
184
206
213
192
179
182
181
191
198
196
205
172
181
174
178
177
193
204
199
182
181
195
204
205
203
194
197
190
198
193
191
198
208
196
188
193
200
201
189
222
209
234
226
197
197
204
206
208
193
194
200
205
197
189
190
187
147
127
154
168
168
187
218
192
185
192
176
188
196
183
186
186
194
197
189
184
190
192
208
213
220
219
211
226
206
205
209
218
215
216
238
205
190
202
205
202
190
191
191
200
190
187
190
183
195
180
179
187
202
211
203
195
190
199
221
218
224
211
206
199
198
195
190
196
214
199
203
200
200
216
195
208
204
233
222
200
201
209
205
199
206
197
200
212
212
202
193
202
170
146
165
169
167
192
222
194
189
191
181
190
178
172
182
189
202
206
199
197
198
203
214
214
221
216
217
220
207
195
208
215
216
230
240
195
207
198
191
196
197
188
176
192
183
179
176
200
196
182
186
194
203
202
196
206
213
213
226
230
238
231
219
211
200
196
196
211
215
206
206
211
200
208
195
209
197
221
222
197
198
211
213
194
216
201
193
200
194
183
184
197
174
157
178
178
177
193
210
184
186
190
183
189
174
169
178
194
206
202
196
193
194
199
203
212
216
216
218
214
207
203
211
219
217
255
234
192
211
197
191
187
196
180
174
172
168
179
177
190
202
174
181
187
195
210
209
211
207
209
217
226
230
221
215
199
203
195
197
210
214
200
201
212
206
195
193
196
185
212
215
190
191
204
214
198
223
208
184
187
188
166
190
183
179
157
179
182
187
198
207
192
182
194
182
189
182
179
186
193
203
199
194
189
196
199
202
217
212
222
215
211
205
202
213
215
225
253
210
194
207
202
194
192
186
183
181
168
160
170
170
181
209
185
169
183
193
198
208
209
198
196
214
205
214
207
199
190
193
194
197
206
198
191
197
208
204
186
192
182
176
188
206
192
187
193
215
202
227
214
177
183
188
163
201
182
184
157
169
182
187
201
198
199
179
196
193
193
192
189
196
197
203
202
201
197
202
201
201
217
221
229
210
211
208
204
206
217
232
227
190
192
198
198
193
192
177
181
196
180
166
170
166
180
201
206
170
177
188
201
201
203
202
202
212
209
207
209
209
206
198
187
192
200
191
188
201
206
196
179
199
175
183
175
204
194
188
186
213
210
226
213
184
193
201
164
203
186
181
173
157
182
191
203
193
198
185
192
192
195
199
192
199
201
201
196
193
190
194
194
197
209
226
209
206
209
205
205
203
217
223
191
174
191
199
188
194
179
175
180
191
199
170
181
170
176
210
206
192
176
185
190
192
197
205
203
208
210
210
202
204
206
204
194
197
195
201
194
204
204
197
198
195
182
185
172
206
196
186
198
198
222
225
211
190
196
199
189
213
203
188
196
165
179
200
204
199
184
198
200
191
191
188
190
191
197
193
188
186
187
191
189
197
204
208
197
205
207
206
206
211
225
214
181
182
200
193
181
187
177
175
176
189
195
189
197
181
172
193
205
190
185
181
183
192
200
202
203
199
204
202
206
197
200
195
198
192
194
197
193
202
205
198
199
188
194
180
172
200
195
184
198
194
229
221
217
190
190
202
211
220
214
210
212
184
161
193
208
191
184
179
196
205
190
182
183
184
187
188
182
180
187
190
196
204
199
199
196
198
202
210
208
215
213
184
197
195
204
187
183
179
169
173
175
179
189
189
188
186
176
193
201
189
190
198
190
191
197
199
203
197
197
198
200
198
195
197
202
195
195
195
190
200
213
199
187
193
192
176
170
198
196
172
190
196
233
214
224
190
201
200
205
215
211
198
199
200
150
185
202
190
181
177
182
188
194
187
186
184
184
186
178
179
186
191
197
195
196
196
196
195
204
209
214
203
190
194
194
202
194
184
175
172
158
167
171
170
177
182
187
181
178
200
202
200
190
193
203
203
204
204
207
202
199
201
202
200
198
199
205
202
203
203
195
198
187
190
183
188
184
172
172
198
186
159
182
186
228
215
224
194
218
199
199
203
197
181
180
196
170
173
204
187
187
178
182
183
184
186
190
193
194
196
197
195
196
193
199
202
205
205
199
199
202
200
204
187
193
201
200
203
190
181
172
171
162
166
171
170
176
185
194
181
183
182
202
210
202
201
206
209
202
212
214
212
206
202
202
202
197
199
196
189
186
194
187
193
186
189
184
186
181
169
175
194
164
164
181
202
216
221
214
186
227
200
189
202
188
177
176
182
193
171
192
194
188
183
189
185
192
184
194
191
190
188
186
185
182
181
188
193
195
198
199
197
208
205
197
194
194
204
208
201
190
183
173
166
165
166
176
180
180
185
193
182
185
181
192
211
213
204
208
208
202
200
205
203
202
200
199
199
198
197
195
192
188
192
195
193
189
189
189
182
176
171
174
184
163
175
184
203
211
222
218
189
225
207
192
194
194
181
174
182
193
198
189
190
191
189
189
179
190
186
184
181
184
181
181
184
183
181
185
191
193
198
200
197
201
207
207
194
199
210
210
194
172
182
175
163
161
166
178
184
185
183
184
180
173
187
178
204
215
214
209
214
206
198
202
201
199
195
195
193
196
193
195
195
192
192
196
189
195
193
191
183
176
173
177
170
187
180
198
195
207
221
217
187
214
217
191
187
189
180
174
182
200
202
205
194
177
187
187
187
180
187
184
185
185
188
187
189
188
186
190
197
194
195
196
200
210
215
201
195
196
207
201
186
179
184
174
173
167
170
179
183
185
196
191
175
178
176
175
175
209
214
212
212
208
206
203
203
204
200
199
194
197
197
196
199
195
192
190
191
194
197
189
179
177
176
182
170
195
183
210
192
200
215
213
168
198
203
186
182
178
171
181
186
202
208
198
203
197
174
174
180
191
182
186
190
190
190
189
188
190
186
192
187
186
189
206
212
204
201
200
193
194
195
197
193
190
192
179
182
176
179
180
181
185
198
206
193
184
182
176
164
185
207
209
210
212
213
214
213
209
206
204
203
201
198
199
194
196
192
190
187
192
198
182
189
183
181
177
181
188
187
212
195
180
204
201
159
196
187
177
184
177
162
187
190
204
204
202
199
199
188
184
174
176
185
185
180
186
184
180
175
177
176
183
184
196
202
197
202
194
194
196
192
196
199
205
204
201
191
189
187
185
184
183
181
190
194
207
208
191
195
193
184
172
191
213
208
207
207
211
213
216
212
204
201
203
200
196
197
197
194
186
184
197
194
189
192
190
180
168
189
189
192
211
195
177
193
195
161
195
198
180
184
177
164
190
195
199
202
200
204
204
191
188
185
187
190
189
180
182
180
176
172
178
184
191
195
196
189
194
194
192
198
193
193
206
216
222
221
210
200
201
190
186
187
189
194
200
203
210
216
214
208
207
204
189
189
203
209
211
209
208
211
212
216
212
208
206
206
198
197
198
189
186
194
199
198
187
199
192
168
187
193
196
199
201
194
183
192
207
155
179
200
190
175
173
164
194
195
195
196
201
204
209
197
193
184
185
184
184
173
176
178
180
180
184
194
197
196
201
196
199
197
196
197
197
197
207
225
228
222
214
208
206
194
187
186
197
209
207
210
220
227
219
222
218
208
202
205
195
194
209
203
205
208
215
217
215
213
215
211
208
203
202
198
198
193
197
193
186
199
181
177
193
197
200
205
200
187
187
190
201
157
158
196
204
180
181
174
197
189
199
195
193
195
211
197
195
195
191
185
183
178
180
186
187
182
185
191
194
194
194
195
196
192
201
198
198
205
210
216
218
210
201
199
204
198
190
197
205
211
207
212
216
219
204
204
212
209
200
202
199
202
197
196
201
204
208
211
213
211
211
209
202
204
207
205
200
193
199
200
189
191
182
185
201
210
203
208
198
181
194
189
190
161
154
177
208
183
185
192
203
193
196
199
197
187
208
199
192
193
187
185
182
182
178
183
184
179
179
185
189
189
192
196
195
193
203
205
204
208
207
214
211
204
198
210
207
209
197
203
212
212
218
219
220
221
204
195
200
203
196
195
193
198
205
199
195
192
196
200
206
206
204
206
208
208
201
200
201
198
206
186
187
192
182
193
211
221
198
215
201
188
198
183
193
166
160
164
196
191
187
195
208
206
197
196
208
190
201
198
191
189
186
184
184
179
176
175
180
178
181
184
189
191
190
200
192
197
202
207
206
199
202
208
210
209
207
217
216
215
207
209
223
218
226
223
225
225
227
206
203
202
197
193
192
197
202
198
205
203
194
195
192
199
199
198
201
199
188
188
191
190
192
194
197
184
179
202
212
216
203
221
189
190
189
186
195
173
162
163
182
192
183
193
209
211
205
204
216
196
192
197
188
188
185
184
181
179
179
177
184
183
186
187
191
192
193
199
194
195
197
200
194
188
193
199
203
206
209
212
215
210
202
214
231
227
234
224
223
223
235
215
206
213
203
193
197
196
204
204
201
202
199
194
192
195
194
193
196
193
195
194
190
192
197
195
204
183
179
203
210
220
214
220
184
182
187
192
196
182
173
163
179
194
185
191
205
209
214
211
217
211
187
194
187
189
188
187
181
184
181
182
187
185
188
189
198
198
198
198
199
199
193
195
187
187
183
192
204
211
215
210
208
205
209
227
230
231
228
220
223
228
236
236
218
223
212
195
192
188
189
197
198
199
194
189
185
187
192
192
195
191
194
187
187
198
199
191
195
186
178
205
212
223
219
209
175
170
183
191
195
183
186
176
167
195
189
192
199
201
213
215
211
214
190
191
189
191
191
183
185
187
182
183
188
190
190
193
201
200
203
204
206
204
201
193
185
190
187
198
198
207
209
208
205
206
219
236
228
229
226
224
220
223
227
236
216
223
210
197
194
182
188
199
198
196
196
196
191
186
189
191
191
188
191
190
192
199
203
187
197
189
180
204
220
224
217
200
166
169
182
191
187
184
193
186
165
190
190
204
202
195
208
210
217
213
192
184
189
188
189
184
185
187
184
184
185
192
190
195
198
202
207
210
210
209
203
205
192
191
196
196
200
197
190
205
201
208
210
221
214
217
218
220
213
213
217
213
203
214
212
203
195
188
186
191
198
191
193
195
199
193
195
191
197
189
191
195
195
199
195
188
198
190
183
195
213
214
210
186
161
173
183
187
185
186
192
191
168
181
192
203
203
192
199
204
215
207
191
186
186
191
190
187
187
186
184
186
187
188
188
195
199
207
211
210
212
210
201
208
196
194
202
211
206
202
195
189
195
195
194
200
202
207
210
209
206
207
205
196
194
206
205
203
196
193
185
192
199
198
190
194
200
195
196
192
198
195
191
193
195
199
197
191
200
181
182
183
199
195
195
178
163
177
186
185
192
187
190
196
179
176
190
205
205
189
190
200
207
201
192
182
185
189
186
193
188
189
187
185
188
185
192
195
198
205
210
211
210
205
198
203
200
203
202
211
211
205
201
191
189
186
188
188
194
194
211
214
210
209
202
194
194
203
202
202
195
190
188
199
204
207
193
202
208
198
193
193
197
195
194
191
193
197
196
196
200
177
181
174
184
188
189
177
173
175
191
185
195
186
191
196
184
185
183
201
212
199
194
198
201
203
196
182
186
189
188
193
186
191
185
180
187
190
198
197
198
205
200
197
193
189
193
192
190
201
202
202
209
205
200
194
179
187
191
184
189
190
205
210
205
206
198
195
190
196
197
205
188
191
189
200
205
205
206
200
212
203
189
192
200
196
191
192
192
194
197
199
193
174
179
170
181
190
185
180
173
182
189
186
197
188
196
196
179
189
187
190
212
208
197
196
203
204
206
185
188
187
194
189
181
190
181
184
192
195
197
198
199
197
191
185
182
178
187
181
182
195
196
194
198
199
196
191
175
184
182
183
181
186
197
207
205
210
196
195
191
194
196
202
192
193
192
200
203
204
208
207
213
211
194
187
200
199
195
193
191
194
190
199
186
173
179
172
186
191
181
183
171
183
188
187
190
190
194
191
185
186
190
179
197
215
199
192
206
199
203
189
185
186
194
183
187
193
186
191
187
198
198
196
193
188
191
187
177
177
188
183
182
190
192
191
190
185
185
182
175
183
184
184
187
185
193
205
213
212
208
201
202
200
199
199
200
200
199
202
200
205
206
211
215
214
199
193
200
199
198
192
190
198
187
200
182
173
180
176
192
184
178
181
172
182
188
189
183
190
187
196
184
184
189
173
183
203
207
195
204
200
204
193
184
187
192
183
188
192
187
188
187
193
196
197
188
192
195
197
184
181
195
194
191
191
198
199
198
192
185
187
183
189
192
195
199
193
201
211
213
221
212
212
207
210
208
207
211
209
200
202
204
206
204
204
212
211
199
189
200
195
197
197
193
198
193
204
186
179
186
181
185
183
186
176
176
185
189
189
184
191
188
194
187
182
185
168
176
190
197
194
201
202
203
197
191
182
192
189
187
197
189
183
187
190
197
199
190
192
200
201
190
194
200
204
207
204
204
214
216
211
201
198
201
203
201
204
215
211
205
219
218
225
216
218
214
214
220
222
220
215
205
201
207
208
207
203
209
210
199
188
194
192
193
194
196
200
205
208
192
189
188
185
183
185
181
178
183
187
187
187
187
194
193
192
191
181
184
172
166
189
184
185
191
201
194
202
195
186
193
184
191
190
187
180
187
187
196
197
194
201
200
196
191
193
200
200
207
209
211
220
219
221
212
205
206
205
203
207
211
203
204
210
213
208
205
204
205
206
210
210
213
203
199
195
204
211
207
212
205
204
198
190
189
193
192
193
200
202
214
215
194
195
198
184
188
182
182
179
185
188
185
187
186
194
195
193
196
185
183
176
168
183
181
182
191
201
198
210
202
190
194
190
192
190
182
178
181
178
175
180
197
200
189
191
190
194
197
195
213
213
212
211
214
211
206
199
196
197
188
192
193
194
191
193
197
194
191
191
188
184
187
195
199
191
192
186
191
203
206
204
202
202
193
187
186
197
193
194
199
207
217
208
192
200
196
181
185
184
181
186
190
189
186
186
185
193
196
194
197
184
181
178
175
175
184
177
191
199
200
216
207
198
193
191
193
188
182
183
184
177
177
163
173
181
168
165
172
173
177
180
196
204
198
194
201
202
204
192
184
193
186
192
188
184
184
183
188
180
180
184
172
164
174
177
185
186
194
193
191
200
193
197
195
202
189
187
184
192
194
192
198
208
218
197
191
202
189
182
174
180
186
190
196
189
189
185
181
193
195
195
195
189
183
183
177
171
182
184
192
197
200
210
210
202
195
192
192
188
189
182
180
178
187
179
164
159
156
151
151
157
153
162
169
180
183
180
188
194
203
194
184
183
182
190
190
185
179
178
187
178
173
185
176
176
177
176
192
192
200
208
196
188
189
186
193
199
187
191
192
193
194
194
198
210
216
193
195
196
184
179
184
183
184
194
191
193
190
186
181
192
194
195
191
193
186
189
174
169
179
183
193
204
203
205
212
200
196
195
191
190
197
188
189
184
191
184
172
161
161
155
142
158
148
151
141
160
173
172
182
191
194
189
184
184
176
175
184
182
176
174
184
185
187
201
198
201
202
205
210
207
206
211
193
188
196
193
196
201
192
198
198
196
195
201
205
214
201
196
198
193
180
185
187
186
185
192
195
196
189
182
180
193
192
195
192
197
190
187
171
174
167
186
192
203
203
206
212
198
192
196
193
198
202
196
196
188
194
191
179
166
167
169
159
161
163
163
144
165
175
164
174
183
180
176
178
175
178
176
178
188
185
190
195
196
195
206
204
202
202
203
201
198
199
205
193
201
209
210
201
202
197
200
201
194
199
204
212
218
191
197
197
186
185
183
186
184
190
191
190
200
189
182
181
194
191
191
194
197
191
182
178
174
168
178
193
196
204
204
212
196
186
193
196
197
203
204
197
193
194
194
184
174
167
171
167
162
162
167
157
176
179
172
165
167
165
157
164
165
178
173
175
187
176
183
190
190
194
206
204
198
192
192
196
196
199
199
198
209
212
217
208
203
198
204
203
200
202
208
219
205
195
201
193
186
182
184
184
182
194
192
189
198
196
181
181
195
193
193
199
196
192
183
180
176
167
170
188
188
197
203
208
198
188
193
207
197
208
206
201
196
193
189
185
176
171
170
167
160
161
155
158
170
172
174
168
170
177
167
170
177
185
176
177
180
183
184
185
185
184
191
188
190
187
194
201
197
200
201
207
215
219
212
211
210
207
210
208
204
209
211
212
204
200
195
194
190
185
189
183
190
193
195
189
197
197
181
180
196
198
198
200
199
189
182
175
176
177
176
187
189
194
196
206
193
188
198
201
199
207
206
203
191
192
188
180
172
175
167
166
160
161
155
160
171
167
162
165
162
170
165
171
181
179
175
177
179
178
183
178
181
181
195
191
205
206
207
205
194
202
203
207
214
214
212
212
215
211
206
205
206
207
212
207
199
203
197
196
189
191
190
190
193
195
194
194
197
198
182
180
196
198
199
201
194
187
180
175
173
180
185
196
191
199
197
198
192
188
193
199
200
211
204
204
202
193
188
181
177
176
165
158
164
162
162
159
168
168
168
172
165
165
165
167
171
171
180
177
189
182
187
188
185
186
196
200
204
211
204
202
192
201
199
204
209
212
215
212
211
210
209
204
210
209
208
195
200
201
202
192
186
193
192
193
198
195
192
194
199
205
179
182
196
200
202
194
191
187
183
178
175
176
194
202
191
202
199
191
192
192
194
200
202
208
206
201
204
197
194
183
183
177
174
167
165
170
173
164
166
170
173
174
168
171
174
177
174
177
184
187
189
183
186
187
188
192
201
201
202
205
204
202
200
204
204
202
209
208
211
206
214
209
208
205
212
207
210
203
196
201
204
193
186
192
195
199
199
199
197
189
199
207
185
177
199
203
196
190
188
185
186
181
176
176
198
207
198
197
196
193
189
194
198
200
202
206
207
203
199
202
193
190
187
188
178
172
175
169
173
169
170
168
175
174
174
172
181
182
182
181
184
188
187
188
193
195
195
201
207
207
205
210
211
209
210
207
206
210
207
201
205
203
215
210
201
207
207
207
203
209
205
203
206
192
191
191
195
200
199
202
199
190
198
211
189
181
200
200
195
190
189
186
186
185
172
181
202
209
208
185
196
202
194
196
204
205
200
200
212
208
196
205
196
197
192
193
184
184
185
175
174
173
176
171
178
172
184
177
185
186
194
190
193
189
197
195
204
206
203
198
212
218
214
212
216
210
211
205
207
210
212
203
202
208
213
207
202
207
206
208
205
211
211
214
201
196
189
197
195
195
204
202
199
190
198
208
196
190
202
198
194
191
188
190
186
184
173
187
204
210
199
186
195
206
196
199
200
212
199
191
210
208
200
205
198
198
198
191
188
189
183
186
183
181
182
178
181
180
186
181
187
189
192
189
193
186
192
194
197
199
201
199
211
214
213
210
215
211
208
202
205
211
205
202
201
206
206
210
204
199
206
208
198
209
216
217
198
197
194
200
201
196
197
206
198
190
198
209
197
197
198
197
190
195
189
192
186
186
179
185
203
203
192
196
193
200
200
199
195
209
207
189
203
209
204
200
199
201
195
199
194
191
185
186
182
185
184
180
180
182
186
183
191
189
190
186
192
184
186
183
184
191
194
199
205
209
209
206
212
213
209
199
209
208
197
205
193
201
205
206
192
199
209
206
199
205
213
211
209
190
204
202
202
200
196
201
204
190
201
208
200
200
198
196
193
192
192
190
187
188
193
182
206
202
195
188
189
205
208
202
197
201
217
194
195
207
205
196
205
195
196
196
196
185
190
188
178
177
179
174
179
176
181
180
187
182
179
183
179
173
180
177
174
184
188
200
194
204
202
205
209
206
204
200
205
209
192
202
198
203
198
196
187
197
211
203
205
208
200
196
206
202
198
204
201
206
199
198
201
194
204
205
197
203
197
196
196
189
191
188
192
199
205
187
211
200
196
174
196
217
219
206
205
197
215
208
193
200
205
198
198
200
196
196
189
187
183
189
183
177
182
178
175
172
177
176
176
167
171
172
172
161
180
173
177
181
181
193
183
191
195
197
198
193
196
193
202
206
191
201
197
202
197
189
193
200
209
203
205
215
197
181
200
209
198
199
196
207
201
201
196
193
208
207
196
202
201
196
198
193
191
192
200
212
208
196
206
193
194
182
196
227
228
206
206
203
211
211
197
196
205
198
196
197
195
190
191
192
188
192
186
183
187
182
180
178
179
174
172
170
174
170
169
168
182
177
183
178
184
185
187
187
192
192
191
195
192
185
194
204
190
192
200
194
192
191
192
201
208
202
214
204
192
189
188
212
201
195
198
203
199
203
193
190
214
207
197
202
205
198
199
198
195
197
210
211
203
194
202
194
188
189
206
227
233
210
205
205
212
205
201
195
197
201
196
197
197
192
195
194
189
194
186
192
185
186
184
183
183
181
183
177
178
172
173
173
176
175
183
176
185
189
192
188
194
188
190
200
191
184
192
189
201
193
188
186
186
194
186
201
204
203
220
207
188
191
193
208
203
192
200
201
199
196
186
182
206
201
191
197
203
201
199
201
194
199
211
210
200
193
195
191
190
197
209
225
233
214
203
213
210
205
206
200
197
199
199
199
198
193
197
187
194
190
191
195
193
189
186
190
181
185
187
180
178
178
179
179
173
177
178
180
185
188
187
191
189
190
188
199
186
183
194
188
204
189
185
186
184
191
187
192
207
208
209
207
192
192
198
200
204
190
191
205
198
195
183
184
207
197
191
198
202
203
203
200
190
203
209
194
200
193
191
180
187
205
212
220
223
225
210
219
207
204
208
206
202
203
198
198
195
199
190
191
193
195
190
200
191
193
187
189
183
183
190
186
187
184
184
179
179
180
180
189
189
188
188
192
184
185
181
193
186
180
193
195
185
184
187
182
188
190
185
184
205
209
207
214
189
194
198
195
199
195
187
202
202
194
182
187
208
193
189
199
202
203
200
192
189
204
194
197
202
198
184
179
182
218
219
215
218
236
230
206
214
205
206
219
213
209
197
199
195
203
193
189
194
192
194
205
192
197
186
184
183
187
188
189
188
193
185
182
184
191
186
186
194
188
183
191
181
180
177
186
186
187
192
191
176
185
185
185
184
181
173
190
192
197
220
221
199
188
198
202
194
197
186
194
209
201
186
194
202
187
182
187
198
194
192
191
198
204
194
205
195
198
184
174
188
213
216
215
229
241
230
208
212
202
206
221
224
223
201
193
196
206
199
188
190
195
196
200
194
196
192
180
186
183
184
185
185
188
183
188
190
194
193
184
193
184
178
185
177
182
185
183
189
188
194
194
179
182
187
183
178
175
176
195
188
186
222
225
215
197
188
198
195
199
186
187
203
199
191
207
201
189
179
189
193
189
200
193
198
198
197
202
193
198
184
174
194
213
206
229
234
238
223
216
207
204
211
219
225
229
212
196
194
199
203
192
190
192
196
198
197
201
191
182
187
182
180
179
186
186
185
184
190
193
191
184
188
187
183
188
189
184
189
185
193
196
198
198
183
184
183
175
169
176
181
194
194
177
220
218
219
214
197
187
191
197
187
181
197
200
194
207
196
187
181
188
187
186
195
181
188
188
197
192
186
202
182
173
201
211
220
230
232
239
223
211
214
202
216
215
221
228
227
211
195
198
204
201
191
194
194
197
196
195
191
184
190
186
180
184
186
184
191
186
191
197
195
189
191
190
185
189
194
187
186
189
198
196
202
203
185
183
177
173
169
182
182
190
194
177
221
220
209
213
213
188
185
185
179
176
185
192
201
204
195
189
186
185
191
193
193
182
182
184
195
180
181
200
179
182
205
218
237
216
229
241
229
205
212
213
213
214
214
226
227
224
208
201
205
201
196
200
191
195
194
193
196
191
198
187
185
186
190
185
190
189
192
200
199
192
193
191
188
189
191
189
190
198
202
201
199
211
183
176
172
171
177
183
178
189
189
183
221
219
216
205
210
196
189
178
178
174
181
181
198
188
178
172
179
182
196
193
199
193
174
188
196
180
191
196
179
192
216
228
228
213
225
233
234
212
209
222
219
202
213
224
221
223
216
208
198
198
202
204
200
201
196
193
201
195
204
197
193
188
193
187
196
192
195
199
198
193
194
194
197
196
190
193
202
204
204
203
199
206
179
172
172
176
181
179
174
185
195
188
216
220
223
212
208
198
201
177
177
172
173
188
197
186
186
169
168
182
192
191
189
176
165
181
185
179
196
192
189
196
229
223
219
218
222
226
232
220
214
224
219
212
209
216
217
219
217
209
206
202
205
203
207
207
205
206
206
196
198
201
198
195
197
197
198
194
198
200
197
200
196
204
198
194
190
206
208
208
203
200
192
195
174
172
171
184
179
180
174
185
197
195
216
218
224
216
205
199
201
182
171
174
173
196
196
186
186
175
172
172
189
191
189
172
155
176
177
182
191
190
206
205
223
225
219
219
217
223
227
219
222
229
217
207
213
207
207
215
214
211
208
211
212
205
206
207
202
204
212
203
204
198
201
199
200
207
205
200
201
205
200
202
202
203
197
203
209
211
207
209
200
199
188
188
178
176
182
182
179
182
169
189
199
202
217
214
224
213
205
204
195
185
171
173
182
200
194
181
188
175
181
173
182
185
181
172
158
175
180
192
190
199
222
210
216
217
223
220
224
229
234
216
225
242
216
204
209
213
215
211
208
208
203
211
215
208
204
209
201
202
205
205
207
207
207
206
206
211
206
208
208
208
207
206
203
209
210
218
212
215
203
204
197
199
195
184
181
183
186
181
182
173
166
197
197
205
220
209
212
209
203
209
198
183
184
174
191
191
193
190
180
178
175
184
182
179
169
166
156
183
190
207
200
220
217
213
211
210
226
234
237
231
241
216
216
243
220
206
203
208
212
213
213
199
197
200
208
213
204
209
194
202
199
200
199
206
204
202
208
206
204
206
205
206
207
204
214
215
217
219
207
211
200
204
199
196
199
189
181
188
188
182
180
168
168
204
198
207
214
200
203
201
200
213
195
184
181
198
192
180
187
192
178
176
166
179
